<svg xmlns="http://www.w3.org/2000/svg" xmlns:xlink="http://www.w3.org/1999/xlink" contentStyleType="text/css" data-diagram-type="SEQUENCE" height="1261px" preserveAspectRatio="none" style="width:838px;height:1261px;background:#FFFFFF;" version="1.1" viewBox="0 0 838 1261" width="838px" zoomAndPan="magnify"><title>1950 F1 Season - Points by GP, Grouped by Driver</title><defs/><g><text fill="#000000" font-family="sans-serif" font-size="14" font-weight="bold" lengthAdjust="spacing" textLength="396.293" x="217.1931" y="27.9951">1950 F1 Season - Points by GP, Grouped by Driver</text><g><title>GP1</title><rect fill="#000000" fill-opacity="0.00000" height="1120.4531" width="8" x="52.895" y="89.8906"/><line style="stroke:#181818;stroke-width:0.5;stroke-dasharray:5.0,5.0;" x1="56" x2="56" y1="89.8906" y2="1210.3438"/></g><g><title>GP2</title><rect fill="#000000" fill-opacity="0.00000" height="1120.4531" width="8" x="171.4668" y="89.8906"/><line style="stroke:#181818;stroke-width:0.5;stroke-dasharray:5.0,5.0;" x1="174.79" x2="174.79" y1="89.8906" y2="1210.3438"/></g><g><title>GP3</title><rect fill="#000000" fill-opacity="0.00000" height="1120.4531" width="8" x="286.4429" y="89.8906"/><line style="stroke:#181818;stroke-width:0.5;stroke-dasharray:5.0,5.0;" x1="290.1436" x2="290.1436" y1="89.8906" y2="1210.3438"/></g><g><title>GP4</title><rect fill="#000000" fill-opacity="0.00000" height="1120.4531" width="8" x="397.3145" y="89.8906"/><line style="stroke:#181818;stroke-width:0.5;stroke-dasharray:5.0,5.0;" x1="400.4102" x2="400.4102" y1="89.8906" y2="1210.3438"/></g><g><title>GP5</title><rect fill="#000000" fill-opacity="0.00000" height="1120.4531" width="8" x="511.8838" y="89.8906"/><line style="stroke:#181818;stroke-width:0.5;stroke-dasharray:5.0,5.0;" x1="515.2188" x2="515.2188" y1="89.8906" y2="1210.3438"/></g><g><title>GP6</title><rect fill="#000000" fill-opacity="0.00000" height="1120.4531" width="8" x="630.9785" y="89.8906"/><line style="stroke:#181818;stroke-width:0.5;stroke-dasharray:5.0,5.0;" x1="634.5488" x2="634.5488" y1="89.8906" y2="1210.3438"/></g><g><title>GP7</title><rect fill="#000000" fill-opacity="0.00000" height="1120.4531" width="8" x="745.6196" y="89.8906"/><line style="stroke:#181818;stroke-width:0.5;stroke-dasharray:5.0,5.0;" x1="749.4082" x2="749.4082" y1="89.8906" y2="1210.3438"/></g><g class="participant participant-head" data-participant="GP1"><rect fill="#E2E2F0" height="46.5938" rx="2.5" ry="2.5" style="stroke:#181818;stroke-width:0.5;" width="103.79" x="5" y="42.2969"/><text fill="#000000" font-family="sans-serif" font-size="14" lengthAdjust="spacing" textLength="28.1982" x="42.7959" y="62.292">GP1</text><text fill="#000000" font-family="sans-serif" font-size="14" lengthAdjust="spacing" textLength="89.79" x="12" y="78.5889">&#127468;&#127463; British GP</text></g><g class="participant participant-tail" data-participant="GP1"><rect fill="#E2E2F0" height="46.5938" rx="2.5" ry="2.5" style="stroke:#181818;stroke-width:0.5;" width="103.79" x="5" y="1209.3438"/><text fill="#000000" font-family="sans-serif" font-size="14" lengthAdjust="spacing" textLength="28.1982" x="42.7959" y="1229.3389">GP1</text><text fill="#000000" font-family="sans-serif" font-size="14" lengthAdjust="spacing" textLength="89.79" x="12" y="1245.6357">&#127468;&#127463; British GP</text></g><g class="participant participant-head" data-participant="GP2"><rect fill="#E2E2F0" height="46.5938" rx="2.5" ry="2.5" style="stroke:#181818;stroke-width:0.5;" width="113.3535" x="118.79" y="42.2969"/><text fill="#000000" font-family="sans-serif" font-size="14" lengthAdjust="spacing" textLength="28.1982" x="161.3677" y="62.292">GP2</text><text fill="#000000" font-family="sans-serif" font-size="14" lengthAdjust="spacing" textLength="99.3535" x="125.79" y="78.5889">&#127474;&#127464; Monaco GP</text></g><g class="participant participant-tail" data-participant="GP2"><rect fill="#E2E2F0" height="46.5938" rx="2.5" ry="2.5" style="stroke:#181818;stroke-width:0.5;" width="113.3535" x="118.79" y="1209.3438"/><text fill="#000000" font-family="sans-serif" font-size="14" lengthAdjust="spacing" textLength="28.1982" x="161.3677" y="1229.3389">GP2</text><text fill="#000000" font-family="sans-serif" font-size="14" lengthAdjust="spacing" textLength="99.3535" x="125.79" y="1245.6357">&#127474;&#127464; Monaco GP</text></g><g class="participant participant-head" data-participant="GP3"><rect fill="#E2E2F0" height="46.5938" rx="2.5" ry="2.5" style="stroke:#181818;stroke-width:0.5;" width="96.5986" x="242.1436" y="42.2969"/><text fill="#000000" font-family="sans-serif" font-size="14" lengthAdjust="spacing" textLength="28.1982" x="276.3438" y="62.292">GP3</text><text fill="#000000" font-family="sans-serif" font-size="14" lengthAdjust="spacing" textLength="82.5986" x="249.1436" y="78.5889">&#127482;&#127480; Indy 500</text></g><g class="participant participant-tail" data-participant="GP3"><rect fill="#E2E2F0" height="46.5938" rx="2.5" ry="2.5" style="stroke:#181818;stroke-width:0.5;" width="96.5986" x="242.1436" y="1209.3438"/><text fill="#000000" font-family="sans-serif" font-size="14" lengthAdjust="spacing" textLength="28.1982" x="276.3438" y="1229.3389">GP3</text><text fill="#000000" font-family="sans-serif" font-size="14" lengthAdjust="spacing" textLength="82.5986" x="249.1436" y="1245.6357">&#127482;&#127480; Indy 500</text></g><g class="participant participant-head" data-participant="GP4"><rect fill="#E2E2F0" height="46.5938" rx="2.5" ry="2.5" style="stroke:#181818;stroke-width:0.5;" width="97.8086" x="352.4102" y="42.2969"/><text fill="#000000" font-family="sans-serif" font-size="14" lengthAdjust="spacing" textLength="28.1982" x="387.2153" y="62.292">GP4</text><text fill="#000000" font-family="sans-serif" font-size="14" lengthAdjust="spacing" textLength="83.8086" x="359.4102" y="78.5889">&#127464;&#127469; Swiss GP</text></g><g class="participant participant-tail" data-participant="GP4"><rect fill="#E2E2F0" height="46.5938" rx="2.5" ry="2.5" style="stroke:#181818;stroke-width:0.5;" width="97.8086" x="352.4102" y="1209.3438"/><text fill="#000000" font-family="sans-serif" font-size="14" lengthAdjust="spacing" textLength="28.1982" x="387.2153" y="1229.3389">GP4</text><text fill="#000000" font-family="sans-serif" font-size="14" lengthAdjust="spacing" textLength="83.8086" x="359.4102" y="1245.6357">&#127464;&#127469; Swiss GP</text></g><g class="participant participant-head" data-participant="GP5"><rect fill="#E2E2F0" height="46.5938" rx="2.5" ry="2.5" style="stroke:#181818;stroke-width:0.5;" width="111.3301" x="460.2188" y="42.2969"/><text fill="#000000" font-family="sans-serif" font-size="14" lengthAdjust="spacing" textLength="28.1982" x="501.7847" y="62.292">GP5</text><text fill="#000000" font-family="sans-serif" font-size="14" lengthAdjust="spacing" textLength="97.3301" x="467.2188" y="78.5889">&#127463;&#127466; Belgian GP</text></g><g class="participant participant-tail" data-participant="GP5"><rect fill="#E2E2F0" height="46.5938" rx="2.5" ry="2.5" style="stroke:#181818;stroke-width:0.5;" width="111.3301" x="460.2188" y="1209.3438"/><text fill="#000000" font-family="sans-serif" font-size="14" lengthAdjust="spacing" textLength="28.1982" x="501.7847" y="1229.3389">GP5</text><text fill="#000000" font-family="sans-serif" font-size="14" lengthAdjust="spacing" textLength="97.3301" x="467.2188" y="1245.6357">&#127463;&#127466; Belgian GP</text></g><g class="participant participant-head" data-participant="GP6"><rect fill="#E2E2F0" height="46.5938" rx="2.5" ry="2.5" style="stroke:#181818;stroke-width:0.5;" width="106.8594" x="581.5488" y="42.2969"/><text fill="#000000" font-family="sans-serif" font-size="14" lengthAdjust="spacing" textLength="28.1982" x="620.8794" y="62.292">GP6</text><text fill="#000000" font-family="sans-serif" font-size="14" lengthAdjust="spacing" textLength="92.8594" x="588.5488" y="78.5889">&#127467;&#127479; French GP</text></g><g class="participant participant-tail" data-participant="GP6"><rect fill="#E2E2F0" height="46.5938" rx="2.5" ry="2.5" style="stroke:#181818;stroke-width:0.5;" width="106.8594" x="581.5488" y="1209.3438"/><text fill="#000000" font-family="sans-serif" font-size="14" lengthAdjust="spacing" textLength="28.1982" x="620.8794" y="1229.3389">GP6</text><text fill="#000000" font-family="sans-serif" font-size="14" lengthAdjust="spacing" textLength="92.8594" x="588.5488" y="1245.6357">&#127467;&#127479; French GP</text></g><g class="participant participant-head" data-participant="GP7"><rect fill="#E2E2F0" height="46.5938" rx="2.5" ry="2.5" style="stroke:#181818;stroke-width:0.5;" width="102.4229" x="698.4082" y="42.2969"/><text fill="#000000" font-family="sans-serif" font-size="14" lengthAdjust="spacing" textLength="28.1982" x="735.5205" y="62.292">GP7</text><text fill="#000000" font-family="sans-serif" font-size="14" lengthAdjust="spacing" textLength="88.4229" x="705.4082" y="78.5889">&#127470;&#127481; Italian GP</text></g><g class="participant participant-tail" data-participant="GP7"><rect fill="#E2E2F0" height="46.5938" rx="2.5" ry="2.5" style="stroke:#181818;stroke-width:0.5;" width="102.4229" x="698.4082" y="1209.3438"/><text fill="#000000" font-family="sans-serif" font-size="14" lengthAdjust="spacing" textLength="28.1982" x="735.5205" y="1229.3389">GP7</text><text fill="#000000" font-family="sans-serif" font-size="14" lengthAdjust="spacing" textLength="88.4229" x="705.4082" y="1245.6357">&#127470;&#127481; Italian GP</text></g><rect fill="#EEEEEE" height="3" style="stroke:#EEEEEE;stroke-width:1;" width="831.6792" x="0" y="120.457"/><line style="stroke:#000000;stroke-width:1;" x1="0" x2="831.6792" y1="120.457" y2="120.457"/><line style="stroke:#000000;stroke-width:1;" x1="0" x2="831.6792" y1="123.457" y2="123.457"/><rect fill="#EEEEEE" height="23.1328" style="stroke:#000000;stroke-width:2;" width="85.2017" x="373.2388" y="109.8906"/><text fill="#000000" font-family="sans-serif" font-size="13" font-weight="bold" lengthAdjust="spacing" textLength="66.6758" x="379.2388" y="125.9575">&#127470;&#127481; Farina</text><g class="message" data-participant-1="GP1" data-participant-2="GP1"><line style="stroke:#181818;stroke-width:1;" x1="56.895" x2="98.895" y1="164.1563" y2="164.1563"/><line style="stroke:#181818;stroke-width:1;" x1="98.895" x2="98.895" y1="164.1563" y2="177.1563"/><line style="stroke:#181818;stroke-width:1;" x1="57.895" x2="98.895" y1="177.1563" y2="177.1563"/><polygon fill="#181818" points="67.895,173.1563,57.895,177.1563,67.895,181.1563,63.895,177.1563" style="stroke:#181818;stroke-width:1;"/><text fill="#000000" font-family="sans-serif" font-size="13" lengthAdjust="spacing" textLength="68.0596" x="63.895" y="159.0903">1&#20301; (+9pt)</text></g><g class="message" data-participant-1="GP2" data-participant-2="GP2"><line style="stroke:#181818;stroke-width:1;" x1="175.4668" x2="217.4668" y1="206.2891" y2="206.2891"/><line style="stroke:#181818;stroke-width:1;" x1="217.4668" x2="217.4668" y1="206.2891" y2="219.2891"/><line style="stroke:#181818;stroke-width:1;" x1="176.4668" x2="217.4668" y1="219.2891" y2="219.2891"/><polygon fill="#181818" points="186.4668,215.2891,176.4668,219.2891,186.4668,223.2891,182.4668,219.2891" style="stroke:#181818;stroke-width:1;"/><text fill="#000000" font-family="sans-serif" font-size="13" lengthAdjust="spacing" textLength="70.6431" x="182.4668" y="201.2231">R (Retired)</text></g><g class="message" data-participant-1="GP4" data-participant-2="GP4"><line style="stroke:#181818;stroke-width:1;" x1="401.3145" x2="443.3145" y1="248.4219" y2="248.4219"/><line style="stroke:#181818;stroke-width:1;" x1="443.3145" x2="443.3145" y1="248.4219" y2="261.4219"/><line style="stroke:#181818;stroke-width:1;" x1="402.3145" x2="443.3145" y1="261.4219" y2="261.4219"/><polygon fill="#181818" points="412.3145,257.4219,402.3145,261.4219,412.3145,265.4219,408.3145,261.4219" style="stroke:#181818;stroke-width:1;"/><text fill="#000000" font-family="sans-serif" font-size="13" lengthAdjust="spacing" textLength="68.0596" x="408.3145" y="243.356">2&#20301; (+6pt)</text></g><g class="message" data-participant-1="GP6" data-participant-2="GP6"><line style="stroke:#181818;stroke-width:1;" x1="634.9785" x2="676.9785" y1="290.5547" y2="290.5547"/><line style="stroke:#181818;stroke-width:1;" x1="676.9785" x2="676.9785" y1="290.5547" y2="303.5547"/><line style="stroke:#181818;stroke-width:1;" x1="635.9785" x2="676.9785" y1="303.5547" y2="303.5547"/><polygon fill="#181818" points="645.9785,299.5547,635.9785,303.5547,645.9785,307.5547,641.9785,303.5547" style="stroke:#181818;stroke-width:1;"/><text fill="#000000" font-family="sans-serif" font-size="13" lengthAdjust="spacing" textLength="68.0596" x="641.9785" y="285.4888">3&#20301; (+4pt)</text></g><g class="message" data-participant-1="GP7" data-participant-2="GP7"><line style="stroke:#181818;stroke-width:1;" x1="749.6196" x2="791.6196" y1="332.6875" y2="332.6875"/><line style="stroke:#181818;stroke-width:1;" x1="791.6196" x2="791.6196" y1="332.6875" y2="345.6875"/><line style="stroke:#181818;stroke-width:1;" x1="750.6196" x2="791.6196" y1="345.6875" y2="345.6875"/><polygon fill="#181818" points="760.6196,341.6875,750.6196,345.6875,760.6196,349.6875,756.6196,345.6875" style="stroke:#181818;stroke-width:1;"/><text fill="#000000" font-family="sans-serif" font-size="13" lengthAdjust="spacing" textLength="68.0596" x="756.6196" y="327.6216">1&#20301; (+9pt)</text></g><g class="message" data-participant-1="GP5" data-participant-2="GP5"><line style="stroke:#181818;stroke-width:1;" x1="515.8838" x2="557.8838" y1="374.8203" y2="374.8203"/><line style="stroke:#181818;stroke-width:1;" x1="557.8838" x2="557.8838" y1="374.8203" y2="387.8203"/><line style="stroke:#181818;stroke-width:1;" x1="516.8838" x2="557.8838" y1="387.8203" y2="387.8203"/><polygon fill="#181818" points="526.8838,383.8203,516.8838,387.8203,526.8838,391.8203,522.8838,387.8203" style="stroke:#181818;stroke-width:1;"/><text fill="#000000" font-family="sans-serif" font-size="13" lengthAdjust="spacing" textLength="96.8716" x="522.8838" y="369.7544">6&#20301; (No Points)</text></g><rect fill="#EEEEEE" height="3" style="stroke:#EEEEEE;stroke-width:1;" width="831.6792" x="0" y="416.3867"/><line style="stroke:#000000;stroke-width:1;" x1="0" x2="831.6792" y1="416.3867" y2="416.3867"/><line style="stroke:#000000;stroke-width:1;" x1="0" x2="831.6792" y1="419.3867" y2="419.3867"/><rect fill="#EEEEEE" height="23.1328" style="stroke:#000000;stroke-width:2;" width="88.2549" x="371.7122" y="405.8203"/><text fill="#000000" font-family="sans-serif" font-size="13" font-weight="bold" lengthAdjust="spacing" textLength="69.729" x="377.7122" y="421.8872">&#127462;&#127479; Fangio</text><g class="message" data-participant-1="GP1" data-participant-2="GP1"><line style="stroke:#181818;stroke-width:1;" x1="56.895" x2="98.895" y1="460.0859" y2="460.0859"/><line style="stroke:#181818;stroke-width:1;" x1="98.895" x2="98.895" y1="460.0859" y2="473.0859"/><line style="stroke:#181818;stroke-width:1;" x1="57.895" x2="98.895" y1="473.0859" y2="473.0859"/><polygon fill="#181818" points="67.895,469.0859,57.895,473.0859,67.895,477.0859,63.895,473.0859" style="stroke:#181818;stroke-width:1;"/><text fill="#000000" font-family="sans-serif" font-size="13" lengthAdjust="spacing" textLength="68.0596" x="63.895" y="455.02">2&#20301; (+6pt)</text></g><g class="message" data-participant-1="GP2" data-participant-2="GP2"><line style="stroke:#181818;stroke-width:1;" x1="175.4668" x2="217.4668" y1="502.2188" y2="502.2188"/><line style="stroke:#181818;stroke-width:1;" x1="217.4668" x2="217.4668" y1="502.2188" y2="515.2188"/><line style="stroke:#181818;stroke-width:1;" x1="176.4668" x2="217.4668" y1="515.2188" y2="515.2188"/><polygon fill="#181818" points="186.4668,511.2188,176.4668,515.2188,186.4668,519.2188,182.4668,515.2188" style="stroke:#181818;stroke-width:1;"/><text fill="#000000" font-family="sans-serif" font-size="13" lengthAdjust="spacing" textLength="68.0596" x="182.4668" y="497.1528">1&#20301; (+9pt)</text></g><g class="message" data-participant-1="GP5" data-participant-2="GP5"><line style="stroke:#181818;stroke-width:1;" x1="515.8838" x2="557.8838" y1="544.3516" y2="544.3516"/><line style="stroke:#181818;stroke-width:1;" x1="557.8838" x2="557.8838" y1="544.3516" y2="557.3516"/><line style="stroke:#181818;stroke-width:1;" x1="516.8838" x2="557.8838" y1="557.3516" y2="557.3516"/><polygon fill="#181818" points="526.8838,553.3516,516.8838,557.3516,526.8838,561.3516,522.8838,557.3516" style="stroke:#181818;stroke-width:1;"/><text fill="#000000" font-family="sans-serif" font-size="13" lengthAdjust="spacing" textLength="68.0596" x="522.8838" y="539.2856">1&#20301; (+9pt)</text></g><g class="message" data-participant-1="GP6" data-participant-2="GP6"><line style="stroke:#181818;stroke-width:1;" x1="634.9785" x2="676.9785" y1="586.4844" y2="586.4844"/><line style="stroke:#181818;stroke-width:1;" x1="676.9785" x2="676.9785" y1="586.4844" y2="599.4844"/><line style="stroke:#181818;stroke-width:1;" x1="635.9785" x2="676.9785" y1="599.4844" y2="599.4844"/><polygon fill="#181818" points="645.9785,595.4844,635.9785,599.4844,645.9785,603.4844,641.9785,599.4844" style="stroke:#181818;stroke-width:1;"/><text fill="#000000" font-family="sans-serif" font-size="13" lengthAdjust="spacing" textLength="68.0596" x="641.9785" y="581.4185">1&#20301; (+9pt)</text></g><g class="message" data-participant-1="GP3" data-participant-2="GP3"><line style="stroke:#181818;stroke-width:1;" x1="290.4429" x2="332.4429" y1="628.6172" y2="628.6172"/><line style="stroke:#181818;stroke-width:1;" x1="332.4429" x2="332.4429" y1="628.6172" y2="641.6172"/><line style="stroke:#181818;stroke-width:1;" x1="291.4429" x2="332.4429" y1="641.6172" y2="641.6172"/><polygon fill="#181818" points="301.4429,637.6172,291.4429,641.6172,301.4429,645.6172,297.4429,641.6172" style="stroke:#181818;stroke-width:1;"/><text fill="#000000" font-family="sans-serif" font-size="13" lengthAdjust="spacing" textLength="96.8716" x="297.4429" y="623.5513">7&#20301; (No Points)</text></g><rect fill="#EEEEEE" height="3" style="stroke:#EEEEEE;stroke-width:1;" width="831.6792" x="0" y="670.1836"/><line style="stroke:#000000;stroke-width:1;" x1="0" x2="831.6792" y1="670.1836" y2="670.1836"/><line style="stroke:#000000;stroke-width:1;" x1="0" x2="831.6792" y1="673.1836" y2="673.1836"/><rect fill="#EEEEEE" height="23.1328" style="stroke:#000000;stroke-width:2;" width="87.9121" x="371.8836" y="659.6172"/><text fill="#000000" font-family="sans-serif" font-size="13" font-weight="bold" lengthAdjust="spacing" textLength="69.3862" x="377.8836" y="675.6841">&#127470;&#127481; Fagioli</text><g class="message" data-participant-1="GP1" data-participant-2="GP1"><line style="stroke:#181818;stroke-width:1;" x1="56.895" x2="98.895" y1="713.8828" y2="713.8828"/><line style="stroke:#181818;stroke-width:1;" x1="98.895" x2="98.895" y1="713.8828" y2="726.8828"/><line style="stroke:#181818;stroke-width:1;" x1="57.895" x2="98.895" y1="726.8828" y2="726.8828"/><polygon fill="#181818" points="67.895,722.8828,57.895,726.8828,67.895,730.8828,63.895,726.8828" style="stroke:#181818;stroke-width:1;"/><text fill="#000000" font-family="sans-serif" font-size="13" lengthAdjust="spacing" textLength="68.0596" x="63.895" y="708.8169">3&#20301; (+4pt)</text></g><g class="message" data-participant-1="GP4" data-participant-2="GP4"><line style="stroke:#181818;stroke-width:1;" x1="401.3145" x2="443.3145" y1="756.0156" y2="756.0156"/><line style="stroke:#181818;stroke-width:1;" x1="443.3145" x2="443.3145" y1="756.0156" y2="769.0156"/><line style="stroke:#181818;stroke-width:1;" x1="402.3145" x2="443.3145" y1="769.0156" y2="769.0156"/><polygon fill="#181818" points="412.3145,765.0156,402.3145,769.0156,412.3145,773.0156,408.3145,769.0156" style="stroke:#181818;stroke-width:1;"/><text fill="#000000" font-family="sans-serif" font-size="13" lengthAdjust="spacing" textLength="68.0596" x="408.3145" y="750.9497">1&#20301; (+9pt)</text></g><g class="message" data-participant-1="GP6" data-participant-2="GP6"><line style="stroke:#181818;stroke-width:1;" x1="634.9785" x2="676.9785" y1="798.1484" y2="798.1484"/><line style="stroke:#181818;stroke-width:1;" x1="676.9785" x2="676.9785" y1="798.1484" y2="811.1484"/><line style="stroke:#181818;stroke-width:1;" x1="635.9785" x2="676.9785" y1="811.1484" y2="811.1484"/><polygon fill="#181818" points="645.9785,807.1484,635.9785,811.1484,645.9785,815.1484,641.9785,811.1484" style="stroke:#181818;stroke-width:1;"/><text fill="#000000" font-family="sans-serif" font-size="13" lengthAdjust="spacing" textLength="68.0596" x="641.9785" y="793.0825">2&#20301; (+6pt)</text></g><g class="message" data-participant-1="GP7" data-participant-2="GP7"><line style="stroke:#181818;stroke-width:1;" x1="749.6196" x2="791.6196" y1="840.2813" y2="840.2813"/><line style="stroke:#181818;stroke-width:1;" x1="791.6196" x2="791.6196" y1="840.2813" y2="853.2813"/><line style="stroke:#181818;stroke-width:1;" x1="750.6196" x2="791.6196" y1="853.2813" y2="853.2813"/><polygon fill="#181818" points="760.6196,849.2813,750.6196,853.2813,760.6196,857.2813,756.6196,853.2813" style="stroke:#181818;stroke-width:1;"/><text fill="#000000" font-family="sans-serif" font-size="13" lengthAdjust="spacing" textLength="68.0596" x="756.6196" y="835.2153">2&#20301; (+6pt)</text></g><g class="message" data-participant-1="GP2" data-participant-2="GP2"><line style="stroke:#181818;stroke-width:1;" x1="175.4668" x2="217.4668" y1="882.4141" y2="882.4141"/><line style="stroke:#181818;stroke-width:1;" x1="217.4668" x2="217.4668" y1="882.4141" y2="895.4141"/><line style="stroke:#181818;stroke-width:1;" x1="176.4668" x2="217.4668" y1="895.4141" y2="895.4141"/><polygon fill="#181818" points="186.4668,891.4141,176.4668,895.4141,186.4668,899.4141,182.4668,895.4141" style="stroke:#181818;stroke-width:1;"/><text fill="#000000" font-family="sans-serif" font-size="13" lengthAdjust="spacing" textLength="96.8716" x="182.4668" y="877.3481">5&#20301; (No Points)</text></g><g class="message" data-participant-1="GP5" data-participant-2="GP5"><line style="stroke:#181818;stroke-width:1;" x1="515.8838" x2="557.8838" y1="924.5469" y2="924.5469"/><line style="stroke:#181818;stroke-width:1;" x1="557.8838" x2="557.8838" y1="924.5469" y2="937.5469"/><line style="stroke:#181818;stroke-width:1;" x1="516.8838" x2="557.8838" y1="937.5469" y2="937.5469"/><polygon fill="#181818" points="526.8838,933.5469,516.8838,937.5469,526.8838,941.5469,522.8838,937.5469" style="stroke:#181818;stroke-width:1;"/><text fill="#000000" font-family="sans-serif" font-size="13" lengthAdjust="spacing" textLength="96.8716" x="522.8838" y="919.481">7&#20301; (No Points)</text></g><rect fill="#EEEEEE" height="3" style="stroke:#EEEEEE;stroke-width:1;" width="831.6792" x="0" y="966.1133"/><line style="stroke:#000000;stroke-width:1;" x1="0" x2="831.6792" y1="966.1133" y2="966.1133"/><line style="stroke:#000000;stroke-width:1;" x1="0" x2="831.6792" y1="969.1133" y2="969.1133"/><rect fill="#EEEEEE" height="23.1328" style="stroke:#000000;stroke-width:2;" width="97.0273" x="367.3259" y="955.5469"/><text fill="#000000" font-family="sans-serif" font-size="13" font-weight="bold" lengthAdjust="spacing" textLength="78.5015" x="373.3259" y="971.6138">&#127482;&#127480; Parsons</text><g class="message" data-participant-1="GP3" data-participant-2="GP3"><line style="stroke:#181818;stroke-width:1;" x1="290.4429" x2="332.4429" y1="1009.8125" y2="1009.8125"/><line style="stroke:#181818;stroke-width:1;" x1="332.4429" x2="332.4429" y1="1009.8125" y2="1022.8125"/><line style="stroke:#181818;stroke-width:1;" x1="291.4429" x2="332.4429" y1="1022.8125" y2="1022.8125"/><polygon fill="#181818" points="301.4429,1018.8125,291.4429,1022.8125,301.4429,1026.8125,297.4429,1022.8125" style="stroke:#181818;stroke-width:1;"/><text fill="#000000" font-family="sans-serif" font-size="13" lengthAdjust="spacing" textLength="68.0596" x="297.4429" y="1004.7466">1&#20301; (+9pt)</text></g><rect fill="#EEEEEE" height="3" style="stroke:#EEEEEE;stroke-width:1;" width="831.6792" x="0" y="1051.3789"/><line style="stroke:#000000;stroke-width:1;" x1="0" x2="831.6792" y1="1051.3789" y2="1051.3789"/><line style="stroke:#000000;stroke-width:1;" x1="0" x2="831.6792" y1="1054.3789" y2="1054.3789"/><rect fill="#EEEEEE" height="23.1328" style="stroke:#000000;stroke-width:2;" width="85.0176" x="373.3308" y="1040.8125"/><text fill="#000000" font-family="sans-serif" font-size="13" font-weight="bold" lengthAdjust="spacing" textLength="66.4917" x="379.3308" y="1056.8794">&#127467;&#127479; Rosier</text><g class="message" data-participant-1="GP4" data-participant-2="GP4"><line style="stroke:#181818;stroke-width:1;" x1="401.3145" x2="443.3145" y1="1095.0781" y2="1095.0781"/><line style="stroke:#181818;stroke-width:1;" x1="443.3145" x2="443.3145" y1="1095.0781" y2="1108.0781"/><line style="stroke:#181818;stroke-width:1;" x1="402.3145" x2="443.3145" y1="1108.0781" y2="1108.0781"/><polygon fill="#181818" points="412.3145,1104.0781,402.3145,1108.0781,412.3145,1112.0781,408.3145,1108.0781" style="stroke:#181818;stroke-width:1;"/><text fill="#000000" font-family="sans-serif" font-size="13" lengthAdjust="spacing" textLength="68.0596" x="408.3145" y="1090.0122">4&#20301; (+3pt)</text></g><g class="message" data-participant-1="GP7" data-participant-2="GP7"><line style="stroke:#181818;stroke-width:1;" x1="749.6196" x2="791.6196" y1="1137.2109" y2="1137.2109"/><line style="stroke:#181818;stroke-width:1;" x1="791.6196" x2="791.6196" y1="1137.2109" y2="1150.2109"/><line style="stroke:#181818;stroke-width:1;" x1="750.6196" x2="791.6196" y1="1150.2109" y2="1150.2109"/><polygon fill="#181818" points="760.6196,1146.2109,750.6196,1150.2109,760.6196,1154.2109,756.6196,1150.2109" style="stroke:#181818;stroke-width:1;"/><text fill="#000000" font-family="sans-serif" font-size="13" lengthAdjust="spacing" textLength="68.0596" x="756.6196" y="1132.145">3&#20301; (+4pt)</text></g><g class="message" data-participant-1="GP1" data-participant-2="GP1"><line style="stroke:#181818;stroke-width:1;" x1="56.895" x2="98.895" y1="1179.3438" y2="1179.3438"/><line style="stroke:#181818;stroke-width:1;" x1="98.895" x2="98.895" y1="1179.3438" y2="1192.3438"/><line style="stroke:#181818;stroke-width:1;" x1="57.895" x2="98.895" y1="1192.3438" y2="1192.3438"/><polygon fill="#181818" points="67.895,1188.3438,57.895,1192.3438,67.895,1196.3438,63.895,1192.3438" style="stroke:#181818;stroke-width:1;"/><text fill="#000000" font-family="sans-serif" font-size="13" lengthAdjust="spacing" textLength="96.8716" x="63.895" y="1174.2778">6&#20301; (No Points)</text></g><!--SRC=[TPDBJiCm48RtESMegrPGgNchI65HeLPTWA9soyQqLh4KEP5jG3q1Ayx0ZbQy5cnuIDo60t04fd5BxKHPZABe-sp_Ct4KKna5jn_sOEZ2b1APS-X2cZEk95miOPGUmaZaLmMTRrvF1Bkcmd4A8XIRiO9m1QrHwfxpt_lRPwmL30HJJ5xYoXOGYG-tQdkb_OQrXjESarc-bxsgx9Vo5zO7ZFby2M6ljtNzgXkKxXhh1QOtJChzla7L3KjtXVK80vej6E5xEwpQKMa_ORt3K50-C_gBgd9SogzOdp1M9BEsZXqdIU2V3ubWd42IE3Wew1vlvWL7uFvytq7xe5-e3W9F0m_11DeJgfYWymq8D0WGU7f5f5T46aG8V0q23M8DujePeGOXWgW4P_ds6dHsYHzq-uGlM5vBR9zl96uynWP6OXlu6lW8uePWkr5YhepLaja3C4RM6C3knHXPOvDXDPdLQLDkVQjJ8l2lapgtqQqPRxj0Ny19BXaLsZVQ2RJlrrBR0p0cK_tGVm00]--></g></svg>