<svg xmlns="http://www.w3.org/2000/svg" xmlns:xlink="http://www.w3.org/1999/xlink" contentStyleType="text/css" data-diagram-type="SEQUENCE" height="1981px" preserveAspectRatio="none" style="width:867px;height:1981px;background:#FFFFFF;" version="1.1" viewBox="0 0 867 1981" width="867px" zoomAndPan="magnify"><title>1950 F1 Season - Points by GP, Grouped by Driver</title><defs/><g><text fill="#000000" font-family="sans-serif" font-size="14" font-weight="bold" lengthAdjust="spacing" textLength="396.293" x="231.5991" y="27.9951">1950 F1 Season - Points by GP, Grouped by Driver</text><g><title>GP1</title><rect fill="#000000" fill-opacity="0.00000" height="1839.7109" width="8" x="52.895" y="89.8906"/><line style="stroke:#181818;stroke-width:0.5;stroke-dasharray:5.0,5.0;" x1="56" x2="56" y1="89.8906" y2="1929.6016"/></g><g><title>GP2</title><rect fill="#000000" fill-opacity="0.00000" height="1839.7109" width="8" x="171.4668" y="89.8906"/><line style="stroke:#181818;stroke-width:0.5;stroke-dasharray:5.0,5.0;" x1="174.79" x2="174.79" y1="89.8906" y2="1929.6016"/></g><g><title>GP3</title><rect fill="#000000" fill-opacity="0.00000" height="1839.7109" width="8" x="286.4429" y="89.8906"/><line style="stroke:#181818;stroke-width:0.5;stroke-dasharray:5.0,5.0;" x1="290.1436" x2="290.1436" y1="89.8906" y2="1929.6016"/></g><g><title>GP4</title><rect fill="#000000" fill-opacity="0.00000" height="1839.7109" width="8" x="397.3145" y="89.8906"/><line style="stroke:#181818;stroke-width:0.5;stroke-dasharray:5.0,5.0;" x1="400.4102" x2="400.4102" y1="89.8906" y2="1929.6016"/></g><g><title>GP5</title><rect fill="#000000" fill-opacity="0.00000" height="1839.7109" width="8" x="511.8838" y="89.8906"/><line style="stroke:#181818;stroke-width:0.5;stroke-dasharray:5.0,5.0;" x1="515.2188" x2="515.2188" y1="89.8906" y2="1929.6016"/></g><g><title>GP6</title><rect fill="#000000" fill-opacity="0.00000" height="1839.7109" width="8" x="630.9785" y="89.8906"/><line style="stroke:#181818;stroke-width:0.5;stroke-dasharray:5.0,5.0;" x1="634.5488" x2="634.5488" y1="89.8906" y2="1929.6016"/></g><g><title>GP7</title><rect fill="#000000" fill-opacity="0.00000" height="1839.7109" width="8" x="745.6196" y="89.8906"/><line style="stroke:#181818;stroke-width:0.5;stroke-dasharray:5.0,5.0;" x1="749.4082" x2="749.4082" y1="89.8906" y2="1929.6016"/></g><g class="participant participant-head" data-participant="GP1"><rect fill="#E2E2F0" height="46.5938" rx="2.5" ry="2.5" style="stroke:#181818;stroke-width:0.5;" width="103.79" x="5" y="42.2969"/><text fill="#000000" font-family="sans-serif" font-size="14" lengthAdjust="spacing" textLength="28.1982" x="42.7959" y="62.292">GP1</text><text fill="#000000" font-family="sans-serif" font-size="14" lengthAdjust="spacing" textLength="89.79" x="12" y="78.5889">&#127468;&#127463; British GP</text></g><g class="participant participant-tail" data-participant="GP1"><rect fill="#E2E2F0" height="46.5938" rx="2.5" ry="2.5" style="stroke:#181818;stroke-width:0.5;" width="103.79" x="5" y="1928.6016"/><text fill="#000000" font-family="sans-serif" font-size="14" lengthAdjust="spacing" textLength="28.1982" x="42.7959" y="1948.5967">GP1</text><text fill="#000000" font-family="sans-serif" font-size="14" lengthAdjust="spacing" textLength="89.79" x="12" y="1964.8936">&#127468;&#127463; British GP</text></g><g class="participant participant-head" data-participant="GP2"><rect fill="#E2E2F0" height="46.5938" rx="2.5" ry="2.5" style="stroke:#181818;stroke-width:0.5;" width="113.3535" x="118.79" y="42.2969"/><text fill="#000000" font-family="sans-serif" font-size="14" lengthAdjust="spacing" textLength="28.1982" x="161.3677" y="62.292">GP2</text><text fill="#000000" font-family="sans-serif" font-size="14" lengthAdjust="spacing" textLength="99.3535" x="125.79" y="78.5889">&#127474;&#127464; Monaco GP</text></g><g class="participant participant-tail" data-participant="GP2"><rect fill="#E2E2F0" height="46.5938" rx="2.5" ry="2.5" style="stroke:#181818;stroke-width:0.5;" width="113.3535" x="118.79" y="1928.6016"/><text fill="#000000" font-family="sans-serif" font-size="14" lengthAdjust="spacing" textLength="28.1982" x="161.3677" y="1948.5967">GP2</text><text fill="#000000" font-family="sans-serif" font-size="14" lengthAdjust="spacing" textLength="99.3535" x="125.79" y="1964.8936">&#127474;&#127464; Monaco GP</text></g><g class="participant participant-head" data-participant="GP3"><rect fill="#E2E2F0" height="46.5938" rx="2.5" ry="2.5" style="stroke:#181818;stroke-width:0.5;" width="96.5986" x="242.1436" y="42.2969"/><text fill="#000000" font-family="sans-serif" font-size="14" lengthAdjust="spacing" textLength="28.1982" x="276.3438" y="62.292">GP3</text><text fill="#000000" font-family="sans-serif" font-size="14" lengthAdjust="spacing" textLength="82.5986" x="249.1436" y="78.5889">&#127482;&#127480; Indy 500</text></g><g class="participant participant-tail" data-participant="GP3"><rect fill="#E2E2F0" height="46.5938" rx="2.5" ry="2.5" style="stroke:#181818;stroke-width:0.5;" width="96.5986" x="242.1436" y="1928.6016"/><text fill="#000000" font-family="sans-serif" font-size="14" lengthAdjust="spacing" textLength="28.1982" x="276.3438" y="1948.5967">GP3</text><text fill="#000000" font-family="sans-serif" font-size="14" lengthAdjust="spacing" textLength="82.5986" x="249.1436" y="1964.8936">&#127482;&#127480; Indy 500</text></g><g class="participant participant-head" data-participant="GP4"><rect fill="#E2E2F0" height="46.5938" rx="2.5" ry="2.5" style="stroke:#181818;stroke-width:0.5;" width="97.8086" x="352.4102" y="42.2969"/><text fill="#000000" font-family="sans-serif" font-size="14" lengthAdjust="spacing" textLength="28.1982" x="387.2153" y="62.292">GP4</text><text fill="#000000" font-family="sans-serif" font-size="14" lengthAdjust="spacing" textLength="83.8086" x="359.4102" y="78.5889">&#127464;&#127469; Swiss GP</text></g><g class="participant participant-tail" data-participant="GP4"><rect fill="#E2E2F0" height="46.5938" rx="2.5" ry="2.5" style="stroke:#181818;stroke-width:0.5;" width="97.8086" x="352.4102" y="1928.6016"/><text fill="#000000" font-family="sans-serif" font-size="14" lengthAdjust="spacing" textLength="28.1982" x="387.2153" y="1948.5967">GP4</text><text fill="#000000" font-family="sans-serif" font-size="14" lengthAdjust="spacing" textLength="83.8086" x="359.4102" y="1964.8936">&#127464;&#127469; Swiss GP</text></g><g class="participant participant-head" data-participant="GP5"><rect fill="#E2E2F0" height="46.5938" rx="2.5" ry="2.5" style="stroke:#181818;stroke-width:0.5;" width="111.3301" x="460.2188" y="42.2969"/><text fill="#000000" font-family="sans-serif" font-size="14" lengthAdjust="spacing" textLength="28.1982" x="501.7847" y="62.292">GP5</text><text fill="#000000" font-family="sans-serif" font-size="14" lengthAdjust="spacing" textLength="97.3301" x="467.2188" y="78.5889">&#127463;&#127466; Belgian GP</text></g><g class="participant participant-tail" data-participant="GP5"><rect fill="#E2E2F0" height="46.5938" rx="2.5" ry="2.5" style="stroke:#181818;stroke-width:0.5;" width="111.3301" x="460.2188" y="1928.6016"/><text fill="#000000" font-family="sans-serif" font-size="14" lengthAdjust="spacing" textLength="28.1982" x="501.7847" y="1948.5967">GP5</text><text fill="#000000" font-family="sans-serif" font-size="14" lengthAdjust="spacing" textLength="97.3301" x="467.2188" y="1964.8936">&#127463;&#127466; Belgian GP</text></g><g class="participant participant-head" data-participant="GP6"><rect fill="#E2E2F0" height="46.5938" rx="2.5" ry="2.5" style="stroke:#181818;stroke-width:0.5;" width="106.8594" x="581.5488" y="42.2969"/><text fill="#000000" font-family="sans-serif" font-size="14" lengthAdjust="spacing" textLength="28.1982" x="620.8794" y="62.292">GP6</text><text fill="#000000" font-family="sans-serif" font-size="14" lengthAdjust="spacing" textLength="92.8594" x="588.5488" y="78.5889">&#127467;&#127479; French GP</text></g><g class="participant participant-tail" data-participant="GP6"><rect fill="#E2E2F0" height="46.5938" rx="2.5" ry="2.5" style="stroke:#181818;stroke-width:0.5;" width="106.8594" x="581.5488" y="1928.6016"/><text fill="#000000" font-family="sans-serif" font-size="14" lengthAdjust="spacing" textLength="28.1982" x="620.8794" y="1948.5967">GP6</text><text fill="#000000" font-family="sans-serif" font-size="14" lengthAdjust="spacing" textLength="92.8594" x="588.5488" y="1964.8936">&#127467;&#127479; French GP</text></g><g class="participant participant-head" data-participant="GP7"><rect fill="#E2E2F0" height="46.5938" rx="2.5" ry="2.5" style="stroke:#181818;stroke-width:0.5;" width="102.4229" x="698.4082" y="42.2969"/><text fill="#000000" font-family="sans-serif" font-size="14" lengthAdjust="spacing" textLength="28.1982" x="735.5205" y="62.292">GP7</text><text fill="#000000" font-family="sans-serif" font-size="14" lengthAdjust="spacing" textLength="88.4229" x="705.4082" y="78.5889">&#127470;&#127481; Italian GP</text></g><g class="participant participant-tail" data-participant="GP7"><rect fill="#E2E2F0" height="46.5938" rx="2.5" ry="2.5" style="stroke:#181818;stroke-width:0.5;" width="102.4229" x="698.4082" y="1928.6016"/><text fill="#000000" font-family="sans-serif" font-size="14" lengthAdjust="spacing" textLength="28.1982" x="735.5205" y="1948.5967">GP7</text><text fill="#000000" font-family="sans-serif" font-size="14" lengthAdjust="spacing" textLength="88.4229" x="705.4082" y="1964.8936">&#127470;&#127481; Italian GP</text></g><rect fill="#EEEEEE" height="3" style="stroke:#EEEEEE;stroke-width:1;" width="860.4912" x="0" y="120.457"/><line style="stroke:#000000;stroke-width:1;" x1="0" x2="860.4912" y1="120.457" y2="120.457"/><line style="stroke:#000000;stroke-width:1;" x1="0" x2="860.4912" y1="123.457" y2="123.457"/><rect fill="#EEEEEE" height="23.1328" style="stroke:#000000;stroke-width:2;" width="255.0776" x="302.7068" y="109.8906"/><text fill="#000000" font-family="sans-serif" font-size="13" font-weight="bold" lengthAdjust="spacing" textLength="236.5518" x="308.7068" y="125.9575">&#127470;&#127481; Giuseppe Farina (Total: 28pt)</text><g class="message" data-participant-1="GP1" data-participant-2="GP1"><line style="stroke:#181818;stroke-width:1;" x1="56.895" x2="98.895" y1="164.1563" y2="164.1563"/><line style="stroke:#181818;stroke-width:1;" x1="98.895" x2="98.895" y1="164.1563" y2="177.1563"/><line style="stroke:#181818;stroke-width:1;" x1="57.895" x2="98.895" y1="177.1563" y2="177.1563"/><polygon fill="#181818" points="67.895,173.1563,57.895,177.1563,67.895,181.1563,63.895,177.1563" style="stroke:#181818;stroke-width:1;"/><text fill="#000000" font-family="sans-serif" font-size="13" lengthAdjust="spacing" textLength="68.0596" x="63.895" y="159.0903">1&#20301; (+9pt)</text></g><g class="message" data-participant-1="GP7" data-participant-2="GP7"><line style="stroke:#181818;stroke-width:1;" x1="749.6196" x2="791.6196" y1="206.2891" y2="206.2891"/><line style="stroke:#181818;stroke-width:1;" x1="791.6196" x2="791.6196" y1="206.2891" y2="219.2891"/><line style="stroke:#181818;stroke-width:1;" x1="750.6196" x2="791.6196" y1="219.2891" y2="219.2891"/><polygon fill="#181818" points="760.6196,215.2891,750.6196,219.2891,760.6196,223.2891,756.6196,219.2891" style="stroke:#181818;stroke-width:1;"/><text fill="#000000" font-family="sans-serif" font-size="13" lengthAdjust="spacing" textLength="68.0596" x="756.6196" y="201.2231">1&#20301; (+9pt)</text></g><g class="message" data-participant-1="GP4" data-participant-2="GP4"><line style="stroke:#181818;stroke-width:1;" x1="401.3145" x2="443.3145" y1="248.4219" y2="248.4219"/><line style="stroke:#181818;stroke-width:1;" x1="443.3145" x2="443.3145" y1="248.4219" y2="261.4219"/><line style="stroke:#181818;stroke-width:1;" x1="402.3145" x2="443.3145" y1="261.4219" y2="261.4219"/><polygon fill="#181818" points="412.3145,257.4219,402.3145,261.4219,412.3145,265.4219,408.3145,261.4219" style="stroke:#181818;stroke-width:1;"/><text fill="#000000" font-family="sans-serif" font-size="13" lengthAdjust="spacing" textLength="68.0596" x="408.3145" y="243.356">2&#20301; (+6pt)</text></g><g class="message" data-participant-1="GP6" data-participant-2="GP6"><line style="stroke:#181818;stroke-width:1;" x1="634.9785" x2="676.9785" y1="290.5547" y2="290.5547"/><line style="stroke:#181818;stroke-width:1;" x1="676.9785" x2="676.9785" y1="290.5547" y2="303.5547"/><line style="stroke:#181818;stroke-width:1;" x1="635.9785" x2="676.9785" y1="303.5547" y2="303.5547"/><polygon fill="#181818" points="645.9785,299.5547,635.9785,303.5547,645.9785,307.5547,641.9785,303.5547" style="stroke:#181818;stroke-width:1;"/><text fill="#000000" font-family="sans-serif" font-size="13" lengthAdjust="spacing" textLength="68.0596" x="641.9785" y="285.4888">3&#20301; (+4pt)</text></g><g class="message" data-participant-1="GP2" data-participant-2="GP2"><line style="stroke:#181818;stroke-width:1;" x1="175.4668" x2="217.4668" y1="332.6875" y2="332.6875"/><line style="stroke:#181818;stroke-width:1;" x1="217.4668" x2="217.4668" y1="332.6875" y2="345.6875"/><line style="stroke:#181818;stroke-width:1;" x1="176.4668" x2="217.4668" y1="345.6875" y2="345.6875"/><polygon fill="#181818" points="186.4668,341.6875,176.4668,345.6875,186.4668,349.6875,182.4668,345.6875" style="stroke:#181818;stroke-width:1;"/><text fill="#000000" font-family="sans-serif" font-size="13" lengthAdjust="spacing" textLength="70.6431" x="182.4668" y="327.6216">R (Retired)</text></g><g class="message" data-participant-1="GP5" data-participant-2="GP5"><line style="stroke:#181818;stroke-width:1;" x1="515.8838" x2="557.8838" y1="374.8203" y2="374.8203"/><line style="stroke:#181818;stroke-width:1;" x1="557.8838" x2="557.8838" y1="374.8203" y2="387.8203"/><line style="stroke:#181818;stroke-width:1;" x1="516.8838" x2="557.8838" y1="387.8203" y2="387.8203"/><polygon fill="#181818" points="526.8838,383.8203,516.8838,387.8203,526.8838,391.8203,522.8838,387.8203" style="stroke:#181818;stroke-width:1;"/><text fill="#000000" font-family="sans-serif" font-size="13" lengthAdjust="spacing" textLength="96.8716" x="522.8838" y="369.7544">6&#20301; (No Points)</text></g><g class="message" data-participant-1="GP3" data-participant-2="GP3"><line style="stroke:#181818;stroke-width:1;" x1="290.4429" x2="332.4429" y1="416.9531" y2="416.9531"/><line style="stroke:#181818;stroke-width:1;" x1="332.4429" x2="332.4429" y1="416.9531" y2="429.9531"/><line style="stroke:#181818;stroke-width:1;" x1="291.4429" x2="332.4429" y1="429.9531" y2="429.9531"/><polygon fill="#181818" points="301.4429,425.9531,291.4429,429.9531,301.4429,433.9531,297.4429,429.9531" style="stroke:#181818;stroke-width:1;"/><text fill="#000000" font-family="sans-serif" font-size="13" lengthAdjust="spacing" textLength="61.3247" x="297.4429" y="411.8872">No Points</text></g><rect fill="#EEEEEE" height="3" style="stroke:#EEEEEE;stroke-width:1;" width="860.4912" x="0" y="458.5195"/><line style="stroke:#000000;stroke-width:1;" x1="0" x2="860.4912" y1="458.5195" y2="458.5195"/><line style="stroke:#000000;stroke-width:1;" x1="0" x2="860.4912" y1="461.5195" y2="461.5195"/><rect fill="#EEEEEE" height="23.1328" style="stroke:#000000;stroke-width:2;" width="279.9033" x="290.294" y="447.9531"/><text fill="#000000" font-family="sans-serif" font-size="13" font-weight="bold" lengthAdjust="spacing" textLength="261.3774" x="296.294" y="464.02">&#127462;&#127479; Juan Manuel Fangio (Total: 33pt)</text><g class="message" data-participant-1="GP2" data-participant-2="GP2"><line style="stroke:#181818;stroke-width:1;" x1="175.4668" x2="217.4668" y1="502.2188" y2="502.2188"/><line style="stroke:#181818;stroke-width:1;" x1="217.4668" x2="217.4668" y1="502.2188" y2="515.2188"/><line style="stroke:#181818;stroke-width:1;" x1="176.4668" x2="217.4668" y1="515.2188" y2="515.2188"/><polygon fill="#181818" points="186.4668,511.2188,176.4668,515.2188,186.4668,519.2188,182.4668,515.2188" style="stroke:#181818;stroke-width:1;"/><text fill="#000000" font-family="sans-serif" font-size="13" lengthAdjust="spacing" textLength="68.0596" x="182.4668" y="497.1528">1&#20301; (+9pt)</text></g><g class="message" data-participant-1="GP5" data-participant-2="GP5"><line style="stroke:#181818;stroke-width:1;" x1="515.8838" x2="557.8838" y1="544.3516" y2="544.3516"/><line style="stroke:#181818;stroke-width:1;" x1="557.8838" x2="557.8838" y1="544.3516" y2="557.3516"/><line style="stroke:#181818;stroke-width:1;" x1="516.8838" x2="557.8838" y1="557.3516" y2="557.3516"/><polygon fill="#181818" points="526.8838,553.3516,516.8838,557.3516,526.8838,561.3516,522.8838,557.3516" style="stroke:#181818;stroke-width:1;"/><text fill="#000000" font-family="sans-serif" font-size="13" lengthAdjust="spacing" textLength="68.0596" x="522.8838" y="539.2856">1&#20301; (+9pt)</text></g><g class="message" data-participant-1="GP6" data-participant-2="GP6"><line style="stroke:#181818;stroke-width:1;" x1="634.9785" x2="676.9785" y1="586.4844" y2="586.4844"/><line style="stroke:#181818;stroke-width:1;" x1="676.9785" x2="676.9785" y1="586.4844" y2="599.4844"/><line style="stroke:#181818;stroke-width:1;" x1="635.9785" x2="676.9785" y1="599.4844" y2="599.4844"/><polygon fill="#181818" points="645.9785,595.4844,635.9785,599.4844,645.9785,603.4844,641.9785,599.4844" style="stroke:#181818;stroke-width:1;"/><text fill="#000000" font-family="sans-serif" font-size="13" lengthAdjust="spacing" textLength="68.0596" x="641.9785" y="581.4185">1&#20301; (+9pt)</text></g><g class="message" data-participant-1="GP1" data-participant-2="GP1"><line style="stroke:#181818;stroke-width:1;" x1="56.895" x2="98.895" y1="628.6172" y2="628.6172"/><line style="stroke:#181818;stroke-width:1;" x1="98.895" x2="98.895" y1="628.6172" y2="641.6172"/><line style="stroke:#181818;stroke-width:1;" x1="57.895" x2="98.895" y1="641.6172" y2="641.6172"/><polygon fill="#181818" points="67.895,637.6172,57.895,641.6172,67.895,645.6172,63.895,641.6172" style="stroke:#181818;stroke-width:1;"/><text fill="#000000" font-family="sans-serif" font-size="13" lengthAdjust="spacing" textLength="68.0596" x="63.895" y="623.5513">2&#20301; (+6pt)</text></g><g class="message" data-participant-1="GP3" data-participant-2="GP3"><line style="stroke:#181818;stroke-width:1;" x1="290.4429" x2="332.4429" y1="670.75" y2="670.75"/><line style="stroke:#181818;stroke-width:1;" x1="332.4429" x2="332.4429" y1="670.75" y2="683.75"/><line style="stroke:#181818;stroke-width:1;" x1="291.4429" x2="332.4429" y1="683.75" y2="683.75"/><polygon fill="#181818" points="301.4429,679.75,291.4429,683.75,301.4429,687.75,297.4429,683.75" style="stroke:#181818;stroke-width:1;"/><text fill="#000000" font-family="sans-serif" font-size="13" lengthAdjust="spacing" textLength="96.8716" x="297.4429" y="665.6841">7&#20301; (No Points)</text></g><rect fill="#EEEEEE" height="3" style="stroke:#EEEEEE;stroke-width:1;" width="860.4912" x="0" y="712.3164"/><line style="stroke:#000000;stroke-width:1;" x1="0" x2="860.4912" y1="712.3164" y2="712.3164"/><line style="stroke:#000000;stroke-width:1;" x1="0" x2="860.4912" y1="715.3164" y2="715.3164"/><rect fill="#EEEEEE" height="23.1328" style="stroke:#000000;stroke-width:2;" width="225.1802" x="317.6555" y="701.75"/><text fill="#000000" font-family="sans-serif" font-size="13" font-weight="bold" lengthAdjust="spacing" textLength="206.6543" x="323.6555" y="717.8169">&#127470;&#127481; Luigi Fagioli (Total: 30pt)</text><g class="message" data-participant-1="GP4" data-participant-2="GP4"><line style="stroke:#181818;stroke-width:1;" x1="401.3145" x2="443.3145" y1="756.0156" y2="756.0156"/><line style="stroke:#181818;stroke-width:1;" x1="443.3145" x2="443.3145" y1="756.0156" y2="769.0156"/><line style="stroke:#181818;stroke-width:1;" x1="402.3145" x2="443.3145" y1="769.0156" y2="769.0156"/><polygon fill="#181818" points="412.3145,765.0156,402.3145,769.0156,412.3145,773.0156,408.3145,769.0156" style="stroke:#181818;stroke-width:1;"/><text fill="#000000" font-family="sans-serif" font-size="13" lengthAdjust="spacing" textLength="68.0596" x="408.3145" y="750.9497">1&#20301; (+9pt)</text></g><g class="message" data-participant-1="GP6" data-participant-2="GP6"><line style="stroke:#181818;stroke-width:1;" x1="634.9785" x2="676.9785" y1="798.1484" y2="798.1484"/><line style="stroke:#181818;stroke-width:1;" x1="676.9785" x2="676.9785" y1="798.1484" y2="811.1484"/><line style="stroke:#181818;stroke-width:1;" x1="635.9785" x2="676.9785" y1="811.1484" y2="811.1484"/><polygon fill="#181818" points="645.9785,807.1484,635.9785,811.1484,645.9785,815.1484,641.9785,811.1484" style="stroke:#181818;stroke-width:1;"/><text fill="#000000" font-family="sans-serif" font-size="13" lengthAdjust="spacing" textLength="68.0596" x="641.9785" y="793.0825">2&#20301; (+6pt)</text></g><g class="message" data-participant-1="GP7" data-participant-2="GP7"><line style="stroke:#181818;stroke-width:1;" x1="749.6196" x2="791.6196" y1="840.2813" y2="840.2813"/><line style="stroke:#181818;stroke-width:1;" x1="791.6196" x2="791.6196" y1="840.2813" y2="853.2813"/><line style="stroke:#181818;stroke-width:1;" x1="750.6196" x2="791.6196" y1="853.2813" y2="853.2813"/><polygon fill="#181818" points="760.6196,849.2813,750.6196,853.2813,760.6196,857.2813,756.6196,853.2813" style="stroke:#181818;stroke-width:1;"/><text fill="#000000" font-family="sans-serif" font-size="13" lengthAdjust="spacing" textLength="68.0596" x="756.6196" y="835.2153">2&#20301; (+6pt)</text></g><g class="message" data-participant-1="GP1" data-participant-2="GP1"><line style="stroke:#181818;stroke-width:1;" x1="56.895" x2="98.895" y1="882.4141" y2="882.4141"/><line style="stroke:#181818;stroke-width:1;" x1="98.895" x2="98.895" y1="882.4141" y2="895.4141"/><line style="stroke:#181818;stroke-width:1;" x1="57.895" x2="98.895" y1="895.4141" y2="895.4141"/><polygon fill="#181818" points="67.895,891.4141,57.895,895.4141,67.895,899.4141,63.895,895.4141" style="stroke:#181818;stroke-width:1;"/><text fill="#000000" font-family="sans-serif" font-size="13" lengthAdjust="spacing" textLength="68.0596" x="63.895" y="877.3481">3&#20301; (+4pt)</text></g><g class="message" data-participant-1="GP2" data-participant-2="GP2"><line style="stroke:#181818;stroke-width:1;" x1="175.4668" x2="217.4668" y1="924.5469" y2="924.5469"/><line style="stroke:#181818;stroke-width:1;" x1="217.4668" x2="217.4668" y1="924.5469" y2="937.5469"/><line style="stroke:#181818;stroke-width:1;" x1="176.4668" x2="217.4668" y1="937.5469" y2="937.5469"/><polygon fill="#181818" points="186.4668,933.5469,176.4668,937.5469,186.4668,941.5469,182.4668,937.5469" style="stroke:#181818;stroke-width:1;"/><text fill="#000000" font-family="sans-serif" font-size="13" lengthAdjust="spacing" textLength="96.8716" x="182.4668" y="919.481">5&#20301; (No Points)</text></g><g class="message" data-participant-1="GP5" data-participant-2="GP5"><line style="stroke:#181818;stroke-width:1;" x1="515.8838" x2="557.8838" y1="966.6797" y2="966.6797"/><line style="stroke:#181818;stroke-width:1;" x1="557.8838" x2="557.8838" y1="966.6797" y2="979.6797"/><line style="stroke:#181818;stroke-width:1;" x1="516.8838" x2="557.8838" y1="979.6797" y2="979.6797"/><polygon fill="#181818" points="526.8838,975.6797,516.8838,979.6797,526.8838,983.6797,522.8838,979.6797" style="stroke:#181818;stroke-width:1;"/><text fill="#000000" font-family="sans-serif" font-size="13" lengthAdjust="spacing" textLength="96.8716" x="522.8838" y="961.6138">7&#20301; (No Points)</text></g><rect fill="#EEEEEE" height="3" style="stroke:#EEEEEE;stroke-width:1;" width="860.4912" x="0" y="1008.2461"/><line style="stroke:#000000;stroke-width:1;" x1="0" x2="860.4912" y1="1008.2461" y2="1008.2461"/><line style="stroke:#000000;stroke-width:1;" x1="0" x2="860.4912" y1="1011.2461" y2="1011.2461"/><rect fill="#EEEEEE" height="23.1328" style="stroke:#000000;stroke-width:2;" width="239.5005" x="310.4954" y="997.6797"/><text fill="#000000" font-family="sans-serif" font-size="13" font-weight="bold" lengthAdjust="spacing" textLength="220.9746" x="316.4954" y="1013.7466">&#127482;&#127480; Johnny Parsons (Total: 9pt)</text><g class="message" data-participant-1="GP3" data-participant-2="GP3"><line style="stroke:#181818;stroke-width:1;" x1="290.4429" x2="332.4429" y1="1051.9453" y2="1051.9453"/><line style="stroke:#181818;stroke-width:1;" x1="332.4429" x2="332.4429" y1="1051.9453" y2="1064.9453"/><line style="stroke:#181818;stroke-width:1;" x1="291.4429" x2="332.4429" y1="1064.9453" y2="1064.9453"/><polygon fill="#181818" points="301.4429,1060.9453,291.4429,1064.9453,301.4429,1068.9453,297.4429,1064.9453" style="stroke:#181818;stroke-width:1;"/><text fill="#000000" font-family="sans-serif" font-size="13" lengthAdjust="spacing" textLength="68.0596" x="297.4429" y="1046.8794">1&#20301; (+9pt)</text></g><rect fill="#EEEEEE" height="3" style="stroke:#EEEEEE;stroke-width:1;" width="860.4912" x="0" y="1093.5117"/><line style="stroke:#000000;stroke-width:1;" x1="0" x2="860.4912" y1="1093.5117" y2="1093.5117"/><line style="stroke:#000000;stroke-width:1;" x1="0" x2="860.4912" y1="1096.5117" y2="1096.5117"/><rect fill="#EEEEEE" height="23.1328" style="stroke:#000000;stroke-width:2;" width="216.1475" x="322.1719" y="1082.9453"/><text fill="#000000" font-family="sans-serif" font-size="13" font-weight="bold" lengthAdjust="spacing" textLength="197.6216" x="328.1719" y="1099.0122">&#127467;&#127479; Louis Rosier (Total: 7pt)</text><g class="message" data-participant-1="GP4" data-participant-2="GP4"><line style="stroke:#181818;stroke-width:1;" x1="401.3145" x2="443.3145" y1="1137.2109" y2="1137.2109"/><line style="stroke:#181818;stroke-width:1;" x1="443.3145" x2="443.3145" y1="1137.2109" y2="1150.2109"/><line style="stroke:#181818;stroke-width:1;" x1="402.3145" x2="443.3145" y1="1150.2109" y2="1150.2109"/><polygon fill="#181818" points="412.3145,1146.2109,402.3145,1150.2109,412.3145,1154.2109,408.3145,1150.2109" style="stroke:#181818;stroke-width:1;"/><text fill="#000000" font-family="sans-serif" font-size="13" lengthAdjust="spacing" textLength="68.0596" x="408.3145" y="1132.145">4&#20301; (+3pt)</text></g><g class="message" data-participant-1="GP7" data-participant-2="GP7"><line style="stroke:#181818;stroke-width:1;" x1="749.6196" x2="791.6196" y1="1179.3438" y2="1179.3438"/><line style="stroke:#181818;stroke-width:1;" x1="791.6196" x2="791.6196" y1="1179.3438" y2="1192.3438"/><line style="stroke:#181818;stroke-width:1;" x1="750.6196" x2="791.6196" y1="1192.3438" y2="1192.3438"/><polygon fill="#181818" points="760.6196,1188.3438,750.6196,1192.3438,760.6196,1196.3438,756.6196,1192.3438" style="stroke:#181818;stroke-width:1;"/><text fill="#000000" font-family="sans-serif" font-size="13" lengthAdjust="spacing" textLength="68.0596" x="756.6196" y="1174.2778">3&#20301; (+4pt)</text></g><g class="message" data-participant-1="GP1" data-participant-2="GP1"><line style="stroke:#181818;stroke-width:1;" x1="56.895" x2="98.895" y1="1221.4766" y2="1221.4766"/><line style="stroke:#181818;stroke-width:1;" x1="98.895" x2="98.895" y1="1221.4766" y2="1234.4766"/><line style="stroke:#181818;stroke-width:1;" x1="57.895" x2="98.895" y1="1234.4766" y2="1234.4766"/><polygon fill="#181818" points="67.895,1230.4766,57.895,1234.4766,67.895,1238.4766,63.895,1234.4766" style="stroke:#181818;stroke-width:1;"/><text fill="#000000" font-family="sans-serif" font-size="13" lengthAdjust="spacing" textLength="96.8716" x="63.895" y="1216.4106">6&#20301; (No Points)</text></g><rect fill="#EEEEEE" height="3" style="stroke:#EEEEEE;stroke-width:1;" width="860.4912" x="0" y="1263.043"/><line style="stroke:#000000;stroke-width:1;" x1="0" x2="860.4912" y1="1263.043" y2="1263.043"/><line style="stroke:#000000;stroke-width:1;" x1="0" x2="860.4912" y1="1266.043" y2="1266.043"/><rect fill="#EEEEEE" height="23.1328" style="stroke:#000000;stroke-width:2;" width="233.6733" x="313.409" y="1252.4766"/><text fill="#000000" font-family="sans-serif" font-size="13" font-weight="bold" lengthAdjust="spacing" textLength="215.1475" x="319.409" y="1268.5435">&#127465;&#127466; Hermann Lang (Total: 8pt)</text><g class="message" data-participant-1="GP5" data-participant-2="GP5"><line style="stroke:#181818;stroke-width:1;" x1="515.8838" x2="557.8838" y1="1306.7422" y2="1306.7422"/><line style="stroke:#181818;stroke-width:1;" x1="557.8838" x2="557.8838" y1="1306.7422" y2="1319.7422"/><line style="stroke:#181818;stroke-width:1;" x1="516.8838" x2="557.8838" y1="1319.7422" y2="1319.7422"/><polygon fill="#181818" points="526.8838,1315.7422,516.8838,1319.7422,526.8838,1323.7422,522.8838,1319.7422" style="stroke:#181818;stroke-width:1;"/><text fill="#000000" font-family="sans-serif" font-size="13" lengthAdjust="spacing" textLength="68.0596" x="522.8838" y="1301.6763">3&#20301; (+5pt)</text></g><g class="message" data-participant-1="GP6" data-participant-2="GP6"><line style="stroke:#181818;stroke-width:1;" x1="634.9785" x2="676.9785" y1="1348.875" y2="1348.875"/><line style="stroke:#181818;stroke-width:1;" x1="676.9785" x2="676.9785" y1="1348.875" y2="1361.875"/><line style="stroke:#181818;stroke-width:1;" x1="635.9785" x2="676.9785" y1="1361.875" y2="1361.875"/><polygon fill="#181818" points="645.9785,1357.875,635.9785,1361.875,645.9785,1365.875,641.9785,1361.875" style="stroke:#181818;stroke-width:1;"/><text fill="#000000" font-family="sans-serif" font-size="13" lengthAdjust="spacing" textLength="68.0596" x="641.9785" y="1343.8091">4&#20301; (+3pt)</text></g><g class="message" data-participant-1="GP1" data-participant-2="GP1"><line style="stroke:#181818;stroke-width:1;" x1="56.895" x2="98.895" y1="1391.0078" y2="1391.0078"/><line style="stroke:#181818;stroke-width:1;" x1="98.895" x2="98.895" y1="1391.0078" y2="1404.0078"/><line style="stroke:#181818;stroke-width:1;" x1="57.895" x2="98.895" y1="1404.0078" y2="1404.0078"/><polygon fill="#181818" points="67.895,1400.0078,57.895,1404.0078,67.895,1408.0078,63.895,1404.0078" style="stroke:#181818;stroke-width:1;"/><text fill="#000000" font-family="sans-serif" font-size="13" lengthAdjust="spacing" textLength="61.3247" x="63.895" y="1385.9419">No Points</text></g><g class="message" data-participant-1="GP4" data-participant-2="GP4"><line style="stroke:#181818;stroke-width:1;" x1="401.3145" x2="443.3145" y1="1433.1406" y2="1433.1406"/><line style="stroke:#181818;stroke-width:1;" x1="443.3145" x2="443.3145" y1="1433.1406" y2="1446.1406"/><line style="stroke:#181818;stroke-width:1;" x1="402.3145" x2="443.3145" y1="1446.1406" y2="1446.1406"/><polygon fill="#181818" points="412.3145,1442.1406,402.3145,1446.1406,412.3145,1450.1406,408.3145,1446.1406" style="stroke:#181818;stroke-width:1;"/><text fill="#000000" font-family="sans-serif" font-size="13" lengthAdjust="spacing" textLength="61.3247" x="408.3145" y="1428.0747">No Points</text></g><g class="message" data-participant-1="GP2" data-participant-2="GP2"><line style="stroke:#181818;stroke-width:1;" x1="175.4668" x2="217.4668" y1="1475.2734" y2="1475.2734"/><line style="stroke:#181818;stroke-width:1;" x1="217.4668" x2="217.4668" y1="1475.2734" y2="1488.2734"/><line style="stroke:#181818;stroke-width:1;" x1="176.4668" x2="217.4668" y1="1488.2734" y2="1488.2734"/><polygon fill="#181818" points="186.4668,1484.2734,176.4668,1488.2734,186.4668,1492.2734,182.4668,1488.2734" style="stroke:#181818;stroke-width:1;"/><text fill="#000000" font-family="sans-serif" font-size="13" lengthAdjust="spacing" textLength="61.3247" x="182.4668" y="1470.2075">No Points</text></g><rect fill="#EEEEEE" height="3" style="stroke:#EEEEEE;stroke-width:1;" width="860.4912" x="0" y="1516.8398"/><line style="stroke:#000000;stroke-width:1;" x1="0" x2="860.4912" y1="1516.8398" y2="1516.8398"/><line style="stroke:#000000;stroke-width:1;" x1="0" x2="860.4912" y1="1519.8398" y2="1519.8398"/><rect fill="#EEEEEE" height="23.1328" style="stroke:#000000;stroke-width:2;" width="218.3374" x="321.0769" y="1506.2734"/><text fill="#000000" font-family="sans-serif" font-size="13" font-weight="bold" lengthAdjust="spacing" textLength="199.8115" x="327.0769" y="1522.3403">&#127470;&#127481; Piero Taruffi (Total: 9pt)</text><g class="message" data-participant-1="GP2" data-participant-2="GP2"><line style="stroke:#181818;stroke-width:1;" x1="175.4668" x2="217.4668" y1="1560.5391" y2="1560.5391"/><line style="stroke:#181818;stroke-width:1;" x1="217.4668" x2="217.4668" y1="1560.5391" y2="1573.5391"/><line style="stroke:#181818;stroke-width:1;" x1="176.4668" x2="217.4668" y1="1573.5391" y2="1573.5391"/><polygon fill="#181818" points="186.4668,1569.5391,176.4668,1573.5391,186.4668,1577.5391,182.4668,1573.5391" style="stroke:#181818;stroke-width:1;"/><text fill="#000000" font-family="sans-serif" font-size="13" lengthAdjust="spacing" textLength="68.0596" x="182.4668" y="1555.4731">2&#20301; (+6pt)</text></g><g class="message" data-participant-1="GP7" data-participant-2="GP7"><line style="stroke:#181818;stroke-width:1;" x1="749.6196" x2="791.6196" y1="1602.6719" y2="1602.6719"/><line style="stroke:#181818;stroke-width:1;" x1="791.6196" x2="791.6196" y1="1602.6719" y2="1615.6719"/><line style="stroke:#181818;stroke-width:1;" x1="750.6196" x2="791.6196" y1="1615.6719" y2="1615.6719"/><polygon fill="#181818" points="760.6196,1611.6719,750.6196,1615.6719,760.6196,1619.6719,756.6196,1615.6719" style="stroke:#181818;stroke-width:1;"/><text fill="#000000" font-family="sans-serif" font-size="13" lengthAdjust="spacing" textLength="96.8716" x="756.6196" y="1597.606">5&#20301; (No Points)</text></g><g class="message" data-participant-1="GP1" data-participant-2="GP1"><line style="stroke:#181818;stroke-width:1;" x1="56.895" x2="98.895" y1="1644.8047" y2="1644.8047"/><line style="stroke:#181818;stroke-width:1;" x1="98.895" x2="98.895" y1="1644.8047" y2="1657.8047"/><line style="stroke:#181818;stroke-width:1;" x1="57.895" x2="98.895" y1="1657.8047" y2="1657.8047"/><polygon fill="#181818" points="67.895,1653.8047,57.895,1657.8047,67.895,1661.8047,63.895,1657.8047" style="stroke:#181818;stroke-width:1;"/><text fill="#000000" font-family="sans-serif" font-size="13" lengthAdjust="spacing" textLength="68.0596" x="63.895" y="1639.7388">4&#20301; (+3pt)</text></g><g class="message" data-participant-1="GP5" data-participant-2="GP5"><line style="stroke:#181818;stroke-width:1;" x1="515.8838" x2="557.8838" y1="1686.9375" y2="1686.9375"/><line style="stroke:#181818;stroke-width:1;" x1="557.8838" x2="557.8838" y1="1686.9375" y2="1699.9375"/><line style="stroke:#181818;stroke-width:1;" x1="516.8838" x2="557.8838" y1="1699.9375" y2="1699.9375"/><polygon fill="#181818" points="526.8838,1695.9375,516.8838,1699.9375,526.8838,1703.9375,522.8838,1699.9375" style="stroke:#181818;stroke-width:1;"/><text fill="#000000" font-family="sans-serif" font-size="13" lengthAdjust="spacing" textLength="61.3247" x="522.8838" y="1681.8716">No Points</text></g><rect fill="#EEEEEE" height="3" style="stroke:#EEEEEE;stroke-width:1;" width="860.4912" x="0" y="1728.5039"/><line style="stroke:#000000;stroke-width:1;" x1="0" x2="860.4912" y1="1728.5039" y2="1728.5039"/><line style="stroke:#000000;stroke-width:1;" x1="0" x2="860.4912" y1="1731.5039" y2="1731.5039"/><rect fill="#EEEEEE" height="23.1328" style="stroke:#000000;stroke-width:2;" width="232.5244" x="313.9834" y="1717.9375"/><text fill="#000000" font-family="sans-serif" font-size="13" font-weight="bold" lengthAdjust="spacing" textLength="213.9985" x="319.9834" y="1734.0044">&#127470;&#127481; Felice Bonetto (Total: 6pt)</text><g class="message" data-participant-1="GP7" data-participant-2="GP7"><line style="stroke:#181818;stroke-width:1;" x1="749.6196" x2="791.6196" y1="1772.2031" y2="1772.2031"/><line style="stroke:#181818;stroke-width:1;" x1="791.6196" x2="791.6196" y1="1772.2031" y2="1785.2031"/><line style="stroke:#181818;stroke-width:1;" x1="750.6196" x2="791.6196" y1="1785.2031" y2="1785.2031"/><polygon fill="#181818" points="760.6196,1781.2031,750.6196,1785.2031,760.6196,1789.2031,756.6196,1785.2031" style="stroke:#181818;stroke-width:1;"/><text fill="#000000" font-family="sans-serif" font-size="13" lengthAdjust="spacing" textLength="68.0596" x="756.6196" y="1767.1372">4&#20301; (+2pt)</text></g><g class="message" data-participant-1="GP6" data-participant-2="GP6"><line style="stroke:#181818;stroke-width:1;" x1="634.9785" x2="676.9785" y1="1814.3359" y2="1814.3359"/><line style="stroke:#181818;stroke-width:1;" x1="676.9785" x2="676.9785" y1="1814.3359" y2="1827.3359"/><line style="stroke:#181818;stroke-width:1;" x1="635.9785" x2="676.9785" y1="1827.3359" y2="1827.3359"/><polygon fill="#181818" points="645.9785,1823.3359,635.9785,1827.3359,645.9785,1831.3359,641.9785,1827.3359" style="stroke:#181818;stroke-width:1;"/><text fill="#000000" font-family="sans-serif" font-size="13" lengthAdjust="spacing" textLength="61.3247" x="641.9785" y="1809.27">No Points</text></g><g class="message" data-participant-1="GP1" data-participant-2="GP1"><line style="stroke:#181818;stroke-width:1;" x1="56.895" x2="98.895" y1="1856.4688" y2="1856.4688"/><line style="stroke:#181818;stroke-width:1;" x1="98.895" x2="98.895" y1="1856.4688" y2="1869.4688"/><line style="stroke:#181818;stroke-width:1;" x1="57.895" x2="98.895" y1="1869.4688" y2="1869.4688"/><polygon fill="#181818" points="67.895,1865.4688,57.895,1869.4688,67.895,1873.4688,63.895,1869.4688" style="stroke:#181818;stroke-width:1;"/><text fill="#000000" font-family="sans-serif" font-size="13" lengthAdjust="spacing" textLength="96.8716" x="63.895" y="1851.4028">5&#20301; (No Points)</text></g><g class="message" data-participant-1="GP3" data-participant-2="GP3"><line style="stroke:#181818;stroke-width:1;" x1="290.4429" x2="332.4429" y1="1898.6016" y2="1898.6016"/><line style="stroke:#181818;stroke-width:1;" x1="332.4429" x2="332.4429" y1="1898.6016" y2="1911.6016"/><line style="stroke:#181818;stroke-width:1;" x1="291.4429" x2="332.4429" y1="1911.6016" y2="1911.6016"/><polygon fill="#181818" points="301.4429,1907.6016,291.4429,1911.6016,301.4429,1915.6016,297.4429,1911.6016" style="stroke:#181818;stroke-width:1;"/><text fill="#000000" font-family="sans-serif" font-size="13" lengthAdjust="spacing" textLength="61.3247" x="297.4429" y="1893.5356">No Points</text></g><!--SRC=[ZLJBRjD05DtxAwww2e9AyPjK2ei89RHAKPHsoMP8fkb8PiOQZq7v0bPy0pjQdejk2aZy3H_09t3Z2VOTEvPON4NnERxtd3DtR8J9EFYZU0XJ7ouuAvI4OrWe8Kq1BxSmMpo2cLPbpjUxlq-rUCsrv-LC6x4IEPC6ZcOB_uNyy_xj5wmRc6XXH76DRnu1A_37RxE3Yds7TGldIhALQiX1cnnMv9zOt-5KhhSG3uTxRjZcHXNt5kihNBmHHT7qZThSkEBUO7s22SysWic67RVPISN-Z7KFKytbYlXBskIq8d_3-W6dXcLEwzJpncEeyPae2vxd7APC2ybWSAdmZHC87kVc0Op77kO7nqzsCS89-Bz_lOF1mn5Y2AGMI3j0P848WS02YGKI2oG8X1Q8B11O841W2OCbDqBpzGw8BH0Za5HlF5VxxTYXeKL3HEld__nzgC8wAz7yEPCbpz2Yt0XLMmp3sY8PxpeXurs0E741afRhdMXDsqwS8vcNOYDGB6hDHADsMAibyVQAScUJat81ehRtGE9kxYIMFY_snfofQocti60QBtPHcndLNaWgrCk-YLtukIf50KjL2Axh5kcXE2BR8kouTiqHrqcF_8_LnNp6zIic9SnnS-h9pSqWCUm7n9s3S2MHoSt2EXReOt88dVMskxB0I1HSCbrUNOa3yP8ElHjnu7o9J5S_SToZQCepiU8mKP8Rqrosf9P49kzx1vtGQ0X4I_n_Nu2_]--></g></svg>