<svg xmlns="http://www.w3.org/2000/svg" xmlns:xlink="http://www.w3.org/1999/xlink" contentStyleType="text/css" data-diagram-type="SEQUENCE" height="1516px" preserveAspectRatio="none" style="width:949px;height:1516px;background:#FFFFFF;" version="1.1" viewBox="0 0 949 1516" width="949px" zoomAndPan="magnify"><title>1950 F1 Season - Points per Race</title><defs/><g><text fill="#000000" font-family="sans-serif" font-size="14" font-weight="bold" lengthAdjust="spacing" textLength="264.3799" x="338.7544" y="27.9951">1950 F1 Season - Points per Race</text><g><title>Farina</title><rect fill="#000000" fill-opacity="0.00000" height="1407.7813" width="8" x="217.8647" y="73.5938"/><line style="stroke:#181818;stroke-width:0.5;stroke-dasharray:5.0,5.0;" x1="221" x2="221" y1="73.5938" y2="1481.375"/></g><g><title>Fangio</title><rect fill="#000000" fill-opacity="0.00000" height="1407.7813" width="8" x="324.5532" y="73.5938"/><line style="stroke:#181818;stroke-width:0.5;stroke-dasharray:5.0,5.0;" x1="328.1299" x2="328.1299" y1="73.5938" y2="1481.375"/></g><g><title>Fagioli</title><rect fill="#000000" fill-opacity="0.00000" height="1407.7813" width="8" x="441.8613" y="73.5938"/><line style="stroke:#181818;stroke-width:0.5;stroke-dasharray:5.0,5.0;" x1="444.9849" x2="444.9849" y1="73.5938" y2="1481.375"/></g><g><title>Rosier</title><rect fill="#000000" fill-opacity="0.00000" height="1407.7813" width="8" x="514.063" y="73.5938"/><line style="stroke:#181818;stroke-width:0.5;stroke-dasharray:5.0,5.0;" x1="517.1401" x2="517.1401" y1="73.5938" y2="1481.375"/></g><g><title>Parsons</title><rect fill="#000000" fill-opacity="0.00000" height="1407.7813" width="8" x="587.3877" y="73.5938"/><line style="stroke:#181818;stroke-width:0.5;stroke-dasharray:5.0,5.0;" x1="590.9858" x2="590.9858" y1="73.5938" y2="1481.375"/></g><g><title>Other Drivers</title><rect fill="#000000" fill-opacity="0.00000" height="1407.7813" width="8" x="704.6958" y="73.5938"/><line style="stroke:#181818;stroke-width:0.5;stroke-dasharray:5.0,5.0;" x1="708.4082" x2="708.4082" y1="73.5938" y2="1481.375"/></g><g><title>Ascari</title><rect fill="#000000" fill-opacity="0.00000" height="1407.7813" width="8" x="797.3799" y="73.5938"/><line style="stroke:#181818;stroke-width:0.5;stroke-dasharray:5.0,5.0;" x1="800.9834" x2="800.9834" y1="73.5938" y2="1481.375"/></g><g><title>Chiron</title><rect fill="#000000" fill-opacity="0.00000" height="1407.7813" width="8" x="869.5815" y="73.5938"/><line style="stroke:#181818;stroke-width:0.5;stroke-dasharray:5.0,5.0;" x1="872.7153" x2="872.7153" y1="73.5938" y2="1481.375"/></g><g class="participant participant-head" data-participant="Farina"><rect fill="#E2E2F0" height="30.2969" rx="2.5" ry="2.5" style="stroke:#181818;stroke-width:0.5;" width="57.7295" x="193" y="42.2969"/><text fill="#000000" font-family="sans-serif" font-size="14" lengthAdjust="spacing" textLength="43.7295" x="200" y="62.292">Farina</text></g><g class="participant participant-tail" data-participant="Farina"><rect fill="#E2E2F0" height="30.2969" rx="2.5" ry="2.5" style="stroke:#181818;stroke-width:0.5;" width="57.7295" x="193" y="1480.375"/><text fill="#000000" font-family="sans-serif" font-size="14" lengthAdjust="spacing" textLength="43.7295" x="200" y="1500.3701">Farina</text></g><g class="participant participant-head" data-participant="Fangio"><rect fill="#E2E2F0" height="30.2969" rx="2.5" ry="2.5" style="stroke:#181818;stroke-width:0.5;" width="60.8467" x="298.1299" y="42.2969"/><text fill="#000000" font-family="sans-serif" font-size="14" lengthAdjust="spacing" textLength="46.8467" x="305.1299" y="62.292">Fangio</text></g><g class="participant participant-tail" data-participant="Fangio"><rect fill="#E2E2F0" height="30.2969" rx="2.5" ry="2.5" style="stroke:#181818;stroke-width:0.5;" width="60.8467" x="298.1299" y="1480.375"/><text fill="#000000" font-family="sans-serif" font-size="14" lengthAdjust="spacing" textLength="46.8467" x="305.1299" y="1500.3701">Fangio</text></g><g class="participant participant-head" data-participant="Fagioli"><rect fill="#E2E2F0" height="30.2969" rx="2.5" ry="2.5" style="stroke:#181818;stroke-width:0.5;" width="59.7529" x="415.9849" y="42.2969"/><text fill="#000000" font-family="sans-serif" font-size="14" lengthAdjust="spacing" textLength="45.7529" x="422.9849" y="62.292">Fagioli</text></g><g class="participant participant-tail" data-participant="Fagioli"><rect fill="#E2E2F0" height="30.2969" rx="2.5" ry="2.5" style="stroke:#181818;stroke-width:0.5;" width="59.7529" x="415.9849" y="1480.375"/><text fill="#000000" font-family="sans-serif" font-size="14" lengthAdjust="spacing" textLength="45.7529" x="422.9849" y="1500.3701">Fagioli</text></g><g class="participant participant-head" data-participant="Rosier"><rect fill="#E2E2F0" height="30.2969" rx="2.5" ry="2.5" style="stroke:#181818;stroke-width:0.5;" width="57.8457" x="489.1401" y="42.2969"/><text fill="#000000" font-family="sans-serif" font-size="14" lengthAdjust="spacing" textLength="43.8457" x="496.1401" y="62.292">Rosier</text></g><g class="participant participant-tail" data-participant="Rosier"><rect fill="#E2E2F0" height="30.2969" rx="2.5" ry="2.5" style="stroke:#181818;stroke-width:0.5;" width="57.8457" x="489.1401" y="1480.375"/><text fill="#000000" font-family="sans-serif" font-size="14" lengthAdjust="spacing" textLength="43.8457" x="496.1401" y="1500.3701">Rosier</text></g><g class="participant participant-head" data-participant="Parsons"><rect fill="#E2E2F0" height="30.2969" rx="2.5" ry="2.5" style="stroke:#181818;stroke-width:0.5;" width="68.8037" x="556.9858" y="42.2969"/><text fill="#000000" font-family="sans-serif" font-size="14" lengthAdjust="spacing" textLength="54.8037" x="563.9858" y="62.292">Parsons</text></g><g class="participant participant-tail" data-participant="Parsons"><rect fill="#E2E2F0" height="30.2969" rx="2.5" ry="2.5" style="stroke:#181818;stroke-width:0.5;" width="68.8037" x="556.9858" y="1480.375"/><text fill="#000000" font-family="sans-serif" font-size="14" lengthAdjust="spacing" textLength="54.8037" x="563.9858" y="1500.3701">Parsons</text></g><g class="participant participant-head" data-participant="Others"><rect fill="#E2E2F0" height="30.2969" rx="2.5" ry="2.5" style="stroke:#181818;stroke-width:0.5;" width="108.5752" x="654.4082" y="42.2969"/><text fill="#000000" font-family="sans-serif" font-size="14" lengthAdjust="spacing" textLength="94.5752" x="661.4082" y="62.292">Other Drivers</text></g><g class="participant participant-tail" data-participant="Others"><rect fill="#E2E2F0" height="30.2969" rx="2.5" ry="2.5" style="stroke:#181818;stroke-width:0.5;" width="108.5752" x="654.4082" y="1480.375"/><text fill="#000000" font-family="sans-serif" font-size="14" lengthAdjust="spacing" textLength="94.5752" x="661.4082" y="1500.3701">Other Drivers</text></g><g class="participant participant-head" data-participant="Ascari"><rect fill="#E2E2F0" height="30.2969" rx="2.5" ry="2.5" style="stroke:#181818;stroke-width:0.5;" width="56.793" x="772.9834" y="42.2969"/><text fill="#000000" font-family="sans-serif" font-size="14" lengthAdjust="spacing" textLength="42.793" x="779.9834" y="62.292">Ascari</text></g><g class="participant participant-tail" data-participant="Ascari"><rect fill="#E2E2F0" height="30.2969" rx="2.5" ry="2.5" style="stroke:#181818;stroke-width:0.5;" width="56.793" x="772.9834" y="1480.375"/><text fill="#000000" font-family="sans-serif" font-size="14" lengthAdjust="spacing" textLength="42.793" x="779.9834" y="1500.3701">Ascari</text></g><g class="participant participant-head" data-participant="Chiron"><rect fill="#E2E2F0" height="30.2969" rx="2.5" ry="2.5" style="stroke:#181818;stroke-width:0.5;" width="59.7324" x="843.7153" y="42.2969"/><text fill="#000000" font-family="sans-serif" font-size="14" lengthAdjust="spacing" textLength="45.7324" x="850.7153" y="62.292">Chiron</text></g><g class="participant participant-tail" data-participant="Chiron"><rect fill="#E2E2F0" height="30.2969" rx="2.5" ry="2.5" style="stroke:#181818;stroke-width:0.5;" width="59.7324" x="843.7153" y="1480.375"/><text fill="#000000" font-family="sans-serif" font-size="14" lengthAdjust="spacing" textLength="45.7324" x="850.7153" y="1500.3701">Chiron</text></g><rect fill="#EEEEEE" height="3" style="stroke:#EEEEEE;stroke-width:1;" width="942.8887" x="0" y="104.1602"/><line style="stroke:#000000;stroke-width:1;" x1="0" x2="942.8887" y1="104.1602" y2="104.1602"/><line style="stroke:#000000;stroke-width:1;" x1="0" x2="942.8887" y1="107.1602" y2="107.1602"/><rect fill="#EEEEEE" height="23.1328" style="stroke:#000000;stroke-width:2;" width="170.4189" x="386.2349" y="93.5938"/><text fill="#000000" font-family="sans-serif" font-size="13" font-weight="bold" lengthAdjust="spacing" textLength="151.8931" x="392.2349" y="109.6606">Race 1: British GP &#127468;&#127463;</text><g class="message" data-participant-1="Farina" data-participant-2="Farina"><line style="stroke:#181818;stroke-width:1;" x1="221.8647" x2="263.8647" y1="147.8594" y2="147.8594"/><line style="stroke:#181818;stroke-width:1;" x1="263.8647" x2="263.8647" y1="147.8594" y2="160.8594"/><line style="stroke:#181818;stroke-width:1;" x1="222.8647" x2="263.8647" y1="160.8594" y2="160.8594"/><polygon fill="#181818" points="232.8647,156.8594,222.8647,160.8594,232.8647,164.8594,228.8647,160.8594" style="stroke:#181818;stroke-width:1;"/><text fill="#000000" font-family="sans-serif" font-size="13" lengthAdjust="spacing" textLength="92.6885" x="228.8647" y="142.7935">1st place (+8)</text></g><g class="message" data-participant-1="Fagioli" data-participant-2="Fagioli"><line style="stroke:#181818;stroke-width:1;" x1="445.8613" x2="487.8613" y1="189.9922" y2="189.9922"/><line style="stroke:#181818;stroke-width:1;" x1="487.8613" x2="487.8613" y1="189.9922" y2="202.9922"/><line style="stroke:#181818;stroke-width:1;" x1="446.8613" x2="487.8613" y1="202.9922" y2="202.9922"/><polygon fill="#181818" points="456.8613,198.9922,446.8613,202.9922,456.8613,206.9922,452.8613,202.9922" style="stroke:#181818;stroke-width:1;"/><text fill="#000000" font-family="sans-serif" font-size="13" lengthAdjust="spacing" textLength="58.2017" x="452.8613" y="184.9263">2nd (+6)</text></g><g class="message" data-participant-1="Fangio" data-participant-2="Fangio"><line style="stroke:#181818;stroke-width:1;" x1="328.5532" x2="370.5532" y1="232.125" y2="232.125"/><line style="stroke:#181818;stroke-width:1;" x1="370.5532" x2="370.5532" y1="232.125" y2="245.125"/><line style="stroke:#181818;stroke-width:1;" x1="329.5532" x2="370.5532" y1="245.125" y2="245.125"/><polygon fill="#181818" points="339.5532,241.125,329.5532,245.125,339.5532,249.125,335.5532,245.125" style="stroke:#181818;stroke-width:1;"/><text fill="#000000" font-family="sans-serif" font-size="13" lengthAdjust="spacing" textLength="55.3071" x="335.5532" y="227.0591">3rd (+4)</text></g><path d="M226,258.125 L226,298.125 L355,298.125 L355,268.125 L345,258.125 L226,258.125" fill="#FEFFDD" style="stroke:#181818;stroke-width:0.5;"/><path d="M345,258.125 L345,268.125 L355,268.125 L345,258.125" fill="#FEFFDD" style="stroke:#181818;stroke-width:0.5;"/><text fill="#000000" font-family="sans-serif" font-size="13" lengthAdjust="spacing" textLength="108.2148" x="232" y="275.1919">Fastest Lap (+1)</text><text fill="#000000" font-family="sans-serif" font-size="13" lengthAdjust="spacing" textLength="73.6074" x="232" y="290.3247">Total: 9 pts</text><rect fill="#EEEEEE" height="3" style="stroke:#EEEEEE;stroke-width:1;" width="942.8887" x="0" y="323.957"/><line style="stroke:#000000;stroke-width:1;" x1="0" x2="942.8887" y1="323.957" y2="323.957"/><line style="stroke:#000000;stroke-width:1;" x1="0" x2="942.8887" y1="326.957" y2="326.957"/><rect fill="#EEEEEE" height="23.1328" style="stroke:#000000;stroke-width:2;" width="178.5122" x="382.1882" y="313.3906"/><text fill="#000000" font-family="sans-serif" font-size="13" font-weight="bold" lengthAdjust="spacing" textLength="159.9863" x="388.1882" y="329.4575">Race 2: Monaco GP &#127474;&#127464;</text><g class="message" data-participant-1="Fangio" data-participant-2="Fangio"><line style="stroke:#181818;stroke-width:1;" x1="328.5532" x2="370.5532" y1="367.6563" y2="367.6563"/><line style="stroke:#181818;stroke-width:1;" x1="370.5532" x2="370.5532" y1="367.6563" y2="380.6563"/><line style="stroke:#181818;stroke-width:1;" x1="329.5532" x2="370.5532" y1="380.6563" y2="380.6563"/><polygon fill="#181818" points="339.5532,376.6563,329.5532,380.6563,339.5532,384.6563,335.5532,380.6563" style="stroke:#181818;stroke-width:1;"/><text fill="#000000" font-family="sans-serif" font-size="13" lengthAdjust="spacing" textLength="53.5806" x="335.5532" y="362.5903">1st (+8)</text></g><g class="message" data-participant-1="Ascari" data-participant-2="Ascari"><line style="stroke:#181818;stroke-width:1;" x1="801.3799" x2="843.3799" y1="409.7891" y2="409.7891"/><line style="stroke:#181818;stroke-width:1;" x1="843.3799" x2="843.3799" y1="409.7891" y2="422.7891"/><line style="stroke:#181818;stroke-width:1;" x1="802.3799" x2="843.3799" y1="422.7891" y2="422.7891"/><polygon fill="#181818" points="812.3799,418.7891,802.3799,422.7891,812.3799,426.7891,808.3799,422.7891" style="stroke:#181818;stroke-width:1;"/><text fill="#000000" font-family="sans-serif" font-size="13" lengthAdjust="spacing" textLength="58.2017" x="808.3799" y="404.7231">2nd (+6)</text></g><g class="message" data-participant-1="Chiron" data-participant-2="Chiron"><line style="stroke:#181818;stroke-width:1;" x1="873.5815" x2="915.5815" y1="451.9219" y2="451.9219"/><line style="stroke:#181818;stroke-width:1;" x1="915.5815" x2="915.5815" y1="451.9219" y2="464.9219"/><line style="stroke:#181818;stroke-width:1;" x1="874.5815" x2="915.5815" y1="464.9219" y2="464.9219"/><polygon fill="#181818" points="884.5815,460.9219,874.5815,464.9219,884.5815,468.9219,880.5815,464.9219" style="stroke:#181818;stroke-width:1;"/><text fill="#000000" font-family="sans-serif" font-size="13" lengthAdjust="spacing" textLength="55.3071" x="880.5815" y="446.856">3rd (+4)</text></g><path d="M333,477.9219 L333,517.9219 L462,517.9219 L462,487.9219 L452,477.9219 L333,477.9219" fill="#FEFFDD" style="stroke:#181818;stroke-width:0.5;"/><path d="M452,477.9219 L452,487.9219 L462,487.9219 L452,477.9219" fill="#FEFFDD" style="stroke:#181818;stroke-width:0.5;"/><text fill="#000000" font-family="sans-serif" font-size="13" lengthAdjust="spacing" textLength="108.2148" x="339" y="494.9888">Fastest Lap (+1)</text><text fill="#000000" font-family="sans-serif" font-size="13" lengthAdjust="spacing" textLength="73.6074" x="339" y="510.1216">Total: 9 pts</text><rect fill="#EEEEEE" height="3" style="stroke:#EEEEEE;stroke-width:1;" width="942.8887" x="0" y="543.7539"/><line style="stroke:#000000;stroke-width:1;" x1="0" x2="942.8887" y1="543.7539" y2="543.7539"/><line style="stroke:#000000;stroke-width:1;" x1="0" x2="942.8887" y1="546.7539" y2="546.7539"/><rect fill="#EEEEEE" height="23.1328" style="stroke:#000000;stroke-width:2;" width="218.458" x="362.2153" y="533.1875"/><text fill="#000000" font-family="sans-serif" font-size="13" font-weight="bold" lengthAdjust="spacing" textLength="199.9321" x="368.2153" y="549.2544">Race 3: Indianapolis 500 &#127482;&#127480;</text><g class="message" data-participant-1="Parsons" data-participant-2="Parsons"><line style="stroke:#181818;stroke-width:1;" x1="591.3877" x2="633.3877" y1="587.4531" y2="587.4531"/><line style="stroke:#181818;stroke-width:1;" x1="633.3877" x2="633.3877" y1="587.4531" y2="600.4531"/><line style="stroke:#181818;stroke-width:1;" x1="592.3877" x2="633.3877" y1="600.4531" y2="600.4531"/><polygon fill="#181818" points="602.3877,596.4531,592.3877,600.4531,602.3877,604.4531,598.3877,600.4531" style="stroke:#181818;stroke-width:1;"/><text fill="#000000" font-family="sans-serif" font-size="13" lengthAdjust="spacing" textLength="103.3081" x="598.3877" y="582.3872">1st (+9 incl. FL)</text></g><path d="M596,613.4531 L596,638.4531 L690,638.4531 L690,623.4531 L680,613.4531 L596,613.4531" fill="#FEFFDD" style="stroke:#181818;stroke-width:0.5;"/><path d="M680,613.4531 L680,623.4531 L690,623.4531 L680,613.4531" fill="#FEFFDD" style="stroke:#181818;stroke-width:0.5;"/><text fill="#000000" font-family="sans-serif" font-size="13" lengthAdjust="spacing" textLength="73.6074" x="602" y="630.52">Total: 9 pts</text><rect fill="#EEEEEE" height="3" style="stroke:#EEEEEE;stroke-width:1;" width="942.8887" x="0" y="664.1523"/><line style="stroke:#000000;stroke-width:1;" x1="0" x2="942.8887" y1="664.1523" y2="664.1523"/><line style="stroke:#000000;stroke-width:1;" x1="0" x2="942.8887" y1="667.1523" y2="667.1523"/><rect fill="#EEEEEE" height="23.1328" style="stroke:#000000;stroke-width:2;" width="163.2842" x="389.8022" y="653.5859"/><text fill="#000000" font-family="sans-serif" font-size="13" font-weight="bold" lengthAdjust="spacing" textLength="144.7583" x="395.8022" y="669.6528">Race 4: Swiss GP &#127464;&#127469;</text><g class="message" data-participant-1="Farina" data-participant-2="Farina"><line style="stroke:#181818;stroke-width:1;" x1="221.8647" x2="263.8647" y1="707.8516" y2="707.8516"/><line style="stroke:#181818;stroke-width:1;" x1="263.8647" x2="263.8647" y1="707.8516" y2="720.8516"/><line style="stroke:#181818;stroke-width:1;" x1="222.8647" x2="263.8647" y1="720.8516" y2="720.8516"/><polygon fill="#181818" points="232.8647,716.8516,222.8647,720.8516,232.8647,724.8516,228.8647,720.8516" style="stroke:#181818;stroke-width:1;"/><text fill="#000000" font-family="sans-serif" font-size="13" lengthAdjust="spacing" textLength="53.5806" x="228.8647" y="702.7856">1st (+8)</text></g><g class="message" data-participant-1="Fagioli" data-participant-2="Fagioli"><line style="stroke:#181818;stroke-width:1;" x1="445.8613" x2="487.8613" y1="749.9844" y2="749.9844"/><line style="stroke:#181818;stroke-width:1;" x1="487.8613" x2="487.8613" y1="749.9844" y2="762.9844"/><line style="stroke:#181818;stroke-width:1;" x1="446.8613" x2="487.8613" y1="762.9844" y2="762.9844"/><polygon fill="#181818" points="456.8613,758.9844,446.8613,762.9844,456.8613,766.9844,452.8613,762.9844" style="stroke:#181818;stroke-width:1;"/><text fill="#000000" font-family="sans-serif" font-size="13" lengthAdjust="spacing" textLength="58.2017" x="452.8613" y="744.9185">2nd (+6)</text></g><g class="message" data-participant-1="Rosier" data-participant-2="Rosier"><line style="stroke:#181818;stroke-width:1;" x1="518.063" x2="560.063" y1="792.1172" y2="792.1172"/><line style="stroke:#181818;stroke-width:1;" x1="560.063" x2="560.063" y1="792.1172" y2="805.1172"/><line style="stroke:#181818;stroke-width:1;" x1="519.063" x2="560.063" y1="805.1172" y2="805.1172"/><polygon fill="#181818" points="529.063,801.1172,519.063,805.1172,529.063,809.1172,525.063,805.1172" style="stroke:#181818;stroke-width:1;"/><text fill="#000000" font-family="sans-serif" font-size="13" lengthAdjust="spacing" textLength="55.3071" x="525.063" y="787.0513">3rd (+4)</text></g><path d="M226,818.1172 L226,843.1172 L328,843.1172 L328,828.1172 L318,818.1172 L226,818.1172" fill="#FEFFDD" style="stroke:#181818;stroke-width:0.5;"/><path d="M318,818.1172 L318,828.1172 L328,828.1172 L318,818.1172" fill="#FEFFDD" style="stroke:#181818;stroke-width:0.5;"/><text fill="#000000" font-family="sans-serif" font-size="13" lengthAdjust="spacing" textLength="81.8784" x="232" y="835.1841">Total: 17 pts</text><rect fill="#EEEEEE" height="3" style="stroke:#EEEEEE;stroke-width:1;" width="942.8887" x="0" y="868.8164"/><line style="stroke:#000000;stroke-width:1;" x1="0" x2="942.8887" y1="868.8164" y2="868.8164"/><line style="stroke:#000000;stroke-width:1;" x1="0" x2="942.8887" y1="871.8164" y2="871.8164"/><rect fill="#EEEEEE" height="23.1328" style="stroke:#000000;stroke-width:2;" width="176.9507" x="382.969" y="858.25"/><text fill="#000000" font-family="sans-serif" font-size="13" font-weight="bold" lengthAdjust="spacing" textLength="158.4248" x="388.969" y="874.3169">Race 5: Belgian GP &#127463;&#127466;</text><g class="message" data-participant-1="Fangio" data-participant-2="Fangio"><line style="stroke:#181818;stroke-width:1;" x1="328.5532" x2="370.5532" y1="912.5156" y2="912.5156"/><line style="stroke:#181818;stroke-width:1;" x1="370.5532" x2="370.5532" y1="912.5156" y2="925.5156"/><line style="stroke:#181818;stroke-width:1;" x1="329.5532" x2="370.5532" y1="925.5156" y2="925.5156"/><polygon fill="#181818" points="339.5532,921.5156,329.5532,925.5156,339.5532,929.5156,335.5532,925.5156" style="stroke:#181818;stroke-width:1;"/><text fill="#000000" font-family="sans-serif" font-size="13" lengthAdjust="spacing" textLength="103.3081" x="335.5532" y="907.4497">1st (+9 incl. FL)</text></g><path d="M333,938.5156 L333,963.5156 L435,963.5156 L435,948.5156 L425,938.5156 L333,938.5156" fill="#FEFFDD" style="stroke:#181818;stroke-width:0.5;"/><path d="M425,938.5156 L425,948.5156 L435,948.5156 L425,938.5156" fill="#FEFFDD" style="stroke:#181818;stroke-width:0.5;"/><text fill="#000000" font-family="sans-serif" font-size="13" lengthAdjust="spacing" textLength="81.8784" x="339" y="955.5825">Total: 18 pts</text><rect fill="#EEEEEE" height="3" style="stroke:#EEEEEE;stroke-width:1;" width="942.8887" x="0" y="989.2148"/><line style="stroke:#000000;stroke-width:1;" x1="0" x2="942.8887" y1="989.2148" y2="989.2148"/><line style="stroke:#000000;stroke-width:1;" x1="0" x2="942.8887" y1="992.2148" y2="992.2148"/><rect fill="#EEEEEE" height="23.1328" style="stroke:#000000;stroke-width:2;" width="172.3042" x="385.2922" y="978.6484"/><text fill="#000000" font-family="sans-serif" font-size="13" font-weight="bold" lengthAdjust="spacing" textLength="153.7783" x="391.2922" y="994.7153">Race 6: French GP &#127467;&#127479;</text><g class="message" data-participant-1="Fangio" data-participant-2="Fangio"><line style="stroke:#181818;stroke-width:1;" x1="328.5532" x2="370.5532" y1="1032.9141" y2="1032.9141"/><line style="stroke:#181818;stroke-width:1;" x1="370.5532" x2="370.5532" y1="1032.9141" y2="1045.9141"/><line style="stroke:#181818;stroke-width:1;" x1="329.5532" x2="370.5532" y1="1045.9141" y2="1045.9141"/><polygon fill="#181818" points="339.5532,1041.9141,329.5532,1045.9141,339.5532,1049.9141,335.5532,1045.9141" style="stroke:#181818;stroke-width:1;"/><text fill="#000000" font-family="sans-serif" font-size="13" lengthAdjust="spacing" textLength="53.5806" x="335.5532" y="1027.8481">1st (+8)</text></g><g class="message" data-participant-1="Fagioli" data-participant-2="Fagioli"><line style="stroke:#181818;stroke-width:1;" x1="445.8613" x2="487.8613" y1="1075.0469" y2="1075.0469"/><line style="stroke:#181818;stroke-width:1;" x1="487.8613" x2="487.8613" y1="1075.0469" y2="1088.0469"/><line style="stroke:#181818;stroke-width:1;" x1="446.8613" x2="487.8613" y1="1088.0469" y2="1088.0469"/><polygon fill="#181818" points="456.8613,1084.0469,446.8613,1088.0469,456.8613,1092.0469,452.8613,1088.0469" style="stroke:#181818;stroke-width:1;"/><text fill="#000000" font-family="sans-serif" font-size="13" lengthAdjust="spacing" textLength="58.2017" x="452.8613" y="1069.981">2nd (+6)</text></g><g class="message" data-participant-1="Farina" data-participant-2="Farina"><line style="stroke:#181818;stroke-width:1;" x1="221.8647" x2="263.8647" y1="1117.1797" y2="1117.1797"/><line style="stroke:#181818;stroke-width:1;" x1="263.8647" x2="263.8647" y1="1117.1797" y2="1130.1797"/><line style="stroke:#181818;stroke-width:1;" x1="222.8647" x2="263.8647" y1="1130.1797" y2="1130.1797"/><polygon fill="#181818" points="232.8647,1126.1797,222.8647,1130.1797,232.8647,1134.1797,228.8647,1130.1797" style="stroke:#181818;stroke-width:1;"/><text fill="#000000" font-family="sans-serif" font-size="13" lengthAdjust="spacing" textLength="55.3071" x="228.8647" y="1112.1138">3rd (+4)</text></g><path d="M333,1143.1797 L333,1183.1797 L462,1183.1797 L462,1153.1797 L452,1143.1797 L333,1143.1797" fill="#FEFFDD" style="stroke:#181818;stroke-width:0.5;"/><path d="M452,1143.1797 L452,1153.1797 L462,1153.1797 L452,1143.1797" fill="#FEFFDD" style="stroke:#181818;stroke-width:0.5;"/><text fill="#000000" font-family="sans-serif" font-size="13" lengthAdjust="spacing" textLength="108.2148" x="339" y="1160.2466">Fastest Lap (+1)</text><text fill="#000000" font-family="sans-serif" font-size="13" lengthAdjust="spacing" textLength="81.8784" x="339" y="1175.3794">Total: 27 pts</text><rect fill="#EEEEEE" height="3" style="stroke:#EEEEEE;stroke-width:1;" width="942.8887" x="0" y="1209.0117"/><line style="stroke:#000000;stroke-width:1;" x1="0" x2="942.8887" y1="1209.0117" y2="1209.0117"/><line style="stroke:#000000;stroke-width:1;" x1="0" x2="942.8887" y1="1212.0117" y2="1212.0117"/><rect fill="#EEEEEE" height="23.1328" style="stroke:#000000;stroke-width:2;" width="168.7432" x="387.0728" y="1198.4453"/><text fill="#000000" font-family="sans-serif" font-size="13" font-weight="bold" lengthAdjust="spacing" textLength="150.2173" x="393.0728" y="1214.5122">Race 7: Italian GP &#127470;&#127481;</text><g class="message" data-participant-1="Farina" data-participant-2="Farina"><line style="stroke:#181818;stroke-width:1;" x1="221.8647" x2="263.8647" y1="1252.7109" y2="1252.7109"/><line style="stroke:#181818;stroke-width:1;" x1="263.8647" x2="263.8647" y1="1252.7109" y2="1265.7109"/><line style="stroke:#181818;stroke-width:1;" x1="222.8647" x2="263.8647" y1="1265.7109" y2="1265.7109"/><polygon fill="#181818" points="232.8647,1261.7109,222.8647,1265.7109,232.8647,1269.7109,228.8647,1265.7109" style="stroke:#181818;stroke-width:1;"/><text fill="#000000" font-family="sans-serif" font-size="13" lengthAdjust="spacing" textLength="53.5806" x="228.8647" y="1247.645">1st (+8)</text></g><g class="message" data-participant-1="Fagioli" data-participant-2="Fagioli"><line style="stroke:#181818;stroke-width:1;" x1="445.8613" x2="487.8613" y1="1294.8438" y2="1294.8438"/><line style="stroke:#181818;stroke-width:1;" x1="487.8613" x2="487.8613" y1="1294.8438" y2="1307.8438"/><line style="stroke:#181818;stroke-width:1;" x1="446.8613" x2="487.8613" y1="1307.8438" y2="1307.8438"/><polygon fill="#181818" points="456.8613,1303.8438,446.8613,1307.8438,456.8613,1311.8438,452.8613,1307.8438" style="stroke:#181818;stroke-width:1;"/><text fill="#000000" font-family="sans-serif" font-size="13" lengthAdjust="spacing" textLength="58.2017" x="452.8613" y="1289.7778">2nd (+6)</text></g><g class="message" data-participant-1="Rosier" data-participant-2="Rosier"><line style="stroke:#181818;stroke-width:1;" x1="518.063" x2="560.063" y1="1336.9766" y2="1336.9766"/><line style="stroke:#181818;stroke-width:1;" x1="560.063" x2="560.063" y1="1336.9766" y2="1349.9766"/><line style="stroke:#181818;stroke-width:1;" x1="519.063" x2="560.063" y1="1349.9766" y2="1349.9766"/><polygon fill="#181818" points="529.063,1345.9766,519.063,1349.9766,529.063,1353.9766,525.063,1349.9766" style="stroke:#181818;stroke-width:1;"/><text fill="#000000" font-family="sans-serif" font-size="13" lengthAdjust="spacing" textLength="55.3071" x="525.063" y="1331.9106">3rd (+4)</text></g><path d="M226,1362.9766 L226,1387.9766 L328,1387.9766 L328,1372.9766 L318,1362.9766 L226,1362.9766" fill="#FEFFDD" style="stroke:#181818;stroke-width:0.5;"/><path d="M318,1362.9766 L318,1372.9766 L328,1372.9766 L318,1362.9766" fill="#FEFFDD" style="stroke:#181818;stroke-width:0.5;"/><text fill="#000000" font-family="sans-serif" font-size="13" lengthAdjust="spacing" textLength="81.8784" x="232" y="1380.0435">Total: 29 pts</text><rect fill="#EEEEEE" height="3" style="stroke:#EEEEEE;stroke-width:1;" width="942.8887" x="0" y="1413.6758"/><line style="stroke:#000000;stroke-width:1;" x1="0" x2="942.8887" y1="1413.6758" y2="1413.6758"/><line style="stroke:#000000;stroke-width:1;" x1="0" x2="942.8887" y1="1416.6758" y2="1416.6758"/><rect fill="#EEEEEE" height="23.1328" style="stroke:#000000;stroke-width:2;" width="144.8633" x="399.0127" y="1403.1094"/><text fill="#000000" font-family="sans-serif" font-size="13" font-weight="bold" lengthAdjust="spacing" textLength="126.3374" x="405.0127" y="1419.1763">Final Standings &#127937;</text><path d="M5,1441.2422 L5,1466.2422 L546,1466.2422 L546,1451.2422 L536,1441.2422 L5,1441.2422" fill="#FEFFDD" style="stroke:#181818;stroke-width:0.5;"/><path d="M536,1441.2422 L536,1451.2422 L546,1451.2422 L536,1441.2422" fill="#FEFFDD" style="stroke:#181818;stroke-width:0.5;"/><text fill="#000000" font-family="sans-serif" font-size="13" lengthAdjust="spacing" textLength="520.5459" x="11" y="1458.3091">Champion: Giuseppe Farina (30 pts)\n2nd: Fangio (27 pts)\n3rd: Fagioli (24 pts)</text><!--SRC=[nPJDJXin4CVl-nGZJebQgkmc0M8fI0KKL8cg4Ucn5sinsP6sjcKRUkR4iO_G8wYqFVJIZwVg8tJyiS06I10N3gCT-J_s_EP3wz3L0lBHi0UJ76Q2MoLX7QOAfREWXO53NeeiqzmuB55pwM1jmWrAlWRSGdGNPJb7bMJlBifqL6FIWzyEE5GMXGbwTDlob1k2j45FVZlWdQk8Uy_WgJ0nB9pOB1kFGpcGCzWnwD1Mi3-5Vr_Elv5Tm7YSnNfWVJjL1Wnowq3N_bhdnLOtIyWn9BeC2db4wePNVS5H31w3ll7Qe9j9vGGOd5SEr75wdz7NEa4f3hYciBpxGRvNZjSCHg3TBUQ2mLibUQaIya-oouXy9wL73h2lRKbfl9QyMwYx5He_x6r8tX9K_-xZKViCtiWZv99hQe-5OQ_dYV-I_VR4QMe-TUCsp2D0MTQlO7Am294Y6ToVSy1WzWcjJTsv9Fk-PA2F66NSFIycR-Ke4rc-sKORqhQ9UaxzI70NP5-NZkxXDZIpQ79jjNDjq9ICa6Mps5TalrPjoQgLljF1f-v9iT2PJLeK4cuwyuFippEDhRZPg0cTrp1pdBPOpYsHVJxpLE6-ejzAklko-S7jLloZHYKPxEE95LgBXhlJx_bdgGT4o9hcTs8dw9JOs7KPdM8GZZD1rVXa_m40]--></g></svg>