<svg xmlns="http://www.w3.org/2000/svg" xmlns:xlink="http://www.w3.org/1999/xlink" contentStyleType="text/css" data-diagram-type="SEQUENCE" height="890px" preserveAspectRatio="none" style="width:1031px;height:890px;background:#FFFFFF;" version="1.1" viewBox="0 0 1031 890" width="1031px" zoomAndPan="magnify"><title>&#38651;&#23376;&#24037;&#20316;&#12398;&#12486;&#12473;&#12488;&#12465;&#12540;&#12473;</title><defs/><g><text fill="#000000" font-family="sans-serif" font-size="14" font-weight="bold" lengthAdjust="spacing" textLength="153.9993" x="434.5005" y="27.9951">&#38651;&#23376;&#24037;&#20316;&#12398;&#12486;&#12473;&#12488;&#12465;&#12540;&#12473;</text><rect fill="none" height="77.3984" style="stroke:#000000;stroke-width:1.5;" width="583.9548" x="10" y="549.1875"/><g><title>User</title><rect fill="#000000" fill-opacity="0.00000" height="690.6563" width="8" x="34.9551" y="118.5938"/><line style="stroke:#181818;stroke-width:0.5;stroke-dasharray:5.0,5.0;" x1="38" x2="38" y1="118.5938" y2="809.25"/></g><g><title>&#28310;&#20633;&#12501;&#12455;&#12540;&#12474;</title><rect fill="#000000" fill-opacity="0.00000" height="690.6563" width="8" x="422.9554" y="118.5938"/><line style="stroke:#181818;stroke-width:0.5;stroke-dasharray:5.0,5.0;" x1="425.9556" x2="425.9556" y1="118.5938" y2="809.25"/></g><g><title>&#23455;&#39443;&#12501;&#12455;&#12540;&#12474;</title><rect fill="#000000" fill-opacity="0.00000" height="690.6563" width="8" x="530.955" y="118.5938"/><line style="stroke:#181818;stroke-width:0.5;stroke-dasharray:5.0,5.0;" x1="533.9552" x2="533.9552" y1="118.5938" y2="809.25"/></g><g><title>&#24540;&#29992;&#12501;&#12455;&#12540;&#12474;</title><rect fill="#000000" fill-opacity="0.00000" height="690.6563" width="8" x="638.9547" y="118.5938"/><line style="stroke:#181818;stroke-width:0.5;stroke-dasharray:5.0,5.0;" x1="641.9548" x2="641.9548" y1="118.5938" y2="809.25"/></g><g class="participant participant-head" data-participant="User"><text fill="#000000" font-family="sans-serif" font-size="14" lengthAdjust="spacing" textLength="31.9102" x="20" y="115.292">User</text><ellipse cx="38.9551" cy="50.7969" fill="#E2E2F0" rx="8" ry="8" style="stroke:#181818;stroke-width:0.5;"/><path d="M38.9551,58.7969 L38.9551,85.7969 M25.9551,66.7969 L51.9551,66.7969 M38.9551,85.7969 L25.9551,100.7969 M38.9551,85.7969 L51.9551,100.7969" fill="none" style="stroke:#181818;stroke-width:0.5;"/></g><g class="participant participant-tail" data-participant="User"><text fill="#000000" font-family="sans-serif" font-size="14" lengthAdjust="spacing" textLength="31.9102" x="20" y="821.2451">User</text><ellipse cx="38.9551" cy="833.0469" fill="#E2E2F0" rx="8" ry="8" style="stroke:#181818;stroke-width:0.5;"/><path d="M38.9551,841.0469 L38.9551,868.0469 M25.9551,849.0469 L51.9551,849.0469 M38.9551,868.0469 L25.9551,883.0469 M38.9551,868.0469 L51.9551,883.0469" fill="none" style="stroke:#181818;stroke-width:0.5;"/></g><g class="participant participant-head" data-participant="Prep"><rect fill="#E2E2F0" height="30.2969" rx="2.5" ry="2.5" style="stroke:#181818;stroke-width:0.5;" width="97.9996" x="377.9556" y="87.2969"/><text fill="#000000" font-family="sans-serif" font-size="14" lengthAdjust="spacing" textLength="83.9996" x="384.9556" y="107.292">&#28310;&#20633;&#12501;&#12455;&#12540;&#12474;</text></g><g class="participant participant-tail" data-participant="Prep"><rect fill="#E2E2F0" height="30.2969" rx="2.5" ry="2.5" style="stroke:#181818;stroke-width:0.5;" width="97.9996" x="377.9556" y="808.25"/><text fill="#000000" font-family="sans-serif" font-size="14" lengthAdjust="spacing" textLength="83.9996" x="384.9556" y="828.2451">&#28310;&#20633;&#12501;&#12455;&#12540;&#12474;</text></g><g class="participant participant-head" data-participant="Experiment"><rect fill="#E2E2F0" height="30.2969" rx="2.5" ry="2.5" style="stroke:#181818;stroke-width:0.5;" width="97.9996" x="485.9552" y="87.2969"/><text fill="#000000" font-family="sans-serif" font-size="14" lengthAdjust="spacing" textLength="83.9996" x="492.9552" y="107.292">&#23455;&#39443;&#12501;&#12455;&#12540;&#12474;</text></g><g class="participant participant-tail" data-participant="Experiment"><rect fill="#E2E2F0" height="30.2969" rx="2.5" ry="2.5" style="stroke:#181818;stroke-width:0.5;" width="97.9996" x="485.9552" y="808.25"/><text fill="#000000" font-family="sans-serif" font-size="14" lengthAdjust="spacing" textLength="83.9996" x="492.9552" y="828.2451">&#23455;&#39443;&#12501;&#12455;&#12540;&#12474;</text></g><g class="participant participant-head" data-participant="Apply"><rect fill="#E2E2F0" height="30.2969" rx="2.5" ry="2.5" style="stroke:#181818;stroke-width:0.5;" width="97.9996" x="593.9548" y="87.2969"/><text fill="#000000" font-family="sans-serif" font-size="14" lengthAdjust="spacing" textLength="83.9996" x="600.9548" y="107.292">&#24540;&#29992;&#12501;&#12455;&#12540;&#12474;</text></g><g class="participant participant-tail" data-participant="Apply"><rect fill="#E2E2F0" height="30.2969" rx="2.5" ry="2.5" style="stroke:#181818;stroke-width:0.5;" width="97.9996" x="593.9548" y="808.25"/><text fill="#000000" font-family="sans-serif" font-size="14" lengthAdjust="spacing" textLength="83.9996" x="600.9548" y="828.2451">&#24540;&#29992;&#12501;&#12455;&#12540;&#12474;</text></g><rect fill="#EEEEEE" height="3" style="stroke:#EEEEEE;stroke-width:1;" width="1024.0003" x="0" y="149.1602"/><line style="stroke:#000000;stroke-width:1;" x1="0" x2="1024.0003" y1="149.1602" y2="149.1602"/><line style="stroke:#000000;stroke-width:1;" x1="0" x2="1024.0003" y1="152.1602" y2="152.1602"/><rect fill="#EEEEEE" height="23.1328" style="stroke:#000000;stroke-width:2;" width="44.5259" x="489.7372" y="138.5938"/><text fill="#000000" font-family="sans-serif" font-size="13" font-weight="bold" lengthAdjust="spacing" textLength="26" x="495.7372" y="154.6606">&#28310;&#20633;</text><g class="message" data-participant-1="User" data-participant-2="Prep"><polygon fill="#181818" points="414.9554,188.8594,424.9554,192.8594,414.9554,196.8594,418.9554,192.8594" style="stroke:#181818;stroke-width:1;"/><line style="stroke:#181818;stroke-width:1;" x1="38.9551" x2="420.9554" y1="192.8594" y2="192.8594"/><text fill="#000000" font-family="sans-serif" font-size="13" lengthAdjust="spacing" textLength="364.0003" x="45.9551" y="187.7935">&#24517;&#35201;&#12394;&#36947;&#20855;&#12434;&#28310;&#20633;&#65288;&#12399;&#12435;&#12384;&#12372;&#12390;&#12289;&#12486;&#12473;&#12479;&#12540;&#12289;&#12502;&#12524;&#12483;&#12489;&#12508;&#12540;&#12489;&#65289;</text></g><path d="M431,205.8594 L431,230.8594 L682,230.8594 L682,215.8594 L672,205.8594 L431,205.8594" fill="#FEFFDD" style="stroke:#181818;stroke-width:0.5;"/><path d="M672,205.8594 L672,215.8594 L682,215.8594 L672,205.8594" fill="#FEFFDD" style="stroke:#181818;stroke-width:0.5;"/><text fill="#000000" font-family="sans-serif" font-size="13" lengthAdjust="spacing" textLength="230.4328" x="437" y="222.9263">&#12399;&#12435;&#12384;&#12372;&#12390;&#12475;&#12483;&#12488;&#65288;1,500&#12316;3,000&#20870;&#65289;</text><path d="M431,240.9922 L431,265.9922 L630,265.9922 L630,250.9922 L620,240.9922 L431,240.9922" fill="#FEFFDD" style="stroke:#181818;stroke-width:0.5;"/><path d="M620,240.9922 L620,250.9922 L630,250.9922 L620,240.9922" fill="#FEFFDD" style="stroke:#181818;stroke-width:0.5;"/><text fill="#000000" font-family="sans-serif" font-size="13" lengthAdjust="spacing" textLength="178.4327" x="437" y="258.0591">&#12486;&#12473;&#12479;&#12540;&#65288;1,000&#12316;2,000&#20870;&#65289;</text><path d="M431,276.125 L431,301.125 L657,301.125 L657,286.125 L647,276.125 L431,276.125" fill="#FEFFDD" style="stroke:#181818;stroke-width:0.5;"/><path d="M647,276.125 L647,286.125 L657,286.125 L647,276.125" fill="#FEFFDD" style="stroke:#181818;stroke-width:0.5;"/><text fill="#000000" font-family="sans-serif" font-size="13" lengthAdjust="spacing" textLength="205.0295" x="437" y="293.1919">&#12502;&#12524;&#12483;&#12489;&#12508;&#12540;&#12489;&#65288;500&#12316;1,000&#20870;&#65289;</text><path d="M431,311.2578 L431,336.2578 L704,336.2578 L704,321.2578 L694,311.2578 L431,311.2578" fill="#FEFFDD" style="stroke:#181818;stroke-width:0.5;"/><path d="M694,311.2578 L694,321.2578 L704,321.2578 L694,311.2578" fill="#FEFFDD" style="stroke:#181818;stroke-width:0.5;"/><text fill="#000000" font-family="sans-serif" font-size="13" lengthAdjust="spacing" textLength="252.0021" x="437" y="328.3247">5000&#20870;&#12398;&#23433;&#23450;&#21270;&#38651;&#28304;&#65288;&#20986;&#21147;: 20V 11.5A&#65289;</text><path d="M431,346.3906 L431,371.3906 L816,371.3906 L816,356.3906 L806,346.3906 L431,346.3906" fill="#FEFFDD" style="stroke:#181818;stroke-width:0.5;"/><path d="M806,346.3906 L806,356.3906 L816,356.3906 L806,346.3906" fill="#FEFFDD" style="stroke:#181818;stroke-width:0.5;"/><text fill="#000000" font-family="sans-serif" font-size="13" lengthAdjust="spacing" textLength="364.0003" x="437" y="363.4575">&#23433;&#23450;&#21270;&#38651;&#28304;&#12399;&#12289;&#22238;&#36335;&#12395;&#19968;&#23450;&#12398;&#38651;&#22311;&#12392;&#38651;&#27969;&#12434;&#20379;&#32102;&#12377;&#12427;&#12383;&#12417;&#12395;&#20351;&#29992;</text><rect fill="#EEEEEE" height="3" style="stroke:#EEEEEE;stroke-width:1;" width="1024.0003" x="0" y="397.0898"/><line style="stroke:#000000;stroke-width:1;" x1="0" x2="1024.0003" y1="397.0898" y2="397.0898"/><line style="stroke:#000000;stroke-width:1;" x1="0" x2="1024.0003" y1="400.0898" y2="400.0898"/><rect fill="#EEEEEE" height="23.1328" style="stroke:#000000;stroke-width:2;" width="44.5259" x="489.7372" y="386.5234"/><text fill="#000000" font-family="sans-serif" font-size="13" font-weight="bold" lengthAdjust="spacing" textLength="26" x="495.7372" y="402.5903">&#23455;&#39443;</text><g class="message" data-participant-1="User" data-participant-2="Experiment"><polygon fill="#181818" points="522.955,436.7891,532.955,440.7891,522.955,444.7891,526.955,440.7891" style="stroke:#181818;stroke-width:1;"/><line style="stroke:#181818;stroke-width:1;" x1="38.9551" x2="528.955" y1="440.7891" y2="440.7891"/><text fill="#000000" font-family="sans-serif" font-size="13" lengthAdjust="spacing" textLength="116.4669" x="45.9551" y="435.7231">LED&#28857;&#28783;&#22238;&#36335;&#12434;&#20316;&#25104;</text></g><g class="message" data-participant-1="User" data-participant-2="Experiment"><polygon fill="#181818" points="522.955,465.9219,532.955,469.9219,522.955,473.9219,526.955,469.9219" style="stroke:#181818;stroke-width:1;"/><line style="stroke:#181818;stroke-width:1;" x1="38.9551" x2="528.955" y1="469.9219" y2="469.9219"/><text fill="#000000" font-family="sans-serif" font-size="13" lengthAdjust="spacing" textLength="234.0003" x="45.9551" y="464.856">&#23433;&#23450;&#21270;&#38651;&#28304;&#12434;&#20351;&#29992;&#12375;&#12390;&#22238;&#36335;&#12395;&#38651;&#22311;&#12434;&#20379;&#32102;</text></g><path d="M539,482.9219 L539,507.9219 L728,507.9219 L728,492.9219 L718,482.9219 L539,482.9219" fill="#FEFFDD" style="stroke:#181818;stroke-width:0.5;"/><path d="M718,482.9219 L718,492.9219 L728,492.9219 L718,482.9219" fill="#FEFFDD" style="stroke:#181818;stroke-width:0.5;"/><text fill="#000000" font-family="sans-serif" font-size="13" lengthAdjust="spacing" textLength="168.467" x="545" y="499.9888">LED&#22238;&#36335;&#12395;&#36969;&#20999;&#12394;&#38651;&#22311;&#12434;&#35373;&#23450;</text><g class="message" data-participant-1="User" data-participant-2="Experiment"><polygon fill="#181818" points="522.955,530.1875,532.955,534.1875,522.955,538.1875,526.955,534.1875" style="stroke:#181818;stroke-width:1;"/><line style="stroke:#181818;stroke-width:1;" x1="38.9551" x2="528.955" y1="534.1875" y2="534.1875"/><text fill="#000000" font-family="sans-serif" font-size="13" lengthAdjust="spacing" textLength="91.0001" x="45.9551" y="529.1216">&#22238;&#36335;&#12398;&#21205;&#20316;&#30906;&#35469;</text></g><path d="M10,549.1875 L74.4429,549.1875 L74.4429,556.3203 L64.4429,566.3203 L10,566.3203 L10,549.1875" fill="#EEEEEE" style="stroke:#000000;stroke-width:1.5;"/><rect fill="none" height="77.3984" style="stroke:#000000;stroke-width:1.5;" width="583.9548" x="10" y="549.1875"/><text fill="#000000" font-family="sans-serif" font-size="13" font-weight="bold" lengthAdjust="spacing" textLength="19.4429" x="25" y="562.2544">alt</text><text fill="#000000" font-family="sans-serif" font-size="11" font-weight="bold" lengthAdjust="spacing" textLength="87.0542" x="89.4429" y="561.3979">[&#22238;&#36335;&#12364;&#21205;&#20316;&#12377;&#12427;]</text><g class="message" data-participant-1="User" data-participant-2="Experiment"><polygon fill="#181818" points="522.955,583.4531,532.955,587.4531,522.955,591.4531,526.955,587.4531" style="stroke:#181818;stroke-width:1;"/><line style="stroke:#181818;stroke-width:1;" x1="38.9551" x2="528.955" y1="587.4531" y2="587.4531"/><text fill="#000000" font-family="sans-serif" font-size="13" lengthAdjust="spacing" textLength="65.0001" x="45.9551" y="582.3872">&#21407;&#29702;&#12434;&#30906;&#35469;</text></g><line style="stroke:#000000;stroke-width:1;stroke-dasharray:2.0,2.0;" x1="10" x2="593.9548" y1="596.4531" y2="596.4531"/><g class="message" data-participant-1="User" data-participant-2="Experiment"><polygon fill="#181818" points="522.955,614.5859,532.955,618.5859,522.955,622.5859,526.955,618.5859" style="stroke:#181818;stroke-width:1;"/><line style="stroke:#181818;stroke-width:1;" x1="38.9551" x2="528.955" y1="618.5859" y2="618.5859"/><text fill="#000000" font-family="sans-serif" font-size="13" lengthAdjust="spacing" textLength="117.0001" x="45.9551" y="613.52">&#37197;&#32218;&#12420;&#37096;&#21697;&#12434;&#20877;&#30906;&#35469;</text></g><rect fill="#EEEEEE" height="3" style="stroke:#EEEEEE;stroke-width:1;" width="1024.0003" x="0" y="654.1523"/><line style="stroke:#000000;stroke-width:1;" x1="0" x2="1024.0003" y1="654.1523" y2="654.1523"/><line style="stroke:#000000;stroke-width:1;" x1="0" x2="1024.0003" y1="657.1523" y2="657.1523"/><rect fill="#EEEEEE" height="23.1328" style="stroke:#000000;stroke-width:2;" width="44.5259" x="489.7372" y="643.5859"/><text fill="#000000" font-family="sans-serif" font-size="13" font-weight="bold" lengthAdjust="spacing" textLength="26" x="495.7372" y="659.6528">&#24540;&#29992;</text><g class="message" data-participant-1="User" data-participant-2="Apply"><polygon fill="#181818" points="630.9547,693.8516,640.9547,697.8516,630.9547,701.8516,634.9547,697.8516" style="stroke:#181818;stroke-width:1;"/><line style="stroke:#181818;stroke-width:1;" x1="38.9551" x2="636.9547" y1="697.8516" y2="697.8516"/><text fill="#000000" font-family="sans-serif" font-size="13" lengthAdjust="spacing" textLength="104.0001" x="45.9551" y="692.7856">&#26032;&#12375;&#12356;&#22238;&#36335;&#12434;&#20316;&#25104;</text></g><g class="message" data-participant-1="User" data-participant-2="Apply"><polygon fill="#181818" points="630.9547,722.9844,640.9547,726.9844,630.9547,730.9844,634.9547,726.9844" style="stroke:#181818;stroke-width:1;"/><line style="stroke:#181818;stroke-width:1;" x1="38.9551" x2="636.9547" y1="726.9844" y2="726.9844"/><text fill="#000000" font-family="sans-serif" font-size="13" lengthAdjust="spacing" textLength="260.0003" x="45.9551" y="721.9185">&#12514;&#12540;&#12479;&#12540;&#12420;&#12475;&#12531;&#12469;&#12540;&#12434;&#20351;&#12387;&#12383;&#24540;&#29992;&#22238;&#36335;&#12398;&#27083;&#31689;</text></g><path d="M647,739.9844 L647,764.9844 L1019,764.9844 L1019,749.9844 L1009,739.9844 L647,739.9844" fill="#FEFFDD" style="stroke:#181818;stroke-width:0.5;"/><path d="M1009,739.9844 L1009,749.9844 L1019,749.9844 L1009,739.9844" fill="#FEFFDD" style="stroke:#181818;stroke-width:0.5;"/><text fill="#000000" font-family="sans-serif" font-size="13" lengthAdjust="spacing" textLength="351.0003" x="653" y="757.0513">&#23433;&#23450;&#21270;&#38651;&#28304;&#12391;&#12514;&#12540;&#12479;&#12540;&#12420;&#12475;&#12531;&#12469;&#12540;&#12395;&#24517;&#35201;&#12394;&#38651;&#22311;&#12539;&#38651;&#27969;&#12434;&#20379;&#32102;</text><g class="message" data-participant-1="User" data-participant-2="Apply"><polygon fill="#181818" points="630.9547,787.25,640.9547,791.25,630.9547,795.25,634.9547,791.25" style="stroke:#181818;stroke-width:1;"/><line style="stroke:#181818;stroke-width:1;" x1="38.9551" x2="636.9547" y1="791.25" y2="791.25"/><text fill="#000000" font-family="sans-serif" font-size="13" lengthAdjust="spacing" textLength="104.0001" x="45.9551" y="786.1841">&#20462;&#29702;&#12539;&#24540;&#29992;&#12398;&#25361;&#25126;</text></g><!--SRC=[XLJFRn916BtlNp7fkPgbXaiJJ9hOcmSlUYTrLH840dlG6pC3T14mM5fCoqPCZO2jNJI6OFaXVyp7xCAf_u8pixk0Ix6ttPttllVcVT-tUaoFQsZU6BAhAkj_dOvDm1RG0f1he0QGdq17_5bHeWTwCesUPhIqegIYQJrs44j54phQiWTrHaw1dW1fI_1W2qKpw4bQI_qBP5Pptgcj0VVVfBHqxBMMq0FmYUaSTzRWUwbK_AsYH2B85KQHY29SeNiFfIRQHMoIdxKmu8ivhh5y7yYH2xqP6O2xG6g0FmC-1jo2BFRkIYP2GxpMWNu7Ie4MWPhY8otUZ8fA8gbhA1rx-Kf7oHU-Kh0S6KgcmPL2ss5LXQpvO5jLLLOeRAwnOa3oLCdRkPjtgrF3bGtTHG-xvxpRp2eowuoLwtmAx46Lbs270_QkiOjsr6Se5BeVtjjO9S0LUMGnQtoQzRk0BwU_i_oKIuZvCjk0EmBMmxmZqpyDfzS2V0ga1BW910lyUC9RBflh3ijgSvTpmdKVxpzooBM3kvuMBpWsRQDwEpheKg254k2Fl6iBkvvBtrpWna7z9Gr_OyQX63UVF-jSSRqDNZoQnKedtBDpFfXTL9HeN5-SbDqJDni5eTlBl6ywLJuuHru1BPxHDc7d-OhJFmEIczCEgudqMQ7YynBFtRpbjgtcBHUDi-tw3vbJRbFKFX3ekTnJkKaa9vVX5v2UV1M90_x2M-qgBMAmsoMd6vmkl-JQUBN_9u8lbvllje8E0mEtPdewiKIETEZzRhYXyWVRQFq5]--></g></svg>