<svg xmlns="http://www.w3.org/2000/svg" xmlns:xlink="http://www.w3.org/1999/xlink" contentStyleType="text/css" data-diagram-type="SEQUENCE" height="749px" preserveAspectRatio="none" style="width:703px;height:749px;background:#FFFFFF;" version="1.1" viewBox="0 0 703 749" width="703px" zoomAndPan="magnify"><title>&#38651;&#23376;&#24037;&#20316;&#12398;&#12486;&#12473;&#12488;&#12465;&#12540;&#12473;</title><defs/><g><text fill="#000000" font-family="sans-serif" font-size="14" font-weight="bold" lengthAdjust="spacing" textLength="153.9993" x="270.9776" y="27.9951">&#38651;&#23376;&#24037;&#20316;&#12398;&#12486;&#12473;&#12488;&#12465;&#12540;&#12473;</text><rect fill="none" height="77.3984" style="stroke:#000000;stroke-width:1.5;" width="583.9548" x="10" y="443.7891"/><g><title>User</title><rect fill="#000000" fill-opacity="0.00000" height="550.125" width="8" x="34.9551" y="118.5938"/><line style="stroke:#181818;stroke-width:0.5;stroke-dasharray:5.0,5.0;" x1="38" x2="38" y1="118.5938" y2="668.7188"/></g><g><title>&#28310;&#20633;&#12501;&#12455;&#12540;&#12474;</title><rect fill="#000000" fill-opacity="0.00000" height="550.125" width="8" x="422.9554" y="118.5938"/><line style="stroke:#181818;stroke-width:0.5;stroke-dasharray:5.0,5.0;" x1="425.9556" x2="425.9556" y1="118.5938" y2="668.7188"/></g><g><title>&#23455;&#39443;&#12501;&#12455;&#12540;&#12474;</title><rect fill="#000000" fill-opacity="0.00000" height="550.125" width="8" x="530.955" y="118.5938"/><line style="stroke:#181818;stroke-width:0.5;stroke-dasharray:5.0,5.0;" x1="533.9552" x2="533.9552" y1="118.5938" y2="668.7188"/></g><g><title>&#24540;&#29992;&#12501;&#12455;&#12540;&#12474;</title><rect fill="#000000" fill-opacity="0.00000" height="550.125" width="8" x="638.9547" y="118.5938"/><line style="stroke:#181818;stroke-width:0.5;stroke-dasharray:5.0,5.0;" x1="641.9548" x2="641.9548" y1="118.5938" y2="668.7188"/></g><g class="participant participant-head" data-participant="User"><text fill="#000000" font-family="sans-serif" font-size="14" lengthAdjust="spacing" textLength="31.9102" x="20" y="115.292">User</text><ellipse cx="38.9551" cy="50.7969" fill="#E2E2F0" rx="8" ry="8" style="stroke:#181818;stroke-width:0.5;"/><path d="M38.9551,58.7969 L38.9551,85.7969 M25.9551,66.7969 L51.9551,66.7969 M38.9551,85.7969 L25.9551,100.7969 M38.9551,85.7969 L51.9551,100.7969" fill="none" style="stroke:#181818;stroke-width:0.5;"/></g><g class="participant participant-tail" data-participant="User"><text fill="#000000" font-family="sans-serif" font-size="14" lengthAdjust="spacing" textLength="31.9102" x="20" y="680.7139">User</text><ellipse cx="38.9551" cy="692.5156" fill="#E2E2F0" rx="8" ry="8" style="stroke:#181818;stroke-width:0.5;"/><path d="M38.9551,700.5156 L38.9551,727.5156 M25.9551,708.5156 L51.9551,708.5156 M38.9551,727.5156 L25.9551,742.5156 M38.9551,727.5156 L51.9551,742.5156" fill="none" style="stroke:#181818;stroke-width:0.5;"/></g><g class="participant participant-head" data-participant="Prep"><rect fill="#E2E2F0" height="30.2969" rx="2.5" ry="2.5" style="stroke:#181818;stroke-width:0.5;" width="97.9996" x="377.9556" y="87.2969"/><text fill="#000000" font-family="sans-serif" font-size="14" lengthAdjust="spacing" textLength="83.9996" x="384.9556" y="107.292">&#28310;&#20633;&#12501;&#12455;&#12540;&#12474;</text></g><g class="participant participant-tail" data-participant="Prep"><rect fill="#E2E2F0" height="30.2969" rx="2.5" ry="2.5" style="stroke:#181818;stroke-width:0.5;" width="97.9996" x="377.9556" y="667.7188"/><text fill="#000000" font-family="sans-serif" font-size="14" lengthAdjust="spacing" textLength="83.9996" x="384.9556" y="687.7139">&#28310;&#20633;&#12501;&#12455;&#12540;&#12474;</text></g><g class="participant participant-head" data-participant="Experiment"><rect fill="#E2E2F0" height="30.2969" rx="2.5" ry="2.5" style="stroke:#181818;stroke-width:0.5;" width="97.9996" x="485.9552" y="87.2969"/><text fill="#000000" font-family="sans-serif" font-size="14" lengthAdjust="spacing" textLength="83.9996" x="492.9552" y="107.292">&#23455;&#39443;&#12501;&#12455;&#12540;&#12474;</text></g><g class="participant participant-tail" data-participant="Experiment"><rect fill="#E2E2F0" height="30.2969" rx="2.5" ry="2.5" style="stroke:#181818;stroke-width:0.5;" width="97.9996" x="485.9552" y="667.7188"/><text fill="#000000" font-family="sans-serif" font-size="14" lengthAdjust="spacing" textLength="83.9996" x="492.9552" y="687.7139">&#23455;&#39443;&#12501;&#12455;&#12540;&#12474;</text></g><g class="participant participant-head" data-participant="Apply"><rect fill="#E2E2F0" height="30.2969" rx="2.5" ry="2.5" style="stroke:#181818;stroke-width:0.5;" width="97.9996" x="593.9548" y="87.2969"/><text fill="#000000" font-family="sans-serif" font-size="14" lengthAdjust="spacing" textLength="83.9996" x="600.9548" y="107.292">&#24540;&#29992;&#12501;&#12455;&#12540;&#12474;</text></g><g class="participant participant-tail" data-participant="Apply"><rect fill="#E2E2F0" height="30.2969" rx="2.5" ry="2.5" style="stroke:#181818;stroke-width:0.5;" width="97.9996" x="593.9548" y="667.7188"/><text fill="#000000" font-family="sans-serif" font-size="14" lengthAdjust="spacing" textLength="83.9996" x="600.9548" y="687.7139">&#24540;&#29992;&#12501;&#12455;&#12540;&#12474;</text></g><rect fill="#EEEEEE" height="3" style="stroke:#EEEEEE;stroke-width:1;" width="696.9545" x="0" y="149.1602"/><line style="stroke:#000000;stroke-width:1;" x1="0" x2="696.9545" y1="149.1602" y2="149.1602"/><line style="stroke:#000000;stroke-width:1;" x1="0" x2="696.9545" y1="152.1602" y2="152.1602"/><rect fill="#EEEEEE" height="23.1328" style="stroke:#000000;stroke-width:2;" width="44.5259" x="326.2143" y="138.5938"/><text fill="#000000" font-family="sans-serif" font-size="13" font-weight="bold" lengthAdjust="spacing" textLength="26" x="332.2143" y="154.6606">&#28310;&#20633;</text><g class="message" data-participant-1="User" data-participant-2="Prep"><polygon fill="#181818" points="414.9554,188.8594,424.9554,192.8594,414.9554,196.8594,418.9554,192.8594" style="stroke:#181818;stroke-width:1;"/><line style="stroke:#181818;stroke-width:1;" x1="38.9551" x2="420.9554" y1="192.8594" y2="192.8594"/><text fill="#000000" font-family="sans-serif" font-size="13" lengthAdjust="spacing" textLength="364.0003" x="45.9551" y="187.7935">&#24517;&#35201;&#12394;&#36947;&#20855;&#12434;&#28310;&#20633;&#65288;&#12399;&#12435;&#12384;&#12372;&#12390;&#12289;&#12486;&#12473;&#12479;&#12540;&#12289;&#12502;&#12524;&#12483;&#12489;&#12508;&#12540;&#12489;&#65289;</text></g><path d="M431,205.8594 L431,230.8594 L682,230.8594 L682,215.8594 L672,205.8594 L431,205.8594" fill="#FEFFDD" style="stroke:#181818;stroke-width:0.5;"/><path d="M672,205.8594 L672,215.8594 L682,215.8594 L672,205.8594" fill="#FEFFDD" style="stroke:#181818;stroke-width:0.5;"/><text fill="#000000" font-family="sans-serif" font-size="13" lengthAdjust="spacing" textLength="230.4328" x="437" y="222.9263">&#12399;&#12435;&#12384;&#12372;&#12390;&#12475;&#12483;&#12488;&#65288;1,500&#12316;3,000&#20870;&#65289;</text><path d="M431,240.9922 L431,265.9922 L630,265.9922 L630,250.9922 L620,240.9922 L431,240.9922" fill="#FEFFDD" style="stroke:#181818;stroke-width:0.5;"/><path d="M620,240.9922 L620,250.9922 L630,250.9922 L620,240.9922" fill="#FEFFDD" style="stroke:#181818;stroke-width:0.5;"/><text fill="#000000" font-family="sans-serif" font-size="13" lengthAdjust="spacing" textLength="178.4327" x="437" y="258.0591">&#12486;&#12473;&#12479;&#12540;&#65288;1,000&#12316;2,000&#20870;&#65289;</text><path d="M431,276.125 L431,301.125 L657,301.125 L657,286.125 L647,276.125 L431,276.125" fill="#FEFFDD" style="stroke:#181818;stroke-width:0.5;"/><path d="M647,276.125 L647,286.125 L657,286.125 L647,276.125" fill="#FEFFDD" style="stroke:#181818;stroke-width:0.5;"/><text fill="#000000" font-family="sans-serif" font-size="13" lengthAdjust="spacing" textLength="205.0295" x="437" y="293.1919">&#12502;&#12524;&#12483;&#12489;&#12508;&#12540;&#12489;&#65288;500&#12316;1,000&#20870;&#65289;</text><g class="message" data-participant-1="User" data-participant-2="Prep"><polygon fill="#181818" points="414.9554,323.3906,424.9554,327.3906,414.9554,331.3906,418.9554,327.3906" style="stroke:#181818;stroke-width:1;"/><line style="stroke:#181818;stroke-width:1;" x1="38.9551" x2="420.9554" y1="327.3906" y2="327.3906"/><text fill="#000000" font-family="sans-serif" font-size="13" lengthAdjust="spacing" textLength="260.0003" x="45.9551" y="322.3247">&#38651;&#27671;&#22238;&#36335;&#12398;&#22522;&#26412;&#12434;&#23398;&#12406;&#65288;&#38651;&#22311;&#12289;&#38651;&#27969;&#12289;&#25269;&#25239;&#65289;</text></g><rect fill="#EEEEEE" height="3" style="stroke:#EEEEEE;stroke-width:1;" width="696.9545" x="0" y="355.957"/><line style="stroke:#000000;stroke-width:1;" x1="0" x2="696.9545" y1="355.957" y2="355.957"/><line style="stroke:#000000;stroke-width:1;" x1="0" x2="696.9545" y1="358.957" y2="358.957"/><rect fill="#EEEEEE" height="23.1328" style="stroke:#000000;stroke-width:2;" width="44.5259" x="326.2143" y="345.3906"/><text fill="#000000" font-family="sans-serif" font-size="13" font-weight="bold" lengthAdjust="spacing" textLength="26" x="332.2143" y="361.4575">&#23455;&#39443;</text><g class="message" data-participant-1="User" data-participant-2="Experiment"><polygon fill="#181818" points="522.955,395.6563,532.955,399.6563,522.955,403.6563,526.955,399.6563" style="stroke:#181818;stroke-width:1;"/><line style="stroke:#181818;stroke-width:1;" x1="38.9551" x2="528.955" y1="399.6563" y2="399.6563"/><text fill="#000000" font-family="sans-serif" font-size="13" lengthAdjust="spacing" textLength="116.4669" x="45.9551" y="394.5903">LED&#28857;&#28783;&#22238;&#36335;&#12434;&#20316;&#25104;</text></g><g class="message" data-participant-1="User" data-participant-2="Experiment"><polygon fill="#181818" points="522.955,424.7891,532.955,428.7891,522.955,432.7891,526.955,428.7891" style="stroke:#181818;stroke-width:1;"/><line style="stroke:#181818;stroke-width:1;" x1="38.9551" x2="528.955" y1="428.7891" y2="428.7891"/><text fill="#000000" font-family="sans-serif" font-size="13" lengthAdjust="spacing" textLength="91.0001" x="45.9551" y="423.7231">&#22238;&#36335;&#12398;&#21205;&#20316;&#30906;&#35469;</text></g><path d="M10,443.7891 L74.4429,443.7891 L74.4429,450.9219 L64.4429,460.9219 L10,460.9219 L10,443.7891" fill="#EEEEEE" style="stroke:#000000;stroke-width:1.5;"/><rect fill="none" height="77.3984" style="stroke:#000000;stroke-width:1.5;" width="583.9548" x="10" y="443.7891"/><text fill="#000000" font-family="sans-serif" font-size="13" font-weight="bold" lengthAdjust="spacing" textLength="19.4429" x="25" y="456.856">alt</text><text fill="#000000" font-family="sans-serif" font-size="11" font-weight="bold" lengthAdjust="spacing" textLength="87.0542" x="89.4429" y="455.9995">[&#22238;&#36335;&#12364;&#21205;&#20316;&#12377;&#12427;]</text><g class="message" data-participant-1="User" data-participant-2="Experiment"><polygon fill="#181818" points="522.955,478.0547,532.955,482.0547,522.955,486.0547,526.955,482.0547" style="stroke:#181818;stroke-width:1;"/><line style="stroke:#181818;stroke-width:1;" x1="38.9551" x2="528.955" y1="482.0547" y2="482.0547"/><text fill="#000000" font-family="sans-serif" font-size="13" lengthAdjust="spacing" textLength="65.0001" x="45.9551" y="476.9888">&#21407;&#29702;&#12434;&#30906;&#35469;</text></g><line style="stroke:#000000;stroke-width:1;stroke-dasharray:2.0,2.0;" x1="10" x2="593.9548" y1="491.0547" y2="491.0547"/><g class="message" data-participant-1="User" data-participant-2="Experiment"><polygon fill="#181818" points="522.955,509.1875,532.955,513.1875,522.955,517.1875,526.955,513.1875" style="stroke:#181818;stroke-width:1;"/><line style="stroke:#181818;stroke-width:1;" x1="38.9551" x2="528.955" y1="513.1875" y2="513.1875"/><text fill="#000000" font-family="sans-serif" font-size="13" lengthAdjust="spacing" textLength="117.0001" x="45.9551" y="508.1216">&#37197;&#32218;&#12420;&#37096;&#21697;&#12434;&#20877;&#30906;&#35469;</text></g><rect fill="#EEEEEE" height="3" style="stroke:#EEEEEE;stroke-width:1;" width="696.9545" x="0" y="548.7539"/><line style="stroke:#000000;stroke-width:1;" x1="0" x2="696.9545" y1="548.7539" y2="548.7539"/><line style="stroke:#000000;stroke-width:1;" x1="0" x2="696.9545" y1="551.7539" y2="551.7539"/><rect fill="#EEEEEE" height="23.1328" style="stroke:#000000;stroke-width:2;" width="44.5259" x="326.2143" y="538.1875"/><text fill="#000000" font-family="sans-serif" font-size="13" font-weight="bold" lengthAdjust="spacing" textLength="26" x="332.2143" y="554.2544">&#24540;&#29992;</text><g class="message" data-participant-1="User" data-participant-2="Apply"><polygon fill="#181818" points="630.9547,588.4531,640.9547,592.4531,630.9547,596.4531,634.9547,592.4531" style="stroke:#181818;stroke-width:1;"/><line style="stroke:#181818;stroke-width:1;" x1="38.9551" x2="636.9547" y1="592.4531" y2="592.4531"/><text fill="#000000" font-family="sans-serif" font-size="13" lengthAdjust="spacing" textLength="104.0001" x="45.9551" y="587.3872">&#26032;&#12375;&#12356;&#22238;&#36335;&#12434;&#20316;&#25104;</text></g><g class="message" data-participant-1="User" data-participant-2="Apply"><polygon fill="#181818" points="630.9547,617.5859,640.9547,621.5859,630.9547,625.5859,634.9547,621.5859" style="stroke:#181818;stroke-width:1;"/><line style="stroke:#181818;stroke-width:1;" x1="38.9551" x2="636.9547" y1="621.5859" y2="621.5859"/><text fill="#000000" font-family="sans-serif" font-size="13" lengthAdjust="spacing" textLength="260.0003" x="45.9551" y="616.52">&#12514;&#12540;&#12479;&#12540;&#12420;&#12475;&#12531;&#12469;&#12540;&#12434;&#20351;&#12387;&#12383;&#24540;&#29992;&#22238;&#36335;&#12398;&#27083;&#31689;</text></g><g class="message" data-participant-1="User" data-participant-2="Apply"><polygon fill="#181818" points="630.9547,646.7188,640.9547,650.7188,630.9547,654.7188,634.9547,650.7188" style="stroke:#181818;stroke-width:1;"/><line style="stroke:#181818;stroke-width:1;" x1="38.9551" x2="636.9547" y1="650.7188" y2="650.7188"/><text fill="#000000" font-family="sans-serif" font-size="13" lengthAdjust="spacing" textLength="104.0001" x="45.9551" y="645.6528">&#20462;&#29702;&#12539;&#24540;&#29992;&#12398;&#25361;&#25126;</text></g><!--SRC=[XLDDRn916BxFhvZqN9Ejnei99YRsvi6BFs1JLzq4ORFiGM-T6I1BAGQXXTHknDG8f6cXnY0fOFR7l9rPzjI_uCmijCX7lCtiF1_lnxEUxQKj79-E-MML3t_S_0c0z80LWLu3yu7-13QHPuJCFI_hubSvoqN8CLtFthCTC-FXBJ5gS7e2x1XeHuD7MzZCuPUkvVmBvBrMtAsl07S_E9PhlxSotX8y3AAZxWhycUEaFoAKIk746ATII5M57ppLdlW9vc5XsYP0pcDIvuKXq5e2lPtuGFf0wq2-0Ja2qePzCkkLXif3NHl0Be0nO2LWWVh8IhUJ4ifaFGkxzjjt7iw-cJijoz6nPlhIQMVxiM70Vl1esp0CNYnkrbWeGFCCpNluVzxQIlt4TcU1lZGUkMnnrUIdNwV3lbmsRur4S267n2_RG7vB1PM6e2E7eP038W_YO20EcafB3JvPvEBWxtSezL_iFe_eTKJwCmjQawaIVdKz-hwEyh74HMUZwNa5cMdlxkKmUG5o0hICC5ulywaLLUKWQpC1AvspDc7ZGYKQVW6QZrcNrubglLYPypAlanvr-XPxrC6JRD6u0j84aj_KtXm8x4pdLYUBvdKuVW4TwAiaXK2-0sabJdTZ49ror2-jYDs4FTKV6yz-2may_2pyzby0]--></g></svg>