<svg xmlns="http://www.w3.org/2000/svg" xmlns:xlink="http://www.w3.org/1999/xlink" contentStyleType="text/css" data-diagram-type="SEQUENCE" height="628px" preserveAspectRatio="none" style="width:589px;height:628px;background:#FFFFFF;" version="1.1" viewBox="0 0 589 628" width="589px" zoomAndPan="magnify"><defs/><g><g><title>fukai</title><rect fill="#000000" fill-opacity="0.00000" height="466.8594" width="8" x="25.189" y="81.2969"/><line style="stroke:#181818;stroke-width:0.5;stroke-dasharray:5.0,5.0;" x1="29" x2="29" y1="81.2969" y2="548.1563"/></g><g><title>&#33258;&#20998;</title><rect fill="#000000" fill-opacity="0.00000" height="466.8594" width="8" x="298.9058" y="81.2969"/><line style="stroke:#181818;stroke-width:0.5;stroke-dasharray:5.0,5.0;" x1="301.9058" x2="301.9058" y1="81.2969" y2="548.1563"/></g><g><title>kaiteki</title><rect fill="#000000" fill-opacity="0.00000" height="466.8594" width="8" x="542.9917" y="81.2969"/><line style="stroke:#181818;stroke-width:0.5;stroke-dasharray:5.0,5.0;" x1="546.6538" x2="546.6538" y1="81.2969" y2="548.1563"/></g><g class="participant participant-head" data-participant="fukai"><rect fill="#E2E2F0" height="30.2969" rx="2.5" ry="2.5" style="stroke:#181818;stroke-width:0.5;" width="48.3779" x="5" y="50"/><text fill="#000000" font-family="sans-serif" font-size="14" lengthAdjust="spacing" textLength="34.3779" x="12" y="69.9951">fukai</text></g><g class="participant participant-tail" data-participant="fukai"><rect fill="#E2E2F0" height="30.2969" rx="2.5" ry="2.5" style="stroke:#181818;stroke-width:0.5;" width="48.3779" x="5" y="547.1563"/><text fill="#000000" font-family="sans-serif" font-size="14" lengthAdjust="spacing" textLength="34.3779" x="12" y="567.1514">fukai</text></g><g class="participant participant-head" data-participant="self"><text fill="#000000" font-family="sans-serif" font-size="14" lengthAdjust="spacing" textLength="27.9999" x="285.9058" y="77.9951">&#33258;&#20998;</text><ellipse cx="302.9058" cy="13.5" fill="#E2E2F0" rx="8" ry="8" style="stroke:#181818;stroke-width:0.5;"/><path d="M302.9058,21.5 L302.9058,48.5 M289.9058,29.5 L315.9058,29.5 M302.9058,48.5 L289.9058,63.5 M302.9058,48.5 L315.9058,63.5" fill="none" style="stroke:#181818;stroke-width:0.5;"/></g><g class="participant participant-tail" data-participant="self"><text fill="#000000" font-family="sans-serif" font-size="14" lengthAdjust="spacing" textLength="27.9999" x="285.9058" y="560.1514">&#33258;&#20998;</text><ellipse cx="302.9058" cy="571.9531" fill="#E2E2F0" rx="8" ry="8" style="stroke:#181818;stroke-width:0.5;"/><path d="M302.9058,579.9531 L302.9058,606.9531 M289.9058,587.9531 L315.9058,587.9531 M302.9058,606.9531 L289.9058,621.9531 M302.9058,606.9531 L315.9058,621.9531" fill="none" style="stroke:#181818;stroke-width:0.5;"/></g><g class="participant participant-head" data-participant="kaiteki"><rect fill="#E2E2F0" height="30.2969" rx="2.5" ry="2.5" style="stroke:#181818;stroke-width:0.5;" width="60.6758" x="516.6538" y="50"/><text fill="#000000" font-family="sans-serif" font-size="14" lengthAdjust="spacing" textLength="46.6758" x="523.6538" y="69.9951">kaiteki</text></g><g class="participant participant-tail" data-participant="kaiteki"><rect fill="#E2E2F0" height="30.2969" rx="2.5" ry="2.5" style="stroke:#181818;stroke-width:0.5;" width="60.6758" x="516.6538" y="547.1563"/><text fill="#000000" font-family="sans-serif" font-size="14" lengthAdjust="spacing" textLength="46.6758" x="523.6538" y="567.1514">kaiteki</text></g><rect fill="#EEEEEE" height="3" style="stroke:#EEEEEE;stroke-width:1;" width="582.3296" x="0" y="111.8633"/><line style="stroke:#000000;stroke-width:1;" x1="0" x2="582.3296" y1="111.8633" y2="111.8633"/><line style="stroke:#000000;stroke-width:1;" x1="0" x2="582.3296" y1="114.8633" y2="114.8633"/><rect fill="#EEEEEE" height="23.1328" style="stroke:#000000;stroke-width:2;" width="55.9199" x="263.2048" y="101.2969"/><text fill="#000000" font-family="sans-serif" font-size="13" font-weight="bold" lengthAdjust="spacing" textLength="37.394" x="269.2048" y="117.3638">meet</text><g class="message" data-participant-1="fukai" data-participant-2="self"><polygon fill="#181818" points="290.9058,151.5625,300.9058,155.5625,290.9058,159.5625,294.9058,155.5625" style="stroke:#181818;stroke-width:1;"/><line style="stroke:#181818;stroke-width:1;" x1="29.189" x2="296.9058" y1="155.5625" y2="155.5625"/><text fill="#000000" font-family="sans-serif" font-size="13" lengthAdjust="spacing" textLength="216.5566" x="36.189" y="150.4966">tipa,kuso,wakewakaran yokomoji</text></g><g class="message" data-participant-1="fukai" data-participant-2="self"><polygon fill="#181818" points="290.9058,210.9609,300.9058,214.9609,290.9058,218.9609,294.9058,214.9609" style="stroke:#181818;stroke-width:1;"/><line style="stroke:#181818;stroke-width:1;" x1="29.189" x2="296.9058" y1="214.9609" y2="214.9609"/><text fill="#000000" font-family="sans-serif" font-size="13" lengthAdjust="spacing" textLength="164.1377" x="36.189" y="179.6294">youtube de ironna douga</text><text fill="#000000" font-family="sans-serif" font-size="13" lengthAdjust="spacing" textLength="245.5845" x="40.3213" y="194.7622">miteruto yokomozi wo futuuni muisiki</text><text fill="#000000" font-family="sans-serif" font-size="13" lengthAdjust="spacing" textLength="72.4585" x="40.3213" y="209.895">nitukatteru</text></g><g class="message" data-participant-1="kaiteki" data-participant-2="self"><polygon fill="#181818" points="313.9058,255.2266,303.9058,259.2266,313.9058,263.2266,309.9058,259.2266" style="stroke:#181818;stroke-width:1;"/><line style="stroke:#181818;stroke-width:1;" x1="307.9058" x2="545.9917" y1="259.2266" y2="259.2266"/><text fill="#000000" font-family="sans-serif" font-size="13" lengthAdjust="spacing" textLength="191.9595" x="319.9058" y="239.0278">zibun to dousedai ka soreyori</text><text fill="#000000" font-family="sans-serif" font-size="13" lengthAdjust="spacing" textLength="215.9536" x="324.0381" y="254.1606">uenosedaikaraha amarikannzinai</text></g><rect fill="#EEEEEE" height="3" style="stroke:#EEEEEE;stroke-width:1;" width="582.3296" x="0" y="287.793"/><line style="stroke:#000000;stroke-width:1;" x1="0" x2="582.3296" y1="287.793" y2="287.793"/><line style="stroke:#000000;stroke-width:1;" x1="0" x2="582.3296" y1="290.793" y2="290.793"/><rect fill="#EEEEEE" height="23.1328" style="stroke:#000000;stroke-width:2;" width="50.4038" x="265.9629" y="277.2266"/><text fill="#000000" font-family="sans-serif" font-size="13" font-weight="bold" lengthAdjust="spacing" textLength="31.8779" x="271.9629" y="293.2935">seiri</text><g class="message" data-participant-1="self" data-participant-2="self"><line style="stroke:#181818;stroke-width:1;" x1="302.9058" x2="344.9058" y1="331.4922" y2="331.4922"/><line style="stroke:#181818;stroke-width:1;" x1="344.9058" x2="344.9058" y1="331.4922" y2="344.4922"/><line style="stroke:#181818;stroke-width:1;" x1="303.9058" x2="344.9058" y1="344.4922" y2="344.4922"/><polygon fill="#181818" points="313.9058,340.4922,303.9058,344.4922,313.9058,348.4922,309.9058,344.4922" style="stroke:#181818;stroke-width:1;"/><text fill="#000000" font-family="sans-serif" font-size="13" lengthAdjust="spacing" textLength="144.4473" x="309.9058" y="326.4263">nihongo taisetuni sitai</text></g><g class="message" data-participant-1="self" data-participant-2="self"><line style="stroke:#181818;stroke-width:1;" x1="302.9058" x2="344.9058" y1="373.625" y2="373.625"/><line style="stroke:#181818;stroke-width:1;" x1="344.9058" x2="344.9058" y1="373.625" y2="386.625"/><line style="stroke:#181818;stroke-width:1;" x1="303.9058" x2="344.9058" y1="386.625" y2="386.625"/><polygon fill="#181818" points="313.9058,382.625,303.9058,386.625,313.9058,390.625,309.9058,386.625" style="stroke:#181818;stroke-width:1;"/><text fill="#000000" font-family="sans-serif" font-size="13" lengthAdjust="spacing" textLength="151.4424" x="309.9058" y="368.5591">naze fukai ninarunoka?</text></g><g class="message" data-participant-1="self" data-participant-2="self"><line style="stroke:#181818;stroke-width:1;" x1="302.9058" x2="344.9058" y1="415.7578" y2="415.7578"/><line style="stroke:#181818;stroke-width:1;" x1="344.9058" x2="344.9058" y1="415.7578" y2="428.7578"/><line style="stroke:#181818;stroke-width:1;" x1="303.9058" x2="344.9058" y1="428.7578" y2="428.7578"/><polygon fill="#181818" points="313.9058,424.7578,303.9058,428.7578,313.9058,432.7578,309.9058,428.7578" style="stroke:#181818;stroke-width:1;"/><text fill="#000000" font-family="sans-serif" font-size="13" lengthAdjust="spacing" textLength="122.1479" x="309.9058" y="410.6919">zidaini tuiteikenai?</text></g><rect fill="#EEEEEE" height="3" style="stroke:#EEEEEE;stroke-width:1;" width="582.3296" x="0" y="457.3242"/><line style="stroke:#000000;stroke-width:1;" x1="0" x2="582.3296" y1="457.3242" y2="457.3242"/><line style="stroke:#000000;stroke-width:1;" x1="0" x2="582.3296" y1="460.3242" y2="460.3242"/><rect fill="#EEEEEE" height="23.1328" style="stroke:#000000;stroke-width:2;" width="72.3794" x="254.9751" y="446.7578"/><text fill="#000000" font-family="sans-serif" font-size="13" font-weight="bold" lengthAdjust="spacing" textLength="53.8535" x="260.9751" y="462.8247">taisaku</text><g class="message" data-participant-1="self" data-participant-2="fukai"><polygon fill="#181818" points="40.189,497.0234,30.189,501.0234,40.189,505.0234,36.189,501.0234" style="stroke:#181818;stroke-width:1;"/><line style="stroke:#181818;stroke-width:1;" x1="34.189" x2="301.9058" y1="501.0234" y2="501.0234"/><text fill="#000000" font-family="sans-serif" font-size="13" lengthAdjust="spacing" textLength="53.1934" x="46.189" y="495.9575">kinisinai</text></g><g class="message" data-participant-1="self" data-participant-2="kaiteki"><polygon fill="#181818" points="534.9917,526.1563,544.9917,530.1563,534.9917,534.1563,538.9917,530.1563" style="stroke:#181818;stroke-width:1;"/><line style="stroke:#181818;stroke-width:1;" x1="302.9058" x2="540.9917" y1="530.1563" y2="530.1563"/><text fill="#000000" font-family="sans-serif" font-size="13" lengthAdjust="spacing" textLength="174.5796" x="309.9058" y="525.0903">kaitekina douga sika minai</text></g><!--SRC=[PP2_IWD14CRxUuhfRE8B169Un6QIR99nlPsmVmYvBWQYGIHWQMKbgA25XI81tyNpm5I-WdEREqDCiJ3iVDzllfa3A5xlykbbVhOebY_vz6bzEo_Ubp-hcw-tg-BZCPyzvxDLFbl0v_mQliyVYejvBAMtdjx_jPCHMazT6g7nq0yQ2T1jYWIxdctjbL-dJlixUX5vfQEZAfEarO9KAG-jLf9iU8T7qGbDy69hwE2uCKQjvA550nFMdF89xSad77peAEWf8Cl68FGu3F3OG2h3RF1SUJE2CKje7u8XI0CvqYGoGrwGljGcTTOjFgDEC20GeJhLaz4QmR5L4xQbEoZ3yR-CEKJ05AtKncHaSBEfKsGfhXgPMxQX8Pi1WqToofUf74cz9yDCLLSt0hN1iCRsVrL64a8GFiWAf9LCRyVn9Hrrs0aGQKtGOd0nPzse3j2iY_gSaapsJaljBm00]--></g></svg>