<svg xmlns="http://www.w3.org/2000/svg" xmlns:xlink="http://www.w3.org/1999/xlink" contentStyleType="text/css" data-diagram-type="SEQUENCE" height="586px" preserveAspectRatio="none" style="width:495px;height:586px;background:#FFFFFF;" version="1.1" viewBox="0 0 495 586" width="495px" zoomAndPan="magnify"><defs/><g><g><title>fukai</title><rect fill="#000000" fill-opacity="0.00000" height="424.7266" width="8" x="25.189" y="81.2969"/><line style="stroke:#181818;stroke-width:0.5;stroke-dasharray:5.0,5.0;" x1="29" x2="29" y1="81.2969" y2="506.0234"/></g><g><title>&#33258;&#20998;</title><rect fill="#000000" fill-opacity="0.00000" height="424.7266" width="8" x="205.1891" y="81.2969"/><line style="stroke:#181818;stroke-width:0.5;stroke-dasharray:5.0,5.0;" x1="208.1892" x2="208.1892" y1="81.2969" y2="506.0234"/></g><g><title>kaiteki</title><rect fill="#000000" fill-opacity="0.00000" height="424.7266" width="8" x="449.2751" y="81.2969"/><line style="stroke:#181818;stroke-width:0.5;stroke-dasharray:5.0,5.0;" x1="452.9372" x2="452.9372" y1="81.2969" y2="506.0234"/></g><g class="participant participant-head" data-participant="fukai"><rect fill="#E2E2F0" height="30.2969" rx="2.5" ry="2.5" style="stroke:#181818;stroke-width:0.5;" width="48.3779" x="5" y="50"/><text fill="#000000" font-family="sans-serif" font-size="14" lengthAdjust="spacing" textLength="34.3779" x="12" y="69.9951">fukai</text></g><g class="participant participant-tail" data-participant="fukai"><rect fill="#E2E2F0" height="30.2969" rx="2.5" ry="2.5" style="stroke:#181818;stroke-width:0.5;" width="48.3779" x="5" y="505.0234"/><text fill="#000000" font-family="sans-serif" font-size="14" lengthAdjust="spacing" textLength="34.3779" x="12" y="525.0186">fukai</text></g><g class="participant participant-head" data-participant="self"><text fill="#000000" font-family="sans-serif" font-size="14" lengthAdjust="spacing" textLength="27.9999" x="192.1892" y="77.9951">&#33258;&#20998;</text><ellipse cx="209.1891" cy="13.5" fill="#E2E2F0" rx="8" ry="8" style="stroke:#181818;stroke-width:0.5;"/><path d="M209.1891,21.5 L209.1891,48.5 M196.1891,29.5 L222.1891,29.5 M209.1891,48.5 L196.1891,63.5 M209.1891,48.5 L222.1891,63.5" fill="none" style="stroke:#181818;stroke-width:0.5;"/></g><g class="participant participant-tail" data-participant="self"><text fill="#000000" font-family="sans-serif" font-size="14" lengthAdjust="spacing" textLength="27.9999" x="192.1892" y="518.0186">&#33258;&#20998;</text><ellipse cx="209.1891" cy="529.8203" fill="#E2E2F0" rx="8" ry="8" style="stroke:#181818;stroke-width:0.5;"/><path d="M209.1891,537.8203 L209.1891,564.8203 M196.1891,545.8203 L222.1891,545.8203 M209.1891,564.8203 L196.1891,579.8203 M209.1891,564.8203 L222.1891,579.8203" fill="none" style="stroke:#181818;stroke-width:0.5;"/></g><g class="participant participant-head" data-participant="kaiteki"><rect fill="#E2E2F0" height="30.2969" rx="2.5" ry="2.5" style="stroke:#181818;stroke-width:0.5;" width="60.6758" x="422.9372" y="50"/><text fill="#000000" font-family="sans-serif" font-size="14" lengthAdjust="spacing" textLength="46.6758" x="429.9372" y="69.9951">kaiteki</text></g><g class="participant participant-tail" data-participant="kaiteki"><rect fill="#E2E2F0" height="30.2969" rx="2.5" ry="2.5" style="stroke:#181818;stroke-width:0.5;" width="60.6758" x="422.9372" y="505.0234"/><text fill="#000000" font-family="sans-serif" font-size="14" lengthAdjust="spacing" textLength="46.6758" x="429.9372" y="525.0186">kaiteki</text></g><rect fill="#EEEEEE" height="3" style="stroke:#EEEEEE;stroke-width:1;" width="488.613" x="0" y="111.8633"/><line style="stroke:#000000;stroke-width:1;" x1="0" x2="488.613" y1="111.8633" y2="111.8633"/><line style="stroke:#000000;stroke-width:1;" x1="0" x2="488.613" y1="114.8633" y2="114.8633"/><rect fill="#EEEEEE" height="23.1328" style="stroke:#000000;stroke-width:2;" width="55.9199" x="216.3465" y="101.2969"/><text fill="#000000" font-family="sans-serif" font-size="13" font-weight="bold" lengthAdjust="spacing" textLength="37.394" x="222.3465" y="117.3638">meet</text><g class="message" data-participant-1="fukai" data-participant-2="self"><polygon fill="#181818" points="197.1891,151.5625,207.1891,155.5625,197.1891,159.5625,201.1891,155.5625" style="stroke:#181818;stroke-width:1;"/><line style="stroke:#181818;stroke-width:1;" x1="29.189" x2="203.1891" y1="155.5625" y2="155.5625"/><text fill="#000000" font-family="sans-serif" font-size="13" lengthAdjust="spacing" textLength="50.9273" x="36.189" y="150.4966">&#12300;tipa&#12301;</text></g><g class="message" data-participant-1="fukai" data-participant-2="self"><polygon fill="#181818" points="197.1891,180.6953,207.1891,184.6953,197.1891,188.6953,201.1891,184.6953" style="stroke:#181818;stroke-width:1;"/><line style="stroke:#181818;stroke-width:1;" x1="29.189" x2="203.1891" y1="184.6953" y2="184.6953"/><text fill="#000000" font-family="sans-serif" font-size="13" lengthAdjust="spacing" textLength="56.4942" x="36.189" y="179.6294">&#12300;kuso&#12301;</text></g><g class="message" data-participant-1="kaiteki" data-participant-2="self"><polygon fill="#181818" points="220.1891,224.9609,210.1891,228.9609,220.1891,232.9609,216.1891,228.9609" style="stroke:#181818;stroke-width:1;"/><line style="stroke:#181818;stroke-width:1;" x1="214.1891" x2="452.2751" y1="228.9609" y2="228.9609"/><text fill="#000000" font-family="sans-serif" font-size="13" lengthAdjust="spacing" textLength="191.9595" x="226.1891" y="208.7622">zibun to dousedai ka soreyori</text><text fill="#000000" font-family="sans-serif" font-size="13" lengthAdjust="spacing" textLength="215.9536" x="230.3215" y="223.895">uenosedaikaraha amarikannzinai</text></g><rect fill="#EEEEEE" height="3" style="stroke:#EEEEEE;stroke-width:1;" width="488.613" x="0" y="257.5273"/><line style="stroke:#000000;stroke-width:1;" x1="0" x2="488.613" y1="257.5273" y2="257.5273"/><line style="stroke:#000000;stroke-width:1;" x1="0" x2="488.613" y1="260.5273" y2="260.5273"/><rect fill="#EEEEEE" height="23.1328" style="stroke:#000000;stroke-width:2;" width="50.4038" x="219.1046" y="246.9609"/><text fill="#000000" font-family="sans-serif" font-size="13" font-weight="bold" lengthAdjust="spacing" textLength="31.8779" x="225.1046" y="263.0278">seiri</text><g class="message" data-participant-1="self" data-participant-2="self"><line style="stroke:#181818;stroke-width:1;" x1="209.1891" x2="251.1891" y1="316.3594" y2="316.3594"/><line style="stroke:#181818;stroke-width:1;" x1="251.1891" x2="251.1891" y1="316.3594" y2="329.3594"/><line style="stroke:#181818;stroke-width:1;" x1="210.1891" x2="251.1891" y1="329.3594" y2="329.3594"/><polygon fill="#181818" points="220.1891,325.3594,210.1891,329.3594,220.1891,333.3594,216.1891,329.3594" style="stroke:#181818;stroke-width:1;"/><text fill="#000000" font-family="sans-serif" font-size="13" lengthAdjust="spacing" textLength="130.0002" x="216.1891" y="296.1606">&#26085;&#26412;&#35486;&#12434;&#22823;&#20999;&#12395;&#12375;&#12383;&#12356;</text><text fill="#000000" font-family="sans-serif" font-size="13" lengthAdjust="spacing" textLength="78.0001" x="216.1891" y="311.2935">&#33258;&#20998;&#12395;&#27671;&#12389;&#12367;</text></g><g class="message" data-participant-1="self" data-participant-2="self"><line style="stroke:#181818;stroke-width:1;" x1="209.1891" x2="251.1891" y1="358.4922" y2="358.4922"/><line style="stroke:#181818;stroke-width:1;" x1="251.1891" x2="251.1891" y1="358.4922" y2="371.4922"/><line style="stroke:#181818;stroke-width:1;" x1="210.1891" x2="251.1891" y1="371.4922" y2="371.4922"/><polygon fill="#181818" points="220.1891,367.4922,210.1891,371.4922,220.1891,375.4922,216.1891,371.4922" style="stroke:#181818;stroke-width:1;"/><text fill="#000000" font-family="sans-serif" font-size="13" lengthAdjust="spacing" textLength="169.0002" x="216.1891" y="353.4263">&#12394;&#12380;&#19981;&#24555;&#12395;&#24863;&#12376;&#12383;&#12398;&#12363;&#32771;&#12360;&#12427;</text></g><rect fill="#EEEEEE" height="3" style="stroke:#EEEEEE;stroke-width:1;" width="488.613" x="0" y="400.0586"/><line style="stroke:#000000;stroke-width:1;" x1="0" x2="488.613" y1="400.0586" y2="400.0586"/><line style="stroke:#000000;stroke-width:1;" x1="0" x2="488.613" y1="403.0586" y2="403.0586"/><rect fill="#EEEEEE" height="23.1328" style="stroke:#000000;stroke-width:2;" width="72.3794" x="208.1168" y="389.4922"/><text fill="#000000" font-family="sans-serif" font-size="13" font-weight="bold" lengthAdjust="spacing" textLength="53.8535" x="214.1168" y="405.5591">taisaku</text><g class="message" data-participant-1="self" data-participant-2="fukai"><polygon fill="#181818" points="40.189,439.7578,30.189,443.7578,40.189,447.7578,36.189,443.7578" style="stroke:#181818;stroke-width:1;"/><line style="stroke:#181818;stroke-width:1;" x1="34.189" x2="208.1891" y1="443.7578" y2="443.7578"/><text fill="#000000" font-family="sans-serif" font-size="13" lengthAdjust="spacing" textLength="156.0002" x="46.189" y="438.6919">&#21542;&#23450;&#12379;&#12378;&#29702;&#35299;&#12434;&#35430;&#12415;&#12427;&#23039;&#21218;</text></g><g class="message" data-participant-1="self" data-participant-2="fukai"><polygon fill="#181818" points="40.189,484.0234,30.189,488.0234,40.189,492.0234,36.189,488.0234" style="stroke:#181818;stroke-width:1;"/><line style="stroke:#181818;stroke-width:1;" x1="34.189" x2="208.1891" y1="488.0234" y2="488.0234"/><text fill="#000000" font-family="sans-serif" font-size="13" lengthAdjust="spacing" textLength="91.0001" x="46.189" y="467.8247">&#22810;&#27096;&#24615;&#12434;&#35469;&#12417;&#12427;</text><text fill="#000000" font-family="sans-serif" font-size="13" lengthAdjust="spacing" textLength="104.0001" x="46.189" y="482.9575">&#28961;&#29702;&#12395;&#21512;&#12431;&#12379;&#12394;&#12356;</text></g><!--SRC=[RP7DJW8n58NtynJTkV85IF19s5GOOZFI8JETXQmeJFW94WWR219_WGc3GHCN6aF2ktZjCAny1Iy59AYxctlETthQ7X7rEWRPW59TjLv0pbQt5VNU-fhtFz-QQZ65yXEKvr2kauzAXyJLKDKgUaHj9IS_if6dZc1fbgTSaAndKKQeknaCcXQsisDnwvhdsGC_ceHfQM8x6aOoINAcAKWoQHYRlECJJP84WUAbG1AApVyaotFjjRHBtOi5Tkfn8coIiJtNp21eKUBQZdbXEop5YMToM-yjwj0pIcYEEZXpNc2SRZgv9dEOBgKpzzbHTnGD7kFm6aeTDGnKhGfo2h8ByWQad-ARw-CkUiRT26JhTmB84EHW- -peyn7iQNo67nGNoo1hK6he6e8obrhUGH7z50cYscCrwuEy0jbVjYjny82DuWb-yW9f5InKu_uFC-n7GIyg1cjhs8IIH6kAB_qxJC0kgeqdjtGcTlI_0G00]--></g></svg>