<svg xmlns="http://www.w3.org/2000/svg" xmlns:xlink="http://www.w3.org/1999/xlink" contentStyleType="text/css" data-diagram-type="SEQUENCE" height="533px" preserveAspectRatio="none" style="width:589px;height:533px;background:#FFFFFF;" version="1.1" viewBox="0 0 589 533" width="589px" zoomAndPan="magnify"><defs/><g><rect fill="none" height="75.3984" style="stroke:#000000;stroke-width:1.5;" width="573.9554" x="10" y="331.3594"/><g><title>User</title><rect fill="#000000" fill-opacity="0.00000" height="371.5938" width="8" x="34.9551" y="81.2969"/><line style="stroke:#181818;stroke-width:0.5;stroke-dasharray:5.0,5.0;" x1="38" x2="38" y1="81.2969" y2="452.8906"/></g><g><title>&#27735;&#12539;&#21050;&#28608;</title><rect fill="#000000" fill-opacity="0.00000" height="371.5938" width="8" x="188.9552" y="81.2969"/><line style="stroke:#181818;stroke-width:0.5;stroke-dasharray:5.0,5.0;" x1="191.9554" x2="191.9554" y1="81.2969" y2="452.8906"/></g><g><title>&#30382;&#33178;</title><rect fill="#000000" fill-opacity="0.00000" height="371.5938" width="8" x="355.9554" y="81.2969"/><line style="stroke:#181818;stroke-width:0.5;stroke-dasharray:5.0,5.0;" x1="358.9555" x2="358.9555" y1="81.2969" y2="452.8906"/></g><g><title>&#23550;&#31574;</title><rect fill="#000000" fill-opacity="0.00000" height="371.5938" width="8" x="496.9555" y="81.2969"/><line style="stroke:#181818;stroke-width:0.5;stroke-dasharray:5.0,5.0;" x1="499.9556" x2="499.9556" y1="81.2969" y2="452.8906"/></g><g><title>&#21307;&#30274;</title><rect fill="#000000" fill-opacity="0.00000" height="371.5938" width="8" x="548.9554" y="81.2969"/><line style="stroke:#181818;stroke-width:0.5;stroke-dasharray:5.0,5.0;" x1="551.9555" x2="551.9555" y1="81.2969" y2="452.8906"/></g><g class="participant participant-head" data-participant="User"><text fill="#000000" font-family="sans-serif" font-size="14" lengthAdjust="spacing" textLength="31.9102" x="20" y="77.9951">User</text><ellipse cx="38.9551" cy="13.5" fill="#E2E2F0" rx="8" ry="8" style="stroke:#181818;stroke-width:0.5;"/><path d="M38.9551,21.5 L38.9551,48.5 M25.9551,29.5 L51.9551,29.5 M38.9551,48.5 L25.9551,63.5 M38.9551,48.5 L51.9551,63.5" fill="none" style="stroke:#181818;stroke-width:0.5;"/></g><g class="participant participant-tail" data-participant="User"><text fill="#000000" font-family="sans-serif" font-size="14" lengthAdjust="spacing" textLength="31.9102" x="20" y="464.8857">User</text><ellipse cx="38.9551" cy="476.6875" fill="#E2E2F0" rx="8" ry="8" style="stroke:#181818;stroke-width:0.5;"/><path d="M38.9551,484.6875 L38.9551,511.6875 M25.9551,492.6875 L51.9551,492.6875 M38.9551,511.6875 L25.9551,526.6875 M38.9551,511.6875 L51.9551,526.6875" fill="none" style="stroke:#181818;stroke-width:0.5;"/></g><g class="participant participant-head" data-participant="Sweat"><rect fill="#E2E2F0" height="30.2969" rx="2.5" ry="2.5" style="stroke:#181818;stroke-width:0.5;" width="69.9998" x="157.9554" y="50"/><text fill="#000000" font-family="sans-serif" font-size="14" lengthAdjust="spacing" textLength="55.9998" x="164.9554" y="69.9951">&#27735;&#12539;&#21050;&#28608;</text></g><g class="participant participant-tail" data-participant="Sweat"><rect fill="#E2E2F0" height="30.2969" rx="2.5" ry="2.5" style="stroke:#181818;stroke-width:0.5;" width="69.9998" x="157.9554" y="451.8906"/><text fill="#000000" font-family="sans-serif" font-size="14" lengthAdjust="spacing" textLength="55.9998" x="164.9554" y="471.8857">&#27735;&#12539;&#21050;&#28608;</text></g><g class="participant participant-head" data-participant="Skin"><rect fill="#E2E2F0" height="30.2969" rx="2.5" ry="2.5" style="stroke:#181818;stroke-width:0.5;" width="41.9999" x="338.9555" y="50"/><text fill="#000000" font-family="sans-serif" font-size="14" lengthAdjust="spacing" textLength="27.9999" x="345.9555" y="69.9951">&#30382;&#33178;</text></g><g class="participant participant-tail" data-participant="Skin"><rect fill="#E2E2F0" height="30.2969" rx="2.5" ry="2.5" style="stroke:#181818;stroke-width:0.5;" width="41.9999" x="338.9555" y="451.8906"/><text fill="#000000" font-family="sans-serif" font-size="14" lengthAdjust="spacing" textLength="27.9999" x="345.9555" y="471.8857">&#30382;&#33178;</text></g><g class="participant participant-head" data-participant="Measures"><rect fill="#E2E2F0" height="30.2969" rx="2.5" ry="2.5" style="stroke:#181818;stroke-width:0.5;" width="41.9999" x="479.9556" y="50"/><text fill="#000000" font-family="sans-serif" font-size="14" lengthAdjust="spacing" textLength="27.9999" x="486.9556" y="69.9951">&#23550;&#31574;</text></g><g class="participant participant-tail" data-participant="Measures"><rect fill="#E2E2F0" height="30.2969" rx="2.5" ry="2.5" style="stroke:#181818;stroke-width:0.5;" width="41.9999" x="479.9556" y="451.8906"/><text fill="#000000" font-family="sans-serif" font-size="14" lengthAdjust="spacing" textLength="27.9999" x="486.9556" y="471.8857">&#23550;&#31574;</text></g><g class="participant participant-head" data-participant="Medical"><rect fill="#E2E2F0" height="30.2969" rx="2.5" ry="2.5" style="stroke:#181818;stroke-width:0.5;" width="41.9999" x="531.9555" y="50"/><text fill="#000000" font-family="sans-serif" font-size="14" lengthAdjust="spacing" textLength="27.9999" x="538.9555" y="69.9951">&#21307;&#30274;</text></g><g class="participant participant-tail" data-participant="Medical"><rect fill="#E2E2F0" height="30.2969" rx="2.5" ry="2.5" style="stroke:#181818;stroke-width:0.5;" width="41.9999" x="531.9555" y="451.8906"/><text fill="#000000" font-family="sans-serif" font-size="14" lengthAdjust="spacing" textLength="27.9999" x="538.9555" y="471.8857">&#21307;&#30274;</text></g><g class="message" data-participant-1="User" data-participant-2="Sweat"><polygon fill="#181818" points="180.9552,108.4297,190.9552,112.4297,180.9552,116.4297,184.9552,112.4297" style="stroke:#181818;stroke-width:1;"/><line style="stroke:#181818;stroke-width:1;" x1="38.9551" x2="186.9552" y1="112.4297" y2="112.4297"/><text fill="#000000" font-family="sans-serif" font-size="13" lengthAdjust="spacing" textLength="130.0002" x="45.9551" y="107.3638">&#26257;&#12373;&#12539;&#36939;&#21205;&#12391;&#27735;&#12364;&#20986;&#12427;</text></g><g class="message" data-participant-1="Sweat" data-participant-2="Skin"><polygon fill="#181818" points="347.9554,137.5625,357.9554,141.5625,347.9554,145.5625,351.9554,141.5625" style="stroke:#181818;stroke-width:1;"/><line style="stroke:#181818;stroke-width:1;" x1="192.9552" x2="353.9554" y1="141.5625" y2="141.5625"/><text fill="#000000" font-family="sans-serif" font-size="13" lengthAdjust="spacing" textLength="143.0002" x="199.9552" y="136.4966">&#27735;&#12364;&#12383;&#12414;&#12427;&#12539;&#21050;&#28608;&#12395;&#12394;&#12427;</text></g><g class="message" data-participant-1="Skin" data-participant-2="User"><polygon fill="#181818" points="49.9551,166.6953,39.9551,170.6953,49.9551,174.6953,45.9551,170.6953" style="stroke:#181818;stroke-width:1;"/><line style="stroke:#181818;stroke-width:1;" x1="43.9551" x2="358.9554" y1="170.6953" y2="170.6953"/><text fill="#000000" font-family="sans-serif" font-size="13" lengthAdjust="spacing" textLength="143.0002" x="55.9551" y="165.6294">&#12363;&#12422;&#12415;&#12539;&#12498;&#12522;&#12498;&#12522;&#12539;&#36196;&#12415;</text></g><g class="message" data-participant-1="User" data-participant-2="Measures"><polygon fill="#181818" points="488.9555,195.8281,498.9555,199.8281,488.9555,203.8281,492.9555,199.8281" style="stroke:#181818;stroke-width:1;"/><line style="stroke:#181818;stroke-width:1;" x1="38.9551" x2="494.9555" y1="199.8281" y2="199.8281"/><text fill="#000000" font-family="sans-serif" font-size="13" lengthAdjust="spacing" textLength="156.0002" x="45.9551" y="194.7622">&#12371;&#12414;&#12417;&#12395;&#25325;&#12367;&#65288;&#25276;&#12373;&#12360;&#12427;&#65289;</text></g><g class="message" data-participant-1="User" data-participant-2="Measures"><polygon fill="#181818" points="488.9555,224.9609,498.9555,228.9609,488.9555,232.9609,492.9555,228.9609" style="stroke:#181818;stroke-width:1;"/><line style="stroke:#181818;stroke-width:1;" x1="38.9551" x2="494.9555" y1="228.9609" y2="228.9609"/><text fill="#000000" font-family="sans-serif" font-size="13" lengthAdjust="spacing" textLength="130.0002" x="45.9551" y="223.895">&#12396;&#12427;&#12414;&#28271;&#12391;&#27927;&#38996;&#12539;&#20445;&#28287;</text></g><g class="message" data-participant-1="User" data-participant-2="Measures"><polygon fill="#181818" points="488.9555,254.0938,498.9555,258.0938,488.9555,262.0938,492.9555,258.0938" style="stroke:#181818;stroke-width:1;"/><line style="stroke:#181818;stroke-width:1;" x1="38.9551" x2="494.9555" y1="258.0938" y2="258.0938"/><text fill="#000000" font-family="sans-serif" font-size="13" lengthAdjust="spacing" textLength="169.0002" x="45.9551" y="253.0278">&#36890;&#27671;&#24615;&#12398;&#33391;&#12356;&#26381;&#35013;&#12539;&#32032;&#26448;&#36984;&#12403;</text></g><g class="message" data-participant-1="User" data-participant-2="Measures"><polygon fill="#181818" points="488.9555,283.2266,498.9555,287.2266,488.9555,291.2266,492.9555,287.2266" style="stroke:#181818;stroke-width:1;"/><line style="stroke:#181818;stroke-width:1;" x1="38.9551" x2="494.9555" y1="287.2266" y2="287.2266"/><text fill="#000000" font-family="sans-serif" font-size="13" lengthAdjust="spacing" textLength="182.0002" x="45.9551" y="282.1606">&#32908;&#12395;&#20778;&#12375;&#12356;&#21270;&#31911;&#21697;&#12539;&#26085;&#28988;&#12369;&#27490;&#12417;</text></g><g class="message" data-participant-1="User" data-participant-2="Measures"><polygon fill="#181818" points="488.9555,312.3594,498.9555,316.3594,488.9555,320.3594,492.9555,316.3594" style="stroke:#181818;stroke-width:1;"/><line style="stroke:#181818;stroke-width:1;" x1="38.9551" x2="494.9555" y1="316.3594" y2="316.3594"/><text fill="#000000" font-family="sans-serif" font-size="13" lengthAdjust="spacing" textLength="169.0002" x="45.9551" y="311.2935">&#20919;&#12420;&#12375;&#12390;&#19968;&#26178;&#30340;&#12395;&#12363;&#12422;&#12415;&#32233;&#21644;</text></g><path d="M10,331.3594 L74.4429,331.3594 L74.4429,338.4922 L64.4429,348.4922 L10,348.4922 L10,331.3594" fill="#EEEEEE" style="stroke:#000000;stroke-width:1.5;"/><rect fill="none" height="75.3984" style="stroke:#000000;stroke-width:1.5;" width="573.9554" x="10" y="331.3594"/><text fill="#000000" font-family="sans-serif" font-size="13" font-weight="bold" lengthAdjust="spacing" textLength="19.4429" x="25" y="344.4263">alt</text><text fill="#000000" font-family="sans-serif" font-size="11" font-weight="bold" lengthAdjust="spacing" textLength="118.6952" x="89.4429" y="343.5698">[&#30151;&#29366;&#12364;&#38263;&#24341;&#12367; or &#24746;&#21270;]</text><g class="message" data-participant-1="User" data-participant-2="Medical"><polygon fill="#181818" points="540.9554,365.625,550.9554,369.625,540.9554,373.625,544.9554,369.625" style="stroke:#181818;stroke-width:1;"/><line style="stroke:#181818;stroke-width:1;" x1="38.9551" x2="546.9554" y1="369.625" y2="369.625"/><text fill="#000000" font-family="sans-serif" font-size="13" lengthAdjust="spacing" textLength="169.0002" x="45.9551" y="364.5591">&#30382;&#33178;&#31185;&#21463;&#35386;&#12539;&#12450;&#12524;&#12523;&#12462;&#12540;&#26908;&#26619;</text></g><g class="message" data-participant-1="Medical" data-participant-2="User"><polygon fill="#181818" points="49.9551,394.7578,39.9551,398.7578,49.9551,402.7578,45.9551,398.7578" style="stroke:#181818;stroke-width:1;"/><line style="stroke:#181818;stroke-width:1;" x1="43.9551" x2="551.9554" y1="398.7578" y2="398.7578"/><text fill="#000000" font-family="sans-serif" font-size="13" lengthAdjust="spacing" textLength="177.5632" x="55.9551" y="393.6919">&#12473;&#12486;&#12525;&#12452;&#12489; or &#25239;&#12450;&#12524;&#12523;&#12462;&#12540;&#34220;</text></g><g class="message" data-participant-1="Measures" data-participant-2="Skin"><polygon fill="#181818" points="370.9554,430.8906,360.9554,434.8906,370.9554,438.8906,366.9554,434.8906" style="stroke:#181818;stroke-width:1;"/><line style="stroke:#181818;stroke-width:1;" x1="364.9554" x2="499.9555" y1="434.8906" y2="434.8906"/><text fill="#000000" font-family="sans-serif" font-size="13" lengthAdjust="spacing" textLength="117.0001" x="376.9554" y="429.8247">&#28814;&#30151;&#12434;&#38450;&#12368;&#12539;&#24555;&#36969;&#12395;</text></g><!--SRC=[RP9DSjf048NtEiMKzxa0YzmWgrGEeC9QK75X5oYLBJrIC20I30ueLjdbn24Xvi-9OmS3AdIOzin8AryXhG52x6AZXVfz_Lxtj9crzmliLT4g60TcmSvbSmTctcOxyfUFpbnKPZ8gxJ2po5w-jKpxiKO5uxWSBAklS_d7HN6rKAEEBhwmpEARWbLy8gZFrGbV2NPpMNFFCD8SxDdpfLc6oQ29qAOS2NZ2QoFqqbXG5uSpv9wXLLfExgJMDOHpX0ML_yL7623qDK2wL9_QP1Y2XxoC494IdHOw_VLt7jzswVycptg253hMxO6wIc-4q7W8Ax8MfZcXGYOFONKhDamZmK9Ehz8nRlpaoqSoke_Ev3JQ0YIbGFxqPQc7C8whnBZoz7tyzHqnwkQpF3jAu0xXznOovhI3WN3x2BGFLzGxwhedZe58wNzJBaLjoj45ZR055kK9SbUJt-_lIlA4gy3L2rpjIaqkHQjk6EQUpPH_g6f_QET9Uo92ch_1w9OaxvEdmTYcktxT35lUY-erHSEFVypIjVCBT8Re392FqGbbzrIUpmbT8V-z5P-YKqPdXBoBJbNxrFmdUDmP6bP-rp3MysnkG_4Fb1PvA_bqZN2KtaOqIE2IHliB]--></g></svg>