<svg xmlns="http://www.w3.org/2000/svg" xmlns:xlink="http://www.w3.org/1999/xlink" contentStyleType="text/css" data-diagram-type="CLASS" height="1023px" preserveAspectRatio="none" style="width:764px;height:1023px;background:#FFFFFF;" version="1.1" viewBox="0 0 764 1023" width="764px" zoomAndPan="magnify"><defs/><g><!--cluster 3D?????????--><g class="cluster" data-entity="3D&#12503;&#12522;&#12531;&#12479;&#12540;&#12503;&#12525;&#12475;&#12473;" data-source-line="4" data-uid="ent0002" id="cluster_3D&#12503;&#12522;&#12531;&#12479;&#12540;&#12503;&#12525;&#12475;&#12473;"><path d="M281,6 L429.3618,6 A3.75,3.75 0 0 1 431.8618,8.5 L438.8618,28.2969 L475,28.2969 A2.5,2.5 0 0 1 477.5,30.7969 L477.5,692.79 A2.5,2.5 0 0 1 475,695.29 L281,695.29 A2.5,2.5 0 0 1 278.5,692.79 L278.5,8.5 A2.5,2.5 0 0 1 281,6" fill="none" style="stroke:#000000;stroke-width:1.5;"/><line style="stroke:#000000;stroke-width:1.5;" x1="278.5" x2="438.8618" y1="28.2969" y2="28.2969"/><text fill="#000000" font-family="sans-serif" font-size="14" font-weight="bold" lengthAdjust="spacing" textLength="147.3618" x="282.5" y="20.9951">3D&#12503;&#12522;&#12531;&#12479;&#12540;&#12503;&#12525;&#12475;&#12473;</text></g><!--class Filament--><g class="entity" data-entity="Filament" data-source-line="5" data-uid="ent0003" id="entity_Filament"><rect fill="#F1F1F1" height="48" rx="2.5" ry="2.5" style="stroke:#181818;stroke-width:0.5;" width="143.9995" x="295.5" y="41"/><ellipse cx="310.5" cy="57" fill="#ADD1B2" rx="11" ry="11" style="stroke:#181818;stroke-width:1;"/><path d="M313.4688,62.6406 Q312.8906,62.9375 312.25,63.0781 Q311.6094,63.2344 310.9063,63.2344 Q308.4063,63.2344 307.0781,61.5938 Q305.7656,59.9375 305.7656,56.8125 Q305.7656,53.6875 307.0781,52.0313 Q308.4063,50.375 310.9063,50.375 Q311.6094,50.375 312.25,50.5313 Q312.9063,50.6875 313.4688,50.9844 L313.4688,53.7031 Q312.8438,53.125 312.25,52.8594 Q311.6563,52.5781 311.0313,52.5781 Q309.6875,52.5781 309,53.6563 Q308.3125,54.7188 308.3125,56.8125 Q308.3125,58.9063 309,59.9844 Q309.6875,61.0469 311.0313,61.0469 Q311.6563,61.0469 312.25,60.7813 Q312.8438,60.5 313.4688,59.9219 L313.4688,62.6406 Z " fill="#000000"/><text fill="#000000" font-family="sans-serif" font-size="14" lengthAdjust="spacing" textLength="111.9995" x="324.5" y="61.8467">&#12501;&#12451;&#12521;&#12513;&#12531;&#12488;&#28310;&#20633;</text><line style="stroke:#181818;stroke-width:0.5;" x1="296.5" x2="438.4995" y1="73" y2="73"/><line style="stroke:#181818;stroke-width:0.5;" x1="296.5" x2="438.4995" y1="81" y2="81"/></g><!--class Design--><g class="entity" data-entity="Design" data-source-line="6" data-uid="ent0004" id="entity_Design"><rect fill="#F1F1F1" height="48" rx="2.5" ry="2.5" style="stroke:#181818;stroke-width:0.5;" width="115.9996" x="309.5" y="177.26"/><ellipse cx="324.5" cy="193.26" fill="#ADD1B2" rx="11" ry="11" style="stroke:#181818;stroke-width:1;"/><path d="M327.4688,198.9006 Q326.8906,199.1975 326.25,199.3381 Q325.6094,199.4944 324.9063,199.4944 Q322.4063,199.4944 321.0781,197.8538 Q319.7656,196.1975 319.7656,193.0725 Q319.7656,189.9475 321.0781,188.2913 Q322.4063,186.635 324.9063,186.635 Q325.6094,186.635 326.25,186.7913 Q326.9063,186.9475 327.4688,187.2444 L327.4688,189.9631 Q326.8438,189.385 326.25,189.1194 Q325.6563,188.8381 325.0313,188.8381 Q323.6875,188.8381 323,189.9163 Q322.3125,190.9788 322.3125,193.0725 Q322.3125,195.1663 323,196.2444 Q323.6875,197.3069 325.0313,197.3069 Q325.6563,197.3069 326.25,197.0413 Q326.8438,196.76 327.4688,196.1819 L327.4688,198.9006 Z " fill="#000000"/><text fill="#000000" font-family="sans-serif" font-size="14" lengthAdjust="spacing" textLength="83.9996" x="338.5" y="198.1067">&#12487;&#12470;&#12452;&#12531;&#20316;&#25104;</text><line style="stroke:#181818;stroke-width:0.5;" x1="310.5" x2="424.4996" y1="209.26" y2="209.26"/><line style="stroke:#181818;stroke-width:0.5;" x1="310.5" x2="424.4996" y1="217.26" y2="217.26"/></g><!--class PrintReady--><g class="entity" data-entity="PrintReady" data-source-line="7" data-uid="ent0005" id="entity_PrintReady"><rect fill="#F1F1F1" height="48" rx="2.5" ry="2.5" style="stroke:#181818;stroke-width:0.5;" width="115.9996" x="308.5" y="305.96"/><ellipse cx="323.5" cy="321.96" fill="#ADD1B2" rx="11" ry="11" style="stroke:#181818;stroke-width:1;"/><path d="M326.4688,327.6006 Q325.8906,327.8975 325.25,328.0381 Q324.6094,328.1944 323.9063,328.1944 Q321.4063,328.1944 320.0781,326.5537 Q318.7656,324.8975 318.7656,321.7725 Q318.7656,318.6475 320.0781,316.9912 Q321.4063,315.335 323.9063,315.335 Q324.6094,315.335 325.25,315.4912 Q325.9063,315.6475 326.4688,315.9444 L326.4688,318.6631 Q325.8438,318.085 325.25,317.8194 Q324.6563,317.5381 324.0313,317.5381 Q322.6875,317.5381 322,318.6162 Q321.3125,319.6787 321.3125,321.7725 Q321.3125,323.8662 322,324.9444 Q322.6875,326.0069 324.0313,326.0069 Q324.6563,326.0069 325.25,325.7412 Q325.8438,325.46 326.4688,324.8819 L326.4688,327.6006 Z " fill="#000000"/><text fill="#000000" font-family="sans-serif" font-size="14" lengthAdjust="spacing" textLength="83.9996" x="337.5" y="326.8067">&#12503;&#12522;&#12531;&#12488;&#28310;&#20633;</text><line style="stroke:#181818;stroke-width:0.5;" x1="309.5" x2="423.4996" y1="337.96" y2="337.96"/><line style="stroke:#181818;stroke-width:0.5;" x1="309.5" x2="423.4996" y1="345.96" y2="345.96"/></g><!--class Printing--><g class="entity" data-entity="Printing" data-source-line="8" data-uid="ent0006" id="entity_Printing"><rect fill="#F1F1F1" height="48" rx="2.5" ry="2.5" style="stroke:#181818;stroke-width:0.5;" width="87.9998" x="322.5" y="461.06"/><ellipse cx="337.5" cy="477.06" fill="#ADD1B2" rx="11" ry="11" style="stroke:#181818;stroke-width:1;"/><path d="M340.4688,482.7006 Q339.8906,482.9975 339.25,483.1381 Q338.6094,483.2944 337.9063,483.2944 Q335.4063,483.2944 334.0781,481.6537 Q332.7656,479.9975 332.7656,476.8725 Q332.7656,473.7475 334.0781,472.0912 Q335.4063,470.435 337.9063,470.435 Q338.6094,470.435 339.25,470.5912 Q339.9063,470.7475 340.4688,471.0444 L340.4688,473.7631 Q339.8438,473.185 339.25,472.9194 Q338.6563,472.6381 338.0313,472.6381 Q336.6875,472.6381 336,473.7162 Q335.3125,474.7787 335.3125,476.8725 Q335.3125,478.9662 336,480.0444 Q336.6875,481.1069 338.0313,481.1069 Q338.6563,481.1069 339.25,480.8412 Q339.8438,480.56 340.4688,479.9819 L340.4688,482.7006 Z " fill="#000000"/><text fill="#000000" font-family="sans-serif" font-size="14" lengthAdjust="spacing" textLength="55.9998" x="351.5" y="481.9067">&#12503;&#12522;&#12531;&#12488;</text><line style="stroke:#181818;stroke-width:0.5;" x1="323.5" x2="409.4998" y1="493.06" y2="493.06"/><line style="stroke:#181818;stroke-width:0.5;" x1="323.5" x2="409.4998" y1="501.06" y2="501.06"/></g><!--class Finished--><g class="entity" data-entity="Finished" data-source-line="9" data-uid="ent0007" id="entity_Finished"><rect fill="#F1F1F1" height="48" rx="2.5" ry="2.5" style="stroke:#181818;stroke-width:0.5;" width="73.9998" x="344.5" y="631.29"/><ellipse cx="359.5" cy="647.29" fill="#ADD1B2" rx="11" ry="11" style="stroke:#181818;stroke-width:1;"/><path d="M362.4688,652.9306 Q361.8906,653.2275 361.25,653.3681 Q360.6094,653.5244 359.9063,653.5244 Q357.4063,653.5244 356.0781,651.8838 Q354.7656,650.2275 354.7656,647.1025 Q354.7656,643.9775 356.0781,642.3213 Q357.4063,640.665 359.9063,640.665 Q360.6094,640.665 361.25,640.8213 Q361.9063,640.9775 362.4688,641.2744 L362.4688,643.9931 Q361.8438,643.415 361.25,643.1494 Q360.6563,642.8681 360.0313,642.8681 Q358.6875,642.8681 358,643.9463 Q357.3125,645.0088 357.3125,647.1025 Q357.3125,649.1963 358,650.2744 Q358.6875,651.3369 360.0313,651.3369 Q360.6563,651.3369 361.25,651.0713 Q361.8438,650.79 362.4688,650.2119 L362.4688,652.9306 Z " fill="#000000"/><text fill="#000000" font-family="sans-serif" font-size="14" lengthAdjust="spacing" textLength="41.9998" x="373.5" y="652.1367">&#23436;&#25104;&#21697;</text><line style="stroke:#181818;stroke-width:0.5;" x1="345.5" x2="417.4998" y1="663.29" y2="663.29"/><line style="stroke:#181818;stroke-width:0.5;" x1="345.5" x2="417.4998" y1="671.29" y2="671.29"/></g><g class="entity" data-entity="GMN12" data-source-line="19" data-uid="ent0013" id="entity_GMN12"><path d="M6,29.73 L6,100.2612 A0,0 0 0 0 6,100.2612 L261.0003,100.2612 A0,0 0 0 0 261.0003,100.2612 L261.0003,69 L295.02,65 L261.0003,61 L261.0003,39.73 L251.0003,29.73 L6,29.73 A0,0 0 0 0 6,29.73" fill="#FEFFDD" style="stroke:#181818;stroke-width:0.5;"/><path d="M251.0003,29.73 L251.0003,39.73 L261.0003,39.73 L251.0003,29.73" fill="#FEFFDD" style="stroke:#181818;stroke-width:0.5;"/><text fill="#000000" font-family="sans-serif" font-size="13" lengthAdjust="spacing" textLength="234.0003" x="12" y="46.7969">&#12506;&#12483;&#12488;&#12508;&#12488;&#12523;&#12363;&#12425;&#12398;&#12501;&#12451;&#12521;&#12513;&#12531;&#12488;&#20316;&#25104;&#65306;</text><text fill="#000000" font-family="sans-serif" font-size="13" lengthAdjust="spacing" textLength="86.8233" x="12" y="61.9297">- &#25163;&#38291;&#12364;&#12363;&#12363;&#12427;</text><text fill="#000000" font-family="sans-serif" font-size="13" lengthAdjust="spacing" textLength="73.8233" x="12" y="77.0625">- &#22833;&#25943;&#12364;&#22810;&#12356;</text><text fill="#000000" font-family="sans-serif" font-size="13" lengthAdjust="spacing" textLength="203.8235" x="12" y="92.1953">- &#21152;&#24037;&#20013;&#12395;&#33261;&#12356;&#12420;&#20581;&#24247;&#12522;&#12473;&#12463;&#12418;&#25080;&#24565;</text></g><g class="entity" data-entity="GMN15" data-source-line="27" data-uid="ent0016" id="entity_GMN15"><path d="M493.45,612.46 L493.45,651.29 L418.74,655.29 L493.45,659.29 L493.45,698.1241 A0,0 0 0 0 493.45,698.1241 L723.5547,698.1241 A0,0 0 0 0 723.5547,698.1241 L723.5547,622.46 L713.5547,612.46 L493.45,612.46 A0,0 0 0 0 493.45,612.46" fill="#FEFFDD" style="stroke:#181818;stroke-width:0.5;"/><path d="M713.5547,612.46 L713.5547,622.46 L723.5547,622.46 L713.5547,612.46" fill="#FEFFDD" style="stroke:#181818;stroke-width:0.5;"/><text fill="#000000" font-family="sans-serif" font-size="13" lengthAdjust="spacing" textLength="78.0001" x="499.45" y="629.5269">&#33391;&#12363;&#12387;&#12383;&#28857;&#65306;</text><text fill="#000000" font-family="sans-serif" font-size="13" lengthAdjust="spacing" textLength="138.8234" x="499.45" y="644.6597">- &#12463;&#12522;&#12456;&#12452;&#12486;&#12451;&#12502;&#12394;&#23455;&#29694;</text><text fill="#000000" font-family="sans-serif" font-size="13" lengthAdjust="spacing" textLength="203.8235" x="499.45" y="659.7925">- &#29872;&#22659;&#12408;&#12398;&#36002;&#29486;&#65288;&#12522;&#12469;&#12452;&#12463;&#12523;&#20307;&#39443;&#65289;</text><text fill="#000000" font-family="sans-serif" font-size="13" lengthAdjust="spacing" textLength="209.1047" x="499.45" y="674.9253">- 3D&#12477;&#12501;&#12488;&#12434;&#12450;&#12490;&#12525;&#12464;&#12395;&#27963;&#29992;&#12391;&#12365;&#12383;</text><text fill="#000000" font-family="sans-serif" font-size="13" lengthAdjust="spacing" textLength="138.8234" x="499.45" y="690.0581">- &#29289;&#20316;&#12426;&#12408;&#12398;&#24999;&#12428;&#12434;&#20307;&#39443;</text></g><g class="entity" data-entity="GMN18" data-source-line="36" data-uid="ent0019" id="entity_GMN18"><path d="M493.59,434.66 L493.59,481.06 L410.76,485.06 L493.59,489.06 L493.59,535.4569 A0,0 0 0 0 493.59,535.4569 L757.4135,535.4569 A0,0 0 0 0 757.4135,535.4569 L757.4135,444.66 L747.4135,434.66 L493.59,434.66 A0,0 0 0 0 493.59,434.66" fill="#FEFFDD" style="stroke:#181818;stroke-width:0.5;"/><path d="M747.4135,434.66 L747.4135,444.66 L757.4135,444.66 L747.4135,434.66" fill="#FEFFDD" style="stroke:#181818;stroke-width:0.5;"/><text fill="#000000" font-family="sans-serif" font-size="13" lengthAdjust="spacing" textLength="78.0001" x="499.59" y="451.7269">&#24746;&#12363;&#12387;&#12383;&#28857;&#65306;</text><text fill="#000000" font-family="sans-serif" font-size="13" lengthAdjust="spacing" textLength="242.8235" x="499.59" y="466.8597">- &#12506;&#12483;&#12488;&#12508;&#12488;&#12523;&#12501;&#12451;&#12521;&#12513;&#12531;&#12488;&#12398;&#29983;&#25104;&#12364;&#22256;&#38627;</text><text fill="#000000" font-family="sans-serif" font-size="13" lengthAdjust="spacing" textLength="203.8235" x="499.59" y="481.9925">- &#12501;&#12451;&#12521;&#12513;&#12531;&#12488;&#35069;&#36896;&#12395;&#25163;&#38291;&#12364;&#12363;&#12363;&#12427;</text><text fill="#000000" font-family="sans-serif" font-size="13" lengthAdjust="spacing" textLength="99.8233" x="499.59" y="497.1253">- &#36896;&#24418;&#22833;&#25943;&#12364;&#22810;&#12356;</text><text fill="#000000" font-family="sans-serif" font-size="13" lengthAdjust="spacing" textLength="99.8233" x="499.59" y="512.2581">- &#39442;&#38899;&#12364;&#27671;&#12395;&#12394;&#12427;</text><text fill="#000000" font-family="sans-serif" font-size="13" lengthAdjust="spacing" textLength="125.8234" x="499.59" y="527.391">- &#38750;&#24120;&#12395;&#26178;&#38291;&#12364;&#12363;&#12363;&#12427;</text></g><g class="entity" data-entity="GMN21" data-source-line="45" data-uid="ent0022" id="entity_GMN21"><path d="M493.99,302.26 L493.99,325.96 L424.88,329.96 L493.99,333.96 L493.99,357.6584 A0,0 0 0 0 493.99,357.6584 L663.0111,357.6584 A0,0 0 0 0 663.0111,357.6584 L663.0111,312.26 L653.0111,302.26 L493.99,302.26 A0,0 0 0 0 493.99,302.26" fill="#FEFFDD" style="stroke:#181818;stroke-width:0.5;"/><path d="M653.0111,302.26 L653.0111,312.26 L663.0111,312.26 L653.0111,302.26" fill="#FEFFDD" style="stroke:#181818;stroke-width:0.5;"/><text fill="#000000" font-family="sans-serif" font-size="13" lengthAdjust="spacing" textLength="65.0001" x="499.99" y="319.3269">&#38754;&#20498;&#12394;&#28857;&#65306;</text><text fill="#000000" font-family="sans-serif" font-size="13" lengthAdjust="spacing" textLength="148.0211" x="499.99" y="334.4597">- PC&#12363;&#12425;3D&#12503;&#12522;&#12531;&#12479;&#12408;&#12398;</text><text fill="#000000" font-family="sans-serif" font-size="13" lengthAdjust="spacing" textLength="104.0001" x="508.2546" y="349.5925">&#12487;&#12540;&#12479;&#31227;&#21205;&#12364;&#29033;&#38609;</text></g><g class="entity" data-entity="GMN24" data-source-line="52" data-uid="ent0025" id="entity_GMN24"><path d="M493.45,29.73 L493.45,100.2612 A0,0 0 0 0 493.45,100.2612 L522.85,100.2612 L404.98,176.85 L530.85,100.2612 L671.5546,100.2612 A0,0 0 0 0 671.5546,100.2612 L671.5546,39.73 L661.5546,29.73 L493.45,29.73 A0,0 0 0 0 493.45,29.73" fill="#FEFFDD" style="stroke:#181818;stroke-width:0.5;"/><path d="M661.5546,29.73 L661.5546,39.73 L671.5546,39.73 L661.5546,29.73" fill="#FEFFDD" style="stroke:#181818;stroke-width:0.5;"/><text fill="#000000" font-family="sans-serif" font-size="13" lengthAdjust="spacing" textLength="78.0001" x="499.45" y="46.7969">&#24403;&#21021;&#12398;&#30446;&#30340;&#65306;</text><text fill="#000000" font-family="sans-serif" font-size="13" lengthAdjust="spacing" textLength="138.8234" x="499.45" y="61.9297">- &#12506;&#12483;&#12488;&#12508;&#12488;&#12523;&#12398;&#20877;&#21033;&#29992;</text><text fill="#000000" font-family="sans-serif" font-size="13" lengthAdjust="spacing" textLength="157.1046" x="499.45" y="77.0625">- 3D&#12477;&#12501;&#12488;&#12434;&#20351;&#12387;&#12390;&#12415;&#12383;&#12356;</text><text fill="#000000" font-family="sans-serif" font-size="13" lengthAdjust="spacing" textLength="112.8234" x="499.45" y="92.1953">- &#29289;&#20316;&#12426;&#12434;&#22987;&#12417;&#12383;&#12356;</text></g><!--class CurrentStatus--><g class="entity" data-entity="CurrentStatus" data-source-line="59" data-uid="ent0027" id="entity_CurrentStatus"><rect fill="#F1F1F1" height="48" rx="2.5" ry="2.5" style="stroke:#181818;stroke-width:0.5;" width="223.1662" x="269.92" y="775.12"/><ellipse cx="284.92" cy="791.12" fill="#ADD1B2" rx="11" ry="11" style="stroke:#181818;stroke-width:1;"/><path d="M287.8888,796.7606 Q287.3106,797.0575 286.67,797.1981 Q286.0294,797.3544 285.3263,797.3544 Q282.8263,797.3544 281.4981,795.7137 Q280.1856,794.0575 280.1856,790.9325 Q280.1856,787.8075 281.4981,786.1512 Q282.8263,784.495 285.3263,784.495 Q286.0294,784.495 286.67,784.6512 Q287.3263,784.8075 287.8888,785.1044 L287.8888,787.8231 Q287.2638,787.245 286.67,786.9794 Q286.0763,786.6981 285.4513,786.6981 Q284.1075,786.6981 283.42,787.7762 Q282.7325,788.8387 282.7325,790.9325 Q282.7325,793.0262 283.42,794.1044 Q284.1075,795.1669 285.4513,795.1669 Q286.0763,795.1669 286.67,794.9012 Q287.2638,794.62 287.8888,794.0419 L287.8888,796.7606 Z " fill="#000000"/><text fill="#000000" font-family="sans-serif" font-size="14" lengthAdjust="spacing" textLength="191.1662" x="298.92" y="795.9667">&#29694;&#22312;&#12398;&#29366;&#24907;: &#25387;&#25240;&#20013;&#65288;&#26410;&#20351;&#29992;&#65289;</text><line style="stroke:#181818;stroke-width:0.5;" x1="270.92" x2="492.0862" y1="807.12" y2="807.12"/><line style="stroke:#181818;stroke-width:0.5;" x1="270.92" x2="492.0862" y1="815.12" y2="815.12"/></g><!--class Restart--><g class="entity" data-entity="Restart" data-source-line="63" data-uid="ent0029" id="entity_Restart"><rect fill="#F1F1F1" height="48" rx="2.5" ry="2.5" style="stroke:#181818;stroke-width:0.5;" width="185.9993" x="288.5" y="934.09"/><ellipse cx="303.5" cy="950.09" fill="#ADD1B2" rx="11" ry="11" style="stroke:#181818;stroke-width:1;"/><path d="M306.4688,955.7306 Q305.8906,956.0275 305.25,956.1681 Q304.6094,956.3244 303.9063,956.3244 Q301.4063,956.3244 300.0781,954.6837 Q298.7656,953.0275 298.7656,949.9025 Q298.7656,946.7775 300.0781,945.1212 Q301.4063,943.465 303.9063,943.465 Q304.6094,943.465 305.25,943.6212 Q305.9063,943.7775 306.4688,944.0744 L306.4688,946.7931 Q305.8438,946.215 305.25,945.9494 Q304.6563,945.6681 304.0313,945.6681 Q302.6875,945.6681 302,946.7462 Q301.3125,947.8087 301.3125,949.9025 Q301.3125,951.9962 302,953.0744 Q302.6875,954.1369 304.0313,954.1369 Q304.6563,954.1369 305.25,953.8712 Q305.8438,953.59 306.4688,953.0119 L306.4688,955.7306 Z " fill="#000000"/><text fill="#000000" font-family="sans-serif" font-size="14" lengthAdjust="spacing" textLength="153.9993" x="317.5" y="954.9367">&#20877;&#20986;&#30330;&#12395;&#21521;&#12369;&#12383;&#12473;&#12486;&#12483;&#12503;</text><line style="stroke:#181818;stroke-width:0.5;" x1="289.5" x2="473.4993" y1="966.09" y2="966.09"/><line style="stroke:#181818;stroke-width:0.5;" x1="289.5" x2="473.4993" y1="974.09" y2="974.09"/></g><g class="entity" data-entity="GMN31" data-source-line="67" data-uid="ent0032" id="entity_GMN31"><path d="M509.09,900.12 L509.09,954.09 L474.61,958.09 L509.09,962.09 L509.09,1016.0497 A0,0 0 0 0 509.09,1016.0497 L707.9134,1016.0497 A0,0 0 0 0 707.9134,1016.0497 L707.9134,910.12 L697.9134,900.12 L509.09,900.12 A0,0 0 0 0 509.09,900.12" fill="#FEFFDD" style="stroke:#181818;stroke-width:0.5;"/><path d="M697.9134,900.12 L697.9134,910.12 L707.9134,910.12 L697.9134,900.12" fill="#FEFFDD" style="stroke:#181818;stroke-width:0.5;"/><text fill="#000000" font-family="sans-serif" font-size="13" lengthAdjust="spacing" textLength="91.0001" x="515.09" y="917.1869">&#20877;&#21033;&#29992;&#12398;&#26908;&#35342;&#65306;</text><text fill="#000000" font-family="sans-serif" font-size="13" lengthAdjust="spacing" textLength="125.8234" x="515.09" y="932.3197">- &#23567;&#29289;&#12420;&#23455;&#29992;&#21697;&#12434;&#35430;&#20316;</text><text fill="#000000" font-family="sans-serif" font-size="13" lengthAdjust="spacing" textLength="138.8234" x="515.09" y="947.4525">- &#22806;&#27880;&#12391;&#35373;&#35336;&#12384;&#12369;&#27963;&#12363;&#12377;</text><text fill="#000000" font-family="sans-serif" font-size="13" lengthAdjust="spacing" textLength="177.8234" x="515.09" y="962.5853">- &#23567;&#22411;&#38745;&#38899;&#27231;&#12408;&#12398;&#36023;&#12356;&#26367;&#12360;&#26908;&#35342;</text><text fill="#000000" font-family="sans-serif" font-size="13" lengthAdjust="spacing" textLength="164.8234" x="515.09" y="977.7181">- &#12501;&#12451;&#12521;&#12513;&#12531;&#12488;&#12399;&#24066;&#36009;&#12395;&#20999;&#26367;</text><text fill="#000000" font-family="sans-serif" font-size="13" lengthAdjust="spacing" textLength="164.8234" x="515.09" y="992.851">- &#20889;&#30495;&#12420;&#35352;&#37682;&#12391;&#29694;&#29366;&#12434;&#21487;&#35222;&#21270;</text><text fill="#000000" font-family="sans-serif" font-size="13" lengthAdjust="spacing" textLength="177.8234" x="515.09" y="1007.9838">- &#25104;&#21151;&#12375;&#12420;&#12377;&#12356;&#26465;&#20214;&#12434;&#27927;&#12356;&#20986;&#12375;</text></g><!--link Filament to Design--><g class="link" data-entity-1="Filament" data-entity-2="Design" data-source-line="12" data-uid="lnk8" id="link_Filament_Design"><path codeLine="12" d="M367.5,89.38 C367.5,114.03 367.5,146.6 367.5,171.14" fill="none" id="Filament-to-Design" style="stroke:#181818;stroke-width:1;"/><polygon fill="#181818" points="367.5,177.14,371.5,168.14,367.5,172.14,363.5,168.14,367.5,177.14" style="stroke:#181818;stroke-width:1;"/><text fill="#000000" font-family="sans-serif" font-size="13" lengthAdjust="spacing" textLength="65.0001" x="368.5" y="143.3269">&#32032;&#26448;&#12434;&#28310;&#20633;</text></g><!--link Design to PrintReady--><g class="link" data-entity-1="Design" data-entity-2="PrintReady" data-source-line="13" data-uid="lnk9" id="link_Design_PrintReady"><path codeLine="13" d="M367.32,225.5 C367.14,248.36 366.9073,277.0602 366.7273,299.8702" fill="none" id="Design-to-PrintReady" style="stroke:#181818;stroke-width:1;"/><polygon fill="#181818" points="366.68,305.87,370.7509,296.9018,366.7195,300.8702,362.7511,296.8387,366.68,305.87" style="stroke:#181818;stroke-width:1;"/><text fill="#000000" font-family="sans-serif" font-size="13" lengthAdjust="spacing" textLength="130.0002" x="368.06" y="268.3269">&#12487;&#12470;&#12452;&#12531;&#12398;&#35373;&#23450;&#12539;&#35519;&#25972;</text></g><!--link PrintReady to Printing--><g class="link" data-entity-1="PrintReady" data-entity-2="Printing" data-source-line="14" data-uid="lnk10" id="link_PrintReady_Printing"><path codeLine="14" d="M366.5,354.21 C366.5,382.99 366.5,425.71 366.5,454.59" fill="none" id="PrintReady-to-Printing" style="stroke:#181818;stroke-width:1;"/><polygon fill="#181818" points="366.5,460.59,370.5,451.59,366.5,455.59,362.5,451.59,366.5,460.59" style="stroke:#181818;stroke-width:1;"/><text fill="#000000" font-family="sans-serif" font-size="13" lengthAdjust="spacing" textLength="78.0001" x="367.5" y="400.7269">&#12503;&#12522;&#12531;&#12488;&#38283;&#22987;</text></g><!--link Printing to Finished--><g class="link" data-entity-1="Printing" data-entity-2="Finished" data-source-line="15" data-uid="lnk11" id="link_Printing_Finished"><path codeLine="15" d="M368.59,509.45 C371.44,541.5 376.0172,592.7637 378.8772,624.8437" fill="none" id="Printing-to-Finished" style="stroke:#181818;stroke-width:1;"/><polygon fill="#181818" points="379.41,630.82,382.595,621.5004,378.966,625.8398,374.6266,622.2108,379.41,630.82" style="stroke:#181818;stroke-width:1;"/><text fill="#000000" font-family="sans-serif" font-size="13" lengthAdjust="spacing" textLength="117.0001" x="375.9" y="578.5269">&#23436;&#25104;&#21697;&#12364;&#20986;&#26469;&#19978;&#12364;&#12427;</text></g><!--link Finished to CurrentStatus--><g class="link" data-entity-1="Finished" data-entity-2="CurrentStatus" data-source-line="60" data-uid="lnk28" id="link_Finished_CurrentStatus"><path codeLine="60" d="M381.5,679.71 C381.5,705.99 381.5,742.37 381.5,768.66" fill="none" id="Finished-to-CurrentStatus" style="stroke:#181818;stroke-width:1;"/><polygon fill="#181818" points="381.5,774.66,385.5,765.66,381.5,769.66,377.5,765.66,381.5,774.66" style="stroke:#181818;stroke-width:1;"/><text fill="#000000" font-family="sans-serif" font-size="13" lengthAdjust="spacing" textLength="91.0001" x="382.5" y="741.1869">&#23455;&#38555;&#12399;&#26410;&#27963;&#29992;&#12395;</text></g><!--link CurrentStatus to Restart--><g class="link" data-entity-1="CurrentStatus" data-entity-2="Restart" data-source-line="64" data-uid="lnk30" id="link_CurrentStatus_Restart"><path codeLine="64" d="M381.5,823.62 C381.5,853.3 381.5,898.05 381.5,927.68" fill="none" id="CurrentStatus-to-Restart" style="stroke:#181818;stroke-width:1;"/><polygon fill="#181818" points="381.5,933.68,385.5,924.68,381.5,928.68,377.5,924.68,381.5,933.68" style="stroke:#181818;stroke-width:1;"/><text fill="#000000" font-family="sans-serif" font-size="13" lengthAdjust="spacing" textLength="91.0001" x="382.5" y="866.1869">&#27963;&#29992;&#26041;&#27861;&#12434;&#20877;&#32771;</text></g><!--SRC=[VLNBSXf75DtFLtHfavLMsNcHZLrPkvml64jOfen01UDAKYvNQNemRqKI26HUHaQonAE4Y2HRI8ZmCPVkcLdf5tAxPmQ6Hr8554oVllVSS-wzgA5GvFVju1_1y9OIUnSCxwXHTPji1gE13IqO2HCjieDlyZgYQP5jHTbHDzwfMm6ozlCBC8x1w81n0tGCngFyUGbq2FH-ZNnG2Da8gR4OMGEZ2FGKZ3OONmNQIF674gFbDQB6oA_1aBeT26j-U1Be3w1dY9sCQZnr884l0h7WLjWFyxBFnNiP3OQrLm5ryy_Lq1b853o5i5uE4x62xf8A1sDl0vlAHqNn29BrzLzS4kGPCMzFUFq0QDv9hRW70ZDZW3X_CQ3thDObwrN065gTCI_UAZxiz2hoaXTddErIbbrabUcfW7eK4Jhb3dgE9Hzu_TjaaC7lGBEAyXFvB_dH9Z0IO1YOIWb7j0091Tve9FB6xmaO5Ob8WL6JdrtGiq3JMCjoNCUjfySANbmdF9srImN10s-8Irdvc9tzpOl7WkfP1VIuyonpmkwGzINeNIk9dt6WSQP_OmztGWGaIg-0KfuSiF5t9H3U98AlACvANydmfw0tJ7hlr14DRhrr2t5z98j0ZwG8B3Aqf4K9ML09z0xhDSpzVoJ4pFTPqm1z8FoxRfgvtjDZIbxwBYw90Dt9g62t2a-FQNa3HuEEX3me6Cq3ROAHaQFHn_huxT0yQe5-0VeUSd5IfDke7T2CauKdBe2YVNadx5p1d7QM2_QCy_Nr0cvQxxAVIpOY0_EeWKuAawfzkthgNbq4MgSZU_T4rBJQQZnae-Ogm-rMtcxWGEHu7q-mfphJE_KlR30GCSjqCUPCX-MglP6twqsscyU0lg9VFdUQTc5bIQqHGEIKuWAZO_DYoB95J6f-QjlLmpdbsQZ0KdKXJhLdLk8E1x4TaS9qEIs0_aTslSSIUopLncPOqJIJqLXwTmuwVcbukiqQXUPn9G3LtKC_KMnSLci93faV_5DMSLVSmkDdXEUwFFCPfmxxcTSwc1AvO0_B5VZyVJIAA-0tJTNUnvJfjX6hP-v8xf-6NQc2VeL1lExkIiMy0l4tEpW47LyDVbQpMdzvf0Ga-M2M7_mG_sQIP5u5OfeQrPJvp8ABUu8idCoyTCzlYaATn9wrQoWB2y4BHFpSUWubpolMtqUPnGB27N3K4dkLvgtsEGhlBh0Iln43ZClSQk6qu0GSOdRPfsKl1FkIjUjbR7BURdYxumwTubNqC-MAi7giK4aseDPrMsYIIk8D9sYYRDPGcxZL-cpdhf40EefUYcBthwpp4ikLdCMBVmOPJ7gCM6GaajQ_JeO2o6zntEAeE9vEU-PV]--></g></svg>