<svg xmlns="http://www.w3.org/2000/svg" xmlns:xlink="http://www.w3.org/1999/xlink" contentStyleType="text/css" data-diagram-type="SEQUENCE" height="1064px" preserveAspectRatio="none" style="width:744px;height:1064px;background:#FFFFFF;" version="1.1" viewBox="0 0 744 1064" width="744px" zoomAndPan="magnify"><defs/><g><g><title>.......</title><rect fill="#000000" fill-opacity="0.00000" height="902.25" width="8" x="52.9998" y="81.2969"/><line style="stroke:#181818;stroke-width:0.5;stroke-dasharray:5,5;" x1="56" x2="56" y1="81.2969" y2="983.5469"/></g><g><title>Android...</title><rect fill="#000000" fill-opacity="0.00000" height="902.25" width="8" x="300.4756" y="81.2969"/><line style="stroke:#181818;stroke-width:0.5;stroke-dasharray:5,5;" x1="304.2584" x2="304.2584" y1="81.2969" y2="983.5469"/></g><g><title>Google.....</title><rect fill="#000000" fill-opacity="0.00000" height="902.25" width="8" x="484.7667" y="81.2969"/><line style="stroke:#181818;stroke-width:0.5;stroke-dasharray:5,5;" x1="488.0823" x2="488.0823" y1="81.2969" y2="983.5469"/></g><g class="participant participant-head" data-participant="User"><text fill="#000000" font-family="sans-serif" font-size="14" lengthAdjust="spacing" textLength="97.9996" x="5" y="77.9951">&#12518;&#12540;&#12470;&#12540;&#65288;&#35242;&#65289;</text><ellipse cx="56.9998" cy="13.5" fill="#E2E2F0" rx="8" ry="8" style="stroke:#181818;stroke-width:0.5;"/><path d="M56.9998,21.5 L56.9998,48.5 M43.9998,29.5 L69.9998,29.5 M56.9998,48.5 L43.9998,63.5 M56.9998,48.5 L69.9998,63.5" fill="none" style="stroke:#181818;stroke-width:0.5;"/></g><g class="participant participant-tail" data-participant="User"><text fill="#000000" font-family="sans-serif" font-size="14" lengthAdjust="spacing" textLength="97.9996" x="5" y="995.542">&#12518;&#12540;&#12470;&#12540;&#65288;&#35242;&#65289;</text><ellipse cx="56.9998" cy="1007.3438" fill="#E2E2F0" rx="8" ry="8" style="stroke:#181818;stroke-width:0.5;"/><path d="M56.9998,1015.3438 L56.9998,1042.3438 M43.9998,1023.3438 L69.9998,1023.3438 M56.9998,1042.3438 L43.9998,1057.3438 M56.9998,1042.3438 L69.9998,1057.3438" fill="none" style="stroke:#181818;stroke-width:0.5;"/></g><g class="participant participant-head" data-participant="Phone"><rect fill="#E2E2F0" height="30.2969" rx="2.5" ry="2.5" style="stroke:#181818;stroke-width:0.5;" width="110.4344" x="249.2584" y="50"/><text fill="#000000" font-family="sans-serif" font-size="14" lengthAdjust="spacing" textLength="96.4344" x="256.2584" y="69.9951">Android&#12473;&#12510;&#12507;</text></g><g class="participant participant-tail" data-participant="Phone"><rect fill="#E2E2F0" height="30.2969" rx="2.5" ry="2.5" style="stroke:#181818;stroke-width:0.5;" width="110.4344" x="249.2584" y="982.5469"/><text fill="#000000" font-family="sans-serif" font-size="14" lengthAdjust="spacing" textLength="96.4344" x="256.2584" y="1002.542">Android&#12473;&#12510;&#12507;</text></g><g class="participant participant-head" data-participant="Google"><rect fill="#E2E2F0" height="30.2969" rx="2.5" ry="2.5" style="stroke:#181818;stroke-width:0.5;" width="133.3688" x="422.0823" y="50"/><text fill="#000000" font-family="sans-serif" font-size="14" lengthAdjust="spacing" textLength="119.3688" x="429.0823" y="69.9951">Google&#12450;&#12459;&#12454;&#12531;&#12488;</text></g><g class="participant participant-tail" data-participant="Google"><rect fill="#E2E2F0" height="30.2969" rx="2.5" ry="2.5" style="stroke:#181818;stroke-width:0.5;" width="133.3688" x="422.0823" y="982.5469"/><text fill="#000000" font-family="sans-serif" font-size="14" lengthAdjust="spacing" textLength="119.3688" x="429.0823" y="1002.542">Google&#12450;&#12459;&#12454;&#12531;&#12488;</text></g><rect fill="#EEEEEE" height="3" style="stroke:#EEEEEE;stroke-width:1;" width="737.5437" x="0" y="111.8633"/><line style="stroke:#000000;stroke-width:1;" x1="0" x2="737.5437" y1="111.8633" y2="111.8633"/><line style="stroke:#000000;stroke-width:1;" x1="0" x2="737.5437" y1="114.8633" y2="114.8633"/><rect fill="#EEEEEE" height="23.1328" style="stroke:#000000;stroke-width:2;" width="89.0357" x="324.254" y="101.2969"/><text fill="#000000" font-family="sans-serif" font-size="13" font-weight="bold" lengthAdjust="spacing" textLength="70.5098" x="330.254" y="117.3638">1. &#22522;&#26412;&#35373;&#23450;</text><g class="message" data-participant-1="User" data-participant-2="Google"><polygon fill="#181818" points="476.7667,151.5625,486.7667,155.5625,476.7667,159.5625,480.7667,155.5625" style="stroke:#181818;stroke-width:1;"/><line style="stroke:#181818;stroke-width:1;" x1="56.9998" x2="482.7667" y1="155.5625" y2="155.5625"/><text fill="#000000" font-family="sans-serif" font-size="13" lengthAdjust="spacing" textLength="167.8068" x="63.9998" y="150.4966">1.1 &#24375;&#21147;&#12394;&#12497;&#12473;&#12527;&#12540;&#12489;&#12395;&#22793;&#26356;</text></g><path d="M61,168.5625 L61,223.5625 L324,223.5625 L324,178.5625 L314,168.5625 L61,168.5625" fill="#FEFFDD" style="stroke:#181818;stroke-width:0.5;"/><path d="M314,168.5625 L314,178.5625 L324,178.5625 L314,168.5625" fill="#FEFFDD" style="stroke:#181818;stroke-width:0.5;"/><text fill="#000000" font-family="sans-serif" font-size="13" lengthAdjust="spacing" textLength="177.8234" x="67" y="185.6294">- &#35477;&#29983;&#26085;&#12420;&#38651;&#35441;&#30058;&#21495;&#12399;&#20351;&#12431;&#12394;&#12356;</text><text fill="#000000" font-family="sans-serif" font-size="13" lengthAdjust="spacing" textLength="220.3655" x="67" y="200.7622">- 12&#25991;&#23383;&#20197;&#19978;&#12398;&#12501;&#12524;&#12540;&#12474;&#22411;&#12364;&#26395;&#12414;&#12375;&#12356;</text><text fill="#000000" font-family="sans-serif" font-size="13" lengthAdjust="spacing" textLength="242.8235" x="67" y="215.895">- &#35226;&#12360;&#12425;&#12428;&#12394;&#12369;&#12428;&#12400;&#12497;&#12473;&#12527;&#12540;&#12489;&#31649;&#29702;&#12434;&#23566;&#20837;</text><g class="message" data-participant-1="User" data-participant-2="Phone"><polygon fill="#181818" points="292.4756,246.0938,302.4756,250.0938,292.4756,254.0938,296.4756,250.0938" style="stroke:#181818;stroke-width:1;"/><line style="stroke:#181818;stroke-width:1;" x1="56.9998" x2="298.4756" y1="250.0938" y2="250.0938"/><text fill="#000000" font-family="sans-serif" font-size="13" lengthAdjust="spacing" textLength="193.8068" x="63.9998" y="245.0278">1.2 &#12497;&#12473;&#12527;&#12540;&#12489;&#12510;&#12493;&#12540;&#12472;&#12515;&#12540;&#35373;&#23450;</text></g><path d="M309,263.0938 L309,303.0938 L540,303.0938 L540,273.0938 L530,263.0938 L309,263.0938" fill="#FEFFDD" style="stroke:#181818;stroke-width:0.5;"/><path d="M530,263.0938 L530,273.0938 L540,273.0938 L530,263.0938" fill="#FEFFDD" style="stroke:#181818;stroke-width:0.5;"/><text fill="#000000" font-family="sans-serif" font-size="13" lengthAdjust="spacing" textLength="210.6662" x="315" y="280.1606">- Google&#33258;&#21205;&#20445;&#23384;&#12434;&#26377;&#21177;&#21270;&#65288;&#31777;&#21336;&#65289;</text><text fill="#000000" font-family="sans-serif" font-size="13" lengthAdjust="spacing" textLength="203.8235" x="315" y="295.2935">- &#23478;&#26063;&#12364;&#21021;&#26399;&#35373;&#23450;&#12434;&#25163;&#20253;&#12387;&#12390;&#12354;&#12370;&#12427;</text><rect fill="#EEEEEE" height="3" style="stroke:#EEEEEE;stroke-width:1;" width="737.5437" x="0" y="328.9258"/><line style="stroke:#000000;stroke-width:1;" x1="0" x2="737.5437" y1="328.9258" y2="328.9258"/><line style="stroke:#000000;stroke-width:1;" x1="0" x2="737.5437" y1="331.9258" y2="331.9258"/><rect fill="#EEEEEE" height="23.1328" style="stroke:#000000;stroke-width:2;" width="89.0357" x="324.254" y="318.3594"/><text fill="#000000" font-family="sans-serif" font-size="13" font-weight="bold" lengthAdjust="spacing" textLength="70.5098" x="330.254" y="334.4263">2. &#36861;&#21152;&#38450;&#24481;</text><g class="message" data-participant-1="User" data-participant-2="Google"><polygon fill="#181818" points="476.7667,368.625,486.7667,372.625,476.7667,376.625,480.7667,372.625" style="stroke:#181818;stroke-width:1;"/><line style="stroke:#181818;stroke-width:1;" x1="56.9998" x2="482.7667" y1="372.625" y2="372.625"/><text fill="#000000" font-family="sans-serif" font-size="13" lengthAdjust="spacing" textLength="137.0778" x="63.9998" y="367.5591">2.1 2&#27573;&#38542;&#35469;&#35388;&#12434;&#26377;&#21177;&#21270;</text></g><path d="M493,385.625 L493,425.625 L732,425.625 L732,395.625 L722,385.625 L493,385.625" fill="#FEFFDD" style="stroke:#181818;stroke-width:0.5;"/><path d="M722,385.625 L722,395.625 L732,395.625 L722,385.625" fill="#FEFFDD" style="stroke:#181818;stroke-width:0.5;"/><text fill="#000000" font-family="sans-serif" font-size="13" lengthAdjust="spacing" textLength="208.2034" x="499" y="402.6919">- &#12473;&#12510;&#12507;&#36890;&#30693;&#12300;&#12399;&#12356;/&#12356;&#12356;&#12360;&#12301;&#12364;&#31777;&#21336;</text><text fill="#000000" font-family="sans-serif" font-size="13" lengthAdjust="spacing" textLength="218.5437" x="499" y="417.8247">- SMS&#12399;&#35408;&#27450;&#12395;&#20351;&#12431;&#12428;&#12420;&#12377;&#12356;&#12398;&#12391;&#27880;&#24847;</text><g class="message" data-participant-1="User" data-participant-2="Google"><polygon fill="#181818" points="476.7667,448.0234,486.7667,452.0234,476.7667,456.0234,480.7667,452.0234" style="stroke:#181818;stroke-width:1;"/><line style="stroke:#181818;stroke-width:1;" x1="56.9998" x2="482.7667" y1="452.0234" y2="452.0234"/><text fill="#000000" font-family="sans-serif" font-size="13" lengthAdjust="spacing" textLength="180.8068" x="63.9998" y="446.9575">2.2 &#12496;&#12483;&#12463;&#12450;&#12483;&#12503;&#12467;&#12540;&#12489;&#12434;&#20445;&#23384;</text></g><path d="M61,465.0234 L61,505.0234 L298,505.0234 L298,475.0234 L288,465.0234 L61,465.0234" fill="#FEFFDD" style="stroke:#181818;stroke-width:0.5;"/><path d="M288,465.0234 L288,475.0234 L298,475.0234 L288,465.0234" fill="#FEFFDD" style="stroke:#181818;stroke-width:0.5;"/><text fill="#000000" font-family="sans-serif" font-size="13" lengthAdjust="spacing" textLength="112.8234" x="67" y="482.0903">- &#32025;&#12395;&#21360;&#21047;&#12375;&#12390;&#20445;&#31649;</text><text fill="#000000" font-family="sans-serif" font-size="13" lengthAdjust="spacing" textLength="216.8235" x="67" y="497.2231">- &#36001;&#24067;&#12391;&#12399;&#12394;&#12367;&#33258;&#23429;&#12398;&#24341;&#12365;&#20986;&#12375;&#12395;&#20445;&#31649;</text><rect fill="#EEEEEE" height="3" style="stroke:#EEEEEE;stroke-width:1;" width="737.5437" x="0" y="530.8555"/><line style="stroke:#000000;stroke-width:1;" x1="0" x2="737.5437" y1="530.8555" y2="530.8555"/><line style="stroke:#000000;stroke-width:1;" x1="0" x2="737.5437" y1="533.8555" y2="533.8555"/><rect fill="#EEEEEE" height="23.1328" style="stroke:#000000;stroke-width:2;" width="141.0358" x="298.254" y="520.2891"/><text fill="#000000" font-family="sans-serif" font-size="13" font-weight="bold" lengthAdjust="spacing" textLength="122.5099" x="304.254" y="536.356">3. &#31471;&#26411;&#12475;&#12461;&#12517;&#12522;&#12486;&#12451;</text><g class="message" data-participant-1="User" data-participant-2="Phone"><polygon fill="#181818" points="292.4756,570.5547,302.4756,574.5547,292.4756,578.5547,296.4756,574.5547" style="stroke:#181818;stroke-width:1;"/><line style="stroke:#181818;stroke-width:1;" x1="56.9998" x2="298.4756" y1="574.5547" y2="574.5547"/><text fill="#000000" font-family="sans-serif" font-size="13" lengthAdjust="spacing" textLength="223.4758" x="63.9998" y="569.4888">3.1 &#30011;&#38754;&#12525;&#12483;&#12463;&#65288;6&#26689;PIN&#65295;&#25351;&#32011;&#65295;&#38996;&#65289;</text></g><path d="M309,587.5547 L309,627.5547 L558,627.5547 L558,597.5547 L548,587.5547 L309,587.5547" fill="#FEFFDD" style="stroke:#181818;stroke-width:0.5;"/><path d="M548,587.5547 L548,597.5547 L558,597.5547 L548,587.5547" fill="#FEFFDD" style="stroke:#181818;stroke-width:0.5;"/><text fill="#000000" font-family="sans-serif" font-size="13" lengthAdjust="spacing" textLength="228.7634" x="315" y="604.6216">- 4&#26689;PIN&#12399;&#24369;&#12356;&#12290;6&#26689;&#65291;&#25351;&#32011;&#20341;&#29992;&#12364;&#33391;&#12356;</text><text fill="#000000" font-family="sans-serif" font-size="13" lengthAdjust="spacing" textLength="156.2033" x="315" y="619.7544">- &#25351;&#32011;/&#38996;&#35469;&#35388;&#12391;&#25805;&#20316;&#12434;&#27005;&#12395;</text><g class="message" data-participant-1="Phone" data-participant-2="Google"><polygon fill="#181818" points="476.7667,649.9531,486.7667,653.9531,476.7667,657.9531,480.7667,653.9531" style="stroke:#181818;stroke-width:1;"/><line style="stroke:#181818;stroke-width:1;" x1="304.4756" x2="482.7667" y1="653.9531" y2="653.9531"/><text fill="#000000" font-family="sans-serif" font-size="13" lengthAdjust="spacing" textLength="160.2912" x="311.4756" y="648.8872">3.2 OS&#12539;&#12450;&#12503;&#12522;&#12434;&#33258;&#21205;&#26356;&#26032;</text></g><path d="M309,666.9531 L309,706.9531 L546,706.9531 L546,676.9531 L536,666.9531 L309,666.9531" fill="#FEFFDD" style="stroke:#181818;stroke-width:0.5;"/><path d="M536,666.9531 L536,676.9531 L546,676.9531 L536,666.9531" fill="#FEFFDD" style="stroke:#181818;stroke-width:0.5;"/><text fill="#000000" font-family="sans-serif" font-size="13" lengthAdjust="spacing" textLength="138.8234" x="315" y="684.02">- &#26356;&#26032;&#36890;&#30693;&#12399;&#28961;&#35222;&#12375;&#12394;&#12356;</text><text fill="#000000" font-family="sans-serif" font-size="13" lengthAdjust="spacing" textLength="216.8235" x="315" y="699.1528">- &#12300;&#36895;&#12367;&#12394;&#12427;&#12301;&#12394;&#12393;&#24618;&#12375;&#12356;&#24773;&#22577;&#12395;&#27880;&#24847;</text><rect fill="#EEEEEE" height="3" style="stroke:#EEEEEE;stroke-width:1;" width="737.5437" x="0" y="732.7852"/><line style="stroke:#000000;stroke-width:1;" x1="0" x2="737.5437" y1="732.7852" y2="732.7852"/><line style="stroke:#000000;stroke-width:1;" x1="0" x2="737.5437" y1="735.7852" y2="735.7852"/><rect fill="#EEEEEE" height="23.1328" style="stroke:#000000;stroke-width:2;" width="128.0358" x="304.754" y="722.2188"/><text fill="#000000" font-family="sans-serif" font-size="13" font-weight="bold" lengthAdjust="spacing" textLength="109.5099" x="310.754" y="738.2856">4. &#32027;&#22833;&#12539;&#30423;&#38627;&#23550;&#31574;</text><g class="message" data-participant-1="User" data-participant-2="Phone"><polygon fill="#181818" points="292.4756,772.4844,302.4756,776.4844,292.4756,780.4844,296.4756,776.4844" style="stroke:#181818;stroke-width:1;"/><line style="stroke:#181818;stroke-width:1;" x1="56.9998" x2="298.4756" y1="776.4844" y2="776.4844"/><text fill="#000000" font-family="sans-serif" font-size="13" lengthAdjust="spacing" textLength="180.1529" x="63.9998" y="771.4185">4.1 Find My Device &#12434;&#26377;&#21177;&#21270;</text></g><path d="M61,789.4844 L61,829.4844 L303,829.4844 L303,799.4844 L293,789.4844 L61,789.4844" fill="#FEFFDD" style="stroke:#181818;stroke-width:0.5;"/><path d="M293,789.4844 L293,799.4844 L303,799.4844 L293,789.4844" fill="#FEFFDD" style="stroke:#181818;stroke-width:0.5;"/><text fill="#000000" font-family="sans-serif" font-size="13" lengthAdjust="spacing" textLength="190.8235" x="67" y="806.5513">- &#32027;&#22833;&#26178;&#12399;&#23478;&#26063;&#12392;&#19968;&#32210;&#12395;&#25805;&#20316;&#32244;&#32722;</text><text fill="#000000" font-family="sans-serif" font-size="13" lengthAdjust="spacing" textLength="221.2034" x="67" y="821.6841">- &#36960;&#38548;&#12391;&#12525;&#12483;&#12463;/&#28040;&#21435;&#12391;&#12365;&#12427;&#12371;&#12392;&#12434;&#30906;&#35469;</text><rect fill="#EEEEEE" height="3" style="stroke:#EEEEEE;stroke-width:1;" width="737.5437" x="0" y="855.3164"/><line style="stroke:#000000;stroke-width:1;" x1="0" x2="737.5437" y1="855.3164" y2="855.3164"/><line style="stroke:#000000;stroke-width:1;" x1="0" x2="737.5437" y1="858.3164" y2="858.3164"/><rect fill="#EEEEEE" height="23.1328" style="stroke:#000000;stroke-width:2;" width="135.526" x="301.0088" y="844.75"/><text fill="#000000" font-family="sans-serif" font-size="13" font-weight="bold" lengthAdjust="spacing" textLength="117.0001" x="307.0088" y="860.8169">&#39640;&#40802;&#32773;&#21521;&#12369;&#21360;&#21047;&#12513;&#12514;</text><path d="M61,882.8828 L61,967.8828 L477,967.8828 L477,892.8828 L467,882.8828 L61,882.8828" fill="#FEFFDD" style="stroke:#181818;stroke-width:0.5;"/><path d="M467,882.8828 L467,892.8828 L477,892.8828 L467,882.8828" fill="#FEFFDD" style="stroke:#181818;stroke-width:0.5;"/><text fill="#000000" font-family="sans-serif" font-size="13" lengthAdjust="spacing" textLength="343.8972" x="67" y="899.9497">- &#30011;&#38754;&#12525;&#12483;&#12463;: 6&#26689;PIN+&#25351;&#32011;&#12290;&#35477;&#29983;&#26085;&#12420;&#36899;&#32154;&#25968;&#23383;&#12399;&#20351;&#12431;&#12394;&#12356;</text><text fill="#000000" font-family="sans-serif" font-size="13" lengthAdjust="spacing" textLength="395.7258" x="67" y="915.0825">- &#12497;&#12473;&#12527;&#12540;&#12489;: 12&#25991;&#23383;&#20197;&#19978;&#12398;&#31777;&#21336;&#12501;&#12524;&#12540;&#12474; (&#20363; maiasaCoffee1pai!)</text><text fill="#000000" font-family="sans-serif" font-size="13" lengthAdjust="spacing" textLength="337.6068" x="67" y="930.2153">- &#12496;&#12483;&#12463;&#12450;&#12483;&#12503;: 2&#27573;&#38542;&#35469;&#35388;&#12467;&#12540;&#12489;&#12399;&#32025;&#12395;&#21360;&#21047;&#12375;&#24341;&#12365;&#20986;&#12375;&#12408;</text><text fill="#000000" font-family="sans-serif" font-size="13" lengthAdjust="spacing" textLength="357.0559" x="67" y="945.3481">- &#35408;&#27450;&#27880;&#24847;: SMS&#12420;&#38651;&#35441;&#12391;&#32862;&#12363;&#12428;&#12390;&#12418;&#12467;&#12540;&#12489;&#12399;&#35504;&#12395;&#12418;&#25945;&#12360;&#12394;&#12356;</text><text fill="#000000" font-family="sans-serif" font-size="13" lengthAdjust="spacing" textLength="358.0398" x="67" y="960.481">- &#23478;&#26063;&#36899;&#32097;: &#22256;&#12387;&#12383;&#12425;&#12414;&#12378;&#23478;&#26063;&#12398;&#9675;&#9675;(&#38651;&#35441; 090-xxxx-xxxx)&#12408;</text><!--SRC=[VLLjJo9N5FxEhxZrqsuQTMLDavAuITEcJJzikudP7q0KTqcsOf0qxJVcZbOG46L555145ueWBwxuiWBwNtguTsO- -HTwxhq30QGbm-Hcvjnpd_CyppdZNWZu_6G2z2BeRQ3NU7ziXynY-R4TdY3kLV9srUDthBZz0U-2TyMz720Jtoql-dtUHQ1VG3y2FIF3thptBNk6utxo-Tvzy00z0Le1YlalGG_9OFN6uPYR8pDJXENkUFRSB5LPBKtcvXpYH3BvoeuYBeoP8QnzmpOpe9L1tv4drmLUFGnQXNqAyqpJiUmBU8ZV- -vzWFYM5En9OfQJncwEfmf0rwnCopoxC99b5hy1hTxjF02DYupQ6aREEFdU1gkckgr2ztOJj1heIT3F9Ijtx2W2MfHd4S0zQ2crmoocGGi13GEDoZGxSj4OGMZKyiRsNq0JhB75rWiEp_8Y4LWT_K8bTqGMwYIZzGcAOnB5BUYdk514ZPIhw9-qEJCtoYoIx3uSike-7iopORRvXKNtK5cZaMUnVHGNWrdjcgUGWIWB7V9iJYKMyU58jtq8sYbeHT0eQ0cWaG7SA9jpYfWF7RPvREr_PlVviR8vKJOdhrrPwIsp73DBxK4e8_XjHqoIlgkiODh85I28ZDQHxsdyooi4mHX2LdNWXldNynXXdctpypiqWwqg2a4n-41kgO7sDxyiyRNu6F87u0hojq7NWTQ5Qt6Xfu1UsaBGX29qlD6Cve6mOgp1GZVI8KMCHkc5JpxdsQsE66Gbw9EuqAUsZi1OEmbQZ6tSoIqLUyiGqo-dY56fyoosK0je5VG2wDW4QAZJGTRx7dg9h1kxBUiG2wYgOb3sRtXUU_FpBu_jE8zk6Cq8Bgpyhh31U1_DgdX4pDeNWiGW5IaUsn6rlzkvCdPBg8CPhgjkKC-dCQijDdB-CTRjP8NgXGvMDr2NGjjdNw1sab_dGMz9ubEYH9fGDiRUvdkD_y2fNjfUqUh6MjuixaaoxRP60rd1778kdj28D0- -EkF1icfahg-pOoonyiGXIFuiaj_Ci4yNYCp8fApCAQlV6zMziSpF8lC_Ud7xwp_93vxVlGiUyZ-Ex_j6fES7L51jzsEfUniqRX82asJGk6aQ3maCjhHZAxqhdDIJTffVXzXMIveh9khJFk9-FDOukKCTXgknAljMvyGChhFj7PnMjbdrFEWdeg3n-8Qjv2AsaxvMUgClXaPiyDIuJlDa0mVfqn4xCjfSJsUkwkh1oKkUTUyZv3Utrxtg_jwtjEJnpAoulLyzb-b6czKrEczwlOlE6ExFuSQx5Lqg9uWoWKjEbTuN0yarjIFG8dAy5u7ImSHckO69yI5F7eZfr2jMYIa8kSgx2Ciqv3pDYS-5-8QaUsBN_ab5y7gcpY8lldqn-GV-vEsvWDQJy5y0]--></g></svg>