<svg xmlns="http://www.w3.org/2000/svg" xmlns:xlink="http://www.w3.org/1999/xlink" contentStyleType="text/css" data-diagram-type="SEQUENCE" height="709px" preserveAspectRatio="none" style="width:905px;height:709px;background:#FFFFFF;" version="1.1" viewBox="0 0 905 709" width="905px" zoomAndPan="magnify"><title>Blender Workflow - Sectioned Sequence Diagram</title><defs/><g><text fill="#000000" font-family="sans-serif" font-size="14" font-weight="bold" lengthAdjust="spacing" textLength="388.3701" x="254.4667" y="27.9951">Blender Workflow - Sectioned Sequence Diagram</text><g><title>User</title><rect fill="#000000" fill-opacity="0.00000" height="509.8594" width="8" x="19.9551" y="118.5938"/><line style="stroke:#181818;stroke-width:0.5;stroke-dasharray:5.0,5.0;" x1="23" x2="23" y1="118.5938" y2="628.4531"/></g><g><title>VSE</title><rect fill="#000000" fill-opacity="0.00000" height="509.8594" width="8" x="264.9553" y="118.5938"/><line style="stroke:#181818;stroke-width:0.5;stroke-dasharray:5.0,5.0;" x1="268.3006" x2="268.3006" y1="118.5938" y2="628.4531"/></g><g><title>3D Modeling</title><rect fill="#000000" fill-opacity="0.00000" height="509.8594" width="8" x="346.5208" y="118.5938"/><line style="stroke:#181818;stroke-width:0.5;stroke-dasharray:5.0,5.0;" x1="349.6101" x2="349.6101" y1="118.5938" y2="628.4531"/></g><g><title>Node Editor</title><rect fill="#000000" fill-opacity="0.00000" height="509.8594" width="8" x="555.521" y="118.5938"/><line style="stroke:#181818;stroke-width:0.5;stroke-dasharray:5.0,5.0;" x1="559.3105" x2="559.3105" y1="118.5938" y2="628.4531"/></g><g><title>Compositing</title><rect fill="#000000" fill-opacity="0.00000" height="509.8594" width="8" x="838.4271" y="118.5938"/><line style="stroke:#181818;stroke-width:0.5;stroke-dasharray:5.0,5.0;" x1="841.5506" x2="841.5506" y1="118.5938" y2="628.4531"/></g><g class="participant participant-head" data-participant="User"><text fill="#000000" font-family="sans-serif" font-size="14" lengthAdjust="spacing" textLength="31.9102" x="5" y="115.292">User</text><ellipse cx="23.9551" cy="50.7969" fill="#E2E2F0" rx="8" ry="8" style="stroke:#181818;stroke-width:0.5;"/><path d="M23.9551,58.7969 L23.9551,85.7969 M10.9551,66.7969 L36.9551,66.7969 M23.9551,85.7969 L10.9551,100.7969 M23.9551,85.7969 L36.9551,100.7969" fill="none" style="stroke:#181818;stroke-width:0.5;"/></g><g class="participant participant-tail" data-participant="User"><text fill="#000000" font-family="sans-serif" font-size="14" lengthAdjust="spacing" textLength="31.9102" x="5" y="640.4482">User</text><ellipse cx="23.9551" cy="652.25" fill="#E2E2F0" rx="8" ry="8" style="stroke:#181818;stroke-width:0.5;"/><path d="M23.9551,660.25 L23.9551,687.25 M10.9551,668.25 L36.9551,668.25 M23.9551,687.25 L10.9551,702.25 M23.9551,687.25 L36.9551,702.25" fill="none" style="stroke:#181818;stroke-width:0.5;"/></g><g class="participant participant-head" data-participant="VSE"><rect fill="#E2E2F0" height="30.2969" rx="2.5" ry="2.5" style="stroke:#181818;stroke-width:0.5;" width="41.3096" x="248.3006" y="87.2969"/><text fill="#000000" font-family="sans-serif" font-size="14" lengthAdjust="spacing" textLength="27.3096" x="255.3006" y="107.292">VSE</text></g><g class="participant participant-tail" data-participant="VSE"><rect fill="#E2E2F0" height="30.2969" rx="2.5" ry="2.5" style="stroke:#181818;stroke-width:0.5;" width="41.3096" x="248.3006" y="627.4531"/><text fill="#000000" font-family="sans-serif" font-size="14" lengthAdjust="spacing" textLength="27.3096" x="255.3006" y="647.4482">VSE</text></g><g class="participant participant-head" data-participant="Modeling"><rect fill="#E2E2F0" height="30.2969" rx="2.5" ry="2.5" style="stroke:#181818;stroke-width:0.5;" width="101.8213" x="299.6101" y="87.2969"/><text fill="#000000" font-family="sans-serif" font-size="14" lengthAdjust="spacing" textLength="87.8213" x="306.6101" y="107.292">3D Modeling</text></g><g class="participant participant-tail" data-participant="Modeling"><rect fill="#E2E2F0" height="30.2969" rx="2.5" ry="2.5" style="stroke:#181818;stroke-width:0.5;" width="101.8213" x="299.6101" y="627.4531"/><text fill="#000000" font-family="sans-serif" font-size="14" lengthAdjust="spacing" textLength="87.8213" x="306.6101" y="647.4482">3D Modeling</text></g><g class="participant participant-head" data-participant="Node"><rect fill="#E2E2F0" height="30.2969" rx="2.5" ry="2.5" style="stroke:#181818;stroke-width:0.5;" width="96.4209" x="511.3105" y="87.2969"/><text fill="#000000" font-family="sans-serif" font-size="14" lengthAdjust="spacing" textLength="82.4209" x="518.3105" y="107.292">Node Editor</text></g><g class="participant participant-tail" data-participant="Node"><rect fill="#E2E2F0" height="30.2969" rx="2.5" ry="2.5" style="stroke:#181818;stroke-width:0.5;" width="96.4209" x="511.3105" y="627.4531"/><text fill="#000000" font-family="sans-serif" font-size="14" lengthAdjust="spacing" textLength="82.4209" x="518.3105" y="647.4482">Node Editor</text></g><g class="participant participant-head" data-participant="Compositing"><rect fill="#E2E2F0" height="30.2969" rx="2.5" ry="2.5" style="stroke:#181818;stroke-width:0.5;" width="101.7529" x="791.5506" y="87.2969"/><text fill="#000000" font-family="sans-serif" font-size="14" lengthAdjust="spacing" textLength="87.7529" x="798.5506" y="107.292">Compositing</text></g><g class="participant participant-tail" data-participant="Compositing"><rect fill="#E2E2F0" height="30.2969" rx="2.5" ry="2.5" style="stroke:#181818;stroke-width:0.5;" width="101.7529" x="791.5506" y="627.4531"/><text fill="#000000" font-family="sans-serif" font-size="14" lengthAdjust="spacing" textLength="87.7529" x="798.5506" y="647.4482">Compositing</text></g><rect fill="#EEEEEE" height="3" style="stroke:#EEEEEE;stroke-width:1;" width="898.3035" x="0" y="149.1602"/><line style="stroke:#000000;stroke-width:1;" x1="0" x2="898.3035" y1="149.1602" y2="149.1602"/><line style="stroke:#000000;stroke-width:1;" x1="0" x2="898.3035" y1="152.1602" y2="152.1602"/><rect fill="#EEEEEE" height="23.1328" style="stroke:#000000;stroke-width:2;" width="77.356" x="410.4738" y="138.5938"/><text fill="#000000" font-family="sans-serif" font-size="13" font-weight="bold" lengthAdjust="spacing" textLength="58.8301" x="416.4738" y="154.6606">VSE &#32232;&#38598;</text><g class="message" data-participant-1="User" data-participant-2="VSE"><polygon fill="#181818" points="256.9553,188.8594,266.9553,192.8594,256.9553,196.8594,260.9553,192.8594" style="stroke:#181818;stroke-width:1;"/><line style="stroke:#181818;stroke-width:1;" x1="23.9551" x2="262.9553" y1="192.8594" y2="192.8594"/><text fill="#000000" font-family="sans-serif" font-size="13" lengthAdjust="spacing" textLength="221.0003" x="30.9551" y="187.7935">&#32032;&#26448;&#65288;&#21205;&#30011;&#12539;&#30011;&#20687;&#12539;&#38899;&#22768;&#65289;&#12434;&#35501;&#12415;&#36796;&#12415;</text></g><g class="message" data-participant-1="User" data-participant-2="VSE"><polygon fill="#181818" points="256.9553,217.9922,266.9553,221.9922,256.9553,225.9922,260.9553,221.9922" style="stroke:#181818;stroke-width:1;"/><line style="stroke:#181818;stroke-width:1;" x1="23.9551" x2="262.9553" y1="221.9922" y2="221.9922"/><text fill="#000000" font-family="sans-serif" font-size="13" lengthAdjust="spacing" textLength="208.0002" x="30.9551" y="216.9263">&#12479;&#12452;&#12512;&#12521;&#12452;&#12531;&#12395;&#37197;&#32622;&#12539;&#12459;&#12483;&#12488;&#12539;&#32232;&#38598;</text></g><rect fill="#EEEEEE" height="3" style="stroke:#EEEEEE;stroke-width:1;" width="898.3035" x="0" y="250.5586"/><line style="stroke:#000000;stroke-width:1;" x1="0" x2="898.3035" y1="250.5586" y2="250.5586"/><line style="stroke:#000000;stroke-width:1;" x1="0" x2="898.3035" y1="253.5586" y2="253.5586"/><rect fill="#EEEEEE" height="23.1328" style="stroke:#000000;stroke-width:2;" width="206.277" x="346.0133" y="239.9922"/><text fill="#000000" font-family="sans-serif" font-size="13" font-weight="bold" lengthAdjust="spacing" textLength="187.7511" x="352.0133" y="256.0591">3D &#12514;&#12487;&#12522;&#12531;&#12464; &amp; &#12524;&#12531;&#12480;&#12522;&#12531;&#12464;</text><g class="message" data-participant-1="User" data-participant-2="Modeling"><polygon fill="#181818" points="338.5208,290.2578,348.5208,294.2578,338.5208,298.2578,342.5208,294.2578" style="stroke:#181818;stroke-width:1;"/><line style="stroke:#181818;stroke-width:1;" x1="23.9551" x2="344.5208" y1="294.2578" y2="294.2578"/><text fill="#000000" font-family="sans-serif" font-size="13" lengthAdjust="spacing" textLength="208.0002" x="30.9551" y="289.1919">&#12458;&#12502;&#12472;&#12455;&#12463;&#12488;&#12539;&#12521;&#12452;&#12488;&#12539;&#12459;&#12513;&#12521;&#35373;&#23450;</text></g><g class="message" data-participant-1="Modeling" data-participant-2="Modeling"><line style="stroke:#181818;stroke-width:1;" x1="350.5208" x2="392.5208" y1="323.3906" y2="323.3906"/><line style="stroke:#181818;stroke-width:1;" x1="392.5208" x2="392.5208" y1="323.3906" y2="336.3906"/><line style="stroke:#181818;stroke-width:1;" x1="351.5208" x2="392.5208" y1="336.3906" y2="336.3906"/><polygon fill="#181818" points="361.5208,332.3906,351.5208,336.3906,361.5208,340.3906,357.5208,336.3906" style="stroke:#181818;stroke-width:1;"/><text fill="#000000" font-family="sans-serif" font-size="13" lengthAdjust="spacing" textLength="195.0002" x="357.5208" y="318.3247">&#12450;&#12491;&#12513;&#12540;&#12471;&#12519;&#12531;&#12539;&#12510;&#12486;&#12522;&#12450;&#12523;&#35373;&#23450;</text></g><g class="message" data-participant-1="User" data-participant-2="Modeling"><polygon fill="#181818" points="338.5208,361.5234,348.5208,365.5234,338.5208,369.5234,342.5208,365.5234" style="stroke:#181818;stroke-width:1;"/><line style="stroke:#181818;stroke-width:1;" x1="23.9551" x2="344.5208" y1="365.5234" y2="365.5234"/><text fill="#000000" font-family="sans-serif" font-size="13" lengthAdjust="spacing" textLength="104.0001" x="30.9551" y="360.4575">&#12524;&#12531;&#12480;&#12522;&#12531;&#12464;&#25351;&#31034;</text></g><g class="message" data-participant-1="Modeling" data-participant-2="Node"><polygon fill="#181818" points="547.521,390.6563,557.521,394.6563,547.521,398.6563,551.521,394.6563" style="stroke:#181818;stroke-width:1;"/><line style="stroke:#181818;stroke-width:1;" x1="350.5208" x2="553.521" y1="394.6563" y2="394.6563"/><text fill="#000000" font-family="sans-serif" font-size="13" lengthAdjust="spacing" textLength="143.0002" x="357.5208" y="389.5903">&#12524;&#12531;&#12480;&#12522;&#12531;&#12464;&#32080;&#26524;&#12434;&#36865;&#20449;</text></g><rect fill="#EEEEEE" height="3" style="stroke:#EEEEEE;stroke-width:1;" width="898.3035" x="0" y="423.2227"/><line style="stroke:#000000;stroke-width:1;" x1="0" x2="898.3035" y1="423.2227" y2="423.2227"/><line style="stroke:#000000;stroke-width:1;" x1="0" x2="898.3035" y1="426.2227" y2="426.2227"/><rect fill="#EEEEEE" height="23.1328" style="stroke:#000000;stroke-width:2;" width="83.526" x="407.3888" y="412.6563"/><text fill="#000000" font-family="sans-serif" font-size="13" font-weight="bold" lengthAdjust="spacing" textLength="65.0001" x="413.3888" y="428.7231">&#12494;&#12540;&#12489;&#20966;&#29702;</text><g class="message" data-participant-1="Node" data-participant-2="Node"><line style="stroke:#181818;stroke-width:1;" x1="559.521" x2="601.521" y1="466.9219" y2="466.9219"/><line style="stroke:#181818;stroke-width:1;" x1="601.521" x2="601.521" y1="466.9219" y2="479.9219"/><line style="stroke:#181818;stroke-width:1;" x1="560.521" x2="601.521" y1="479.9219" y2="479.9219"/><polygon fill="#181818" points="570.521,475.9219,560.521,479.9219,570.521,483.9219,566.521,479.9219" style="stroke:#181818;stroke-width:1;"/><text fill="#000000" font-family="sans-serif" font-size="13" lengthAdjust="spacing" textLength="268.9061" x="566.521" y="461.856">&#12524;&#12531;&#12480;&#12540;&#12497;&#12473;&#20966;&#29702;&#65288;Z&#21512;&#25104;&#12289;&#12459;&#12521;&#12540;&#35519;&#25972;&#12394;&#12393;&#65289;</text></g><g class="message" data-participant-1="Node" data-participant-2="Compositing"><polygon fill="#181818" points="830.4271,505.0547,840.4271,509.0547,830.4271,513.0547,834.4271,509.0547" style="stroke:#181818;stroke-width:1;"/><line style="stroke:#181818;stroke-width:1;" x1="559.521" x2="836.4271" y1="509.0547" y2="509.0547"/><text fill="#000000" font-family="sans-serif" font-size="13" lengthAdjust="spacing" textLength="78.0001" x="566.521" y="503.9888">&#21512;&#25104;&#30011;&#20687;&#20986;&#21147;</text></g><rect fill="#EEEEEE" height="3" style="stroke:#EEEEEE;stroke-width:1;" width="898.3035" x="0" y="537.6211"/><line style="stroke:#000000;stroke-width:1;" x1="0" x2="898.3035" y1="537.6211" y2="537.6211"/><line style="stroke:#000000;stroke-width:1;" x1="0" x2="898.3035" y1="540.6211" y2="540.6211"/><rect fill="#EEEEEE" height="23.1328" style="stroke:#000000;stroke-width:2;" width="168.9147" x="364.6944" y="527.0547"/><text fill="#000000" font-family="sans-serif" font-size="13" font-weight="bold" lengthAdjust="spacing" textLength="150.3888" x="370.6944" y="543.1216">&#12467;&#12531;&#12509;&#12472;&#12483;&#12488; &amp; &#26368;&#32066;&#20986;&#21147;</text><g class="message" data-participant-1="Compositing" data-participant-2="VSE"><polygon fill="#181818" points="279.9553,577.3203,269.9553,581.3203,279.9553,585.3203,275.9553,581.3203" style="stroke:#181818;stroke-width:1;"/><line style="stroke:#181818;stroke-width:1;" x1="273.9553" x2="841.4271" y1="581.3203" y2="581.3203"/><text fill="#000000" font-family="sans-serif" font-size="13" lengthAdjust="spacing" textLength="194.3591" x="285.9553" y="576.2544">&#21512;&#25104;&#28168;&#12415;&#30011;&#20687;&#65295;&#26144;&#20687;&#12434;VSE&#12395;&#25147;&#12377;</text></g><g class="message" data-participant-1="VSE" data-participant-2="User"><polygon fill="#181818" points="34.9551,606.4531,24.9551,610.4531,34.9551,614.4531,30.9551,610.4531" style="stroke:#181818;stroke-width:1;"/><line style="stroke:#181818;stroke-width:1;" x1="28.9551" x2="267.9553" y1="610.4531" y2="610.4531"/><text fill="#000000" font-family="sans-serif" font-size="13" lengthAdjust="spacing" textLength="196.3269" x="40.9551" y="605.3872">&#26368;&#32066;&#21205;&#30011;&#12434;&#26360;&#12365;&#20986;&#12375;&#65288;&#20363;&#65306;MP4&#65289;</text></g><!--SRC=[RP91JnD15CVlyoac7BnnqXD9FIWSCIP4JRnjsfLiBBjrkyPhToRInOgiZIXImA94Q2j8KWYLhlJ3F7QsFVKh-6R6hItsifrv_R_V-yzxpxEyl4dlvKqxPxhqYUC-VvPtNj5PkcHcFSknpHoUNhmqxQn9vorZsJLM236odkFIHqNJ9QHWk9wLjGg6xT6PnqiBCzGeKloT_EFsF5rqScRUifUL8BrCgXvWb2xaBAGhbRnFAkuxAmMdQ7afP-nEI2OZ2zFaucXGMwMP327I8fszgy9pD3chYzrm60LnPJFvq0NUnM_CD_0m-DAElvqEepLWrNxp6FnU_oh2xmq2i1wm0-1ru0rrQ8FV6hnUJtwV80HO2pW77aYoCg4yuTk1VmLU1jwK6UoKtiB83tdcfN_1SSDfVrHD57m4rW5s2EodngVrWxJiFaRwHyVnoJOPvTxae8UAKaR0Be0VAWE8sWE-Acr8GUilP9gH_ooBj-Nau7AYe1hXD6ro7egz7MpleEHVz_PLPu2_asRuMbp-deHwP0em5OJ2zy1-QIrEyMaS1Y88eUIh3ZHGqM_snEOP-4tm6pZC4MniJP2fy_Jiu_9b_AQctR2sAhKhUwtcY7CIEwNad6cLyZUE6ks59efEW2kZkSDeGspLvNAnAcfmJKJG1VypaGcOf_exb-BrFhAgg7N0NyTgu7_25rvVLORHzkB3E_YMFm00]--></g></svg>