<svg xmlns="http://www.w3.org/2000/svg" xmlns:xlink="http://www.w3.org/1999/xlink" contentStyleType="text/css" data-diagram-type="SEQUENCE" height="1060px" preserveAspectRatio="none" style="width:956px;height:1060px;background:#FFFFFF;" version="1.1" viewBox="0 0 956 1060" width="956px" zoomAndPan="magnify"><title>Blender Workflow - With Notes (Safe Version)</title><defs/><g><text fill="#000000" font-family="sans-serif" font-size="14" font-weight="bold" lengthAdjust="spacing" textLength="361.7441" x="293.4295" y="27.9951">Blender Workflow - With Notes (Safe Version)</text><g><title>User</title><rect fill="#000000" fill-opacity="0.00000" height="861.1875" width="8" x="19.9551" y="118.5938"/><line style="stroke:#181818;stroke-width:0.5;stroke-dasharray:5.0,5.0;" x1="23" x2="23" y1="118.5938" y2="979.7813"/></g><g><title>VSE</title><rect fill="#000000" fill-opacity="0.00000" height="861.1875" width="8" x="264.9553" y="118.5938"/><line style="stroke:#181818;stroke-width:0.5;stroke-dasharray:5.0,5.0;" x1="268.3006" x2="268.3006" y1="118.5938" y2="979.7813"/></g><g><title>Modeling</title><rect fill="#000000" fill-opacity="0.00000" height="861.1875" width="8" x="334.4519" y="118.5938"/><line style="stroke:#181818;stroke-width:0.5;stroke-dasharray:5.0,5.0;" x1="337.6101" x2="337.6101" y1="118.5938" y2="979.7813"/></g><g><title>Node</title><rect fill="#000000" fill-opacity="0.00000" height="861.1875" width="8" x="543.4521" y="118.5938"/><line style="stroke:#181818;stroke-width:0.5;stroke-dasharray:5.0,5.0;" x1="547.1831" x2="547.1831" y1="118.5938" y2="979.7813"/></g><g><title>Compositing</title><rect fill="#000000" fill-opacity="0.00000" height="861.1875" width="8" x="826.3582" y="118.5938"/><line style="stroke:#181818;stroke-width:0.5;stroke-dasharray:5.0,5.0;" x1="829.4818" x2="829.4818" y1="118.5938" y2="979.7813"/></g><g class="participant participant-head" data-participant="User"><text fill="#000000" font-family="sans-serif" font-size="14" lengthAdjust="spacing" textLength="31.9102" x="5" y="115.292">User</text><ellipse cx="23.9551" cy="50.7969" fill="#E2E2F0" rx="8" ry="8" style="stroke:#181818;stroke-width:0.5;"/><path d="M23.9551,58.7969 L23.9551,85.7969 M10.9551,66.7969 L36.9551,66.7969 M23.9551,85.7969 L10.9551,100.7969 M23.9551,85.7969 L36.9551,100.7969" fill="none" style="stroke:#181818;stroke-width:0.5;"/></g><g class="participant participant-tail" data-participant="User"><text fill="#000000" font-family="sans-serif" font-size="14" lengthAdjust="spacing" textLength="31.9102" x="5" y="991.7764">User</text><ellipse cx="23.9551" cy="1003.5781" fill="#E2E2F0" rx="8" ry="8" style="stroke:#181818;stroke-width:0.5;"/><path d="M23.9551,1011.5781 L23.9551,1038.5781 M10.9551,1019.5781 L36.9551,1019.5781 M23.9551,1038.5781 L10.9551,1053.5781 M23.9551,1038.5781 L36.9551,1053.5781" fill="none" style="stroke:#181818;stroke-width:0.5;"/></g><g class="participant participant-head" data-participant="VSE"><rect fill="#E2E2F0" height="30.2969" rx="2.5" ry="2.5" style="stroke:#181818;stroke-width:0.5;" width="41.3096" x="248.3006" y="87.2969"/><text fill="#000000" font-family="sans-serif" font-size="14" lengthAdjust="spacing" textLength="27.3096" x="255.3006" y="107.292">VSE</text></g><g class="participant participant-tail" data-participant="VSE"><rect fill="#E2E2F0" height="30.2969" rx="2.5" ry="2.5" style="stroke:#181818;stroke-width:0.5;" width="41.3096" x="248.3006" y="978.7813"/><text fill="#000000" font-family="sans-serif" font-size="14" lengthAdjust="spacing" textLength="27.3096" x="255.3006" y="998.7764">VSE</text></g><g class="participant participant-head" data-participant="Modeling"><rect fill="#E2E2F0" height="30.2969" rx="2.5" ry="2.5" style="stroke:#181818;stroke-width:0.5;" width="77.6836" x="299.6101" y="87.2969"/><text fill="#000000" font-family="sans-serif" font-size="14" lengthAdjust="spacing" textLength="63.6836" x="306.6101" y="107.292">Modeling</text></g><g class="participant participant-tail" data-participant="Modeling"><rect fill="#E2E2F0" height="30.2969" rx="2.5" ry="2.5" style="stroke:#181818;stroke-width:0.5;" width="77.6836" x="299.6101" y="978.7813"/><text fill="#000000" font-family="sans-serif" font-size="14" lengthAdjust="spacing" textLength="63.6836" x="306.6101" y="998.7764">Modeling</text></g><g class="participant participant-head" data-participant="Node"><rect fill="#E2E2F0" height="30.2969" rx="2.5" ry="2.5" style="stroke:#181818;stroke-width:0.5;" width="50.5381" x="522.1831" y="87.2969"/><text fill="#000000" font-family="sans-serif" font-size="14" lengthAdjust="spacing" textLength="36.5381" x="529.1831" y="107.292">Node</text></g><g class="participant participant-tail" data-participant="Node"><rect fill="#E2E2F0" height="30.2969" rx="2.5" ry="2.5" style="stroke:#181818;stroke-width:0.5;" width="50.5381" x="522.1831" y="978.7813"/><text fill="#000000" font-family="sans-serif" font-size="14" lengthAdjust="spacing" textLength="36.5381" x="529.1831" y="998.7764">Node</text></g><g class="participant participant-head" data-participant="Compositing"><rect fill="#E2E2F0" height="30.2969" rx="2.5" ry="2.5" style="stroke:#181818;stroke-width:0.5;" width="101.7529" x="779.4818" y="87.2969"/><text fill="#000000" font-family="sans-serif" font-size="14" lengthAdjust="spacing" textLength="87.7529" x="786.4818" y="107.292">Compositing</text></g><g class="participant participant-tail" data-participant="Compositing"><rect fill="#E2E2F0" height="30.2969" rx="2.5" ry="2.5" style="stroke:#181818;stroke-width:0.5;" width="101.7529" x="779.4818" y="978.7813"/><text fill="#000000" font-family="sans-serif" font-size="14" lengthAdjust="spacing" textLength="87.7529" x="786.4818" y="998.7764">Compositing</text></g><rect fill="#EEEEEE" height="3" style="stroke:#EEEEEE;stroke-width:1;" width="949.6031" x="0" y="149.1602"/><line style="stroke:#000000;stroke-width:1;" x1="0" x2="949.6031" y1="149.1602" y2="149.1602"/><line style="stroke:#000000;stroke-width:1;" x1="0" x2="949.6031" y1="152.1602" y2="152.1602"/><rect fill="#EEEEEE" height="23.1328" style="stroke:#000000;stroke-width:2;" width="77.356" x="436.1235" y="138.5938"/><text fill="#000000" font-family="sans-serif" font-size="13" font-weight="bold" lengthAdjust="spacing" textLength="58.8301" x="442.1235" y="154.6606">VSE &#32232;&#38598;</text><g class="message" data-participant-1="User" data-participant-2="VSE"><polygon fill="#181818" points="256.9553,188.8594,266.9553,192.8594,256.9553,196.8594,260.9553,192.8594" style="stroke:#181818;stroke-width:1;"/><line style="stroke:#181818;stroke-width:1;" x1="23.9551" x2="262.9553" y1="192.8594" y2="192.8594"/><text fill="#000000" font-family="sans-serif" font-size="13" lengthAdjust="spacing" textLength="221.0003" x="30.9551" y="187.7935">&#32032;&#26448;&#65288;&#21205;&#30011;&#12539;&#30011;&#20687;&#12539;&#38899;&#22768;&#65289;&#12434;&#35501;&#12415;&#36796;&#12415;</text></g><path d="M181,205.8594 L181,230.8594 L355,230.8594 L355,215.8594 L345,205.8594 L181,205.8594" fill="#FEFFDD" style="stroke:#181818;stroke-width:0.5;"/><path d="M345,205.8594 L345,215.8594 L355,215.8594 L345,205.8594" fill="#FEFFDD" style="stroke:#181818;stroke-width:0.5;"/><text fill="#000000" font-family="sans-serif" font-size="13" lengthAdjust="spacing" textLength="153.7784" x="187" y="222.9263">&#20363;: MP4, PNG, WAV &#12394;&#12393;</text><g class="message" data-participant-1="User" data-participant-2="VSE"><polygon fill="#181818" points="256.9553,253.125,266.9553,257.125,256.9553,261.125,260.9553,257.125" style="stroke:#181818;stroke-width:1;"/><line style="stroke:#181818;stroke-width:1;" x1="23.9551" x2="262.9553" y1="257.125" y2="257.125"/><text fill="#000000" font-family="sans-serif" font-size="13" lengthAdjust="spacing" textLength="208.0002" x="30.9551" y="252.0591">&#12479;&#12452;&#12512;&#12521;&#12452;&#12531;&#12395;&#37197;&#32622;&#12539;&#12459;&#12483;&#12488;&#12539;&#32232;&#38598;</text></g><path d="M134,270.125 L134,295.125 L402,295.125 L402,280.125 L392,270.125 L134,270.125" fill="#FEFFDD" style="stroke:#181818;stroke-width:0.5;"/><path d="M392,270.125 L392,280.125 L402,280.125 L392,270.125" fill="#FEFFDD" style="stroke:#181818;stroke-width:0.5;"/><text fill="#000000" font-family="sans-serif" font-size="13" lengthAdjust="spacing" textLength="247.0003" x="140" y="287.1919">&#12488;&#12522;&#12511;&#12531;&#12464;&#12289;&#12501;&#12455;&#12540;&#12489;&#12289;&#38918;&#30058;&#20837;&#12428;&#26367;&#12360;&#12394;&#12393;</text><rect fill="#EEEEEE" height="3" style="stroke:#EEEEEE;stroke-width:1;" width="949.6031" x="0" y="320.8242"/><line style="stroke:#000000;stroke-width:1;" x1="0" x2="949.6031" y1="320.8242" y2="320.8242"/><line style="stroke:#000000;stroke-width:1;" x1="0" x2="949.6031" y1="323.8242" y2="323.8242"/><rect fill="#EEEEEE" height="23.1328" style="stroke:#000000;stroke-width:2;" width="206.277" x="371.663" y="310.2578"/><text fill="#000000" font-family="sans-serif" font-size="13" font-weight="bold" lengthAdjust="spacing" textLength="187.7511" x="377.663" y="326.3247">3D &#12514;&#12487;&#12522;&#12531;&#12464; &amp; &#12524;&#12531;&#12480;&#12522;&#12531;&#12464;</text><g class="message" data-participant-1="User" data-participant-2="Modeling"><polygon fill="#181818" points="326.4519,360.5234,336.4519,364.5234,326.4519,368.5234,330.4519,364.5234" style="stroke:#181818;stroke-width:1;"/><line style="stroke:#181818;stroke-width:1;" x1="23.9551" x2="332.4519" y1="364.5234" y2="364.5234"/><text fill="#000000" font-family="sans-serif" font-size="13" lengthAdjust="spacing" textLength="208.0002" x="30.9551" y="359.4575">&#12458;&#12502;&#12472;&#12455;&#12463;&#12488;&#12539;&#12521;&#12452;&#12488;&#12539;&#12459;&#12513;&#12521;&#35373;&#23450;</text></g><path d="M217,377.5234 L217,402.5234 L459,402.5234 L459,387.5234 L449,377.5234 L217,377.5234" fill="#FEFFDD" style="stroke:#181818;stroke-width:0.5;"/><path d="M449,377.5234 L449,387.5234 L459,387.5234 L449,377.5234" fill="#FEFFDD" style="stroke:#181818;stroke-width:0.5;"/><text fill="#000000" font-family="sans-serif" font-size="13" lengthAdjust="spacing" textLength="221.0003" x="223" y="394.5903">&#12514;&#12487;&#12522;&#12531;&#12464;&#12289;&#37197;&#32622;&#12289;&#35222;&#28857;&#12394;&#12393;&#22522;&#26412;&#35373;&#23450;</text><g class="message" data-participant-1="Modeling" data-participant-2="Modeling"><line style="stroke:#181818;stroke-width:1;" x1="338.4519" x2="380.4519" y1="428.7891" y2="428.7891"/><line style="stroke:#181818;stroke-width:1;" x1="380.4519" x2="380.4519" y1="428.7891" y2="441.7891"/><line style="stroke:#181818;stroke-width:1;" x1="339.4519" x2="380.4519" y1="441.7891" y2="441.7891"/><polygon fill="#181818" points="349.4519,437.7891,339.4519,441.7891,349.4519,445.7891,345.4519,441.7891" style="stroke:#181818;stroke-width:1;"/><text fill="#000000" font-family="sans-serif" font-size="13" lengthAdjust="spacing" textLength="195.0002" x="345.4519" y="423.7231">&#12450;&#12491;&#12513;&#12540;&#12471;&#12519;&#12531;&#12539;&#12510;&#12486;&#12522;&#12450;&#12523;&#35373;&#23450;</text></g><path d="M223,454.7891 L223,479.7891 L452,479.7891 L452,464.7891 L442,454.7891 L223,454.7891" fill="#FEFFDD" style="stroke:#181818;stroke-width:0.5;"/><path d="M442,454.7891 L442,464.7891 L452,464.7891 L442,454.7891" fill="#FEFFDD" style="stroke:#181818;stroke-width:0.5;"/><text fill="#000000" font-family="sans-serif" font-size="13" lengthAdjust="spacing" textLength="208.0002" x="229" y="471.856">&#12461;&#12540;&#12501;&#12524;&#12540;&#12512;&#12289;&#36074;&#24863;&#12289;&#33394;&#12394;&#12393;&#12434;&#36861;&#21152;</text><g class="message" data-participant-1="User" data-participant-2="Modeling"><polygon fill="#181818" points="326.4519,502.0547,336.4519,506.0547,326.4519,510.0547,330.4519,506.0547" style="stroke:#181818;stroke-width:1;"/><line style="stroke:#181818;stroke-width:1;" x1="23.9551" x2="332.4519" y1="506.0547" y2="506.0547"/><text fill="#000000" font-family="sans-serif" font-size="13" lengthAdjust="spacing" textLength="104.0001" x="30.9551" y="500.9888">&#12524;&#12531;&#12480;&#12522;&#12531;&#12464;&#25351;&#31034;</text></g><path d="M231,519.0547 L231,544.0547 L445,544.0547 L445,529.0547 L435,519.0547 L231,519.0547" fill="#FEFFDD" style="stroke:#181818;stroke-width:0.5;"/><path d="M435,519.0547 L435,529.0547 L445,529.0547 L435,519.0547" fill="#FEFFDD" style="stroke:#181818;stroke-width:0.5;"/><text fill="#000000" font-family="sans-serif" font-size="13" lengthAdjust="spacing" textLength="193.0197" x="237" y="536.1216">F12&#12461;&#12540;&#12420;&#12496;&#12483;&#12481;&#12524;&#12531;&#12480;&#12540;&#12391;&#23455;&#34892;</text><g class="message" data-participant-1="Modeling" data-participant-2="Node"><polygon fill="#181818" points="535.4521,566.3203,545.4521,570.3203,535.4521,574.3203,539.4521,570.3203" style="stroke:#181818;stroke-width:1;"/><line style="stroke:#181818;stroke-width:1;" x1="338.4519" x2="541.4521" y1="570.3203" y2="570.3203"/><text fill="#000000" font-family="sans-serif" font-size="13" lengthAdjust="spacing" textLength="143.0002" x="345.4519" y="565.2544">&#12524;&#12531;&#12480;&#12522;&#12531;&#12464;&#32080;&#26524;&#12434;&#36865;&#20449;</text></g><path d="M385,583.3203 L385,608.3203 L708,608.3203 L708,593.3203 L698,583.3203 L385,583.3203" fill="#FEFFDD" style="stroke:#181818;stroke-width:0.5;"/><path d="M698,583.3203 L698,593.3203 L708,593.3203 L698,583.3203" fill="#FEFFDD" style="stroke:#181818;stroke-width:0.5;"/><text fill="#000000" font-family="sans-serif" font-size="13" lengthAdjust="spacing" textLength="302.4787" x="391" y="600.3872">&#21508;&#31278;&#12524;&#12531;&#12480;&#12540;&#12497;&#12473;&#65288;Z, AO, Diffuse &#31561;&#65289;&#12434;&#12494;&#12540;&#12489;&#12408;</text><rect fill="#EEEEEE" height="3" style="stroke:#EEEEEE;stroke-width:1;" width="949.6031" x="0" y="634.0195"/><line style="stroke:#000000;stroke-width:1;" x1="0" x2="949.6031" y1="634.0195" y2="634.0195"/><line style="stroke:#000000;stroke-width:1;" x1="0" x2="949.6031" y1="637.0195" y2="637.0195"/><rect fill="#EEEEEE" height="23.1328" style="stroke:#000000;stroke-width:2;" width="83.526" x="433.0386" y="623.4531"/><text fill="#000000" font-family="sans-serif" font-size="13" font-weight="bold" lengthAdjust="spacing" textLength="65.0001" x="439.0386" y="639.52">&#12494;&#12540;&#12489;&#20966;&#29702;</text><g class="message" data-participant-1="Node" data-participant-2="Node"><line style="stroke:#181818;stroke-width:1;" x1="547.4521" x2="589.4521" y1="677.7188" y2="677.7188"/><line style="stroke:#181818;stroke-width:1;" x1="589.4521" x2="589.4521" y1="677.7188" y2="690.7188"/><line style="stroke:#181818;stroke-width:1;" x1="548.4521" x2="589.4521" y1="690.7188" y2="690.7188"/><polygon fill="#181818" points="558.4521,686.7188,548.4521,690.7188,558.4521,694.7188,554.4521,690.7188" style="stroke:#181818;stroke-width:1;"/><text fill="#000000" font-family="sans-serif" font-size="13" lengthAdjust="spacing" textLength="268.9061" x="554.4521" y="672.6528">&#12524;&#12531;&#12480;&#12540;&#12497;&#12473;&#20966;&#29702;&#65288;Z&#21512;&#25104;&#12289;&#12459;&#12521;&#12540;&#35519;&#25972;&#12394;&#12393;&#65289;</text></g><path d="M432,703.7188 L432,728.7188 L661,728.7188 L661,713.7188 L651,703.7188 L432,703.7188" fill="#FEFFDD" style="stroke:#181818;stroke-width:0.5;"/><path d="M651,703.7188 L651,713.7188 L661,713.7188 L651,703.7188" fill="#FEFFDD" style="stroke:#181818;stroke-width:0.5;"/><text fill="#000000" font-family="sans-serif" font-size="13" lengthAdjust="spacing" textLength="208.0002" x="438" y="720.7856">&#32972;&#26223;&#21512;&#25104;&#12289;&#12510;&#12473;&#12463;&#20966;&#29702;&#12289;&#12502;&#12521;&#12540;&#12394;&#12393;</text><g class="message" data-participant-1="Node" data-participant-2="Compositing"><polygon fill="#181818" points="818.3582,750.9844,828.3582,754.9844,818.3582,758.9844,822.3582,754.9844" style="stroke:#181818;stroke-width:1;"/><line style="stroke:#181818;stroke-width:1;" x1="547.4521" x2="824.3582" y1="754.9844" y2="754.9844"/><text fill="#000000" font-family="sans-serif" font-size="13" lengthAdjust="spacing" textLength="78.0001" x="554.4521" y="749.9185">&#21512;&#25104;&#30011;&#20687;&#20986;&#21147;</text></g><path d="M715,767.9844 L715,792.9844 L944,792.9844 L944,777.9844 L934,767.9844 L715,767.9844" fill="#FEFFDD" style="stroke:#181818;stroke-width:0.5;"/><path d="M934,767.9844 L934,777.9844 L944,777.9844 L934,767.9844" fill="#FEFFDD" style="stroke:#181818;stroke-width:0.5;"/><text fill="#000000" font-family="sans-serif" font-size="13" lengthAdjust="spacing" textLength="208.6031" x="721" y="785.0513">Final output image/frame &#12434;&#29983;&#25104;</text><rect fill="#EEEEEE" height="3" style="stroke:#EEEEEE;stroke-width:1;" width="949.6031" x="0" y="818.6836"/><line style="stroke:#000000;stroke-width:1;" x1="0" x2="949.6031" y1="818.6836" y2="818.6836"/><line style="stroke:#000000;stroke-width:1;" x1="0" x2="949.6031" y1="821.6836" y2="821.6836"/><rect fill="#EEEEEE" height="23.1328" style="stroke:#000000;stroke-width:2;" width="168.9147" x="390.3442" y="808.1172"/><text fill="#000000" font-family="sans-serif" font-size="13" font-weight="bold" lengthAdjust="spacing" textLength="150.3888" x="396.3442" y="824.1841">&#12467;&#12531;&#12509;&#12472;&#12483;&#12488; &amp; &#26368;&#32066;&#20986;&#21147;</text><g class="message" data-participant-1="Compositing" data-participant-2="VSE"><polygon fill="#181818" points="279.9553,858.3828,269.9553,862.3828,279.9553,866.3828,275.9553,862.3828" style="stroke:#181818;stroke-width:1;"/><line style="stroke:#181818;stroke-width:1;" x1="273.9553" x2="829.3582" y1="862.3828" y2="862.3828"/><text fill="#000000" font-family="sans-serif" font-size="13" lengthAdjust="spacing" textLength="194.3591" x="285.9553" y="857.3169">&#21512;&#25104;&#28168;&#12415;&#30011;&#20687;&#65295;&#26144;&#20687;&#12434;VSE&#12395;&#25147;&#12377;</text></g><path d="M206,875.3828 L206,900.3828 L331,900.3828 L331,885.3828 L321,875.3828 L206,875.3828" fill="#FEFFDD" style="stroke:#181818;stroke-width:0.5;"/><path d="M321,875.3828 L321,885.3828 L331,885.3828 L321,875.3828" fill="#FEFFDD" style="stroke:#181818;stroke-width:0.5;"/><text fill="#000000" font-family="sans-serif" font-size="13" lengthAdjust="spacing" textLength="104.0001" x="212" y="892.4497">&#26368;&#32066;&#32232;&#38598;&#12408;&#20877;&#32113;&#21512;</text><g class="message" data-participant-1="VSE" data-participant-2="User"><polygon fill="#181818" points="34.9551,922.6484,24.9551,926.6484,34.9551,930.6484,30.9551,926.6484" style="stroke:#181818;stroke-width:1;"/><line style="stroke:#181818;stroke-width:1;" x1="28.9551" x2="267.9553" y1="926.6484" y2="926.6484"/><text fill="#000000" font-family="sans-serif" font-size="13" lengthAdjust="spacing" textLength="196.3269" x="40.9551" y="921.5825">&#26368;&#32066;&#21205;&#30011;&#12434;&#26360;&#12365;&#20986;&#12375;&#65288;&#20363;&#65306;MP4&#65289;</text></g><path d="M141,939.6484 L141,964.6484 L396,964.6484 L396,949.6484 L386,939.6484 L141,939.6484" fill="#FEFFDD" style="stroke:#181818;stroke-width:0.5;"/><path d="M386,939.6484 L386,949.6484 L396,949.6484 L386,939.6484" fill="#FEFFDD" style="stroke:#181818;stroke-width:0.5;"/><text fill="#000000" font-family="sans-serif" font-size="13" lengthAdjust="spacing" textLength="234.0003" x="147" y="956.7153">&#12456;&#12463;&#12473;&#12509;&#12540;&#12488;&#35373;&#23450;&#12391;&#35299;&#20687;&#24230;&#12420;&#24418;&#24335;&#12434;&#36984;&#25246;</text><!--SRC=[VPHRJnf15CVV-HJprBG9fkdboSGcjjO-QKrCDUaRqSLkYYo1jNrbPxo0OgL4RBs2bohYjKKZwYeVvhYxyCHNw9aPm0LfNpQpPsVF_tUkkge75F8we0H7bJ0PriAV_G7jA-aWmwh-YVHhkX8XZmTzVeKCAU68gWMVU3o-4LqBamyH9Um9-SAwEgA6V46T30s-RNhlqqQLW1eSQpBsex79y4OR3saHLUSNFLrTt0jnBdALrMdIrUNnS1NIyKgOEubpbhNNarKpPisbdSLhODVujDW27YgPWhLzMZNZG5Fb_14OfVAjYKzF46CWsXTqmm7lRkSwIT_0IoyPw7_d9SFTGmICF1Zx7im0uNTRDO6MWEu0omBR5uS260ULgNddvXXbWHu0Oy1Yd4LWjmYAJtbW6VuZFOMe0ImDT0-O2IoEhvNij9FEMrE_W2RirH8OiGT0c9ONFGJO5h0PuOnx8e_GSiZFB7flTEUiNW0H15vO0bhaolH4yjO3YjNZs4HBENTa7Q-uWcYKiKMVeyiiH8toxf93BoMtbRcormvhRkvZQC2qWg7JEI5j0hq0jYSYGhODODDSZ5yu-0yLFHAfJ8jacBnEo5F8svCPVeZ_aLIyAqetrcosJPtTE0yoQYTcd9shTigzpvxNnEaaiAHe0yFb0BjlpphEb3SJ_qW3duMscivvqjvOG-HArBWhRRh4nVXOoKadTzoanBu3lSIv-EWbtU-zf4Vr-oSY2d6Eud8YW7shDPnHR6winXThPjT9og4JO6q1QqhoBjUpaZ4xbkHTpHje7s-KyoKxVIQpZkAjy6MMi9TFxd_3EcFdq1FfKbYMfAC7Or37SgqCf9Ekv1wmPgwisLMNf7kxzAf1Nu1e4tfeGYVgk6zCUUeF-yOLxC6KivX19osPeGKHzZeV6p7ZE7BsMjGvfr97vCeDqzWPaiakuYYN95dLNB1_PlcgeYcyWol4Zbs3iTooBQHxkKYmLDRql7F-6xsvoBW22edcxQppo7L8K_Pg4Onvn0FZ1vO7jrtLNC5rrrm8iPTeZYy2p3q6oEiQapE6JLlUs-QvlDh5nhPkjYoJGrUCeZsxqU3u2m00]--></g></svg>