<svg xmlns="http://www.w3.org/2000/svg" xmlns:xlink="http://www.w3.org/1999/xlink" contentStyleType="text/css" data-diagram-type="SEQUENCE" height="778px" preserveAspectRatio="none" style="width:782px;height:778px;background:#FFFFFF;" version="1.1" viewBox="0 0 782 778" width="782px" zoomAndPan="magnify"><title>Blender&#12391;&#12398;&#12524;&#12531;&#12480;&#12522;&#12531;&#12464;&#36933;&#24310;&#65306;&#21407;&#22240;&#12392;&#23550;&#20966;&#12398;&#27969;&#12428;</title><defs/><g><text fill="#000000" font-family="sans-serif" font-size="14" font-weight="bold" lengthAdjust="spacing" textLength="327.3514" x="223.47" y="27.9951">Blender&#12391;&#12398;&#12524;&#12531;&#12480;&#12522;&#12531;&#12464;&#36933;&#24310;&#65306;&#21407;&#22240;&#12392;&#23550;&#20966;&#12398;&#27969;&#12428;</text><rect fill="none" height="52.2656" style="stroke:#000000;stroke-width:1.5;" width="552.9456" x="184.2574" y="191.9922"/><rect fill="none" height="46.2656" style="stroke:#000000;stroke-width:1.5;" width="579.3859" x="10" y="330.5234"/><rect fill="none" height="46.2656" style="stroke:#000000;stroke-width:1.5;" width="660.0148" x="10" y="469.0547"/><rect fill="none" height="17.1328" style="stroke:#000000;stroke-width:1.5;" width="239.2211" x="30" y="607.5859"/><g><title>User</title><rect fill="#000000" fill-opacity="0.00000" height="669.5234" width="8" x="38.9551" y="73.5938"/><line style="stroke:#181818;stroke-width:0.5;stroke-dasharray:5.0,5.0;" x1="42" x2="42" y1="73.5938" y2="743.1172"/></g><g><title>System</title><rect fill="#000000" fill-opacity="0.00000" height="669.5234" width="8" x="223.3604" y="73.5938"/><line style="stroke:#181818;stroke-width:0.5;stroke-dasharray:5.0,5.0;" x1="227.2574" x2="227.2574" y1="73.5938" y2="743.1172"/></g><g><title>GPU</title><rect fill="#000000" fill-opacity="0.00000" height="669.5234" width="8" x="431.4743" y="73.5938"/><line style="stroke:#181818;stroke-width:0.5;stroke-dasharray:5.0,5.0;" x1="434.7053" x2="434.7053" y1="73.5938" y2="743.1172"/></g><g><title>Blender</title><rect fill="#000000" fill-opacity="0.00000" height="669.5234" width="8" x="497.3615" y="73.5938"/><line style="stroke:#181818;stroke-width:0.5;stroke-dasharray:5.0,5.0;" x1="501.2434" x2="501.2434" y1="73.5938" y2="743.1172"/></g><g><title>OS</title><rect fill="#000000" fill-opacity="0.00000" height="669.5234" width="8" x="558.4328" y="73.5938"/><line style="stroke:#181818;stroke-width:0.5;stroke-dasharray:5.0,5.0;" x1="561.4797" x2="561.4797" y1="73.5938" y2="743.1172"/></g><g><title>Website</title><rect fill="#000000" fill-opacity="0.00000" height="669.5234" width="8" x="620.7004" y="73.5938"/><line style="stroke:#181818;stroke-width:0.5;stroke-dasharray:5.0,5.0;" x1="624.3859" x2="624.3859" y1="73.5938" y2="743.1172"/></g><g class="participant participant-head" data-participant="User"><rect fill="#E2E2F0" height="30.2969" rx="2.5" ry="2.5" style="stroke:#181818;stroke-width:0.5;" width="45.9102" x="20" y="42.2969"/><text fill="#000000" font-family="sans-serif" font-size="14" lengthAdjust="spacing" textLength="31.9102" x="27" y="62.292">User</text></g><g class="participant participant-tail" data-participant="User"><rect fill="#E2E2F0" height="30.2969" rx="2.5" ry="2.5" style="stroke:#181818;stroke-width:0.5;" width="45.9102" x="20" y="742.1172"/><text fill="#000000" font-family="sans-serif" font-size="14" lengthAdjust="spacing" textLength="31.9102" x="27" y="762.1123">User</text></g><g class="participant participant-head" data-participant="System"><rect fill="#E2E2F0" height="30.2969" rx="2.5" ry="2.5" style="stroke:#181818;stroke-width:0.5;" width="66.2061" x="194.2574" y="42.2969"/><text fill="#000000" font-family="sans-serif" font-size="14" lengthAdjust="spacing" textLength="52.2061" x="201.2574" y="62.292">System</text></g><g class="participant participant-tail" data-participant="System"><rect fill="#E2E2F0" height="30.2969" rx="2.5" ry="2.5" style="stroke:#181818;stroke-width:0.5;" width="66.2061" x="194.2574" y="742.1172"/><text fill="#000000" font-family="sans-serif" font-size="14" lengthAdjust="spacing" textLength="52.2061" x="201.2574" y="762.1123">System</text></g><g class="participant participant-head" data-participant="GPU"><rect fill="#E2E2F0" height="30.2969" rx="2.5" ry="2.5" style="stroke:#181818;stroke-width:0.5;" width="43.5381" x="413.7053" y="42.2969"/><text fill="#000000" font-family="sans-serif" font-size="14" lengthAdjust="spacing" textLength="29.5381" x="420.7053" y="62.292">GPU</text></g><g class="participant participant-tail" data-participant="GPU"><rect fill="#E2E2F0" height="30.2969" rx="2.5" ry="2.5" style="stroke:#181818;stroke-width:0.5;" width="43.5381" x="413.7053" y="742.1172"/><text fill="#000000" font-family="sans-serif" font-size="14" lengthAdjust="spacing" textLength="29.5381" x="420.7053" y="762.1123">GPU</text></g><g class="participant participant-head" data-participant="Blender"><rect fill="#E2E2F0" height="30.2969" rx="2.5" ry="2.5" style="stroke:#181818;stroke-width:0.5;" width="68.2363" x="467.2434" y="42.2969"/><text fill="#000000" font-family="sans-serif" font-size="14" lengthAdjust="spacing" textLength="54.2363" x="474.2434" y="62.292">Blender</text></g><g class="participant participant-tail" data-participant="Blender"><rect fill="#E2E2F0" height="30.2969" rx="2.5" ry="2.5" style="stroke:#181818;stroke-width:0.5;" width="68.2363" x="467.2434" y="742.1172"/><text fill="#000000" font-family="sans-serif" font-size="14" lengthAdjust="spacing" textLength="54.2363" x="474.2434" y="762.1123">Blender</text></g><g class="participant participant-head" data-participant="OS"><rect fill="#E2E2F0" height="30.2969" rx="2.5" ry="2.5" style="stroke:#181818;stroke-width:0.5;" width="33.9063" x="545.4797" y="42.2969"/><text fill="#000000" font-family="sans-serif" font-size="14" lengthAdjust="spacing" textLength="19.9063" x="552.4797" y="62.292">OS</text></g><g class="participant participant-tail" data-participant="OS"><rect fill="#E2E2F0" height="30.2969" rx="2.5" ry="2.5" style="stroke:#181818;stroke-width:0.5;" width="33.9063" x="545.4797" y="742.1172"/><text fill="#000000" font-family="sans-serif" font-size="14" lengthAdjust="spacing" textLength="19.9063" x="552.4797" y="762.1123">OS</text></g><g class="participant participant-head" data-participant="Website"><rect fill="#E2E2F0" height="30.2969" rx="2.5" ry="2.5" style="stroke:#181818;stroke-width:0.5;" width="70.6289" x="589.3859" y="42.2969"/><text fill="#000000" font-family="sans-serif" font-size="14" lengthAdjust="spacing" textLength="56.6289" x="596.3859" y="62.292">Website</text></g><g class="participant participant-tail" data-participant="Website"><rect fill="#E2E2F0" height="30.2969" rx="2.5" ry="2.5" style="stroke:#181818;stroke-width:0.5;" width="70.6289" x="589.3859" y="742.1172"/><text fill="#000000" font-family="sans-serif" font-size="14" lengthAdjust="spacing" textLength="56.6289" x="596.3859" y="762.1123">Website</text></g><rect fill="#EEEEEE" height="3" style="stroke:#EEEEEE;stroke-width:1;" width="775.2913" x="0" y="104.1602"/><line style="stroke:#000000;stroke-width:1;" x1="0" x2="775.2913" y1="104.1602" y2="104.1602"/><line style="stroke:#000000;stroke-width:1;" x1="0" x2="775.2913" y1="107.1602" y2="107.1602"/><rect fill="#EEEEEE" height="23.1328" style="stroke:#000000;stroke-width:2;" width="96.526" x="339.3827" y="93.5938"/><text fill="#000000" font-family="sans-serif" font-size="13" font-weight="bold" lengthAdjust="spacing" textLength="78.0001" x="345.3827" y="109.6606">&#29872;&#22659;&#12481;&#12455;&#12483;&#12463;</text><g class="message" data-participant-1="User" data-participant-2="System"><polygon fill="#181818" points="215.3604,143.8594,225.3604,147.8594,215.3604,151.8594,219.3604,147.8594" style="stroke:#181818;stroke-width:1;"/><line style="stroke:#181818;stroke-width:1;" x1="42.9551" x2="221.3604" y1="147.8594" y2="147.8594"/><text fill="#000000" font-family="sans-serif" font-size="13" lengthAdjust="spacing" textLength="160.4053" x="49.9551" y="142.7935">Blender&#36215;&#21205;&#65288;Ctrl+F12&#65289;</text></g><g class="message" data-participant-1="System" data-participant-2="GPU"><polygon fill="#181818" points="423.4743,172.9922,433.4743,176.9922,423.4743,180.9922,427.4743,176.9922" style="stroke:#181818;stroke-width:1;"/><line style="stroke:#181818;stroke-width:1;" x1="227.3604" x2="429.4743" y1="176.9922" y2="176.9922"/><text fill="#000000" font-family="sans-serif" font-size="13" lengthAdjust="spacing" textLength="184.1139" x="234.3604" y="171.9263">&#20351;&#29992;&#29366;&#27841;&#12434;&#30906;&#35469;&#65288;nvidia-smi&#65289;</text></g><path d="M184.2574,191.9922 L248.7003,191.9922 L248.7003,199.125 L238.7003,209.125 L184.2574,209.125 L184.2574,191.9922" fill="#EEEEEE" style="stroke:#000000;stroke-width:1.5;"/><rect fill="none" height="52.2656" style="stroke:#000000;stroke-width:1.5;" width="552.9456" x="184.2574" y="191.9922"/><text fill="#000000" font-family="sans-serif" font-size="13" font-weight="bold" lengthAdjust="spacing" textLength="19.4429" x="199.2574" y="205.0591">alt</text><text fill="#000000" font-family="sans-serif" font-size="11" font-weight="bold" lengthAdjust="spacing" textLength="80.0773" x="263.7003" y="204.2026">[GPU&#12364;&#26410;&#20351;&#29992;]</text><g class="message" data-participant-1="System" data-participant-2="Blender"><polygon fill="#181818" points="489.3615,229.2578,499.3615,233.2578,489.3615,237.2578,493.3615,233.2578" style="stroke:#181818;stroke-width:1;"/><line style="stroke:#181818;stroke-width:1;" x1="227.3604" x2="495.3615" y1="233.2578" y2="233.2578"/><text fill="#000000" font-family="sans-serif" font-size="13" lengthAdjust="spacing" textLength="195.4318" x="234.3604" y="228.1919">CPU&#12524;&#12531;&#12480;&#12522;&#12531;&#12464;&#12364;&#36984;&#12400;&#12428;&#12390;&#12356;&#12427;</text></g><path d="M506,214.125 L506,239.125 L721,239.125 L721,224.125 L711,214.125 L506,214.125" fill="#FEFFDD" style="stroke:#181818;stroke-width:0.5;"/><path d="M711,214.125 L711,224.125 L721,224.125 L711,214.125" fill="#FEFFDD" style="stroke:#181818;stroke-width:0.5;"/><text fill="#000000" font-family="sans-serif" font-size="13" lengthAdjust="spacing" textLength="194.8414" x="512" y="231.1919">&#35373;&#23450;&#12434;&#12300;GPU Compute&#12301;&#12395;&#22793;&#26356;</text><rect fill="#EEEEEE" height="3" style="stroke:#EEEEEE;stroke-width:1;" width="775.2913" x="0" y="271.8242"/><line style="stroke:#000000;stroke-width:1;" x1="0" x2="775.2913" y1="271.8242" y2="271.8242"/><line style="stroke:#000000;stroke-width:1;" x1="0" x2="775.2913" y1="274.8242" y2="274.8242"/><rect fill="#EEEEEE" height="23.1328" style="stroke:#000000;stroke-width:2;" width="135.526" x="319.8827" y="261.2578"/><text fill="#000000" font-family="sans-serif" font-size="13" font-weight="bold" lengthAdjust="spacing" textLength="117.0001" x="325.8827" y="277.3247">&#12497;&#12501;&#12457;&#12540;&#12510;&#12531;&#12473;&#35373;&#23450;</text><g class="message" data-participant-1="User" data-participant-2="OS"><polygon fill="#181818" points="550.4328,311.5234,560.4328,315.5234,550.4328,319.5234,554.4328,315.5234" style="stroke:#181818;stroke-width:1;"/><line style="stroke:#181818;stroke-width:1;" x1="42.9551" x2="556.4328" y1="315.5234" y2="315.5234"/><text fill="#000000" font-family="sans-serif" font-size="13" lengthAdjust="spacing" textLength="189.7569" x="49.9551" y="310.4575">power-profiles-daemon&#12398;&#30906;&#35469;</text></g><path d="M10,330.5234 L74.4429,330.5234 L74.4429,337.6563 L64.4429,347.6563 L10,347.6563 L10,330.5234" fill="#EEEEEE" style="stroke:#000000;stroke-width:1.5;"/><rect fill="none" height="46.2656" style="stroke:#000000;stroke-width:1.5;" width="579.3859" x="10" y="330.5234"/><text fill="#000000" font-family="sans-serif" font-size="13" font-weight="bold" lengthAdjust="spacing" textLength="19.4429" x="25" y="343.5903">alt</text><text fill="#000000" font-family="sans-serif" font-size="11" font-weight="bold" lengthAdjust="spacing" textLength="76.0542" x="89.4429" y="342.7339">[&#30465;&#38651;&#21147;&#12514;&#12540;&#12489;]</text><g class="message" data-participant-1="OS" data-participant-2="User"><polygon fill="#181818" points="53.9551,364.7891,43.9551,368.7891,53.9551,372.7891,49.9551,368.7891" style="stroke:#181818;stroke-width:1;"/><line style="stroke:#181818;stroke-width:1;" x1="47.9551" x2="561.4328" y1="368.7891" y2="368.7891"/><text fill="#000000" font-family="sans-serif" font-size="13" lengthAdjust="spacing" textLength="195.0002" x="59.9551" y="363.7231">&#12497;&#12501;&#12457;&#12540;&#12510;&#12531;&#12473;&#12514;&#12540;&#12489;&#12408;&#20999;&#26367;&#25512;&#22888;</text></g><rect fill="#EEEEEE" height="3" style="stroke:#EEEEEE;stroke-width:1;" width="775.2913" x="0" y="404.3555"/><line style="stroke:#000000;stroke-width:1;" x1="0" x2="775.2913" y1="404.3555" y2="404.3555"/><line style="stroke:#000000;stroke-width:1;" x1="0" x2="775.2913" y1="407.3555" y2="407.3555"/><rect fill="#EEEEEE" height="23.1328" style="stroke:#000000;stroke-width:2;" width="179.4962" x="297.8976" y="393.7891"/><text fill="#000000" font-family="sans-serif" font-size="13" font-weight="bold" lengthAdjust="spacing" textLength="160.9703" x="303.8976" y="409.856">Blender&#12452;&#12531;&#12473;&#12488;&#12540;&#12523;&#24418;&#24335;</text><g class="message" data-participant-1="User" data-participant-2="OS"><polygon fill="#181818" points="550.4328,447.0547,560.4328,451.0547,550.4328,455.0547,554.4328,451.0547" style="stroke:#181818;stroke-width:1;"/><line style="stroke:#181818;stroke-width:1;" x1="42.9551" x2="556.4328" y1="451.0547" y2="451.0547"/><text fill="#000000" font-family="sans-serif" font-size="13" lengthAdjust="spacing" textLength="193.3625" x="49.9551" y="445.9888">Blender&#12398;&#12452;&#12531;&#12473;&#12488;&#12540;&#12523;&#24418;&#24335;&#30906;&#35469;</text></g><path d="M567,431.9219 L567,456.9219 L764,456.9219 L764,441.9219 L754,431.9219 L567,431.9219" fill="#FEFFDD" style="stroke:#181818;stroke-width:0.5;"/><path d="M754,431.9219 L754,441.9219 L764,441.9219 L754,431.9219" fill="#FEFFDD" style="stroke:#181818;stroke-width:0.5;"/><text fill="#000000" font-family="sans-serif" font-size="13" lengthAdjust="spacing" textLength="176.8585" x="573" y="448.9888">Sandboxed&#12391;&#36933;&#12356;&#12371;&#12392;&#12364;&#12354;&#12427;</text><path d="M10,469.0547 L74.4429,469.0547 L74.4429,476.1875 L64.4429,486.1875 L10,486.1875 L10,469.0547" fill="#EEEEEE" style="stroke:#000000;stroke-width:1.5;"/><rect fill="none" height="46.2656" style="stroke:#000000;stroke-width:1.5;" width="660.0148" x="10" y="469.0547"/><text fill="#000000" font-family="sans-serif" font-size="13" font-weight="bold" lengthAdjust="spacing" textLength="19.4429" x="25" y="482.1216">alt</text><text fill="#000000" font-family="sans-serif" font-size="11" font-weight="bold" lengthAdjust="spacing" textLength="91.7007" x="89.4429" y="481.2651">[Snap/Flatpak]</text><g class="message" data-participant-1="User" data-participant-2="Website"><polygon fill="#181818" points="612.7004,503.3203,622.7004,507.3203,612.7004,511.3203,616.7004,507.3203" style="stroke:#181818;stroke-width:1;"/><line style="stroke:#181818;stroke-width:1;" x1="42.9551" x2="618.7004" y1="507.3203" y2="507.3203"/><text fill="#000000" font-family="sans-serif" font-size="13" lengthAdjust="spacing" textLength="170.6314" x="49.9551" y="502.2544">blender.org&#12363;&#12425;&#12496;&#12452;&#12490;&#12522;DL</text></g><rect fill="#EEEEEE" height="3" style="stroke:#EEEEEE;stroke-width:1;" width="775.2913" x="0" y="542.8867"/><line style="stroke:#000000;stroke-width:1;" x1="0" x2="775.2913" y1="542.8867" y2="542.8867"/><line style="stroke:#000000;stroke-width:1;" x1="0" x2="775.2913" y1="545.8867" y2="545.8867"/><rect fill="#EEEEEE" height="23.1328" style="stroke:#000000;stroke-width:2;" width="135.526" x="319.8827" y="532.3203"/><text fill="#000000" font-family="sans-serif" font-size="13" font-weight="bold" lengthAdjust="spacing" textLength="117.0001" x="325.8827" y="548.3872">&#12473;&#12488;&#12524;&#12540;&#12472;&#12392;&#20986;&#21147;&#20808;</text><g class="message" data-participant-1="User" data-participant-2="Blender"><polygon fill="#181818" points="489.3615,585.5859,499.3615,589.5859,489.3615,593.5859,493.3615,589.5859" style="stroke:#181818;stroke-width:1;"/><line style="stroke:#181818;stroke-width:1;" x1="42.9551" x2="495.3615" y1="589.5859" y2="589.5859"/><text fill="#000000" font-family="sans-serif" font-size="13" lengthAdjust="spacing" textLength="156.0002" x="49.9551" y="584.52">&#20986;&#21147;&#20808;&#12487;&#12451;&#12524;&#12463;&#12488;&#12522;&#12434;&#30906;&#35469;</text></g><path d="M506,570.4531 L506,595.4531 L644,595.4531 L644,580.4531 L634,570.4531 L506,570.4531" fill="#FEFFDD" style="stroke:#181818;stroke-width:0.5;"/><path d="M634,570.4531 L634,580.4531 L644,580.4531 L634,570.4531" fill="#FEFFDD" style="stroke:#181818;stroke-width:0.5;"/><text fill="#000000" font-family="sans-serif" font-size="13" lengthAdjust="spacing" textLength="117.5143" x="512" y="587.52">&#20986;&#21147;&#20808;&#12434;SSD&#12395;&#22793;&#26356;</text><path d="M30,607.5859 L94.4429,607.5859 L94.4429,614.7188 L84.4429,624.7188 L30,624.7188 L30,607.5859" fill="#EEEEEE" style="stroke:#000000;stroke-width:1.5;"/><rect fill="none" height="17.1328" style="stroke:#000000;stroke-width:1.5;" width="239.2211" x="30" y="607.5859"/><text fill="#000000" font-family="sans-serif" font-size="13" font-weight="bold" lengthAdjust="spacing" textLength="19.4429" x="45" y="620.6528">alt</text><text fill="#000000" font-family="sans-serif" font-size="11" font-weight="bold" lengthAdjust="spacing" textLength="154.7782" x="109.4429" y="619.7964">[USB/HDD&#12394;&#12393;&#36933;&#12356;&#12513;&#12487;&#12451;&#12450;]</text><rect fill="#EEEEEE" height="3" style="stroke:#EEEEEE;stroke-width:1;" width="775.2913" x="0" y="652.2852"/><line style="stroke:#000000;stroke-width:1;" x1="0" x2="775.2913" y1="652.2852" y2="652.2852"/><line style="stroke:#000000;stroke-width:1;" x1="0" x2="775.2913" y1="655.2852" y2="655.2852"/><rect fill="#EEEEEE" height="23.1328" style="stroke:#000000;stroke-width:2;" width="83.526" x="345.8827" y="641.7188"/><text fill="#000000" font-family="sans-serif" font-size="13" font-weight="bold" lengthAdjust="spacing" textLength="65.0001" x="351.8827" y="657.7856">&#20840;&#20307;&#26368;&#36969;&#21270;</text><g class="message" data-participant-1="User" data-participant-2="Blender"><polygon fill="#181818" points="489.3615,691.9844,499.3615,695.9844,489.3615,699.9844,493.3615,695.9844" style="stroke:#181818;stroke-width:1;"/><line style="stroke:#181818;stroke-width:1;" x1="42.9551" x2="495.3615" y1="695.9844" y2="695.9844"/><text fill="#000000" font-family="sans-serif" font-size="13" lengthAdjust="spacing" textLength="201.0431" x="49.9551" y="690.9185">&#12524;&#12531;&#12480;&#12522;&#12531;&#12464;&#20877;&#23455;&#34892;&#65288;Ctrl+F12&#65289;</text></g><g class="message" data-participant-1="Blender" data-participant-2="System"><polygon fill="#181818" points="238.3604,721.1172,228.3604,725.1172,238.3604,729.1172,234.3604,725.1172" style="stroke:#181818;stroke-width:1;"/><line style="stroke:#181818;stroke-width:1;" x1="232.3604" x2="500.3615" y1="725.1172" y2="725.1172"/><text fill="#000000" font-family="sans-serif" font-size="13" lengthAdjust="spacing" textLength="118.4283" x="244.3604" y="720.0513">GPU&#12364;&#20351;&#12431;&#12428;&#39640;&#36895;&#21270;</text></g><!--SRC=[TLDDRn9H5DtFhvYzmKQN9BWefBemqMH2N0zXh1E76JACNplUUoBVhL9hJ25YiLe-Af3KLcp1_fZRDy2Al-2T6Ru2TKU6UyuzvxnpBTNI575JK_IeOW8v1j86TWBi55WIMDFvGRjZakANvvF-0T-fyl9N87NU-SlJFt3OFYD02u8G28Z3KfVN633yS0oC0Us8WO0GJYYcwBidIcyIbX8J_RDTexFVFBy_wMU2bgdTshfpTzBF2jCX7B__E8opruEhuSVwC7Tkdo9hQLYx63MBYD5Vgb5LzYLYgeEIDSkP1rAmAqqF8eZYWckw4Vc2EBNc3d5ZqWFIHID0qDHRe7aaq0rB4Krr-vdb5qVrdxnzW18WMN2a1OrO_8MbGB88fCMFidRvbu1Bt1o0VG2s3xG1h0_iYxlaZqUm7CWZ2GN5ZLUAwOkRnbDLKnA-gAp431rZzPowpeOLCYvVybmPMCrbpA8s12E5I-M_UU5y6aYFPz9s-ShUgVFlzRdCsPlJenaWum9QV53Z_TqrgVEEjFy7MH8jwN9yOqkJhRZyV2LAITQZ4UEr4iMsOR6SkCaULWgV0GZrefyjVg944Yf2_MB4stxRCBU1v85cWRrtTUJm7KCF5-5FLPqumcZFgMhw0iFZgSooeqKbvdy3ImFzvY1fnwLepXldMWfBcniFGY4WJI2DgN1sE4NHsehB1IqjIL9elIKyLRyUxDcLv9WqUE7JpUBMoyhV5NcxEZeih5pE3BDyQTvDu440tSLkZrkVnyagxle7]--></g></svg>