<svg xmlns="http://www.w3.org/2000/svg" xmlns:xlink="http://www.w3.org/1999/xlink" contentStyleType="text/css" data-diagram-type="SEQUENCE" height="456px" preserveAspectRatio="none" style="width:426px;height:456px;background:#FFFFFF;" version="1.1" viewBox="0 0 426 456" width="426px" zoomAndPan="magnify"><defs/><g><g><title>Developer &#128104;&#8205;&#128187;</title><rect fill="#000000" fill-opacity="0.00000" height="294.0625" width="8" x="50.6279" y="81.2969"/><line style="stroke:#181818;stroke-width:0.5;stroke-dasharray:5.0,5.0;" x1="54" x2="54" y1="81.2969" y2="375.3594"/></g><g><title>&#129302; Git Bot</title><rect fill="#000000" fill-opacity="0.00000" height="294.0625" width="8" x="223.1315" y="81.2969"/><line style="stroke:#181818;stroke-width:0.5;stroke-dasharray:5.0,5.0;" x1="226.6853" x2="226.6853" y1="81.2969" y2="375.3594"/></g><g><title>&#128451;&#65039; Remote Repo</title><rect fill="#000000" fill-opacity="0.00000" height="294.0625" width="8" x="349.4483" y="81.2969"/><line style="stroke:#181818;stroke-width:0.5;stroke-dasharray:5.0,5.0;" x1="352.5777" x2="352.5777" y1="81.2969" y2="375.3594"/></g><g class="participant participant-head" data-participant="Dev"><text fill="#000000" font-family="sans-serif" font-size="14" lengthAdjust="spacing" textLength="93.2559" x="5" y="77.9951">Developer &#128104;&#8205;&#128187;</text><ellipse cx="54.6279" cy="13.5" fill="#E2E2F0" rx="8" ry="8" style="stroke:#181818;stroke-width:0.5;"/><path d="M54.6279,21.5 L54.6279,48.5 M41.6279,29.5 L67.6279,29.5 M54.6279,48.5 L41.6279,63.5 M54.6279,48.5 L67.6279,63.5" fill="none" style="stroke:#181818;stroke-width:0.5;"/></g><g class="participant participant-tail" data-participant="Dev"><text fill="#000000" font-family="sans-serif" font-size="14" lengthAdjust="spacing" textLength="93.2559" x="5" y="387.3545">Developer &#128104;&#8205;&#128187;</text><ellipse cx="54.6279" cy="399.1563" fill="#E2E2F0" rx="8" ry="8" style="stroke:#181818;stroke-width:0.5;"/><path d="M54.6279,407.1563 L54.6279,434.1563 M41.6279,415.1563 L67.6279,415.1563 M54.6279,434.1563 L41.6279,449.1563 M54.6279,434.1563 L67.6279,449.1563" fill="none" style="stroke:#181818;stroke-width:0.5;"/></g><g class="participant participant-head" data-participant="Git"><rect fill="#E2E2F0" height="46.5938" rx="2.5" ry="2.5" style="stroke:#181818;stroke-width:0.5;" width="110.8925" x="171.6853" y="33.7031"/><text fill="#000000" font-family="sans-serif" font-size="14" lengthAdjust="spacing" textLength="61.1885" x="196.5372" y="53.6982">&#129302; Git Bot</text><text fill="#000000" font-family="sans-serif" font-size="14" lengthAdjust="spacing" textLength="96.8925" x="178.6853" y="69.9951">[&#38996;:&#9679;&#8255;&#9679; &#25163;:&#129302;]</text></g><g class="participant participant-tail" data-participant="Git"><rect fill="#E2E2F0" height="46.5938" rx="2.5" ry="2.5" style="stroke:#181818;stroke-width:0.5;" width="110.8925" x="171.6853" y="374.3594"/><text fill="#000000" font-family="sans-serif" font-size="14" lengthAdjust="spacing" textLength="61.1885" x="196.5372" y="394.3545">&#129302; Git Bot</text><text fill="#000000" font-family="sans-serif" font-size="14" lengthAdjust="spacing" textLength="96.8925" x="178.6853" y="410.6514">[&#38996;:&#9679;&#8255;&#9679; &#25163;:&#129302;]</text></g><g class="participant participant-head" data-participant="Remote"><rect fill="#E2E2F0" height="30.2969" rx="2.5" ry="2.5" style="stroke:#181818;stroke-width:0.5;" width="121.7412" x="292.5777" y="50"/><text fill="#000000" font-family="sans-serif" font-size="14" lengthAdjust="spacing" textLength="107.7412" x="299.5777" y="69.9951">&#128451;&#65039; Remote Repo</text></g><g class="participant participant-tail" data-participant="Remote"><rect fill="#E2E2F0" height="30.2969" rx="2.5" ry="2.5" style="stroke:#181818;stroke-width:0.5;" width="121.7412" x="292.5777" y="374.3594"/><text fill="#000000" font-family="sans-serif" font-size="14" lengthAdjust="spacing" textLength="107.7412" x="299.5777" y="394.3545">&#128451;&#65039; Remote Repo</text></g><rect fill="#EEEEEE" height="3" style="stroke:#EEEEEE;stroke-width:1;" width="419.3189" x="0" y="111.8633"/><line style="stroke:#000000;stroke-width:1;" x1="0" x2="419.3189" y1="111.8633" y2="111.8633"/><line style="stroke:#000000;stroke-width:1;" x1="0" x2="419.3189" y1="114.8633" y2="114.8633"/><rect fill="#EEEEEE" height="23.1328" style="stroke:#000000;stroke-width:2;" width="70.5259" x="174.3965" y="101.2969"/><text fill="#000000" font-family="sans-serif" font-size="13" font-weight="bold" lengthAdjust="spacing" textLength="52.0001" x="180.3965" y="117.3638">&#12467;&#12511;&#12483;&#12488;</text><g class="message" data-participant-1="Dev" data-participant-2="Git"><polygon fill="#181818" points="215.1315,151.5625,225.1315,155.5625,215.1315,159.5625,219.1315,155.5625" style="stroke:#181818;stroke-width:1;"/><line style="stroke:#181818;stroke-width:1;" x1="54.6279" x2="221.1315" y1="155.5625" y2="155.5625"/><text fill="#000000" font-family="sans-serif" font-size="13" lengthAdjust="spacing" textLength="127.1373" x="77.3111" y="150.4966">commit&#65288;&#20445;&#23384;&#12375;&#12390;&#65289;</text></g><g class="message" data-participant-1="Git" data-participant-2="Git"><line style="stroke:#181818;stroke-width:1;" x1="227.1315" x2="269.1315" y1="184.6953" y2="184.6953"/><line style="stroke:#181818;stroke-width:1;" x1="269.1315" x2="269.1315" y1="184.6953" y2="197.6953"/><line style="stroke:#181818;stroke-width:1;" x1="228.1315" x2="269.1315" y1="197.6953" y2="197.6953"/><polygon fill="#181818" points="238.1315,193.6953,228.1315,197.6953,238.1315,201.6953,234.1315,197.6953" style="stroke:#181818;stroke-width:1;"/><text fill="#000000" font-family="sans-serif" font-size="13" lengthAdjust="spacing" textLength="78.0001" x="234.1315" y="179.6294">&#12525;&#12540;&#12459;&#12523;&#35352;&#37682;</text></g><rect fill="#EEEEEE" height="3" style="stroke:#EEEEEE;stroke-width:1;" width="419.3189" x="0" y="226.2617"/><line style="stroke:#000000;stroke-width:1;" x1="0" x2="419.3189" y1="226.2617" y2="226.2617"/><line style="stroke:#000000;stroke-width:1;" x1="0" x2="419.3189" y1="229.2617" y2="229.2617"/><rect fill="#EEEEEE" height="23.1328" style="stroke:#000000;stroke-width:2;" width="70.5259" x="174.3965" y="215.6953"/><text fill="#000000" font-family="sans-serif" font-size="13" font-weight="bold" lengthAdjust="spacing" textLength="52.0001" x="180.3965" y="231.7622">&#12503;&#12483;&#12471;&#12517;</text><g class="message" data-participant-1="Dev" data-participant-2="Git"><polygon fill="#181818" points="215.1315,265.9609,225.1315,269.9609,215.1315,273.9609,219.1315,269.9609" style="stroke:#181818;stroke-width:1;"/><line style="stroke:#181818;stroke-width:1;" x1="54.6279" x2="221.1315" y1="269.9609" y2="269.9609"/><text fill="#000000" font-family="sans-serif" font-size="13" lengthAdjust="spacing" textLength="148.5036" x="66.6279" y="264.895">push&#65288;&#12522;&#12514;&#12540;&#12488;&#12395;&#36865;&#20449;&#65289;</text></g><g class="message" data-participant-1="Git" data-participant-2="Remote"><polygon fill="#181818" points="341.4483,295.0938,351.4483,299.0938,341.4483,303.0938,345.4483,299.0938" style="stroke:#181818;stroke-width:1;"/><line style="stroke:#181818;stroke-width:1;" x1="227.1315" x2="347.4483" y1="299.0938" y2="299.0938"/><text fill="#000000" font-family="sans-serif" font-size="13" lengthAdjust="spacing" textLength="51.397" x="264.5914" y="294.0278">&#36578;&#36865;&#20013;...</text></g><g class="message" data-participant-1="Remote" data-participant-2="Git"><polygon fill="#181818" points="238.1315,324.2266,228.1315,328.2266,238.1315,332.2266,234.1315,328.2266" style="stroke:#181818;stroke-width:1;"/><line style="stroke:#181818;stroke-width:1;stroke-dasharray:2.0,2.0;" x1="232.1315" x2="352.4483" y1="328.2266" y2="328.2266"/><text fill="#000000" font-family="sans-serif" font-size="13" lengthAdjust="spacing" textLength="52.0001" x="264.2899" y="323.1606">&#21463;&#20449;&#23436;&#20102;</text></g><g class="message" data-participant-1="Git" data-participant-2="Dev"><polygon fill="#181818" points="65.6279,353.3594,55.6279,357.3594,65.6279,361.3594,61.6279,357.3594" style="stroke:#181818;stroke-width:1;"/><line style="stroke:#181818;stroke-width:1;" x1="59.6279" x2="226.1315" y1="357.3594" y2="357.3594"/><text fill="#000000" font-family="sans-serif" font-size="13" lengthAdjust="spacing" textLength="70.5035" x="105.628" y="352.2935">push&#25104;&#21151;&#65281;</text></g><!--SRC=[PP1FIm916CRlyodUl7ZA3x1WK0GTeeBeLX73DjcM-wVTKQgJwrHO6LQ4wo5PYef83Ab3aeBVPSSLFUb7Q7RLaBgymypp_9vdUAFWbVFW5vwuVT9zBNLRjNupjxpGRvvBA0fJXeaJAeQ4YOtTj7AyjQrJs1C32T6xFuLEiSPjPv9TMGpPCPd4HtgAWgKIYZMCaBMlQ0OsiGhRP0UdadID7DBPf9BGLA9HaCKWveJB8WSfeibaYLWMJf3GENOXB5FTXCWyIPEaRX0J1kxDgvUv6hYtZGXW2uI2H0vLPCN08ZuoS9-AiA1GcDFfXhRUUxYJFAVWPLfYGkVyKWeCco4hN7zPX_Nh1LWbgaw9E0mzD0xl2CNZmBEVdBcSCSvo48yZqG_JCs6X1BAkgWeLAsgtodwr5ExjHImB1VAlYxCgPqsUhN1M4KljvJ-6oSm9OhDVd3t_IpPIrgx8vUoDiyU0PZbkLtePkzrwc2WOVLo2RkCn4ElLM2o6Hg_Jlsb-mH6S_vvlVv-DqQ1ksDF9NViNRhzf_m00]--></g></svg>