<svg xmlns="http://www.w3.org/2000/svg" xmlns:xlink="http://www.w3.org/1999/xlink" contentStyleType="text/css" data-diagram-type="SEQUENCE" height="444px" preserveAspectRatio="none" style="width:746px;height:444px;background:#FFFFFF;" version="1.1" viewBox="0 0 746 444" width="746px" zoomAndPan="magnify"><title>Git Alias Flow from ~/.gitconfig</title><defs/><g><text fill="#000000" font-family="sans-serif" font-size="14" font-weight="bold" lengthAdjust="spacing" textLength="235.5459" x="254.3459" y="27.9951">Git Alias Flow from /.gitconfig</text><g><title>Developer</title><rect fill="#000000" fill-opacity="0.00000" height="245.0625" width="8" x="40.0015" y="118.5938"/><line style="stroke:#181818;stroke-width:0.5;stroke-dasharray:5.0,5.0;" x1="44" x2="44" y1="118.5938" y2="363.6563"/></g><g><title>GitConfig</title><rect fill="#000000" fill-opacity="0.00000" height="245.0625" width="8" x="229.6689" y="118.5938"/><line style="stroke:#181818;stroke-width:0.5;stroke-dasharray:5.0,5.0;" x1="233.0957" x2="233.0957" y1="118.5938" y2="363.6563"/></g><g><title>Terminal</title><rect fill="#000000" fill-opacity="0.00000" height="245.0625" width="8" x="317.1372" y="118.5938"/><line style="stroke:#181818;stroke-width:0.5;stroke-dasharray:5.0,5.0;" x1="320.2422" x2="320.2422" y1="118.5938" y2="363.6563"/></g><g><title>Git</title><rect fill="#000000" fill-opacity="0.00000" height="245.0625" width="8" x="533.3252" y="118.5938"/><line style="stroke:#181818;stroke-width:0.5;stroke-dasharray:5.0,5.0;" x1="537.2114" x2="537.2114" y1="118.5938" y2="363.6563"/></g><g><title>RemoteRepo</title><rect fill="#000000" fill-opacity="0.00000" height="245.0625" width="8" x="684.0181" y="118.5938"/><line style="stroke:#181818;stroke-width:0.5;stroke-dasharray:5.0,5.0;" x1="687.7983" x2="687.7983" y1="118.5938" y2="363.6563"/></g><g class="participant participant-head" data-participant="Developer"><text fill="#000000" font-family="sans-serif" font-size="14" lengthAdjust="spacing" textLength="72.0029" x="5" y="115.292">Developer</text><ellipse cx="44.0015" cy="50.7969" fill="#E2E2F0" rx="8" ry="8" style="stroke:#181818;stroke-width:0.5;"/><path d="M44.0015,58.7969 L44.0015,85.7969 M31.0015,66.7969 L57.0015,66.7969 M44.0015,85.7969 L31.0015,100.7969 M44.0015,85.7969 L57.0015,100.7969" fill="none" style="stroke:#181818;stroke-width:0.5;"/></g><g class="participant participant-tail" data-participant="Developer"><text fill="#000000" font-family="sans-serif" font-size="14" lengthAdjust="spacing" textLength="72.0029" x="5" y="375.6514">Developer</text><ellipse cx="44.0015" cy="387.4531" fill="#E2E2F0" rx="8" ry="8" style="stroke:#181818;stroke-width:0.5;"/><path d="M44.0015,395.4531 L44.0015,422.4531 M31.0015,403.4531 L57.0015,403.4531 M44.0015,422.4531 L31.0015,437.4531 M44.0015,422.4531 L57.0015,437.4531" fill="none" style="stroke:#181818;stroke-width:0.5;"/></g><g class="participant participant-head" data-participant="GitConfig"><rect fill="#E2E2F0" height="30.2969" rx="2.5" ry="2.5" style="stroke:#181818;stroke-width:0.5;" width="79.1465" x="194.0957" y="87.2969"/><text fill="#000000" font-family="sans-serif" font-size="14" lengthAdjust="spacing" textLength="65.1465" x="201.0957" y="107.292">GitConfig</text></g><g class="participant participant-tail" data-participant="GitConfig"><rect fill="#E2E2F0" height="30.2969" rx="2.5" ry="2.5" style="stroke:#181818;stroke-width:0.5;" width="79.1465" x="194.0957" y="362.6563"/><text fill="#000000" font-family="sans-serif" font-size="14" lengthAdjust="spacing" textLength="65.1465" x="201.0957" y="382.6514">GitConfig</text></g><g class="participant participant-head" data-participant="Terminal"><rect fill="#E2E2F0" height="30.2969" rx="2.5" ry="2.5" style="stroke:#181818;stroke-width:0.5;" width="75.79" x="283.2422" y="87.2969"/><text fill="#000000" font-family="sans-serif" font-size="14" lengthAdjust="spacing" textLength="61.79" x="290.2422" y="107.292">Terminal</text></g><g class="participant participant-tail" data-participant="Terminal"><rect fill="#E2E2F0" height="30.2969" rx="2.5" ry="2.5" style="stroke:#181818;stroke-width:0.5;" width="75.79" x="283.2422" y="362.6563"/><text fill="#000000" font-family="sans-serif" font-size="14" lengthAdjust="spacing" textLength="61.79" x="290.2422" y="382.6514">Terminal</text></g><g class="participant participant-head" data-participant="Git"><rect fill="#E2E2F0" height="30.2969" rx="2.5" ry="2.5" style="stroke:#181818;stroke-width:0.5;" width="34.2275" x="520.2114" y="87.2969"/><text fill="#000000" font-family="sans-serif" font-size="14" lengthAdjust="spacing" textLength="20.2275" x="527.2114" y="107.292">Git</text></g><g class="participant participant-tail" data-participant="Git"><rect fill="#E2E2F0" height="30.2969" rx="2.5" ry="2.5" style="stroke:#181818;stroke-width:0.5;" width="34.2275" x="520.2114" y="362.6563"/><text fill="#000000" font-family="sans-serif" font-size="14" lengthAdjust="spacing" textLength="20.2275" x="527.2114" y="382.6514">Git</text></g><g class="participant participant-head" data-participant="RemoteRepo"><rect fill="#E2E2F0" height="30.2969" rx="2.5" ry="2.5" style="stroke:#181818;stroke-width:0.5;" width="104.4395" x="635.7983" y="87.2969"/><text fill="#000000" font-family="sans-serif" font-size="14" lengthAdjust="spacing" textLength="90.4395" x="642.7983" y="107.292">RemoteRepo</text></g><g class="participant participant-tail" data-participant="RemoteRepo"><rect fill="#E2E2F0" height="30.2969" rx="2.5" ry="2.5" style="stroke:#181818;stroke-width:0.5;" width="104.4395" x="635.7983" y="362.6563"/><text fill="#000000" font-family="sans-serif" font-size="14" lengthAdjust="spacing" textLength="90.4395" x="642.7983" y="382.6514">RemoteRepo</text></g><g class="message" data-participant-1="Developer" data-participant-2="GitConfig"><polygon fill="#181818" points="221.6689,145.7266,231.6689,149.7266,221.6689,153.7266,225.6689,149.7266" style="stroke:#181818;stroke-width:1;"/><line style="stroke:#181818;stroke-width:1;" x1="44.0015" x2="227.6689" y1="149.7266" y2="149.7266"/><text fill="#000000" font-family="sans-serif" font-size="13" lengthAdjust="spacing" textLength="165.6675" x="51.0015" y="144.6606">/.gitconfig defines aliases</text></g><path d="M238,162.7266 L238,202.7266 L594,202.7266 L594,172.7266 L584,162.7266 L238,162.7266" fill="#FEFFDD" style="stroke:#181818;stroke-width:0.5;"/><path d="M584,162.7266 L584,172.7266 L594,172.7266 L584,162.7266" fill="#FEFFDD" style="stroke:#181818;stroke-width:0.5;"/><text fill="#000000" font-family="sans-serif" font-size="13" lengthAdjust="spacing" textLength="40.0728" x="244" y="179.7935">[alias]</text><text fill="#000000" font-family="sans-serif" font-size="13" lengthAdjust="spacing" textLength="335.5879" x="244" y="194.9263">acp = !git add . &amp;&amp; git commit -m "$1" &amp;&amp; git push</text><g class="message" data-participant-1="Developer" data-participant-2="Terminal"><polygon fill="#181818" points="309.1372,225.125,319.1372,229.125,309.1372,233.125,313.1372,229.125" style="stroke:#181818;stroke-width:1;"/><line style="stroke:#181818;stroke-width:1;" x1="44.0015" x2="315.1372" y1="229.125" y2="229.125"/><text fill="#000000" font-family="sans-serif" font-size="13" lengthAdjust="spacing" textLength="118.9741" x="51.0015" y="224.0591">git acp "message"</text></g><g class="message" data-participant-1="Terminal" data-participant-2="Git"><polygon fill="#181818" points="525.3252,254.2578,535.3252,258.2578,525.3252,262.2578,529.3252,258.2578" style="stroke:#181818;stroke-width:1;"/><line style="stroke:#181818;stroke-width:1;" x1="321.1372" x2="531.3252" y1="258.2578" y2="258.2578"/><text fill="#000000" font-family="sans-serif" font-size="13" lengthAdjust="spacing" textLength="79.7837" x="328.1372" y="253.1919">run git add .</text></g><g class="message" data-participant-1="Terminal" data-participant-2="Git"><polygon fill="#181818" points="525.3252,283.3906,535.3252,287.3906,525.3252,291.3906,529.3252,287.3906" style="stroke:#181818;stroke-width:1;"/><line style="stroke:#181818;stroke-width:1;" x1="321.1372" x2="531.3252" y1="287.3906" y2="287.3906"/><text fill="#000000" font-family="sans-serif" font-size="13" lengthAdjust="spacing" textLength="192.188" x="328.1372" y="282.3247">run git commit -m "message"</text></g><g class="message" data-participant-1="Terminal" data-participant-2="Git"><polygon fill="#181818" points="525.3252,312.5234,535.3252,316.5234,525.3252,320.5234,529.3252,316.5234" style="stroke:#181818;stroke-width:1;"/><line style="stroke:#181818;stroke-width:1;" x1="321.1372" x2="531.3252" y1="316.5234" y2="316.5234"/><text fill="#000000" font-family="sans-serif" font-size="13" lengthAdjust="spacing" textLength="78.5522" x="328.1372" y="311.4575">run git push</text></g><g class="message" data-participant-1="Git" data-participant-2="RemoteRepo"><polygon fill="#181818" points="676.0181,341.6563,686.0181,345.6563,676.0181,349.6563,680.0181,345.6563" style="stroke:#181818;stroke-width:1;"/><line style="stroke:#181818;stroke-width:1;" x1="537.3252" x2="682.0181" y1="345.6563" y2="345.6563"/><text fill="#000000" font-family="sans-serif" font-size="13" lengthAdjust="spacing" textLength="126.6929" x="544.3252" y="340.5903">push to origin/main</text></g><!--SRC=[ZP11ImCn48NlyokUI-cjBLuB2gBelVGc7iBkx7OWoIn9Qc_-TYShtTeUn5CcyzxxyaYHuXblKl3anMMyUZsXJnhmjLaFKbgDlGn4hYsQyCAVx7NaH3IFM3tM_FDanFOgXuvxYPpXAfmpHIsC9CEXGFjBZ83toV9Xasj7FE3E871TXpMMIzHBgo7OiGfe5lVDUJiUyu4uTgZecrfxJa6YyzPgeXcu2Pop6xYXMVpfRvvqZ9XV_KF_LUGVjAaWrPr9EmvMSyUZcgCgA0gr3v6u2KxYDm00]--></g></svg>