<svg xmlns="http://www.w3.org/2000/svg" xmlns:xlink="http://www.w3.org/1999/xlink" contentStyleType="text/css" data-diagram-type="SEQUENCE" height="777px" preserveAspectRatio="none" style="width:969px;height:777px;background:#FFFFFF;" version="1.1" viewBox="0 0 969 777" width="969px" zoomAndPan="magnify"><title>nvidia-smi &#38651;&#21147;&#24773;&#22577;&#21462;&#24471;&#12456;&#12521;&#12540;&#35386;&#26029;&#12501;&#12525;&#12540;</title><defs/><g><text fill="#000000" font-family="sans-serif" font-size="14" font-weight="bold" lengthAdjust="spacing" textLength="282.5626" x="339.4651" y="27.9951">nvidia-smi &#38651;&#21147;&#24773;&#22577;&#21462;&#24471;&#12456;&#12521;&#12540;&#35386;&#26029;&#12501;&#12525;&#12540;</text><rect fill="none" height="254.6719" style="stroke:#000000;stroke-width:1.5;" width="747.9747" x="204.5181" y="352.3906"/><g><title>User</title><rect fill="#000000" fill-opacity="0.00000" height="577.7344" width="8" x="19.9551" y="118.5938"/><line style="stroke:#181818;stroke-width:0.5;stroke-dasharray:5.0,5.0;" x1="23" x2="23" y1="118.5938" y2="696.3281"/></g><g><title>nvidia-smi</title><rect fill="#000000" fill-opacity="0.00000" height="577.7344" width="8" x="253.6563" y="118.5938"/><line style="stroke:#181818;stroke-width:0.5;stroke-dasharray:5.0,5.0;" x1="257.5181" x2="257.5181" y1="118.5938" y2="696.3281"/></g><g><title>NVIDIA &#12489;&#12521;&#12452;&#12496;</title><rect fill="#000000" fill-opacity="0.00000" height="577.7344" width="8" x="488.0114" y="118.5938"/><line style="stroke:#181818;stroke-width:0.5;stroke-dasharray:5.0,5.0;" x1="491.4539" x2="491.4539" y1="118.5938" y2="696.3281"/></g><g><title>GPU &#12487;&#12496;&#12452;&#12473;</title><rect fill="#000000" fill-opacity="0.00000" height="577.7344" width="8" x="642.0115" y="118.5938"/><line style="stroke:#181818;stroke-width:0.5;stroke-dasharray:5.0,5.0;" x1="645.0175" x2="645.0175" y1="118.5938" y2="696.3281"/></g><g class="participant participant-head" data-participant="User"><text fill="#000000" font-family="sans-serif" font-size="14" lengthAdjust="spacing" textLength="31.9102" x="5" y="115.292">User</text><ellipse cx="23.9551" cy="50.7969" fill="#E2E2F0" rx="8" ry="8" style="stroke:#181818;stroke-width:0.5;"/><path d="M23.9551,58.7969 L23.9551,85.7969 M10.9551,66.7969 L36.9551,66.7969 M23.9551,85.7969 L10.9551,100.7969 M23.9551,85.7969 L36.9551,100.7969" fill="none" style="stroke:#181818;stroke-width:0.5;"/></g><g class="participant participant-tail" data-participant="User"><text fill="#000000" font-family="sans-serif" font-size="14" lengthAdjust="spacing" textLength="31.9102" x="5" y="708.3232">User</text><ellipse cx="23.9551" cy="720.125" fill="#E2E2F0" rx="8" ry="8" style="stroke:#181818;stroke-width:0.5;"/><path d="M23.9551,728.125 L23.9551,755.125 M10.9551,736.125 L36.9551,736.125 M23.9551,755.125 L10.9551,770.125 M23.9551,755.125 L36.9551,770.125" fill="none" style="stroke:#181818;stroke-width:0.5;"/></g><g class="participant participant-head" data-participant="nvidia-smi"><rect fill="#E2E2F0" height="30.2969" rx="2.5" ry="2.5" style="stroke:#181818;stroke-width:0.5;" width="86.2764" x="214.5181" y="87.2969"/><text fill="#000000" font-family="sans-serif" font-size="14" lengthAdjust="spacing" textLength="72.2764" x="221.5181" y="107.292">nvidia-smi</text></g><g class="participant participant-tail" data-participant="nvidia-smi"><rect fill="#E2E2F0" height="30.2969" rx="2.5" ry="2.5" style="stroke:#181818;stroke-width:0.5;" width="86.2764" x="214.5181" y="695.3281"/><text fill="#000000" font-family="sans-serif" font-size="14" lengthAdjust="spacing" textLength="72.2764" x="221.5181" y="715.3232">nvidia-smi</text></g><g class="participant participant-head" data-participant="NVIDIA &#12489;&#12521;&#12452;&#12496;"><rect fill="#E2E2F0" height="30.2969" rx="2.5" ry="2.5" style="stroke:#181818;stroke-width:0.5;" width="123.115" x="430.4539" y="87.2969"/><text fill="#000000" font-family="sans-serif" font-size="14" lengthAdjust="spacing" textLength="109.115" x="437.4539" y="107.292">NVIDIA &#12489;&#12521;&#12452;&#12496;</text></g><g class="participant participant-tail" data-participant="NVIDIA &#12489;&#12521;&#12452;&#12496;"><rect fill="#E2E2F0" height="30.2969" rx="2.5" ry="2.5" style="stroke:#181818;stroke-width:0.5;" width="123.115" x="430.4539" y="695.3281"/><text fill="#000000" font-family="sans-serif" font-size="14" lengthAdjust="spacing" textLength="109.115" x="437.4539" y="715.3232">NVIDIA &#12489;&#12521;&#12452;&#12496;</text></g><g class="participant participant-head" data-participant="GPU &#12487;&#12496;&#12452;&#12473;"><rect fill="#E2E2F0" height="30.2969" rx="2.5" ry="2.5" style="stroke:#181818;stroke-width:0.5;" width="103.988" x="594.0175" y="87.2969"/><text fill="#000000" font-family="sans-serif" font-size="14" lengthAdjust="spacing" textLength="89.988" x="601.0175" y="107.292">GPU &#12487;&#12496;&#12452;&#12473;</text></g><g class="participant participant-tail" data-participant="GPU &#12487;&#12496;&#12452;&#12473;"><rect fill="#E2E2F0" height="30.2969" rx="2.5" ry="2.5" style="stroke:#181818;stroke-width:0.5;" width="103.988" x="594.0175" y="695.3281"/><text fill="#000000" font-family="sans-serif" font-size="14" lengthAdjust="spacing" textLength="89.988" x="601.0175" y="715.3232">GPU &#12487;&#12496;&#12452;&#12473;</text></g><rect fill="#EEEEEE" height="3" style="stroke:#EEEEEE;stroke-width:1;" width="962.4929" x="0" y="149.1602"/><line style="stroke:#000000;stroke-width:1;" x1="0" x2="962.4929" y1="149.1602" y2="149.1602"/><line style="stroke:#000000;stroke-width:1;" x1="0" x2="962.4929" y1="152.1602" y2="152.1602"/><rect fill="#EEEEEE" height="23.1328" style="stroke:#000000;stroke-width:2;" width="101.5215" x="430.4857" y="138.5938"/><text fill="#000000" font-family="sans-serif" font-size="13" font-weight="bold" lengthAdjust="spacing" textLength="82.9956" x="436.4857" y="154.6606">Step 1: &#23455;&#34892;</text><g class="message" data-participant-1="User" data-participant-2="nvidia-smi"><polygon fill="#181818" points="245.6563,188.8594,255.6563,192.8594,245.6563,196.8594,249.6563,192.8594" style="stroke:#181818;stroke-width:1;"/><line style="stroke:#181818;stroke-width:1;" x1="23.9551" x2="251.6563" y1="192.8594" y2="192.8594"/><text fill="#000000" font-family="sans-serif" font-size="13" lengthAdjust="spacing" textLength="209.7012" x="30.9551" y="187.7935">`nvidia-smi -q -d POWER` &#12434;&#23455;&#34892;</text></g><rect fill="#EEEEEE" height="3" style="stroke:#EEEEEE;stroke-width:1;" width="962.4929" x="0" y="221.4258"/><line style="stroke:#000000;stroke-width:1;" x1="0" x2="962.4929" y1="221.4258" y2="221.4258"/><line style="stroke:#000000;stroke-width:1;" x1="0" x2="962.4929" y1="224.4258" y2="224.4258"/><rect fill="#EEEEEE" height="23.1328" style="stroke:#000000;stroke-width:2;" width="153.5216" x="404.4856" y="210.8594"/><text fill="#000000" font-family="sans-serif" font-size="13" font-weight="bold" lengthAdjust="spacing" textLength="134.9957" x="410.4856" y="226.9263">Step 2: &#24773;&#22577;&#21462;&#24471;&#35201;&#27714;</text><g class="message" data-participant-1="nvidia-smi" data-participant-2="NVIDIA &#12489;&#12521;&#12452;&#12496;"><polygon fill="#181818" points="480.0114,261.125,490.0114,265.125,480.0114,269.125,484.0114,265.125" style="stroke:#181818;stroke-width:1;"/><line style="stroke:#181818;stroke-width:1;" x1="257.6563" x2="486.0114" y1="265.125" y2="265.125"/><text fill="#000000" font-family="sans-serif" font-size="13" lengthAdjust="spacing" textLength="117.0001" x="264.6563" y="260.0591">&#38651;&#21147;&#24773;&#22577;&#21462;&#24471;&#12434;&#35201;&#27714;</text></g><rect fill="#EEEEEE" height="3" style="stroke:#EEEEEE;stroke-width:1;" width="962.4929" x="0" y="293.6914"/><line style="stroke:#000000;stroke-width:1;" x1="0" x2="962.4929" y1="293.6914" y2="293.6914"/><line style="stroke:#000000;stroke-width:1;" x1="0" x2="962.4929" y1="296.6914" y2="296.6914"/><rect fill="#EEEEEE" height="23.1328" style="stroke:#000000;stroke-width:2;" width="236.276" x="363.1084" y="283.125"/><text fill="#000000" font-family="sans-serif" font-size="13" font-weight="bold" lengthAdjust="spacing" textLength="217.7502" x="369.1084" y="299.1919">Step 3: GPU&#12487;&#12496;&#12452;&#12473;&#12392;&#12398;&#12420;&#12426;&#21462;&#12426;</text><g class="message" data-participant-1="NVIDIA &#12489;&#12521;&#12452;&#12496;" data-participant-2="GPU &#12487;&#12496;&#12452;&#12473;"><polygon fill="#181818" points="634.0115,333.3906,644.0115,337.3906,634.0115,341.3906,638.0115,337.3906" style="stroke:#181818;stroke-width:1;"/><line style="stroke:#181818;stroke-width:1;" x1="492.0114" x2="640.0115" y1="337.3906" y2="337.3906"/><text fill="#000000" font-family="sans-serif" font-size="13" lengthAdjust="spacing" textLength="130.0002" x="499.0114" y="332.3247">&#38651;&#21147;&#12475;&#12531;&#12469;&#12540;&#20516;&#12434;&#35201;&#27714;</text></g><path d="M204.5181,352.3906 L268.961,352.3906 L268.961,359.5234 L258.961,369.5234 L204.5181,369.5234 L204.5181,352.3906" fill="#EEEEEE" style="stroke:#000000;stroke-width:1.5;"/><rect fill="none" height="254.6719" style="stroke:#000000;stroke-width:1.5;" width="747.9747" x="204.5181" y="352.3906"/><text fill="#000000" font-family="sans-serif" font-size="13" font-weight="bold" lengthAdjust="spacing" textLength="19.4429" x="219.5181" y="365.4575">alt</text><text fill="#000000" font-family="sans-serif" font-size="11" font-weight="bold" lengthAdjust="spacing" textLength="109.054" x="283.961" y="364.6011">[&#38651;&#21147;&#12475;&#12531;&#12469;&#12540;&#38750;&#25645;&#36617;]</text><g class="message" data-participant-1="GPU &#12487;&#12496;&#12452;&#12473;" data-participant-2="NVIDIA &#12489;&#12521;&#12452;&#12496;"><polygon fill="#181818" points="503.0114,386.6563,493.0114,390.6563,503.0114,394.6563,499.0114,390.6563" style="stroke:#181818;stroke-width:1;"/><line style="stroke:#181818;stroke-width:1;stroke-dasharray:2.0,2.0;" x1="497.0114" x2="645.0115" y1="390.6563" y2="390.6563"/><text fill="#000000" font-family="sans-serif" font-size="13" lengthAdjust="spacing" textLength="120.0088" x="509.0114" y="385.5903">Power Draw = N/A</text></g><path d="M651,403.6563 L651,428.6563 L942,428.6563 L942,413.6563 L932,403.6563 L651,403.6563" fill="#FEFFDD" style="stroke:#181818;stroke-width:0.5;"/><path d="M932,403.6563 L932,413.6563 L942,413.6563 L932,403.6563" fill="#FEFFDD" style="stroke:#181818;stroke-width:0.5;"/><text fill="#000000" font-family="sans-serif" font-size="13" lengthAdjust="spacing" textLength="270.4929" x="657" y="420.7231">&#20363;: GTX 1050, &#12494;&#12540;&#12488;PC&#21521;&#12369;OEM&#12514;&#12487;&#12523;&#12394;&#12393;</text><line style="stroke:#000000;stroke-width:1;stroke-dasharray:2.0,2.0;" x1="204.5181" x2="952.4929" y1="434.7891" y2="434.7891"/><text fill="#000000" font-family="sans-serif" font-size="11" font-weight="bold" lengthAdjust="spacing" textLength="120.0539" x="209.5181" y="444.9995">[&#12450;&#12463;&#12475;&#12473;&#21046;&#38480;&#12539;&#26410;&#23550;&#24540;]</text><g class="message" data-participant-1="GPU &#12487;&#12496;&#12452;&#12473;" data-participant-2="NVIDIA &#12489;&#12521;&#12452;&#12496;"><polygon fill="#181818" points="503.0114,465.7266,493.0114,469.7266,503.0114,473.7266,499.0114,469.7266" style="stroke:#181818;stroke-width:1;"/><line style="stroke:#181818;stroke-width:1;stroke-dasharray:2.0,2.0;" x1="497.0114" x2="645.0115" y1="469.7266" y2="469.7266"/><text fill="#000000" font-family="sans-serif" font-size="13" lengthAdjust="spacing" textLength="96.6812" x="509.0114" y="464.6606">Unknown Error</text></g><path d="M497,482.7266 L497,507.7266 L785,507.7266 L785,492.7266 L775,482.7266 L497,482.7266" fill="#FEFFDD" style="stroke:#181818;stroke-width:0.5;"/><path d="M775,482.7266 L775,492.7266 L785,492.7266 L775,482.7266" fill="#FEFFDD" style="stroke:#181818;stroke-width:0.5;"/><text fill="#000000" font-family="sans-serif" font-size="13" lengthAdjust="spacing" textLength="267.3064" x="503" y="499.7935">ACPI&#21046;&#38480;&#12420;&#27177;&#38480;&#19981;&#36275;&#12289;OEM&#20181;&#27096;&#12395;&#12424;&#12427;&#28961;&#21177;&#21270;</text><line style="stroke:#000000;stroke-width:1;stroke-dasharray:2.0,2.0;" x1="204.5181" x2="952.4929" y1="513.8594" y2="513.8594"/><text fill="#000000" font-family="sans-serif" font-size="11" font-weight="bold" lengthAdjust="spacing" textLength="131.0538" x="209.5181" y="524.0698">[&#12489;&#12521;&#12452;&#12496;&#12398;&#12496;&#12464;&#12539;&#35492;&#35469;&#35672;]</text><g class="message" data-participant-1="NVIDIA &#12489;&#12521;&#12452;&#12496;" data-participant-2="nvidia-smi"><polygon fill="#181818" points="268.6563,544.7969,258.6563,548.7969,268.6563,552.7969,264.6563,548.7969" style="stroke:#181818;stroke-width:1;"/><line style="stroke:#181818;stroke-width:1;stroke-dasharray:2.0,2.0;" x1="262.6563" x2="491.0114" y1="548.7969" y2="548.7969"/><text fill="#000000" font-family="sans-serif" font-size="13" lengthAdjust="spacing" textLength="210.3551" x="274.6563" y="543.731">Power Limit = 5001W &#12394;&#12393;&#30064;&#24120;&#20516;</text></g><path d="M497,561.7969 L497,601.7969 L695,601.7969 L695,571.7969 L685,561.7969 L497,561.7969" fill="#FEFFDD" style="stroke:#181818;stroke-width:0.5;"/><path d="M685,561.7969 L685,571.7969 L695,571.7969 L685,561.7969" fill="#FEFFDD" style="stroke:#181818;stroke-width:0.5;"/><text fill="#000000" font-family="sans-serif" font-size="13" lengthAdjust="spacing" textLength="177.5124" x="503" y="578.8638">&#20363;: &#26032;&#26087;&#12489;&#12521;&#12452;&#12496;&#38291;&#12398;&#38750;&#20114;&#25563;&#12289;</text><text fill="#000000" font-family="sans-serif" font-size="13" lengthAdjust="spacing" textLength="104.0001" x="503" y="593.9966">&#12459;&#12540;&#12493;&#12523;&#12392;&#12398;&#30456;&#24615;</text><rect fill="#EEEEEE" height="3" style="stroke:#EEEEEE;stroke-width:1;" width="962.4929" x="0" y="634.6289"/><line style="stroke:#000000;stroke-width:1;" x1="0" x2="962.4929" y1="634.6289" y2="634.6289"/><line style="stroke:#000000;stroke-width:1;" x1="0" x2="962.4929" y1="637.6289" y2="637.6289"/><rect fill="#EEEEEE" height="23.1328" style="stroke:#000000;stroke-width:2;" width="101.5215" x="430.4857" y="624.0625"/><text fill="#000000" font-family="sans-serif" font-size="13" font-weight="bold" lengthAdjust="spacing" textLength="82.9956" x="436.4857" y="640.1294">Step 4: &#34920;&#31034;</text><g class="message" data-participant-1="nvidia-smi" data-participant-2="User"><polygon fill="#181818" points="34.9551,674.3281,24.9551,678.3281,34.9551,682.3281,30.9551,678.3281" style="stroke:#181818;stroke-width:1;"/><line style="stroke:#181818;stroke-width:1;stroke-dasharray:2.0,2.0;" x1="28.9551" x2="256.6563" y1="678.3281" y2="678.3281"/><text fill="#000000" font-family="sans-serif" font-size="13" lengthAdjust="spacing" textLength="196.6314" x="40.9551" y="673.2622">Power Draw: N/A / ERR! &#12434;&#20986;&#21147;</text></g><!--SRC=[dLFRRX9H57sVhzZsML9G-p899gGbXaHRWc9zB95H9z8P7IRoofp1bD9YAGPQGxtG4Bc5NjBOS0j-pEOCmrzuPY1Xj1CJdOUJISvPQ-srzzggg2O4aDw9SJ7cIMwBCAqCQAvYwE_fjqjwKAQZ8oGDr9ke3yr6toXtK2-XpiuXnyMUgx82qQIWS9pV3uzLuGtuUA1dNytgFlZzd7K5dlkmj11O0Xws77gUj-29GtXZCnZP0YJ56NZ1TuS7Pp7cTysu91RtRvoMnlhJq5ee0AZlMkMI6ke5IypDK756ir2voyE3S1Jr7GQoeAI7MWErCoGP93a6OwSjwYfYgJCuEF4BQIG3rA-G_60ze-cQGpsMK5tUJ3z_CGeTSxZB0VjSY3r_SHkMKwpbQqei1NvONmxO79Ai2g28Br-f8BzmORGV0On7UwmDJvw1pxlYlSsUV63Le9uDhzB28Mg76y57g9_Qo3PgBTIQDb2GuhO29oII0XlXAP9pom_fqUprz5C1zO5nqgBd8_hpv7yiHQNNafoI8AWeikBcnmqtjnHO3OVcLP2CqMYodt4tRrvVOLfZTiQ3ab4_HgsD98jaRvAfqboFxfVTV3dOhM1OjLymQsQhPhRoPkTuPiqz7pTNO3QdX-AsgB91hNYzlasOzNHIkg3TBWlAFrgrfsUKBuoZklDwMlx8ocMP6lUBna65-Pw_HzAsnvktfsc5VLBf6kdw7zwb-69Bxl5WLXkJMl_c_Z67zh8x4yXR0OHb24OYj-pLtkcpgFy2]--></g></svg>