<svg xmlns="http://www.w3.org/2000/svg" xmlns:xlink="http://www.w3.org/1999/xlink" contentStyleType="text/css" data-diagram-type="CLASS" height="670px" preserveAspectRatio="none" style="width:720px;height:670px;background:#FFFFFF;" version="1.1" viewBox="0 0 720 670" width="720px" zoomAndPan="magnify"><defs/><g><!--cluster Git?????--><g class="cluster" data-entity="Git&#12522;&#12509;&#12472;&#12488;&#12522;" data-source-line="3" data-uid="ent0002" id="cluster_Git&#12522;&#12509;&#12472;&#12488;&#12522;"><path d="M8.5,144.8 L102.4821,144.8 A3.75,3.75 0 0 1 104.9821,147.3 L111.9821,167.0969 L394.5,167.0969 A2.5,2.5 0 0 1 397,169.5969 L397,445.66 A2.5,2.5 0 0 1 394.5,448.16 L8.5,448.16 A2.5,2.5 0 0 1 6,445.66 L6,147.3 A2.5,2.5 0 0 1 8.5,144.8" fill="none" style="stroke:#000000;stroke-width:1.5;"/><line style="stroke:#000000;stroke-width:1.5;" x1="6" x2="111.9821" y1="167.0969" y2="167.0969"/><text fill="#000000" font-family="sans-serif" font-size="14" font-weight="bold" lengthAdjust="spacing" textLength="92.9821" x="10" y="159.7951">Git&#12522;&#12509;&#12472;&#12488;&#12522;</text></g><!--class Main--><g class="entity" data-entity="Main" data-source-line="4" data-uid="ent0003" id="entity_Main"><rect fill="#F1F1F1" height="48" rx="2.5" ry="2.5" style="stroke:#181818;stroke-width:0.5;" width="122.9792" x="122.51" y="179.8"/><ellipse cx="137.51" cy="195.8" fill="#ADD1B2" rx="11" ry="11" style="stroke:#181818;stroke-width:1;"/><path d="M140.4788,201.4406 Q139.9006,201.7375 139.26,201.8781 Q138.6194,202.0344 137.9163,202.0344 Q135.4163,202.0344 134.0881,200.3938 Q132.7756,198.7375 132.7756,195.6125 Q132.7756,192.4875 134.0881,190.8313 Q135.4163,189.175 137.9163,189.175 Q138.6194,189.175 139.26,189.3313 Q139.9163,189.4875 140.4788,189.7844 L140.4788,192.5031 Q139.8538,191.925 139.26,191.6594 Q138.6663,191.3781 138.0413,191.3781 Q136.6975,191.3781 136.01,192.4563 Q135.3225,193.5188 135.3225,195.6125 Q135.3225,197.7063 136.01,198.7844 Q136.6975,199.8469 138.0413,199.8469 Q138.6663,199.8469 139.26,199.5813 Q139.8538,199.3 140.4788,198.7219 L140.4788,201.4406 Z " fill="#000000"/><text fill="#000000" font-family="sans-serif" font-size="14" lengthAdjust="spacing" textLength="90.9792" x="151.51" y="200.6467">main&#12502;&#12521;&#12531;&#12481;</text><line style="stroke:#181818;stroke-width:0.5;" x1="123.51" x2="244.4892" y1="211.8" y2="211.8"/><line style="stroke:#181818;stroke-width:0.5;" x1="123.51" x2="244.4892" y1="219.8" y2="219.8"/></g><!--class Feature--><g class="entity" data-entity="Feature" data-source-line="5" data-uid="ent0004" id="entity_Feature"><rect fill="#F1F1F1" height="48" rx="2.5" ry="2.5" style="stroke:#181818;stroke-width:0.5;" width="138.8523" x="215.57" y="384.16"/><ellipse cx="230.57" cy="400.16" fill="#ADD1B2" rx="11" ry="11" style="stroke:#181818;stroke-width:1;"/><path d="M233.5388,405.8006 Q232.9606,406.0975 232.32,406.2381 Q231.6794,406.3944 230.9763,406.3944 Q228.4763,406.3944 227.1481,404.7538 Q225.8356,403.0975 225.8356,399.9725 Q225.8356,396.8475 227.1481,395.1913 Q228.4763,393.535 230.9763,393.535 Q231.6794,393.535 232.32,393.6913 Q232.9763,393.8475 233.5388,394.1444 L233.5388,396.8631 Q232.9138,396.285 232.32,396.0194 Q231.7263,395.7381 231.1013,395.7381 Q229.7575,395.7381 229.07,396.8163 Q228.3825,397.8788 228.3825,399.9725 Q228.3825,402.0663 229.07,403.1444 Q229.7575,404.2069 231.1013,404.2069 Q231.7263,404.2069 232.32,403.9413 Q232.9138,403.66 233.5388,403.0819 L233.5388,405.8006 Z " fill="#000000"/><text fill="#000000" font-family="sans-serif" font-size="14" lengthAdjust="spacing" textLength="106.8523" x="244.57" y="405.0067">feature&#12502;&#12521;&#12531;&#12481;</text><line style="stroke:#181818;stroke-width:0.5;" x1="216.57" x2="353.4223" y1="416.16" y2="416.16"/><line style="stroke:#181818;stroke-width:0.5;" x1="216.57" x2="353.4223" y1="424.16" y2="424.16"/></g><!--entity DevA--><g class="entity" data-entity="DevA" data-source-line="8" data-uid="ent0005" id="entity_DevA"><ellipse cx="192.9985" cy="597.02" fill="#F1F1F1" rx="8" ry="8" style="stroke:#181818;stroke-width:0.5;"/><path d="M192.9985,605.02 L192.9985,632.02 M179.9985,613.02 L205.9985,613.02 M192.9985,632.02 L179.9985,647.02 M192.9985,632.02 L205.9985,647.02" fill="none" style="stroke:#181818;stroke-width:0.5;"/><text fill="#000000" font-family="sans-serif" font-size="14" lengthAdjust="spacing" textLength="51.577" x="167.21" y="661.5151">&#38283;&#30330;&#32773;A</text></g><!--entity DevB--><g class="entity" data-entity="DevB" data-source-line="9" data-uid="ent0006" id="entity_DevB"><ellipse cx="184.0022" cy="14" fill="#F1F1F1" rx="8" ry="8" style="stroke:#181818;stroke-width:0.5;"/><path d="M184.0022,22 L184.0022,49 M171.0022,30 L197.0022,30 M184.0022,49 L171.0022,64 M184.0022,49 L197.0022,64" fill="none" style="stroke:#181818;stroke-width:0.5;"/><text fill="#000000" font-family="sans-serif" font-size="14" lengthAdjust="spacing" textLength="51.6043" x="158.2" y="78.4951">&#38283;&#30330;&#32773;B</text></g><!--class GitHub--><g class="entity" data-entity="GitHub" data-source-line="13" data-uid="ent0009" id="entity_GitHub"><rect fill="#F1F1F1" height="48" rx="2.5" ry="2.5" style="stroke:#181818;stroke-width:0.5;" width="80.5146" x="434.74" y="602.67"/><ellipse cx="449.74" cy="618.67" fill="#ADD1B2" rx="11" ry="11" style="stroke:#181818;stroke-width:1;"/><path d="M452.7088,624.3106 Q452.1306,624.6075 451.49,624.7481 Q450.8494,624.9044 450.1463,624.9044 Q447.6463,624.9044 446.3181,623.2638 Q445.0056,621.6075 445.0056,618.4825 Q445.0056,615.3575 446.3181,613.7013 Q447.6463,612.045 450.1463,612.045 Q450.8494,612.045 451.49,612.2013 Q452.1463,612.3575 452.7088,612.6544 L452.7088,615.3731 Q452.0838,614.795 451.49,614.5294 Q450.8963,614.2481 450.2713,614.2481 Q448.9275,614.2481 448.24,615.3263 Q447.5525,616.3888 447.5525,618.4825 Q447.5525,620.5763 448.24,621.6544 Q448.9275,622.7169 450.2713,622.7169 Q450.8963,622.7169 451.49,622.4513 Q452.0838,622.17 452.7088,621.5919 L452.7088,624.3106 Z " fill="#000000"/><text fill="#000000" font-family="sans-serif" font-size="14" lengthAdjust="spacing" textLength="48.5146" x="463.74" y="623.5167">GitHub</text><line style="stroke:#181818;stroke-width:0.5;" x1="435.74" x2="514.2546" y1="634.67" y2="634.67"/><line style="stroke:#181818;stroke-width:0.5;" x1="435.74" x2="514.2546" y1="642.67" y2="642.67"/></g><g class="entity" data-entity="GMN14" data-source-line="21" data-uid="ent0015" id="entity_GMN14"><path d="M412.63,304.8 L412.63,404.16 L354.77,408.16 L412.63,412.16 L412.63,511.5266 A0,0 0 0 0 412.63,511.5266 L713.3778,511.5266 A0,0 0 0 0 713.3778,511.5266 L713.3778,314.8 L703.3778,304.8 L412.63,304.8 A0,0 0 0 0 412.63,304.8" fill="#FEFFDD" style="stroke:#181818;stroke-width:0.5;"/><path d="M703.3778,304.8 L703.3778,314.8 L713.3778,314.8 L703.3778,304.8" fill="#FEFFDD" style="stroke:#181818;stroke-width:0.5;"/><text fill="#000000" font-family="sans-serif" font-size="13" lengthAdjust="spacing" textLength="124.7823" x="418.63" y="321.8669">&#128313; Git&#29992;&#35486; &#23550;&#35379;&#12513;&#12514; &#128313;</text><text fill="#000000" font-family="sans-serif" font-size="13" lengthAdjust="spacing" textLength="4.1323" x="418.63" y="336.9997">&#160;</text><text fill="#000000" font-family="sans-serif" font-size="13" lengthAdjust="spacing" textLength="221.8508" x="418.63" y="352.1325">branch     &#65306;&#12502;&#12521;&#12531;&#12481;&#65288;&#20316;&#26989;&#12398;&#20998;&#23696;&#65289;</text><text fill="#000000" font-family="sans-serif" font-size="13" lengthAdjust="spacing" textLength="221.6413" x="418.63" y="367.2653">pull       &#65306;&#12503;&#12523;&#65288;&#12522;&#12514;&#12540;&#12488;&#12363;&#12425;&#21462;&#24471;&#65289;</text><text fill="#000000" font-family="sans-serif" font-size="13" lengthAdjust="spacing" textLength="242.4299" x="418.63" y="382.3981">push       &#65306;&#12503;&#12483;&#12471;&#12517;&#65288;&#12522;&#12514;&#12540;&#12488;&#12408;&#36865;&#20449;&#65289;</text><text fill="#000000" font-family="sans-serif" font-size="13" lengthAdjust="spacing" textLength="249.0505" x="418.63" y="397.531">merge      &#65306;&#12510;&#12540;&#12472;&#65288;&#20182;&#12502;&#12521;&#12531;&#12481;&#12392;&#32113;&#21512;&#65289;</text><text fill="#000000" font-family="sans-serif" font-size="13" lengthAdjust="spacing" textLength="225.799" x="418.63" y="412.6638">commit     &#65306;&#12467;&#12511;&#12483;&#12488;&#65288;&#22793;&#26356;&#12434;&#20445;&#23384;&#65289;</text><text fill="#000000" font-family="sans-serif" font-size="13" lengthAdjust="spacing" textLength="279.7478" x="418.63" y="427.7966">checkout   &#65306;&#12481;&#12455;&#12483;&#12463;&#12450;&#12454;&#12488;&#65288;&#12502;&#12521;&#12531;&#12481;&#20999;&#26367;&#65289;</text><text fill="#000000" font-family="sans-serif" font-size="13" lengthAdjust="spacing" textLength="254.7444" x="418.63" y="442.9294">clone      &#65306;&#12463;&#12525;&#12540;&#12531;&#65288;&#12522;&#12509;&#12472;&#12488;&#12522;&#12434;&#35079;&#35069;&#65289;</text><text fill="#000000" font-family="sans-serif" font-size="13" lengthAdjust="spacing" textLength="223.3298" x="418.63" y="458.0622">fork       &#65306;&#12501;&#12457;&#12540;&#12463;&#65288;&#12467;&#12500;&#12540;&#12434;&#20316;&#25104;&#65289;</text><text fill="#000000" font-family="sans-serif" font-size="13" lengthAdjust="spacing" textLength="246.9939" x="418.63" y="473.195">rebase     &#65306;&#12522;&#12505;&#12540;&#12473;&#65288;&#23653;&#27508;&#12398;&#20184;&#12369;&#26367;&#12360;&#65289;</text><text fill="#000000" font-family="sans-serif" font-size="13" lengthAdjust="spacing" textLength="4.1323" x="418.63" y="488.3278">&#160;</text><text fill="#000000" font-family="sans-serif" font-size="13" lengthAdjust="spacing" textLength="270.8929" x="418.63" y="503.4606">&#8251;&#25805;&#20316;&#12395;&#24540;&#12376;&#12390;&#19978;&#35352;&#29992;&#35486;&#12434;&#29702;&#35299;&#12375;&#12390;&#12362;&#12367;&#12392;&#20415;&#21033;</text></g><!--link DevA to Feature--><g class="link" data-entity-1="DevA" data-entity-2="Feature" data-source-line="11" data-uid="lnk7" id="link_DevA_Feature"><path codeLine="11" d="M219.04,598.04 C228.69,586.55 238.99,572.62 246,558.52 C266.78,516.77 276.4259,468.7115 281.0459,438.4015" fill="none" id="DevA-to-Feature" style="stroke:#181818;stroke-width:1;"/><polygon fill="#181818" points="281.95,432.47,276.6395,440.7645,281.1966,437.4129,284.5482,441.97,281.95,432.47" style="stroke:#181818;stroke-width:1;"/><text fill="#000000" font-family="sans-serif" font-size="13" lengthAdjust="spacing" textLength="148.8716" x="253.92" y="554.5869">git checkout -b feature</text></g><!--link Feature to DevA--><g class="link" data-entity-1="Feature" data-entity-2="DevA" data-source-line="12" data-uid="lnk8" id="link_Feature_DevA"><path codeLine="12" d="M224.34,432.49 C179.07,453.5 120.49,489.19 93,541.52 C74.01,577.68 125.5137,602.5604 161.1237,615.3604" fill="none" id="Feature-to-DevA" style="stroke:#181818;stroke-width:1;"/><polygon fill="#181818" points="166.77,617.39,159.6536,610.5814,162.0647,615.6987,156.9475,618.1099,166.77,617.39" style="stroke:#181818;stroke-width:1;"/><text fill="#000000" font-family="sans-serif" font-size="13" lengthAdjust="spacing" textLength="143.0002" x="94" y="554.5869">&#12467;&#12540;&#12489;&#12434;&#32232;&#38598;&#12539;&#12467;&#12511;&#12483;&#12488;</text></g><!--link Feature to GitHub--><g class="link" data-entity-1="Feature" data-entity-2="GitHub" data-source-line="13" data-uid="lnk10" id="link_Feature_GitHub"><path codeLine="13" d="M308.58,432.34 C334.53,458.2 377.06,501.67 411,541.52 C427.9,561.36 442.2039,580.2427 454.7439,597.4327" fill="none" id="Feature-to-GitHub" style="stroke:#181818;stroke-width:1;"/><polygon fill="#181818" points="458.28,602.28,456.2074,592.6517,455.3333,598.2406,449.7444,597.3664,458.28,602.28" style="stroke:#181818;stroke-width:1;"/><text fill="#000000" font-family="sans-serif" font-size="13" lengthAdjust="spacing" textLength="145.0947" x="424.88" y="554.5869">git push origin feature</text></g><!--link DevB to Main--><g class="link" data-entity-1="DevB" data-entity-2="Main" data-source-line="15" data-uid="lnk11" id="link_DevB_Main"><path codeLine="15" d="M184,82.13 C184,112.27 184,147.69 184,173.32" fill="none" id="DevB-to-Main" style="stroke:#181818;stroke-width:1;"/><polygon fill="#181818" points="184,179.32,188,170.32,184,174.32,180,170.32,184,179.32" style="stroke:#181818;stroke-width:1;"/><text fill="#000000" font-family="sans-serif" font-size="13" lengthAdjust="spacing" textLength="122.5669" x="185" y="124.8669">git pull origin main</text></g><!--reverse link Main to Feature--><g class="link" data-entity-1="Main" data-entity-2="Feature" data-source-line="17" data-uid="lnk12" id="link_Main_Feature"><path codeLine="17" d="M116.3825,215.8741 C74.3125,225.5441 35.23,242.42 54,274.8 C88.42,334.18 160.63,369.21 215.22,388.16" fill="none" id="Main-backto-Feature" style="stroke:#181818;stroke-width:1;stroke-dasharray:7.0,7.0;"/><polygon fill="#181818" points="122.23,214.53,112.5627,212.6478,117.3571,215.6501,114.3548,220.4445,122.23,214.53" style="stroke:#181818;stroke-width:1;"/><text fill="#000000" font-family="sans-serif" font-size="13" lengthAdjust="spacing" textLength="186.1007" x="55" y="270.8669">&#12503;&#12523;&#12522;&#12463;&#12456;&#12473;&#12488; (Pull Request)</text></g><!--reverse link Main to Feature--><g class="link" data-entity-1="Main" data-entity-2="Feature" data-source-line="18" data-uid="lnk13" id="link_Main_Feature"><path codeLine="18" d="M223.2066,231.8581 C233.3366,240.1781 238.94,246.51 246,257.8 C270.89,297.55 279.98,352.75 283.23,383.7" fill="none" id="Main-backto-Feature-1" style="stroke:#181818;stroke-width:1;"/><polygon fill="#181818" points="218.57,228.05,222.9861,236.8533,222.4338,231.2235,228.0637,230.6712,218.57,228.05" style="stroke:#181818;stroke-width:1;"/><text fill="#000000" font-family="sans-serif" font-size="13" lengthAdjust="spacing" textLength="94.085" x="255.11" y="270.8669">&#12510;&#12540;&#12472; (Merge)</text></g><!--SRC=[PPFHJjDW5CVllwSusHLSZ0SWnWHYr1iIunjqjMmDMujjfoR6XFQBq44CY3X01C9WC22J81Y66-nTFEjMhl0HFD-tbXNfHTD-v__hEVzpJfLytdnRqD_fHfQnQKMTKh8Qf9xf3l8Zv9leDP3xz9o2zmn0pIks3Qc2eXl8oyWFaPyXTrEWs311XmF9fAOuHKjxe7hQFsSV65DKnxGWTLDUwAt_3cS-Zad14-tDs8FGU1mQPqm889r-77yAHY6hEw3cD7NAB3gGpa2KdCKAePROAA17fRIGbz1RxbtKRZPcaJVbuJPoJbxlGTI7vyLCb66wQEV0jFIiRjnb4DMCIwcmVoVCvsEXQ1LZClXeP2HHC_9LvCUYozu9UZNqBYav3BqGx4ljTL6pdU68IwVlSLl2WDU0eGdDoch3Z1ccem6bopbWJjvr6E3lzigbiD1RgOL7Mn2SN8SrChg3l29ZZ3GPIp7K78ZhjlKjEQxRbj-v-jwjrj7z4VYpmS-bsrQ92EaE1eImGLgvBnNPMn_T1VHAmM8vk5wD8Jlt7yJHkq1UVO0sRcRSJdkdpnM4nGGNUHUrDSl9Qj6jzNwT1aj-drFDGe4c4NE9-H8Qx9Mw6-Uq09tsPb1VYuXuVw9CBde7iaYQJWMz_JwQJ1duSzsDTaJdJIDH9q6yBWsTnVu6ln8b3lVcmjshFZffMbF9rdn5xr2wF16eg7n5lYwBQVZH42mjezZQ0A84wr9rAVoTLhlrSnfRfxc6xcSg4btP5mB_p3IxNpxHfz0z3jfq9yL-fp4VrjRwQoB-YwNPy60NtLKAeJkFxY9rjtFT3ln3fXclGEpRFm00]--></g></svg>