<svg xmlns="http://www.w3.org/2000/svg" xmlns:xlink="http://www.w3.org/1999/xlink" contentStyleType="text/css" data-diagram-type="SEQUENCE" height="740px" preserveAspectRatio="none" style="width:653px;height:740px;background:#FFFFFF;" version="1.1" viewBox="0 0 653 740" width="653px" zoomAndPan="magnify"><title>GitHub SSH&#25509;&#32154;&#12391;&#12522;&#12509;&#12472;&#12488;&#12522;&#12434;&#12463;&#12525;&#12540;&#12531;&#12377;&#12427;&#27969;&#12428;</title><defs/><g><text fill="#000000" font-family="sans-serif" font-size="14" font-weight="bold" lengthAdjust="spacing" textLength="329.4433" x="157.8559" y="27.9951">GitHub SSH&#25509;&#32154;&#12391;&#12522;&#12509;&#12472;&#12488;&#12522;&#12434;&#12463;&#12525;&#12540;&#12531;&#12377;&#12427;&#27969;&#12428;</text><g><title>User</title><rect fill="#000000" fill-opacity="0.00000" height="541.125" width="8" x="19.9551" y="118.5938"/><line style="stroke:#181818;stroke-width:0.5;stroke-dasharray:5.0,5.0;" x1="23" x2="23" y1="118.5938" y2="659.7188"/></g><g><title>&#12525;&#12540;&#12459;&#12523;PC</title><rect fill="#000000" fill-opacity="0.00000" height="541.125" width="8" x="311.8199" y="118.5938"/><line style="stroke:#181818;stroke-width:0.5;stroke-dasharray:5.0,5.0;" x1="315.7112" x2="315.7112" y1="118.5938" y2="659.7188"/></g><g><title>GitHub</title><rect fill="#000000" fill-opacity="0.00000" height="541.125" width="8" x="605.8977" y="118.5938"/><line style="stroke:#181818;stroke-width:0.5;stroke-dasharray:5.0,5.0;" x1="609.6404" x2="609.6404" y1="118.5938" y2="659.7188"/></g><g class="participant participant-head" data-participant="User"><text fill="#000000" font-family="sans-serif" font-size="14" lengthAdjust="spacing" textLength="31.9102" x="5" y="115.292">User</text><ellipse cx="23.9551" cy="50.7969" fill="#E2E2F0" rx="8" ry="8" style="stroke:#181818;stroke-width:0.5;"/><path d="M23.9551,58.7969 L23.9551,85.7969 M10.9551,66.7969 L36.9551,66.7969 M23.9551,85.7969 L10.9551,100.7969 M23.9551,85.7969 L36.9551,100.7969" fill="none" style="stroke:#181818;stroke-width:0.5;"/></g><g class="participant participant-tail" data-participant="User"><text fill="#000000" font-family="sans-serif" font-size="14" lengthAdjust="spacing" textLength="31.9102" x="5" y="671.7139">User</text><ellipse cx="23.9551" cy="683.5156" fill="#E2E2F0" rx="8" ry="8" style="stroke:#181818;stroke-width:0.5;"/><path d="M23.9551,691.5156 L23.9551,718.5156 M10.9551,699.5156 L36.9551,699.5156 M23.9551,718.5156 L10.9551,733.5156 M23.9551,718.5156 L36.9551,733.5156" fill="none" style="stroke:#181818;stroke-width:0.5;"/></g><g class="participant participant-head" data-participant="PC"><rect fill="#E2E2F0" height="30.2969" rx="2.5" ry="2.5" style="stroke:#181818;stroke-width:0.5;" width="88.2175" x="271.7112" y="87.2969"/><text fill="#000000" font-family="sans-serif" font-size="14" lengthAdjust="spacing" textLength="74.2175" x="278.7112" y="107.292">&#12525;&#12540;&#12459;&#12523;PC</text></g><g class="participant participant-tail" data-participant="PC"><rect fill="#E2E2F0" height="30.2969" rx="2.5" ry="2.5" style="stroke:#181818;stroke-width:0.5;" width="88.2175" x="271.7112" y="658.7188"/><text fill="#000000" font-family="sans-serif" font-size="14" lengthAdjust="spacing" textLength="74.2175" x="278.7112" y="678.7139">&#12525;&#12540;&#12459;&#12523;PC</text></g><g class="participant participant-head" data-participant="GH"><rect fill="#E2E2F0" height="30.2969" rx="2.5" ry="2.5" style="stroke:#181818;stroke-width:0.5;" width="62.5146" x="578.6404" y="87.2969"/><text fill="#000000" font-family="sans-serif" font-size="14" lengthAdjust="spacing" textLength="48.5146" x="585.6404" y="107.292">GitHub</text></g><g class="participant participant-tail" data-participant="GH"><rect fill="#E2E2F0" height="30.2969" rx="2.5" ry="2.5" style="stroke:#181818;stroke-width:0.5;" width="62.5146" x="578.6404" y="658.7188"/><text fill="#000000" font-family="sans-serif" font-size="14" lengthAdjust="spacing" textLength="48.5146" x="585.6404" y="678.7139">GitHub</text></g><rect fill="#EEEEEE" height="3" style="stroke:#EEEEEE;stroke-width:1;" width="646.155" x="0" y="149.1602"/><line style="stroke:#000000;stroke-width:1;" x1="0" x2="646.155" y1="149.1602" y2="149.1602"/><line style="stroke:#000000;stroke-width:1;" x1="0" x2="646.155" y1="152.1602" y2="152.1602"/><rect fill="#EEEEEE" height="23.1328" style="stroke:#000000;stroke-width:2;" width="113.1314" x="266.5118" y="138.5938"/><text fill="#000000" font-family="sans-serif" font-size="13" font-weight="bold" lengthAdjust="spacing" textLength="94.6055" x="272.5118" y="154.6606">SSH&#12461;&#12540;&#12398;&#29983;&#25104;</text><g class="message" data-participant-1="User" data-participant-2="PC"><polygon fill="#181818" points="303.8199,188.8594,313.8199,192.8594,303.8199,196.8594,307.8199,192.8594" style="stroke:#181818;stroke-width:1;"/><line style="stroke:#181818;stroke-width:1;" x1="23.9551" x2="309.8199" y1="192.8594" y2="192.8594"/><text fill="#000000" font-family="sans-serif" font-size="13" lengthAdjust="spacing" textLength="104.3174" x="30.9551" y="187.7935">ssh-keygen &#23455;&#34892;</text></g><g class="message" data-participant-1="PC" data-participant-2="PC"><line style="stroke:#181818;stroke-width:1;" x1="315.8199" x2="357.8199" y1="221.9922" y2="221.9922"/><line style="stroke:#181818;stroke-width:1;" x1="357.8199" x2="357.8199" y1="221.9922" y2="234.9922"/><line style="stroke:#181818;stroke-width:1;" x1="316.8199" x2="357.8199" y1="234.9922" y2="234.9922"/><polygon fill="#181818" points="326.8199,230.9922,316.8199,234.9922,326.8199,238.9922,322.8199,234.9922" style="stroke:#181818;stroke-width:1;"/><text fill="#000000" font-family="sans-serif" font-size="13" lengthAdjust="spacing" textLength="280.0778" x="322.8199" y="216.9263">&#37749;&#12506;&#12450;&#20316;&#25104;&#65288;id_ed25519, id_ed25519.pub&#65289;</text></g><rect fill="#EEEEEE" height="3" style="stroke:#EEEEEE;stroke-width:1;" width="646.155" x="0" y="263.5586"/><line style="stroke:#000000;stroke-width:1;" x1="0" x2="646.155" y1="263.5586" y2="263.5586"/><line style="stroke:#000000;stroke-width:1;" x1="0" x2="646.155" y1="266.5586" y2="266.5586"/><rect fill="#EEEEEE" height="23.1328" style="stroke:#000000;stroke-width:2;" width="96.526" x="274.8145" y="252.9922"/><text fill="#000000" font-family="sans-serif" font-size="13" font-weight="bold" lengthAdjust="spacing" textLength="78.0001" x="280.8145" y="269.0591">&#20844;&#38283;&#37749;&#12398;&#30331;&#37682;</text><g class="message" data-participant-1="User" data-participant-2="PC"><polygon fill="#181818" points="303.8199,303.2578,313.8199,307.2578,303.8199,311.2578,307.8199,307.2578" style="stroke:#181818;stroke-width:1;"/><line style="stroke:#181818;stroke-width:1;" x1="23.9551" x2="309.8199" y1="307.2578" y2="307.2578"/><text fill="#000000" font-family="sans-serif" font-size="13" lengthAdjust="spacing" textLength="267.8649" x="30.9551" y="302.1919">&#20844;&#38283;&#37749;&#12467;&#12500;&#12540;&#65288;cat /.ssh/id_ed25519.pub&#65289;</text></g><g class="message" data-participant-1="User" data-participant-2="GH"><polygon fill="#181818" points="597.8977,347.5234,607.8977,351.5234,597.8977,355.5234,601.8977,351.5234" style="stroke:#181818;stroke-width:1;"/><line style="stroke:#181818;stroke-width:1;" x1="23.9551" x2="603.8977" y1="351.5234" y2="351.5234"/><text fill="#000000" font-family="sans-serif" font-size="13" lengthAdjust="spacing" textLength="97.0494" x="30.9551" y="331.3247">GitHub&#12398;&#35373;&#23450;&#12391;</text><text fill="#000000" font-family="sans-serif" font-size="13" lengthAdjust="spacing" textLength="91.2794" x="30.9551" y="346.4575">SSH&#12461;&#12540;&#12434;&#36861;&#21152;</text></g><rect fill="#EEEEEE" height="3" style="stroke:#EEEEEE;stroke-width:1;" width="646.155" x="0" y="380.0898"/><line style="stroke:#000000;stroke-width:1;" x1="0" x2="646.155" y1="380.0898" y2="380.0898"/><line style="stroke:#000000;stroke-width:1;" x1="0" x2="646.155" y1="383.0898" y2="383.0898"/><rect fill="#EEEEEE" height="23.1328" style="stroke:#000000;stroke-width:2;" width="70.5259" x="287.8145" y="369.5234"/><text fill="#000000" font-family="sans-serif" font-size="13" font-weight="bold" lengthAdjust="spacing" textLength="52.0001" x="293.8145" y="385.5903">&#25509;&#32154;&#30906;&#35469;</text><g class="message" data-participant-1="User" data-participant-2="PC"><polygon fill="#181818" points="303.8199,419.7891,313.8199,423.7891,303.8199,427.7891,307.8199,423.7891" style="stroke:#181818;stroke-width:1;"/><line style="stroke:#181818;stroke-width:1;" x1="23.9551" x2="309.8199" y1="423.7891" y2="423.7891"/><text fill="#000000" font-family="sans-serif" font-size="13" lengthAdjust="spacing" textLength="146.231" x="30.9551" y="418.7231">ssh -T git@github.com</text></g><g class="message" data-participant-1="PC" data-participant-2="GH"><polygon fill="#181818" points="597.8977,448.9219,607.8977,452.9219,597.8977,456.9219,601.8977,452.9219" style="stroke:#181818;stroke-width:1;"/><line style="stroke:#181818;stroke-width:1;" x1="315.8199" x2="603.8977" y1="452.9219" y2="452.9219"/><text fill="#000000" font-family="sans-serif" font-size="13" lengthAdjust="spacing" textLength="91.2794" x="322.8199" y="447.856">SSH&#36890;&#20449;&#12486;&#12473;&#12488;</text></g><g class="message" data-participant-1="GH" data-participant-2="PC"><polygon fill="#181818" points="326.8199,478.0547,316.8199,482.0547,326.8199,486.0547,322.8199,482.0547" style="stroke:#181818;stroke-width:1;"/><line style="stroke:#181818;stroke-width:1;stroke-dasharray:2.0,2.0;" x1="320.8199" x2="608.8977" y1="482.0547" y2="482.0547"/><text fill="#000000" font-family="sans-serif" font-size="13" lengthAdjust="spacing" textLength="117.0001" x="332.8199" y="476.9888">&#35469;&#35388;&#25104;&#21151;&#12513;&#12483;&#12475;&#12540;&#12472;</text></g><rect fill="#EEEEEE" height="3" style="stroke:#EEEEEE;stroke-width:1;" width="646.155" x="0" y="510.6211"/><line style="stroke:#000000;stroke-width:1;" x1="0" x2="646.155" y1="510.6211" y2="510.6211"/><line style="stroke:#000000;stroke-width:1;" x1="0" x2="646.155" y1="513.6211" y2="513.6211"/><rect fill="#EEEEEE" height="23.1328" style="stroke:#000000;stroke-width:2;" width="96.526" x="274.8145" y="500.0547"/><text fill="#000000" font-family="sans-serif" font-size="13" font-weight="bold" lengthAdjust="spacing" textLength="78.0001" x="280.8145" y="516.1216">&#12463;&#12525;&#12540;&#12531;&#23455;&#34892;</text><g class="message" data-participant-1="User" data-participant-2="PC"><polygon fill="#181818" points="303.8199,550.3203,313.8199,554.3203,303.8199,558.3203,307.8199,554.3203" style="stroke:#181818;stroke-width:1;"/><line style="stroke:#181818;stroke-width:1;" x1="23.9551" x2="309.8199" y1="554.3203" y2="554.3203"/><text fill="#000000" font-family="sans-serif" font-size="13" lengthAdjust="spacing" textLength="239.7383" x="30.9551" y="549.2544">git clone git@github.com:xxx/yyy.git</text></g><g class="message" data-participant-1="PC" data-participant-2="GH"><polygon fill="#181818" points="597.8977,579.4531,607.8977,583.4531,597.8977,587.4531,601.8977,583.4531" style="stroke:#181818;stroke-width:1;"/><line style="stroke:#181818;stroke-width:1;" x1="315.8199" x2="603.8977" y1="583.4531" y2="583.4531"/><text fill="#000000" font-family="sans-serif" font-size="13" lengthAdjust="spacing" textLength="130.0002" x="322.8199" y="578.3872">&#12522;&#12509;&#12472;&#12488;&#12522;&#12395;&#12450;&#12463;&#12475;&#12473;</text></g><g class="message" data-participant-1="GH" data-participant-2="PC"><polygon fill="#181818" points="326.8199,608.5859,316.8199,612.5859,326.8199,616.5859,322.8199,612.5859" style="stroke:#181818;stroke-width:1;"/><line style="stroke:#181818;stroke-width:1;stroke-dasharray:2.0,2.0;" x1="320.8199" x2="608.8977" y1="612.5859" y2="612.5859"/><text fill="#000000" font-family="sans-serif" font-size="13" lengthAdjust="spacing" textLength="65.0001" x="332.8199" y="607.52">&#12487;&#12540;&#12479;&#36578;&#36865;</text></g><g class="message" data-participant-1="PC" data-participant-2="User"><polygon fill="#181818" points="34.9551,637.7188,24.9551,641.7188,34.9551,645.7188,30.9551,641.7188" style="stroke:#181818;stroke-width:1;"/><line style="stroke:#181818;stroke-width:1;stroke-dasharray:2.0,2.0;" x1="28.9551" x2="314.8199" y1="641.7188" y2="641.7188"/><text fill="#000000" font-family="sans-serif" font-size="13" lengthAdjust="spacing" textLength="78.0001" x="40.9551" y="636.6528">&#12463;&#12525;&#12540;&#12531;&#25104;&#21151;</text></g><!--SRC=[RL9FIm9H4B_lftXqpfK23mb6q46FWNKBObsNN2eLTmMzXFiUbPL6X0H9OGcHQ1aaHQRXXvbMTqz-XMRVAcfsM7ZCpE_VpEgglg-GeAg7qX4I3eVw5u-3Zp8OJy3gmEw0VWBBEszw1VGLs0kmBh0M63T0p_ll1j2284YodaYHBKr92KaffQkocfJYEbaOZTC6iCR6-WAHDBAnFZlYAlDMC2G8WO1Z0YZ76Sr1gTBFNv90G738YMSLySHFD2tcsLEokqgScCsAzL0Gi3nksiLtO6MWrP_lMmGFktarkgD4bts-fPL5CdcBoNHas3tbckRHitrzxY1HywPZ5zxcD2SZj0MiXFwGMPPqSkWLqOztddWC3uOGxkP4UglsOZQT1M_79qdfbTNxDi_kkHdt18FgbrKl_XUTU3R9hggluHTBHqGvSJ2ApuMGrCwLVteFm8w1jl5w0jOzOpnoMhKkxiKygm338GQqmorySl7f8xkxdRE0kaJUJyILFoxycKp6cyrcHInDE_hx9naDF8wZWyAqFUCEs0dtqhCwLJjdS1RiSNd_Z3StmIy0]--></g></svg>