<svg xmlns="http://www.w3.org/2000/svg" xmlns:xlink="http://www.w3.org/1999/xlink" contentStyleType="text/css" data-diagram-type="SEQUENCE" height="1043px" preserveAspectRatio="none" style="width:583px;height:1043px;background:#FFFFFF;" version="1.1" viewBox="0 0 583 1043" width="583px" zoomAndPan="magnify"><defs/><g><rect fill="none" height="483.7344" style="stroke:#000000;stroke-width:1.5;" width="556.8998" x="10" y="461.8906"/><g><title>User</title><rect fill="#000000" fill-opacity="0.00000" height="881.3281" width="8" x="34.9551" y="81.2969"/><line style="stroke:#181818;stroke-width:0.5;stroke-dasharray:5.0,5.0;" x1="38" x2="38" y1="81.2969" y2="962.625"/></g><g><title>Git (&#12525;&#12540;&#12459;&#12523;)</title><rect fill="#000000" fill-opacity="0.00000" height="881.3281" width="8" x="253.9553" y="81.2969"/><line style="stroke:#181818;stroke-width:0.5;stroke-dasharray:5.0,5.0;" x1="257.1546" x2="257.1546" y1="81.2969" y2="962.625"/></g><g><title>GitHub (&#12522;&#12514;&#12540;&#12488;)</title><rect fill="#000000" fill-opacity="0.00000" height="881.3281" width="8" x="485.9556" y="81.2969"/><line style="stroke:#181818;stroke-width:0.5;stroke-dasharray:5.0,5.0;" x1="489.0113" x2="489.0113" y1="81.2969" y2="962.625"/></g><g class="participant participant-head" data-participant="User"><text fill="#000000" font-family="sans-serif" font-size="14" lengthAdjust="spacing" textLength="31.9102" x="20" y="77.9951">User</text><ellipse cx="38.9551" cy="13.5" fill="#E2E2F0" rx="8" ry="8" style="stroke:#181818;stroke-width:0.5;"/><path d="M38.9551,21.5 L38.9551,48.5 M25.9551,29.5 L51.9551,29.5 M38.9551,48.5 L25.9551,63.5 M38.9551,48.5 L51.9551,63.5" fill="none" style="stroke:#181818;stroke-width:0.5;"/></g><g class="participant participant-tail" data-participant="User"><text fill="#000000" font-family="sans-serif" font-size="14" lengthAdjust="spacing" textLength="31.9102" x="20" y="974.6201">User</text><ellipse cx="38.9551" cy="986.4219" fill="#E2E2F0" rx="8" ry="8" style="stroke:#181818;stroke-width:0.5;"/><path d="M38.9551,994.4219 L38.9551,1021.4219 M25.9551,1002.4219 L51.9551,1002.4219 M38.9551,1021.4219 L25.9551,1036.4219 M38.9551,1021.4219 L51.9551,1036.4219" fill="none" style="stroke:#181818;stroke-width:0.5;"/></g><g class="participant participant-head" data-participant="Local"><rect fill="#E2E2F0" height="30.2969" rx="2.5" ry="2.5" style="stroke:#181818;stroke-width:0.5;" width="105.6013" x="205.1546" y="50"/><text fill="#000000" font-family="sans-serif" font-size="14" lengthAdjust="spacing" textLength="91.6013" x="212.1546" y="69.9951">Git (&#12525;&#12540;&#12459;&#12523;)</text></g><g class="participant participant-tail" data-participant="Local"><rect fill="#E2E2F0" height="30.2969" rx="2.5" ry="2.5" style="stroke:#181818;stroke-width:0.5;" width="105.6013" x="205.1546" y="961.625"/><text fill="#000000" font-family="sans-serif" font-size="14" lengthAdjust="spacing" textLength="91.6013" x="212.1546" y="981.6201">Git (&#12525;&#12540;&#12459;&#12523;)</text></g><g class="participant participant-head" data-participant="Remote"><rect fill="#E2E2F0" height="30.2969" rx="2.5" ry="2.5" style="stroke:#181818;stroke-width:0.5;" width="133.8884" x="423.0113" y="50"/><text fill="#000000" font-family="sans-serif" font-size="14" lengthAdjust="spacing" textLength="119.8884" x="430.0113" y="69.9951">GitHub (&#12522;&#12514;&#12540;&#12488;)</text></g><g class="participant participant-tail" data-participant="Remote"><rect fill="#E2E2F0" height="30.2969" rx="2.5" ry="2.5" style="stroke:#181818;stroke-width:0.5;" width="133.8884" x="423.0113" y="961.625"/><text fill="#000000" font-family="sans-serif" font-size="14" lengthAdjust="spacing" textLength="119.8884" x="430.0113" y="981.6201">GitHub (&#12522;&#12514;&#12540;&#12488;)</text></g><rect fill="#EEEEEE" height="3" style="stroke:#EEEEEE;stroke-width:1;" width="576.8998" x="0" y="111.8633"/><line style="stroke:#000000;stroke-width:1;" x1="0" x2="576.8998" y1="111.8633" y2="111.8633"/><line style="stroke:#000000;stroke-width:1;" x1="0" x2="576.8998" y1="114.8633" y2="114.8633"/><rect fill="#EEEEEE" height="23.1328" style="stroke:#000000;stroke-width:2;" width="84.605" x="246.1474" y="101.2969"/><text fill="#000000" font-family="sans-serif" font-size="13" font-weight="bold" lengthAdjust="spacing" textLength="66.0791" x="252.1474" y="117.3638">push &#35430;&#34892;</text><g class="message" data-participant-1="User" data-participant-2="Local"><polygon fill="#181818" points="245.9553,151.5625,255.9553,155.5625,245.9553,159.5625,249.9553,155.5625" style="stroke:#181818;stroke-width:1;"/><line style="stroke:#181818;stroke-width:1;" x1="38.9551" x2="251.9553" y1="155.5625" y2="155.5625"/><text fill="#000000" font-family="sans-serif" font-size="13" lengthAdjust="spacing" textLength="52.5967" x="45.9551" y="150.4966">git push</text></g><g class="message" data-participant-1="Local" data-participant-2="Remote"><polygon fill="#181818" points="477.9556,180.6953,487.9556,184.6953,477.9556,188.6953,481.9556,184.6953" style="stroke:#181818;stroke-width:1;"/><line style="stroke:#181818;stroke-width:1;" x1="257.9553" x2="483.9556" y1="184.6953" y2="184.6953"/><text fill="#000000" font-family="sans-serif" font-size="13" lengthAdjust="spacing" textLength="68.1167" x="264.9553" y="179.6294">push main</text></g><g class="message" data-participant-1="Remote" data-participant-2="Local"><polygon fill="#181818" points="268.9553,224.9609,258.9553,228.9609,268.9553,232.9609,264.9553,228.9609" style="stroke:#181818;stroke-width:1;"/><line style="stroke:#181818;stroke-width:1;stroke-dasharray:2.0,2.0;" x1="262.9553" x2="488.9556" y1="228.9609" y2="228.9609"/><text fill="#000000" font-family="sans-serif" font-size="13" lengthAdjust="spacing" textLength="208.0002" x="274.9553" y="208.7622">&#12456;&#12521;&#12540;&#65281;&#12522;&#12514;&#12540;&#12488;&#12398;&#23653;&#27508;&#12395;&#24046;&#20998;&#12354;&#12426;</text><text fill="#000000" font-family="sans-serif" font-size="13" lengthAdjust="spacing" textLength="134.6973" x="274.9553" y="223.895">(rejected: fetch first)</text></g><rect fill="#EEEEEE" height="3" style="stroke:#EEEEEE;stroke-width:1;" width="576.8998" x="0" y="257.5273"/><line style="stroke:#000000;stroke-width:1;" x1="0" x2="576.8998" y1="257.5273" y2="257.5273"/><line style="stroke:#000000;stroke-width:1;" x1="0" x2="576.8998" y1="260.5273" y2="260.5273"/><rect fill="#EEEEEE" height="23.1328" style="stroke:#000000;stroke-width:2;" width="76.5244" x="250.1877" y="246.9609"/><text fill="#000000" font-family="sans-serif" font-size="13" font-weight="bold" lengthAdjust="spacing" textLength="57.9986" x="256.1877" y="263.0278">pull &#35430;&#34892;</text><g class="message" data-participant-1="User" data-participant-2="Local"><polygon fill="#181818" points="245.9553,297.2266,255.9553,301.2266,245.9553,305.2266,249.9553,301.2266" style="stroke:#181818;stroke-width:1;"/><line style="stroke:#181818;stroke-width:1;" x1="38.9551" x2="251.9553" y1="301.2266" y2="301.2266"/><text fill="#000000" font-family="sans-serif" font-size="13" lengthAdjust="spacing" textLength="44.8081" x="45.9551" y="296.1606">git pull</text></g><g class="message" data-participant-1="Local" data-participant-2="Remote"><polygon fill="#181818" points="477.9556,326.3594,487.9556,330.3594,477.9556,334.3594,481.9556,330.3594" style="stroke:#181818;stroke-width:1;"/><line style="stroke:#181818;stroke-width:1;" x1="257.9553" x2="483.9556" y1="330.3594" y2="330.3594"/><text fill="#000000" font-family="sans-serif" font-size="13" lengthAdjust="spacing" textLength="91.8062" x="264.9553" y="325.2935">fetch changes</text></g><g class="message" data-participant-1="Remote" data-participant-2="Local"><polygon fill="#181818" points="268.9553,355.4922,258.9553,359.4922,268.9553,363.4922,264.9553,359.4922" style="stroke:#181818;stroke-width:1;"/><line style="stroke:#181818;stroke-width:1;stroke-dasharray:2.0,2.0;" x1="262.9553" x2="488.9556" y1="359.4922" y2="359.4922"/><text fill="#000000" font-family="sans-serif" font-size="13" lengthAdjust="spacing" textLength="117.0001" x="274.9553" y="354.4263">&#12522;&#12514;&#12540;&#12488;&#23653;&#27508;&#12434;&#21462;&#24471;</text></g><g class="message" data-participant-1="Local" data-participant-2="User"><polygon fill="#181818" points="49.9551,399.7578,39.9551,403.7578,49.9551,407.7578,45.9551,403.7578" style="stroke:#181818;stroke-width:1;"/><line style="stroke:#181818;stroke-width:1;stroke-dasharray:2.0,2.0;" x1="43.9551" x2="256.9553" y1="403.7578" y2="403.7578"/><text fill="#000000" font-family="sans-serif" font-size="13" lengthAdjust="spacing" textLength="195.0002" x="55.9551" y="383.5591">&#12456;&#12521;&#12540;&#65281;&#12502;&#12521;&#12531;&#12481;&#12364;&#20998;&#23696;&#12375;&#12390;&#12356;&#12427;</text><text fill="#000000" font-family="sans-serif" font-size="13" lengthAdjust="spacing" textLength="177.9947" x="55.9551" y="398.6919">(hint: rebase or merge&#24517;&#35201;)</text></g><rect fill="#EEEEEE" height="3" style="stroke:#EEEEEE;stroke-width:1;" width="576.8998" x="0" y="432.3242"/><line style="stroke:#000000;stroke-width:1;" x1="0" x2="576.8998" y1="432.3242" y2="432.3242"/><line style="stroke:#000000;stroke-width:1;" x1="0" x2="576.8998" y1="435.3242" y2="435.3242"/><rect fill="#EEEEEE" height="23.1328" style="stroke:#000000;stroke-width:2;" width="109.526" x="233.6869" y="421.7578"/><text fill="#000000" font-family="sans-serif" font-size="13" font-weight="bold" lengthAdjust="spacing" textLength="91.0001" x="239.6869" y="437.8247">&#35299;&#27770;&#26041;&#27861;&#12398;&#36984;&#25246;</text><path d="M10,461.8906 L74.4429,461.8906 L74.4429,469.0234 L64.4429,479.0234 L10,479.0234 L10,461.8906" fill="#EEEEEE" style="stroke:#000000;stroke-width:1.5;"/><rect fill="none" height="483.7344" style="stroke:#000000;stroke-width:1.5;" width="556.8998" x="10" y="461.8906"/><text fill="#000000" font-family="sans-serif" font-size="13" font-weight="bold" lengthAdjust="spacing" textLength="19.4429" x="25" y="474.9575">alt</text><text fill="#000000" font-family="sans-serif" font-size="11" font-weight="bold" lengthAdjust="spacing" textLength="76.0542" x="89.4429" y="474.1011">[&#12510;&#12540;&#12472;&#12391;&#35299;&#27770;]</text><g class="message" data-participant-1="User" data-participant-2="Local"><polygon fill="#181818" points="245.9553,496.1563,255.9553,500.1563,245.9553,504.1563,249.9553,500.1563" style="stroke:#181818;stroke-width:1;"/><line style="stroke:#181818;stroke-width:1;" x1="38.9551" x2="251.9553" y1="500.1563" y2="500.1563"/><text fill="#000000" font-family="sans-serif" font-size="13" lengthAdjust="spacing" textLength="123.5381" x="45.9551" y="495.0903">git pull --no-rebase</text></g><g class="message" data-participant-1="Local" data-participant-2="Remote"><polygon fill="#181818" points="477.9556,525.2891,487.9556,529.2891,477.9556,533.2891,481.9556,529.2891" style="stroke:#181818;stroke-width:1;"/><line style="stroke:#181818;stroke-width:1;" x1="257.9553" x2="483.9556" y1="529.2891" y2="529.2891"/><text fill="#000000" font-family="sans-serif" font-size="13" lengthAdjust="spacing" textLength="94.4722" x="264.9553" y="524.2231">fetch + merge</text></g><g class="message" data-participant-1="Remote" data-participant-2="Local"><polygon fill="#181818" points="268.9553,554.4219,258.9553,558.4219,268.9553,562.4219,264.9553,558.4219" style="stroke:#181818;stroke-width:1;"/><line style="stroke:#181818;stroke-width:1;stroke-dasharray:2.0,2.0;" x1="262.9553" x2="488.9556" y1="558.4219" y2="558.4219"/><text fill="#000000" font-family="sans-serif" font-size="13" lengthAdjust="spacing" textLength="26" x="274.9553" y="553.356">&#25104;&#21151;</text></g><g class="message" data-participant-1="User" data-participant-2="Local"><polygon fill="#181818" points="245.9553,583.5547,255.9553,587.5547,245.9553,591.5547,249.9553,587.5547" style="stroke:#181818;stroke-width:1;"/><line style="stroke:#181818;stroke-width:1;" x1="38.9551" x2="251.9553" y1="587.5547" y2="587.5547"/><text fill="#000000" font-family="sans-serif" font-size="13" lengthAdjust="spacing" textLength="52.5967" x="45.9551" y="582.4888">git push</text></g><g class="message" data-participant-1="Local" data-participant-2="Remote"><polygon fill="#181818" points="477.9556,612.6875,487.9556,616.6875,477.9556,620.6875,481.9556,616.6875" style="stroke:#181818;stroke-width:1;"/><line style="stroke:#181818;stroke-width:1;" x1="257.9553" x2="483.9556" y1="616.6875" y2="616.6875"/><text fill="#000000" font-family="sans-serif" font-size="13" lengthAdjust="spacing" textLength="68.1167" x="264.9553" y="611.6216">push main</text></g><g class="message" data-participant-1="Remote" data-participant-2="Local"><polygon fill="#181818" points="268.9553,641.8203,258.9553,645.8203,268.9553,649.8203,264.9553,645.8203" style="stroke:#181818;stroke-width:1;"/><line style="stroke:#181818;stroke-width:1;stroke-dasharray:2.0,2.0;" x1="262.9553" x2="488.9556" y1="645.8203" y2="645.8203"/><text fill="#000000" font-family="sans-serif" font-size="13" lengthAdjust="spacing" textLength="57.5034" x="274.9553" y="640.7544">push&#25104;&#21151;</text></g><line style="stroke:#000000;stroke-width:1;stroke-dasharray:2.0,2.0;" x1="10" x2="566.8998" y1="654.8203" y2="654.8203"/><text fill="#000000" font-family="sans-serif" font-size="11" font-weight="bold" lengthAdjust="spacing" textLength="87.0542" x="15" y="665.0308">[&#12522;&#12505;&#12540;&#12473;&#12391;&#35299;&#27770;]</text><g class="message" data-participant-1="User" data-participant-2="Local"><polygon fill="#181818" points="245.9553,685.7578,255.9553,689.7578,245.9553,693.7578,249.9553,689.7578" style="stroke:#181818;stroke-width:1;"/><line style="stroke:#181818;stroke-width:1;" x1="38.9551" x2="251.9553" y1="689.7578" y2="689.7578"/><text fill="#000000" font-family="sans-serif" font-size="13" lengthAdjust="spacing" textLength="102.6543" x="45.9551" y="684.6919">git pull --rebase</text></g><g class="message" data-participant-1="Local" data-participant-2="Remote"><polygon fill="#181818" points="477.9556,714.8906,487.9556,718.8906,477.9556,722.8906,481.9556,718.8906" style="stroke:#181818;stroke-width:1;"/><line style="stroke:#181818;stroke-width:1;" x1="257.9553" x2="483.9556" y1="718.8906" y2="718.8906"/><text fill="#000000" font-family="sans-serif" font-size="13" lengthAdjust="spacing" textLength="96.5479" x="264.9553" y="713.8247">fetch + rebase</text></g><g class="message" data-participant-1="Remote" data-participant-2="Local"><polygon fill="#181818" points="268.9553,744.0234,258.9553,748.0234,268.9553,752.0234,264.9553,748.0234" style="stroke:#181818;stroke-width:1;"/><line style="stroke:#181818;stroke-width:1;stroke-dasharray:2.0,2.0;" x1="262.9553" x2="488.9556" y1="748.0234" y2="748.0234"/><text fill="#000000" font-family="sans-serif" font-size="13" lengthAdjust="spacing" textLength="26" x="274.9553" y="742.9575">&#25104;&#21151;</text></g><g class="message" data-participant-1="User" data-participant-2="Local"><polygon fill="#181818" points="245.9553,773.1563,255.9553,777.1563,245.9553,781.1563,249.9553,777.1563" style="stroke:#181818;stroke-width:1;"/><line style="stroke:#181818;stroke-width:1;" x1="38.9551" x2="251.9553" y1="777.1563" y2="777.1563"/><text fill="#000000" font-family="sans-serif" font-size="13" lengthAdjust="spacing" textLength="52.5967" x="45.9551" y="772.0903">git push</text></g><g class="message" data-participant-1="Local" data-participant-2="Remote"><polygon fill="#181818" points="477.9556,802.2891,487.9556,806.2891,477.9556,810.2891,481.9556,806.2891" style="stroke:#181818;stroke-width:1;"/><line style="stroke:#181818;stroke-width:1;" x1="257.9553" x2="483.9556" y1="806.2891" y2="806.2891"/><text fill="#000000" font-family="sans-serif" font-size="13" lengthAdjust="spacing" textLength="68.1167" x="264.9553" y="801.2231">push main</text></g><g class="message" data-participant-1="Remote" data-participant-2="Local"><polygon fill="#181818" points="268.9553,831.4219,258.9553,835.4219,268.9553,839.4219,264.9553,835.4219" style="stroke:#181818;stroke-width:1;"/><line style="stroke:#181818;stroke-width:1;stroke-dasharray:2.0,2.0;" x1="262.9553" x2="488.9556" y1="835.4219" y2="835.4219"/><text fill="#000000" font-family="sans-serif" font-size="13" lengthAdjust="spacing" textLength="57.5034" x="274.9553" y="830.356">push&#25104;&#21151;</text></g><line style="stroke:#000000;stroke-width:1;stroke-dasharray:2.0,2.0;" x1="10" x2="566.8998" y1="844.4219" y2="844.4219"/><text fill="#000000" font-family="sans-serif" font-size="11" font-weight="bold" lengthAdjust="spacing" textLength="117.3256" x="15" y="854.6323">[&#24375;&#21046;Push&#65288;&#21361;&#38522;&#65281;&#65289;]</text><g class="message" data-participant-1="User" data-participant-2="Local"><polygon fill="#181818" points="245.9553,875.3594,255.9553,879.3594,245.9553,883.3594,249.9553,879.3594" style="stroke:#181818;stroke-width:1;"/><line style="stroke:#181818;stroke-width:1;" x1="38.9551" x2="251.9553" y1="879.3594" y2="879.3594"/><text fill="#000000" font-family="sans-serif" font-size="13" lengthAdjust="spacing" textLength="99.1313" x="45.9551" y="874.2935">git push --force</text></g><g class="message" data-participant-1="Local" data-participant-2="Remote"><polygon fill="#181818" points="477.9556,904.4922,487.9556,908.4922,477.9556,912.4922,481.9556,908.4922" style="stroke:#181818;stroke-width:1;"/><line style="stroke:#181818;stroke-width:1;" x1="257.9553" x2="483.9556" y1="908.4922" y2="908.4922"/><text fill="#000000" font-family="sans-serif" font-size="13" lengthAdjust="spacing" textLength="70.5035" x="264.9553" y="903.4263">&#19978;&#26360;&#12365;push</text></g><g class="message" data-participant-1="Remote" data-participant-2="Local"><polygon fill="#181818" points="268.9553,933.625,258.9553,937.625,268.9553,941.625,264.9553,937.625" style="stroke:#181818;stroke-width:1;"/><line style="stroke:#181818;stroke-width:1;stroke-dasharray:2.0,2.0;" x1="262.9553" x2="488.9556" y1="937.625" y2="937.625"/><text fill="#000000" font-family="sans-serif" font-size="13" lengthAdjust="spacing" textLength="187.5036" x="274.9553" y="932.5591">push&#25104;&#21151;&#65288;&#23653;&#27508;&#30772;&#22730;&#12398;&#12522;&#12473;&#12463;&#65289;</text></g><!--SRC=[nLBDJjj04BxlKwmuWL1U85AujWSE2ActNXQpIOmSExAN1rYxHQuBAgf444BYfuW0ZQ0A80Z8QXzcM1DEUOMETrqfWWGuLEAsclrclfyPPWdFfny2xfCcyuLjsKtc2ZhnpXPq4g9JY588En1rfYOe2-YiPp7d2VBzya8E_WdHZnmVnGOypnkUu8HKAhIv7DHf_wJTtr-bbGeXEI4jpPXvj4nhI9TZY2dWZsd6BztQOBPBYb9fg0_2OuXEa7IGoc418CzKzp0xlGJPKTTdAbu16KAOV7GdVRx4BS4NoxJAXLMdLTiFn5IXqd5ULkau8rIQMLQTkJKUZ5GwfAwG5dvNtrhgz-Q_SOZMZ8zjjVJx0Y89SXMjgFDra9iWso0_GVWLFTLjLvIfpnTOm2dkiy7z6bT_FlVRqZZh7nratTkiTPDTR60s3xAN9JlQ8tC4QjlHU-w1F3B8iTPHfUkL3DFO6AQDW54nPF6wIdR_s_xpps8auGwQrp5lQJSthtBpefK2y0PUL7gjugivB0_IMArr7xPkyHu6wPUnb3YlwldMA3jtlIJRnWMlQMdFqkTi-aBlzoxLGOBtagUAUOQ_SdB2tSM_]--></g></svg>