<svg xmlns="http://www.w3.org/2000/svg" xmlns:xlink="http://www.w3.org/1999/xlink" contentStyleType="text/css" data-diagram-type="SEQUENCE" height="687px" preserveAspectRatio="none" style="width:1156px;height:687px;background:#FFFFFF;" version="1.1" viewBox="0 0 1156 687" width="1156px" zoomAndPan="magnify"><defs/><g><g><title>User</title><rect fill="#000000" fill-opacity="0.00000" height="524.9219" width="8" x="19.9551" y="81.2969"/><line style="stroke:#181818;stroke-width:0.5;stroke-dasharray:5.0,5.0;" x1="23" x2="23" y1="81.2969" y2="606.2188"/></g><g><title>Google Colab</title><rect fill="#000000" fill-opacity="0.00000" height="524.9219" width="8" x="308.1765" y="81.2969"/><line style="stroke:#181818;stroke-width:0.5;stroke-dasharray:5.0,5.0;" x1="311.4187" x2="311.4187" y1="81.2969" y2="606.2188"/></g><g><title>Podman Container</title><rect fill="#000000" fill-opacity="0.00000" height="524.9219" width="8" x="514.1767" y="81.2969"/><line style="stroke:#181818;stroke-width:0.5;stroke-dasharray:5.0,5.0;" x1="517.2524" x2="517.2524" y1="81.2969" y2="606.2188"/></g><g><title>&#12467;&#12531;&#12486;&#12490;&#20869;&#12398;&#12473;&#12463;&#12522;&#12503;&#12488;</title><rect fill="#000000" fill-opacity="0.00000" height="524.9219" width="8" x="681.1769" y="81.2969"/><line style="stroke:#181818;stroke-width:0.5;stroke-dasharray:5.0,5.0;" x1="684.1772" x2="684.1772" y1="81.2969" y2="606.2188"/></g><g><title>Google Drive (optional)</title><rect fill="#000000" fill-opacity="0.00000" height="524.9219" width="8" x="859.8045" y="81.2969"/><line style="stroke:#181818;stroke-width:0.5;stroke-dasharray:5.0,5.0;" x1="863.1766" x2="863.1766" y1="81.2969" y2="606.2188"/></g><g class="participant participant-head" data-participant="User"><text fill="#000000" font-family="sans-serif" font-size="14" lengthAdjust="spacing" textLength="31.9102" x="5" y="77.9951">User</text><ellipse cx="23.9551" cy="13.5" fill="#E2E2F0" rx="8" ry="8" style="stroke:#181818;stroke-width:0.5;"/><path d="M23.9551,21.5 L23.9551,48.5 M10.9551,29.5 L36.9551,29.5 M23.9551,48.5 L10.9551,63.5 M23.9551,48.5 L36.9551,63.5" fill="none" style="stroke:#181818;stroke-width:0.5;"/></g><g class="participant participant-tail" data-participant="User"><text fill="#000000" font-family="sans-serif" font-size="14" lengthAdjust="spacing" textLength="31.9102" x="5" y="618.2139">User</text><ellipse cx="23.9551" cy="630.0156" fill="#E2E2F0" rx="8" ry="8" style="stroke:#181818;stroke-width:0.5;"/><path d="M23.9551,638.0156 L23.9551,665.0156 M10.9551,646.0156 L36.9551,646.0156 M23.9551,665.0156 L10.9551,680.0156 M23.9551,665.0156 L36.9551,680.0156" fill="none" style="stroke:#181818;stroke-width:0.5;"/></g><g class="participant participant-head" data-participant="Colab"><rect fill="#E2E2F0" height="30.2969" rx="2.5" ry="2.5" style="stroke:#181818;stroke-width:0.5;" width="107.5156" x="258.4187" y="50"/><text fill="#000000" font-family="sans-serif" font-size="14" lengthAdjust="spacing" textLength="93.5156" x="265.4187" y="69.9951">Google Colab</text></g><g class="participant participant-tail" data-participant="Colab"><rect fill="#E2E2F0" height="30.2969" rx="2.5" ry="2.5" style="stroke:#181818;stroke-width:0.5;" width="107.5156" x="258.4187" y="605.2188"/><text fill="#000000" font-family="sans-serif" font-size="14" lengthAdjust="spacing" textLength="93.5156" x="265.4187" y="625.2139">Google Colab</text></g><g class="participant participant-head" data-participant="Container"><rect fill="#E2E2F0" height="30.2969" rx="2.5" ry="2.5" style="stroke:#181818;stroke-width:0.5;" width="143.8486" x="446.2524" y="50"/><text fill="#000000" font-family="sans-serif" font-size="14" lengthAdjust="spacing" textLength="129.8486" x="453.2524" y="69.9951">Podman Container</text></g><g class="participant participant-tail" data-participant="Container"><rect fill="#E2E2F0" height="30.2969" rx="2.5" ry="2.5" style="stroke:#181818;stroke-width:0.5;" width="143.8486" x="446.2524" y="605.2188"/><text fill="#000000" font-family="sans-serif" font-size="14" lengthAdjust="spacing" textLength="129.8486" x="453.2524" y="625.2139">Podman Container</text></g><g class="participant participant-head" data-participant="Script"><rect fill="#E2E2F0" height="30.2969" rx="2.5" ry="2.5" style="stroke:#181818;stroke-width:0.5;" width="167.9993" x="601.1772" y="50"/><text fill="#000000" font-family="sans-serif" font-size="14" lengthAdjust="spacing" textLength="153.9993" x="608.1772" y="69.9951">&#12467;&#12531;&#12486;&#12490;&#20869;&#12398;&#12473;&#12463;&#12522;&#12503;&#12488;</text></g><g class="participant participant-tail" data-participant="Script"><rect fill="#E2E2F0" height="30.2969" rx="2.5" ry="2.5" style="stroke:#181818;stroke-width:0.5;" width="167.9993" x="601.1772" y="605.2188"/><text fill="#000000" font-family="sans-serif" font-size="14" lengthAdjust="spacing" textLength="153.9993" x="608.1772" y="625.2139">&#12467;&#12531;&#12486;&#12490;&#20869;&#12398;&#12473;&#12463;&#12522;&#12503;&#12488;</text></g><g class="participant participant-head" data-participant="Drive"><text fill="#000000" font-family="sans-serif" font-size="14" lengthAdjust="spacing" textLength="163.2559" x="779.1766" y="77.9951">Google Drive (optional)</text><path d="M845.8045,29 C845.8045,19 863.8045,19 863.8045,19 C863.8045,19 881.8045,19 881.8045,29 L881.8045,55 C881.8045,65 863.8045,65 863.8045,65 C863.8045,65 845.8045,65 845.8045,55 L845.8045,29" fill="#E2E2F0" style="stroke:#181818;stroke-width:1.5;"/><path d="M845.8045,29 C845.8045,39 863.8045,39 863.8045,39 C863.8045,39 881.8045,39 881.8045,29" fill="none" style="stroke:#181818;stroke-width:1.5;"/></g><g class="participant participant-tail" data-participant="Drive"><text fill="#000000" font-family="sans-serif" font-size="14" lengthAdjust="spacing" textLength="163.2559" x="779.1766" y="618.2139">Google Drive (optional)</text><path d="M845.8045,631.5156 C845.8045,621.5156 863.8045,621.5156 863.8045,621.5156 C863.8045,621.5156 881.8045,621.5156 881.8045,631.5156 L881.8045,657.5156 C881.8045,667.5156 863.8045,667.5156 863.8045,667.5156 C863.8045,667.5156 845.8045,667.5156 845.8045,657.5156 L845.8045,631.5156" fill="#E2E2F0" style="stroke:#181818;stroke-width:1.5;"/><path d="M845.8045,631.5156 C845.8045,641.5156 863.8045,641.5156 863.8045,641.5156 C863.8045,641.5156 881.8045,641.5156 881.8045,631.5156" fill="none" style="stroke:#181818;stroke-width:1.5;"/></g><path d="M317,96.2969 L317,211.2969 L485,211.2969 L485,106.2969 L475,96.2969 L317,96.2969" fill="#FEFFDD" style="stroke:#181818;stroke-width:0.5;"/><path d="M475,96.2969 L475,106.2969 L485,106.2969 L475,96.2969" fill="#FEFFDD" style="stroke:#181818;stroke-width:0.5;"/><text fill="#000000" font-family="sans-serif" font-size="13" lengthAdjust="spacing" textLength="146.4152" x="323" y="113.3638">&#9632; &#28961;&#26009;&#29256;&#12473;&#12488;&#12524;&#12540;&#12472;&#30446;&#23433;</text><text fill="#000000" font-family="sans-serif" font-size="13" lengthAdjust="spacing" textLength="138.8995" x="331.2646" y="128.4966">- &#32004;30&#12316;70GB&#21033;&#29992;&#21487;&#33021;</text><text fill="#000000" font-family="sans-serif" font-size="13" lengthAdjust="spacing" textLength="71.5572" x="323" y="143.6294">&#9632; RAM&#30446;&#23433;</text><text fill="#000000" font-family="sans-serif" font-size="13" lengthAdjust="spacing" textLength="73.8994" x="331.2646" y="158.7622">- 12&#12316;15GB</text><text fill="#000000" font-family="sans-serif" font-size="13" lengthAdjust="spacing" textLength="107.4151" x="323" y="173.895">&#9632; &#12475;&#12483;&#12471;&#12519;&#12531;&#21046;&#38480;</text><text fill="#000000" font-family="sans-serif" font-size="13" lengthAdjust="spacing" textLength="119.9073" x="331.2646" y="189.0278">- 90&#20998;&#12316;&#26368;&#22823;12&#26178;&#38291;</text><text fill="#000000" font-family="sans-serif" font-size="13" lengthAdjust="spacing" textLength="125.8234" x="331.2646" y="204.1606">- &#25918;&#32622;&#12391;&#26089;&#26399;&#20999;&#26029;&#12354;&#12426;</text><g class="message" data-participant-1="User" data-participant-2="Colab"><polygon fill="#181818" points="300.1765,234.3594,310.1765,238.3594,300.1765,242.3594,304.1765,238.3594" style="stroke:#181818;stroke-width:1;"/><line style="stroke:#181818;stroke-width:1;" x1="23.9551" x2="306.1765" y1="238.3594" y2="238.3594"/><text fill="#000000" font-family="sans-serif" font-size="13" lengthAdjust="spacing" textLength="140.861" x="30.9551" y="233.2935">Colab&#12494;&#12540;&#12488;&#12502;&#12483;&#12463;&#38283;&#12367;</text></g><g class="message" data-participant-1="User" data-participant-2="Colab"><polygon fill="#181818" points="300.1765,263.4922,310.1765,267.4922,300.1765,271.4922,304.1765,267.4922" style="stroke:#181818;stroke-width:1;"/><line style="stroke:#181818;stroke-width:1;" x1="23.9551" x2="306.1765" y1="267.4922" y2="267.4922"/><text fill="#000000" font-family="sans-serif" font-size="13" lengthAdjust="spacing" textLength="235.549" x="30.9551" y="262.4263">Podman&#12452;&#12531;&#12473;&#12488;&#12540;&#12523; (apt install&#12394;&#12393;)</text></g><g class="message" data-participant-1="User" data-participant-2="Colab"><polygon fill="#181818" points="300.1765,292.625,310.1765,296.625,300.1765,300.625,304.1765,296.625" style="stroke:#181818;stroke-width:1;"/><line style="stroke:#181818;stroke-width:1;" x1="23.9551" x2="306.1765" y1="296.625" y2="296.625"/><text fill="#000000" font-family="sans-serif" font-size="13" lengthAdjust="spacing" textLength="264.2214" x="30.9551" y="291.5591">&#21205;&#30011;&#12501;&#12449;&#12452;&#12523;&#12450;&#12483;&#12503;&#12525;&#12540;&#12489; or Drive&#12510;&#12454;&#12531;&#12488;</text></g><path d="M868,309.625 L868,364.625 L1149,364.625 L1149,319.625 L1139,309.625 L868,309.625" fill="#FEFFDD" style="stroke:#181818;stroke-width:0.5;"/><path d="M1139,309.625 L1139,319.625 L1149,319.625 L1139,309.625" fill="#FEFFDD" style="stroke:#181818;stroke-width:0.5;"/><text fill="#000000" font-family="sans-serif" font-size="13" lengthAdjust="spacing" textLength="153.0484" x="874" y="326.6919">&#9632; Google Drive&#32076;&#30001;&#12394;&#12425;</text><text fill="#000000" font-family="sans-serif" font-size="13" lengthAdjust="spacing" textLength="252.3577" x="882.2646" y="341.8247">- &#12450;&#12459;&#12454;&#12531;&#12488;&#23481;&#37327;&#12395;&#20381;&#23384;&#65288;&#36890;&#24120;15GB&#28961;&#26009;&#65289;</text><text fill="#000000" font-family="sans-serif" font-size="13" lengthAdjust="spacing" textLength="138.8234" x="882.2646" y="356.9575">- &#22823;&#23481;&#37327;&#12501;&#12449;&#12452;&#12523;&#23550;&#24540;&#21487;</text><g class="message" data-participant-1="Colab" data-participant-2="Container"><polygon fill="#181818" points="506.1767,387.1563,516.1767,391.1563,506.1767,395.1563,510.1767,391.1563" style="stroke:#181818;stroke-width:1;"/><line style="stroke:#181818;stroke-width:1;" x1="312.1765" x2="512.1767" y1="391.1563" y2="391.1563"/><text fill="#000000" font-family="sans-serif" font-size="13" lengthAdjust="spacing" textLength="143.9142" x="319.1765" y="386.0903">Podman&#12391;&#12467;&#12531;&#12486;&#12490;&#36215;&#21205;</text></g><g class="message" data-participant-1="Container" data-participant-2="Script"><polygon fill="#181818" points="673.1769,416.2891,683.1769,420.2891,673.1769,424.2891,677.1769,420.2891" style="stroke:#181818;stroke-width:1;"/><line style="stroke:#181818;stroke-width:1;" x1="518.1767" x2="679.1769" y1="420.2891" y2="420.2891"/><text fill="#000000" font-family="sans-serif" font-size="13" lengthAdjust="spacing" textLength="143.0002" x="525.1767" y="415.2231">&#23383;&#24149;&#20184;&#12369;&#12473;&#12463;&#12522;&#12503;&#12488;&#23455;&#34892;</text></g><path d="M690,433.2891 L690,503.2891 L975,503.2891 L975,443.2891 L965,433.2891 L690,433.2891" fill="#FEFFDD" style="stroke:#181818;stroke-width:0.5;"/><path d="M965,433.2891 L965,443.2891 L975,443.2891 L965,433.2891" fill="#FEFFDD" style="stroke:#181818;stroke-width:0.5;"/><text fill="#000000" font-family="sans-serif" font-size="13" lengthAdjust="spacing" textLength="94.4151" x="696" y="450.356">&#9632; &#20966;&#29702;&#26178;&#38291;&#27880;&#24847;</text><text fill="#000000" font-family="sans-serif" font-size="13" lengthAdjust="spacing" textLength="255.8235" x="704.2646" y="465.4888">- &#38263;&#26178;&#38291;&#12472;&#12519;&#12502;&#12399;&#12475;&#12483;&#12471;&#12519;&#12531;&#20999;&#26029;&#12522;&#12473;&#12463;&#12354;&#12426;</text><text fill="#000000" font-family="sans-serif" font-size="13" lengthAdjust="spacing" textLength="133.4152" x="696" y="480.6216">&#9632; &#12501;&#12449;&#12452;&#12523;&#12469;&#12452;&#12474;&#27880;&#24847;</text><text fill="#000000" font-family="sans-serif" font-size="13" lengthAdjust="spacing" textLength="216.8235" x="704.2646" y="495.7544">- &#20986;&#21147;&#12469;&#12452;&#12474;&#22823;&#12365;&#12356;&#12392;&#12473;&#12488;&#12524;&#12540;&#12472;&#22311;&#36843;</text><g class="message" data-participant-1="Script" data-participant-2="Container"><polygon fill="#181818" points="529.1767,525.9531,519.1767,529.9531,529.1767,533.9531,525.1767,529.9531" style="stroke:#181818;stroke-width:1;"/><line style="stroke:#181818;stroke-width:1;" x1="523.1767" x2="684.1769" y1="529.9531" y2="529.9531"/><text fill="#000000" font-family="sans-serif" font-size="13" lengthAdjust="spacing" textLength="117.0001" x="535.1767" y="524.8872">&#23383;&#24149;&#20837;&#12426;&#21205;&#30011;&#12434;&#20986;&#21147;</text></g><g class="message" data-participant-1="Container" data-participant-2="Colab"><polygon fill="#181818" points="323.1765,555.0859,313.1765,559.0859,323.1765,563.0859,319.1765,559.0859" style="stroke:#181818;stroke-width:1;"/><line style="stroke:#181818;stroke-width:1;" x1="317.1765" x2="517.1767" y1="559.0859" y2="559.0859"/><text fill="#000000" font-family="sans-serif" font-size="13" lengthAdjust="spacing" textLength="182.0002" x="329.1765" y="554.02">&#20986;&#21147;&#12501;&#12449;&#12452;&#12523;&#12434;&#12507;&#12473;&#12488;&#12395;&#12467;&#12500;&#12540;</text></g><g class="message" data-participant-1="Colab" data-participant-2="User"><polygon fill="#181818" points="34.9551,584.2188,24.9551,588.2188,34.9551,592.2188,30.9551,588.2188" style="stroke:#181818;stroke-width:1;"/><line style="stroke:#181818;stroke-width:1;" x1="28.9551" x2="311.1765" y1="588.2188" y2="588.2188"/><text fill="#000000" font-family="sans-serif" font-size="13" lengthAdjust="spacing" textLength="195.0002" x="40.9551" y="583.1528">&#23436;&#25104;&#12375;&#12383;&#12501;&#12449;&#12452;&#12523;&#12434;&#12480;&#12454;&#12531;&#12525;&#12540;&#12489;</text></g><!--SRC=[PLFRJXD16BxVfvXm1HSa56ECNfY89boP68qFiC2AczJTPhlnkZDJskMWHMot8DMAGGhKRcCGESEx-3ExxHMluEpCKBfjqgJRdU-Vx_yErMTTsq6liuQZPNJ7DMVDZ6wvQ6JQjkVJ1dfgf_MP4QHdvLCIyyAUUwTR_CHoTTCo78LJlv9O80T0-QS0T8aL5W07G4w0j87k0wq2zSJmgrd7pBZQdExgCthMwAtnp37V6sZKphYcRUdfCG4MBpNDibq3EURyMnVPRzIQ2FtplwCelnNw6z6Y5rDH3-WleET0ZgFDW0MB78JGE8h-vEzDGAxsO69wYdbxKNcNbTeTUg7kUFdaUGAUckJOrFtfANKEv0me1N84jC45CkzlTsDLOHzECA_0uM4jnxORgSbmWtJzp-emB5z65m7WHbZT2sjrvXL3lmMO05dI36iEnR8qBGu6ZJ-Mij0Z-GtqOomaLkGBydRNNmPS6aBBW81inzOh3_XS4utg6HUPLjRLqsd0-u3tneQ6sN8bAdDn5I1Rueeca1ynNHnNIroqY7XtH0n0lm7P4Gbx0ud8cAHR_N56XojH-NVCJcxDZGb8itSH2qwwnHBWvlNbLzPQlpdtkhalxFWujbzcUtD-EyeDLl2-XLdxabtLU9vzZafvGgSgwfrHkD5VqyxX4VT0kyFn8LdGs9rMbPrKhi_M0NyQQ38BwfsjbG4NLBEb3Qou4wqMP1t2WzqmNr8gkfKZ-PQtL1JA1zmUgfXe2cUJjB8oges9j0xZ1tAQO635KxQqsJlZjW7-03WFU7VWNy9gZSvLiyyvfNt0Eca4M_Z9jr2L8MkI9MbThrToWyIcQq0t5JrkYWpAV8cxh4Gt-MYm4dghWAk0wqCNv6vxexhv7m00]--></g></svg>