<svg xmlns="http://www.w3.org/2000/svg" xmlns:xlink="http://www.w3.org/1999/xlink" contentStyleType="text/css" data-diagram-type="SEQUENCE" height="682px" preserveAspectRatio="none" style="width:673px;height:682px;background:#FFFFFF;" version="1.1" viewBox="0 0 673 682" width="673px" zoomAndPan="magnify"><defs/><g><g><title>Developer</title><rect fill="#000000" fill-opacity="0.00000" height="520.2578" width="8" x="40.0015" y="81.2969"/><line style="stroke:#181818;stroke-width:0.5;stroke-dasharray:5.0,5.0;" x1="44" x2="44" y1="81.2969" y2="601.5547"/></g><g><title>Local Git</title><rect fill="#000000" fill-opacity="0.00000" height="520.2578" width="8" x="244.4146" y="81.2969"/><line style="stroke:#181818;stroke-width:0.5;stroke-dasharray:5.0,5.0;" x1="247.9528" x2="247.9528" y1="81.2969" y2="601.5547"/></g><g><title>Remote GitHub</title><rect fill="#000000" fill-opacity="0.00000" height="520.2578" width="8" x="436.8791" y="81.2969"/><line style="stroke:#181818;stroke-width:0.5;stroke-dasharray:5.0,5.0;" x1="440.0734" x2="440.0734" y1="81.2969" y2="601.5547"/></g><g class="participant participant-head" data-participant="Developer"><text fill="#000000" font-family="sans-serif" font-size="14" lengthAdjust="spacing" textLength="72.0029" x="5" y="77.9951">Developer</text><ellipse cx="44.0015" cy="13.5" fill="#E2E2F0" rx="8" ry="8" style="stroke:#181818;stroke-width:0.5;"/><path d="M44.0015,21.5 L44.0015,48.5 M31.0015,29.5 L57.0015,29.5 M44.0015,48.5 L31.0015,63.5 M44.0015,48.5 L57.0015,63.5" fill="none" style="stroke:#181818;stroke-width:0.5;"/></g><g class="participant participant-tail" data-participant="Developer"><text fill="#000000" font-family="sans-serif" font-size="14" lengthAdjust="spacing" textLength="72.0029" x="5" y="613.5498">Developer</text><ellipse cx="44.0015" cy="625.3516" fill="#E2E2F0" rx="8" ry="8" style="stroke:#181818;stroke-width:0.5;"/><path d="M44.0015,633.3516 L44.0015,660.3516 M31.0015,641.3516 L57.0015,641.3516 M44.0015,660.3516 L31.0015,675.3516 M44.0015,660.3516 L57.0015,675.3516" fill="none" style="stroke:#181818;stroke-width:0.5;"/></g><g class="participant participant-head" data-participant="Local"><rect fill="#E2E2F0" height="46.5938" rx="2.5" ry="2.5" style="stroke:#181818;stroke-width:0.5;" width="80.9236" x="207.9528" y="33.7031"/><text fill="#000000" font-family="sans-serif" font-size="14" lengthAdjust="spacing" textLength="61.209" x="217.8101" y="53.6982">Local Git</text><text fill="#000000" font-family="sans-serif" font-size="14" lengthAdjust="spacing" textLength="66.9236" x="214.9528" y="69.9951">(&#12525;&#12540;&#12459;&#12523;)</text></g><g class="participant participant-tail" data-participant="Local"><rect fill="#E2E2F0" height="46.5938" rx="2.5" ry="2.5" style="stroke:#181818;stroke-width:0.5;" width="80.9236" x="207.9528" y="600.5547"/><text fill="#000000" font-family="sans-serif" font-size="14" lengthAdjust="spacing" textLength="61.209" x="217.8101" y="620.5498">Local Git</text><text fill="#000000" font-family="sans-serif" font-size="14" lengthAdjust="spacing" textLength="66.9236" x="214.9528" y="636.8467">(&#12525;&#12540;&#12459;&#12523;)</text></g><g class="participant participant-head" data-participant="Remote"><rect fill="#E2E2F0" height="46.5938" rx="2.5" ry="2.5" style="stroke:#181818;stroke-width:0.5;" width="121.6113" x="380.0734" y="33.7031"/><text fill="#000000" font-family="sans-serif" font-size="14" lengthAdjust="spacing" textLength="107.6113" x="387.0734" y="53.6982">Remote GitHub</text><text fill="#000000" font-family="sans-serif" font-size="14" lengthAdjust="spacing" textLength="66.9236" x="407.4173" y="69.9951">(&#12522;&#12514;&#12540;&#12488;)</text></g><g class="participant participant-tail" data-participant="Remote"><rect fill="#E2E2F0" height="46.5938" rx="2.5" ry="2.5" style="stroke:#181818;stroke-width:0.5;" width="121.6113" x="380.0734" y="600.5547"/><text fill="#000000" font-family="sans-serif" font-size="14" lengthAdjust="spacing" textLength="107.6113" x="387.0734" y="620.5498">Remote GitHub</text><text fill="#000000" font-family="sans-serif" font-size="14" lengthAdjust="spacing" textLength="66.9236" x="407.4173" y="636.8467">(&#12522;&#12514;&#12540;&#12488;)</text></g><rect fill="#EEEEEE" height="3" style="stroke:#EEEEEE;stroke-width:1;" width="666.0002" x="0" y="111.8633"/><line style="stroke:#000000;stroke-width:1;" x1="0" x2="666.0002" y1="111.8633" y2="111.8633"/><line style="stroke:#000000;stroke-width:1;" x1="0" x2="666.0002" y1="114.8633" y2="114.8633"/><rect fill="#EEEEEE" height="23.1328" style="stroke:#000000;stroke-width:2;" width="149.6051" x="258.1976" y="101.2969"/><text fill="#000000" font-family="sans-serif" font-size="13" font-weight="bold" lengthAdjust="spacing" textLength="131.0792" x="264.1976" y="117.3638">push &#22833;&#25943;&#12398;&#12471;&#12490;&#12522;&#12458;</text><g class="message" data-participant-1="Developer" data-participant-2="Local"><polygon fill="#181818" points="236.4146,151.5625,246.4146,155.5625,236.4146,159.5625,240.4146,155.5625" style="stroke:#181818;stroke-width:1;"/><line style="stroke:#181818;stroke-width:1;" x1="44.0015" x2="242.4146" y1="155.5625" y2="155.5625"/><text fill="#000000" font-family="sans-serif" font-size="13" lengthAdjust="spacing" textLength="70.2305" x="111.0928" y="150.4966">git commit</text></g><g class="message" data-participant-1="Developer" data-participant-2="Local"><polygon fill="#181818" points="236.4146,180.6953,246.4146,184.6953,236.4146,188.6953,240.4146,184.6953" style="stroke:#181818;stroke-width:1;"/><line style="stroke:#181818;stroke-width:1;" x1="44.0015" x2="242.4146" y1="184.6953" y2="184.6953"/><text fill="#000000" font-family="sans-serif" font-size="13" lengthAdjust="spacing" textLength="130.3555" x="81.0303" y="179.6294">git push origin main</text></g><g class="message" data-participant-1="Local" data-participant-2="Remote"><polygon fill="#181818" points="428.8791,209.8281,438.8791,213.8281,428.8791,217.8281,432.8791,213.8281" style="stroke:#181818;stroke-width:1;"/><line style="stroke:#181818;stroke-width:1;" x1="248.4146" x2="434.8791" y1="213.8281" y2="213.8281"/><text fill="#000000" font-family="sans-serif" font-size="13" lengthAdjust="spacing" textLength="68.1167" x="310.5885" y="208.7622">push main</text></g><g class="message" data-participant-1="Remote" data-participant-2="Local"><polygon fill="#181818" points="259.4146,254.0938,249.4146,258.0938,259.4146,262.0938,255.4146,258.0938" style="stroke:#181818;stroke-width:1;"/><line style="stroke:#181818;stroke-width:1;stroke-dasharray:2.0,2.0;" x1="253.4146" x2="439.8791" y1="258.0938" y2="258.0938"/><text fill="#000000" font-family="sans-serif" font-size="13" lengthAdjust="spacing" textLength="69.0688" x="310.1124" y="237.895">&#10060; Rejected</text><text fill="#000000" font-family="sans-serif" font-size="13" lengthAdjust="spacing" textLength="74.5532" x="307.3702" y="253.0278">"fetch first"</text></g><path d="M445,271.0938 L445,326.0938 L661,326.0938 L661,281.0938 L651,271.0938 L445,271.0938" fill="#FEFFDD" style="stroke:#181818;stroke-width:0.5;"/><path d="M651,271.0938 L651,281.0938 L661,281.0938 L651,271.0938" fill="#FEFFDD" style="stroke:#181818;stroke-width:0.5;"/><text fill="#000000" font-family="sans-serif" font-size="13" lengthAdjust="spacing" textLength="195.0002" x="451" y="288.1606">&#12522;&#12514;&#12540;&#12488;&#12395;&#12399;&#26032;&#12375;&#12356;&#22793;&#26356;&#12364;&#12354;&#12427;&#12290;</text><text fill="#000000" font-family="sans-serif" font-size="13" lengthAdjust="spacing" textLength="195.0002" x="451" y="303.2935">&#12525;&#12540;&#12459;&#12523;&#12399;&#12381;&#12428;&#12434;&#25345;&#12387;&#12390;&#12356;&#12394;&#12356;&#12290;</text><text fill="#000000" font-family="sans-serif" font-size="13" lengthAdjust="spacing" textLength="145.7931" x="451" y="318.4263">&#8594; &#23433;&#20840;&#12398;&#12383;&#12417; push &#25298;&#21542;</text><rect fill="#EEEEEE" height="3" style="stroke:#EEEEEE;stroke-width:1;" width="666.0002" x="0" y="352.0586"/><line style="stroke:#000000;stroke-width:1;" x1="0" x2="666.0002" y1="352.0586" y2="352.0586"/><line style="stroke:#000000;stroke-width:1;" x1="0" x2="666.0002" y1="355.0586" y2="355.0586"/><rect fill="#EEEEEE" height="23.1328" style="stroke:#000000;stroke-width:2;" width="193.7022" x="236.149" y="341.4922"/><text fill="#000000" font-family="sans-serif" font-size="13" font-weight="bold" lengthAdjust="spacing" textLength="175.1764" x="242.149" y="357.5591">&#35299;&#27770;&#65306;pull --rebase &#12391;&#23550;&#24540;</text><g class="message" data-participant-1="Developer" data-participant-2="Local"><polygon fill="#181818" points="236.4146,391.7578,246.4146,395.7578,236.4146,399.7578,240.4146,395.7578" style="stroke:#181818;stroke-width:1;"/><line style="stroke:#181818;stroke-width:1;" x1="44.0015" x2="242.4146" y1="395.7578" y2="395.7578"/><text fill="#000000" font-family="sans-serif" font-size="13" lengthAdjust="spacing" textLength="180.4131" x="56.0015" y="390.6919">git pull origin main --rebase</text></g><g class="message" data-participant-1="Local" data-participant-2="Remote"><polygon fill="#181818" points="428.8791,420.8906,438.8791,424.8906,428.8791,428.8906,432.8791,424.8906" style="stroke:#181818;stroke-width:1;"/><line style="stroke:#181818;stroke-width:1;" x1="248.4146" x2="434.8791" y1="424.8906" y2="424.8906"/><text fill="#000000" font-family="sans-serif" font-size="13" lengthAdjust="spacing" textLength="132.4819" x="278.4058" y="419.8247">fetch latest changes</text></g><g class="message" data-participant-1="Remote" data-participant-2="Local"><polygon fill="#181818" points="259.4146,450.0234,249.4146,454.0234,259.4146,458.0234,255.4146,454.0234" style="stroke:#181818;stroke-width:1;"/><line style="stroke:#181818;stroke-width:1;stroke-dasharray:2.0,2.0;" x1="253.4146" x2="439.8791" y1="454.0234" y2="454.0234"/><text fill="#000000" font-family="sans-serif" font-size="13" lengthAdjust="spacing" textLength="117.0001" x="286.1467" y="448.9575">&#26368;&#26032;&#12398;&#12467;&#12511;&#12483;&#12488;&#21462;&#24471;</text></g><g class="message" data-participant-1="Local" data-participant-2="Local"><line style="stroke:#181818;stroke-width:1;" x1="248.4146" x2="290.4146" y1="483.1563" y2="483.1563"/><line style="stroke:#181818;stroke-width:1;" x1="290.4146" x2="290.4146" y1="483.1563" y2="496.1563"/><line style="stroke:#181818;stroke-width:1;" x1="249.4146" x2="290.4146" y1="496.1563" y2="496.1563"/><polygon fill="#181818" points="259.4146,492.1563,249.4146,496.1563,259.4146,500.1563,255.4146,496.1563" style="stroke:#181818;stroke-width:1;"/><text fill="#000000" font-family="sans-serif" font-size="13" lengthAdjust="spacing" textLength="178.4645" x="255.4146" y="478.0903">rebase &#12391;&#33258;&#20998;&#12398;&#22793;&#26356;&#12434;&#20877;&#36969;&#29992;</text></g><g class="message" data-participant-1="Developer" data-participant-2="Local"><polygon fill="#181818" points="236.4146,521.2891,246.4146,525.2891,236.4146,529.2891,240.4146,525.2891" style="stroke:#181818;stroke-width:1;"/><line style="stroke:#181818;stroke-width:1;" x1="44.0015" x2="242.4146" y1="525.2891" y2="525.2891"/><text fill="#000000" font-family="sans-serif" font-size="13" lengthAdjust="spacing" textLength="130.3555" x="81.0303" y="520.2231">git push origin main</text></g><g class="message" data-participant-1="Local" data-participant-2="Remote"><polygon fill="#181818" points="428.8791,550.4219,438.8791,554.4219,428.8791,558.4219,432.8791,554.4219" style="stroke:#181818;stroke-width:1;"/><line style="stroke:#181818;stroke-width:1;" x1="248.4146" x2="434.8791" y1="554.4219" y2="554.4219"/><text fill="#000000" font-family="sans-serif" font-size="13" lengthAdjust="spacing" textLength="68.1167" x="310.5885" y="549.356">push main</text></g><g class="message" data-participant-1="Remote" data-participant-2="Local"><polygon fill="#181818" points="259.4146,579.5547,249.4146,583.5547,259.4146,587.5547,255.4146,583.5547" style="stroke:#181818;stroke-width:1;"/><line style="stroke:#181818;stroke-width:1;stroke-dasharray:2.0,2.0;" x1="253.4146" x2="439.8791" y1="583.5547" y2="583.5547"/><text fill="#000000" font-family="sans-serif" font-size="13" lengthAdjust="spacing" textLength="86.5694" x="301.3621" y="578.4888">&#9989; push &#23436;&#20102;&#65281;</text></g><!--SRC=[jPBFQnD15CVlyrSCkLGF1V5OY208Ub0eddkPRYQRqMHstPruxipOsDY84hIbcjBQXZO_CBMq8CJG_YzzdKrwwh_Wx6xIHAZUl8Gbx_jv-zxdxHm6TGwg2NeNT3jvEBdQQu7iZhwrXiq-2byoxfE0b718NvKfT-Wp6eR4fG-BpENOeLpGO2QrI0B17EOJBXP9BiUuY-_VGsWE3xT-cTtJotv_M6qZuWWlm8_eQrhqVClxKmfdddeEAUB7J2pnEw2_Wnw0weBktirW4kAa-YVmd9OyGMFYINavWJgWzs9EhwLGca0ecyL-EInWqpoEFc-2x87w2VfT3AWEpcOHkfa9ppz8tuKNiCi4ThnIYOc_rvE-Ni1Snd69C8xIeasDnrj88qbj_DVyJ8-BxPfDlg2EeBabdibJuHHmdWMXo234uxJjNH3Ooq-scLtJ7WpaKRJn0wHTwurfLgElfo1h81MeTLXHQDQaZOBS1bK3LOzg4kG-o0EBWUp4lpPzKQbZqwkQrLOiIUw0akduqNhTV3n0bESmdoWT7Uv7n_thmHU_NBGRpmTqcOGKWpmqHsVclF5liGaq8-wcmIq6Koj58cXeBr8WtANXRJAZnahYmjxt1FGEQ6qTcGyRvcnpsdKIdeuxUjinQnMBZVsfkgcylvBjuQVMVpnyOtNyKVPgb_tAzK3-1W00]--></g></svg>