<svg xmlns="http://www.w3.org/2000/svg" xmlns:xlink="http://www.w3.org/1999/xlink" contentStyleType="text/css" data-diagram-type="SEQUENCE" height="939px" preserveAspectRatio="none" style="width:781px;height:939px;background:#FFFFFF;" version="1.1" viewBox="0 0 781 939" width="781px" zoomAndPan="magnify"><defs/><g><g><title>SSH Config</title><rect fill="#FFFFFF" height="652.0547" style="stroke:#181818;stroke-width:1;" width="10" x="394.0605" y="197.6953"/></g><g><title>SSH Config</title><rect fill="#FFFFFF" height="372.9922" style="stroke:#181818;stroke-width:1;" width="10" x="399.0605" y="476.7578"/></g><g><title>User</title><rect fill="#000000" fill-opacity="0.00000" height="777.4531" width="8" x="19.9551" y="81.2969"/><line style="stroke:#181818;stroke-width:0.5;stroke-dasharray:5.0,5.0;" x1="23" x2="23" y1="81.2969" y2="858.75"/></g><g><title>SSH Config</title><rect fill="#000000" fill-opacity="0.00000" height="777.4531" width="8" x="395.0605" y="81.2969"/><line style="stroke:#181818;stroke-width:0.5;stroke-dasharray:5.0,5.0;" x1="398.2256" x2="398.2256" y1="81.2969" y2="858.75"/></g><g><title>GitHub (hogehoge)</title><rect fill="#000000" fill-opacity="0.00000" height="777.4531" width="8" x="524.7783" y="81.2969"/><line style="stroke:#181818;stroke-width:0.5;stroke-dasharray:5.0,5.0;" x1="527.8955" x2="527.8955" y1="81.2969" y2="858.75"/></g><g><title>GitHub (mogemoge)</title><rect fill="#000000" fill-opacity="0.00000" height="777.4531" width="8" x="687.3086" y="81.2969"/><line style="stroke:#181818;stroke-width:0.5;stroke-dasharray:5.0,5.0;" x1="690.6611" x2="690.6611" y1="81.2969" y2="858.75"/></g><g class="participant participant-head" data-participant="U"><text fill="#000000" font-family="sans-serif" font-size="14" lengthAdjust="spacing" textLength="31.9102" x="5" y="77.9951">User</text><ellipse cx="23.9551" cy="13.5" fill="#E2E2F0" rx="8" ry="8" style="stroke:#181818;stroke-width:0.5;"/><path d="M23.9551,21.5 L23.9551,48.5 M10.9551,29.5 L36.9551,29.5 M23.9551,48.5 L10.9551,63.5 M23.9551,48.5 L36.9551,63.5" fill="none" style="stroke:#181818;stroke-width:0.5;"/></g><g class="participant participant-tail" data-participant="U"><text fill="#000000" font-family="sans-serif" font-size="14" lengthAdjust="spacing" textLength="31.9102" x="5" y="870.7451">User</text><ellipse cx="23.9551" cy="882.5469" fill="#E2E2F0" rx="8" ry="8" style="stroke:#181818;stroke-width:0.5;"/><path d="M23.9551,890.5469 L23.9551,917.5469 M10.9551,898.5469 L36.9551,898.5469 M23.9551,917.5469 L10.9551,932.5469 M23.9551,917.5469 L36.9551,932.5469" fill="none" style="stroke:#181818;stroke-width:0.5;"/></g><g class="participant participant-head" data-participant="SSH"><rect fill="#E2E2F0" height="30.2969" rx="2.5" ry="2.5" style="stroke:#181818;stroke-width:0.5;" width="91.6699" x="353.2256" y="50"/><text fill="#000000" font-family="sans-serif" font-size="14" lengthAdjust="spacing" textLength="77.6699" x="360.2256" y="69.9951">SSH Config</text></g><g class="participant participant-tail" data-participant="SSH"><rect fill="#E2E2F0" height="30.2969" rx="2.5" ry="2.5" style="stroke:#181818;stroke-width:0.5;" width="91.6699" x="353.2256" y="857.75"/><text fill="#000000" font-family="sans-serif" font-size="14" lengthAdjust="spacing" textLength="77.6699" x="360.2256" y="877.7451">SSH Config</text></g><g class="participant participant-head" data-participant="GH1"><rect fill="#E2E2F0" height="30.2969" rx="2.5" ry="2.5" style="stroke:#181818;stroke-width:0.5;" width="147.7656" x="454.8955" y="50"/><text fill="#000000" font-family="sans-serif" font-size="14" lengthAdjust="spacing" textLength="133.7656" x="461.8955" y="69.9951">GitHub (hogehoge)</text></g><g class="participant participant-tail" data-participant="GH1"><rect fill="#E2E2F0" height="30.2969" rx="2.5" ry="2.5" style="stroke:#181818;stroke-width:0.5;" width="147.7656" x="454.8955" y="857.75"/><text fill="#000000" font-family="sans-serif" font-size="14" lengthAdjust="spacing" textLength="133.7656" x="461.8955" y="877.7451">GitHub (hogehoge)</text></g><g class="participant participant-head" data-participant="GH2"><rect fill="#E2E2F0" height="30.2969" rx="2.5" ry="2.5" style="stroke:#181818;stroke-width:0.5;" width="157.2949" x="612.6611" y="50"/><text fill="#000000" font-family="sans-serif" font-size="14" lengthAdjust="spacing" textLength="143.2949" x="619.6611" y="69.9951">GitHub (mogemoge)</text></g><g class="participant participant-tail" data-participant="GH2"><rect fill="#E2E2F0" height="30.2969" rx="2.5" ry="2.5" style="stroke:#181818;stroke-width:0.5;" width="157.2949" x="612.6611" y="857.75"/><text fill="#000000" font-family="sans-serif" font-size="14" lengthAdjust="spacing" textLength="143.2949" x="619.6611" y="877.7451">GitHub (mogemoge)</text></g><g><title>SSH Config</title><rect fill="#FFFFFF" height="652.0547" style="stroke:#181818;stroke-width:1;" width="10" x="394.0605" y="197.6953"/></g><g><title>SSH Config</title><rect fill="#FFFFFF" height="372.9922" style="stroke:#181818;stroke-width:1;" width="10" x="399.0605" y="476.7578"/></g><rect fill="#EEEEEE" height="3" style="stroke:#EEEEEE;stroke-width:1;" width="774.9561" x="0" y="111.8633"/><line style="stroke:#000000;stroke-width:1;" x1="0" x2="774.9561" y1="111.8633" y2="111.8633"/><line style="stroke:#000000;stroke-width:1;" x1="0" x2="774.9561" y1="114.8633" y2="114.8633"/><rect fill="#EEEEEE" height="23.1328" style="stroke:#000000;stroke-width:2;" width="212.6691" x="281.1435" y="101.2969"/><text fill="#000000" font-family="sans-serif" font-size="13" font-weight="bold" lengthAdjust="spacing" textLength="194.1432" x="287.1435" y="117.3638">hogehoge &#12450;&#12459;&#12454;&#12531;&#12488;&#12391;&#12398;&#25805;&#20316;</text><g class="message" data-participant-1="U" data-participant-2="U"><line style="stroke:#181818;stroke-width:1;" x1="23.9551" x2="65.9551" y1="155.5625" y2="155.5625"/><line style="stroke:#181818;stroke-width:1;" x1="65.9551" x2="65.9551" y1="155.5625" y2="168.5625"/><line style="stroke:#181818;stroke-width:1;" x1="24.9551" x2="65.9551" y1="168.5625" y2="168.5625"/><polygon fill="#181818" points="34.9551,164.5625,24.9551,168.5625,34.9551,172.5625,30.9551,168.5625" style="stroke:#181818;stroke-width:1;"/><text fill="#000000" font-family="sans-serif" font-size="13" lengthAdjust="spacing" textLength="325.6919" x="30.9551" y="150.4966">git clone git@github-hogehoge:hogehoge/repo.git</text></g><g class="message" data-participant-1="U" data-participant-2="SSH"><polygon fill="#181818" points="382.0605,193.6953,392.0605,197.6953,382.0605,201.6953,386.0605,197.6953" style="stroke:#181818;stroke-width:1;"/><line style="stroke:#181818;stroke-width:1;" x1="23.9551" x2="388.0605" y1="197.6953" y2="197.6953"/><text fill="#000000" font-family="sans-serif" font-size="13" lengthAdjust="spacing" textLength="156.4253" x="30.9551" y="192.6294">&#25509;&#32154; &#8594; github-hogehoge</text></g><g class="message" data-participant-1="SSH" data-participant-2="GH1"><polygon fill="#181818" points="516.7783,222.8281,526.7783,226.8281,516.7783,230.8281,520.7783,226.8281" style="stroke:#181818;stroke-width:1;"/><line style="stroke:#181818;stroke-width:1;" x1="404.0605" x2="522.7783" y1="226.8281" y2="226.8281"/><text fill="#000000" font-family="sans-serif" font-size="13" lengthAdjust="spacing" textLength="78.7237" x="411.0605" y="221.7622">&#35469;&#35388; (id_rsa)</text></g><g class="message" data-participant-1="GH1" data-participant-2="SSH"><polygon fill="#181818" points="415.0605,251.9609,405.0605,255.9609,415.0605,259.9609,411.0605,255.9609" style="stroke:#181818;stroke-width:1;"/><line style="stroke:#181818;stroke-width:1;stroke-dasharray:2.0,2.0;" x1="409.0605" x2="527.7783" y1="255.9609" y2="255.9609"/><text fill="#000000" font-family="sans-serif" font-size="13" lengthAdjust="spacing" textLength="18.7573" x="421.0605" y="250.895">OK</text></g><g class="message" data-participant-1="SSH" data-participant-2="U"><polygon fill="#181818" points="34.9551,281.0938,24.9551,285.0938,34.9551,289.0938,30.9551,285.0938" style="stroke:#181818;stroke-width:1;"/><line style="stroke:#181818;stroke-width:1;stroke-dasharray:2.0,2.0;" x1="28.9551" x2="393.0605" y1="285.0938" y2="285.0938"/><text fill="#000000" font-family="sans-serif" font-size="13" lengthAdjust="spacing" textLength="142.8858" x="40.9551" y="280.0278">&#35469;&#35388;&#25104;&#21151;&#65288;hogehoge&#65289;</text></g><g class="message" data-participant-1="U" data-participant-2="U"><line style="stroke:#181818;stroke-width:1;" x1="23.9551" x2="65.9551" y1="314.2266" y2="314.2266"/><line style="stroke:#181818;stroke-width:1;" x1="65.9551" x2="65.9551" y1="314.2266" y2="327.2266"/><line style="stroke:#181818;stroke-width:1;" x1="24.9551" x2="65.9551" y1="327.2266" y2="327.2266"/><polygon fill="#181818" points="34.9551,323.2266,24.9551,327.2266,34.9551,331.2266,30.9551,327.2266" style="stroke:#181818;stroke-width:1;"/><text fill="#000000" font-family="sans-serif" font-size="13" lengthAdjust="spacing" textLength="84.665" x="30.9551" y="309.1606">git remote -v</text></g><path d="M28,340.2266 L28,365.2266 L359,365.2266 L359,350.2266 L349,340.2266 L28,340.2266" fill="#FEFFDD" style="stroke:#181818;stroke-width:0.5;"/><path d="M349,340.2266 L349,350.2266 L359,350.2266 L349,340.2266" fill="#FEFFDD" style="stroke:#181818;stroke-width:0.5;"/><text fill="#000000" font-family="sans-serif" font-size="13" lengthAdjust="spacing" textLength="310.7939" x="34" y="357.2935">origin  git@github-hogehoge:hogehoge/repo.git</text><rect fill="#EEEEEE" height="3" style="stroke:#EEEEEE;stroke-width:1;" width="774.9561" x="0" y="390.9258"/><line style="stroke:#000000;stroke-width:1;" x1="0" x2="774.9561" y1="390.9258" y2="390.9258"/><line style="stroke:#000000;stroke-width:1;" x1="0" x2="774.9561" y1="393.9258" y2="393.9258"/><rect fill="#EEEEEE" height="23.1328" style="stroke:#000000;stroke-width:2;" width="221.2511" x="276.8525" y="380.3594"/><text fill="#000000" font-family="sans-serif" font-size="13" font-weight="bold" lengthAdjust="spacing" textLength="202.7252" x="282.8525" y="396.4263">mogemoge &#12450;&#12459;&#12454;&#12531;&#12488;&#12391;&#12398;&#25805;&#20316;</text><g class="message" data-participant-1="U" data-participant-2="U"><line style="stroke:#181818;stroke-width:1;" x1="23.9551" x2="65.9551" y1="434.625" y2="434.625"/><line style="stroke:#181818;stroke-width:1;" x1="65.9551" x2="65.9551" y1="434.625" y2="447.625"/><line style="stroke:#181818;stroke-width:1;" x1="24.9551" x2="65.9551" y1="447.625" y2="447.625"/><polygon fill="#181818" points="34.9551,443.625,24.9551,447.625,34.9551,451.625,30.9551,447.625" style="stroke:#181818;stroke-width:1;"/><text fill="#000000" font-family="sans-serif" font-size="13" lengthAdjust="spacing" textLength="361.1055" x="30.9551" y="429.5591">git clone git@github-mogemoge:mogemoge/images.git</text></g><g class="message" data-participant-1="U" data-participant-2="SSH"><polygon fill="#181818" points="387.0605,472.7578,397.0605,476.7578,387.0605,480.7578,391.0605,476.7578" style="stroke:#181818;stroke-width:1;"/><line style="stroke:#181818;stroke-width:1;" x1="23.9551" x2="393.0605" y1="476.7578" y2="476.7578"/><text fill="#000000" font-family="sans-serif" font-size="13" lengthAdjust="spacing" textLength="165.274" x="30.9551" y="471.6919">&#25509;&#32154; &#8594; github-mogemoge</text></g><g class="message" data-participant-1="SSH" data-participant-2="GH2"><polygon fill="#181818" points="679.3086,501.8906,689.3086,505.8906,679.3086,509.8906,683.3086,505.8906" style="stroke:#181818;stroke-width:1;"/><line style="stroke:#181818;stroke-width:1;" x1="409.0605" x2="685.3086" y1="505.8906" y2="505.8906"/><text fill="#000000" font-family="sans-serif" font-size="13" lengthAdjust="spacing" textLength="175.2017" x="416.0605" y="500.8247">&#35469;&#35388; (id_coa + passphrase)</text></g><g class="message" data-participant-1="GH2" data-participant-2="SSH"><polygon fill="#181818" points="420.0605,531.0234,410.0605,535.0234,420.0605,539.0234,416.0605,535.0234" style="stroke:#181818;stroke-width:1;"/><line style="stroke:#181818;stroke-width:1;stroke-dasharray:2.0,2.0;" x1="414.0605" x2="690.3086" y1="535.0234" y2="535.0234"/><text fill="#000000" font-family="sans-serif" font-size="13" lengthAdjust="spacing" textLength="18.7573" x="426.0605" y="529.9575">OK</text></g><g class="message" data-participant-1="SSH" data-participant-2="U"><polygon fill="#181818" points="34.9551,560.1563,24.9551,564.1563,34.9551,568.1563,30.9551,564.1563" style="stroke:#181818;stroke-width:1;"/><line style="stroke:#181818;stroke-width:1;stroke-dasharray:2.0,2.0;" x1="28.9551" x2="398.0605" y1="564.1563" y2="564.1563"/><text fill="#000000" font-family="sans-serif" font-size="13" lengthAdjust="spacing" textLength="151.7345" x="40.9551" y="559.0903">&#35469;&#35388;&#25104;&#21151;&#65288;mogemoge&#65289;</text></g><g class="message" data-participant-1="U" data-participant-2="U"><line style="stroke:#181818;stroke-width:1;" x1="23.9551" x2="65.9551" y1="593.2891" y2="593.2891"/><line style="stroke:#181818;stroke-width:1;" x1="65.9551" x2="65.9551" y1="593.2891" y2="606.2891"/><line style="stroke:#181818;stroke-width:1;" x1="24.9551" x2="65.9551" y1="606.2891" y2="606.2891"/><polygon fill="#181818" points="34.9551,602.2891,24.9551,606.2891,34.9551,610.2891,30.9551,606.2891" style="stroke:#181818;stroke-width:1;"/><text fill="#000000" font-family="sans-serif" font-size="13" lengthAdjust="spacing" textLength="84.665" x="30.9551" y="588.2231">git remote -v</text></g><path d="M28,619.2891 L28,644.2891 L395,644.2891 L395,629.2891 L385,619.2891 L28,619.2891" fill="#FEFFDD" style="stroke:#181818;stroke-width:0.5;"/><path d="M385,619.2891 L385,629.2891 L395,629.2891 L385,619.2891" fill="#FEFFDD" style="stroke:#181818;stroke-width:0.5;"/><text fill="#000000" font-family="sans-serif" font-size="13" lengthAdjust="spacing" textLength="346.2075" x="34" y="636.356">origin  git@github-mogemoge:mogemoge/images.git</text><rect fill="#EEEEEE" height="3" style="stroke:#EEEEEE;stroke-width:1;" width="774.9561" x="0" y="669.9883"/><line style="stroke:#000000;stroke-width:1;" x1="0" x2="774.9561" y1="669.9883" y2="669.9883"/><line style="stroke:#000000;stroke-width:1;" x1="0" x2="774.9561" y1="672.9883" y2="672.9883"/><rect fill="#EEEEEE" height="23.1328" style="stroke:#000000;stroke-width:2;" width="185.5265" x="294.7148" y="659.4219"/><text fill="#000000" font-family="sans-serif" font-size="13" font-weight="bold" lengthAdjust="spacing" textLength="167.0006" x="300.7148" y="675.4888">&#35373;&#23450;&#12501;&#12449;&#12452;&#12523; /.ssh/config</text><path d="M414,697.5547 L414,843.5547 L596,843.5547 L596,707.5547 L586,697.5547 L414,697.5547" fill="#FEFFDD" style="stroke:#181818;stroke-width:0.5;"/><path d="M586,697.5547 L586,707.5547 L596,707.5547 L586,697.5547" fill="#FEFFDD" style="stroke:#181818;stroke-width:0.5;"/><text fill="#000000" font-family="sans-serif" font-size="13" lengthAdjust="spacing" textLength="144.9995" x="420" y="714.6216">Host github-hogehoge</text><text fill="#000000" font-family="sans-serif" font-size="13" lengthAdjust="spacing" textLength="145.6724" x="428.2646" y="729.7544">HostName github.com</text><text fill="#000000" font-family="sans-serif" font-size="13" lengthAdjust="spacing" textLength="50.7241" x="428.2646" y="744.8872">User git</text><text fill="#000000" font-family="sans-serif" font-size="13" lengthAdjust="spacing" textLength="149.7793" x="428.2646" y="760.02">IdentityFile /.ssh/id_rsa</text><text fill="#000000" font-family="sans-serif" font-size="13" lengthAdjust="spacing" textLength="4.1323" x="420" y="775.1528">&#160;</text><text fill="#000000" font-family="sans-serif" font-size="13" lengthAdjust="spacing" textLength="153.8481" x="420" y="790.2856">Host github-mogemoge</text><text fill="#000000" font-family="sans-serif" font-size="13" lengthAdjust="spacing" textLength="145.6724" x="428.2646" y="805.4185">HostName github.com</text><text fill="#000000" font-family="sans-serif" font-size="13" lengthAdjust="spacing" textLength="50.7241" x="428.2646" y="820.5513">User git</text><text fill="#000000" font-family="sans-serif" font-size="13" lengthAdjust="spacing" textLength="152.7627" x="428.2646" y="835.6841">IdentityFile /.ssh/id_coa</text><!--SRC=[fLDDImCn4BtdLmmzAT8MUonK1C5M13sKdYNTnjs0krasgU15S0jIXOeeNeeWYbyezY9ugd_6QEsjVy5arnItVXLw29kPUVDctqk2BS42I5Ku2LA0ELGGyd4Wg4Lzx0b8bSibM63UEhMZiWgJzI8LfNeLfXnc4xsc8rYnDFipp5KGzmiiXr2X0AOPP7WXmtiPNil6esmqvSwDtEdqZbklpwTGAA0AfEUW0dcmgG1hWtb4x-RLSkhLj679cqqs83xBg6hSgANaeNTmzVxKXfVT8nZfGzWIT1CB4gdKQDMabAYc_bshVzk5ALfR2pYUHZgR7bAkBiVepv-BmRtcuTl-sQ3RDFI3xXvAAWYK5MfQUXDv-XjGsn70rjKP030LKG_6r4Uy6cYEo4tZyMHk6fQysMIfYst2__VJDFpYPoxffyKmp82FEVUT07EYpSsDRQwPDR6vVyfDsDk_VNZhj6NZH8RdChoKZNlOpcOuTx9Mz4wqjScHMZv0YN7nxSe1n8KLx9BFOiPYRfJNRrBdec2fHZn1nTOYtI1cNdmRqGZtqFv9kTN939L_0000]--></g></svg>