<svg xmlns="http://www.w3.org/2000/svg" xmlns:xlink="http://www.w3.org/1999/xlink" contentStyleType="text/css" data-diagram-type="CLASS" height="160px" preserveAspectRatio="none" style="width:844px;height:160px;background:#FFFFFF;" version="1.1" viewBox="0 0 844 160" width="844px" zoomAndPan="magnify"><defs/><g><!--cluster ????PC (????)--><g class="cluster" data-entity="&#12354;&#12394;&#12383;&#12398;PC (&#12525;&#12540;&#12459;&#12523;)" data-source-line="8" data-uid="ent0002" id="cluster_&#12354;&#12394;&#12383;&#12398;PC (&#12525;&#12540;&#12459;&#12523;)"><path d="M8.5,6 L159.7056,6 A3.75,3.75 0 0 1 162.2056,8.5 L169.2056,28.2969 L173.5,28.2969 A2.5,2.5 0 0 1 176,30.7969 L176,151.39 A2.5,2.5 0 0 1 173.5,153.89 L8.5,153.89 A2.5,2.5 0 0 1 6,151.39 L6,8.5 A2.5,2.5 0 0 1 8.5,6" fill="none" style="stroke:#000000;stroke-width:1.5;"/><line style="stroke:#000000;stroke-width:1.5;" x1="6" x2="169.2056" y1="28.2969" y2="28.2969"/><text fill="#000000" font-family="sans-serif" font-size="14" font-weight="bold" lengthAdjust="spacing" textLength="150.2056" x="10" y="20.9951">&#12354;&#12394;&#12383;&#12398;PC (&#12525;&#12540;&#12459;&#12523;)</text></g><!--cluster GitHub??????? (origin)--><g class="cluster" data-entity="GitHub&#12394;&#12393;&#12398;&#12522;&#12514;&#12540;&#12488; (origin)" data-source-line="16" data-uid="ent0004" id="cluster_GitHub&#12394;&#12393;&#12398;&#12522;&#12514;&#12540;&#12488; (origin)"><path d="M607.5,14.15 L824.9664,14.15 A3.75,3.75 0 0 1 827.4664,16.65 L834.4664,36.4469 L834.5,36.4469 A2.5,2.5 0 0 1 837,38.9469 L837,143.24 A2.5,2.5 0 0 1 834.5,145.74 L607.5,145.74 A2.5,2.5 0 0 1 605,143.24 L605,16.65 A2.5,2.5 0 0 1 607.5,14.15" fill="none" style="stroke:#000000;stroke-width:1.5;"/><line style="stroke:#000000;stroke-width:1.5;" x1="605" x2="834.4664" y1="36.4469" y2="36.4469"/><text fill="#000000" font-family="sans-serif" font-size="14" font-weight="bold" lengthAdjust="spacing" textLength="216.4664" x="609" y="29.1451">GitHub&#12394;&#12393;&#12398;&#12522;&#12514;&#12540;&#12488; (origin)</text></g><!--class LocalRepo--><g class="entity" data-entity="LocalRepo" data-source-line="9" data-uid="ent0003" id="entity_LocalRepo"><rect fill="#FFFFFF" height="96.8906" rx="2.5" ry="2.5" style="stroke:#000000;stroke-width:0.5;" width="137.9995" x="22" y="41"/><ellipse cx="52.1539" cy="57" fill="#ADD1B2" rx="11" ry="11" style="stroke:#181818;stroke-width:1;"/><path d="M55.1226,62.6406 Q54.5445,62.9375 53.9039,63.0781 Q53.2633,63.2344 52.5601,63.2344 Q50.0601,63.2344 48.732,61.5938 Q47.4195,59.9375 47.4195,56.8125 Q47.4195,53.6875 48.732,52.0313 Q50.0601,50.375 52.5601,50.375 Q53.2633,50.375 53.9039,50.5313 Q54.5601,50.6875 55.1226,50.9844 L55.1226,53.7031 Q54.4976,53.125 53.9039,52.8594 Q53.3101,52.5781 52.6851,52.5781 Q51.3414,52.5781 50.6539,53.6563 Q49.9664,54.7188 49.9664,56.8125 Q49.9664,58.9063 50.6539,59.9844 Q51.3414,61.0469 52.6851,61.0469 Q53.3101,61.0469 53.9039,60.7813 Q54.4976,60.5 55.1226,59.9219 L55.1226,62.6406 Z " fill="#000000"/><text fill="#000000" font-family="sans-serif" font-size="14" lengthAdjust="spacing" textLength="72.3242" x="69.5214" y="61.8467">LocalRepo</text><line style="stroke:#000000;stroke-width:0.5;" x1="23" x2="158.9995" y1="73" y2="73"/><ellipse cx="33" cy="86.6484" fill="none" rx="3" ry="3" style="stroke:#038048;stroke-width:1;"/><text fill="#000000" font-family="sans-serif" font-size="14" lengthAdjust="spacing" textLength="95.4294" x="42" y="89.9951">main &#12502;&#12521;&#12531;&#12481;</text><ellipse cx="33" cy="102.9453" fill="none" rx="3" ry="3" style="stroke:#038048;stroke-width:1;"/><text fill="#000000" font-family="sans-serif" font-size="14" lengthAdjust="spacing" textLength="111.9995" x="42" y="106.292">&#20316;&#26989;&#12487;&#12451;&#12524;&#12463;&#12488;&#12522;</text><ellipse cx="33" cy="119.2422" fill="none" rx="3" ry="3" style="stroke:#038048;stroke-width:1;"/><text fill="#000000" font-family="sans-serif" font-size="14" lengthAdjust="spacing" textLength="83.9996" x="42" y="122.5889">&#12467;&#12511;&#12483;&#12488;&#23653;&#27508;</text><line style="stroke:#000000;stroke-width:0.5;" x1="23" x2="158.9995" y1="129.8906" y2="129.8906"/></g><!--class RemoteRepo--><g class="entity" data-entity="RemoteRepo" data-source-line="17" data-uid="ent0005" id="entity_RemoteRepo"><rect fill="#FFFFFF" height="80.5938" rx="2.5" ry="2.5" style="stroke:#000000;stroke-width:0.5;" width="123.9996" x="659" y="49.15"/><ellipse cx="674.7021" cy="65.15" fill="#ADD1B2" rx="11" ry="11" style="stroke:#181818;stroke-width:1;"/><path d="M677.6708,70.7906 Q677.0927,71.0875 676.4521,71.2281 Q675.8114,71.3844 675.1083,71.3844 Q672.6083,71.3844 671.2802,69.7437 Q669.9677,68.0875 669.9677,64.9625 Q669.9677,61.8375 671.2802,60.1812 Q672.6083,58.525 675.1083,58.525 Q675.8114,58.525 676.4521,58.6812 Q677.1083,58.8375 677.6708,59.1344 L677.6708,61.8531 Q677.0458,61.275 676.4521,61.0094 Q675.8583,60.7281 675.2333,60.7281 Q673.8896,60.7281 673.2021,61.8062 Q672.5146,62.8687 672.5146,64.9625 Q672.5146,67.0562 673.2021,68.1344 Q673.8896,69.1969 675.2333,69.1969 Q675.8583,69.1969 676.4521,68.9312 Q677.0458,68.65 677.6708,68.0719 L677.6708,70.7906 Z " fill="#000000"/><text fill="#000000" font-family="sans-serif" font-size="14" lengthAdjust="spacing" textLength="90.4395" x="688.8581" y="69.9967">RemoteRepo</text><line style="stroke:#000000;stroke-width:0.5;" x1="660" x2="781.9996" y1="81.15" y2="81.15"/><ellipse cx="670" cy="94.7984" fill="none" rx="3" ry="3" style="stroke:#038048;stroke-width:1;"/><text fill="#000000" font-family="sans-serif" font-size="14" lengthAdjust="spacing" textLength="95.4294" x="679" y="98.1451">main &#12502;&#12521;&#12531;&#12481;</text><ellipse cx="670" cy="111.0953" fill="none" rx="3" ry="3" style="stroke:#038048;stroke-width:1;"/><text fill="#000000" font-family="sans-serif" font-size="14" lengthAdjust="spacing" textLength="97.9996" x="679" y="114.442">&#12522;&#12514;&#12540;&#12488;&#12398;&#23653;&#27508;</text><line style="stroke:#000000;stroke-width:0.5;" x1="660" x2="781.9996" y1="121.7437" y2="121.7437"/></g><!--link LocalRepo to RemoteRepo--><g class="link" data-entity-1="LocalRepo" data-entity-2="RemoteRepo" data-source-line="23" data-uid="lnk6" id="link_LocalRepo_RemoteRepo"><path codeLine="23" d="M160.22,89.44 C283.76,89.44 534.35,89.44 652.71,89.44" fill="none" id="LocalRepo-to-RemoteRepo" style="stroke:#000000;stroke-width:1;"/><polygon fill="#000000" points="658.71,89.44,649.71,85.44,653.71,89.44,649.71,93.44,658.71,89.44" style="stroke:#000000;stroke-width:1;"/><text fill="#000000" font-family="sans-serif" font-size="13" lengthAdjust="spacing" textLength="130.3555" x="344.5883" y="47.5069">git push origin main</text><path d="M188,56.5728 L188,81.5728 L631,81.5728 L631,66.5728 L621,56.5728 L188,56.5728" fill="#FEFFDD" style="stroke:#181818;stroke-width:0.5;"/><path d="M621,56.5728 L621,66.5728 L631,66.5728 L621,56.5728" fill="#FEFFDD" style="stroke:#181818;stroke-width:0.5;"/><text fill="#000000" font-family="sans-serif" font-size="13" lengthAdjust="spacing" textLength="422.532" x="194" y="73.6397">&#12525;&#12540;&#12459;&#12523;&#12398; main &#12502;&#12521;&#12531;&#12481;&#12398;&#22793;&#26356;&#12434;\n&#12522;&#12514;&#12540;&#12488; (origin) &#12398; main &#12395;&#36865;&#20449;</text></g><!--SRC=[bP0zImCn6CVtV8h7JXNf5t0GsbBgK4IAuE8IU_4QUasEt1K7APZBO5qTN1IABntwfeWT5J_CKmj-2tDtXPxQnImXppzvVhyy6muxuO91lL8-AEvLQnLeU3G8ID3YmgUAjjCpd16mgqGRBLV9Zd3AqfCA3fiyP6aYbSDKMYrvzbfIBIebJxF5BY6-tQdB88SwGZr2tKVzj5-6F9efcZUCncZ6cxabSULLamtgrPalbqcyjg1DkG0qrsY6Q5xHw4msVxzT36pF2umUq4mmUaRJGpFANC78lkcZCJRvV1aifhCaxFuGhV9mjtESk0wjg-s0vZvMDJt8IyLTBjRurbbRXknVmjdE5lHRQ3M1WeKsmy9E5h8DBW_1xmHDI9qI514s1od0uw95iYEsWByoCVNnSd4pm-ZgIApzAQmUwl7NkPv_t14c78X1tm00]--></g></svg>