<svg xmlns="http://www.w3.org/2000/svg" xmlns:xlink="http://www.w3.org/1999/xlink" contentStyleType="text/css" data-diagram-type="DESCRIPTION" height="802.0833px" preserveAspectRatio="none" style="width:722px;height:802px;" version="1.1" viewBox="0 0 722 802" width="722.9167px" zoomAndPan="magnify"><defs><linearGradient id="g1h5sy3jzqkps50" x1="50%" x2="50%" y1="0%" y2="100%"><stop offset="0%" stop-color="#59B6EC"/><stop offset="100%" stop-color="#2FA4E7"/></linearGradient></defs><g><!--cluster Vim??--><g class="cluster" data-entity="Vim&#29872;&#22659;" data-source-line="3" data-uid="ent0002" id="cluster_Vim&#29872;&#22659;"><path d="M20.8333,16.6667 L81.1505,16.6667 A6.25,6.25 0 0 1 85.3172,20.8333 L92.6088,47.8841 L358.3333,47.8841 A4.1667,4.1667 0 0 1 362.5,52.0508 L362.5,450.9375 A4.1667,4.1667 0 0 1 358.3333,455.1042 L20.8333,455.1042 A4.1667,4.1667 0 0 1 16.6667,450.9375 L16.6667,20.8333 A4.1667,4.1667 0 0 1 20.8333,16.6667" fill="none" style="stroke:#59B6EC;stroke-width:2.0833;"/><line style="stroke:#59B6EC;stroke-width:2.0833;" x1="16.6667" x2="92.6088" y1="47.8841" y2="47.8841"/><text fill="#2FA4E7" font-family="Verdana" font-size="12.5" font-weight="bold" lengthAdjust="spacing" textLength="51.9838" x="26.0417" y="35.5611">Vim&#29872;&#22659;</text></g><!--cluster ?????????--><g class="cluster" data-entity="&#22806;&#37096;&#22793;&#25563;&#12473;&#12463;&#12522;&#12503;&#12488;" data-source-line="9" data-uid="ent0006" id="cluster_&#22806;&#37096;&#22793;&#25563;&#12473;&#12463;&#12522;&#12503;&#12488;"><path d="M89.5833,514.4792 L210.4175,514.4792 A6.25,6.25 0 0 1 214.5842,518.6458 L221.8759,545.6966 L706.25,545.6966 A4.1667,4.1667 0 0 1 710.4167,549.8633 L710.4167,786.2604 A4.1667,4.1667 0 0 1 706.25,790.4271 L89.5833,790.4271 A4.1667,4.1667 0 0 1 85.4167,786.2604 L85.4167,518.6458 A4.1667,4.1667 0 0 1 89.5833,514.4792" fill="none" style="stroke:#59B6EC;stroke-width:2.0833;"/><line style="stroke:#59B6EC;stroke-width:2.0833;" x1="85.4167" x2="221.8759" y1="545.6966" y2="545.6966"/><text fill="#2FA4E7" font-family="Verdana" font-size="12.5" font-weight="bold" lengthAdjust="spacing" textLength="112.5009" x="94.7917" y="533.3736">&#22806;&#37096;&#22793;&#25563;&#12473;&#12463;&#12522;&#12503;&#12488;</text></g><!--entity User--><g class="entity" data-entity="User" data-source-line="4" data-uid="ent0003" id="entity_User"><ellipse cx="207.2873" cy="69.7917" fill="url(#g1h5sy3jzqkps50)" rx="8.3333" ry="8.3333" style="stroke:#2FA4E7;stroke-width:1.0417;"/><path d="M207.2873,78.125 L207.2873,106.25 M193.7456,86.4583 L220.8289,86.4583 M207.2873,106.25 L193.7456,121.875 M207.2873,106.25 L220.8289,121.875" fill="none" style="stroke:#2FA4E7;stroke-width:1.0417;"/><text fill="#343A40" font-family="Verdana" font-size="12.5" lengthAdjust="spacing" textLength="28.4912" x="193.0417" y="140.7694">User</text></g><!--entity vim--><g class="entity" data-entity="vim" data-source-line="5" data-uid="ent0004" id="entity_vim"><rect fill="url(#g1h5sy3jzqkps50)" height="56.2174" rx="4.1667" ry="4.1667" style="stroke:#2FA4E7;stroke-width:1.0417;" width="165.1024" x="124.7396" y="237.4687"/><rect fill="url(#g1h5sy3jzqkps50)" height="10.4167" style="stroke:#2FA4E7;stroke-width:1.0417;" width="15.625" x="269.0087" y="242.6771"/><rect fill="url(#g1h5sy3jzqkps50)" height="2.0833" style="stroke:#2FA4E7;stroke-width:1.0417;" width="4.1667" x="266.9253" y="244.7604"/><rect fill="url(#g1h5sy3jzqkps50)" height="2.0833" style="stroke:#2FA4E7;stroke-width:1.0417;" width="4.1667" x="266.9253" y="248.9271"/><text fill="#FFFFFF" font-family="Verdana" font-size="12.5" lengthAdjust="spacing" textLength="113.0191" x="145.5729" y="275.1132">Vim (Visual&#12514;&#12540;&#12489;)</text></g><!--entity vim_map--><g class="entity" data-entity="vim_map" data-source-line="6" data-uid="ent0005" id="entity_vim_map"><rect fill="url(#g1h5sy3jzqkps50)" height="56.2174" rx="4.1667" ry="4.1667" style="stroke:#2FA4E7;stroke-width:1.0417;" width="311.8189" x="33.6771" y="382.2292"/><rect fill="url(#g1h5sy3jzqkps50)" height="10.4167" style="stroke:#2FA4E7;stroke-width:1.0417;" width="15.625" x="324.6627" y="387.4375"/><rect fill="url(#g1h5sy3jzqkps50)" height="2.0833" style="stroke:#2FA4E7;stroke-width:1.0417;" width="4.1667" x="322.5793" y="389.5208"/><rect fill="url(#g1h5sy3jzqkps50)" height="2.0833" style="stroke:#2FA4E7;stroke-width:1.0417;" width="4.1667" x="322.5793" y="393.6875"/><text fill="#FFFFFF" font-family="Verdana" font-size="12.5" lengthAdjust="spacing" textLength="259.7356" x="54.5104" y="419.8736">&#12510;&#12483;&#12500;&#12531;&#12464; :'&lt;,'&gt;!python3 romaji2kanji.py</text></g><!--entity script--><g class="entity" data-entity="script" data-source-line="10" data-uid="ent0007" id="entity_script"><rect fill="url(#g1h5sy3jzqkps50)" height="56.2174" rx="4.1667" ry="4.1667" style="stroke:#2FA4E7;stroke-width:1.0417;" width="148.6776" x="276.6979" y="558.2292"/><rect fill="url(#g1h5sy3jzqkps50)" height="10.4167" style="stroke:#2FA4E7;stroke-width:1.0417;" width="15.625" x="404.5422" y="563.4375"/><rect fill="url(#g1h5sy3jzqkps50)" height="2.0833" style="stroke:#2FA4E7;stroke-width:1.0417;" width="4.1667" x="402.4588" y="565.5208"/><rect fill="url(#g1h5sy3jzqkps50)" height="2.0833" style="stroke:#2FA4E7;stroke-width:1.0417;" width="4.1667" x="402.4588" y="569.6875"/><text fill="#FFFFFF" font-family="Verdana" font-size="12.5" lengthAdjust="spacing" textLength="96.5942" x="297.5313" y="595.8736">romaji2kanji.py</text></g><!--entity kakasi--><g class="entity" data-entity="kakasi" data-source-line="11" data-uid="ent0008" id="entity_kakasi"><rect fill="url(#g1h5sy3jzqkps50)" height="70.7682" rx="4.1667" ry="4.1667" style="stroke:#2FA4E7;stroke-width:1.0417;" width="147.311" x="173.2188" y="702.9896"/><rect fill="url(#g1h5sy3jzqkps50)" height="10.4167" style="stroke:#2FA4E7;stroke-width:1.0417;" width="15.625" x="299.6964" y="708.1979"/><rect fill="url(#g1h5sy3jzqkps50)" height="2.0833" style="stroke:#2FA4E7;stroke-width:1.0417;" width="4.1667" x="297.613" y="710.2812"/><rect fill="url(#g1h5sy3jzqkps50)" height="2.0833" style="stroke:#2FA4E7;stroke-width:1.0417;" width="4.1667" x="297.613" y="714.4479"/><text fill="#FFFFFF" font-family="Verdana" font-size="12.5" lengthAdjust="spacing" textLength="55.1147" x="194.0521" y="740.634">pykakasi</text><text fill="#FFFFFF" font-family="Verdana" font-size="12.5" lengthAdjust="spacing" textLength="95.2276" x="194.0521" y="755.1848">(&#12525;&#12540;&#12510;&#23383;&#8594;&#12363;&#12394;)</text></g><!--entity mecab--><g class="entity" data-entity="mecab" data-source-line="12" data-uid="ent0009" id="entity_mecab"><rect fill="url(#g1h5sy3jzqkps50)" height="70.7682" rx="4.1667" ry="4.1667" style="stroke:#2FA4E7;stroke-width:1.0417;" width="122.3108" x="394.0521" y="702.9896"/><rect fill="url(#g1h5sy3jzqkps50)" height="10.4167" style="stroke:#2FA4E7;stroke-width:1.0417;" width="15.625" x="495.5295" y="708.1979"/><rect fill="url(#g1h5sy3jzqkps50)" height="2.0833" style="stroke:#2FA4E7;stroke-width:1.0417;" width="4.1667" x="493.4462" y="710.2812"/><rect fill="url(#g1h5sy3jzqkps50)" height="2.0833" style="stroke:#2FA4E7;stroke-width:1.0417;" width="4.1667" x="493.4462" y="714.4479"/><text fill="#FFFFFF" font-family="Verdana" font-size="12.5" lengthAdjust="spacing" textLength="42.7979" x="414.8854" y="740.634">MeCab</text><text fill="#FFFFFF" font-family="Verdana" font-size="12.5" lengthAdjust="spacing" textLength="70.2274" x="414.8854" y="755.1848">(&#12363;&#12394;&#8594;&#28450;&#23383;)</text></g><!--link User to vim--><g class="link" data-entity-1="User" data-entity-2="vim" data-source-line="15" data-uid="lnk10" id="link_User_vim"><path d="M207.2917,149.1042 C207.2917,177.2083 207.2917,206.6979 207.2917,230.9167" fill="none" id="User-to-vim" style="stroke:#2FA4E7;stroke-width:3.125;"/><polygon fill="#2FA4E7" points="207.2917,237.1667,211.4583,227.7917,207.2917,231.9583,203.125,227.7917,207.2917,237.1667" style="stroke:#2FA4E7;stroke-width:3.125;"/><text fill="#343A40" font-family="Verdana" font-size="12.5" lengthAdjust="spacing" textLength="112.5009" x="213.5417" y="198.0299">&#12525;&#12540;&#12510;&#23383;&#12391;&#25991;&#23383;&#20837;&#21147;</text></g><!--link vim to vim_map--><g class="link" data-entity-1="vim" data-entity-2="vim_map" data-source-line="16" data-uid="lnk11" id="link_vim_vim_map"><path d="M203.875,294.125 C200.7396,319.3854 196.8826,350.4224 193.7576,375.6619" fill="none" id="vim-to-vim_map" style="stroke:#2FA4E7;stroke-width:3.125;"/><polygon fill="#2FA4E7" points="192.9896,381.8646,198.2766,373.0726,193.6296,376.6957,190.0064,372.0486,192.9896,381.8646" style="stroke:#2FA4E7;stroke-width:3.125;"/><text fill="#343A40" font-family="Verdana" font-size="12.5" lengthAdjust="spacing" textLength="139.6854" x="206.2708" y="342.7903">&#31684;&#22258;&#36984;&#25246; + &lt;Leader&gt;k</text></g><!--link vim_map to script--><g class="link" data-entity-1="vim_map" data-entity-2="script" data-source-line="17" data-uid="lnk12" id="link_vim_map_script"><path d="M200.875,438.9167 C209.0729,456.8854 221.3646,480.1771 236.4583,497.8125 C256.3958,521.1146 278.3295,538.6194 301.1628,554.2236" fill="none" id="vim_map-to-script" style="stroke:#2FA4E7;stroke-width:3.125;"/><polygon fill="#2FA4E7" points="306.3229,557.75,300.9337,549.0203,302.0228,554.8113,296.2318,555.9005,306.3229,557.75" style="stroke:#2FA4E7;stroke-width:3.125;"/><text fill="#343A40" font-family="Verdana" font-size="12.5" lengthAdjust="spacing" textLength="143.2443" x="242.7083" y="489.6236">stdin&#32076;&#30001;&#12391;&#12525;&#12540;&#12510;&#23383;&#28193;&#12377;</text></g><!--link script to kakasi--><g class="link" data-entity-1="script" data-entity-2="kakasi" data-source-line="18" data-uid="lnk13" id="link_script_kakasi"><path d="M276.1979,597.8333 C221.0313,607.25 152.7083,623.1042 135.4167,645.6979 C116.6875,670.1667 136.1591,689.3658 167.1904,705.7304" fill="none" id="script-to-kakasi" style="stroke:#2FA4E7;stroke-width:3.125;"/><polygon fill="#2FA4E7" points="172.7188,708.6458,166.3698,700.5871,168.1118,706.2163,162.4826,707.9583,172.7188,708.6458" style="stroke:#2FA4E7;stroke-width:3.125;"/><text fill="#343A40" font-family="Verdana" font-size="12.5" lengthAdjust="spacing" textLength="87.5007" x="141.6667" y="663.5507">&#12402;&#12425;&#12364;&#12394;&#12395;&#22793;&#25563;</text></g><!--link kakasi to script--><g class="link" data-entity-1="kakasi" data-entity-2="script" data-source-line="19" data-uid="lnk14" id="link_kakasi_script"><path d="M253.2917,702.5 C257.8333,684.3958 265.2708,662.5833 277.0833,645.6979 C285.2396,634.0417 291.4745,627.436 302.6516,618.686" fill="none" id="kakasi-to-script" style="stroke:#2FA4E7;stroke-width:3.125;"/><polygon fill="#2FA4E7" points="307.5729,614.8333,297.6225,617.3315,303.4718,618.0439,302.7594,623.8932,307.5729,614.8333" style="stroke:#2FA4E7;stroke-width:3.125;"/><text fill="#343A40" font-family="Verdana" font-size="12.5" lengthAdjust="spacing" textLength="87.5007" x="283.3333" y="663.5507">&#12402;&#12425;&#12364;&#12394;&#25991;&#23383;&#21015;</text></g><!--link script to mecab--><g class="link" data-entity-1="script" data-entity-2="mecab" data-source-line="20" data-uid="lnk15" id="link_script_mecab"><path d="M370.1458,614.8854 C387.3021,639.5729 408.986,670.7943 427.5276,697.4818" fill="none" id="script-to-mecab" style="stroke:#2FA4E7;stroke-width:3.125;"/><polygon fill="#2FA4E7" points="431.0938,702.6146,429.1665,692.538,428.122,698.3373,422.3227,697.2928,431.0938,702.6146" style="stroke:#2FA4E7;stroke-width:3.125;"/><text fill="#343A40" font-family="Verdana" font-size="12.5" lengthAdjust="spacing" textLength="80.2981" x="415.6146" y="663.5507">MeCab&#12395;&#28193;&#12377;</text></g><!--link mecab to script--><g class="link" data-entity-1="mecab" data-entity-2="script" data-source-line="21" data-uid="lnk16" id="link_mecab_script"><path d="M496.2083,702.6979 C511.8542,685.2396 523.1875,663.9688 510.4167,645.6979 C491.0938,618.0521 463.2399,604.9445 431.6462,597.2674" fill="none" id="mecab-to-script" style="stroke:#2FA4E7;stroke-width:3.125;"/><polygon fill="#2FA4E7" points="425.5729,595.7917,433.699,602.0542,430.634,597.0215,435.6667,593.9565,425.5729,595.7917" style="stroke:#2FA4E7;stroke-width:3.125;"/><text fill="#343A40" font-family="Verdana" font-size="12.5" lengthAdjust="spacing" textLength="125.001" x="522.1875" y="663.5507">&#26085;&#26412;&#35486;&#25991;&#65288;&#28450;&#23383;&#21547;&#12416;&#65289;</text></g><!--link script to vim--><g class="link" data-entity-1="script" data-entity-2="vim" data-source-line="22" data-uid="lnk17" id="link_script_vim"><path d="M369.3646,557.8646 C379.3438,541.2604 390.6771,519.2188 395.8333,497.8125 C414.2188,421.5729 412.2396,383.8021 360.4167,324.9375 C342.1875,304.2188 321.7064,292.822 295.946,284.1761" fill="none" id="script-to-vim" style="stroke:#2FA4E7;stroke-width:3.125;"/><polygon fill="#2FA4E7" points="290.0208,282.1875,297.5829,289.1206,294.9585,283.8447,300.2344,281.2203,290.0208,282.1875" style="stroke:#2FA4E7;stroke-width:3.125;"/><text fill="#343A40" font-family="Verdana" font-size="12.5" lengthAdjust="spacing" textLength="102.3198" x="412.6458" y="407.8736">stdout&#12391;&#32080;&#26524;&#36820;&#12377;</text><text fill="#343A40" font-family="Verdana" font-size="12.5" lengthAdjust="spacing" textLength="100.0008" x="413.8054" y="422.4244">&#65288;&#36984;&#25246;&#31684;&#22258;&#32622;&#25563;&#65289;</text></g><!--SRC=[RP1BIyD058Nt-HLZDoe-5heJwSQjBdKbo1W7ZJ4FabGe8fYCZrO5HOf5AW6BejIt8YXK_2zUakZAl-2TJ0gnEAlCv3ldtdDwl2LcCA8ofxJ2gAaeDbLrkiX8OKOpagE7gCaBP4qXUAZgMGwPTfcJNbNBi2sJcLwAahuPpItH5U1Du6tWrVu2eIvPrOnk67W8d0El0N-6u86CzOuFzXPxxBAtP9cZnB4CkgoDwDHSreRjSiTbpg2sifvRBpe__kPNqNarFcX0y0R1FV0My3hmIcVXtD3_N5tLqMolcxJBEjMfgysQVS1lqonXT5l_t3u2Vm_ybimbcMxj59kWyqAOaYY9sqtKIed1L3el8eW6oT1GKSGYOoG_1VpB-7W7FwAjYsYteGWY8qK1I2Vtcr7ZwTj_ZNT3Ca369nbTO4vHLpg8m6Kof5rlGJEJb_sazeZM-Kdnwndu9qf62f6C91Rodo2eWh-F6S2_bXKhsUy_zdaosxjIptkccH5CYq6lRAfy_cCLro_YqvklLeW-F-sAB2uwl8PWuwTTpNlArZ2PLV8mLF9o68UdNnyrD9urKIgxaJqbxtUuEnhy0W00]--></g></svg>