<svg xmlns="http://www.w3.org/2000/svg" xmlns:xlink="http://www.w3.org/1999/xlink" contentStyleType="text/css" data-diagram-type="DESCRIPTION" height="417px" preserveAspectRatio="none" style="width:1879px;height:417px;background:#FFFFFF;" version="1.1" viewBox="0 0 1879 417" width="1879px" zoomAndPan="magnify"><defs/><g><!--cluster ???????????????--><g class="cluster" data-entity="&#21476;&#12356;&#12479;&#12502;&#12524;&#12483;&#12488;&#12391;&#20351;&#12360;&#12427;&#38899;&#22768;&#32763;&#35379;" data-source-line="3" data-uid="ent0002" id="cluster_&#21476;&#12356;&#12479;&#12502;&#12524;&#12483;&#12488;&#12391;&#20351;&#12360;&#12427;&#38899;&#22768;&#32763;&#35379;"><path d="M13.5,103.3 L224.4991,103.3 A3.75,3.75 0 0 1 226.9991,105.8 L233.9991,125.5969 L1869.5,125.5969 A2.5,2.5 0 0 1 1872,128.0969 L1872,408.39 A2.5,2.5 0 0 1 1869.5,410.89 L13.5,410.89 A2.5,2.5 0 0 1 11,408.39 L11,105.8 A2.5,2.5 0 0 1 13.5,103.3" fill="#FFFFFF" style="stroke:#000000;stroke-width:1;"/><line style="stroke:#000000;stroke-width:1;" x1="11" x2="233.9991" y1="125.5969" y2="125.5969"/><text fill="#000000" font-family="Verdana" font-size="14" font-weight="bold" lengthAdjust="spacing" textLength="209.9991" x="15" y="118.2951">&#21476;&#12356;&#12479;&#12502;&#12524;&#12483;&#12488;&#12391;&#20351;&#12360;&#12427;&#38899;&#22768;&#32763;&#35379;</text></g><!--cluster VoiceTra--><g class="cluster" data-entity="VoiceTra" data-source-line="5" data-uid="ent0003" id="cluster_VoiceTra"><polygon fill="#FFFFFF" points="43,164.3,53,154.3,417,154.3,417,368.89,407,378.89,43,378.89,43,164.3" style="stroke:#000000;stroke-width:1;"/><line style="stroke:#000000;stroke-width:1;" x1="407" x2="417" y1="164.3" y2="154.3"/><line style="stroke:#000000;stroke-width:1;" x1="43" x2="407" y1="164.3" y2="164.3"/><line style="stroke:#000000;stroke-width:1;" x1="407" x2="407" y1="164.3" y2="378.89"/><text fill="#000000" font-family="Verdana" font-size="14" font-weight="bold" lengthAdjust="spacing" textLength="68.9473" x="191.5264" y="180.2951">VoiceTra</text></g><!--cluster Google????APK?--><g class="cluster" data-entity="Google&#32763;&#35379;&#65288;&#26087;APK&#65289;" data-source-line="10" data-uid="ent0008" id="cluster_Google&#32763;&#35379;&#65288;&#26087;APK&#65289;"><polygon fill="#FFFFFF" points="457,164.3,467,154.3,907,154.3,907,368.89,897,378.89,457,378.89,457,164.3" style="stroke:#000000;stroke-width:1;"/><line style="stroke:#000000;stroke-width:1;" x1="897" x2="907" y1="164.3" y2="154.3"/><line style="stroke:#000000;stroke-width:1;" x1="457" x2="897" y1="164.3" y2="164.3"/><line style="stroke:#000000;stroke-width:1;" x1="897" x2="897" y1="164.3" y2="378.89"/><text fill="#000000" font-family="Verdana" font-size="14" font-weight="bold" lengthAdjust="spacing" textLength="156.987" x="599.5065" y="180.2951">Google&#32763;&#35379;&#65288;&#26087;APK&#65289;</text></g><!--cluster Web? Google??--><g class="cluster" data-entity="Web&#29256; Google&#32763;&#35379;" data-source-line="15" data-uid="ent0013" id="cluster_Web&#29256; Google&#32763;&#35379;"><polygon fill="#FFFFFF" points="947,164.3,957,154.3,1322,154.3,1322,368.89,1312,378.89,947,378.89,947,164.3" style="stroke:#000000;stroke-width:1;"/><line style="stroke:#000000;stroke-width:1;" x1="1312" x2="1322" y1="164.3" y2="154.3"/><line style="stroke:#000000;stroke-width:1;" x1="947" x2="1312" y1="164.3" y2="164.3"/><line style="stroke:#000000;stroke-width:1;" x1="1312" x2="1312" y1="164.3" y2="378.89"/><text fill="#000000" font-family="Verdana" font-size="14" font-weight="bold" lengthAdjust="spacing" textLength="136.8758" x="1062.0621" y="180.2951">Web&#29256; Google&#32763;&#35379;</text></g><!--cluster LineageOS?--><g class="cluster" data-entity="LineageOS&#21270;" data-source-line="20" data-uid="ent0018" id="cluster_LineageOS&#21270;"><polygon fill="#FFFFFF" points="1362,164.3,1372,154.3,1840,154.3,1840,368.89,1830,378.89,1362,378.89,1362,164.3" style="stroke:#000000;stroke-width:1;"/><line style="stroke:#000000;stroke-width:1;" x1="1830" x2="1840" y1="164.3" y2="154.3"/><line style="stroke:#000000;stroke-width:1;" x1="1362" x2="1830" y1="164.3" y2="164.3"/><line style="stroke:#000000;stroke-width:1;" x1="1830" x2="1830" y1="164.3" y2="378.89"/><text fill="#000000" font-family="Verdana" font-size="14" font-weight="bold" lengthAdjust="spacing" textLength="98.1298" x="1547.9351" y="180.2951">LineageOS&#21270;</text></g><!--entity Android 5.0??--><g class="entity" data-entity="Android 5.0&#20197;&#19978;" data-source-line="6" data-uid="ent0004" id="entity_Android 5.0&#20197;&#19978;"><rect fill="#FFFFFF" height="46.2969" rx="2.5" ry="2.5" style="stroke:#000000;stroke-width:1;" width="149.1493" x="67.43" y="202.3"/><rect fill="#FFFFFF" height="10" style="stroke:#000000;stroke-width:1;" width="15" x="196.5793" y="207.3"/><rect fill="#FFFFFF" height="2" style="stroke:#000000;stroke-width:1;" width="4" x="194.5793" y="209.3"/><rect fill="#FFFFFF" height="2" style="stroke:#000000;stroke-width:1;" width="4" x="194.5793" y="213.3"/><text fill="#000000" font-family="Verdana" font-size="14" lengthAdjust="spacing" textLength="109.1493" x="82.43" y="235.2951">Android 5.0&#20197;&#19978;</text></g><!--entity ???????--><g class="entity" data-entity="&#36605;&#37327;&#12539;&#31934;&#24230;&#39640;&#12417;" data-source-line="6" data-uid="ent0005" id="entity_&#36605;&#37327;&#12539;&#31934;&#24230;&#39640;&#12417;"><rect fill="#FFFFFF" height="46.2969" rx="2.5" ry="2.5" style="stroke:#000000;stroke-width:1;" width="137.9996" x="73" y="308.59"/><rect fill="#FFFFFF" height="10" style="stroke:#000000;stroke-width:1;" width="15" x="190.9996" y="313.59"/><rect fill="#FFFFFF" height="2" style="stroke:#000000;stroke-width:1;" width="4" x="188.9996" y="315.59"/><rect fill="#FFFFFF" height="2" style="stroke:#000000;stroke-width:1;" width="4" x="188.9996" y="319.59"/><text fill="#000000" font-family="Verdana" font-size="14" lengthAdjust="spacing" textLength="97.9996" x="88" y="341.5851">&#36605;&#37327;&#12539;&#31934;&#24230;&#39640;&#12417;</text></g><!--entity ??????--><g class="entity" data-entity="&#26085;&#26412;&#35486;&#23550;&#24540;&#9678;" data-source-line="7" data-uid="ent0007" id="entity_&#26085;&#26412;&#35486;&#23550;&#24540;&#9678;"><rect fill="#FFFFFF" height="46.2969" rx="2.5" ry="2.5" style="stroke:#000000;stroke-width:1;" width="122.2155" x="251.89" y="202.3"/><rect fill="#FFFFFF" height="10" style="stroke:#000000;stroke-width:1;" width="15" x="354.1055" y="207.3"/><rect fill="#FFFFFF" height="2" style="stroke:#000000;stroke-width:1;" width="4" x="352.1055" y="209.3"/><rect fill="#FFFFFF" height="2" style="stroke:#000000;stroke-width:1;" width="4" x="352.1055" y="213.3"/><text fill="#000000" font-family="Verdana" font-size="14" lengthAdjust="spacing" textLength="82.2155" x="266.89" y="235.2951">&#26085;&#26412;&#35486;&#23550;&#24540;&#9678;</text></g><!--entity Android 4.x????--><g class="entity" data-entity="Android 4.x&#12316;&#23550;&#24540;&#21487;" data-source-line="11" data-uid="ent0009" id="entity_Android 4.x&#12316;&#23550;&#24540;&#21487;"><rect fill="#FFFFFF" height="46.2969" rx="2.5" ry="2.5" style="stroke:#000000;stroke-width:1;" width="176.5271" x="480.74" y="202.3"/><rect fill="#FFFFFF" height="10" style="stroke:#000000;stroke-width:1;" width="15" x="637.2671" y="207.3"/><rect fill="#FFFFFF" height="2" style="stroke:#000000;stroke-width:1;" width="4" x="635.2671" y="209.3"/><rect fill="#FFFFFF" height="2" style="stroke:#000000;stroke-width:1;" width="4" x="635.2671" y="213.3"/><text fill="#000000" font-family="Verdana" font-size="14" lengthAdjust="spacing" textLength="136.5271" x="495.74" y="235.2951">Android 4.x&#12316;&#23550;&#24540;&#21487;</text></g><!--entity ??????APK???--><g class="entity" data-entity="&#26087;&#12496;&#12540;&#12472;&#12519;&#12531;APK&#12434;&#20837;&#25163;" data-source-line="11" data-uid="ent0010" id="entity_&#26087;&#12496;&#12540;&#12472;&#12519;&#12531;APK&#12434;&#20837;&#25163;"><rect fill="#FFFFFF" height="46.2969" rx="2.5" ry="2.5" style="stroke:#000000;stroke-width:1;" width="193.1996" x="481.4" y="308.59"/><rect fill="#FFFFFF" height="10" style="stroke:#000000;stroke-width:1;" width="15" x="654.5996" y="313.59"/><rect fill="#FFFFFF" height="2" style="stroke:#000000;stroke-width:1;" width="4" x="652.5996" y="315.59"/><rect fill="#FFFFFF" height="2" style="stroke:#000000;stroke-width:1;" width="4" x="652.5996" y="319.59"/><text fill="#000000" font-family="Verdana" font-size="14" lengthAdjust="spacing" textLength="153.1996" x="496.4" y="341.5851">&#26087;&#12496;&#12540;&#12472;&#12519;&#12531;APK&#12434;&#20837;&#25163;</text></g><!--entity ????????OK--><g class="entity" data-entity="&#12522;&#12450;&#12523;&#12479;&#12452;&#12512;&#38899;&#22768;OK" data-source-line="12" data-uid="ent0012" id="entity_&#12522;&#12450;&#12523;&#12479;&#12452;&#12512;&#38899;&#22768;OK"><rect fill="#FFFFFF" height="46.2969" rx="2.5" ry="2.5" style="stroke:#000000;stroke-width:1;" width="172.1997" x="691.9" y="202.3"/><rect fill="#FFFFFF" height="10" style="stroke:#000000;stroke-width:1;" width="15" x="844.0997" y="207.3"/><rect fill="#FFFFFF" height="2" style="stroke:#000000;stroke-width:1;" width="4" x="842.0997" y="209.3"/><rect fill="#FFFFFF" height="2" style="stroke:#000000;stroke-width:1;" width="4" x="842.0997" y="213.3"/><text fill="#000000" font-family="Verdana" font-size="14" lengthAdjust="spacing" textLength="132.1997" x="706.9" y="235.2951">&#12522;&#12450;&#12523;&#12479;&#12452;&#12512;&#38899;&#22768;OK</text></g><!--entity ????????--><g class="entity" data-entity="&#36605;&#37327;&#12502;&#12521;&#12454;&#12470;&#20351;&#29992;" data-source-line="16" data-uid="ent0014" id="entity_&#36605;&#37327;&#12502;&#12521;&#12454;&#12470;&#20351;&#29992;"><rect fill="#FFFFFF" height="46.2969" rx="2.5" ry="2.5" style="stroke:#000000;stroke-width:1;" width="151.9995" x="971" y="202.3"/><rect fill="#FFFFFF" height="10" style="stroke:#000000;stroke-width:1;" width="15" x="1102.9995" y="207.3"/><rect fill="#FFFFFF" height="2" style="stroke:#000000;stroke-width:1;" width="4" x="1100.9995" y="209.3"/><rect fill="#FFFFFF" height="2" style="stroke:#000000;stroke-width:1;" width="4" x="1100.9995" y="213.3"/><text fill="#000000" font-family="Verdana" font-size="14" lengthAdjust="spacing" textLength="111.9995" x="986" y="235.2951">&#36605;&#37327;&#12502;&#12521;&#12454;&#12470;&#20351;&#29992;</text></g><!--entity Via Browser ??--><g class="entity" data-entity="Via Browser &#12394;&#12393;" data-source-line="16" data-uid="ent0015" id="entity_Via Browser &#12394;&#12393;"><rect fill="#FFFFFF" height="46.2969" rx="2.5" ry="2.5" style="stroke:#000000;stroke-width:1;" width="155.9852" x="971.01" y="308.59"/><rect fill="#FFFFFF" height="10" style="stroke:#000000;stroke-width:1;" width="15" x="1106.9952" y="313.59"/><rect fill="#FFFFFF" height="2" style="stroke:#000000;stroke-width:1;" width="4" x="1104.9952" y="315.59"/><rect fill="#FFFFFF" height="2" style="stroke:#000000;stroke-width:1;" width="4" x="1104.9952" y="319.59"/><text fill="#000000" font-family="Verdana" font-size="14" lengthAdjust="spacing" textLength="115.9852" x="986.01" y="341.5851">Via Browser &#12394;&#12393;</text></g><!--entity ??????--><g class="entity" data-entity="&#12510;&#12452;&#12463;&#20351;&#29992;&#9651;" data-source-line="17" data-uid="ent0017" id="entity_&#12510;&#12452;&#12463;&#20351;&#29992;&#9651;"><rect fill="#FFFFFF" height="46.2969" rx="2.5" ry="2.5" style="stroke:#000000;stroke-width:1;" width="120.7663" x="1157.62" y="202.3"/><rect fill="#FFFFFF" height="10" style="stroke:#000000;stroke-width:1;" width="15" x="1258.3863" y="207.3"/><rect fill="#FFFFFF" height="2" style="stroke:#000000;stroke-width:1;" width="4" x="1256.3863" y="209.3"/><rect fill="#FFFFFF" height="2" style="stroke:#000000;stroke-width:1;" width="4" x="1256.3863" y="213.3"/><text fill="#000000" font-family="Verdana" font-size="14" lengthAdjust="spacing" textLength="80.7663" x="1172.62" y="235.2951">&#12510;&#12452;&#12463;&#20351;&#29992;&#9651;</text></g><!--entity ????ROM?Android 9?--><g class="entity" data-entity="&#12459;&#12473;&#12479;&#12512;ROM&#12391;Android 9&#12408;" data-source-line="21" data-uid="ent0019" id="entity_&#12459;&#12473;&#12479;&#12512;ROM&#12391;Android 9&#12408;"><rect fill="#FFFFFF" height="46.2969" rx="2.5" ry="2.5" style="stroke:#000000;stroke-width:1;" width="224.6178" x="1385.69" y="202.3"/><rect fill="#FFFFFF" height="10" style="stroke:#000000;stroke-width:1;" width="15" x="1590.3078" y="207.3"/><rect fill="#FFFFFF" height="2" style="stroke:#000000;stroke-width:1;" width="4" x="1588.3078" y="209.3"/><rect fill="#FFFFFF" height="2" style="stroke:#000000;stroke-width:1;" width="4" x="1588.3078" y="213.3"/><text fill="#000000" font-family="Verdana" font-size="14" lengthAdjust="spacing" textLength="184.6178" x="1400.69" y="235.2951">&#12459;&#12473;&#12479;&#12512;ROM&#12391;Android 9&#12408;</text></g><!--entity Google????????--><g class="entity" data-entity="Google&#32763;&#35379;&#12394;&#12393;&#23433;&#23450;&#21205;&#20316;" data-source-line="21" data-uid="ent0020" id="entity_Google&#32763;&#35379;&#12394;&#12393;&#23433;&#23450;&#21205;&#20316;"><rect fill="#FFFFFF" height="46.2969" rx="2.5" ry="2.5" style="stroke:#000000;stroke-width:1;" width="201.3687" x="1397.32" y="308.59"/><rect fill="#FFFFFF" height="10" style="stroke:#000000;stroke-width:1;" width="15" x="1578.6887" y="313.59"/><rect fill="#FFFFFF" height="2" style="stroke:#000000;stroke-width:1;" width="4" x="1576.6887" y="315.59"/><rect fill="#FFFFFF" height="2" style="stroke:#000000;stroke-width:1;" width="4" x="1576.6887" y="319.59"/><text fill="#000000" font-family="Verdana" font-size="14" lengthAdjust="spacing" textLength="161.3687" x="1412.32" y="341.5851">Google&#32763;&#35379;&#12394;&#12393;&#23433;&#23450;&#21205;&#20316;</text></g><!--entity Nexus 2013??--><g class="entity" data-entity="Nexus 2013&#21521;&#12369;" data-source-line="22" data-uid="ent0022" id="entity_Nexus 2013&#21521;&#12369;"><rect fill="#FFFFFF" height="46.2969" rx="2.5" ry="2.5" style="stroke:#000000;stroke-width:1;" width="151.6171" x="1645.19" y="202.3"/><rect fill="#FFFFFF" height="10" style="stroke:#000000;stroke-width:1;" width="15" x="1776.8071" y="207.3"/><rect fill="#FFFFFF" height="2" style="stroke:#000000;stroke-width:1;" width="4" x="1774.8071" y="209.3"/><rect fill="#FFFFFF" height="2" style="stroke:#000000;stroke-width:1;" width="4" x="1774.8071" y="213.3"/><text fill="#000000" font-family="Verdana" font-size="14" lengthAdjust="spacing" textLength="111.6171" x="1660.19" y="235.2951">Nexus 2013&#21521;&#12369;</text></g><!--entity User--><g class="entity" data-entity="User" data-source-line="27" data-uid="ent0023" id="entity_User"><ellipse cx="1105.9951" cy="19" fill="#FFFFFF" rx="8" ry="8" style="stroke:#000000;stroke-width:1;"/><path d="M1105.9951,27 L1105.9951,54 M1092.9951,35 L1118.9951,35 M1105.9951,54 L1092.9951,69 M1105.9951,54 L1118.9951,69" fill="none" style="stroke:#000000;stroke-width:1;"/><text fill="#000000" font-family="Verdana" font-size="14" lengthAdjust="spacing" textLength="31.9102" x="1090.04" y="83.9951">User</text></g><!--link Android 5.0?? to ???????--><g class="link" data-entity-1="Android 5.0&#20197;&#19978;" data-entity-2="&#36605;&#37327;&#12539;&#31934;&#24230;&#39640;&#12417;" data-source-line="6" data-uid="lnk6" id="link_Android 5.0&#20197;&#19978;_&#36605;&#37327;&#12539;&#31934;&#24230;&#39640;&#12417;"><path d="M142,249.08 C142,266.57 142,284.67 142,302.15" fill="none" id="Android 5.0&#20197;&#19978;-to-&#36605;&#37327;&#12539;&#31934;&#24230;&#39640;&#12417;" style="stroke:#000000;stroke-width:1;"/><polygon fill="#000000" points="142,308.15,146,299.15,142,303.15,138,299.15,142,308.15" style="stroke:#000000;stroke-width:1;"/></g><!--link Android 4.x???? to ??????APK???--><g class="link" data-entity-1="Android 4.x&#12316;&#23550;&#24540;&#21487;" data-entity-2="&#26087;&#12496;&#12540;&#12472;&#12519;&#12531;APK&#12434;&#20837;&#25163;" data-source-line="11" data-uid="lnk11" id="link_Android 4.x&#12316;&#23550;&#24540;&#21487;_&#26087;&#12496;&#12540;&#12472;&#12519;&#12531;APK&#12434;&#20837;&#25163;"><path d="M570.95,249.08 C572.46,266.57 574.0236,284.6923 575.5336,302.1723" fill="none" id="Android 4.x&#12316;&#23550;&#24540;&#21487;-to-&#26087;&#12496;&#12540;&#12472;&#12519;&#12531;APK&#12434;&#20837;&#25163;" style="stroke:#000000;stroke-width:1;"/><polygon fill="#000000" points="576.05,308.15,579.2606,298.8391,575.6197,303.1686,571.2903,299.5276,576.05,308.15" style="stroke:#000000;stroke-width:1;"/></g><!--link ???????? to Via Browser ??--><g class="link" data-entity-1="&#36605;&#37327;&#12502;&#12521;&#12454;&#12470;&#20351;&#29992;" data-entity-2="Via Browser &#12394;&#12393;" data-source-line="16" data-uid="lnk16" id="link_&#36605;&#37327;&#12502;&#12521;&#12454;&#12470;&#20351;&#29992;_Via Browser &#12394;&#12393;"><path d="M1047.43,249.08 C1047.77,266.57 1048.1133,284.6711 1048.4533,302.1511" fill="none" id="&#36605;&#37327;&#12502;&#12521;&#12454;&#12470;&#20351;&#29992;-to-Via Browser &#12394;&#12393;" style="stroke:#000000;stroke-width:1;"/><polygon fill="#000000" points="1048.57,308.15,1052.3942,299.0739,1048.4728,303.1509,1044.3957,299.2295,1048.57,308.15" style="stroke:#000000;stroke-width:1;"/></g><!--link ????ROM?Android 9? to Google????????--><g class="link" data-entity-1="&#12459;&#12473;&#12479;&#12512;ROM&#12391;Android 9&#12408;" data-entity-2="Google&#32763;&#35379;&#12394;&#12393;&#23433;&#23450;&#21205;&#20316;" data-source-line="21" data-uid="lnk21" id="link_&#12459;&#12473;&#12479;&#12512;ROM&#12391;Android 9&#12408;_Google&#32763;&#35379;&#12394;&#12393;&#23433;&#23450;&#21205;&#20316;"><path d="M1498,249.08 C1498,266.57 1498,284.67 1498,302.15" fill="none" id="&#12459;&#12473;&#12479;&#12512;ROM&#12391;Android 9&#12408;-to-Google&#32763;&#35379;&#12394;&#12393;&#23433;&#23450;&#21205;&#20316;" style="stroke:#000000;stroke-width:1;"/><polygon fill="#000000" points="1498,308.15,1502,299.15,1498,303.15,1494,299.15,1498,308.15" style="stroke:#000000;stroke-width:1;"/></g><!--link User to VoiceTra--><g class="link" data-entity-1="User" data-entity-2="VoiceTra" data-source-line="28" data-uid="lnk24" id="link_User_VoiceTra"><path d="M1089.75,49.81 C995.11,50.88 517.46,58.13 465,95.3 C439.875,113.1 425.9175,144.6625 418.22,172.1287 C417.9795,172.9871 417.745,173.8414 417.5165,174.6912 C417.4023,175.1161 417.2896,175.5398 417.1783,175.9624 C417.1227,176.1736 418.5806,170.5785 418.5257,170.7892" fill="none" id="User-to-VoiceTra" style="stroke:#000000;stroke-width:1;"/><polygon fill="#000000" points="417.0125,176.5953,423.1529,168.8949,418.2735,171.7569,415.4115,166.8774,417.0125,176.5953" style="stroke:#000000;stroke-width:1;"/></g><!--link User to Google????APK?--><g class="link" data-entity-1="User" data-entity-2="Google&#32763;&#35379;&#65288;&#26087;APK&#65289;" data-source-line="29" data-uid="lnk25" id="link_User_Google&#32763;&#35379;&#65288;&#26087;APK&#65289;"><path d="M1089.77,50.22 C1059.57,52.13 994.27,60.32 955,95.3 C932.005,115.78 918.08,147.385 909.8675,174.2025 C908.8409,177.5547 909.4647,175.0387 908.6101,178.2102" fill="none" id="User-to-Google&#32763;&#35379;&#65288;&#26087;APK&#65289;" style="stroke:#000000;stroke-width:1;"/><polygon fill="#000000" points="907.049,184.0036,913.2529,176.3543,908.3499,179.1758,905.5284,174.2728,907.049,184.0036" style="stroke:#000000;stroke-width:1;"/></g><!--link User to Web? Google??--><g class="link" data-entity-1="User" data-entity-2="Web&#29256; Google&#32763;&#35379;" data-source-line="30" data-uid="lnk26" id="link_User_Web&#29256; Google&#32763;&#35379;"><path d="M1122.34,51.31 C1163.64,55.86 1270.65,69.88 1294,95.3 C1303.67,105.825 1309.7919,118.9912 1313.5263,132.8612 C1315.3934,139.7963 1315.9713,140.9473 1316.7898,147.992" fill="none" id="User-to-Web&#29256; Google&#32763;&#35379;" style="stroke:#000000;stroke-width:1;"/><polygon fill="#000000" points="1317.4823,153.9519,1320.4168,144.5504,1316.9052,148.9853,1312.4703,145.4737,1317.4823,153.9519" style="stroke:#000000;stroke-width:1;"/></g><!--link User to LineageOS?--><g class="link" data-entity-1="User" data-entity-2="LineageOS&#21270;" data-source-line="31" data-uid="lnk27" id="link_User_LineageOS&#21270;"><path d="M1122.42,49.5 C1223.67,48.74 1760.6,47 1813,95.3 C1823.5,104.975 1829.9825,117.7094 1833.7891,131.4114 C1835.6923,138.2624 1836.9266,145.3554 1837.6596,152.4287 C1837.7055,152.8708 1837.1824,147.3397 1837.2243,147.7815" fill="none" id="User-to-LineageOS&#21270;" style="stroke:#000000;stroke-width:1;"/><polygon fill="#000000" points="1837.7913,153.7547,1840.923,144.417,1837.3188,148.7771,1832.9588,145.1729,1837.7913,153.7547" style="stroke:#000000;stroke-width:1;"/></g><!--SRC=[TP5BIq9168RtvrTCxWsxBTe4jMdHnUXY2t5nqg4EbKTEHK44dPaYpSYAqWYngAoye94Gbfh_fS_nil8lD7gEThA2OHXclc-UztlVhlKbl8gHPqMKt8BW4PtBuY969XQu1tKFI15e46WIA0Ng1VMnL2Y2wWNYhrrdsDrpfPYhFcLCQ5j0Y2-txEAzDbboubb5rAuHiW-xNOeikT10jwMKYvQoXmvaDWyXUpLNg1q4WEOgBn_i_Q6Mk0IYEhIUSYXQ3YUhyGXBVx1Y-3Dqt7ZO4TgKKLbUNC6QW7hUMmuz3a-DrVE-NzJ-xYtO3MlVi41QP_Dwe2T0yq2oGFavmzk1dB7zQDddrqK0ZGEv1Pfe647kWTveOrl7EiJCuuMApukCcjewMbDo7sD07e2ySXChvq-w49iaeX55tbp32W8r3cgi3Oyqc2IjbNy6CntGSScDULZM6NOKRDE0SB5lpU1kfgqJFBAM3uEWPdMcKQV6P2aVIrqn_qMf4DRvatXhOmtrMdhwsCafgASwdI_HkIuhQ8uh5XfRyy_lr0rt_sPagFdBEiFpZo6_0000]--></g></svg>