<svg xmlns="http://www.w3.org/2000/svg" xmlns:xlink="http://www.w3.org/1999/xlink" contentStyleType="text/css" data-diagram-type="SEQUENCE" height="530px" preserveAspectRatio="none" style="width:553px;height:530px;background:#FFFFFF;" version="1.1" viewBox="0 0 553 530" width="553px" zoomAndPan="magnify"><defs/><g><g><title>Vim</title><rect fill="#FFFFFF" height="87.3984" style="stroke:#181818;stroke-width:1;" width="10" x="424.8172" y="315.2266"/></g><g><title>User</title><rect fill="#000000" fill-opacity="0.00000" height="368.4609" width="8" x="19.9551" y="81.2969"/><line style="stroke:#181818;stroke-width:0.5;stroke-dasharray:5.0,5.0;" x1="23" x2="23" y1="81.2969" y2="449.7578"/></g><g><title>Terminal (&#12479;&#12540;&#12511;&#12490;&#12523;)</title><rect fill="#000000" fill-opacity="0.00000" height="368.4609" width="8" x="193.817" y="81.2969"/><line style="stroke:#181818;stroke-width:0.5;stroke-dasharray:5.0,5.0;" x1="197.2351" x2="197.2351" y1="81.2969" y2="449.7578"/></g><g><title>Vim</title><rect fill="#000000" fill-opacity="0.00000" height="368.4609" width="8" x="425.8172" y="81.2969"/><line style="stroke:#181818;stroke-width:0.5;stroke-dasharray:5.0,5.0;" x1="429.265" x2="429.265" y1="81.2969" y2="449.7578"/></g><g><title>Clipboard</title><rect fill="#000000" fill-opacity="0.00000" height="368.4609" width="8" x="496.9271" y="81.2969"/><line style="stroke:#181818;stroke-width:0.5;stroke-dasharray:5.0,5.0;" x1="500.3694" x2="500.3694" y1="81.2969" y2="449.7578"/></g><g class="participant participant-head" data-participant="User"><text fill="#000000" font-family="sans-serif" font-size="14" lengthAdjust="spacing" textLength="31.9102" x="5" y="77.9951">User</text><ellipse cx="23.9551" cy="13.5" fill="#E2E2F0" rx="8" ry="8" style="stroke:#181818;stroke-width:0.5;"/><path d="M23.9551,21.5 L23.9551,48.5 M10.9551,29.5 L36.9551,29.5 M23.9551,48.5 L10.9551,63.5 M23.9551,48.5 L36.9551,63.5" fill="none" style="stroke:#181818;stroke-width:0.5;"/></g><g class="participant participant-tail" data-participant="User"><text fill="#000000" font-family="sans-serif" font-size="14" lengthAdjust="spacing" textLength="31.9102" x="5" y="461.7529">User</text><ellipse cx="23.9551" cy="473.5547" fill="#E2E2F0" rx="8" ry="8" style="stroke:#181818;stroke-width:0.5;"/><path d="M23.9551,481.5547 L23.9551,508.5547 M10.9551,489.5547 L36.9551,489.5547 M23.9551,508.5547 L10.9551,523.5547 M23.9551,508.5547 L36.9551,523.5547" fill="none" style="stroke:#181818;stroke-width:0.5;"/></g><g class="participant participant-head" data-participant="Terminal"><rect fill="#E2E2F0" height="30.2969" rx="2.5" ry="2.5" style="stroke:#181818;stroke-width:0.5;" width="161.1638" x="117.2351" y="50"/><text fill="#000000" font-family="sans-serif" font-size="14" lengthAdjust="spacing" textLength="147.1638" x="124.2351" y="69.9951">Terminal (&#12479;&#12540;&#12511;&#12490;&#12523;)</text></g><g class="participant participant-tail" data-participant="Terminal"><rect fill="#E2E2F0" height="30.2969" rx="2.5" ry="2.5" style="stroke:#181818;stroke-width:0.5;" width="161.1638" x="117.2351" y="448.7578"/><text fill="#000000" font-family="sans-serif" font-size="14" lengthAdjust="spacing" textLength="147.1638" x="124.2351" y="468.7529">Terminal (&#12479;&#12540;&#12511;&#12490;&#12523;)</text></g><g class="participant participant-head" data-participant="Vim"><rect fill="#E2E2F0" height="30.2969" rx="2.5" ry="2.5" style="stroke:#181818;stroke-width:0.5;" width="41.1045" x="409.265" y="50"/><text fill="#000000" font-family="sans-serif" font-size="14" lengthAdjust="spacing" textLength="27.1045" x="416.265" y="69.9951">Vim</text></g><g class="participant participant-tail" data-participant="Vim"><rect fill="#E2E2F0" height="30.2969" rx="2.5" ry="2.5" style="stroke:#181818;stroke-width:0.5;" width="41.1045" x="409.265" y="448.7578"/><text fill="#000000" font-family="sans-serif" font-size="14" lengthAdjust="spacing" textLength="27.1045" x="416.265" y="468.7529">Vim</text></g><g class="participant participant-head" data-participant="Clipboard"><rect fill="#E2E2F0" height="30.2969" rx="2.5" ry="2.5" style="stroke:#181818;stroke-width:0.5;" width="81.1152" x="460.3694" y="50"/><text fill="#000000" font-family="sans-serif" font-size="14" lengthAdjust="spacing" textLength="67.1152" x="467.3694" y="69.9951">Clipboard</text></g><g class="participant participant-tail" data-participant="Clipboard"><rect fill="#E2E2F0" height="30.2969" rx="2.5" ry="2.5" style="stroke:#181818;stroke-width:0.5;" width="81.1152" x="460.3694" y="448.7578"/><text fill="#000000" font-family="sans-serif" font-size="14" lengthAdjust="spacing" textLength="67.1152" x="467.3694" y="468.7529">Clipboard</text></g><g><title>Vim</title><rect fill="#FFFFFF" height="87.3984" style="stroke:#181818;stroke-width:1;" width="10" x="424.8172" y="315.2266"/></g><rect fill="#EEEEEE" height="3" style="stroke:#EEEEEE;stroke-width:1;" width="546.4847" x="0" y="111.8633"/><line style="stroke:#000000;stroke-width:1;" x1="0" x2="546.4847" y1="111.8633" y2="111.8633"/><line style="stroke:#000000;stroke-width:1;" x1="0" x2="546.4847" y1="114.8633" y2="114.8633"/><rect fill="#EEEEEE" height="23.1328" style="stroke:#000000;stroke-width:2;" width="221.8669" x="162.3089" y="101.2969"/><text fill="#000000" font-family="sans-serif" font-size="13" font-weight="bold" lengthAdjust="spacing" textLength="207.8669" x="168.3089" y="117.3638">&#36890;&#24120;&#36028;&#12426;&#20184;&#12369;&#65288;:set paste &#12394;&#12375;&#65289;</text><g class="message" data-participant-1="User" data-participant-2="Clipboard"><polygon fill="#181818" points="488.9271,151.5625,498.9271,155.5625,488.9271,159.5625,492.9271,155.5625" style="stroke:#181818;stroke-width:1;"/><line style="stroke:#181818;stroke-width:1;" x1="23.9551" x2="494.9271" y1="155.5625" y2="155.5625"/><text fill="#000000" font-family="sans-serif" font-size="13" lengthAdjust="spacing" textLength="137.0459" x="30.9551" y="150.4966">Ctrl+Shift+C (&#12467;&#12500;&#12540;)</text></g><g class="message" data-participant-1="User" data-participant-2="Terminal"><polygon fill="#181818" points="185.817,180.6953,195.817,184.6953,185.817,188.6953,189.817,184.6953" style="stroke:#181818;stroke-width:1;"/><line style="stroke:#181818;stroke-width:1;" x1="23.9551" x2="191.817" y1="184.6953" y2="184.6953"/><text fill="#000000" font-family="sans-serif" font-size="13" lengthAdjust="spacing" textLength="149.8619" x="30.9551" y="179.6294">Ctrl+Shift+V (&#12506;&#12540;&#12473;&#12488;)</text></g><g class="message" data-participant-1="Terminal" data-participant-2="Vim"><polygon fill="#181818" points="417.8172,209.8281,427.8172,213.8281,417.8172,217.8281,421.8172,213.8281" style="stroke:#181818;stroke-width:1;"/><line style="stroke:#181818;stroke-width:1;" x1="197.817" x2="423.8172" y1="213.8281" y2="213.8281"/><text fill="#000000" font-family="sans-serif" font-size="13" lengthAdjust="spacing" textLength="208.0002" x="204.817" y="208.7622">&#36028;&#12426;&#20184;&#12369;&#65288;&#12458;&#12540;&#12488;&#12452;&#12531;&#12487;&#12531;&#12488;&#26377;&#21177;&#65289;</text></g><g class="message" data-participant-1="Vim" data-participant-2="User"><polygon fill="#181818" points="34.9551,238.9609,24.9551,242.9609,34.9551,246.9609,30.9551,242.9609" style="stroke:#181818;stroke-width:1;"/><line style="stroke:#181818;stroke-width:1;stroke-dasharray:2.0,2.0;" x1="28.9551" x2="428.8172" y1="242.9609" y2="242.9609"/><text fill="#000000" font-family="sans-serif" font-size="13" lengthAdjust="spacing" textLength="221.0003" x="40.9551" y="237.895">&#12486;&#12461;&#12473;&#12488;&#12364;&#23849;&#12428;&#12427;&#65288;&#12452;&#12531;&#12487;&#12531;&#12488;&#20081;&#12428;&#65289;</text></g><rect fill="#EEEEEE" height="3" style="stroke:#EEEEEE;stroke-width:1;" width="546.4847" x="0" y="271.5273"/><line style="stroke:#000000;stroke-width:1;" x1="0" x2="546.4847" y1="271.5273" y2="271.5273"/><line style="stroke:#000000;stroke-width:1;" x1="0" x2="546.4847" y1="274.5273" y2="274.5273"/><rect fill="#EEEEEE" height="23.1328" style="stroke:#000000;stroke-width:2;" width="247.8669" x="149.3089" y="260.9609"/><text fill="#000000" font-family="sans-serif" font-size="13" font-weight="bold" lengthAdjust="spacing" textLength="233.8669" x="155.3089" y="277.0278">&#36028;&#12426;&#20184;&#12369;&#29992;&#12514;&#12540;&#12489;&#65288;:set paste &#26377;&#21177;&#65289;</text><g class="message" data-participant-1="User" data-participant-2="Vim"><polygon fill="#181818" points="412.8172,311.2266,422.8172,315.2266,412.8172,319.2266,416.8172,315.2266" style="stroke:#181818;stroke-width:1;"/><line style="stroke:#181818;stroke-width:1;" x1="23.9551" x2="418.8172" y1="315.2266" y2="315.2266"/><text fill="#000000" font-family="sans-serif" font-size="13" lengthAdjust="spacing" textLength="64.4668" x="30.9551" y="310.1606">:set paste</text></g><g class="message" data-participant-1="User" data-participant-2="Terminal"><polygon fill="#181818" points="185.817,340.3594,195.817,344.3594,185.817,348.3594,189.817,344.3594" style="stroke:#181818;stroke-width:1;"/><line style="stroke:#181818;stroke-width:1;" x1="23.9551" x2="191.817" y1="344.3594" y2="344.3594"/><text fill="#000000" font-family="sans-serif" font-size="13" lengthAdjust="spacing" textLength="149.8619" x="30.9551" y="339.2935">Ctrl+Shift+V (&#12506;&#12540;&#12473;&#12488;)</text></g><g class="message" data-participant-1="Terminal" data-participant-2="Vim"><polygon fill="#181818" points="412.8172,369.4922,422.8172,373.4922,412.8172,377.4922,416.8172,373.4922" style="stroke:#181818;stroke-width:1;"/><line style="stroke:#181818;stroke-width:1;" x1="197.817" x2="418.8172" y1="373.4922" y2="373.4922"/><text fill="#000000" font-family="sans-serif" font-size="13" lengthAdjust="spacing" textLength="130.0002" x="204.817" y="368.4263">&#36028;&#12426;&#20184;&#12369;&#65288;&#25972;&#24418;&#28961;&#21177;&#65289;</text></g><g class="message" data-participant-1="Vim" data-participant-2="User"><polygon fill="#181818" points="34.9551,398.625,24.9551,402.625,34.9551,406.625,30.9551,402.625" style="stroke:#181818;stroke-width:1;"/><line style="stroke:#181818;stroke-width:1;stroke-dasharray:2.0,2.0;" x1="28.9551" x2="428.8172" y1="402.625" y2="402.625"/><text fill="#000000" font-family="sans-serif" font-size="13" lengthAdjust="spacing" textLength="182.0002" x="40.9551" y="397.5591">&#12486;&#12461;&#12473;&#12488;&#12381;&#12398;&#12414;&#12414;&#36028;&#12426;&#20184;&#12369;&#25104;&#21151;</text></g><g class="message" data-participant-1="User" data-participant-2="Vim"><polygon fill="#181818" points="417.8172,427.7578,427.8172,431.7578,417.8172,435.7578,421.8172,431.7578" style="stroke:#181818;stroke-width:1;"/><line style="stroke:#181818;stroke-width:1;" x1="23.9551" x2="423.8172" y1="431.7578" y2="431.7578"/><text fill="#000000" font-family="sans-serif" font-size="13" lengthAdjust="spacing" textLength="80.6597" x="30.9551" y="426.6919">:set nopaste</text></g><!--SRC=[hP3DIiDG48Ntzoc6h2obBr28cpw2slsrZNYXFo6vk3RtYgQn2uMAKfHYSQ4L1RMB5gC-p3IjhleAJbACZRXm8OGGCcVE-SxmYcmwiE5Q3hEv8qL5sBmXmLYtdBfey1gie7f37QBkeGvGt-OCu2vyZRDBPL4tidzADM5lDhbJDHWpJVZOxKQZqVjZY2gOF9-XTpmF_Q9hIR2vAor0Ru3UwJnicIPZCHGKLY7rW2AKf5FBhssBBPalnMXFg3j4bql5ANT6MoQjxiOrr1YrdsEfZ5Q8cjG_e50DajRqSOMQOWwIjpyzRqN1c0XPl5QWzIIv2AZtKTqj_D5hHyCRL6rKXubNnc8oVg1HR16VP3btrhb6tKzoMzd3fB7BXrc0VwiOhqYnmqbEat-_oFHa6BtqPtkNV-b_WTuzUg_qBBjC_QCewB6gbG7zhK-ZcJJw1000]--></g></svg>