<svg xmlns="http://www.w3.org/2000/svg" xmlns:xlink="http://www.w3.org/1999/xlink" contentStyleType="text/css" data-diagram-type="SEQUENCE" height="664px" preserveAspectRatio="none" style="width:800px;height:664px;background:#FFFFFF;" version="1.1" viewBox="0 0 800 664" width="800px" zoomAndPan="magnify"><title>VSCode&#12450;&#12483;&#12503;&#12487;&#12540;&#12488;&#25163;&#38918;&#27604;&#36611;: NixOS vs Zorin OS</title><defs/><g><text fill="#000000" font-family="sans-serif" font-size="14" font-weight="bold" lengthAdjust="spacing" textLength="353.8344" x="219.1219" y="27.9951">VSCode&#12450;&#12483;&#12503;&#12487;&#12540;&#12488;&#25163;&#38918;&#27604;&#36611;: NixOS vs Zorin OS</text><rect fill="none" height="241.8672" style="stroke:#000000;stroke-width:1.5;" width="773.0781" x="10" y="324.3906"/><g><title>User</title><rect fill="#000000" fill-opacity="0.00000" height="464.6641" width="8" x="34.9551" y="118.5938"/><line style="stroke:#181818;stroke-width:0.5;stroke-dasharray:5.0,5.0;" x1="38" x2="38" y1="118.5938" y2="583.2578"/></g><g><title>ZorinOS</title><rect fill="#000000" fill-opacity="0.00000" height="464.6641" width="8" x="209.5405" y="118.5938"/><line style="stroke:#181818;stroke-width:0.5;stroke-dasharray:5.0,5.0;" x1="213.25" x2="213.25" y1="118.5938" y2="583.2578"/></g><g><title>VSCode</title><rect fill="#000000" fill-opacity="0.00000" height="464.6641" width="8" x="376.5407" y="118.5938"/><line style="stroke:#181818;stroke-width:0.5;stroke-dasharray:5.0,5.0;" x1="380.3884" x2="380.3884" y1="118.5938" y2="583.2578"/></g><g><title>NixOS</title><rect fill="#000000" fill-opacity="0.00000" height="464.6641" width="8" x="543.5409" y="118.5938"/><line style="stroke:#181818;stroke-width:0.5;stroke-dasharray:5.0,5.0;" x1="547.264" x2="547.264" y1="118.5938" y2="583.2578"/></g><g><title>nixpkgs</title><rect fill="#000000" fill-opacity="0.00000" height="464.6641" width="8" x="734.9668" y="118.5938"/><line style="stroke:#181818;stroke-width:0.5;stroke-dasharray:5.0,5.0;" x1="738.8555" x2="738.8555" y1="118.5938" y2="583.2578"/></g><g class="participant participant-head" data-participant="User"><text fill="#000000" font-family="sans-serif" font-size="14" lengthAdjust="spacing" textLength="31.9102" x="20" y="115.292">User</text><ellipse cx="38.9551" cy="50.7969" fill="#E2E2F0" rx="8" ry="8" style="stroke:#181818;stroke-width:0.5;"/><path d="M38.9551,58.7969 L38.9551,85.7969 M25.9551,66.7969 L51.9551,66.7969 M38.9551,85.7969 L25.9551,100.7969 M38.9551,85.7969 L51.9551,100.7969" fill="none" style="stroke:#181818;stroke-width:0.5;"/></g><g class="participant participant-tail" data-participant="User"><text fill="#000000" font-family="sans-serif" font-size="14" lengthAdjust="spacing" textLength="31.9102" x="20" y="595.2529">User</text><ellipse cx="38.9551" cy="607.0547" fill="#E2E2F0" rx="8" ry="8" style="stroke:#181818;stroke-width:0.5;"/><path d="M38.9551,615.0547 L38.9551,642.0547 M25.9551,623.0547 L51.9551,623.0547 M38.9551,642.0547 L25.9551,657.0547 M38.9551,642.0547 L51.9551,657.0547" fill="none" style="stroke:#181818;stroke-width:0.5;"/></g><g class="participant participant-head" data-participant="ZorinOS"><rect fill="#E2E2F0" height="30.2969" rx="2.5" ry="2.5" style="stroke:#181818;stroke-width:0.5;" width="70.5811" x="178.25" y="87.2969"/><text fill="#000000" font-family="sans-serif" font-size="14" lengthAdjust="spacing" textLength="56.5811" x="185.25" y="107.292">ZorinOS</text></g><g class="participant participant-tail" data-participant="ZorinOS"><rect fill="#E2E2F0" height="30.2969" rx="2.5" ry="2.5" style="stroke:#181818;stroke-width:0.5;" width="70.5811" x="178.25" y="582.2578"/><text fill="#000000" font-family="sans-serif" font-size="14" lengthAdjust="spacing" textLength="56.5811" x="185.25" y="602.2529">ZorinOS</text></g><g class="participant participant-head" data-participant="VSCode"><rect fill="#E2E2F0" height="30.2969" rx="2.5" ry="2.5" style="stroke:#181818;stroke-width:0.5;" width="68.3047" x="346.3884" y="87.2969"/><text fill="#000000" font-family="sans-serif" font-size="14" lengthAdjust="spacing" textLength="54.3047" x="353.3884" y="107.292">VSCode</text></g><g class="participant participant-tail" data-participant="VSCode"><rect fill="#E2E2F0" height="30.2969" rx="2.5" ry="2.5" style="stroke:#181818;stroke-width:0.5;" width="68.3047" x="346.3884" y="582.2578"/><text fill="#000000" font-family="sans-serif" font-size="14" lengthAdjust="spacing" textLength="54.3047" x="353.3884" y="602.2529">VSCode</text></g><g class="participant participant-head" data-participant="NixOS"><rect fill="#E2E2F0" height="30.2969" rx="2.5" ry="2.5" style="stroke:#181818;stroke-width:0.5;" width="56.5537" x="519.264" y="87.2969"/><text fill="#000000" font-family="sans-serif" font-size="14" lengthAdjust="spacing" textLength="42.5537" x="526.264" y="107.292">NixOS</text></g><g class="participant participant-tail" data-participant="NixOS"><rect fill="#E2E2F0" height="30.2969" rx="2.5" ry="2.5" style="stroke:#181818;stroke-width:0.5;" width="56.5537" x="519.264" y="582.2578"/><text fill="#000000" font-family="sans-serif" font-size="14" lengthAdjust="spacing" textLength="42.5537" x="526.264" y="602.2529">NixOS</text></g><g class="participant participant-head" data-participant="nixpkgs"><rect fill="#E2E2F0" height="30.2969" rx="2.5" ry="2.5" style="stroke:#181818;stroke-width:0.5;" width="68.2227" x="704.8555" y="87.2969"/><text fill="#000000" font-family="sans-serif" font-size="14" lengthAdjust="spacing" textLength="54.2227" x="711.8555" y="107.292">nixpkgs</text></g><g class="participant participant-tail" data-participant="nixpkgs"><rect fill="#E2E2F0" height="30.2969" rx="2.5" ry="2.5" style="stroke:#181818;stroke-width:0.5;" width="68.2227" x="704.8555" y="582.2578"/><text fill="#000000" font-family="sans-serif" font-size="14" lengthAdjust="spacing" textLength="54.2227" x="711.8555" y="602.2529">nixpkgs</text></g><g class="message" data-participant-1="User" data-participant-2="ZorinOS"><polygon fill="#181818" points="201.5405,145.7266,211.5405,149.7266,201.5405,153.7266,205.5405,149.7266" style="stroke:#181818;stroke-width:1;"/><line style="stroke:#181818;stroke-width:1;" x1="38.9551" x2="207.5405" y1="149.7266" y2="149.7266"/><text fill="#000000" font-family="sans-serif" font-size="13" lengthAdjust="spacing" textLength="106.6025" x="45.9551" y="144.6606">sudo apt update</text></g><g class="message" data-participant-1="User" data-participant-2="ZorinOS"><polygon fill="#181818" points="201.5405,174.8594,211.5405,178.8594,201.5405,182.8594,205.5405,178.8594" style="stroke:#181818;stroke-width:1;"/><line style="stroke:#181818;stroke-width:1;" x1="38.9551" x2="207.5405" y1="178.8594" y2="178.8594"/><text fill="#000000" font-family="sans-serif" font-size="13" lengthAdjust="spacing" textLength="150.5854" x="45.9551" y="173.7935">sudo apt upgrade code</text></g><g class="message" data-participant-1="ZorinOS" data-participant-2="VSCode"><polygon fill="#181818" points="368.5407,203.9922,378.5407,207.9922,368.5407,211.9922,372.5407,207.9922" style="stroke:#181818;stroke-width:1;"/><line style="stroke:#181818;stroke-width:1;" x1="213.5405" x2="374.5407" y1="207.9922" y2="207.9922"/><text fill="#000000" font-family="sans-serif" font-size="13" lengthAdjust="spacing" textLength="104.0001" x="220.5405" y="202.9263">&#12450;&#12483;&#12503;&#12487;&#12540;&#12488;&#23455;&#34892;</text></g><g class="message" data-participant-1="VSCode" data-participant-2="ZorinOS"><polygon fill="#181818" points="224.5405,233.125,214.5405,237.125,224.5405,241.125,220.5405,237.125" style="stroke:#181818;stroke-width:1;"/><line style="stroke:#181818;stroke-width:1;stroke-dasharray:2.0,2.0;" x1="218.5405" x2="379.5407" y1="237.125" y2="237.125"/><text fill="#000000" font-family="sans-serif" font-size="13" lengthAdjust="spacing" textLength="143.0002" x="230.5405" y="232.0591">&#26032;&#12496;&#12540;&#12472;&#12519;&#12531;&#12395;&#26356;&#26032;&#23436;&#20102;</text></g><rect fill="#EEEEEE" height="3" style="stroke:#EEEEEE;stroke-width:1;" width="793.0781" x="0" y="265.6914"/><line style="stroke:#000000;stroke-width:1;" x1="0" x2="793.0781" y1="265.6914" y2="265.6914"/><line style="stroke:#000000;stroke-width:1;" x1="0" x2="793.0781" y1="268.6914" y2="268.6914"/><rect fill="#EEEEEE" height="23.1328" style="stroke:#000000;stroke-width:2;" width="114.6612" x="339.2085" y="255.125"/><text fill="#000000" font-family="sans-serif" font-size="13" font-weight="bold" lengthAdjust="spacing" textLength="96.1353" x="345.2085" y="271.1919">NixOS&#12398;&#12465;&#12540;&#12473;</text><g class="message" data-participant-1="User" data-participant-2="NixOS"><polygon fill="#181818" points="535.5409,305.3906,545.5409,309.3906,535.5409,313.3906,539.5409,309.3906" style="stroke:#181818;stroke-width:1;"/><line style="stroke:#181818;stroke-width:1;" x1="38.9551" x2="541.5409" y1="309.3906" y2="309.3906"/><text fill="#000000" font-family="sans-serif" font-size="13" lengthAdjust="spacing" textLength="115.1782" x="45.9551" y="304.3247">nix-env -u vscode</text></g><path d="M10,324.3906 L74.4429,324.3906 L74.4429,331.5234 L64.4429,341.5234 L10,341.5234 L10,324.3906" fill="#EEEEEE" style="stroke:#000000;stroke-width:1.5;"/><rect fill="none" height="241.8672" style="stroke:#000000;stroke-width:1.5;" width="773.0781" x="10" y="324.3906"/><text fill="#000000" font-family="sans-serif" font-size="13" font-weight="bold" lengthAdjust="spacing" textLength="19.4429" x="25" y="337.4575">alt</text><text fill="#000000" font-family="sans-serif" font-size="11" font-weight="bold" lengthAdjust="spacing" textLength="247.9829" x="89.4429" y="336.6011">[configuration.nix &#12395; vscode &#12434;&#26360;&#12356;&#12390;&#12394;&#12356;]</text><g class="message" data-participant-1="NixOS" data-participant-2="nixpkgs"><polygon fill="#181818" points="726.9668,358.6563,736.9668,362.6563,726.9668,366.6563,730.9668,362.6563" style="stroke:#181818;stroke-width:1;"/><line style="stroke:#181818;stroke-width:1;" x1="547.5409" x2="732.9668" y1="362.6563" y2="362.6563"/><text fill="#000000" font-family="sans-serif" font-size="13" lengthAdjust="spacing" textLength="167.4259" x="554.5409" y="357.5903">VSCode&#12398;&#26032;&#12496;&#12540;&#12472;&#12519;&#12531;&#21462;&#24471;</text></g><g class="message" data-participant-1="nixpkgs" data-participant-2="NixOS"><polygon fill="#181818" points="558.5409,387.7891,548.5409,391.7891,558.5409,395.7891,554.5409,391.7891" style="stroke:#181818;stroke-width:1;"/><line style="stroke:#181818;stroke-width:1;stroke-dasharray:2.0,2.0;" x1="552.5409" x2="737.9668" y1="391.7891" y2="391.7891"/><text fill="#000000" font-family="sans-serif" font-size="13" lengthAdjust="spacing" textLength="91.0001" x="564.5409" y="386.7231">&#12497;&#12483;&#12465;&#12540;&#12472;&#25552;&#20379;</text></g><g class="message" data-participant-1="NixOS" data-participant-2="VSCode"><polygon fill="#181818" points="391.5407,416.9219,381.5407,420.9219,391.5407,424.9219,387.5407,420.9219" style="stroke:#181818;stroke-width:1;"/><line style="stroke:#181818;stroke-width:1;" x1="385.5407" x2="546.5409" y1="420.9219" y2="420.9219"/><text fill="#000000" font-family="sans-serif" font-size="13" lengthAdjust="spacing" textLength="104.0001" x="397.5407" y="415.856">&#12450;&#12483;&#12503;&#12487;&#12540;&#12488;&#23455;&#34892;</text></g><g class="message" data-participant-1="VSCode" data-participant-2="NixOS"><polygon fill="#181818" points="535.5409,446.0547,545.5409,450.0547,535.5409,454.0547,539.5409,450.0547" style="stroke:#181818;stroke-width:1;"/><line style="stroke:#181818;stroke-width:1;stroke-dasharray:2.0,2.0;" x1="380.5407" x2="541.5409" y1="450.0547" y2="450.0547"/><text fill="#000000" font-family="sans-serif" font-size="13" lengthAdjust="spacing" textLength="143.0002" x="387.5407" y="444.9888">&#26032;&#12496;&#12540;&#12472;&#12519;&#12531;&#12395;&#26356;&#26032;&#23436;&#20102;</text></g><line style="stroke:#000000;stroke-width:1;stroke-dasharray:2.0,2.0;" x1="10" x2="783.0781" y1="459.0547" y2="459.0547"/><text fill="#000000" font-family="sans-serif" font-size="11" font-weight="bold" lengthAdjust="spacing" textLength="214.9831" x="15" y="469.2651">[configuration.nix &#12395; vscode &#12364;&#12354;&#12427;]</text><g class="message" data-participant-1="User" data-participant-2="NixOS"><polygon fill="#181818" points="535.5409,489.9922,545.5409,493.9922,535.5409,497.9922,539.5409,493.9922" style="stroke:#181818;stroke-width:1;"/><line style="stroke:#181818;stroke-width:1;" x1="38.9551" x2="541.5409" y1="493.9922" y2="493.9922"/><text fill="#000000" font-family="sans-serif" font-size="13" lengthAdjust="spacing" textLength="231.6832" x="45.9551" y="488.9263">vscode &#12434; systemPackages &#12363;&#12425;&#21066;&#38500;</text></g><g class="message" data-participant-1="User" data-participant-2="NixOS"><polygon fill="#181818" points="535.5409,519.125,545.5409,523.125,535.5409,527.125,539.5409,523.125" style="stroke:#181818;stroke-width:1;"/><line style="stroke:#181818;stroke-width:1;" x1="38.9551" x2="541.5409" y1="523.125" y2="523.125"/><text fill="#000000" font-family="sans-serif" font-size="13" lengthAdjust="spacing" textLength="173.9258" x="45.9551" y="518.0591">nix-env -iA nixpkgs.vscode</text></g><path d="M43,536.125 L43,561.125 L168,561.125 L168,546.125 L158,536.125 L43,536.125" fill="#FEFFDD" style="stroke:#181818;stroke-width:0.5;"/><path d="M158,536.125 L158,546.125 L168,546.125 L158,536.125" fill="#FEFFDD" style="stroke:#181818;stroke-width:0.5;"/><text fill="#000000" font-family="sans-serif" font-size="13" lengthAdjust="spacing" textLength="104.0001" x="49" y="553.1919">&#25163;&#21205;&#12391;&#22238;&#36991;&#12364;&#24517;&#35201;</text><!--SRC=[XP7BIiD058RtynJd1Te725GGzrOekd0NcZ66rgGaqrANa_5MK_22jaZ16zA2GbLqKQMq3tEQqBw5aujQhTXPX27dF-Ty_p_CO4KAQxabIwFetg8GA9eezb7qKHm4DMzolHSydetxGe5bevhDGSM1TSisJCZc257ppB9XrQ4s8U4NKWjnDPjJm2bh5gWb1kMIfZBwhq2tLOr2NbAGf1mgOou5PidyxjNufavY0QIcfmQD9nJ7eSpjeUYWU47-4BHUvN-_Mn-zxn6IoSHca7VHVOwaRv39V7k8gWgOHZL5pGgaoj9s1ASMcQGqDmozRAlCiCoqr81Sa0WawcdGwY7VGTv6VYyl1EI9ivEJfRnKq1tbCtFUdUNrZnh-e1dr9VB8OGA5uYGC8-7k1KV7eq7hvvAvkONggUoIoVEJeqM7pl7FwyXTTBrenwyylpC2PzjXT6j5pHTKdJgopKEtvjSE9nTtVtL-lOIn-9b9EdcIA2QBKR0DVPE1jH7rIZSrp_VEaNVyrkM43oMOFzmTjpcXflO1]--></g></svg>