<svg xmlns="http://www.w3.org/2000/svg" xmlns:xlink="http://www.w3.org/1999/xlink" contentStyleType="text/css" data-diagram-type="SEQUENCE" height="522px" preserveAspectRatio="none" style="width:525px;height:522px;background:#FFFFFF;" version="1.1" viewBox="0 0 525 522" width="525px" zoomAndPan="magnify"><defs/><g><g><title>Terminal Emulator</title><rect fill="#FFFFFF" height="29.1328" style="stroke:#181818;stroke-width:1;" width="10" x="176.1523" y="112.4297"/></g><g><title>Terminal Emulator</title><rect fill="#FFFFFF" height="29.1328" style="stroke:#181818;stroke-width:1;" width="10" x="176.1523" y="344.3594"/></g><g><title>Chrome</title><rect fill="#FFFFFF" height="58.2656" style="stroke:#181818;stroke-width:1;" width="10" x="473.9888" y="170.6953"/></g><g><title>User</title><rect fill="#000000" fill-opacity="0.00000" height="360.4609" width="8" x="19.9551" y="81.2969"/><line style="stroke:#181818;stroke-width:0.5;stroke-dasharray:5.0,5.0;" x1="23" x2="23" y1="81.2969" y2="441.7578"/></g><g><title>Terminal Emulator</title><rect fill="#000000" fill-opacity="0.00000" height="360.4609" width="8" x="177.1523" y="81.2969"/><line style="stroke:#181818;stroke-width:0.5;stroke-dasharray:5.0,5.0;" x1="180.2144" x2="180.2144" y1="81.2969" y2="441.7578"/></g><g><title>OS Clipboard Manager</title><rect fill="#000000" fill-opacity="0.00000" height="360.4609" width="8" x="344.7344" y="81.2969"/><line style="stroke:#181818;stroke-width:0.5;stroke-dasharray:5.0,5.0;" x1="348.0903" x2="348.0903" y1="81.2969" y2="441.7578"/></g><g><title>Chrome</title><rect fill="#000000" fill-opacity="0.00000" height="360.4609" width="8" x="474.9888" y="81.2969"/><line style="stroke:#181818;stroke-width:0.5;stroke-dasharray:5.0,5.0;" x1="478.3784" x2="478.3784" y1="81.2969" y2="441.7578"/></g><g class="participant participant-head" data-participant="User"><text fill="#000000" font-family="sans-serif" font-size="14" lengthAdjust="spacing" textLength="31.9102" x="5" y="77.9951">User</text><ellipse cx="23.9551" cy="13.5" fill="#E2E2F0" rx="8" ry="8" style="stroke:#181818;stroke-width:0.5;"/><path d="M23.9551,21.5 L23.9551,48.5 M10.9551,29.5 L36.9551,29.5 M23.9551,48.5 L10.9551,63.5 M23.9551,48.5 L36.9551,63.5" fill="none" style="stroke:#181818;stroke-width:0.5;"/></g><g class="participant participant-tail" data-participant="User"><text fill="#000000" font-family="sans-serif" font-size="14" lengthAdjust="spacing" textLength="31.9102" x="5" y="453.7529">User</text><ellipse cx="23.9551" cy="465.5547" fill="#E2E2F0" rx="8" ry="8" style="stroke:#181818;stroke-width:0.5;"/><path d="M23.9551,473.5547 L23.9551,500.5547 M10.9551,481.5547 L36.9551,481.5547 M23.9551,500.5547 L10.9551,515.5547 M23.9551,500.5547 L36.9551,515.5547" fill="none" style="stroke:#181818;stroke-width:0.5;"/></g><g class="participant participant-head" data-participant="Terminal"><rect fill="#E2E2F0" height="30.2969" rx="2.5" ry="2.5" style="stroke:#181818;stroke-width:0.5;" width="143.876" x="109.2144" y="50"/><text fill="#000000" font-family="sans-serif" font-size="14" lengthAdjust="spacing" textLength="129.876" x="116.2144" y="69.9951">Terminal Emulator</text></g><g class="participant participant-tail" data-participant="Terminal"><rect fill="#E2E2F0" height="30.2969" rx="2.5" ry="2.5" style="stroke:#181818;stroke-width:0.5;" width="143.876" x="109.2144" y="440.7578"/><text fill="#000000" font-family="sans-serif" font-size="14" lengthAdjust="spacing" textLength="129.876" x="116.2144" y="460.7529">Terminal Emulator</text></g><g class="participant participant-head" data-participant="Clipboard"><rect fill="#E2E2F0" height="30.2969" rx="2.5" ry="2.5" style="stroke:#181818;stroke-width:0.5;" width="171.2881" x="263.0903" y="50"/><text fill="#000000" font-family="sans-serif" font-size="14" lengthAdjust="spacing" textLength="157.2881" x="270.0903" y="69.9951">OS Clipboard Manager</text></g><g class="participant participant-tail" data-participant="Clipboard"><rect fill="#E2E2F0" height="30.2969" rx="2.5" ry="2.5" style="stroke:#181818;stroke-width:0.5;" width="171.2881" x="263.0903" y="440.7578"/><text fill="#000000" font-family="sans-serif" font-size="14" lengthAdjust="spacing" textLength="157.2881" x="270.0903" y="460.7529">OS Clipboard Manager</text></g><g class="participant participant-head" data-participant="Chrome"><rect fill="#E2E2F0" height="30.2969" rx="2.5" ry="2.5" style="stroke:#181818;stroke-width:0.5;" width="69.2207" x="444.3784" y="50"/><text fill="#000000" font-family="sans-serif" font-size="14" lengthAdjust="spacing" textLength="55.2207" x="451.3784" y="69.9951">Chrome</text></g><g class="participant participant-tail" data-participant="Chrome"><rect fill="#E2E2F0" height="30.2969" rx="2.5" ry="2.5" style="stroke:#181818;stroke-width:0.5;" width="69.2207" x="444.3784" y="440.7578"/><text fill="#000000" font-family="sans-serif" font-size="14" lengthAdjust="spacing" textLength="55.2207" x="451.3784" y="460.7529">Chrome</text></g><g><title>Terminal Emulator</title><rect fill="#FFFFFF" height="29.1328" style="stroke:#181818;stroke-width:1;" width="10" x="176.1523" y="112.4297"/></g><g><title>Terminal Emulator</title><rect fill="#FFFFFF" height="29.1328" style="stroke:#181818;stroke-width:1;" width="10" x="176.1523" y="344.3594"/></g><g><title>Chrome</title><rect fill="#FFFFFF" height="58.2656" style="stroke:#181818;stroke-width:1;" width="10" x="473.9888" y="170.6953"/></g><g class="message" data-participant-1="User" data-participant-2="Terminal"><polygon fill="#181818" points="164.1523,108.4297,174.1523,112.4297,164.1523,116.4297,168.1523,112.4297" style="stroke:#181818;stroke-width:1;"/><line style="stroke:#181818;stroke-width:1;" x1="23.9551" x2="170.1523" y1="112.4297" y2="112.4297"/><text fill="#000000" font-family="sans-serif" font-size="13" lengthAdjust="spacing" textLength="83.77" x="30.9551" y="107.3638">Ctrl+Shift+C</text></g><g class="message" data-participant-1="Terminal" data-participant-2="Clipboard"><polygon fill="#181818" points="336.7344,137.5625,346.7344,141.5625,336.7344,145.5625,340.7344,141.5625" style="stroke:#181818;stroke-width:1;"/><line style="stroke:#181818;stroke-width:1;" x1="181.1523" x2="342.7344" y1="141.5625" y2="141.5625"/><text fill="#000000" font-family="sans-serif" font-size="13" lengthAdjust="spacing" textLength="97.0176" x="188.1523" y="136.4966">Copy Selection</text></g><g class="message" data-participant-1="User" data-participant-2="Chrome"><polygon fill="#181818" points="461.9888,166.6953,471.9888,170.6953,461.9888,174.6953,465.9888,170.6953" style="stroke:#181818;stroke-width:1;"/><line style="stroke:#181818;stroke-width:1;" x1="23.9551" x2="467.9888" y1="170.6953" y2="170.6953"/><text fill="#000000" font-family="sans-serif" font-size="13" lengthAdjust="spacing" textLength="83.5859" x="30.9551" y="165.6294">Ctrl+Shift+V</text></g><g class="message" data-participant-1="Chrome" data-participant-2="Clipboard"><polygon fill="#181818" points="359.7344,195.8281,349.7344,199.8281,359.7344,203.8281,355.7344,199.8281" style="stroke:#181818;stroke-width:1;"/><line style="stroke:#181818;stroke-width:1;" x1="353.7344" x2="472.9888" y1="199.8281" y2="199.8281"/><text fill="#000000" font-family="sans-serif" font-size="13" lengthAdjust="spacing" textLength="93.1963" x="365.7344" y="194.7622">Paste Request</text></g><g class="message" data-participant-1="Clipboard" data-participant-2="Chrome"><polygon fill="#181818" points="466.9888,224.9609,476.9888,228.9609,466.9888,232.9609,470.9888,228.9609" style="stroke:#181818;stroke-width:1;"/><line style="stroke:#181818;stroke-width:1;stroke-dasharray:2.0,2.0;" x1="348.7344" x2="472.9888" y1="228.9609" y2="228.9609"/><text fill="#000000" font-family="sans-serif" font-size="13" lengthAdjust="spacing" textLength="84.5635" x="355.7344" y="223.895">Text Content</text></g><rect fill="#EEEEEE" height="3" style="stroke:#EEEEEE;stroke-width:1;" width="518.5991" x="0" y="257.5273"/><line style="stroke:#000000;stroke-width:1;" x1="0" x2="518.5991" y1="257.5273" y2="257.5273"/><line style="stroke:#000000;stroke-width:1;" x1="0" x2="518.5991" y1="260.5273" y2="260.5273"/><rect fill="#EEEEEE" height="23.1328" style="stroke:#000000;stroke-width:2;" width="83.526" x="217.5366" y="246.9609"/><text fill="#000000" font-family="sans-serif" font-size="13" font-weight="bold" lengthAdjust="spacing" textLength="65.0001" x="223.5366" y="263.0278">&#27491;&#24120;&#31995;&#32066;&#20102;</text><rect fill="#EEEEEE" height="3" style="stroke:#EEEEEE;stroke-width:1;" width="518.5991" x="0" y="300.6602"/><line style="stroke:#000000;stroke-width:1;" x1="0" x2="518.5991" y1="300.6602" y2="300.6602"/><line style="stroke:#000000;stroke-width:1;" x1="0" x2="518.5991" y1="303.6602" y2="303.6602"/><rect fill="#EEEEEE" height="23.1328" style="stroke:#000000;stroke-width:2;" width="96.526" x="211.0366" y="290.0938"/><text fill="#000000" font-family="sans-serif" font-size="13" font-weight="bold" lengthAdjust="spacing" textLength="78.0001" x="217.0366" y="306.1606">&#22833;&#25943;&#12465;&#12540;&#12473;&#20363;</text><g class="message" data-participant-1="User" data-participant-2="Terminal"><polygon fill="#181818" points="164.1523,340.3594,174.1523,344.3594,164.1523,348.3594,168.1523,344.3594" style="stroke:#181818;stroke-width:1;"/><line style="stroke:#181818;stroke-width:1;" x1="23.9551" x2="170.1523" y1="344.3594" y2="344.3594"/><text fill="#000000" font-family="sans-serif" font-size="13" lengthAdjust="spacing" textLength="83.77" x="30.9551" y="339.2935">Ctrl+Shift+C</text></g><g class="message" data-participant-1="Terminal" data-participant-2="User"><polygon fill="#181818" points="34.9551,369.4922,24.9551,373.4922,34.9551,377.4922,30.9551,373.4922" style="stroke:#181818;stroke-width:1;"/><line style="stroke:#181818;stroke-width:1;stroke-dasharray:2.0,2.0;" x1="28.9551" x2="180.1523" y1="373.4922" y2="373.4922"/><text fill="#000000" font-family="sans-serif" font-size="13" lengthAdjust="spacing" textLength="128.1973" x="40.9551" y="368.4263">No Selection (Error)</text></g><path d="M186,386.4922 L186,426.4922 L384,426.4922 L384,396.4922 L374,386.4922 L186,386.4922" fill="#FEFFDD" style="stroke:#181818;stroke-width:0.5;"/><path d="M374,386.4922 L374,396.4922 L384,396.4922 L374,386.4922" fill="#FEFFDD" style="stroke:#181818;stroke-width:0.5;"/><text fill="#000000" font-family="sans-serif" font-size="13" lengthAdjust="spacing" textLength="177.8234" x="192" y="403.5591">- &#12486;&#12461;&#12473;&#12488;&#12364;&#36984;&#25246;&#12373;&#12428;&#12390;&#12356;&#12394;&#12356;</text><text fill="#000000" font-family="sans-serif" font-size="13" lengthAdjust="spacing" textLength="159.3644" x="192" y="418.6919">- &#12501;&#12457;&#12540;&#12459;&#12473;&#12364; Chrome &#20596;</text><!--SRC=[fP3DJi9058NtynGth3I45o2fcuQbFn5qFy859YapTJeONKunn2XRuiwDnaGD2u8c-1DVPlY9R-6qXHRKdPicFVUS-zqvjAg4X8C09V6fLApAVCeLv2eeMunJ3qgjjaUj9mSqWAMwxjqjW-in_qXGMODjoca34tkghllTfXGjp14IOQ6mbQw58hXAUlboazLLtYMqgjW9LPXnKwTDPKmR4_uPbD53cn2SrF1tDAKb-7NMOSPAncJX-i7Peu6rxEDn6mD5iabXTMy5JvMzY2laQlMKnMRYE30Rt4x7u_deVVuIJjwwu3YnFBqRplhN9XoQpeS9NoUVL_7aFptPM1mlmex86eADafH2RlxT51VsLx96Ku6ePpf00KodQyA1lSrqBepkVUdnxFB6wBu9UqRV6trkzAFzBhnMVeYVyXGbT6_PqLG_4-GrY43V]--></g></svg>