<svg xmlns="http://www.w3.org/2000/svg" xmlns:xlink="http://www.w3.org/1999/xlink" contentStyleType="text/css" data-diagram-type="SEQUENCE" height="887px" preserveAspectRatio="none" style="width:383px;height:887px;background:#FFFFFF;" version="1.1" viewBox="0 0 383 887" width="383px" zoomAndPan="magnify"><title>NixOS&#12434;Arch Linux&#12398;&#12424;&#12358;&#12395;&#20351;&#12358;&#65306;&#27010;&#24565;&#12471;&#12540;&#12465;&#12531;&#12473;&#22259;</title><defs/><g><text fill="#000000" font-family="sans-serif" font-size="14" font-weight="bold" lengthAdjust="spacing" textLength="355.0918" x="10" y="27.9951">NixOS&#12434;Arch Linux&#12398;&#12424;&#12358;&#12395;&#20351;&#12358;&#65306;&#27010;&#24565;&#12471;&#12540;&#12465;&#12531;&#12473;&#22259;</text><g><title>User</title><rect fill="#000000" fill-opacity="0.00000" height="687.7891" width="8" x="47.5075" y="118.5938"/><line style="stroke:#181818;stroke-width:0.5;stroke-dasharray:5.0,5.0;" x1="50.5524" x2="50.5524" y1="118.5938" y2="806.3828"/></g><g><title>Arch Linux</title><rect fill="#000000" fill-opacity="0.00000" height="687.7891" width="8" x="228.9486" y="118.5938"/><line style="stroke:#181818;stroke-width:0.5;stroke-dasharray:5.0,5.0;" x1="232.9115" x2="232.9115" y1="118.5938" y2="806.3828"/></g><g><title>NixOS</title><rect fill="#000000" fill-opacity="0.00000" height="687.7891" width="8" x="311.2625" y="118.5938"/><line style="stroke:#181818;stroke-width:0.5;stroke-dasharray:5.0,5.0;" x1="314.9857" x2="314.9857" y1="118.5938" y2="806.3828"/></g><g class="participant participant-head" data-participant="User"><text fill="#000000" font-family="sans-serif" font-size="14" lengthAdjust="spacing" textLength="31.9102" x="32.5524" y="115.292">User</text><ellipse cx="51.5075" cy="50.7969" fill="#E2E2F0" rx="8" ry="8" style="stroke:#181818;stroke-width:0.5;"/><path d="M51.5075,58.7969 L51.5075,85.7969 M38.5075,66.7969 L64.5075,66.7969 M51.5075,85.7969 L38.5075,100.7969 M51.5075,85.7969 L64.5075,100.7969" fill="none" style="stroke:#181818;stroke-width:0.5;"/></g><g class="participant participant-tail" data-participant="User"><text fill="#000000" font-family="sans-serif" font-size="14" lengthAdjust="spacing" textLength="31.9102" x="32.5524" y="818.3779">User</text><ellipse cx="51.5075" cy="830.1797" fill="#E2E2F0" rx="8" ry="8" style="stroke:#181818;stroke-width:0.5;"/><path d="M51.5075,838.1797 L51.5075,865.1797 M38.5075,846.1797 L64.5075,846.1797 M51.5075,865.1797 L38.5075,880.1797 M51.5075,865.1797 L64.5075,880.1797" fill="none" style="stroke:#181818;stroke-width:0.5;"/></g><g class="participant participant-head" data-participant="Arch"><rect fill="#E2E2F0" height="30.2969" rx="2.5" ry="2.5" style="stroke:#181818;stroke-width:0.5;" width="88.0742" x="188.9115" y="87.2969"/><text fill="#000000" font-family="sans-serif" font-size="14" lengthAdjust="spacing" textLength="74.0742" x="195.9115" y="107.292">Arch Linux</text></g><g class="participant participant-tail" data-participant="Arch"><rect fill="#E2E2F0" height="30.2969" rx="2.5" ry="2.5" style="stroke:#181818;stroke-width:0.5;" width="88.0742" x="188.9115" y="805.3828"/><text fill="#000000" font-family="sans-serif" font-size="14" lengthAdjust="spacing" textLength="74.0742" x="195.9115" y="825.3779">Arch Linux</text></g><g class="participant participant-head" data-participant="Nix"><rect fill="#E2E2F0" height="30.2969" rx="2.5" ry="2.5" style="stroke:#181818;stroke-width:0.5;" width="56.5537" x="286.9857" y="87.2969"/><text fill="#000000" font-family="sans-serif" font-size="14" lengthAdjust="spacing" textLength="42.5537" x="293.9857" y="107.292">NixOS</text></g><g class="participant participant-tail" data-participant="Nix"><rect fill="#E2E2F0" height="30.2969" rx="2.5" ry="2.5" style="stroke:#181818;stroke-width:0.5;" width="56.5537" x="286.9857" y="805.3828"/><text fill="#000000" font-family="sans-serif" font-size="14" lengthAdjust="spacing" textLength="42.5537" x="293.9857" y="825.3779">NixOS</text></g><rect fill="#EEEEEE" height="3" style="stroke:#EEEEEE;stroke-width:1;" width="320.987" x="27.5524" y="149.1602"/><line style="stroke:#000000;stroke-width:1;" x1="27.5524" x2="348.5394" y1="149.1602" y2="149.1602"/><line style="stroke:#000000;stroke-width:1;" x1="27.5524" x2="348.5394" y1="152.1602" y2="152.1602"/><rect fill="#EEEEEE" height="23.1328" style="stroke:#000000;stroke-width:2;" width="191.6837" x="92.204" y="138.5938"/><text fill="#000000" font-family="sans-serif" font-size="13" font-weight="bold" lengthAdjust="spacing" textLength="173.1579" x="98.204" y="154.6606">&#30446;&#30340;: Arch&#12398;&#12424;&#12358;&#12395;&#20351;&#12356;&#12383;&#12356;</text><g class="message" data-participant-1="User" data-participant-2="Arch"><polygon fill="#181818" points="220.9486,188.8594,230.9486,192.8594,220.9486,196.8594,224.9486,192.8594" style="stroke:#181818;stroke-width:1;"/><line style="stroke:#181818;stroke-width:1;" x1="51.5075" x2="226.9486" y1="192.8594" y2="192.8594"/><text fill="#000000" font-family="sans-serif" font-size="13" lengthAdjust="spacing" textLength="150.3379" x="58.5075" y="187.7935">pacman -S &lt;package&gt;</text></g><g class="message" data-participant-1="User" data-participant-2="Arch"><polygon fill="#181818" points="220.9486,217.9922,230.9486,221.9922,220.9486,225.9922,224.9486,221.9922" style="stroke:#181818;stroke-width:1;"/><line style="stroke:#181818;stroke-width:1;" x1="51.5075" x2="226.9486" y1="221.9922" y2="221.9922"/><text fill="#000000" font-family="sans-serif" font-size="13" lengthAdjust="spacing" textLength="89.6226" x="58.5075" y="216.9263">/etc&#12434;&#25163;&#21205;&#32232;&#38598;</text></g><g class="message" data-participant-1="User" data-participant-2="Arch"><polygon fill="#181818" points="220.9486,247.125,230.9486,251.125,220.9486,255.125,224.9486,251.125" style="stroke:#181818;stroke-width:1;"/><line style="stroke:#181818;stroke-width:1;" x1="51.5075" x2="226.9486" y1="251.125" y2="251.125"/><text fill="#000000" font-family="sans-serif" font-size="13" lengthAdjust="spacing" textLength="145.5137" x="58.5075" y="246.0591">systemctl restart xxxx</text></g><g class="message" data-participant-1="User" data-participant-2="Nix"><polygon fill="#181818" points="303.2625,276.2578,313.2625,280.2578,303.2625,284.2578,307.2625,280.2578" style="stroke:#181818;stroke-width:1;"/><line style="stroke:#181818;stroke-width:1;" x1="51.5075" x2="309.2625" y1="280.2578" y2="280.2578"/><text fill="#000000" font-family="sans-serif" font-size="13" lengthAdjust="spacing" textLength="150.522" x="58.5075" y="275.1919">nix-env -iA &lt;package&gt;</text></g><g class="message" data-participant-1="User" data-participant-2="Nix"><polygon fill="#181818" points="303.2625,305.3906,313.2625,309.3906,303.2625,313.3906,307.2625,309.3906" style="stroke:#181818;stroke-width:1;"/><line style="stroke:#181818;stroke-width:1;" x1="51.5075" x2="309.2625" y1="309.3906" y2="309.3906"/><text fill="#000000" font-family="sans-serif" font-size="13" lengthAdjust="spacing" textLength="153.042" x="58.5075" y="304.3247">configuration.nix &#12395;&#35352;&#36848;</text></g><g class="message" data-participant-1="User" data-participant-2="Nix"><polygon fill="#181818" points="303.2625,334.5234,313.2625,338.5234,303.2625,342.5234,307.2625,338.5234" style="stroke:#181818;stroke-width:1;"/><line style="stroke:#181818;stroke-width:1;" x1="51.5075" x2="309.2625" y1="338.5234" y2="338.5234"/><text fill="#000000" font-family="sans-serif" font-size="13" lengthAdjust="spacing" textLength="129.9048" x="58.5075" y="333.4575">nixos-rebuild switch</text></g><rect fill="#EEEEEE" height="3" style="stroke:#EEEEEE;stroke-width:1;" width="320.987" x="27.5524" y="367.0898"/><line style="stroke:#000000;stroke-width:1;" x1="27.5524" x2="348.5394" y1="367.0898" y2="367.0898"/><line style="stroke:#000000;stroke-width:1;" x1="27.5524" x2="348.5394" y1="370.0898" y2="370.0898"/><rect fill="#EEEEEE" height="23.1328" style="stroke:#000000;stroke-width:2;" width="145.2506" x="115.4206" y="356.5234"/><text fill="#000000" font-family="sans-serif" font-size="13" font-weight="bold" lengthAdjust="spacing" textLength="126.7247" x="121.4206" y="372.5903">&#20849;&#36890;&#28857;: &#20284;&#12390;&#12356;&#12427;&#37096;&#20998;</text><g class="message" data-participant-1="Arch" data-participant-2="User"><polygon fill="#181818" points="62.5075,406.7891,52.5075,410.7891,62.5075,414.7891,58.5075,410.7891" style="stroke:#181818;stroke-width:1;"/><line style="stroke:#181818;stroke-width:1;stroke-dasharray:2.0,2.0;" x1="56.5075" x2="231.9486" y1="410.7891" y2="410.7891"/><text fill="#000000" font-family="sans-serif" font-size="13" lengthAdjust="spacing" textLength="156.0002" x="68.5075" y="405.7231">&#36605;&#37327;&#12539;&#12525;&#12540;&#12522;&#12531;&#12464;&#12522;&#12522;&#12540;&#12473;</text></g><g class="message" data-participant-1="Nix" data-participant-2="User"><polygon fill="#181818" points="62.5075,435.9219,52.5075,439.9219,62.5075,443.9219,58.5075,439.9219" style="stroke:#181818;stroke-width:1;"/><line style="stroke:#181818;stroke-width:1;stroke-dasharray:2.0,2.0;" x1="56.5075" x2="314.2625" y1="439.9219" y2="439.9219"/><text fill="#000000" font-family="sans-serif" font-size="13" lengthAdjust="spacing" textLength="147.1769" x="68.5075" y="434.856">&#36605;&#37327;&#12539;unstable&#12391;&#26368;&#26032;&#21487;</text></g><g class="message" data-participant-1="Arch" data-participant-2="User"><polygon fill="#181818" points="62.5075,465.0547,52.5075,469.0547,62.5075,473.0547,58.5075,469.0547" style="stroke:#181818;stroke-width:1;"/><line style="stroke:#181818;stroke-width:1;stroke-dasharray:2.0,2.0;" x1="56.5075" x2="231.9486" y1="469.0547" y2="469.0547"/><text fill="#000000" font-family="sans-serif" font-size="13" lengthAdjust="spacing" textLength="130.0002" x="68.5075" y="463.9888">&#25163;&#21205;&#12452;&#12531;&#12473;&#12488;&#12540;&#12523;&#33258;&#30001;</text></g><g class="message" data-participant-1="Nix" data-participant-2="User"><polygon fill="#181818" points="62.5075,494.1875,52.5075,498.1875,62.5075,502.1875,58.5075,498.1875" style="stroke:#181818;stroke-width:1;"/><line style="stroke:#181818;stroke-width:1;stroke-dasharray:2.0,2.0;" x1="56.5075" x2="314.2625" y1="498.1875" y2="498.1875"/><text fill="#000000" font-family="sans-serif" font-size="13" lengthAdjust="spacing" textLength="167.6353" x="68.5075" y="493.1216">nix-shell&#12420;nix-env&#12391;&#23550;&#24540;&#21487;</text></g><rect fill="#EEEEEE" height="3" style="stroke:#EEEEEE;stroke-width:1;" width="320.987" x="27.5524" y="526.7539"/><line style="stroke:#000000;stroke-width:1;" x1="27.5524" x2="348.5394" y1="526.7539" y2="526.7539"/><line style="stroke:#000000;stroke-width:1;" x1="27.5524" x2="348.5394" y1="529.7539" y2="529.7539"/><rect fill="#EEEEEE" height="23.1328" style="stroke:#000000;stroke-width:2;" width="119.2506" x="128.4206" y="516.1875"/><text fill="#000000" font-family="sans-serif" font-size="13" font-weight="bold" lengthAdjust="spacing" textLength="100.7247" x="134.4206" y="532.2544">&#30456;&#36949;&#28857;: &#36949;&#12358;&#37096;&#20998;</text><g class="message" data-participant-1="User" data-participant-2="Arch"><polygon fill="#181818" points="220.9486,566.4531,230.9486,570.4531,220.9486,574.4531,224.9486,570.4531" style="stroke:#181818;stroke-width:1;"/><line style="stroke:#181818;stroke-width:1;" x1="51.5075" x2="226.9486" y1="570.4531" y2="570.4531"/><text fill="#000000" font-family="sans-serif" font-size="13" lengthAdjust="spacing" textLength="104.0001" x="58.5075" y="565.3872">&#35373;&#23450;&#21363;&#21453;&#26144;&#12364;&#21487;&#33021;</text></g><g class="message" data-participant-1="User" data-participant-2="Nix"><polygon fill="#181818" points="303.2625,595.5859,313.2625,599.5859,303.2625,603.5859,307.2625,599.5859" style="stroke:#181818;stroke-width:1;"/><line style="stroke:#181818;stroke-width:1;" x1="51.5075" x2="309.2625" y1="599.5859" y2="599.5859"/><text fill="#000000" font-family="sans-serif" font-size="13" lengthAdjust="spacing" textLength="84.3096" x="58.5075" y="594.52">rebuild&#12364;&#24517;&#35201;</text></g><g class="message" data-participant-1="User" data-participant-2="Arch"><polygon fill="#181818" points="220.9486,624.7188,230.9486,628.7188,220.9486,632.7188,224.9486,628.7188" style="stroke:#181818;stroke-width:1;"/><line style="stroke:#181818;stroke-width:1;" x1="51.5075" x2="226.9486" y1="628.7188" y2="628.7188"/><text fill="#000000" font-family="sans-serif" font-size="13" lengthAdjust="spacing" textLength="157.4411" x="58.5075" y="623.6528">AUR&#12363;&#12425;&#35914;&#23500;&#12394;&#12497;&#12483;&#12465;&#12540;&#12472;</text></g><g class="message" data-participant-1="User" data-participant-2="Nix"><polygon fill="#181818" points="303.2625,653.8516,313.2625,657.8516,303.2625,661.8516,307.2625,657.8516" style="stroke:#181818;stroke-width:1;"/><line style="stroke:#181818;stroke-width:1;" x1="51.5075" x2="309.2625" y1="657.8516" y2="657.8516"/><text fill="#000000" font-family="sans-serif" font-size="13" lengthAdjust="spacing" textLength="141.3497" x="58.5075" y="652.7856">nixpkgs&#12395;&#12394;&#12356;&#12392;&#25163;&#20316;&#26989;</text></g><rect fill="#EEEEEE" height="3" style="stroke:#EEEEEE;stroke-width:1;" width="320.987" x="27.5524" y="686.418"/><line style="stroke:#000000;stroke-width:1;" x1="27.5524" x2="348.5394" y1="686.418" y2="686.418"/><line style="stroke:#000000;stroke-width:1;" x1="27.5524" x2="348.5394" y1="689.418" y2="689.418"/><rect fill="#EEEEEE" height="23.1328" style="stroke:#000000;stroke-width:2;" width="109.526" x="133.2829" y="675.8516"/><text fill="#000000" font-family="sans-serif" font-size="13" font-weight="bold" lengthAdjust="spacing" textLength="91.0001" x="139.2829" y="691.9185">&#24037;&#22827;&#12391;&#36817;&#12389;&#12369;&#12427;</text><g class="message" data-participant-1="User" data-participant-2="Nix"><polygon fill="#181818" points="303.2625,726.1172,313.2625,730.1172,303.2625,734.1172,307.2625,730.1172" style="stroke:#181818;stroke-width:1;"/><line style="stroke:#181818;stroke-width:1;" x1="51.5075" x2="309.2625" y1="730.1172" y2="730.1172"/><text fill="#000000" font-family="sans-serif" font-size="13" lengthAdjust="spacing" textLength="125.5059" x="58.5075" y="725.0513">Home Manager&#23566;&#20837;</text></g><g class="message" data-participant-1="User" data-participant-2="Nix"><polygon fill="#181818" points="303.2625,755.25,313.2625,759.25,303.2625,763.25,307.2625,759.25" style="stroke:#181818;stroke-width:1;"/><line style="stroke:#181818;stroke-width:1;" x1="51.5075" x2="309.2625" y1="759.25" y2="759.25"/><text fill="#000000" font-family="sans-serif" font-size="13" lengthAdjust="spacing" textLength="189.3443" x="58.5075" y="754.1841">Impermanence&#12391;&#23455;&#39443;&#30340;&#12395;&#20351;&#12358;</text></g><g class="message" data-participant-1="User" data-participant-2="Nix"><polygon fill="#181818" points="303.2625,784.3828,313.2625,788.3828,303.2625,792.3828,307.2625,788.3828" style="stroke:#181818;stroke-width:1;"/><line style="stroke:#181818;stroke-width:1;" x1="51.5075" x2="309.2625" y1="788.3828" y2="788.3828"/><text fill="#000000" font-family="sans-serif" font-size="13" lengthAdjust="spacing" textLength="164.0299" x="58.5075" y="783.3169">nix-index&#12391;&#12497;&#12483;&#12465;&#12540;&#12472;&#26908;&#32034;</text></g><!--SRC=[RLFRRjf047ttLwpoxlOTbKYyjL8lKgDyWEDiYHKmo3OjVSlQG4X9Yj8sKGH8gIek5X4tqOgWGFcOOOrvwYzql4HDO_23FTQUFJDppeobMGbANclPDpjWVuaPwW5vgUcPBB0ks4LW1M0ty-aCWp-JYjUq-UmNs2Dm9c0Fm1c2FURLeIGfgfKooAv93Icj69QcQcb5jyZM0-4MKKmI_3u6YCpY32D9YaR9ejfTL78HWLsh8WVi6jya6fMa81kHjmMGH4XQKPEAJkGTyWp3GoLEjyEGfzHIiKllfCHB5ukHkwmMmX3pesdHf6ebY45D2oibMNmUac6LYDArh4przqJMOXkohJ1gId-dnJE6Ocaf_GdU8DY4xrxvi_uwMygK3RgNqHBxnFoWMQXI80NF3vP7bOKzZf3vP0Ai6GXWbvQEoui5eO6eMaOcmHWX_jrqULm6vmwSJc2IqnOczKNG5hQDfI3hfZiP7JlUIr1WBQzsv5tsURctbc4b7jZrbVlW54MU6_-ulVWs27C7Gfa7D940EtSl6hBptcy-gmNiAyDlb-n2T8bVDFk__aBk-6w7TolyRCZBPzxLTs2dIE8xqv2Wzr86nxEytsHhFB7Tjy1AO9_uWq-yTmeCfJa7nn53ZHhThZkKFeoRQ6003QRGHHtcqvhNwAoS6ZLu7GzR_kmSM0FOEVhqg8CLqVDKaf9NYexpOl3-PvvlX00lacbgu1nJNGryuDthfViLz-7V6cwOH4tVfxYmhL0FNhss-FdZBm00]--></g></svg>