<svg xmlns="http://www.w3.org/2000/svg" xmlns:xlink="http://www.w3.org/1999/xlink" contentStyleType="text/css" data-diagram-type="SEQUENCE" height="773px" preserveAspectRatio="none" style="width:753px;height:773px;background:#FFFFFF;" version="1.1" viewBox="0 0 753 773" width="753px" zoomAndPan="magnify"><title>dwm &#12391; Windows&#12461;&#12540;&#12434; Mod &#12395;&#12289;VSCode &#12391;&#12399; Alt &#12398;&#20195;&#12431;&#12426;&#12395;&#20351;&#12356;&#12383;&#12356;&#22580;&#21512;</title><defs/><g><text fill="#000000" font-family="sans-serif" font-size="14" font-weight="bold" lengthAdjust="spacing" textLength="524.9988" x="110.2555" y="27.9951">dwm &#12391; Windows&#12461;&#12540;&#12434; Mod &#12395;&#12289;VSCode &#12391;&#12399; Alt &#12398;&#20195;&#12431;&#12426;&#12395;&#20351;&#12356;&#12383;&#12356;&#22580;&#21512;</text><g><title>User</title><rect fill="#000000" fill-opacity="0.00000" height="574.2578" width="8" x="19.9551" y="118.5938"/><line style="stroke:#181818;stroke-width:0.5;stroke-dasharray:5.0,5.0;" x1="23" x2="23" y1="118.5938" y2="692.8516"/></g><g><title>dwm</title><rect fill="#000000" fill-opacity="0.00000" height="574.2578" width="8" x="346.1989" y="118.5938"/><line style="stroke:#181818;stroke-width:0.5;stroke-dasharray:5.0,5.0;" x1="349.2116" x2="349.2116" y1="118.5938" y2="692.8516"/></g><g><title>X Server</title><rect fill="#000000" fill-opacity="0.00000" height="574.2578" width="8" x="417.1618" y="118.5938"/><line style="stroke:#181818;stroke-width:0.5;stroke-dasharray:5.0,5.0;" x1="420.1862" x2="420.1862" y1="118.5938" y2="692.8516"/></g><g><title>VSCode</title><rect fill="#000000" fill-opacity="0.00000" height="574.2578" width="8" x="498.2897" y="118.5938"/><line style="stroke:#181818;stroke-width:0.5;stroke-dasharray:5.0,5.0;" x1="502.1374" x2="502.1374" y1="118.5938" y2="692.8516"/></g><g><title>xkb options</title><rect fill="#000000" fill-opacity="0.00000" height="574.2578" width="8" x="603.2898" y="118.5938"/><line style="stroke:#181818;stroke-width:0.5;stroke-dasharray:5.0,5.0;" x1="606.6434" x2="606.6434" y1="118.5938" y2="692.8516"/></g><g><title>Xremap</title><rect fill="#000000" fill-opacity="0.00000" height="574.2578" width="8" x="695.4681" y="118.5938"/><line style="stroke:#181818;stroke-width:0.5;stroke-dasharray:5.0,5.0;" x1="698.9363" x2="698.9363" y1="118.5938" y2="692.8516"/></g><g class="participant participant-head" data-participant="User"><text fill="#000000" font-family="sans-serif" font-size="14" lengthAdjust="spacing" textLength="31.9102" x="5" y="115.292">User</text><ellipse cx="23.9551" cy="50.7969" fill="#E2E2F0" rx="8" ry="8" style="stroke:#181818;stroke-width:0.5;"/><path d="M23.9551,58.7969 L23.9551,85.7969 M10.9551,66.7969 L36.9551,66.7969 M23.9551,85.7969 L10.9551,100.7969 M23.9551,85.7969 L36.9551,100.7969" fill="none" style="stroke:#181818;stroke-width:0.5;"/></g><g class="participant participant-tail" data-participant="User"><text fill="#000000" font-family="sans-serif" font-size="14" lengthAdjust="spacing" textLength="31.9102" x="5" y="704.8467">User</text><ellipse cx="23.9551" cy="716.6484" fill="#E2E2F0" rx="8" ry="8" style="stroke:#181818;stroke-width:0.5;"/><path d="M23.9551,724.6484 L23.9551,751.6484 M10.9551,732.6484 L36.9551,732.6484 M23.9551,751.6484 L10.9551,766.6484 M23.9551,751.6484 L36.9551,766.6484" fill="none" style="stroke:#181818;stroke-width:0.5;"/></g><g class="participant participant-head" data-participant="WM"><rect fill="#E2E2F0" height="30.2969" rx="2.5" ry="2.5" style="stroke:#181818;stroke-width:0.5;" width="47.9746" x="326.2116" y="87.2969"/><text fill="#000000" font-family="sans-serif" font-size="14" lengthAdjust="spacing" textLength="33.9746" x="333.2116" y="107.292">dwm</text></g><g class="participant participant-tail" data-participant="WM"><rect fill="#E2E2F0" height="30.2969" rx="2.5" ry="2.5" style="stroke:#181818;stroke-width:0.5;" width="47.9746" x="326.2116" y="691.8516"/><text fill="#000000" font-family="sans-serif" font-size="14" lengthAdjust="spacing" textLength="33.9746" x="333.2116" y="711.8467">dwm</text></g><g class="participant participant-head" data-participant="X Server"><rect fill="#E2E2F0" height="30.2969" rx="2.5" ry="2.5" style="stroke:#181818;stroke-width:0.5;" width="73.9512" x="384.1862" y="87.2969"/><text fill="#000000" font-family="sans-serif" font-size="14" lengthAdjust="spacing" textLength="59.9512" x="391.1862" y="107.292">X Server</text></g><g class="participant participant-tail" data-participant="X Server"><rect fill="#E2E2F0" height="30.2969" rx="2.5" ry="2.5" style="stroke:#181818;stroke-width:0.5;" width="73.9512" x="384.1862" y="691.8516"/><text fill="#000000" font-family="sans-serif" font-size="14" lengthAdjust="spacing" textLength="59.9512" x="391.1862" y="711.8467">X Server</text></g><g class="participant participant-head" data-participant="VSCode"><rect fill="#E2E2F0" height="30.2969" rx="2.5" ry="2.5" style="stroke:#181818;stroke-width:0.5;" width="68.3047" x="468.1374" y="87.2969"/><text fill="#000000" font-family="sans-serif" font-size="14" lengthAdjust="spacing" textLength="54.3047" x="475.1374" y="107.292">VSCode</text></g><g class="participant participant-tail" data-participant="VSCode"><rect fill="#E2E2F0" height="30.2969" rx="2.5" ry="2.5" style="stroke:#181818;stroke-width:0.5;" width="68.3047" x="468.1374" y="691.8516"/><text fill="#000000" font-family="sans-serif" font-size="14" lengthAdjust="spacing" textLength="54.3047" x="475.1374" y="711.8467">VSCode</text></g><g class="participant participant-head" data-participant="xkb options"><rect fill="#E2E2F0" height="30.2969" rx="2.5" ry="2.5" style="stroke:#181818;stroke-width:0.5;" width="95.293" x="559.6434" y="87.2969"/><text fill="#000000" font-family="sans-serif" font-size="14" lengthAdjust="spacing" textLength="81.293" x="566.6434" y="107.292">xkb options</text></g><g class="participant participant-tail" data-participant="xkb options"><rect fill="#E2E2F0" height="30.2969" rx="2.5" ry="2.5" style="stroke:#181818;stroke-width:0.5;" width="95.293" x="559.6434" y="691.8516"/><text fill="#000000" font-family="sans-serif" font-size="14" lengthAdjust="spacing" textLength="81.293" x="566.6434" y="711.8467">xkb options</text></g><g class="participant participant-head" data-participant="Xremap"><rect fill="#E2E2F0" height="30.2969" rx="2.5" ry="2.5" style="stroke:#181818;stroke-width:0.5;" width="69.0635" x="664.9363" y="87.2969"/><text fill="#000000" font-family="sans-serif" font-size="14" lengthAdjust="spacing" textLength="55.0635" x="671.9363" y="107.292">Xremap</text></g><g class="participant participant-tail" data-participant="Xremap"><rect fill="#E2E2F0" height="30.2969" rx="2.5" ry="2.5" style="stroke:#181818;stroke-width:0.5;" width="69.0635" x="664.9363" y="691.8516"/><text fill="#000000" font-family="sans-serif" font-size="14" lengthAdjust="spacing" textLength="55.0635" x="671.9363" y="711.8467">Xremap</text></g><rect fill="#EEEEEE" height="3" style="stroke:#EEEEEE;stroke-width:1;" width="746.5099" x="0" y="149.1602"/><line style="stroke:#000000;stroke-width:1;" x1="0" x2="746.5099" y1="149.1602" y2="149.1602"/><line style="stroke:#000000;stroke-width:1;" x1="0" x2="746.5099" y1="152.1602" y2="152.1602"/><rect fill="#EEEEEE" height="23.1328" style="stroke:#000000;stroke-width:2;" width="122.526" x="311.992" y="138.5938"/><text fill="#000000" font-family="sans-serif" font-size="13" font-weight="bold" lengthAdjust="spacing" textLength="104.0001" x="317.992" y="154.6606">&#36890;&#24120;&#12398;&#36215;&#21205;&#12392;&#25805;&#20316;</text><g class="message" data-participant-1="User" data-participant-2="WM"><polygon fill="#181818" points="338.1989,188.8594,348.1989,192.8594,338.1989,196.8594,342.1989,192.8594" style="stroke:#181818;stroke-width:1;"/><line style="stroke:#181818;stroke-width:1;" x1="23.9551" x2="344.1989" y1="192.8594" y2="192.8594"/><text fill="#000000" font-family="sans-serif" font-size="13" lengthAdjust="spacing" textLength="302.2438" x="30.9551" y="187.7935">Super&#65288;Win&#12461;&#12540;&#65289;&#12391;&#12454;&#12451;&#12531;&#12489;&#12454;&#25805;&#20316; (Mod4Mask)</text></g><path d="M355,205.8594 L355,245.8594 L643,245.8594 L643,215.8594 L633,205.8594 L355,205.8594" fill="#FEFFDD" style="stroke:#181818;stroke-width:0.5;"/><path d="M633,205.8594 L633,215.8594 L643,215.8594 L633,205.8594" fill="#FEFFDD" style="stroke:#181818;stroke-width:0.5;"/><text fill="#000000" font-family="sans-serif" font-size="13" lengthAdjust="spacing" textLength="259.0797" x="361" y="222.9263">config.h &#12391; modkey &#12434; Mod4Mask &#12395;&#35373;&#23450;</text><text fill="#000000" font-family="sans-serif" font-size="13" lengthAdjust="spacing" textLength="239.0275" x="361" y="238.0591">&#8594; Windows&#12461;&#12540;&#12364; Mod &#12461;&#12540;&#12392;&#12375;&#12390;&#20685;&#12367;</text><g class="message" data-participant-1="User" data-participant-2="VSCode"><polygon fill="#181818" points="490.2897,268.2578,500.2897,272.2578,490.2897,276.2578,494.2897,272.2578" style="stroke:#181818;stroke-width:1;"/><line style="stroke:#181818;stroke-width:1;" x1="23.9551" x2="496.2897" y1="272.2578" y2="272.2578"/><text fill="#000000" font-family="sans-serif" font-size="13" lengthAdjust="spacing" textLength="172.6374" x="30.9551" y="267.1919">Alt+D &#12434;&#25276;&#12375;&#12383;&#12356;&#12364;&#21177;&#12363;&#12394;&#12356;</text></g><rect fill="#EEEEEE" height="3" style="stroke:#EEEEEE;stroke-width:1;" width="746.5099" x="0" y="300.8242"/><line style="stroke:#000000;stroke-width:1;" x1="0" x2="746.5099" y1="300.8242" y2="300.8242"/><line style="stroke:#000000;stroke-width:1;" x1="0" x2="746.5099" y1="303.8242" y2="303.8242"/><rect fill="#EEEEEE" height="23.1328" style="stroke:#000000;stroke-width:2;" width="246.7179" x="249.896" y="290.2578"/><text fill="#000000" font-family="sans-serif" font-size="13" font-weight="bold" lengthAdjust="spacing" textLength="228.192" x="255.896" y="306.3247">&#35299;&#27770;&#31574;&#9312;: Alt &#12392; Super &#12434;&#20837;&#12428;&#26367;&#12360;&#12427;</text><g class="message" data-participant-1="User" data-participant-2="xkb options"><polygon fill="#181818" points="595.2898,340.5234,605.2898,344.5234,595.2898,348.5234,599.2898,344.5234" style="stroke:#181818;stroke-width:1;"/><line style="stroke:#181818;stroke-width:1;" x1="23.9551" x2="601.2898" y1="344.5234" y2="344.5234"/><text fill="#000000" font-family="sans-serif" font-size="13" lengthAdjust="spacing" textLength="255.6074" x="30.9551" y="339.4575">setxkbmap -option altwin:swap_alt_win</text></g><g class="message" data-participant-1="xkb options" data-participant-2="X Server"><polygon fill="#181818" points="432.1618,369.6563,422.1618,373.6563,432.1618,377.6563,428.1618,373.6563" style="stroke:#181818;stroke-width:1;"/><line style="stroke:#181818;stroke-width:1;" x1="426.1618" x2="606.2898" y1="373.6563" y2="373.6563"/><text fill="#000000" font-family="sans-serif" font-size="13" lengthAdjust="spacing" textLength="117.0001" x="438.1618" y="368.5903">&#12461;&#12540;&#21205;&#20316;&#12434;&#20999;&#12426;&#26367;&#12360;</text></g><path d="M426,386.6563 L426,426.6563 L727,426.6563 L727,396.6563 L717,386.6563 L426,386.6563" fill="#FEFFDD" style="stroke:#181818;stroke-width:0.5;"/><path d="M717,386.6563 L717,396.6563 L727,396.6563 L717,386.6563" fill="#FEFFDD" style="stroke:#181818;stroke-width:0.5;"/><text fill="#000000" font-family="sans-serif" font-size="13" lengthAdjust="spacing" textLength="182.9777" x="432" y="403.7231">Alt&#12461;&#12540; &#8596; Super&#12461;&#12540; &#20837;&#12428;&#26367;&#12360;</text><text fill="#000000" font-family="sans-serif" font-size="13" lengthAdjust="spacing" textLength="280.9855" x="432" y="418.856">&#8594; VSCode&#12391;&#12399; Win+D = Alt+D &#12398;&#12424;&#12358;&#12395;&#21205;&#20316;</text><rect fill="#EEEEEE" height="3" style="stroke:#EEEEEE;stroke-width:1;" width="746.5099" x="0" y="452.4883"/><line style="stroke:#000000;stroke-width:1;" x1="0" x2="746.5099" y1="452.4883" y2="452.4883"/><line style="stroke:#000000;stroke-width:1;" x1="0" x2="746.5099" y1="455.4883" y2="455.4883"/><rect fill="#EEEEEE" height="23.1328" style="stroke:#000000;stroke-width:2;" width="208.2575" x="269.1262" y="441.9219"/><text fill="#000000" font-family="sans-serif" font-size="13" font-weight="bold" lengthAdjust="spacing" textLength="189.7316" x="275.1262" y="457.9888">&#35299;&#27770;&#31574;&#9313;: &#12450;&#12503;&#12522;&#12372;&#12392;&#12398;&#12461;&#12540;&#22793;&#25563;</text><g class="message" data-participant-1="User" data-participant-2="Xremap"><polygon fill="#181818" points="687.4681,492.1875,697.4681,496.1875,687.4681,500.1875,691.4681,496.1875" style="stroke:#181818;stroke-width:1;"/><line style="stroke:#181818;stroke-width:1;" x1="23.9551" x2="693.4681" y1="496.1875" y2="496.1875"/><text fill="#000000" font-family="sans-serif" font-size="13" lengthAdjust="spacing" textLength="283.0929" x="30.9551" y="491.1216">VSCode &#12395;&#12384;&#12369; Win+D &#8594; Alt+D &#12398;&#12510;&#12483;&#12500;&#12531;&#12464;</text></g><g class="message" data-participant-1="Xremap" data-participant-2="X Server"><polygon fill="#181818" points="432.1618,521.3203,422.1618,525.3203,432.1618,529.3203,428.1618,525.3203" style="stroke:#181818;stroke-width:1;"/><line style="stroke:#181818;stroke-width:1;" x1="426.1618" x2="698.4681" y1="525.3203" y2="525.3203"/><text fill="#000000" font-family="sans-serif" font-size="13" lengthAdjust="spacing" textLength="156.0002" x="438.1618" y="520.2544">&#29305;&#23450;&#12450;&#12503;&#12522;&#12395;&#12461;&#12540;&#22793;&#25563;&#36969;&#29992;</text></g><path d="M507,538.3203 L507,563.3203 L741,563.3203 L741,548.3203 L731,538.3203 L507,538.3203" fill="#FEFFDD" style="stroke:#181818;stroke-width:0.5;"/><path d="M731,538.3203 L731,548.3203 L741,548.3203 L731,538.3203" fill="#FEFFDD" style="stroke:#181818;stroke-width:0.5;"/><text fill="#000000" font-family="sans-serif" font-size="13" lengthAdjust="spacing" textLength="213.5099" x="513" y="555.3872">Win+D &#12434; Alt+D &#12392;&#12375;&#12390;&#21463;&#12369;&#21462;&#12428;&#12427;</text><rect fill="#EEEEEE" height="3" style="stroke:#EEEEEE;stroke-width:1;" width="746.5099" x="0" y="589.0195"/><line style="stroke:#000000;stroke-width:1;" x1="0" x2="746.5099" y1="589.0195" y2="589.0195"/><line style="stroke:#000000;stroke-width:1;" x1="0" x2="746.5099" y1="592.0195" y2="592.0195"/><rect fill="#EEEEEE" height="23.1328" style="stroke:#000000;stroke-width:2;" width="190.8014" x="277.8543" y="578.4531"/><text fill="#000000" font-family="sans-serif" font-size="13" font-weight="bold" lengthAdjust="spacing" textLength="172.2755" x="283.8543" y="594.52">&#35299;&#27770;&#31574;&#9314;: VSCode &#20596;&#12391;&#22793;&#26356;</text><g class="message" data-participant-1="User" data-participant-2="VSCode"><polygon fill="#181818" points="490.2897,628.7188,500.2897,632.7188,490.2897,636.7188,494.2897,632.7188" style="stroke:#181818;stroke-width:1;"/><line style="stroke:#181818;stroke-width:1;" x1="23.9551" x2="496.2897" y1="632.7188" y2="632.7188"/><text fill="#000000" font-family="sans-serif" font-size="13" lengthAdjust="spacing" textLength="195.2985" x="30.9551" y="627.6528">&#12471;&#12519;&#12540;&#12488;&#12459;&#12483;&#12488;&#12434; Ctrl+D &#12395;&#22793;&#26356;</text></g><g class="message" data-participant-1="VSCode" data-participant-2="VSCode"><line style="stroke:#181818;stroke-width:1;" x1="502.2897" x2="544.2897" y1="661.8516" y2="661.8516"/><line style="stroke:#181818;stroke-width:1;" x1="544.2897" x2="544.2897" y1="661.8516" y2="674.8516"/><line style="stroke:#181818;stroke-width:1;" x1="503.2897" x2="544.2897" y1="674.8516" y2="674.8516"/><polygon fill="#181818" points="513.2897,670.8516,503.2897,674.8516,513.2897,678.8516,509.2897,674.8516" style="stroke:#181818;stroke-width:1;"/><text fill="#000000" font-family="sans-serif" font-size="13" lengthAdjust="spacing" textLength="91.0001" x="509.2897" y="656.7856">&#20869;&#37096;&#12391;&#20877;&#12510;&#12483;&#12503;</text></g><!--SRC=[TPFFRX9H5CRtynGdh3IchboHO6BgbXNHTjUCC6qdq1aoCuhkUkTQX1Q2hTWcnLWiMb02QiIqLHhVfOVXpwgluBbp1nn8t4pklNFFVD_vdMyStSbeaCfj0R8chEX6oipPw7QGzz4zWBYPeXTjt6QF4yjcIXEta7s51nc7bjt1xmQw5NHtwSxWwW-obyXEwEdLUzxhWgAeISUqu96jMKfMjHmzgMTLmu48wKL0jM4bFd- -2WdDUgPPaVbZgRrm-3pz1Coievk6lV1crTAsr6n4KM8nc6mVUnSNP7NyyzpRUukiDNnJ7bozWrXC4RvWwJwvW2WadcOrwwPV80Io_Pj-KJJhdg7RGFu3UP7MGV4jud8lhjhfsufXEXfO-iQc0-QwQ0WWQHhh-iRTJH_fbfbAQoyWWEaN2QBZLiVh7WFGzUlymG9uLfBWWrqBsH6oCu-NaLKKpKY145Lc_eFHHCLKxZmKKiFTlbzpua-avErU8jj3zeMsFfLnip7y_clKERpUhqU3OROa0b7kxNn2jpIiqK0BwEw5MSrX9qbRS-Y4SCEIF0Kru-Hq8shdrEmQhTTeeynNYS_C9atVa7tIT0YjK2-yeaH9zGMyeO20i2qhYM1LcW_sOVypn99Ia5_YJQHYKsAiYsu1MPu68ss4AC_Z-Y3idY8_Gauqg_vmka437ul3IYqCImQHEfpzF6raTMJxWRwmzSy1Vu-S8w-AiBdVbA1u4TQeU4d12NbeXzKdxFEesbgW9jK9WrGLKPogJgDLeUU-LpaaR3Jm_tP_Ecl5Opr2AKHhlN3BiooYUuwyAVBBAKDjlxM2a5vsh8oltPRLIb0IBlRoEnFU4WBvyfJBqLy0]--></g></svg>