<svg xmlns="http://www.w3.org/2000/svg" xmlns:xlink="http://www.w3.org/1999/xlink" contentStyleType="text/css" data-diagram-type="SEQUENCE" height="734px" preserveAspectRatio="none" style="width:926px;height:734px;background:#FFFFFF;" version="1.1" viewBox="0 0 926 734" width="926px" zoomAndPan="magnify"><title>xkbset m &#12364;&#28961;&#21177;&#12395;&#12394;&#12427;&#21407;&#22240;&#12398;&#12471;&#12540;&#12465;&#12531;&#12473;&#22259;</title><defs/><g><text fill="#000000" font-family="sans-serif" font-size="14" font-weight="bold" lengthAdjust="spacing" textLength="287.2178" x="315.6815" y="27.9951">xkbset m &#12364;&#28961;&#21177;&#12395;&#12394;&#12427;&#21407;&#22240;&#12398;&#12471;&#12540;&#12465;&#12531;&#12473;&#22259;</text><rect fill="none" height="75.3984" style="stroke:#000000;stroke-width:1.5;" width="727.5915" x="181.9894" y="561.3203"/><g><title>User</title><rect fill="#000000" fill-opacity="0.00000" height="535.125" width="8" x="19.9551" y="118.5938"/><line style="stroke:#181818;stroke-width:0.5;stroke-dasharray:5.0,5.0;" x1="23" x2="23" y1="118.5938" y2="653.7188"/></g><g><title>X Server</title><rect fill="#000000" fill-opacity="0.00000" height="535.125" width="8" x="224.965" y="118.5938"/><line style="stroke:#181818;stroke-width:0.5;stroke-dasharray:5.0,5.0;" x1="227.9894" x2="227.9894" y1="118.5938" y2="653.7188"/></g><g><title>dwm</title><rect fill="#000000" fill-opacity="0.00000" height="535.125" width="8" x="426.7352" y="118.5938"/><line style="stroke:#181818;stroke-width:0.5;stroke-dasharray:5.0,5.0;" x1="429.7479" x2="429.7479" y1="118.5938" y2="653.7188"/></g><g><title>xkbset</title><rect fill="#000000" fill-opacity="0.00000" height="535.125" width="8" x="491.0604" y="118.5938"/><line style="stroke:#181818;stroke-width:0.5;stroke-dasharray:5.0,5.0;" x1="494.7225" x2="494.7225" y1="118.5938" y2="653.7188"/></g><g><title>&#22806;&#37096;&#12452;&#12505;&#12531;&#12488; (USB, suspend &#12394;&#12393;)</title><rect fill="#000000" fill-opacity="0.00000" height="535.125" width="8" x="652.4898" y="118.5938"/><line style="stroke:#181818;stroke-width:0.5;stroke-dasharray:5.0,5.0;" x1="656.3983" x2="656.3983" y1="118.5938" y2="653.7188"/></g><g><title>&#30435;&#35222;&#12473;&#12463;&#12522;&#12503;&#12488;</title><rect fill="#000000" fill-opacity="0.00000" height="535.125" width="8" x="839.5811" y="118.5938"/><line style="stroke:#181818;stroke-width:0.5;stroke-dasharray:5.0,5.0;" x1="842.5814" x2="842.5814" y1="118.5938" y2="653.7188"/></g><g class="participant participant-head" data-participant="User"><text fill="#000000" font-family="sans-serif" font-size="14" lengthAdjust="spacing" textLength="31.9102" x="5" y="115.292">User</text><ellipse cx="23.9551" cy="50.7969" fill="#E2E2F0" rx="8" ry="8" style="stroke:#181818;stroke-width:0.5;"/><path d="M23.9551,58.7969 L23.9551,85.7969 M10.9551,66.7969 L36.9551,66.7969 M23.9551,85.7969 L10.9551,100.7969 M23.9551,85.7969 L36.9551,100.7969" fill="none" style="stroke:#181818;stroke-width:0.5;"/></g><g class="participant participant-tail" data-participant="User"><text fill="#000000" font-family="sans-serif" font-size="14" lengthAdjust="spacing" textLength="31.9102" x="5" y="665.7139">User</text><ellipse cx="23.9551" cy="677.5156" fill="#E2E2F0" rx="8" ry="8" style="stroke:#181818;stroke-width:0.5;"/><path d="M23.9551,685.5156 L23.9551,712.5156 M10.9551,693.5156 L36.9551,693.5156 M23.9551,712.5156 L10.9551,727.5156 M23.9551,712.5156 L36.9551,727.5156" fill="none" style="stroke:#181818;stroke-width:0.5;"/></g><g class="participant participant-head" data-participant="X"><rect fill="#E2E2F0" height="30.2969" rx="2.5" ry="2.5" style="stroke:#181818;stroke-width:0.5;" width="73.9512" x="191.9894" y="87.2969"/><text fill="#000000" font-family="sans-serif" font-size="14" lengthAdjust="spacing" textLength="59.9512" x="198.9894" y="107.292">X Server</text></g><g class="participant participant-tail" data-participant="X"><rect fill="#E2E2F0" height="30.2969" rx="2.5" ry="2.5" style="stroke:#181818;stroke-width:0.5;" width="73.9512" x="191.9894" y="652.7188"/><text fill="#000000" font-family="sans-serif" font-size="14" lengthAdjust="spacing" textLength="59.9512" x="198.9894" y="672.7139">X Server</text></g><g class="participant participant-head" data-participant="dwm"><rect fill="#E2E2F0" height="30.2969" rx="2.5" ry="2.5" style="stroke:#181818;stroke-width:0.5;" width="47.9746" x="406.7479" y="87.2969"/><text fill="#000000" font-family="sans-serif" font-size="14" lengthAdjust="spacing" textLength="33.9746" x="413.7479" y="107.292">dwm</text></g><g class="participant participant-tail" data-participant="dwm"><rect fill="#E2E2F0" height="30.2969" rx="2.5" ry="2.5" style="stroke:#181818;stroke-width:0.5;" width="47.9746" x="406.7479" y="652.7188"/><text fill="#000000" font-family="sans-serif" font-size="14" lengthAdjust="spacing" textLength="33.9746" x="413.7479" y="672.7139">dwm</text></g><g class="participant participant-head" data-participant="xkbset"><rect fill="#E2E2F0" height="30.2969" rx="2.5" ry="2.5" style="stroke:#181818;stroke-width:0.5;" width="60.6758" x="464.7225" y="87.2969"/><text fill="#000000" font-family="sans-serif" font-size="14" lengthAdjust="spacing" textLength="46.6758" x="471.7225" y="107.292">xkbset</text></g><g class="participant participant-tail" data-participant="xkbset"><rect fill="#E2E2F0" height="30.2969" rx="2.5" ry="2.5" style="stroke:#181818;stroke-width:0.5;" width="60.6758" x="464.7225" y="652.7188"/><text fill="#000000" font-family="sans-serif" font-size="14" lengthAdjust="spacing" textLength="46.6758" x="471.7225" y="672.7139">xkbset</text></g><g class="participant participant-head" data-participant="Events"><rect fill="#E2E2F0" height="30.2969" rx="2.5" ry="2.5" style="stroke:#181818;stroke-width:0.5;" width="242.1831" x="535.3983" y="87.2969"/><text fill="#000000" font-family="sans-serif" font-size="14" lengthAdjust="spacing" textLength="228.1831" x="542.3983" y="107.292">&#22806;&#37096;&#12452;&#12505;&#12531;&#12488; (USB, suspend &#12394;&#12393;)</text></g><g class="participant participant-tail" data-participant="Events"><rect fill="#E2E2F0" height="30.2969" rx="2.5" ry="2.5" style="stroke:#181818;stroke-width:0.5;" width="242.1831" x="535.3983" y="652.7188"/><text fill="#000000" font-family="sans-serif" font-size="14" lengthAdjust="spacing" textLength="228.1831" x="542.3983" y="672.7139">&#22806;&#37096;&#12452;&#12505;&#12531;&#12488; (USB, suspend &#12394;&#12393;)</text></g><g class="participant participant-head" data-participant="Watcher"><rect fill="#E2E2F0" height="30.2969" rx="2.5" ry="2.5" style="stroke:#181818;stroke-width:0.5;" width="111.9996" x="787.5814" y="87.2969"/><text fill="#000000" font-family="sans-serif" font-size="14" lengthAdjust="spacing" textLength="97.9996" x="794.5814" y="107.292">&#30435;&#35222;&#12473;&#12463;&#12522;&#12503;&#12488;</text></g><g class="participant participant-tail" data-participant="Watcher"><rect fill="#E2E2F0" height="30.2969" rx="2.5" ry="2.5" style="stroke:#181818;stroke-width:0.5;" width="111.9996" x="787.5814" y="652.7188"/><text fill="#000000" font-family="sans-serif" font-size="14" lengthAdjust="spacing" textLength="97.9996" x="794.5814" y="672.7139">&#30435;&#35222;&#12473;&#12463;&#12522;&#12503;&#12488;</text></g><rect fill="#EEEEEE" height="3" style="stroke:#EEEEEE;stroke-width:1;" width="919.5809" x="0" y="149.1602"/><line style="stroke:#000000;stroke-width:1;" x1="0" x2="919.5809" y1="149.1602" y2="149.1602"/><line style="stroke:#000000;stroke-width:1;" x1="0" x2="919.5809" y1="152.1602" y2="152.1602"/><rect fill="#EEEEEE" height="23.1328" style="stroke:#000000;stroke-width:2;" width="57.5259" x="431.0275" y="138.5938"/><text fill="#000000" font-family="sans-serif" font-size="13" font-weight="bold" lengthAdjust="spacing" textLength="39" x="437.0275" y="154.6606">&#36215;&#21205;&#26178;</text><g class="message" data-participant-1="User" data-participant-2="X"><polygon fill="#181818" points="216.965,188.8594,226.965,192.8594,216.965,196.8594,220.965,192.8594" style="stroke:#181818;stroke-width:1;"/><line style="stroke:#181818;stroke-width:1;" x1="23.9551" x2="222.965" y1="192.8594" y2="192.8594"/><text fill="#000000" font-family="sans-serif" font-size="13" lengthAdjust="spacing" textLength="181.0099" x="30.9551" y="187.7935">startx &#12394;&#12393;&#12391;X&#12475;&#12483;&#12471;&#12519;&#12531;&#36215;&#21205;</text></g><g class="message" data-participant-1="X" data-participant-2="dwm"><polygon fill="#181818" points="418.7352,217.9922,428.7352,221.9922,418.7352,225.9922,422.7352,221.9922" style="stroke:#181818;stroke-width:1;"/><line style="stroke:#181818;stroke-width:1;" x1="228.965" x2="424.7352" y1="221.9922" y2="221.9922"/><text fill="#000000" font-family="sans-serif" font-size="13" lengthAdjust="spacing" textLength="61.6802" x="235.965" y="216.9263">dwm &#36215;&#21205;</text></g><g class="message" data-participant-1="User" data-participant-2="xkbset"><polygon fill="#181818" points="483.0604,247.125,493.0604,251.125,483.0604,255.125,487.0604,251.125" style="stroke:#181818;stroke-width:1;"/><line style="stroke:#181818;stroke-width:1;" x1="23.9551" x2="489.0604" y1="251.125" y2="251.125"/><text fill="#000000" font-family="sans-serif" font-size="13" lengthAdjust="spacing" textLength="90.2701" x="30.9551" y="246.0591">xkbset m &#23455;&#34892;</text></g><g class="message" data-participant-1="xkbset" data-participant-2="X"><polygon fill="#181818" points="239.965,276.2578,229.965,280.2578,239.965,284.2578,235.965,280.2578" style="stroke:#181818;stroke-width:1;"/><line style="stroke:#181818;stroke-width:1;" x1="233.965" x2="494.0604" y1="280.2578" y2="280.2578"/><text fill="#000000" font-family="sans-serif" font-size="13" lengthAdjust="spacing" textLength="202.0461" x="245.965" y="275.1919">&#12510;&#12454;&#12473;&#12461;&#12540;&#26377;&#21177;&#21270; (AccessX &#27231;&#33021;)</text></g><rect fill="#EEEEEE" height="3" style="stroke:#EEEEEE;stroke-width:1;" width="919.5809" x="0" y="308.8242"/><line style="stroke:#000000;stroke-width:1;" x1="0" x2="919.5809" y1="308.8242" y2="308.8242"/><line style="stroke:#000000;stroke-width:1;" x1="0" x2="919.5809" y1="311.8242" y2="311.8242"/><rect fill="#EEEEEE" height="23.1328" style="stroke:#000000;stroke-width:2;" width="161.526" x="379.0274" y="298.2578"/><text fill="#000000" font-family="sans-serif" font-size="13" font-weight="bold" lengthAdjust="spacing" textLength="143.0002" x="385.0274" y="314.3247">&#36884;&#20013;&#12391;&#28961;&#21177;&#21270;&#12373;&#12428;&#12427;&#21407;&#22240;</text><g class="message" data-participant-1="Events" data-participant-2="X"><polygon fill="#181818" points="239.965,348.5234,229.965,352.5234,239.965,356.5234,235.965,352.5234" style="stroke:#181818;stroke-width:1;"/><line style="stroke:#181818;stroke-width:1;" x1="233.965" x2="655.4898" y1="352.5234" y2="352.5234"/><text fill="#000000" font-family="sans-serif" font-size="13" lengthAdjust="spacing" textLength="233.6448" x="245.965" y="347.4575">&#20837;&#21147;&#12487;&#12496;&#12452;&#12473;&#12398;&#20877;&#35469;&#35672; / &#12469;&#12473;&#12506;&#12531;&#12489;&#24489;&#24112;</text></g><g class="message" data-participant-1="X" data-participant-2="X"><line style="stroke:#181818;stroke-width:1;" x1="228.965" x2="270.965" y1="381.6563" y2="381.6563"/><line style="stroke:#181818;stroke-width:1;" x1="270.965" x2="270.965" y1="381.6563" y2="394.6563"/><line style="stroke:#181818;stroke-width:1;" x1="229.965" x2="270.965" y1="394.6563" y2="394.6563"/><polygon fill="#181818" points="239.965,390.6563,229.965,394.6563,239.965,398.6563,235.965,394.6563" style="stroke:#181818;stroke-width:1;"/><text fill="#000000" font-family="sans-serif" font-size="13" lengthAdjust="spacing" textLength="187.7702" x="235.965" y="376.5903">AccessX &#35373;&#23450;&#12364;&#12522;&#12475;&#12483;&#12488;&#12373;&#12428;&#12427;</text></g><path d="M233,407.6563 L233,447.6563 L392,447.6563 L392,417.6563 L382,407.6563 L233,407.6563" fill="#FEFFDD" style="stroke:#181818;stroke-width:0.5;"/><path d="M382,407.6563 L382,417.6563 L392,417.6563 L382,407.6563" fill="#FEFFDD" style="stroke:#181818;stroke-width:0.5;"/><text fill="#000000" font-family="sans-serif" font-size="13" lengthAdjust="spacing" textLength="104.0001" x="239" y="424.7231">&#12371;&#12398;&#12479;&#12452;&#12511;&#12531;&#12464;&#12391;</text><text fill="#000000" font-family="sans-serif" font-size="13" lengthAdjust="spacing" textLength="138.4742" x="239" y="439.856">xkbset &#12398;&#35373;&#23450;&#12364;&#28040;&#12360;&#12427;</text><rect fill="#EEEEEE" height="3" style="stroke:#EEEEEE;stroke-width:1;" width="919.5809" x="0" y="473.4883"/><line style="stroke:#000000;stroke-width:1;" x1="0" x2="919.5809" y1="473.4883" y2="473.4883"/><line style="stroke:#000000;stroke-width:1;" x1="0" x2="919.5809" y1="476.4883" y2="476.4883"/><rect fill="#EEEEEE" height="23.1328" style="stroke:#000000;stroke-width:2;" width="130.2574" x="394.6618" y="462.9219"/><text fill="#000000" font-family="sans-serif" font-size="13" font-weight="bold" lengthAdjust="spacing" textLength="111.7316" x="400.6618" y="478.9888">&#23550;&#31574;&#9312;: &#23450;&#26399;&#20877;&#35373;&#23450;</text><g class="message" data-participant-1="User" data-participant-2="Watcher"><polygon fill="#181818" points="831.5811,513.1875,841.5811,517.1875,831.5811,521.1875,835.5811,517.1875" style="stroke:#181818;stroke-width:1;"/><line style="stroke:#181818;stroke-width:1;" x1="23.9551" x2="837.5811" y1="517.1875" y2="517.1875"/><text fill="#000000" font-family="sans-serif" font-size="13" lengthAdjust="spacing" textLength="228.0333" x="30.9551" y="512.1216">&#30435;&#35222;&#12473;&#12463;&#12522;&#12503;&#12488;&#36215;&#21205; (xkbset_loop.sh)</text></g><g class="message" data-participant-1="Watcher" data-participant-2="X"><polygon fill="#181818" points="239.965,542.3203,229.965,546.3203,239.965,550.3203,235.965,546.3203" style="stroke:#181818;stroke-width:1;"/><line style="stroke:#181818;stroke-width:1;" x1="233.965" x2="842.5811" y1="546.3203" y2="546.3203"/><text fill="#000000" font-family="sans-serif" font-size="13" lengthAdjust="spacing" textLength="176.8585" x="245.965" y="541.2544">xkbset q &#12391;&#29366;&#24907;&#30906;&#35469;&#65288;&#23450;&#26399;&#65289;</text></g><path d="M181.9894,561.3203 L246.4323,561.3203 L246.4323,568.4531 L236.4323,578.4531 L181.9894,578.4531 L181.9894,561.3203" fill="#EEEEEE" style="stroke:#000000;stroke-width:1.5;"/><rect fill="none" height="75.3984" style="stroke:#000000;stroke-width:1.5;" width="727.5915" x="181.9894" y="561.3203"/><text fill="#000000" font-family="sans-serif" font-size="13" font-weight="bold" lengthAdjust="spacing" textLength="19.4429" x="196.9894" y="574.3872">alt</text><text fill="#000000" font-family="sans-serif" font-size="11" font-weight="bold" lengthAdjust="spacing" textLength="153.0537" x="261.4323" y="573.5308">[&#12510;&#12454;&#12473;&#12461;&#12540;&#12364;&#28961;&#21177;&#12395;&#12394;&#12387;&#12383;&#12425;]</text><g class="message" data-participant-1="Watcher" data-participant-2="xkbset"><polygon fill="#181818" points="506.0604,595.5859,496.0604,599.5859,506.0604,603.5859,502.0604,599.5859" style="stroke:#181818;stroke-width:1;"/><line style="stroke:#181818;stroke-width:1;" x1="500.0604" x2="842.5811" y1="599.5859" y2="599.5859"/><text fill="#000000" font-family="sans-serif" font-size="13" lengthAdjust="spacing" textLength="90.2701" x="512.0604" y="594.52">xkbset m &#23455;&#34892;</text></g><g class="message" data-participant-1="xkbset" data-participant-2="X"><polygon fill="#181818" points="239.965,624.7188,229.965,628.7188,239.965,632.7188,235.965,628.7188" style="stroke:#181818;stroke-width:1;"/><line style="stroke:#181818;stroke-width:1;" x1="233.965" x2="494.0604" y1="628.7188" y2="628.7188"/><text fill="#000000" font-family="sans-serif" font-size="13" lengthAdjust="spacing" textLength="130.0002" x="245.965" y="623.6528">&#20877;&#24230;&#12510;&#12454;&#12473;&#12461;&#12540;&#26377;&#21177;&#21270;</text></g><!--SRC=[TLFBRjDG4DtxAqPP9HAFVQKWWSGNL1NU8PCQ4f76mRwKBl6zjEI9GD10amgtjAHDKDAYgaz2-HU6wxYh_W9pRISq4TrOydXcpclCSYnlmjBJHux9O07GhGrVRShAARhVqEqYhyetdcnjeDj7VenYWFmxYWFafx9re6b6Xbasp3cchHKDc-KokQ9HO93GOTQq5qqx0OO3-kIt-HSBYSbAX3vLbDkD2x6BV1l5ca8K9KZEpTwx0SvpfsWMva7HSpkf4EB-ebbWpkI2OMihQ3U8AV8z55qK7sb7sFt0O9aiKTRIQGWEZsLrrL_Za4vhIWZSl0Cwp833QDbIZ8BkZexy1meHkh13XA91JLVz98acr3EkZXR5lixyCrZslM2pfiNlCHQApyZR8TKUUUolboa1MMj0ycucOpgE3dx72yJFL4ZvukM7FoSzeXGbHNtehYAlZSDIKY97HW1o-Qkij52yHl5MMKf8Rb-kr8DkFUXzWjk0_50LHJEqkYpFE_9aFnAdvaSqWjsUx3VfI9IXaH-YD4RN2XOpmSuzoJAm7bFkGFQz3q_dLnYa5vxEFb47e8-n2TGmtkiVqRgIsgKYLlj2oNBlVDXh_7wtGLBwJN_TKzp3cQknnRaIt_zc7sK3oGZsOTwoYhUSR4eRZSLQOrRFG3bSEVANgyClPsJKvQ0KOLyEofgHPzEfJVywxXQw7l8o2Rs2SEr5ZEqOHRPIbsVjwov3sVCN]--></g></svg>