<svg xmlns="http://www.w3.org/2000/svg" xmlns:xlink="http://www.w3.org/1999/xlink" contentStyleType="text/css" data-diagram-type="SEQUENCE" height="1381px" preserveAspectRatio="none" style="width:1066px;height:1381px;background:#FFFFFF;" version="1.1" viewBox="0 0 1066 1381" width="1066px" zoomAndPan="magnify"><title>Flake + NixOS + Home Manager + Overlay &#27083;&#25104;&#12398;&#27969;&#12428;</title><defs/><g><text fill="#000000" font-family="sans-serif" font-size="14" font-weight="bold" lengthAdjust="spacing" textLength="409.7595" x="324.5228" y="27.9951">Flake + NixOS + Home Manager + Overlay &#27083;&#25104;&#12398;&#27969;&#12428;</text><g><title>User</title><rect fill="#000000" fill-opacity="0.00000" height="1181.9141" width="8" x="19.9551" y="118.5938"/><line style="stroke:#181818;stroke-width:0.5;stroke-dasharray:5.0,5.0;" x1="23" x2="23" y1="118.5938" y2="1300.5078"/></g><g><title>flake.nix</title><rect fill="#000000" fill-opacity="0.00000" height="1181.9141" width="8" x="227.3198" y="118.5938"/><line style="stroke:#181818;stroke-width:0.5;stroke-dasharray:5.0,5.0;" x1="230.5117" x2="230.5117" y1="118.5938" y2="1300.5078"/></g><g><title>Nixpkgs</title><rect fill="#000000" fill-opacity="0.00000" height="1181.9141" width="8" x="366.1299" y="118.5938"/><line style="stroke:#181818;stroke-width:0.5;stroke-dasharray:5.0,5.0;" x1="369.2188" x2="369.2188" y1="118.5938" y2="1300.5078"/></g><g><title>Overlay</title><rect fill="#000000" fill-opacity="0.00000" height="1181.9141" width="8" x="544.5938" y="118.5938"/><line style="stroke:#181818;stroke-width:0.5;stroke-dasharray:5.0,5.0;" x1="548.3799" x2="548.3799" y1="118.5938" y2="1300.5078"/></g><g><title>NixOS&#35373;&#23450;</title><rect fill="#000000" fill-opacity="0.00000" height="1181.9141" width="8" x="660.4517" y="118.5938"/><line style="stroke:#181818;stroke-width:0.5;stroke-dasharray:5.0,5.0;" x1="663.8077" x2="663.8077" y1="118.5938" y2="1300.5078"/></g><g><title>HomeManager&#35373;&#23450;</title><rect fill="#000000" fill-opacity="0.00000" height="1181.9141" width="8" x="814.4507" y="118.5938"/><line style="stroke:#181818;stroke-width:0.5;stroke-dasharray:5.0,5.0;" x1="818.0958" x2="818.0958" y1="118.5938" y2="1300.5078"/></g><g><title>&#26368;&#32066;&#30340;&#12394;&#12497;&#12483;&#12465;&#12540;&#12472;&#32676;</title><rect fill="#000000" fill-opacity="0.00000" height="1181.9141" width="8" x="973.8053" y="118.5938"/><line style="stroke:#181818;stroke-width:0.5;stroke-dasharray:5.0,5.0;" x1="976.8056" x2="976.8056" y1="118.5938" y2="1300.5078"/></g><g class="participant participant-head" data-participant="User"><text fill="#000000" font-family="sans-serif" font-size="14" lengthAdjust="spacing" textLength="31.9102" x="5" y="115.292">User</text><ellipse cx="23.9551" cy="50.7969" fill="#E2E2F0" rx="8" ry="8" style="stroke:#181818;stroke-width:0.5;"/><path d="M23.9551,58.7969 L23.9551,85.7969 M10.9551,66.7969 L36.9551,66.7969 M23.9551,85.7969 L10.9551,100.7969 M23.9551,85.7969 L36.9551,100.7969" fill="none" style="stroke:#181818;stroke-width:0.5;"/></g><g class="participant participant-tail" data-participant="User"><text fill="#000000" font-family="sans-serif" font-size="14" lengthAdjust="spacing" textLength="31.9102" x="5" y="1312.5029">User</text><ellipse cx="23.9551" cy="1324.3047" fill="#E2E2F0" rx="8" ry="8" style="stroke:#181818;stroke-width:0.5;"/><path d="M23.9551,1332.3047 L23.9551,1359.3047 M10.9551,1340.3047 L36.9551,1340.3047 M23.9551,1359.3047 L10.9551,1374.3047 M23.9551,1359.3047 L36.9551,1374.3047" fill="none" style="stroke:#181818;stroke-width:0.5;"/></g><g class="participant participant-head" data-participant="Flake"><rect fill="#E2E2F0" height="30.2969" rx="2.5" ry="2.5" style="stroke:#181818;stroke-width:0.5;" width="73.6162" x="194.5117" y="87.2969"/><text fill="#000000" font-family="sans-serif" font-size="14" lengthAdjust="spacing" textLength="59.6162" x="201.5117" y="107.292">flake.nix</text></g><g class="participant participant-tail" data-participant="Flake"><rect fill="#E2E2F0" height="30.2969" rx="2.5" ry="2.5" style="stroke:#181818;stroke-width:0.5;" width="73.6162" x="194.5117" y="1299.5078"/><text fill="#000000" font-family="sans-serif" font-size="14" lengthAdjust="spacing" textLength="59.6162" x="201.5117" y="1319.5029">flake.nix</text></g><g class="participant participant-head" data-participant="Pkgs"><rect fill="#E2E2F0" height="46.5938" rx="2.5" ry="2.5" style="stroke:#181818;stroke-width:0.5;" width="69.8223" x="335.2188" y="71"/><text fill="#000000" font-family="sans-serif" font-size="14" lengthAdjust="spacing" textLength="55.8223" x="342.2188" y="90.9951">Nixpkgs</text><text fill="#000000" font-family="sans-serif" font-size="14" lengthAdjust="spacing" textLength="44.0986" x="348.0806" y="107.292">(pkgs)</text></g><g class="participant participant-tail" data-participant="Pkgs"><rect fill="#E2E2F0" height="46.5938" rx="2.5" ry="2.5" style="stroke:#181818;stroke-width:0.5;" width="69.8223" x="335.2188" y="1299.5078"/><text fill="#000000" font-family="sans-serif" font-size="14" lengthAdjust="spacing" textLength="55.8223" x="342.2188" y="1319.5029">Nixpkgs</text><text fill="#000000" font-family="sans-serif" font-size="14" lengthAdjust="spacing" textLength="44.0986" x="348.0806" y="1335.7998">(pkgs)</text></g><g class="participant participant-head" data-participant="Overlay"><rect fill="#E2E2F0" height="30.2969" rx="2.5" ry="2.5" style="stroke:#181818;stroke-width:0.5;" width="68.4277" x="514.3799" y="87.2969"/><text fill="#000000" font-family="sans-serif" font-size="14" lengthAdjust="spacing" textLength="54.4277" x="521.3799" y="107.292">Overlay</text></g><g class="participant participant-tail" data-participant="Overlay"><rect fill="#E2E2F0" height="30.2969" rx="2.5" ry="2.5" style="stroke:#181818;stroke-width:0.5;" width="68.4277" x="514.3799" y="1299.5078"/><text fill="#000000" font-family="sans-serif" font-size="14" lengthAdjust="spacing" textLength="54.4277" x="521.3799" y="1319.5029">Overlay</text></g><g class="participant participant-head" data-participant="NixOSConfig"><rect fill="#E2E2F0" height="46.5938" rx="2.5" ry="2.5" style="stroke:#181818;stroke-width:0.5;" width="143.2881" x="592.8077" y="71"/><text fill="#000000" font-family="sans-serif" font-size="14" lengthAdjust="spacing" textLength="70.5536" x="629.1749" y="90.9951">NixOS&#35373;&#23450;</text><text fill="#000000" font-family="sans-serif" font-size="14" lengthAdjust="spacing" textLength="129.2881" x="599.8077" y="107.292">(configuration.nix)</text></g><g class="participant participant-tail" data-participant="NixOSConfig"><rect fill="#E2E2F0" height="46.5938" rx="2.5" ry="2.5" style="stroke:#181818;stroke-width:0.5;" width="143.2881" x="592.8077" y="1299.5078"/><text fill="#000000" font-family="sans-serif" font-size="14" lengthAdjust="spacing" textLength="70.5536" x="629.1749" y="1319.5029">NixOS&#35373;&#23450;</text><text fill="#000000" font-family="sans-serif" font-size="14" lengthAdjust="spacing" textLength="129.2881" x="599.8077" y="1335.7998">(configuration.nix)</text></g><g class="participant participant-head" data-participant="HMConfig"><rect fill="#E2E2F0" height="46.5938" rx="2.5" ry="2.5" style="stroke:#181818;stroke-width:0.5;" width="144.7098" x="746.0958" y="71"/><text fill="#000000" font-family="sans-serif" font-size="14" lengthAdjust="spacing" textLength="130.7098" x="753.0958" y="90.9951">HomeManager&#35373;&#23450;</text><text fill="#000000" font-family="sans-serif" font-size="14" lengthAdjust="spacing" textLength="76.1113" x="780.395" y="107.292">(home.nix)</text></g><g class="participant participant-tail" data-participant="HMConfig"><rect fill="#E2E2F0" height="46.5938" rx="2.5" ry="2.5" style="stroke:#181818;stroke-width:0.5;" width="144.7098" x="746.0958" y="1299.5078"/><text fill="#000000" font-family="sans-serif" font-size="14" lengthAdjust="spacing" textLength="130.7098" x="753.0958" y="1319.5029">HomeManager&#35373;&#23450;</text><text fill="#000000" font-family="sans-serif" font-size="14" lengthAdjust="spacing" textLength="76.1113" x="780.395" y="1335.7998">(home.nix)</text></g><g class="participant participant-head" data-participant="FinalPkgs"><rect fill="#E2E2F0" height="46.5938" rx="2.5" ry="2.5" style="stroke:#181818;stroke-width:0.5;" width="153.9994" x="900.8056" y="71"/><text fill="#000000" font-family="sans-serif" font-size="14" lengthAdjust="spacing" textLength="139.9994" x="907.8056" y="90.9951">&#26368;&#32066;&#30340;&#12394;&#12497;&#12483;&#12465;&#12540;&#12472;&#32676;</text><text fill="#000000" font-family="sans-serif" font-size="14" lengthAdjust="spacing" textLength="105.5742" x="925.0182" y="107.292">(patched pkgs)</text></g><g class="participant participant-tail" data-participant="FinalPkgs"><rect fill="#E2E2F0" height="46.5938" rx="2.5" ry="2.5" style="stroke:#181818;stroke-width:0.5;" width="153.9994" x="900.8056" y="1299.5078"/><text fill="#000000" font-family="sans-serif" font-size="14" lengthAdjust="spacing" textLength="139.9994" x="907.8056" y="1319.5029">&#26368;&#32066;&#30340;&#12394;&#12497;&#12483;&#12465;&#12540;&#12472;&#32676;</text><text fill="#000000" font-family="sans-serif" font-size="14" lengthAdjust="spacing" textLength="105.5742" x="925.0182" y="1335.7998">(patched pkgs)</text></g><rect fill="#EEEEEE" height="3" style="stroke:#EEEEEE;stroke-width:1;" width="1059.805" x="0" y="149.1602"/><line style="stroke:#000000;stroke-width:1;" x1="0" x2="1059.805" y1="149.1602" y2="149.1602"/><line style="stroke:#000000;stroke-width:1;" x1="0" x2="1059.805" y1="152.1602" y2="152.1602"/><rect fill="#EEEEEE" height="23.1328" style="stroke:#000000;stroke-width:2;" width="236.4156" x="411.6947" y="138.5938"/><text fill="#000000" font-family="sans-serif" font-size="13" font-weight="bold" lengthAdjust="spacing" textLength="217.8897" x="417.6947" y="154.6606">&#26368;&#23567;&#27083;&#25104;: configuration.nix &#12398;&#12415;</text><g class="message" data-participant-1="User" data-participant-2="NixOSConfig"><polygon fill="#181818" points="652.4517,188.8594,662.4517,192.8594,652.4517,196.8594,656.4517,192.8594" style="stroke:#181818;stroke-width:1;"/><line style="stroke:#181818;stroke-width:1;" x1="23.9551" x2="658.4517" y1="192.8594" y2="192.8594"/><text fill="#000000" font-family="sans-serif" font-size="13" lengthAdjust="spacing" textLength="220.6954" x="30.9551" y="187.7935">/etc/nixos/configuration.nix &#12434;&#32232;&#38598;</text></g><g class="message" data-participant-1="NixOSConfig" data-participant-2="Pkgs"><polygon fill="#181818" points="381.1299,217.9922,371.1299,221.9922,381.1299,225.9922,377.1299,221.9922" style="stroke:#181818;stroke-width:1;"/><line style="stroke:#181818;stroke-width:1;" x1="375.1299" x2="663.4517" y1="221.9922" y2="221.9922"/><text fill="#000000" font-family="sans-serif" font-size="13" lengthAdjust="spacing" textLength="220.6636" x="387.1299" y="216.9263">systemPackages &#12395; st/dwm &#12434;&#25351;&#23450;</text></g><g class="message" data-participant-1="Pkgs" data-participant-2="User"><polygon fill="#181818" points="34.9551,247.125,24.9551,251.125,34.9551,255.125,30.9551,251.125" style="stroke:#181818;stroke-width:1;"/><line style="stroke:#181818;stroke-width:1;stroke-dasharray:2.0,2.0;" x1="28.9551" x2="369.1299" y1="251.125" y2="251.125"/><text fill="#000000" font-family="sans-serif" font-size="13" lengthAdjust="spacing" textLength="208.0002" x="40.9551" y="246.0591">&#36890;&#24120;&#12398;&#12497;&#12483;&#12465;&#12540;&#12472;&#12364;&#36969;&#29992;&#12373;&#12428;&#12383;&#29872;&#22659;</text></g><rect fill="#EEEEEE" height="3" style="stroke:#EEEEEE;stroke-width:1;" width="1059.805" x="0" y="279.6914"/><line style="stroke:#000000;stroke-width:1;" x1="0" x2="1059.805" y1="279.6914" y2="279.6914"/><line style="stroke:#000000;stroke-width:1;" x1="0" x2="1059.805" y1="282.6914" y2="282.6914"/><rect fill="#EEEEEE" height="23.1328" style="stroke:#000000;stroke-width:2;" width="122.1768" x="468.8141" y="269.125"/><text fill="#000000" font-family="sans-serif" font-size="13" font-weight="bold" lengthAdjust="spacing" textLength="103.6509" x="474.8141" y="285.1919">Flake + NixOS</text><g class="message" data-participant-1="User" data-participant-2="Flake"><polygon fill="#181818" points="219.3198,319.3906,229.3198,323.3906,219.3198,327.3906,223.3198,323.3906" style="stroke:#181818;stroke-width:1;"/><line style="stroke:#181818;stroke-width:1;" x1="23.9551" x2="225.3198" y1="323.3906" y2="323.3906"/><text fill="#000000" font-family="sans-serif" font-size="13" lengthAdjust="spacing" textLength="183.3647" x="30.9551" y="318.3247">nixos-rebuild switch --flake .</text></g><g class="message" data-participant-1="Flake" data-participant-2="Pkgs"><polygon fill="#181818" points="358.1299,348.5234,368.1299,352.5234,358.1299,356.5234,362.1299,352.5234" style="stroke:#181818;stroke-width:1;"/><line style="stroke:#181818;stroke-width:1;" x1="231.3198" x2="364.1299" y1="352.5234" y2="352.5234"/><text fill="#000000" font-family="sans-serif" font-size="13" lengthAdjust="spacing" textLength="114.8101" x="238.3198" y="347.4575">nixpkgs.url &#12434;&#21462;&#24471;</text></g><g class="message" data-participant-1="Flake" data-participant-2="NixOSConfig"><polygon fill="#181818" points="652.4517,377.6563,662.4517,381.6563,652.4517,385.6563,656.4517,381.6563" style="stroke:#181818;stroke-width:1;"/><line style="stroke:#181818;stroke-width:1;" x1="231.3198" x2="658.4517" y1="381.6563" y2="381.6563"/><text fill="#000000" font-family="sans-serif" font-size="13" lengthAdjust="spacing" textLength="286.5649" x="238.3198" y="376.5903">systems."x86_64-linux".nixosConfigurations</text></g><g class="message" data-participant-1="NixOSConfig" data-participant-2="Pkgs"><polygon fill="#181818" points="381.1299,406.7891,371.1299,410.7891,381.1299,414.7891,377.1299,410.7891" style="stroke:#181818;stroke-width:1;"/><line style="stroke:#181818;stroke-width:1;" x1="375.1299" x2="663.4517" y1="410.7891" y2="410.7891"/><text fill="#000000" font-family="sans-serif" font-size="13" lengthAdjust="spacing" textLength="151.6011" x="387.1299" y="405.7231">systemPackages &#12395;&#25351;&#23450;</text></g><g class="message" data-participant-1="Pkgs" data-participant-2="User"><polygon fill="#181818" points="34.9551,435.9219,24.9551,439.9219,34.9551,443.9219,30.9551,439.9219" style="stroke:#181818;stroke-width:1;"/><line style="stroke:#181818;stroke-width:1;stroke-dasharray:2.0,2.0;" x1="28.9551" x2="369.1299" y1="439.9219" y2="439.9219"/><text fill="#000000" font-family="sans-serif" font-size="13" lengthAdjust="spacing" textLength="164.5822" x="40.9551" y="434.856">Flake&#32076;&#30001;&#12391;&#27083;&#25104;&#12373;&#12428;&#12383;&#29872;&#22659;</text></g><rect fill="#EEEEEE" height="3" style="stroke:#EEEEEE;stroke-width:1;" width="1059.805" x="0" y="468.4883"/><line style="stroke:#000000;stroke-width:1;" x1="0" x2="1059.805" y1="468.4883" y2="468.4883"/><line style="stroke:#000000;stroke-width:1;" x1="0" x2="1059.805" y1="471.4883" y2="471.4883"/><rect fill="#EEEEEE" height="23.1328" style="stroke:#000000;stroke-width:2;" width="334.5947" x="362.6051" y="457.9219"/><text fill="#000000" font-family="sans-serif" font-size="13" font-weight="bold" lengthAdjust="spacing" textLength="316.0688" x="368.6051" y="473.9888">Flake + Home Manager + configuration.nix</text><g class="message" data-participant-1="User" data-participant-2="Flake"><polygon fill="#181818" points="219.3198,508.1875,229.3198,512.1875,219.3198,516.1875,223.3198,512.1875" style="stroke:#181818;stroke-width:1;"/><line style="stroke:#181818;stroke-width:1;" x1="23.9551" x2="225.3198" y1="512.1875" y2="512.1875"/><text fill="#000000" font-family="sans-serif" font-size="13" lengthAdjust="spacing" textLength="183.3647" x="30.9551" y="507.1216">nixos-rebuild switch --flake .</text></g><g class="message" data-participant-1="Flake" data-participant-2="NixOSConfig"><polygon fill="#181818" points="652.4517,537.3203,662.4517,541.3203,652.4517,545.3203,656.4517,541.3203" style="stroke:#181818;stroke-width:1;"/><line style="stroke:#181818;stroke-width:1;" x1="231.3198" x2="658.4517" y1="541.3203" y2="541.3203"/><text fill="#000000" font-family="sans-serif" font-size="13" lengthAdjust="spacing" textLength="78.0001" x="238.3198" y="536.2544">&#12471;&#12473;&#12486;&#12512;&#27083;&#25104;</text></g><g class="message" data-participant-1="Flake" data-participant-2="HMConfig"><polygon fill="#181818" points="806.4507,566.4531,816.4507,570.4531,806.4507,574.4531,810.4507,570.4531" style="stroke:#181818;stroke-width:1;"/><line style="stroke:#181818;stroke-width:1;" x1="231.3198" x2="812.4507" y1="570.4531" y2="570.4531"/><text fill="#000000" font-family="sans-serif" font-size="13" lengthAdjust="spacing" textLength="65.0001" x="238.3198" y="565.3872">&#12518;&#12540;&#12470;&#35373;&#23450;</text></g><g class="message" data-participant-1="NixOSConfig" data-participant-2="Pkgs"><polygon fill="#181818" points="381.1299,595.5859,371.1299,599.5859,381.1299,603.5859,377.1299,599.5859" style="stroke:#181818;stroke-width:1;"/><line style="stroke:#181818;stroke-width:1;" x1="375.1299" x2="663.4517" y1="599.5859" y2="599.5859"/><text fill="#000000" font-family="sans-serif" font-size="13" lengthAdjust="spacing" textLength="151.6011" x="387.1299" y="594.52">systemPackages &#12395;&#25351;&#23450;</text></g><g class="message" data-participant-1="HMConfig" data-participant-2="Pkgs"><polygon fill="#181818" points="381.1299,624.7188,371.1299,628.7188,381.1299,632.7188,377.1299,628.7188" style="stroke:#181818;stroke-width:1;"/><line style="stroke:#181818;stroke-width:1;" x1="375.1299" x2="817.4507" y1="628.7188" y2="628.7188"/><text fill="#000000" font-family="sans-serif" font-size="13" lengthAdjust="spacing" textLength="146.0025" x="387.1299" y="623.6528">home.packages &#12395;&#25351;&#23450;</text></g><g class="message" data-participant-1="Pkgs" data-participant-2="User"><polygon fill="#181818" points="34.9551,653.8516,24.9551,657.8516,34.9551,661.8516,30.9551,657.8516" style="stroke:#181818;stroke-width:1;"/><line style="stroke:#181818;stroke-width:1;stroke-dasharray:2.0,2.0;" x1="28.9551" x2="369.1299" y1="657.8516" y2="657.8516"/><text fill="#000000" font-family="sans-serif" font-size="13" lengthAdjust="spacing" textLength="195.0002" x="40.9551" y="652.7856">&#12471;&#12473;&#12486;&#12512;&#65291;&#12518;&#12540;&#12470;&#20001;&#26041;&#12398;&#29872;&#22659;&#27083;&#25104;</text></g><rect fill="#EEEEEE" height="3" style="stroke:#EEEEEE;stroke-width:1;" width="1059.805" x="0" y="686.418"/><line style="stroke:#000000;stroke-width:1;" x1="0" x2="1059.805" y1="686.418" y2="686.418"/><line style="stroke:#000000;stroke-width:1;" x1="0" x2="1059.805" y1="689.418" y2="689.418"/><rect fill="#EEEEEE" height="23.1328" style="stroke:#000000;stroke-width:2;" width="280.0811" x="389.862" y="675.8516"/><text fill="#000000" font-family="sans-serif" font-size="13" font-weight="bold" lengthAdjust="spacing" textLength="261.5552" x="395.862" y="691.9185">Flake + Overlay + configuration.nix</text><g class="message" data-participant-1="User" data-participant-2="Flake"><polygon fill="#181818" points="219.3198,726.1172,229.3198,730.1172,219.3198,734.1172,223.3198,730.1172" style="stroke:#181818;stroke-width:1;"/><line style="stroke:#181818;stroke-width:1;" x1="23.9551" x2="225.3198" y1="730.1172" y2="730.1172"/><text fill="#000000" font-family="sans-serif" font-size="13" lengthAdjust="spacing" textLength="183.3647" x="30.9551" y="725.0513">nixos-rebuild switch --flake .</text></g><g class="message" data-participant-1="Flake" data-participant-2="Overlay"><polygon fill="#181818" points="536.5938,755.25,546.5938,759.25,536.5938,763.25,540.5938,759.25" style="stroke:#181818;stroke-width:1;"/><line style="stroke:#181818;stroke-width:1;" x1="231.3198" x2="542.5938" y1="759.25" y2="759.25"/><text fill="#000000" font-family="sans-serif" font-size="13" lengthAdjust="spacing" textLength="197.9834" x="238.3198" y="754.1841">overlays = [ sucklessOverlay ]</text></g><g class="message" data-participant-1="Overlay" data-participant-2="Pkgs"><polygon fill="#181818" points="381.1299,784.3828,371.1299,788.3828,381.1299,792.3828,377.1299,788.3828" style="stroke:#181818;stroke-width:1;"/><line style="stroke:#181818;stroke-width:1;" x1="375.1299" x2="547.5938" y1="788.3828" y2="788.3828"/><text fill="#000000" font-family="sans-serif" font-size="13" lengthAdjust="spacing" textLength="154.4639" x="387.1299" y="783.3169">st/dwm &#12434; overrideAttrs</text></g><g class="message" data-participant-1="Flake" data-participant-2="NixOSConfig"><polygon fill="#181818" points="652.4517,813.5156,662.4517,817.5156,652.4517,821.5156,656.4517,817.5156" style="stroke:#181818;stroke-width:1;"/><line style="stroke:#181818;stroke-width:1;" x1="231.3198" x2="658.4517" y1="817.5156" y2="817.5156"/><text fill="#000000" font-family="sans-serif" font-size="13" lengthAdjust="spacing" textLength="290.818" x="238.3198" y="812.4497">systemPackages &#12395; patched &#12497;&#12483;&#12465;&#12540;&#12472;&#12434;&#20351;&#29992;</text></g><g class="message" data-participant-1="Pkgs" data-participant-2="User"><polygon fill="#181818" points="34.9551,842.6484,24.9551,846.6484,34.9551,850.6484,30.9551,846.6484" style="stroke:#181818;stroke-width:1;"/><line style="stroke:#181818;stroke-width:1;stroke-dasharray:2.0,2.0;" x1="28.9551" x2="369.1299" y1="846.6484" y2="846.6484"/><text fill="#000000" font-family="sans-serif" font-size="13" lengthAdjust="spacing" textLength="143.0002" x="40.9551" y="841.5825">&#12497;&#12483;&#12481;&#36969;&#29992;&#28168;&#12415;&#12471;&#12473;&#12486;&#12512;</text></g><rect fill="#EEEEEE" height="3" style="stroke:#EEEEEE;stroke-width:1;" width="1059.805" x="0" y="875.2148"/><line style="stroke:#000000;stroke-width:1;" x1="0" x2="1059.805" y1="875.2148" y2="875.2148"/><line style="stroke:#000000;stroke-width:1;" x1="0" x2="1059.805" y1="878.2148" y2="878.2148"/><rect fill="#EEEEEE" height="23.1328" style="stroke:#000000;stroke-width:2;" width="292.9415" x="383.4318" y="864.6484"/><text fill="#000000" font-family="sans-serif" font-size="13" font-weight="bold" lengthAdjust="spacing" textLength="278.9415" x="389.4318" y="880.7153">Home Manager + Overlay&#65288;Flake&#28961;&#12375;&#65289;</text><g class="message" data-participant-1="User" data-participant-2="HMConfig"><polygon fill="#181818" points="806.4507,914.9141,816.4507,918.9141,806.4507,922.9141,810.4507,918.9141" style="stroke:#181818;stroke-width:1;"/><line style="stroke:#181818;stroke-width:1;" x1="23.9551" x2="812.4507" y1="918.9141" y2="918.9141"/><text fill="#000000" font-family="sans-serif" font-size="13" lengthAdjust="spacing" textLength="211.066" x="30.9551" y="913.8481">/.config/nixpkgs/home.nix &#12434;&#32232;&#38598;</text></g><g class="message" data-participant-1="HMConfig" data-participant-2="Overlay"><polygon fill="#181818" points="559.5938,944.0469,549.5938,948.0469,559.5938,952.0469,555.5938,948.0469" style="stroke:#181818;stroke-width:1;"/><line style="stroke:#181818;stroke-width:1;" x1="553.5938" x2="817.4507" y1="948.0469" y2="948.0469"/><text fill="#000000" font-family="sans-serif" font-size="13" lengthAdjust="spacing" textLength="104.0001" x="565.5938" y="942.981">&#12458;&#12540;&#12496;&#12540;&#12524;&#12452;&#25351;&#23450;</text></g><g class="message" data-participant-1="Overlay" data-participant-2="Pkgs"><polygon fill="#181818" points="381.1299,973.1797,371.1299,977.1797,381.1299,981.1797,377.1299,977.1797" style="stroke:#181818;stroke-width:1;"/><line style="stroke:#181818;stroke-width:1;" x1="375.1299" x2="547.5938" y1="977.1797" y2="977.1797"/><text fill="#000000" font-family="sans-serif" font-size="13" lengthAdjust="spacing" textLength="135.0147" x="387.1299" y="972.1138">patched st/dwm &#21462;&#24471;</text></g><g class="message" data-participant-1="Pkgs" data-participant-2="User"><polygon fill="#181818" points="34.9551,1002.3125,24.9551,1006.3125,34.9551,1010.3125,30.9551,1006.3125" style="stroke:#181818;stroke-width:1;"/><line style="stroke:#181818;stroke-width:1;stroke-dasharray:2.0,2.0;" x1="28.9551" x2="369.1299" y1="1006.3125" y2="1006.3125"/><text fill="#000000" font-family="sans-serif" font-size="13" lengthAdjust="spacing" textLength="275.609" x="40.9551" y="1001.2466">&#12518;&#12540;&#12470;&#29872;&#22659;&#12395;&#21453;&#26144;&#65288;home-manager switch&#65289;</text></g><rect fill="#EEEEEE" height="3" style="stroke:#EEEEEE;stroke-width:1;" width="1059.805" x="0" y="1034.8789"/><line style="stroke:#000000;stroke-width:1;" x1="0" x2="1059.805" y1="1034.8789" y2="1034.8789"/><line style="stroke:#000000;stroke-width:1;" x1="0" x2="1059.805" y1="1037.8789" y2="1037.8789"/><rect fill="#EEEEEE" height="23.1328" style="stroke:#000000;stroke-width:2;" width="327.1363" x="366.3344" y="1024.3125"/><text fill="#000000" font-family="sans-serif" font-size="13" font-weight="bold" lengthAdjust="spacing" textLength="308.6104" x="372.3344" y="1040.3794">&#12501;&#12523;&#27083;&#25104;: Flake + Home Manager + Overlay</text><g class="message" data-participant-1="User" data-participant-2="Flake"><polygon fill="#181818" points="219.3198,1074.5781,229.3198,1078.5781,219.3198,1082.5781,223.3198,1078.5781" style="stroke:#181818;stroke-width:1;"/><line style="stroke:#181818;stroke-width:1;" x1="23.9551" x2="225.3198" y1="1078.5781" y2="1078.5781"/><text fill="#000000" font-family="sans-serif" font-size="13" lengthAdjust="spacing" textLength="183.3647" x="30.9551" y="1073.5122">nixos-rebuild switch --flake .</text></g><g class="message" data-participant-1="Flake" data-participant-2="Overlay"><polygon fill="#181818" points="536.5938,1103.7109,546.5938,1107.7109,536.5938,1111.7109,540.5938,1107.7109" style="stroke:#181818;stroke-width:1;"/><line style="stroke:#181818;stroke-width:1;" x1="231.3198" x2="542.5938" y1="1107.7109" y2="1107.7109"/><text fill="#000000" font-family="sans-serif" font-size="13" lengthAdjust="spacing" textLength="161.5162" x="238.3198" y="1102.645">sucklessOverlay &#35501;&#12415;&#36796;&#12415;</text></g><g class="message" data-participant-1="Overlay" data-participant-2="Pkgs"><polygon fill="#181818" points="381.1299,1132.8438,371.1299,1136.8438,381.1299,1140.8438,377.1299,1136.8438" style="stroke:#181818;stroke-width:1;"/><line style="stroke:#181818;stroke-width:1;" x1="375.1299" x2="547.5938" y1="1136.8438" y2="1136.8438"/><text fill="#000000" font-family="sans-serif" font-size="13" lengthAdjust="spacing" textLength="148.0147" x="387.1299" y="1131.7778">patched st/dwm &#12434;&#25552;&#20379;</text></g><g class="message" data-participant-1="Flake" data-participant-2="NixOSConfig"><polygon fill="#181818" points="652.4517,1161.9766,662.4517,1165.9766,652.4517,1169.9766,656.4517,1165.9766" style="stroke:#181818;stroke-width:1;"/><line style="stroke:#181818;stroke-width:1;" x1="231.3198" x2="658.4517" y1="1165.9766" y2="1165.9766"/><text fill="#000000" font-family="sans-serif" font-size="13" lengthAdjust="spacing" textLength="78.0001" x="238.3198" y="1160.9106">&#12471;&#12473;&#12486;&#12512;&#27083;&#25104;</text></g><g class="message" data-participant-1="Flake" data-participant-2="HMConfig"><polygon fill="#181818" points="806.4507,1191.1094,816.4507,1195.1094,806.4507,1199.1094,810.4507,1195.1094" style="stroke:#181818;stroke-width:1;"/><line style="stroke:#181818;stroke-width:1;" x1="231.3198" x2="812.4507" y1="1195.1094" y2="1195.1094"/><text fill="#000000" font-family="sans-serif" font-size="13" lengthAdjust="spacing" textLength="65.0001" x="238.3198" y="1190.0435">&#12518;&#12540;&#12470;&#27083;&#25104;</text></g><g class="message" data-participant-1="NixOSConfig" data-participant-2="Pkgs"><polygon fill="#181818" points="381.1299,1220.2422,371.1299,1224.2422,381.1299,1228.2422,377.1299,1224.2422" style="stroke:#181818;stroke-width:1;"/><line style="stroke:#181818;stroke-width:1;" x1="375.1299" x2="663.4517" y1="1224.2422" y2="1224.2422"/><text fill="#000000" font-family="sans-serif" font-size="13" lengthAdjust="spacing" textLength="112.087" x="387.1299" y="1219.1763">patched st &#12434;&#25351;&#23450;</text></g><g class="message" data-participant-1="HMConfig" data-participant-2="Pkgs"><polygon fill="#181818" points="381.1299,1249.375,371.1299,1253.375,381.1299,1257.375,377.1299,1253.375" style="stroke:#181818;stroke-width:1;"/><line style="stroke:#181818;stroke-width:1;" x1="375.1299" x2="817.4507" y1="1253.375" y2="1253.375"/><text fill="#000000" font-family="sans-serif" font-size="13" lengthAdjust="spacing" textLength="112.087" x="387.1299" y="1248.3091">patched st &#12434;&#25351;&#23450;</text></g><g class="message" data-participant-1="Pkgs" data-participant-2="User"><polygon fill="#181818" points="34.9551,1278.5078,24.9551,1282.5078,34.9551,1286.5078,30.9551,1282.5078" style="stroke:#181818;stroke-width:1;"/><line style="stroke:#181818;stroke-width:1;stroke-dasharray:2.0,2.0;" x1="28.9551" x2="369.1299" y1="1282.5078" y2="1282.5078"/><text fill="#000000" font-family="sans-serif" font-size="13" lengthAdjust="spacing" textLength="156.0002" x="40.9551" y="1277.4419">&#12501;&#12523;&#27083;&#25104;&#12398;&#26368;&#32066;&#29872;&#22659;&#12364;&#21453;&#26144;</text></g><!--SRC=[hLPTIzjG6BxFhpZqQcEqkHao2XqCGRnn2hAhROmiZHgQfYKddVLcc4HSXnrruiVGmUQGwNIANZWhTFN779FebNzXxpadQH9Jzy6yIKvxtg_dUP_tRKtLr1Gqf4ab1Tr3ZzNww3YyXojb1Or8kZIf6F1nz9LYQD8CyhONlCOYiGwyOulOJK6GPBDYe2TOCOIgP9Ygh5ObtKIP2Helfwlr398mZvuqW4JLqYH-fj-XhxlCR0nEIQiWBxiDpgame-CNE_lkmJg4aYlwX3fPCoHJhUWqEu_BZ0RPNTAReWn0zc9CmNUHw_18Fp_luwn_RFlhSyJQ9SvxuZZ4FY9EXzXjlxj5CKccFAKKKOHjIDKbZG4K2WK40Tp35cSpZr9b8s2OM6UeK10ejIZxC8u1vP6ecB88XXKizd6sb_oJdSkDUI7k135eUd36CzXKocEIN0BW67Bj8MoAnUaozVIQRu07WPbcmOVbpwFBsNMttQPb9U4IgtbfVVENTuYr0e8WrYT_wT3zuZ2KIL75mF2BF688ieRoigPgHOIdLM0DiZBne9p0pQB2TQwPNCtGQAbkQzNjhaLMIOeuIfpBr1yCl1YudzLKlLRFv5ZAmJXd-Azfke4RLe1_tFINZuYr7Ox8pNHScwrq0_-3gIG7n3uXzYbnvedpcTSLMORAfcRELzRD7tm8_fMFNgJ8bWrHzS_KnGkywYpq2ZblRtghfo0tJbzGUvp4S2FTCdzXs3ogy1D61VGKuPfSqXICm-ldGdYAyTER8UPhg4NbaMaQ-FS2JOnXk3Qk3vczTFxp38OipHytT2m-X5wx0MiZJYhZhFyol-eqk7BdDecrTjLv6wCj9exNOeupB0RZ9uORChPeuXA8A2JsBWNWBBBdTs9l1J98anSY3qWCHZiDDz07bmLGvhRUUHz0EWrQLBOSOEJz1KWCFd5MYBCNBjiRfZ0iwLQqSrqk5xlxq9UBRWUUVmPFjt1hyRoxSLjZ7TZq7-ieUMpzzndfldRf1aLKqty9_7SoQ5QJD-iN]--></g></svg>