<svg xmlns="http://www.w3.org/2000/svg" xmlns:xlink="http://www.w3.org/1999/xlink" contentStyleType="text/css" data-diagram-type="SEQUENCE" height="802px" preserveAspectRatio="none" style="width:1225px;height:802px;background:#FFFFFF;" version="1.1" viewBox="0 0 1225 802" width="1225px" zoomAndPan="magnify"><title>Windows&#12363;&#12425;Linux&#12408;&#12398;&#31227;&#34892;&#35336;&#30011;&#65288;2025&#24180;&#65289;</title><defs/><g><text fill="#000000" font-family="sans-serif" font-size="14" font-weight="bold" lengthAdjust="spacing" textLength="306.762" x="455.1415" y="27.9951">Windows&#12363;&#12425;Linux&#12408;&#12398;&#31227;&#34892;&#35336;&#30011;&#65288;2025&#24180;&#65289;</text><g><title>User</title><rect fill="#000000" fill-opacity="0.00000" height="602.6563" width="8" x="19.9551" y="118.5938"/><line style="stroke:#181818;stroke-width:0.5;stroke-dasharray:5.0,5.0;" x1="23" x2="23" y1="118.5938" y2="721.25"/></g><g><title>2025_01</title><rect fill="#000000" fill-opacity="0.00000" height="602.6563" width="8" x="186.9552" y="118.5938"/><line style="stroke:#181818;stroke-width:0.5;stroke-dasharray:5.0,5.0;" x1="190.7336" x2="190.7336" y1="118.5938" y2="721.25"/></g><g><title>2025_02</title><rect fill="#000000" fill-opacity="0.00000" height="602.6563" width="8" x="271.3986" y="118.5938"/><line style="stroke:#181818;stroke-width:0.5;stroke-dasharray:5.0,5.0;" x1="275.1769" x2="275.1769" y1="118.5938" y2="721.25"/></g><g><title>2025_03</title><rect fill="#000000" fill-opacity="0.00000" height="602.6563" width="8" x="355.842" y="118.5938"/><line style="stroke:#181818;stroke-width:0.5;stroke-dasharray:5.0,5.0;" x1="359.6203" x2="359.6203" y1="118.5938" y2="721.25"/></g><g><title>2025_04</title><rect fill="#000000" fill-opacity="0.00000" height="602.6563" width="8" x="440.2853" y="118.5938"/><line style="stroke:#181818;stroke-width:0.5;stroke-dasharray:5.0,5.0;" x1="444.0636" x2="444.0636" y1="118.5938" y2="721.25"/></g><g><title>2025_05</title><rect fill="#000000" fill-opacity="0.00000" height="602.6563" width="8" x="524.7287" y="118.5938"/><line style="stroke:#181818;stroke-width:0.5;stroke-dasharray:5.0,5.0;" x1="528.507" x2="528.507" y1="118.5938" y2="721.25"/></g><g><title>2025_06</title><rect fill="#000000" fill-opacity="0.00000" height="602.6563" width="8" x="665.1633" y="118.5938"/><line style="stroke:#181818;stroke-width:0.5;stroke-dasharray:5.0,5.0;" x1="668.9416" x2="668.9416" y1="118.5938" y2="721.25"/></g><g><title>2025_07</title><rect fill="#000000" fill-opacity="0.00000" height="602.6563" width="8" x="749.6066" y="118.5938"/><line style="stroke:#181818;stroke-width:0.5;stroke-dasharray:5.0,5.0;" x1="753.3849" x2="753.3849" y1="118.5938" y2="721.25"/></g><g><title>2025_08</title><rect fill="#000000" fill-opacity="0.00000" height="602.6563" width="8" x="834.05" y="118.5938"/><line style="stroke:#181818;stroke-width:0.5;stroke-dasharray:5.0,5.0;" x1="837.8283" x2="837.8283" y1="118.5938" y2="721.25"/></g><g><title>2025_09</title><rect fill="#000000" fill-opacity="0.00000" height="602.6563" width="8" x="918.4933" y="118.5938"/><line style="stroke:#181818;stroke-width:0.5;stroke-dasharray:5.0,5.0;" x1="922.2717" x2="922.2717" y1="118.5938" y2="721.25"/></g><g><title>2025_10</title><rect fill="#000000" fill-opacity="0.00000" height="602.6563" width="8" x="1002.9367" y="118.5938"/><line style="stroke:#181818;stroke-width:0.5;stroke-dasharray:5.0,5.0;" x1="1006.715" x2="1006.715" y1="118.5938" y2="721.25"/></g><g><title>2025_11</title><rect fill="#000000" fill-opacity="0.00000" height="602.6563" width="8" x="1087.3801" y="118.5938"/><line style="stroke:#181818;stroke-width:0.5;stroke-dasharray:5.0,5.0;" x1="1091.1584" x2="1091.1584" y1="118.5938" y2="721.25"/></g><g><title>2025_12</title><rect fill="#000000" fill-opacity="0.00000" height="602.6563" width="8" x="1171.8234" y="118.5938"/><line style="stroke:#181818;stroke-width:0.5;stroke-dasharray:5.0,5.0;" x1="1175.6017" x2="1175.6017" y1="118.5938" y2="721.25"/></g><g class="participant participant-head" data-participant="User"><text fill="#000000" font-family="sans-serif" font-size="14" lengthAdjust="spacing" textLength="31.9102" x="5" y="115.292">User</text><ellipse cx="23.9551" cy="50.7969" fill="#E2E2F0" rx="8" ry="8" style="stroke:#181818;stroke-width:0.5;"/><path d="M23.9551,58.7969 L23.9551,85.7969 M10.9551,66.7969 L36.9551,66.7969 M23.9551,85.7969 L10.9551,100.7969 M23.9551,85.7969 L36.9551,100.7969" fill="none" style="stroke:#181818;stroke-width:0.5;"/></g><g class="participant participant-tail" data-participant="User"><text fill="#000000" font-family="sans-serif" font-size="14" lengthAdjust="spacing" textLength="31.9102" x="5" y="733.2451">User</text><ellipse cx="23.9551" cy="745.0469" fill="#E2E2F0" rx="8" ry="8" style="stroke:#181818;stroke-width:0.5;"/><path d="M23.9551,753.0469 L23.9551,780.0469 M10.9551,761.0469 L36.9551,761.0469 M23.9551,780.0469 L10.9551,795.0469 M23.9551,780.0469 L36.9551,795.0469" fill="none" style="stroke:#181818;stroke-width:0.5;"/></g><g class="participant participant-head" data-participant="Jan"><rect fill="#E2E2F0" height="30.2969" rx="2.5" ry="2.5" style="stroke:#181818;stroke-width:0.5;" width="74.4434" x="153.7336" y="87.2969"/><text fill="#000000" font-family="sans-serif" font-size="14" lengthAdjust="spacing" textLength="60.4434" x="160.7336" y="107.292">2025_01</text></g><g class="participant participant-tail" data-participant="Jan"><rect fill="#E2E2F0" height="30.2969" rx="2.5" ry="2.5" style="stroke:#181818;stroke-width:0.5;" width="74.4434" x="153.7336" y="720.25"/><text fill="#000000" font-family="sans-serif" font-size="14" lengthAdjust="spacing" textLength="60.4434" x="160.7336" y="740.2451">2025_01</text></g><g class="participant participant-head" data-participant="Feb"><rect fill="#E2E2F0" height="30.2969" rx="2.5" ry="2.5" style="stroke:#181818;stroke-width:0.5;" width="74.4434" x="238.1769" y="87.2969"/><text fill="#000000" font-family="sans-serif" font-size="14" lengthAdjust="spacing" textLength="60.4434" x="245.1769" y="107.292">2025_02</text></g><g class="participant participant-tail" data-participant="Feb"><rect fill="#E2E2F0" height="30.2969" rx="2.5" ry="2.5" style="stroke:#181818;stroke-width:0.5;" width="74.4434" x="238.1769" y="720.25"/><text fill="#000000" font-family="sans-serif" font-size="14" lengthAdjust="spacing" textLength="60.4434" x="245.1769" y="740.2451">2025_02</text></g><g class="participant participant-head" data-participant="Mar"><rect fill="#E2E2F0" height="30.2969" rx="2.5" ry="2.5" style="stroke:#181818;stroke-width:0.5;" width="74.4434" x="322.6203" y="87.2969"/><text fill="#000000" font-family="sans-serif" font-size="14" lengthAdjust="spacing" textLength="60.4434" x="329.6203" y="107.292">2025_03</text></g><g class="participant participant-tail" data-participant="Mar"><rect fill="#E2E2F0" height="30.2969" rx="2.5" ry="2.5" style="stroke:#181818;stroke-width:0.5;" width="74.4434" x="322.6203" y="720.25"/><text fill="#000000" font-family="sans-serif" font-size="14" lengthAdjust="spacing" textLength="60.4434" x="329.6203" y="740.2451">2025_03</text></g><g class="participant participant-head" data-participant="Apr"><rect fill="#E2E2F0" height="30.2969" rx="2.5" ry="2.5" style="stroke:#181818;stroke-width:0.5;" width="74.4434" x="407.0636" y="87.2969"/><text fill="#000000" font-family="sans-serif" font-size="14" lengthAdjust="spacing" textLength="60.4434" x="414.0636" y="107.292">2025_04</text></g><g class="participant participant-tail" data-participant="Apr"><rect fill="#E2E2F0" height="30.2969" rx="2.5" ry="2.5" style="stroke:#181818;stroke-width:0.5;" width="74.4434" x="407.0636" y="720.25"/><text fill="#000000" font-family="sans-serif" font-size="14" lengthAdjust="spacing" textLength="60.4434" x="414.0636" y="740.2451">2025_04</text></g><g class="participant participant-head" data-participant="May"><rect fill="#E2E2F0" height="30.2969" rx="2.5" ry="2.5" style="stroke:#181818;stroke-width:0.5;" width="74.4434" x="491.507" y="87.2969"/><text fill="#000000" font-family="sans-serif" font-size="14" lengthAdjust="spacing" textLength="60.4434" x="498.507" y="107.292">2025_05</text></g><g class="participant participant-tail" data-participant="May"><rect fill="#E2E2F0" height="30.2969" rx="2.5" ry="2.5" style="stroke:#181818;stroke-width:0.5;" width="74.4434" x="491.507" y="720.25"/><text fill="#000000" font-family="sans-serif" font-size="14" lengthAdjust="spacing" textLength="60.4434" x="498.507" y="740.2451">2025_05</text></g><g class="participant participant-head" data-participant="Jun"><rect fill="#E2E2F0" height="30.2969" rx="2.5" ry="2.5" style="stroke:#181818;stroke-width:0.5;" width="74.4434" x="631.9416" y="87.2969"/><text fill="#000000" font-family="sans-serif" font-size="14" lengthAdjust="spacing" textLength="60.4434" x="638.9416" y="107.292">2025_06</text></g><g class="participant participant-tail" data-participant="Jun"><rect fill="#E2E2F0" height="30.2969" rx="2.5" ry="2.5" style="stroke:#181818;stroke-width:0.5;" width="74.4434" x="631.9416" y="720.25"/><text fill="#000000" font-family="sans-serif" font-size="14" lengthAdjust="spacing" textLength="60.4434" x="638.9416" y="740.2451">2025_06</text></g><g class="participant participant-head" data-participant="Jul"><rect fill="#E2E2F0" height="30.2969" rx="2.5" ry="2.5" style="stroke:#181818;stroke-width:0.5;" width="74.4434" x="716.3849" y="87.2969"/><text fill="#000000" font-family="sans-serif" font-size="14" lengthAdjust="spacing" textLength="60.4434" x="723.3849" y="107.292">2025_07</text></g><g class="participant participant-tail" data-participant="Jul"><rect fill="#E2E2F0" height="30.2969" rx="2.5" ry="2.5" style="stroke:#181818;stroke-width:0.5;" width="74.4434" x="716.3849" y="720.25"/><text fill="#000000" font-family="sans-serif" font-size="14" lengthAdjust="spacing" textLength="60.4434" x="723.3849" y="740.2451">2025_07</text></g><g class="participant participant-head" data-participant="Aug"><rect fill="#E2E2F0" height="30.2969" rx="2.5" ry="2.5" style="stroke:#181818;stroke-width:0.5;" width="74.4434" x="800.8283" y="87.2969"/><text fill="#000000" font-family="sans-serif" font-size="14" lengthAdjust="spacing" textLength="60.4434" x="807.8283" y="107.292">2025_08</text></g><g class="participant participant-tail" data-participant="Aug"><rect fill="#E2E2F0" height="30.2969" rx="2.5" ry="2.5" style="stroke:#181818;stroke-width:0.5;" width="74.4434" x="800.8283" y="720.25"/><text fill="#000000" font-family="sans-serif" font-size="14" lengthAdjust="spacing" textLength="60.4434" x="807.8283" y="740.2451">2025_08</text></g><g class="participant participant-head" data-participant="Sep"><rect fill="#E2E2F0" height="30.2969" rx="2.5" ry="2.5" style="stroke:#181818;stroke-width:0.5;" width="74.4434" x="885.2717" y="87.2969"/><text fill="#000000" font-family="sans-serif" font-size="14" lengthAdjust="spacing" textLength="60.4434" x="892.2717" y="107.292">2025_09</text></g><g class="participant participant-tail" data-participant="Sep"><rect fill="#E2E2F0" height="30.2969" rx="2.5" ry="2.5" style="stroke:#181818;stroke-width:0.5;" width="74.4434" x="885.2717" y="720.25"/><text fill="#000000" font-family="sans-serif" font-size="14" lengthAdjust="spacing" textLength="60.4434" x="892.2717" y="740.2451">2025_09</text></g><g class="participant participant-head" data-participant="Oct"><rect fill="#E2E2F0" height="30.2969" rx="2.5" ry="2.5" style="stroke:#181818;stroke-width:0.5;" width="74.4434" x="969.715" y="87.2969"/><text fill="#000000" font-family="sans-serif" font-size="14" lengthAdjust="spacing" textLength="60.4434" x="976.715" y="107.292">2025_10</text></g><g class="participant participant-tail" data-participant="Oct"><rect fill="#E2E2F0" height="30.2969" rx="2.5" ry="2.5" style="stroke:#181818;stroke-width:0.5;" width="74.4434" x="969.715" y="720.25"/><text fill="#000000" font-family="sans-serif" font-size="14" lengthAdjust="spacing" textLength="60.4434" x="976.715" y="740.2451">2025_10</text></g><g class="participant participant-head" data-participant="Nov"><rect fill="#E2E2F0" height="30.2969" rx="2.5" ry="2.5" style="stroke:#181818;stroke-width:0.5;" width="74.4434" x="1054.1584" y="87.2969"/><text fill="#000000" font-family="sans-serif" font-size="14" lengthAdjust="spacing" textLength="60.4434" x="1061.1584" y="107.292">2025_11</text></g><g class="participant participant-tail" data-participant="Nov"><rect fill="#E2E2F0" height="30.2969" rx="2.5" ry="2.5" style="stroke:#181818;stroke-width:0.5;" width="74.4434" x="1054.1584" y="720.25"/><text fill="#000000" font-family="sans-serif" font-size="14" lengthAdjust="spacing" textLength="60.4434" x="1061.1584" y="740.2451">2025_11</text></g><g class="participant participant-head" data-participant="Dec"><rect fill="#E2E2F0" height="30.2969" rx="2.5" ry="2.5" style="stroke:#181818;stroke-width:0.5;" width="74.4434" x="1138.6017" y="87.2969"/><text fill="#000000" font-family="sans-serif" font-size="14" lengthAdjust="spacing" textLength="60.4434" x="1145.6017" y="107.292">2025_12</text></g><g class="participant participant-tail" data-participant="Dec"><rect fill="#E2E2F0" height="30.2969" rx="2.5" ry="2.5" style="stroke:#181818;stroke-width:0.5;" width="74.4434" x="1138.6017" y="720.25"/><text fill="#000000" font-family="sans-serif" font-size="14" lengthAdjust="spacing" textLength="60.4434" x="1145.6017" y="740.2451">2025_12</text></g><g class="message" data-participant-1="User" data-participant-2="Jan"><polygon fill="#181818" points="178.9552,145.7266,188.9552,149.7266,178.9552,153.7266,182.9552,149.7266" style="stroke:#181818;stroke-width:1;"/><line style="stroke:#181818;stroke-width:1;" x1="23.9551" x2="184.9552" y1="149.7266" y2="149.7266"/><text fill="#000000" font-family="sans-serif" font-size="13" lengthAdjust="spacing" textLength="143.0002" x="30.9551" y="144.6606">&#29694;&#29366;&#35519;&#26619;&#12392;&#31227;&#34892;&#35336;&#30011;&#31435;&#26696;</text></g><g class="message" data-participant-1="User" data-participant-2="Feb"><polygon fill="#181818" points="263.3986,189.9922,273.3986,193.9922,263.3986,197.9922,267.3986,193.9922" style="stroke:#181818;stroke-width:1;"/><line style="stroke:#181818;stroke-width:1;" x1="23.9551" x2="269.3986" y1="193.9922" y2="193.9922"/><text fill="#000000" font-family="sans-serif" font-size="13" lengthAdjust="spacing" textLength="117.0001" x="30.9551" y="173.7935">&#12487;&#12540;&#12479;&#12496;&#12483;&#12463;&#12450;&#12483;&#12503;</text><text fill="#000000" font-family="sans-serif" font-size="13" lengthAdjust="spacing" textLength="126.0265" x="30.9551" y="188.9263">Linux&#12487;&#12451;&#12473;&#12488;&#12522;&#36984;&#23450;</text></g><g class="message" data-participant-1="User" data-participant-2="Mar"><polygon fill="#181818" points="347.842,234.2578,357.842,238.2578,347.842,242.2578,351.842,238.2578" style="stroke:#181818;stroke-width:1;"/><line style="stroke:#181818;stroke-width:1;" x1="23.9551" x2="353.842" y1="238.2578" y2="238.2578"/><text fill="#000000" font-family="sans-serif" font-size="13" lengthAdjust="spacing" textLength="194.7208" x="30.9551" y="218.0591">&#12486;&#12473;&#12488;&#29872;&#22659;&#27083;&#31689;&#65288;VM/LiveUSB&#65289;</text><text fill="#000000" font-family="sans-serif" font-size="13" lengthAdjust="spacing" textLength="91.0001" x="30.9551" y="233.1919">&#35413;&#20385;&#12539;&#21839;&#38988;&#25277;&#20986;</text></g><g class="message" data-participant-1="User" data-participant-2="Apr"><polygon fill="#181818" points="432.2853,263.3906,442.2853,267.3906,432.2853,271.3906,436.2853,267.3906" style="stroke:#181818;stroke-width:1;"/><line style="stroke:#181818;stroke-width:1;" x1="23.9551" x2="438.2853" y1="267.3906" y2="267.3906"/><text fill="#000000" font-family="sans-serif" font-size="13" lengthAdjust="spacing" textLength="152.0265" x="30.9551" y="262.3247">&#23455;&#27231;&#12408;Linux&#12452;&#12531;&#12473;&#12488;&#12540;&#12523;</text></g><g class="message" data-participant-1="User" data-participant-2="May"><polygon fill="#181818" points="516.7287,292.5234,526.7287,296.5234,516.7287,300.5234,520.7287,296.5234" style="stroke:#181818;stroke-width:1;"/><line style="stroke:#181818;stroke-width:1;" x1="23.9551" x2="522.7287" y1="296.5234" y2="296.5234"/><text fill="#000000" font-family="sans-serif" font-size="13" lengthAdjust="spacing" textLength="130.0002" x="30.9551" y="291.4575">&#12487;&#12540;&#12479;&#24489;&#20803;&#12392;&#29872;&#22659;&#31227;&#34892;</text></g><g class="message" data-participant-1="User" data-participant-2="Jun"><polygon fill="#181818" points="657.1633,321.6563,667.1633,325.6563,657.1633,329.6563,661.1633,325.6563" style="stroke:#181818;stroke-width:1;"/><line style="stroke:#181818;stroke-width:1;" x1="23.9551" x2="663.1633" y1="325.6563" y2="325.6563"/><text fill="#000000" font-family="sans-serif" font-size="13" lengthAdjust="spacing" textLength="195.0002" x="30.9551" y="320.5903">&#12450;&#12503;&#12522;&#12465;&#12540;&#12471;&#12519;&#12531;&#31227;&#34892;&#12392;&#35373;&#23450;&#35519;&#25972;</text></g><g class="message" data-participant-1="User" data-participant-2="Jul"><polygon fill="#181818" points="741.6066,350.7891,751.6066,354.7891,741.6066,358.7891,745.6066,354.7891" style="stroke:#181818;stroke-width:1;"/><line style="stroke:#181818;stroke-width:1;" x1="23.9551" x2="747.6066" y1="354.7891" y2="354.7891"/><text fill="#000000" font-family="sans-serif" font-size="13" lengthAdjust="spacing" textLength="143.0002" x="30.9551" y="349.7231">&#21205;&#20316;&#26908;&#35388;&#12539;&#12488;&#12521;&#12502;&#12523;&#23550;&#24540;</text></g><g class="message" data-participant-1="User" data-participant-2="Aug"><polygon fill="#181818" points="826.05,379.9219,836.05,383.9219,826.05,387.9219,830.05,383.9219" style="stroke:#181818;stroke-width:1;"/><line style="stroke:#181818;stroke-width:1;" x1="23.9551" x2="832.05" y1="383.9219" y2="383.9219"/><text fill="#000000" font-family="sans-serif" font-size="13" lengthAdjust="spacing" textLength="130.0002" x="30.9551" y="378.856">&#33258;&#21205;&#21270;&#12473;&#12463;&#12522;&#12503;&#12488;&#20316;&#25104;</text></g><g class="message" data-participant-1="User" data-participant-2="Sep"><polygon fill="#181818" points="910.4933,409.0547,920.4933,413.0547,910.4933,417.0547,914.4933,413.0547" style="stroke:#181818;stroke-width:1;"/><line style="stroke:#181818;stroke-width:1;" x1="23.9551" x2="916.4933" y1="413.0547" y2="413.0547"/><text fill="#000000" font-family="sans-serif" font-size="13" lengthAdjust="spacing" textLength="169.0002" x="30.9551" y="407.9888">&#36861;&#21152;&#12484;&#12540;&#12523;&#23566;&#20837;&#12392;&#35373;&#23450;&#26368;&#36969;&#21270;</text></g><g class="message" data-participant-1="User" data-participant-2="Oct"><polygon fill="#181818" points="994.9367,438.1875,1004.9367,442.1875,994.9367,446.1875,998.9367,442.1875" style="stroke:#181818;stroke-width:1;"/><line style="stroke:#181818;stroke-width:1;" x1="23.9551" x2="1000.9367" y1="442.1875" y2="442.1875"/><text fill="#000000" font-family="sans-serif" font-size="13" lengthAdjust="spacing" textLength="91.0001" x="30.9551" y="437.1216">&#36939;&#29992;&#12486;&#12473;&#12488;&#38283;&#22987;</text></g><g class="message" data-participant-1="User" data-participant-2="Nov"><polygon fill="#181818" points="1079.3801,467.3203,1089.3801,471.3203,1079.3801,475.3203,1083.3801,471.3203" style="stroke:#181818;stroke-width:1;"/><line style="stroke:#181818;stroke-width:1;" x1="23.9551" x2="1085.3801" y1="471.3203" y2="471.3203"/><text fill="#000000" font-family="sans-serif" font-size="13" lengthAdjust="spacing" textLength="143.0002" x="30.9551" y="466.2544">&#21839;&#38988;&#12501;&#12451;&#12540;&#12489;&#12496;&#12483;&#12463;&#21453;&#26144;</text></g><g class="message" data-participant-1="User" data-participant-2="Dec"><polygon fill="#181818" points="1163.8234,496.4531,1173.8234,500.4531,1163.8234,504.4531,1167.8234,500.4531" style="stroke:#181818;stroke-width:1;"/><line style="stroke:#181818;stroke-width:1;" x1="23.9551" x2="1169.8234" y1="500.4531" y2="500.4531"/><text fill="#000000" font-family="sans-serif" font-size="13" lengthAdjust="spacing" textLength="117.0001" x="30.9551" y="495.3872">&#31227;&#34892;&#23436;&#20102;&#12539;&#25391;&#12426;&#36820;&#12426;</text></g><rect fill="#EEEEEE" height="3" style="stroke:#EEEEEE;stroke-width:1;" width="1218.0451" x="0" y="529.0195"/><line style="stroke:#000000;stroke-width:1;" x1="0" x2="1218.0451" y1="529.0195" y2="529.0195"/><line style="stroke:#000000;stroke-width:1;" x1="0" x2="1218.0451" y1="532.0195" y2="532.0195"/><rect fill="#EEEEEE" height="23.1328" style="stroke:#000000;stroke-width:2;" width="82.231" x="567.9071" y="518.4531"/><text fill="#000000" font-family="sans-serif" font-size="13" font-weight="bold" lengthAdjust="spacing" textLength="63.7051" x="573.9071" y="534.52">windows</text><g class="message" data-participant-1="User" data-participant-2="Apr"><polygon fill="#181818" points="432.2853,568.7188,442.2853,572.7188,432.2853,576.7188,436.2853,572.7188" style="stroke:#181818;stroke-width:1;"/><line style="stroke:#181818;stroke-width:1;" x1="23.9551" x2="438.2853" y1="572.7188" y2="572.7188"/><text fill="#000000" font-family="sans-serif" font-size="13" lengthAdjust="spacing" textLength="116.4287" x="30.9551" y="567.6528">windows 7 linux 3</text></g><g class="message" data-participant-1="User" data-participant-2="Apr"><polygon fill="#181818" points="432.2853,597.8516,442.2853,601.8516,432.2853,605.8516,436.2853,601.8516" style="stroke:#181818;stroke-width:1;"/><line style="stroke:#181818;stroke-width:1;" x1="23.9551" x2="438.2853" y1="601.8516" y2="601.8516"/><text fill="#000000" font-family="sans-serif" font-size="13" lengthAdjust="spacing" textLength="133.7197" x="30.9551" y="596.7856">windows main game</text></g><rect fill="#EEEEEE" height="3" style="stroke:#EEEEEE;stroke-width:1;" width="1218.0451" x="0" y="630.418"/><line style="stroke:#000000;stroke-width:1;" x1="0" x2="1218.0451" y1="630.418" y2="630.418"/><line style="stroke:#000000;stroke-width:1;" x1="0" x2="1218.0451" y1="633.418" y2="633.418"/><rect fill="#EEEEEE" height="23.1328" style="stroke:#000000;stroke-width:2;" width="54.333" x="581.856" y="619.8516"/><text fill="#000000" font-family="sans-serif" font-size="13" font-weight="bold" lengthAdjust="spacing" textLength="35.8071" x="587.856" y="635.9185">linux</text><g class="message" data-participant-1="Apr" data-participant-2="Jun"><polygon fill="#181818" points="657.1633,670.1172,667.1633,674.1172,657.1633,678.1172,661.1633,674.1172" style="stroke:#181818;stroke-width:1;"/><line style="stroke:#181818;stroke-width:1;" x1="444.2853" x2="663.1633" y1="674.1172" y2="674.1172"/><text fill="#000000" font-family="sans-serif" font-size="13" lengthAdjust="spacing" textLength="116.4287" x="451.2853" y="669.0513">windows 1 liunx 9</text></g><g class="message" data-participant-1="Apr" data-participant-2="Jun"><polygon fill="#181818" points="657.1633,699.25,667.1633,703.25,657.1633,707.25,661.1633,703.25" style="stroke:#181818;stroke-width:1;"/><line style="stroke:#181818;stroke-width:1;" x1="444.2853" x2="663.1633" y1="703.25" y2="703.25"/><text fill="#000000" font-family="sans-serif" font-size="13" lengthAdjust="spacing" textLength="200.8779" x="451.2853" y="698.1841">linux main windows game only</text></g><!--SRC=[TLHTQnD157tVNp7qNKnJQwqGGH4VfDM7Kdqfo1gNi91kGf9jcpTtnpOV6qsH91K9fAcLV1IJYaNRvkl7J6PtyzI_u9sPPXjb-x8Cd7FFFVVSowRKL5H1hrNjNMmxIGoBcBaLLTDtY75EZ8xJwBdrWjlCEgNULJyR30GNwSNPLJydIN8u5KkWzQIIaE9o8gM6rRYifT0Suxm9pCyXEOcUoveV6EJWC-Mj7xZ0mLNPL_OU1n_7VS75wygq7tXV6D9z3IrTWr4_y87egKVym6KEhYbn7t0-mC6NuPGVA19w4Tlo0qL2JvMm9B64qPr7B4lq43d5ePF_xRP7Tgr7ZERiVfmJowvdFJx42to2CmJtYJaYU9zWJCmkCO_O0nziQ6BHm32_4VE2u2p1xObnJZjVFHNO0rVP4mJdyoazmdR3Shevk8TNgtTNr2rbVUq9dCI6vhRAus6Tu1uj5oVrWfqVqCob9mLR0odQgTcj6boNQ6uU4_nhshnFyCbCv_IiVpfiqLtCHkOMnE0tuUWi73xQ0Gn1p9-ywW_13T0NPAXrcpzWE9PU-MocDifyMUNne6eVLzqcsEXnFos2As29TeTqLBsPGuy0tysqeOGMAimyf0fDMUii4ydkUsIu34OU3MZ-aE0FOaPw-edkVlVysDNt4wC5KbuLd0nKJGpBAJMzx2SLYpOiZmENmsppf0akinqoyPotQ5hyQ7yvzFXmJEn-U1IqKnXVxi6OTW7k8U-EIl2Lf508ROiV0Gg5_jlR55X2KROuj70BlYch6eh8cmfJ4rJGOXnlJLFgFE2wjeEM_uL54TUPCfaUYcdHz5y0]--></g></svg>