<svg xmlns="http://www.w3.org/2000/svg" xmlns:xlink="http://www.w3.org/1999/xlink" contentStyleType="text/css" data-diagram-type="SEQUENCE" height="836px" preserveAspectRatio="none" style="width:948px;height:836px;background:#FFFFFF;" version="1.1" viewBox="0 0 948 836" width="948px" zoomAndPan="magnify"><title>Windows &#8594; Linux &#31227;&#34892;&#20316;&#26989;&#12501;&#12525;&#12540;&#65288;Sequence Diagram&#65289;</title><defs/><g><text fill="#000000" font-family="sans-serif" font-size="14" font-weight="bold" lengthAdjust="spacing" textLength="414.6743" x="262.6683" y="27.9951">Windows &#8594; Linux &#31227;&#34892;&#20316;&#26989;&#12501;&#12525;&#12540;&#65288;Sequence Diagram&#65289;</text><g><title>User</title><rect fill="#000000" fill-opacity="0.00000" height="637.3906" width="8" x="19.9551" y="118.5938"/><line style="stroke:#181818;stroke-width:0.5;stroke-dasharray:5.0,5.0;" x1="23" x2="23" y1="118.5938" y2="755.9844"/></g><g><title>Windows PC</title><rect fill="#000000" fill-opacity="0.00000" height="637.3906" width="8" x="314.8162" y="118.5938"/><line style="stroke:#181818;stroke-width:0.5;stroke-dasharray:5.0,5.0;" x1="318.0813" x2="318.0813" y1="118.5938" y2="755.9844"/></g><g><title>&#22806;&#37096;&#12473;&#12488;&#12524;&#12540;&#12472;</title><rect fill="#000000" fill-opacity="0.00000" height="637.3906" width="8" x="611.8165" y="118.5938"/><line style="stroke:#181818;stroke-width:0.5;stroke-dasharray:5.0,5.0;" x1="614.8167" x2="614.8167" y1="118.5938" y2="755.9844"/></g><g><title>Linux PC</title><rect fill="#000000" fill-opacity="0.00000" height="637.3906" width="8" x="715.0106" y="118.5938"/><line style="stroke:#181818;stroke-width:0.5;stroke-dasharray:5.0,5.0;" x1="718.8163" x2="718.8163" y1="118.5938" y2="755.9844"/></g><g class="participant participant-head" data-participant="User"><text fill="#000000" font-family="sans-serif" font-size="14" lengthAdjust="spacing" textLength="31.9102" x="5" y="115.292">User</text><ellipse cx="23.9551" cy="50.7969" fill="#E2E2F0" rx="8" ry="8" style="stroke:#181818;stroke-width:0.5;"/><path d="M23.9551,58.7969 L23.9551,85.7969 M10.9551,66.7969 L36.9551,66.7969 M23.9551,85.7969 L10.9551,100.7969 M23.9551,85.7969 L36.9551,100.7969" fill="none" style="stroke:#181818;stroke-width:0.5;"/></g><g class="participant participant-tail" data-participant="User"><text fill="#000000" font-family="sans-serif" font-size="14" lengthAdjust="spacing" textLength="31.9102" x="5" y="767.9795">User</text><ellipse cx="23.9551" cy="779.7813" fill="#E2E2F0" rx="8" ry="8" style="stroke:#181818;stroke-width:0.5;"/><path d="M23.9551,787.7813 L23.9551,814.7813 M10.9551,795.7813 L36.9551,795.7813 M23.9551,814.7813 L10.9551,829.7813 M23.9551,814.7813 L36.9551,829.7813" fill="none" style="stroke:#181818;stroke-width:0.5;"/></g><g class="participant participant-head" data-participant="Win"><rect fill="#E2E2F0" height="30.2969" rx="2.5" ry="2.5" style="stroke:#181818;stroke-width:0.5;" width="99.4697" x="269.0813" y="87.2969"/><text fill="#000000" font-family="sans-serif" font-size="14" lengthAdjust="spacing" textLength="85.4697" x="276.0813" y="107.292">Windows PC</text></g><g class="participant participant-tail" data-participant="Win"><rect fill="#E2E2F0" height="30.2969" rx="2.5" ry="2.5" style="stroke:#181818;stroke-width:0.5;" width="99.4697" x="269.0813" y="754.9844"/><text fill="#000000" font-family="sans-serif" font-size="14" lengthAdjust="spacing" textLength="85.4697" x="276.0813" y="774.9795">Windows PC</text></g><g class="participant participant-head" data-participant="USB"><rect fill="#E2E2F0" height="30.2969" rx="2.5" ry="2.5" style="stroke:#181818;stroke-width:0.5;" width="111.9996" x="559.8167" y="87.2969"/><text fill="#000000" font-family="sans-serif" font-size="14" lengthAdjust="spacing" textLength="97.9996" x="566.8167" y="107.292">&#22806;&#37096;&#12473;&#12488;&#12524;&#12540;&#12472;</text></g><g class="participant participant-tail" data-participant="USB"><rect fill="#E2E2F0" height="30.2969" rx="2.5" ry="2.5" style="stroke:#181818;stroke-width:0.5;" width="111.9996" x="559.8167" y="754.9844"/><text fill="#000000" font-family="sans-serif" font-size="14" lengthAdjust="spacing" textLength="97.9996" x="566.8167" y="774.9795">&#22806;&#37096;&#12473;&#12488;&#12524;&#12540;&#12472;</text></g><g class="participant participant-head" data-participant="Linux"><rect fill="#E2E2F0" height="30.2969" rx="2.5" ry="2.5" style="stroke:#181818;stroke-width:0.5;" width="74.3887" x="681.8163" y="87.2969"/><text fill="#000000" font-family="sans-serif" font-size="14" lengthAdjust="spacing" textLength="60.3887" x="688.8163" y="107.292">Linux PC</text></g><g class="participant participant-tail" data-participant="Linux"><rect fill="#E2E2F0" height="30.2969" rx="2.5" ry="2.5" style="stroke:#181818;stroke-width:0.5;" width="74.3887" x="681.8163" y="754.9844"/><text fill="#000000" font-family="sans-serif" font-size="14" lengthAdjust="spacing" textLength="60.3887" x="688.8163" y="774.9795">Linux PC</text></g><rect fill="#EEEEEE" height="3" style="stroke:#EEEEEE;stroke-width:1;" width="941.0108" x="0" y="149.1602"/><line style="stroke:#000000;stroke-width:1;" x1="0" x2="941.0108" y1="149.1602" y2="149.1602"/><line style="stroke:#000000;stroke-width:1;" x1="0" x2="941.0108" y1="152.1602" y2="152.1602"/><rect fill="#EEEEEE" height="23.1328" style="stroke:#000000;stroke-width:2;" width="122.526" x="409.2424" y="138.5938"/><text fill="#000000" font-family="sans-serif" font-size="13" font-weight="bold" lengthAdjust="spacing" textLength="104.0001" x="415.2424" y="154.6606">&#12496;&#12483;&#12463;&#12450;&#12483;&#12503;&#20316;&#26989;</text><g class="message" data-participant-1="User" data-participant-2="Win"><polygon fill="#181818" points="306.8162,188.8594,316.8162,192.8594,306.8162,196.8594,310.8162,192.8594" style="stroke:#181818;stroke-width:1;"/><line style="stroke:#181818;stroke-width:1;" x1="23.9551" x2="312.8162" y1="192.8594" y2="192.8594"/><text fill="#000000" font-family="sans-serif" font-size="13" lengthAdjust="spacing" textLength="117.0001" x="30.9551" y="187.7935">&#24517;&#35201;&#12394;&#12487;&#12540;&#12479;&#12398;&#25972;&#29702;</text></g><g class="message" data-participant-1="Win" data-participant-2="USB"><polygon fill="#181818" points="603.8165,217.9922,613.8165,221.9922,603.8165,225.9922,607.8165,221.9922" style="stroke:#181818;stroke-width:1;"/><line style="stroke:#181818;stroke-width:1;" x1="318.8162" x2="609.8165" y1="221.9922" y2="221.9922"/><text fill="#000000" font-family="sans-serif" font-size="13" lengthAdjust="spacing" textLength="273.0003" x="325.8162" y="216.9263">&#12501;&#12449;&#12452;&#12523;&#12398;&#12467;&#12500;&#12540;&#65288;&#12489;&#12461;&#12517;&#12513;&#12531;&#12488;&#12289;&#30011;&#20687;&#12394;&#12393;&#65289;</text></g><path d="M527,234.9922 L527,259.9922 L703,259.9922 L703,244.9922 L693,234.9922 L527,234.9922" fill="#FEFFDD" style="stroke:#181818;stroke-width:0.5;"/><path d="M693,234.9922 L693,244.9922 L703,244.9922 L693,234.9922" fill="#FEFFDD" style="stroke:#181818;stroke-width:0.5;"/><text fill="#000000" font-family="sans-serif" font-size="13" lengthAdjust="spacing" textLength="155.7462" x="533" y="252.0591">&#22806;&#20184;&#12369;HDD &#12420; USB&#12513;&#12514;&#12522;</text><rect fill="#EEEEEE" height="3" style="stroke:#EEEEEE;stroke-width:1;" width="941.0108" x="0" y="285.6914"/><line style="stroke:#000000;stroke-width:1;" x1="0" x2="941.0108" y1="285.6914" y2="285.6914"/><line style="stroke:#000000;stroke-width:1;" x1="0" x2="941.0108" y1="288.6914" y2="288.6914"/><rect fill="#EEEEEE" height="23.1328" style="stroke:#000000;stroke-width:2;" width="122.526" x="409.2424" y="275.125"/><text fill="#000000" font-family="sans-serif" font-size="13" font-weight="bold" lengthAdjust="spacing" textLength="104.0001" x="415.2424" y="291.1919">&#12452;&#12531;&#12473;&#12488;&#12540;&#12523;&#28310;&#20633;</text><g class="message" data-participant-1="User" data-participant-2="Win"><polygon fill="#181818" points="306.8162,325.3906,316.8162,329.3906,306.8162,333.3906,310.8162,329.3906" style="stroke:#181818;stroke-width:1;"/><line style="stroke:#181818;stroke-width:1;" x1="23.9551" x2="312.8162" y1="329.3906" y2="329.3906"/><text fill="#000000" font-family="sans-serif" font-size="13" lengthAdjust="spacing" textLength="270.8611" x="30.9551" y="324.3247">&#12452;&#12531;&#12473;&#12488;&#12540;&#12521;&#20316;&#25104;&#12484;&#12540;&#12523;&#12434;&#23455;&#34892;&#65288;Rufus&#12394;&#12393;&#65289;</text></g><g class="message" data-participant-1="Win" data-participant-2="USB"><polygon fill="#181818" points="603.8165,354.5234,613.8165,358.5234,603.8165,362.5234,607.8165,358.5234" style="stroke:#181818;stroke-width:1;"/><line style="stroke:#181818;stroke-width:1;" x1="318.8162" x2="609.8165" y1="358.5234" y2="358.5234"/><text fill="#000000" font-family="sans-serif" font-size="13" lengthAdjust="spacing" textLength="165.0265" x="325.8162" y="353.4575">Linux&#12502;&#12540;&#12488;&#12513;&#12487;&#12451;&#12450;&#12434;&#20316;&#25104;</text></g><path d="M496,371.5234 L496,396.5234 L734,396.5234 L734,381.5234 L724,371.5234 L496,371.5234" fill="#FEFFDD" style="stroke:#181818;stroke-width:0.5;"/><path d="M724,371.5234 L724,381.5234 L734,381.5234 L724,371.5234" fill="#FEFFDD" style="stroke:#181818;stroke-width:0.5;"/><text fill="#000000" font-family="sans-serif" font-size="13" lengthAdjust="spacing" textLength="217.7755" x="502" y="388.5903">&#20363;&#65306;Ubuntu, Zorin OS, Fedora&#12394;&#12393;</text><rect fill="#EEEEEE" height="3" style="stroke:#EEEEEE;stroke-width:1;" width="941.0108" x="0" y="422.2227"/><line style="stroke:#000000;stroke-width:1;" x1="0" x2="941.0108" y1="422.2227" y2="422.2227"/><line style="stroke:#000000;stroke-width:1;" x1="0" x2="941.0108" y1="425.2227" y2="425.2227"/><rect fill="#EEEEEE" height="23.1328" style="stroke:#000000;stroke-width:2;" width="136.1607" x="402.425" y="411.6563"/><text fill="#000000" font-family="sans-serif" font-size="13" font-weight="bold" lengthAdjust="spacing" textLength="117.6349" x="408.425" y="427.7231">Linux&#12452;&#12531;&#12473;&#12488;&#12540;&#12523;</text><g class="message" data-participant-1="User" data-participant-2="Linux"><polygon fill="#181818" points="707.0106,461.9219,717.0106,465.9219,707.0106,469.9219,711.0106,465.9219" style="stroke:#181818;stroke-width:1;"/><line style="stroke:#181818;stroke-width:1;" x1="23.9551" x2="713.0106" y1="465.9219" y2="465.9219"/><text fill="#000000" font-family="sans-serif" font-size="13" lengthAdjust="spacing" textLength="78.6856" x="30.9551" y="460.856">USB&#12363;&#12425;&#36215;&#21205;</text></g><g class="message" data-participant-1="Linux" data-participant-2="Linux"><line style="stroke:#181818;stroke-width:1;" x1="719.0106" x2="761.0106" y1="495.0547" y2="495.0547"/><line style="stroke:#181818;stroke-width:1;" x1="761.0106" x2="761.0106" y1="495.0547" y2="508.0547"/><line style="stroke:#181818;stroke-width:1;" x1="720.0106" x2="761.0106" y1="508.0547" y2="508.0547"/><polygon fill="#181818" points="730.0106,504.0547,720.0106,508.0547,730.0106,512.0547,726.0106,508.0547" style="stroke:#181818;stroke-width:1;"/><text fill="#000000" font-family="sans-serif" font-size="13" lengthAdjust="spacing" textLength="208.0002" x="726.0106" y="489.9888">&#12497;&#12540;&#12486;&#12451;&#12471;&#12519;&#12531;&#35373;&#23450;&#12539;&#12501;&#12457;&#12540;&#12510;&#12483;&#12488;</text></g><g class="message" data-participant-1="User" data-participant-2="Linux"><polygon fill="#181818" points="707.0106,533.1875,717.0106,537.1875,707.0106,541.1875,711.0106,537.1875" style="stroke:#181818;stroke-width:1;"/><line style="stroke:#181818;stroke-width:1;" x1="23.9551" x2="713.0106" y1="537.1875" y2="537.1875"/><text fill="#000000" font-family="sans-serif" font-size="13" lengthAdjust="spacing" textLength="117.0001" x="30.9551" y="532.1216">&#12452;&#12531;&#12473;&#12488;&#12540;&#12523;&#12434;&#23455;&#34892;</text></g><path d="M587,550.1875 L587,575.1875 L850,575.1875 L850,560.1875 L840,550.1875 L587,550.1875" fill="#FEFFDD" style="stroke:#181818;stroke-width:0.5;"/><path d="M840,550.1875 L840,560.1875 L850,560.1875 L840,550.1875" fill="#FEFFDD" style="stroke:#181818;stroke-width:0.5;"/><text fill="#000000" font-family="sans-serif" font-size="13" lengthAdjust="spacing" textLength="242.5632" x="593" y="567.2544">&#12487;&#12517;&#12450;&#12523;&#12502;&#12540;&#12488; or &#12501;&#12523;&#12452;&#12531;&#12473;&#12488;&#12540;&#12523;&#36984;&#25246;</text><rect fill="#EEEEEE" height="3" style="stroke:#EEEEEE;stroke-width:1;" width="941.0108" x="0" y="600.8867"/><line style="stroke:#000000;stroke-width:1;" x1="0" x2="941.0108" y1="600.8867" y2="600.8867"/><line style="stroke:#000000;stroke-width:1;" x1="0" x2="941.0108" y1="603.8867" y2="603.8867"/><rect fill="#EEEEEE" height="23.1328" style="stroke:#000000;stroke-width:2;" width="148.526" x="396.2424" y="590.3203"/><text fill="#000000" font-family="sans-serif" font-size="13" font-weight="bold" lengthAdjust="spacing" textLength="130.0002" x="402.2424" y="606.3872">&#31227;&#34892;&#24460;&#12398;&#12475;&#12483;&#12488;&#12450;&#12483;&#12503;</text><g class="message" data-participant-1="User" data-participant-2="Linux"><polygon fill="#181818" points="707.0106,640.5859,717.0106,644.5859,707.0106,648.5859,711.0106,644.5859" style="stroke:#181818;stroke-width:1;"/><line style="stroke:#181818;stroke-width:1;" x1="23.9551" x2="713.0106" y1="644.5859" y2="644.5859"/><text fill="#000000" font-family="sans-serif" font-size="13" lengthAdjust="spacing" textLength="169.0002" x="30.9551" y="639.52">&#24517;&#35201;&#12394;&#12450;&#12503;&#12522;&#12434;&#12452;&#12531;&#12473;&#12488;&#12540;&#12523;</text></g><g class="message" data-participant-1="USB" data-participant-2="Linux"><polygon fill="#181818" points="707.0106,669.7188,717.0106,673.7188,707.0106,677.7188,711.0106,673.7188" style="stroke:#181818;stroke-width:1;"/><line style="stroke:#181818;stroke-width:1;" x1="615.8165" x2="713.0106" y1="673.7188" y2="673.7188"/><text fill="#000000" font-family="sans-serif" font-size="13" lengthAdjust="spacing" textLength="78.0001" x="622.8165" y="668.6528">&#12487;&#12540;&#12479;&#12434;&#24489;&#20803;</text></g><path d="M604,686.7188 L604,711.7188 L833,711.7188 L833,696.7188 L823,686.7188 L604,686.7188" fill="#FEFFDD" style="stroke:#181818;stroke-width:0.5;"/><path d="M823,686.7188 L823,696.7188 L833,696.7188 L823,686.7188" fill="#FEFFDD" style="stroke:#181818;stroke-width:0.5;"/><text fill="#000000" font-family="sans-serif" font-size="13" lengthAdjust="spacing" textLength="208.0002" x="610" y="703.7856">&#35373;&#23450;&#12501;&#12449;&#12452;&#12523;&#12420;&#12489;&#12461;&#12517;&#12513;&#12531;&#12488;&#12418;&#25147;&#12377;</text><g class="message" data-participant-1="Linux" data-participant-2="User"><polygon fill="#181818" points="34.9551,733.9844,24.9551,737.9844,34.9551,741.9844,30.9551,737.9844" style="stroke:#181818;stroke-width:1;"/><line style="stroke:#181818;stroke-width:1;" x1="28.9551" x2="718.0106" y1="737.9844" y2="737.9844"/><text fill="#000000" font-family="sans-serif" font-size="13" lengthAdjust="spacing" textLength="65.0001" x="40.9551" y="732.9185">&#29872;&#22659;&#23436;&#25104;&#65281;</text></g><!--SRC=[RLDTRz9G6BxlhpZPzVm397YXn7XXef4G4-ygLDD4srbQzTAUbx4Y96vai8-O6UPmOpWqGRDfA_illXnWL_m5puSmQhbf-l6Sz_budxgc-zmWZqohOBykaZ_bEhbdMjuRCZuE9wtQyFU7KViCeO70hz4q2hB6Iy-myWR9cFepHtynZIgQfkTTso6vek5eQxhZcdbpJRTSiZ8R- -3s2j6BWYN-dHqrh-04wK-40E4BPq1w8Q6vxAquLAdwDqW-Q5ewJH0s4G3fLwI7uWPsb6IIJckQ44Hkt1Iy94NOvVhaiu_-ASA6PBf4lpTgV1zlbZM1u43Eoe72BcqXFKBeSWZIFiAsSezGGSgJQ2Eq4Ff2zbj_l1qoU2y6-nqHXsMx1h5VSMxXWdiSXhleRztDP0ZIadWfJtEzfvfX5OZ0ApE2iZ-B8-BqerzDHlUMc4b0Ey9tmCCegPD8wwptaQ-GgtxeFVMAr_fYPcMK24rvAf32Df1-4d7Ikfhvdw7Xe3gDzdDFFClrLibZs-7ZxcTNoHsZO3kweedxKXm9Sp5RQhyfcOvVHLgP_3XdrOQctYy04BRayR9KUOvmpCTEJivORnyXbBlhIC21x4EGO4WAcMUru5HLJ5QbBRlLdOT4UDVbBz5DZhhoBqRl3kBsrQ_41ZLPfb39clTrQGhNNHMm7TuKhZ79feaTnhAPDPix6dJOEYGSpP9Qg3WjBQarfQCWH7zlmSfy5L9jYephtzWXi5wDTsGQ-Ny1]--></g></svg>