<svg xmlns="http://www.w3.org/2000/svg" xmlns:xlink="http://www.w3.org/1999/xlink" contentStyleType="text/css" data-diagram-type="ACTIVITY" height="1034px" preserveAspectRatio="none" style="width:477px;height:1034px;background:#FFFFFF;" version="1.1" viewBox="0 0 477 1034" width="477px" zoomAndPan="magnify"><defs/><g><ellipse cx="224.5854" cy="20" fill="#222222" rx="10" ry="10" style="stroke:#222222;stroke-width:1;"/><polygon fill="none" points="134.1029,40,213.9102,40,220.9102,62.2969,315.068,62.2969,315.068,199.2344,134.1029,199.2344,134.1029,40" style="stroke:#000000;stroke-width:1.5;"/><line style="stroke:#000000;stroke-width:1.5;" x1="134.1029" x2="220.9102" y1="62.2969" y2="62.2969"/><text fill="#000000" font-family="sans-serif" font-size="14" lengthAdjust="spacing" textLength="73.8074" x="138.1029" y="54.9951">1. &#29872;&#22659;&#28310;&#20633;</text><rect fill="#F1F1F1" height="33.9688" rx="12.5" ry="12.5" style="stroke:#181818;stroke-width:0.5;" width="120.5354" x="164.3177" y="76.2969"/><text fill="#000000" font-family="sans-serif" font-size="12" lengthAdjust="spacing" textLength="100.5354" x="174.3177" y="97.4355">Dockerfile &#12434;&#29992;&#24847;</text><rect fill="#F1F1F1" height="33.9688" rx="12.5" ry="12.5" style="stroke:#181818;stroke-width:0.5;" width="160.9651" x="144.1029" y="145.2656"/><text fill="#000000" font-family="sans-serif" font-size="12" lengthAdjust="spacing" textLength="140.9651" x="154.1029" y="166.4043">requirements.txt &#12434;&#20316;&#25104;</text><polygon fill="none" points="121.1653,209.2344,256.9724,209.2344,263.9724,231.5313,328.0056,231.5313,328.0056,299.5,121.1653,299.5,121.1653,209.2344" style="stroke:#000000;stroke-width:1.5;"/><line style="stroke:#000000;stroke-width:1.5;" x1="121.1653" x2="263.9724" y1="231.5313" y2="231.5313"/><text fill="#000000" font-family="sans-serif" font-size="14" lengthAdjust="spacing" textLength="129.8071" x="125.1653" y="224.2295">2. &#12452;&#12513;&#12540;&#12472;&#12398;&#12499;&#12523;&#12489;</text><rect fill="#F1F1F1" height="33.9688" rx="12.5" ry="12.5" style="stroke:#181818;stroke-width:0.5;" width="186.8403" x="131.1653" y="245.5313"/><text fill="#000000" font-family="sans-serif" font-size="12" lengthAdjust="spacing" textLength="166.8403" x="141.1653" y="266.6699">podman build -t &#12452;&#12513;&#12540;&#12472;&#21517; .</text><polygon fill="none" points="128.6819,309.5,306.4889,309.5,313.4889,331.7969,320.4889,331.7969,320.4889,399.7656,128.6819,399.7656,128.6819,309.5" style="stroke:#000000;stroke-width:1.5;"/><line style="stroke:#000000;stroke-width:1.5;" x1="128.6819" x2="313.4889" y1="331.7969" y2="331.7969"/><text fill="#000000" font-family="sans-serif" font-size="14" lengthAdjust="spacing" textLength="171.8069" x="132.6819" y="324.4951">3. &#12452;&#12513;&#12540;&#12472;&#12398;&#30906;&#35469;&#65288;&#20219;&#24847;&#65289;</text><rect fill="#F1F1F1" height="33.9688" rx="12.5" ry="12.5" style="stroke:#181818;stroke-width:0.5;" width="116.668" x="166.2514" y="345.7969"/><text fill="#000000" font-family="sans-serif" font-size="12" lengthAdjust="spacing" textLength="96.668" x="176.2514" y="366.9355">podman images</text><polygon fill="none" points="107.3987,409.7656,271.2057,409.7656,278.2057,432.0625,341.7722,432.0625,341.7722,500.0313,107.3987,500.0313,107.3987,409.7656" style="stroke:#000000;stroke-width:1.5;"/><line style="stroke:#000000;stroke-width:1.5;" x1="107.3987" x2="278.2057" y1="432.0625" y2="432.0625"/><text fill="#000000" font-family="sans-serif" font-size="14" lengthAdjust="spacing" textLength="157.807" x="111.3987" y="424.7607">4. &#12467;&#12531;&#12486;&#12490;&#12398;&#20316;&#25104;&#12539;&#23455;&#34892;</text><rect fill="#F1F1F1" height="33.9688" rx="12.5" ry="12.5" style="stroke:#181818;stroke-width:0.5;" width="214.3735" x="117.3987" y="446.0625"/><text fill="#000000" font-family="sans-serif" font-size="12" lengthAdjust="spacing" textLength="194.3735" x="127.3987" y="467.2012">podman run [options] &#12452;&#12513;&#12540;&#12472;&#21517;</text><polygon fill="#F1F1F1" points="186.0857,520.0313,263.0852,520.0313,275.0852,532.0313,263.0852,544.0313,186.0857,544.0313,174.0857,532.0313,186.0857,520.0313" style="stroke:#181818;stroke-width:0.5;"/><text fill="#000000" font-family="sans-serif" font-size="11" lengthAdjust="spacing" textLength="76.9995" x="186.0857" y="535.8394">&#12467;&#12531;&#12486;&#12490;&#32066;&#20102;&#65311;</text><text fill="#000000" font-family="sans-serif" font-size="11" lengthAdjust="spacing" textLength="19.2178" x="154.8679" y="529.437">Yes</text><text fill="#000000" font-family="sans-serif" font-size="11" lengthAdjust="spacing" textLength="14.9585" x="275.0852" y="529.437">No</text><polygon fill="none" points="20,554.0313,137.3844,554.0313,144.3844,576.3281,201.3989,576.3281,201.3989,851.2031,20,851.2031,20,554.0313" style="stroke:#000000;stroke-width:1.5;"/><line style="stroke:#000000;stroke-width:1.5;" x1="20" x2="144.3844" y1="576.3281" y2="576.3281"/><text fill="#000000" font-family="sans-serif" font-size="14" lengthAdjust="spacing" textLength="111.3844" x="24" y="569.0264">5A. &#32066;&#20102;&#24460;&#12398;&#20966;&#29702;</text><rect fill="#F1F1F1" height="33.9688" rx="12.5" ry="12.5" style="stroke:#181818;stroke-width:0.5;" width="68.0004" x="76.6993" y="590.3281"/><text fill="#000000" font-family="sans-serif" font-size="12" lengthAdjust="spacing" textLength="48.0004" x="86.6993" y="611.4668">&#12525;&#12464;&#30906;&#35469;</text><rect fill="#F1F1F1" height="33.9688" rx="12.5" ry="12.5" style="stroke:#181818;stroke-width:0.5;" width="161.3989" x="30" y="659.2969"/><text fill="#000000" font-family="sans-serif" font-size="12" lengthAdjust="spacing" textLength="141.3989" x="40" y="680.4355">podman logs &#12467;&#12531;&#12486;&#12490;&#21517;</text><rect fill="#F1F1F1" height="33.9688" rx="12.5" ry="12.5" style="stroke:#181818;stroke-width:0.5;" width="92.0005" x="64.6992" y="728.2656"/><text fill="#000000" font-family="sans-serif" font-size="12" lengthAdjust="spacing" textLength="72.0005" x="74.6992" y="749.4043">&#19981;&#35201;&#12394;&#12425;&#21066;&#38500;</text><rect fill="#F1F1F1" height="33.9688" rx="12.5" ry="12.5" style="stroke:#181818;stroke-width:0.5;" width="153.477" x="33.9609" y="797.2344"/><text fill="#000000" font-family="sans-serif" font-size="12" lengthAdjust="spacing" textLength="133.477" x="43.9609" y="818.373">podman rm &#12467;&#12531;&#12486;&#12490;&#21517;</text><polygon fill="none" points="221.3989,554.0313,338.8106,554.0313,345.8106,576.3281,455.5439,576.3281,455.5439,713.2656,221.3989,713.2656,221.3989,554.0313" style="stroke:#000000;stroke-width:1.5;"/><line style="stroke:#000000;stroke-width:1.5;" x1="221.3989" x2="345.8106" y1="576.3281" y2="576.3281"/><text fill="#000000" font-family="sans-serif" font-size="14" lengthAdjust="spacing" textLength="111.4117" x="225.3989" y="569.0264">5B. &#23455;&#34892;&#20013;&#12398;&#25805;&#20316;</text><rect fill="#F1F1F1" height="33.9688" rx="12.5" ry="12.5" style="stroke:#181818;stroke-width:0.5;" width="68.0004" x="304.4712" y="590.3281"/><text fill="#000000" font-family="sans-serif" font-size="12" lengthAdjust="spacing" textLength="48.0004" x="314.4712" y="611.4668">&#20013;&#12395;&#20837;&#12427;</text><rect fill="#F1F1F1" height="33.9688" rx="12.5" ry="12.5" style="stroke:#181818;stroke-width:0.5;" width="214.145" x="231.3989" y="659.2969"/><text fill="#000000" font-family="sans-serif" font-size="12" lengthAdjust="spacing" textLength="194.145" x="241.3989" y="680.4355">podman exec -it &#12467;&#12531;&#12486;&#12490;&#21517; bash</text><polygon fill="#F1F1F1" points="224.5854,857.2031,236.5854,869.2031,224.5854,881.2031,212.5854,869.2031,224.5854,857.2031" style="stroke:#181818;stroke-width:0.5;"/><polygon fill="none" points="136.895,891.2031,258.7022,891.2031,265.7022,913.5,312.2758,913.5,312.2758,981.4688,136.895,981.4688,136.895,891.2031" style="stroke:#000000;stroke-width:1.5;"/><line style="stroke:#000000;stroke-width:1.5;" x1="136.895" x2="265.7022" y1="913.5" y2="913.5"/><text fill="#000000" font-family="sans-serif" font-size="14" lengthAdjust="spacing" textLength="115.8072" x="140.895" y="906.1982">6. &#12362;&#25475;&#38500;&#65288;&#20219;&#24847;&#65289;</text><rect fill="#F1F1F1" height="33.9688" rx="12.5" ry="12.5" style="stroke:#181818;stroke-width:0.5;" width="155.3809" x="146.895" y="927.5"/><text fill="#000000" font-family="sans-serif" font-size="12" lengthAdjust="spacing" textLength="135.3809" x="156.895" y="948.6387">podman system prune</text><ellipse cx="224.5854" cy="1012.4688" fill="none" rx="11" ry="11" style="stroke:#222222;stroke-width:1;"/><ellipse cx="224.5854" cy="1012.4688" fill="#222222" rx="6" ry="6" style="stroke:#222222;stroke-width:1;"/><line style="stroke:#181818;stroke-width:1;" x1="224.5854" x2="224.5854" y1="110.2656" y2="145.2656"/><polygon fill="#181818" points="220.5854,135.2656,224.5854,145.2656,228.5854,135.2656,224.5854,139.2656" style="stroke:#181818;stroke-width:1;"/><line style="stroke:#181818;stroke-width:1;" x1="224.5854" x2="224.5854" y1="30" y2="76.2969"/><polygon fill="#181818" points="220.5854,66.2969,224.5854,76.2969,228.5854,66.2969,224.5854,70.2969" style="stroke:#181818;stroke-width:1;"/><line style="stroke:#181818;stroke-width:1;" x1="224.5854" x2="224.5854" y1="179.2344" y2="245.5313"/><polygon fill="#181818" points="220.5854,235.5313,224.5854,245.5313,228.5854,235.5313,224.5854,239.5313" style="stroke:#181818;stroke-width:1;"/><line style="stroke:#181818;stroke-width:1;" x1="224.5854" x2="224.5854" y1="279.5" y2="345.7969"/><polygon fill="#181818" points="220.5854,335.7969,224.5854,345.7969,228.5854,335.7969,224.5854,339.7969" style="stroke:#181818;stroke-width:1;"/><line style="stroke:#181818;stroke-width:1;" x1="224.5854" x2="224.5854" y1="379.7656" y2="446.0625"/><polygon fill="#181818" points="220.5854,436.0625,224.5854,446.0625,228.5854,436.0625,224.5854,440.0625" style="stroke:#181818;stroke-width:1;"/><line style="stroke:#181818;stroke-width:1;" x1="110.6994" x2="110.6994" y1="624.2969" y2="659.2969"/><polygon fill="#181818" points="106.6994,649.2969,110.6994,659.2969,114.6994,649.2969,110.6994,653.2969" style="stroke:#181818;stroke-width:1;"/><line style="stroke:#181818;stroke-width:1;" x1="110.6994" x2="110.6994" y1="693.2656" y2="728.2656"/><polygon fill="#181818" points="106.6994,718.2656,110.6994,728.2656,114.6994,718.2656,110.6994,722.2656" style="stroke:#181818;stroke-width:1;"/><line style="stroke:#181818;stroke-width:1;" x1="110.6994" x2="110.6994" y1="762.2344" y2="797.2344"/><polygon fill="#181818" points="106.6994,787.2344,110.6994,797.2344,114.6994,787.2344,110.6994,791.2344" style="stroke:#181818;stroke-width:1;"/><line style="stroke:#181818;stroke-width:1;" x1="338.4714" x2="338.4714" y1="624.2969" y2="659.2969"/><polygon fill="#181818" points="334.4714,649.2969,338.4714,659.2969,342.4714,649.2969,338.4714,653.2969" style="stroke:#181818;stroke-width:1;"/><line style="stroke:#181818;stroke-width:1;" x1="174.0857" x2="110.6994" y1="532.0313" y2="532.0313"/><line style="stroke:#181818;stroke-width:1;" x1="110.6994" x2="110.6994" y1="532.0313" y2="590.3281"/><polygon fill="#181818" points="106.6994,580.3281,110.6994,590.3281,114.6994,580.3281,110.6994,584.3281" style="stroke:#181818;stroke-width:1;"/><line style="stroke:#181818;stroke-width:1;" x1="275.0852" x2="338.4714" y1="532.0313" y2="532.0313"/><line style="stroke:#181818;stroke-width:1;" x1="338.4714" x2="338.4714" y1="532.0313" y2="590.3281"/><polygon fill="#181818" points="334.4714,580.3281,338.4714,590.3281,342.4714,580.3281,338.4714,584.3281" style="stroke:#181818;stroke-width:1;"/><line style="stroke:#181818;stroke-width:1;" x1="110.6994" x2="110.6994" y1="831.2031" y2="869.2031"/><line style="stroke:#181818;stroke-width:1;" x1="110.6994" x2="212.5854" y1="869.2031" y2="869.2031"/><polygon fill="#181818" points="202.5854,865.2031,212.5854,869.2031,202.5854,873.2031,206.5854,869.2031" style="stroke:#181818;stroke-width:1;"/><line style="stroke:#181818;stroke-width:1;" x1="338.4714" x2="338.4714" y1="693.2656" y2="869.2031"/><line style="stroke:#181818;stroke-width:1;" x1="338.4714" x2="236.5854" y1="869.2031" y2="869.2031"/><polygon fill="#181818" points="246.5854,865.2031,236.5854,869.2031,246.5854,873.2031,242.5854,869.2031" style="stroke:#181818;stroke-width:1;"/><line style="stroke:#181818;stroke-width:1;" x1="224.5854" x2="224.5854" y1="480.0313" y2="520.0313"/><polygon fill="#181818" points="220.5854,510.0313,224.5854,520.0313,228.5854,510.0313,224.5854,514.0313" style="stroke:#181818;stroke-width:1;"/><line style="stroke:#181818;stroke-width:1;" x1="224.5854" x2="224.5854" y1="881.2031" y2="927.5"/><polygon fill="#181818" points="220.5854,917.5,224.5854,927.5,228.5854,917.5,224.5854,921.5" style="stroke:#181818;stroke-width:1;"/><line style="stroke:#181818;stroke-width:1;" x1="224.5854" x2="224.5854" y1="961.4688" y2="1001.4688"/><polygon fill="#181818" points="220.5854,991.4688,224.5854,1001.4688,228.5854,991.4688,224.5854,995.4688" style="stroke:#181818;stroke-width:1;"/><!--SRC=[TP9DQzj048Rl-XL3JiuXWduUwbDApxsqbr9wsCXZPx6qKdVNu51oiBPrOpTkJH8AWK98I4D9I0YKWh7T_fdLXtloN-XQCiPoA0WTTcQVzz6CH9soW73YGK2SEgdX2xdZ8d1q964r5osnQAXWbJHS-HARSjEbDUOXa-2O5tBB4f9mQLbp2ApTio4zk8tFL3By6eV7Q_3E0dZop7VgoAlK9EZm83twaRp_KfuLEBvjK8upfB1bKyxAqUzloLw_REqkOU_RfdAkrQbMOnqETEj6gqEjhhJgp2C2l-8H1biDwbPWGnRQutuFx2BmmHrWUZQSNFQcuxreD39wq_4AcNhceYXI7iueFxKoJrkhhg7aybgDufkJoUb-4S4R35xxWQG-4szM3JCohK9fcPZ-2gDXUpe-MGUvZGnAhr2i6-B2uD6c6NZM5F_PD_dnnukqtyvZJR1MrpgypJ-jd1_DNLo_9WhocKBU4WrwaukMRbtgi1Dtkd-FpujtkNVt9i2kXQv0A3ttYuPFRSY74GskZM5os3D3MXXcXrVnX-yw_5HCmIOwi47bQXPi4R4z3sGLMbtQnsEpZrOt-QoCylytANQ4HFFZctLWDdKX_U0V]--></g></svg>