<svg xmlns="http://www.w3.org/2000/svg" xmlns:xlink="http://www.w3.org/1999/xlink" contentStyleType="text/css" data-diagram-type="CLASS" height="338px" preserveAspectRatio="none" style="width:940px;height:338px;background:#FFFFFF;" version="1.1" viewBox="0 0 940 338" width="940px" zoomAndPan="magnify"><title>&#26368;&#36817;&#12398;PC&#12395;&#12362;&#12369;&#12427;OS&#12452;&#12531;&#12473;&#12488;&#12540;&#12523;&#21487;&#21542;&#12392;BIOS&#35373;&#23450;&#12398;&#38306;&#20418;</title><defs/><g><g class="title" data-source-line="1"><text fill="#000000" font-family="sans-serif" font-size="14" font-weight="bold" lengthAdjust="spacing" textLength="374.3825" x="275.8087" y="22.9951">&#26368;&#36817;&#12398;PC&#12395;&#12362;&#12369;&#12427;OS&#12452;&#12531;&#12473;&#12488;&#12540;&#12523;&#21487;&#21542;&#12392;BIOS&#35373;&#23450;&#12398;&#38306;&#20418;</text></g><!--cluster PC?????--><g class="cluster" data-entity="PC&#35373;&#23450;&#12392;&#35201;&#22240;" data-source-line="3" data-uid="ent0002" id="cluster_PC&#35373;&#23450;&#12392;&#35201;&#22240;"><path d="M8.5,51.4369 L100.0349,51.4369 A3.75,3.75 0 0 1 102.5349,53.9369 L109.5349,73.7338 L405.5,73.7338 A2.5,2.5 0 0 1 408,76.2338 L408,329.2769 A2.5,2.5 0 0 1 405.5,331.7769 L8.5,331.7769 A2.5,2.5 0 0 1 6,329.2769 L6,53.9369 A2.5,2.5 0 0 1 8.5,51.4369" fill="none" style="stroke:#000000;stroke-width:1.5;"/><line style="stroke:#000000;stroke-width:1.5;" x1="6" x2="109.5349" y1="73.7338" y2="73.7338"/><text fill="#000000" font-family="sans-serif" font-size="14" font-weight="bold" lengthAdjust="spacing" textLength="90.5349" x="10" y="66.432">PC&#35373;&#23450;&#12392;&#35201;&#22240;</text></g><!--cluster OS?????--><g class="cluster" data-entity="OS&#12372;&#12392;&#12398;&#35201;&#20214;" data-source-line="29" data-uid="ent0010" id="cluster_OS&#12372;&#12392;&#12398;&#35201;&#20214;"><path d="M434.5,43.2969 L527.4841,43.2969 A3.75,3.75 0 0 1 529.9841,45.7969 L536.9841,65.5938 L930.5,65.5938 A2.5,2.5 0 0 1 933,68.0938 L933,188.6869 A2.5,2.5 0 0 1 930.5,191.1869 L434.5,191.1869 A2.5,2.5 0 0 1 432,188.6869 L432,45.7969 A2.5,2.5 0 0 1 434.5,43.2969" fill="none" style="stroke:#000000;stroke-width:1.5;"/><line style="stroke:#000000;stroke-width:1.5;" x1="432" x2="536.9841" y1="65.5938" y2="65.5938"/><text fill="#000000" font-family="sans-serif" font-size="14" font-weight="bold" lengthAdjust="spacing" textLength="91.9841" x="436" y="58.292">OS&#12372;&#12392;&#12398;&#35201;&#20214;</text></g><!--class BIOS???--><g class="entity" data-entity="BIOS&#12514;&#12540;&#12489;" data-source-line="4" data-uid="ent0003" id="entity_BIOS&#12514;&#12540;&#12489;"><rect fill="#F1F1F1" height="80.5938" rx="2.5" ry="2.5" style="stroke:#181818;stroke-width:0.5;" width="107.6395" x="22.18" y="86.4369"/><ellipse cx="37.18" cy="102.4369" fill="#ADD1B2" rx="11" ry="11" style="stroke:#181818;stroke-width:1;"/><path d="M40.1488,108.0775 Q39.5706,108.3744 38.93,108.515 Q38.2894,108.6713 37.5863,108.6713 Q35.0863,108.6713 33.7581,107.0306 Q32.4456,105.3744 32.4456,102.2494 Q32.4456,99.1244 33.7581,97.4681 Q35.0863,95.8119 37.5863,95.8119 Q38.2894,95.8119 38.93,95.9681 Q39.5863,96.1244 40.1488,96.4213 L40.1488,99.14 Q39.5238,98.5619 38.93,98.2963 Q38.3363,98.015 37.7113,98.015 Q36.3675,98.015 35.68,99.0931 Q34.9925,100.1556 34.9925,102.2494 Q34.9925,104.3431 35.68,105.4213 Q36.3675,106.4838 37.7113,106.4838 Q38.3363,106.4838 38.93,106.2181 Q39.5238,105.9369 40.1488,105.3588 L40.1488,108.0775 Z " fill="#000000"/><text fill="#000000" font-family="sans-serif" font-size="14" lengthAdjust="spacing" textLength="75.6395" x="51.18" y="107.2836">BIOS&#12514;&#12540;&#12489;</text><line style="stroke:#181818;stroke-width:0.5;" x1="23.18" x2="128.8195" y1="118.4369" y2="118.4369"/><ellipse cx="33.18" cy="132.0853" fill="none" rx="3" ry="3" style="stroke:#038048;stroke-width:1;"/><text fill="#000000" font-family="sans-serif" font-size="14" lengthAdjust="spacing" textLength="31.2744" x="42.18" y="135.432">UEFI</text><ellipse cx="33.18" cy="148.3822" fill="none" rx="3" ry="3" style="stroke:#038048;stroke-width:1;"/><text fill="#000000" font-family="sans-serif" font-size="14" lengthAdjust="spacing" textLength="49.8613" x="42.18" y="151.7289">Legacy</text><line style="stroke:#181818;stroke-width:0.5;" x1="23.18" x2="128.8195" y1="159.0306" y2="159.0306"/></g><!--class ???????--><g class="entity" data-entity="&#12475;&#12461;&#12517;&#12450;&#12502;&#12540;&#12488;" data-source-line="9" data-uid="ent0004" id="entity_&#12475;&#12461;&#12517;&#12450;&#12502;&#12540;&#12488;"><rect fill="#F1F1F1" height="80.5938" rx="2.5" ry="2.5" style="stroke:#181818;stroke-width:0.5;" width="129.9996" x="165" y="86.4369"/><ellipse cx="180" cy="102.4369" fill="#ADD1B2" rx="11" ry="11" style="stroke:#181818;stroke-width:1;"/><path d="M182.9688,108.0775 Q182.3906,108.3744 181.75,108.515 Q181.1094,108.6713 180.4063,108.6713 Q177.9063,108.6713 176.5781,107.0306 Q175.2656,105.3744 175.2656,102.2494 Q175.2656,99.1244 176.5781,97.4681 Q177.9063,95.8119 180.4063,95.8119 Q181.1094,95.8119 181.75,95.9681 Q182.4063,96.1244 182.9688,96.4213 L182.9688,99.14 Q182.3438,98.5619 181.75,98.2963 Q181.1563,98.015 180.5313,98.015 Q179.1875,98.015 178.5,99.0931 Q177.8125,100.1556 177.8125,102.2494 Q177.8125,104.3431 178.5,105.4213 Q179.1875,106.4838 180.5313,106.4838 Q181.1563,106.4838 181.75,106.2181 Q182.3438,105.9369 182.9688,105.3588 L182.9688,108.0775 Z " fill="#000000"/><text fill="#000000" font-family="sans-serif" font-size="14" lengthAdjust="spacing" textLength="97.9996" x="194" y="107.2836">&#12475;&#12461;&#12517;&#12450;&#12502;&#12540;&#12488;</text><line style="stroke:#181818;stroke-width:0.5;" x1="166" x2="293.9996" y1="118.4369" y2="118.4369"/><ellipse cx="176" cy="132.0853" fill="none" rx="3" ry="3" style="stroke:#038048;stroke-width:1;"/><text fill="#000000" font-family="sans-serif" font-size="14" lengthAdjust="spacing" textLength="27.9999" x="185" y="135.432">&#26377;&#21177;</text><ellipse cx="176" cy="148.3822" fill="none" rx="3" ry="3" style="stroke:#038048;stroke-width:1;"/><text fill="#000000" font-family="sans-serif" font-size="14" lengthAdjust="spacing" textLength="27.9999" x="185" y="151.7289">&#28961;&#21177;</text><line style="stroke:#181818;stroke-width:0.5;" x1="166" x2="293.9996" y1="159.0306" y2="159.0306"/></g><!--class TPM--><g class="entity" data-entity="TPM" data-source-line="14" data-uid="ent0005" id="entity_TPM"><rect fill="#F1F1F1" height="80.5938" rx="2.5" ry="2.5" style="stroke:#181818;stroke-width:0.5;" width="61.0732" x="330.46" y="86.4369"/><ellipse cx="345.46" cy="102.4369" fill="#ADD1B2" rx="11" ry="11" style="stroke:#181818;stroke-width:1;"/><path d="M348.4288,108.0775 Q347.8506,108.3744 347.21,108.515 Q346.5694,108.6713 345.8663,108.6713 Q343.3663,108.6713 342.0381,107.0306 Q340.7256,105.3744 340.7256,102.2494 Q340.7256,99.1244 342.0381,97.4681 Q343.3663,95.8119 345.8663,95.8119 Q346.5694,95.8119 347.21,95.9681 Q347.8663,96.1244 348.4288,96.4213 L348.4288,99.14 Q347.8038,98.5619 347.21,98.2963 Q346.6163,98.015 345.9913,98.015 Q344.6475,98.015 343.96,99.0931 Q343.2725,100.1556 343.2725,102.2494 Q343.2725,104.3431 343.96,105.4213 Q344.6475,106.4838 345.9913,106.4838 Q346.6163,106.4838 347.21,106.2181 Q347.8038,105.9369 348.4288,105.3588 L348.4288,108.0775 Z " fill="#000000"/><text fill="#000000" font-family="sans-serif" font-size="14" lengthAdjust="spacing" textLength="29.0732" x="359.46" y="107.2836">TPM</text><line style="stroke:#181818;stroke-width:0.5;" x1="331.46" x2="390.5332" y1="118.4369" y2="118.4369"/><ellipse cx="341.46" cy="132.0853" fill="none" rx="3" ry="3" style="stroke:#038048;stroke-width:1;"/><text fill="#000000" font-family="sans-serif" font-size="14" lengthAdjust="spacing" textLength="27.9999" x="350.46" y="135.432">&#26377;&#21177;</text><ellipse cx="341.46" cy="148.3822" fill="none" rx="3" ry="3" style="stroke:#038048;stroke-width:1;"/><text fill="#000000" font-family="sans-serif" font-size="14" lengthAdjust="spacing" textLength="27.9999" x="350.46" y="151.7289">&#28961;&#21177;</text><line style="stroke:#181818;stroke-width:0.5;" x1="331.46" x2="390.5332" y1="159.0306" y2="159.0306"/></g><!--class OS????????--><g class="entity" data-entity="OS&#12452;&#12531;&#12473;&#12488;&#12540;&#12523;&#21487;&#21542;" data-source-line="19" data-uid="ent0006" id="entity_OS&#12452;&#12531;&#12473;&#12488;&#12540;&#12523;&#21487;&#21542;"><rect fill="#F1F1F1" height="80.5938" rx="2.5" ry="2.5" style="stroke:#181818;stroke-width:0.5;" width="163.9058" x="228.05" y="235.1869"/><ellipse cx="243.05" cy="251.1869" fill="#ADD1B2" rx="11" ry="11" style="stroke:#181818;stroke-width:1;"/><path d="M246.0188,256.8275 Q245.4406,257.1244 244.8,257.265 Q244.1594,257.4213 243.4563,257.4213 Q240.9563,257.4213 239.6281,255.7806 Q238.3156,254.1244 238.3156,250.9994 Q238.3156,247.8744 239.6281,246.2181 Q240.9563,244.5619 243.4563,244.5619 Q244.1594,244.5619 244.8,244.7181 Q245.4563,244.8744 246.0188,245.1713 L246.0188,247.89 Q245.3938,247.3119 244.8,247.0463 Q244.2063,246.765 243.5813,246.765 Q242.2375,246.765 241.55,247.8431 Q240.8625,248.9056 240.8625,250.9994 Q240.8625,253.0931 241.55,254.1713 Q242.2375,255.2338 243.5813,255.2338 Q244.2063,255.2338 244.8,254.9681 Q245.3938,254.6869 246.0188,254.1088 L246.0188,256.8275 Z " fill="#000000"/><text fill="#000000" font-family="sans-serif" font-size="14" lengthAdjust="spacing" textLength="131.9058" x="257.05" y="256.0336">OS&#12452;&#12531;&#12473;&#12488;&#12540;&#12523;&#21487;&#21542;</text><line style="stroke:#181818;stroke-width:0.5;" x1="229.05" x2="390.9558" y1="267.1869" y2="267.1869"/><ellipse cx="239.05" cy="280.8353" fill="none" rx="3" ry="3" style="stroke:#038048;stroke-width:1;"/><text fill="#000000" font-family="sans-serif" font-size="14" lengthAdjust="spacing" textLength="107.5977" x="248.05" y="284.182">Windows 10/11</text><line style="stroke:#181818;stroke-width:0.5;" x1="229.05" x2="390.9558" y1="291.4838" y2="291.4838"/><ellipse cx="239.05" cy="305.1322" fill="#84BE84" rx="3" ry="3" style="stroke:#038048;stroke-width:1;"/><text fill="#000000" font-family="sans-serif" font-size="14" lengthAdjust="spacing" textLength="132.3368" x="248.05" y="308.4789">Linux (Ubuntu&#12394;&#12393;)</text></g><!--class Windows??--><g class="entity" data-entity="Windows&#35201;&#20214;" data-source-line="30" data-uid="ent0011" id="entity_Windows&#35201;&#20214;"><rect fill="#F1F1F1" height="96.8906" rx="2.5" ry="2.5" style="stroke:#181818;stroke-width:0.5;" width="169.5819" x="448.21" y="78.2969"/><ellipse cx="484.2611" cy="94.2969" fill="#ADD1B2" rx="11" ry="11" style="stroke:#181818;stroke-width:1;"/><path d="M487.2299,99.9375 Q486.6517,100.2344 486.0111,100.375 Q485.3705,100.5313 484.6674,100.5313 Q482.1674,100.5313 480.8392,98.8906 Q479.5267,97.2344 479.5267,94.1094 Q479.5267,90.9844 480.8392,89.3281 Q482.1674,87.6719 484.6674,87.6719 Q485.3705,87.6719 486.0111,87.8281 Q486.6674,87.9844 487.2299,88.2813 L487.2299,91 Q486.6049,90.4219 486.0111,90.1563 Q485.4174,89.875 484.7924,89.875 Q483.4486,89.875 482.7611,90.9531 Q482.0736,92.0156 482.0736,94.1094 Q482.0736,96.2031 482.7611,97.2813 Q483.4486,98.3438 484.7924,98.3438 Q485.4174,98.3438 486.0111,98.0781 Q486.6049,97.7969 487.2299,97.2188 L487.2299,99.9375 Z " fill="#000000"/><text fill="#000000" font-family="sans-serif" font-size="14" lengthAdjust="spacing" textLength="90.8016" x="502.9392" y="99.1436">Windows&#35201;&#20214;</text><line style="stroke:#181818;stroke-width:0.5;" x1="449.21" x2="616.7919" y1="110.2969" y2="110.2969"/><ellipse cx="459.21" cy="123.9453" fill="none" rx="3" ry="3" style="stroke:#038048;stroke-width:1;"/><text fill="#000000" font-family="sans-serif" font-size="14" lengthAdjust="spacing" textLength="59.2743" x="468.21" y="127.292">UEFI&#24517;&#38920;</text><ellipse cx="459.21" cy="140.2422" fill="none" rx="3" ry="3" style="stroke:#038048;stroke-width:1;"/><text fill="#000000" font-family="sans-serif" font-size="14" lengthAdjust="spacing" textLength="125.9995" x="468.21" y="143.5889">&#12475;&#12461;&#12517;&#12450;&#12502;&#12540;&#12488;&#25512;&#22888;</text><line style="stroke:#181818;stroke-width:0.5;" x1="449.21" x2="616.7919" y1="150.8906" y2="150.8906"/><ellipse cx="459.21" cy="164.5391" fill="#84BE84" rx="3" ry="3" style="stroke:#038048;stroke-width:1;"/><text fill="#000000" font-family="sans-serif" font-size="14" lengthAdjust="spacing" textLength="143.5819" x="468.21" y="167.8857">TPM 2.0&#24517;&#38920; (Win11)</text></g><!--class Linux??--><g class="entity" data-entity="Linux&#35201;&#20214;" data-source-line="36" data-uid="ent0012" id="entity_Linux&#35201;&#20214;"><rect fill="#F1F1F1" height="96.8906" rx="2.5" ry="2.5" style="stroke:#181818;stroke-width:0.5;" width="263.999" x="653" y="78.2969"/><ellipse cx="747.8892" cy="94.2969" fill="#ADD1B2" rx="11" ry="11" style="stroke:#181818;stroke-width:1;"/><path d="M750.8579,99.9375 Q750.2798,100.2344 749.6392,100.375 Q748.9986,100.5313 748.2954,100.5313 Q745.7954,100.5313 744.4673,98.8906 Q743.1548,97.2344 743.1548,94.1094 Q743.1548,90.9844 744.4673,89.3281 Q745.7954,87.6719 748.2954,87.6719 Q748.9986,87.6719 749.6392,87.8281 Q750.2954,87.9844 750.8579,88.2813 L750.8579,91 Q750.2329,90.4219 749.6392,90.1563 Q749.0454,89.875 748.4204,89.875 Q747.0767,89.875 746.3892,90.9531 Q745.7017,92.0156 745.7017,94.1094 Q745.7017,96.2031 746.3892,97.2813 Q747.0767,98.3438 748.4204,98.3438 Q749.0454,98.3438 749.6392,98.0781 Q750.2329,97.7969 750.8579,97.2188 L750.8579,99.9375 Z " fill="#000000"/><text fill="#000000" font-family="sans-serif" font-size="14" lengthAdjust="spacing" textLength="65.7206" x="768.3892" y="99.1436">Linux&#35201;&#20214;</text><line style="stroke:#181818;stroke-width:0.5;" x1="654" x2="915.999" y1="110.2969" y2="110.2969"/><ellipse cx="664" cy="123.9453" fill="none" rx="3" ry="3" style="stroke:#038048;stroke-width:1;"/><text fill="#000000" font-family="sans-serif" font-size="14" lengthAdjust="spacing" textLength="151.1354" x="673" y="127.292">UEFI&#12414;&#12383;&#12399;Legacy&#23550;&#24540;</text><ellipse cx="664" cy="140.2422" fill="none" rx="3" ry="3" style="stroke:#038048;stroke-width:1;"/><text fill="#000000" font-family="sans-serif" font-size="14" lengthAdjust="spacing" textLength="237.999" x="673" y="143.5889">&#12475;&#12461;&#12517;&#12450;&#12502;&#12540;&#12488;&#28961;&#21177;&#12364;&#25512;&#22888;&#12398;&#22580;&#21512;&#12354;&#12426;</text><ellipse cx="664" cy="156.5391" fill="none" rx="3" ry="3" style="stroke:#038048;stroke-width:1;"/><text fill="#000000" font-family="sans-serif" font-size="14" lengthAdjust="spacing" textLength="57.0731" x="673" y="159.8857">TPM&#19981;&#35201;</text><line style="stroke:#181818;stroke-width:0.5;" x1="654" x2="915.999" y1="167.1875" y2="167.1875"/></g><!--link BIOS??? to OS????????--><g class="link" data-entity-1="BIOS&#12514;&#12540;&#12489;" data-entity-2="OS&#12452;&#12531;&#12473;&#12488;&#12540;&#12523;&#21487;&#21542;" data-source-line="24" data-uid="lnk7" id="link_BIOS&#12514;&#12540;&#12489;_OS&#12452;&#12531;&#12473;&#12488;&#12540;&#12523;&#21487;&#21542;"><path codeLine="24" d="M111.15,167.4769 C122.23,178.6069 134.99,190.1269 148,199.1869 C172.43,216.1969 195.8449,228.5827 222.4149,240.4927" fill="none" id="BIOS&#12514;&#12540;&#12489;-to-OS&#12452;&#12531;&#12473;&#12488;&#12540;&#12523;&#21487;&#21542;" style="stroke:#181818;stroke-width:1;"/><polygon fill="#181818" points="227.89,242.9469,221.3135,235.6155,223.3274,240.9017,218.0412,242.9156,227.89,242.9469" style="stroke:#181818;stroke-width:1;"/></g><!--link ??????? to OS????????--><g class="link" data-entity-1="&#12475;&#12461;&#12517;&#12450;&#12502;&#12540;&#12488;" data-entity-2="OS&#12452;&#12531;&#12473;&#12488;&#12540;&#12523;&#21487;&#21542;" data-source-line="25" data-uid="lnk8" id="link_&#12475;&#12461;&#12517;&#12450;&#12502;&#12540;&#12488;_OS&#12452;&#12531;&#12473;&#12488;&#12540;&#12523;&#21487;&#21542;"><path codeLine="25" d="M251.65,167.4469 C263.03,188.3269 274.0787,208.5885 285.4587,229.4685" fill="none" id="&#12475;&#12461;&#12517;&#12450;&#12502;&#12540;&#12488;-to-OS&#12452;&#12531;&#12473;&#12488;&#12540;&#12523;&#21487;&#21542;" style="stroke:#181818;stroke-width:1;"/><polygon fill="#181818" points="288.33,234.7369,287.5352,224.9201,285.9372,230.3466,280.5108,228.7486,288.33,234.7369" style="stroke:#181818;stroke-width:1;"/></g><!--link TPM to OS????????--><g class="link" data-entity-1="TPM" data-entity-2="OS&#12452;&#12531;&#12473;&#12488;&#12540;&#12523;&#21487;&#21542;" data-source-line="26" data-uid="lnk9" id="link_TPM_OS&#12452;&#12531;&#12473;&#12488;&#12540;&#12523;&#21487;&#21542;"><path codeLine="26" d="M347.2,167.4469 C339.94,188.3269 333.0405,208.1897 325.7805,229.0697" fill="none" id="TPM-to-OS&#12452;&#12531;&#12473;&#12488;&#12540;&#12523;&#21487;&#21542;" style="stroke:#181818;stroke-width:1;"/><polygon fill="#181818" points="323.81,234.7369,330.5439,227.5497,325.4521,230.0142,322.9876,224.9224,323.81,234.7369" style="stroke:#181818;stroke-width:1;"/></g><!--link Windows?? to OS????????--><g class="link" data-entity-1="Windows&#35201;&#20214;" data-entity-2="OS&#12452;&#12531;&#12473;&#12488;&#12540;&#12523;&#21487;&#21542;" data-source-line="42" data-uid="lnk13" id="link_Windows&#35201;&#20214;_OS&#12452;&#12531;&#12473;&#12488;&#12540;&#12523;&#21487;&#21542;"><path codeLine="42" d="M460.29,175.5869 C431.18,194.7369 403.0617,213.2379 375.3217,231.4979" fill="none" id="Windows&#35201;&#20214;-to-OS&#12452;&#12531;&#12473;&#12488;&#12540;&#12523;&#21487;&#21542;" style="stroke:#181818;stroke-width:1;"/><polygon fill="#181818" points="370.31,234.7969,380.0268,233.1896,374.4864,232.0477,375.6282,226.5073,370.31,234.7969" style="stroke:#181818;stroke-width:1;"/></g><!--link Linux?? to OS????????--><g class="link" data-entity-1="Linux&#35201;&#20214;" data-entity-2="OS&#12452;&#12531;&#12473;&#12488;&#12540;&#12523;&#21487;&#21542;" data-source-line="43" data-uid="lnk14" id="link_Linux&#35201;&#20214;_OS&#12452;&#12531;&#12473;&#12488;&#12540;&#12523;&#21487;&#21542;"><path codeLine="43" d="M692.7,175.5369 C673.91,184.1669 654.06,192.5269 635,199.1869 C554.35,227.3569 464.6471,246.9503 398.0871,259.4403" fill="none" id="Linux&#35201;&#20214;-to-OS&#12452;&#12531;&#12473;&#12488;&#12540;&#12523;&#21487;&#21542;" style="stroke:#181818;stroke-width:1;"/><polygon fill="#181818" points="392.19,260.5469,401.7733,262.8184,397.1042,259.6247,400.2979,254.9556,392.19,260.5469" style="stroke:#181818;stroke-width:1;"/></g><!--SRC=[dL9TIm9157tVNp7uf8JbzWDwI0g4Gi6avyr49B50fIA4PhPWjI-5yA64J5AsH7qe8Z7S7tETJVz5uswsEw8fpTkTUy-vzvvpKx5KF8BqqcbVAm1k1ho0wu1pW0j0Bln184yWlm9fWwo0_0bodTwqQBu6M5tr-ODzjK6RTmmtA5Pw6X640ocy9qKZo17mZd9gluRfVTc1JWJ4NZWk9PF8CKI3N34uiwFSy2s4rjPzLhGHYKhXOoFE27O281qW3P2hG1XBqI1IE2AzbAMvjXL_dJsEOfvgAx3vF-1qVJY-xLXYT_ymYKJFaYZQLeibqaV86Tf99r9fm2-0drts9kCQkTqhVxOqGLDqcGziA36pD6FpcTNXMsOokm7cSw_pFkRpp-vyxjTdgfqFoehrDt5u_LgbLTKgOaEYvKMFYKLEra4KNHFSCVITqXXm5_03u9PvNxJLfLffnXpc6G2-D0TY6zFo6yqhW0cG73TVx-EADURC71DYFZ-u5MRxyWq0]--></g></svg>