<svg xmlns="http://www.w3.org/2000/svg" xmlns:xlink="http://www.w3.org/1999/xlink" contentStyleType="text/css" data-diagram-type="SEQUENCE" height="1272px" preserveAspectRatio="none" style="width:707px;height:1272px;background:#FFFFFF;" version="1.1" viewBox="0 0 707 1272" width="707px" zoomAndPan="magnify"><title>&#25152;&#26377;&#31471;&#26411;&#65288;&#12375;&#12540;&#12369;&#12435;&#12377;&#12378;&#65289; - &#27231;&#31278;&#21029;&#12539;&#24615;&#33021;&#38918;</title><defs/><g><text fill="#000000" font-family="sans-serif" font-size="14" font-weight="bold" lengthAdjust="spacing" textLength="281.5574" x="209.1815" y="27.9951">&#25152;&#26377;&#31471;&#26411;&#65288;&#12375;&#12540;&#12369;&#12435;&#12377;&#12378;&#65289; - &#27231;&#31278;&#21029;&#12539;&#24615;&#33021;&#38918;</text><g><title>&#12518;&#12540;&#12470;&#12540;</title><rect fill="#000000" fill-opacity="0.00000" height="1040.1875" width="8" x="59.9998" y="134.8906"/><line style="stroke:#181818;stroke-width:0.5;stroke-dasharray:5.0,5.0;" x1="63" x2="63" y1="134.8906" y2="1175.0781"/></g><g><title>spec</title><rect fill="#000000" fill-opacity="0.00000" height="1040.1875" width="8" x="152.2451" y="134.8906"/><line style="stroke:#181818;stroke-width:0.5;stroke-dasharray:5.0,5.0;" x1="155.9995" x2="155.9995" y1="134.8906" y2="1175.0781"/></g><g><title>seinou</title><rect fill="#000000" fill-opacity="0.00000" height="1040.1875" width="8" x="215.5449" y="134.8906"/><line style="stroke:#181818;stroke-width:0.5;stroke-dasharray:5.0,5.0;" x1="219.4907" x2="219.4907" y1="134.8906" y2="1175.0781"/></g><g><title>os</title><rect fill="#000000" fill-opacity="0.00000" height="1040.1875" width="8" x="270.5288" y="134.8906"/><line style="stroke:#181818;stroke-width:0.5;stroke-dasharray:5.0,5.0;" x1="273.5991" x2="273.5991" y1="134.8906" y2="1175.0781"/></g><g><title>soft</title><rect fill="#000000" fill-opacity="0.00000" height="1040.1875" width="8" x="369.6318" y="134.8906"/><line style="stroke:#181818;stroke-width:0.5;stroke-dasharray:5.0,5.0;" x1="373.4932" x2="373.4932" y1="134.8906" y2="1175.0781"/></g><g><title>mobile</title><rect fill="#000000" fill-opacity="0.00000" height="1040.1875" width="8" x="430.5117" y="134.8906"/><line style="stroke:#181818;stroke-width:0.5;stroke-dasharray:5.0,5.0;" x1="433.7705" x2="433.7705" y1="134.8906" y2="1175.0781"/></g><g><title>useful</title><rect fill="#000000" fill-opacity="0.00000" height="1040.1875" width="8" x="499.4888" y="134.8906"/><line style="stroke:#181818;stroke-width:0.5;stroke-dasharray:5.0,5.0;" x1="503.2529" x2="503.2529" y1="134.8906" y2="1175.0781"/></g><g><title>probrem</title><rect fill="#000000" fill-opacity="0.00000" height="1040.1875" width="8" x="574.7754" y="134.8906"/><line style="stroke:#181818;stroke-width:0.5;stroke-dasharray:5.0,5.0;" x1="578.7246" x2="578.7246" y1="134.8906" y2="1175.0781"/></g><g class="participant participant-head" data-participant="User"><text fill="#000000" font-family="sans-serif" font-size="14" lengthAdjust="spacing" textLength="55.9998" x="32.9999" y="115.292">&#12518;&#12540;&#12470;&#12540;</text><text fill="#000000" font-family="sans-serif" font-size="14" lengthAdjust="spacing" textLength="111.9995" x="5" y="131.5889">&#65288;&#12375;&#12540;&#12369;&#12435;&#12377;&#12378;&#65289;</text><ellipse cx="63.9998" cy="50.7969" fill="#E2E2F0" rx="8" ry="8" style="stroke:#181818;stroke-width:0.5;"/><path d="M63.9998,58.7969 L63.9998,85.7969 M50.9998,66.7969 L76.9998,66.7969 M63.9998,85.7969 L50.9998,100.7969 M63.9998,85.7969 L76.9998,100.7969" fill="none" style="stroke:#181818;stroke-width:0.5;"/></g><g class="participant participant-tail" data-participant="User"><text fill="#000000" font-family="sans-serif" font-size="14" lengthAdjust="spacing" textLength="55.9998" x="32.9999" y="1187.0732">&#12518;&#12540;&#12470;&#12540;</text><text fill="#000000" font-family="sans-serif" font-size="14" lengthAdjust="spacing" textLength="111.9995" x="5" y="1203.3701">&#65288;&#12375;&#12540;&#12369;&#12435;&#12377;&#12378;&#65289;</text><ellipse cx="63.9998" cy="1215.1719" fill="#E2E2F0" rx="8" ry="8" style="stroke:#181818;stroke-width:0.5;"/><path d="M63.9998,1223.1719 L63.9998,1250.1719 M50.9998,1231.1719 L76.9998,1231.1719 M63.9998,1250.1719 L50.9998,1265.1719 M63.9998,1250.1719 L76.9998,1265.1719" fill="none" style="stroke:#181818;stroke-width:0.5;"/></g><g class="participant participant-head" data-participant="spec"><rect fill="#E2E2F0" height="30.2969" rx="2.5" ry="2.5" style="stroke:#181818;stroke-width:0.5;" width="46.4912" x="132.9995" y="103.5938"/><text fill="#000000" font-family="sans-serif" font-size="14" lengthAdjust="spacing" textLength="32.4912" x="139.9995" y="123.5889">spec</text></g><g class="participant participant-tail" data-participant="spec"><rect fill="#E2E2F0" height="30.2969" rx="2.5" ry="2.5" style="stroke:#181818;stroke-width:0.5;" width="46.4912" x="132.9995" y="1174.0781"/><text fill="#000000" font-family="sans-serif" font-size="14" lengthAdjust="spacing" textLength="32.4912" x="139.9995" y="1194.0732">spec</text></g><g class="participant participant-head" data-participant="seinou"><rect fill="#E2E2F0" height="30.2969" rx="2.5" ry="2.5" style="stroke:#181818;stroke-width:0.5;" width="60.1084" x="189.4907" y="103.5938"/><text fill="#000000" font-family="sans-serif" font-size="14" lengthAdjust="spacing" textLength="46.1084" x="196.4907" y="123.5889">seinou</text></g><g class="participant participant-tail" data-participant="seinou"><rect fill="#E2E2F0" height="30.2969" rx="2.5" ry="2.5" style="stroke:#181818;stroke-width:0.5;" width="60.1084" x="189.4907" y="1174.0781"/><text fill="#000000" font-family="sans-serif" font-size="14" lengthAdjust="spacing" textLength="46.1084" x="196.4907" y="1194.0732">seinou</text></g><g class="participant participant-head" data-participant="os"><rect fill="#E2E2F0" height="30.2969" rx="2.5" ry="2.5" style="stroke:#181818;stroke-width:0.5;" width="29.8594" x="259.5991" y="103.5938"/><text fill="#000000" font-family="sans-serif" font-size="14" lengthAdjust="spacing" textLength="15.8594" x="266.5991" y="123.5889">os</text></g><g class="participant participant-tail" data-participant="os"><rect fill="#E2E2F0" height="30.2969" rx="2.5" ry="2.5" style="stroke:#181818;stroke-width:0.5;" width="29.8594" x="259.5991" y="1174.0781"/><text fill="#000000" font-family="sans-serif" font-size="14" lengthAdjust="spacing" textLength="15.8594" x="266.5991" y="1194.0732">os</text></g><g class="participant participant-head" data-participant="soft"><rect fill="#E2E2F0" height="30.2969" rx="2.5" ry="2.5" style="stroke:#181818;stroke-width:0.5;" width="40.2773" x="353.4932" y="103.5938"/><text fill="#000000" font-family="sans-serif" font-size="14" lengthAdjust="spacing" textLength="26.2773" x="360.4932" y="123.5889">soft</text></g><g class="participant participant-tail" data-participant="soft"><rect fill="#E2E2F0" height="30.2969" rx="2.5" ry="2.5" style="stroke:#181818;stroke-width:0.5;" width="40.2773" x="353.4932" y="1174.0781"/><text fill="#000000" font-family="sans-serif" font-size="14" lengthAdjust="spacing" textLength="26.2773" x="360.4932" y="1194.0732">soft</text></g><g class="participant participant-head" data-participant="mobile"><rect fill="#E2E2F0" height="30.2969" rx="2.5" ry="2.5" style="stroke:#181818;stroke-width:0.5;" width="61.4824" x="403.7705" y="103.5938"/><text fill="#000000" font-family="sans-serif" font-size="14" lengthAdjust="spacing" textLength="47.4824" x="410.7705" y="123.5889">mobile</text></g><g class="participant participant-tail" data-participant="mobile"><rect fill="#E2E2F0" height="30.2969" rx="2.5" ry="2.5" style="stroke:#181818;stroke-width:0.5;" width="61.4824" x="403.7705" y="1174.0781"/><text fill="#000000" font-family="sans-serif" font-size="14" lengthAdjust="spacing" textLength="47.4824" x="410.7705" y="1194.0732">mobile</text></g><g class="participant participant-head" data-participant="useful"><rect fill="#E2E2F0" height="30.2969" rx="2.5" ry="2.5" style="stroke:#181818;stroke-width:0.5;" width="56.4717" x="475.2529" y="103.5938"/><text fill="#000000" font-family="sans-serif" font-size="14" lengthAdjust="spacing" textLength="42.4717" x="482.2529" y="123.5889">useful</text></g><g class="participant participant-tail" data-participant="useful"><rect fill="#E2E2F0" height="30.2969" rx="2.5" ry="2.5" style="stroke:#181818;stroke-width:0.5;" width="56.4717" x="475.2529" y="1174.0781"/><text fill="#000000" font-family="sans-serif" font-size="14" lengthAdjust="spacing" textLength="42.4717" x="482.2529" y="1194.0732">useful</text></g><g class="participant participant-head" data-participant="probrem"><rect fill="#E2E2F0" height="30.2969" rx="2.5" ry="2.5" style="stroke:#181818;stroke-width:0.5;" width="74.1016" x="541.7246" y="103.5938"/><text fill="#000000" font-family="sans-serif" font-size="14" lengthAdjust="spacing" textLength="60.1016" x="548.7246" y="123.5889">probrem</text></g><g class="participant participant-tail" data-participant="probrem"><rect fill="#E2E2F0" height="30.2969" rx="2.5" ry="2.5" style="stroke:#181818;stroke-width:0.5;" width="74.1016" x="541.7246" y="1174.0781"/><text fill="#000000" font-family="sans-serif" font-size="14" lengthAdjust="spacing" textLength="60.1016" x="548.7246" y="1194.0732">probrem</text></g><rect fill="#EEEEEE" height="3" style="stroke:#EEEEEE;stroke-width:1;" width="700.9204" x="0" y="165.457"/><line style="stroke:#000000;stroke-width:1;" x1="0" x2="700.9204" y1="165.457" y2="165.457"/><line style="stroke:#000000;stroke-width:1;" x1="0" x2="700.9204" y1="168.457" y2="168.457"/><rect fill="#EEEEEE" height="23.1328" style="stroke:#000000;stroke-width:2;" width="97.8018" x="301.5593" y="154.8906"/><text fill="#000000" font-family="sans-serif" font-size="13" font-weight="bold" lengthAdjust="spacing" textLength="79.2759" x="307.5593" y="170.9575">&#12510;&#12454;&#12473; DAIV</text><g class="message" data-participant-1="spec" data-participant-2="spec"><line style="stroke:#181818;stroke-width:1;" x1="156.2451" x2="198.2451" y1="209.1563" y2="209.1563"/><line style="stroke:#181818;stroke-width:1;" x1="198.2451" x2="198.2451" y1="209.1563" y2="222.1563"/><line style="stroke:#181818;stroke-width:1;" x1="157.2451" x2="198.2451" y1="222.1563" y2="222.1563"/><polygon fill="#181818" points="167.2451,218.1563,157.2451,222.1563,167.2451,226.1563,163.2451,222.1563" style="stroke:#181818;stroke-width:1;"/><text fill="#000000" font-family="sans-serif" font-size="13" lengthAdjust="spacing" textLength="32.1699" x="163.2451" y="204.0903">takai</text></g><g class="message" data-participant-1="os" data-participant-2="os"><line style="stroke:#181818;stroke-width:1;" x1="274.5288" x2="316.5288" y1="251.2891" y2="251.2891"/><line style="stroke:#181818;stroke-width:1;" x1="316.5288" x2="316.5288" y1="251.2891" y2="264.2891"/><line style="stroke:#181818;stroke-width:1;" x1="275.5288" x2="316.5288" y1="264.2891" y2="264.2891"/><polygon fill="#181818" points="285.5288,260.2891,275.5288,264.2891,285.5288,268.2891,281.5288,264.2891" style="stroke:#181818;stroke-width:1;"/><text fill="#000000" font-family="sans-serif" font-size="13" lengthAdjust="spacing" textLength="85.103" x="281.5288" y="246.2231">zorinos,nixos</text></g><g class="message" data-participant-1="probrem" data-participant-2="probrem"><line style="stroke:#181818;stroke-width:1;" x1="578.7754" x2="620.7754" y1="293.4219" y2="293.4219"/><line style="stroke:#181818;stroke-width:1;" x1="620.7754" x2="620.7754" y1="293.4219" y2="306.4219"/><line style="stroke:#181818;stroke-width:1;" x1="579.7754" x2="620.7754" y1="306.4219" y2="306.4219"/><polygon fill="#181818" points="589.7754,302.4219,579.7754,306.4219,589.7754,310.4219,585.7754,306.4219" style="stroke:#181818;stroke-width:1;"/><text fill="#000000" font-family="sans-serif" font-size="13" lengthAdjust="spacing" textLength="100.9976" x="585.7754" y="288.356">batteri motanai</text></g><g class="message" data-participant-1="probrem" data-participant-2="probrem"><line style="stroke:#181818;stroke-width:1;" x1="578.7754" x2="620.7754" y1="335.5547" y2="335.5547"/><line style="stroke:#181818;stroke-width:1;" x1="620.7754" x2="620.7754" y1="335.5547" y2="348.5547"/><line style="stroke:#181818;stroke-width:1;" x1="579.7754" x2="620.7754" y1="348.5547" y2="348.5547"/><polygon fill="#181818" points="589.7754,344.5547,579.7754,348.5547,589.7754,352.5547,585.7754,348.5547" style="stroke:#181818;stroke-width:1;"/><text fill="#000000" font-family="sans-serif" font-size="13" lengthAdjust="spacing" textLength="108.145" x="585.7754" y="330.4888">adaputa kosyou,</text></g><rect fill="#EEEEEE" height="3" style="stroke:#EEEEEE;stroke-width:1;" width="700.9204" x="0" y="377.1211"/><line style="stroke:#000000;stroke-width:1;" x1="0" x2="700.9204" y1="377.1211" y2="377.1211"/><line style="stroke:#000000;stroke-width:1;" x1="0" x2="700.9204" y1="380.1211" y2="380.1211"/><rect fill="#EEEEEE" height="23.1328" style="stroke:#000000;stroke-width:2;" width="141.6006" x="279.6599" y="366.5547"/><text fill="#000000" font-family="sans-serif" font-size="13" font-weight="bold" lengthAdjust="spacing" textLength="123.0747" x="285.6599" y="382.6216">EPSON Endeavor</text><g class="message" data-participant-1="spec" data-participant-2="spec"><line style="stroke:#181818;stroke-width:1;" x1="156.2451" x2="198.2451" y1="420.8203" y2="420.8203"/><line style="stroke:#181818;stroke-width:1;" x1="198.2451" x2="198.2451" y1="420.8203" y2="433.8203"/><line style="stroke:#181818;stroke-width:1;" x1="157.2451" x2="198.2451" y1="433.8203" y2="433.8203"/><polygon fill="#181818" points="167.2451,429.8203,157.2451,433.8203,167.2451,437.8203,163.2451,433.8203" style="stroke:#181818;stroke-width:1;"/><text fill="#000000" font-family="sans-serif" font-size="13" lengthAdjust="spacing" textLength="32.1699" x="163.2451" y="415.7544">takai</text></g><g class="message" data-participant-1="probrem" data-participant-2="probrem"><line style="stroke:#181818;stroke-width:1;" x1="578.7754" x2="620.7754" y1="462.9531" y2="462.9531"/><line style="stroke:#181818;stroke-width:1;" x1="620.7754" x2="620.7754" y1="462.9531" y2="475.9531"/><line style="stroke:#181818;stroke-width:1;" x1="579.7754" x2="620.7754" y1="475.9531" y2="475.9531"/><polygon fill="#181818" points="589.7754,471.9531,579.7754,475.9531,589.7754,479.9531,585.7754,475.9531" style="stroke:#181818;stroke-width:1;"/><text fill="#000000" font-family="sans-serif" font-size="13" lengthAdjust="spacing" textLength="100.9976" x="585.7754" y="457.8872">batteri motanai</text></g><rect fill="#EEEEEE" height="3" style="stroke:#EEEEEE;stroke-width:1;" width="700.9204" x="0" y="504.5195"/><line style="stroke:#000000;stroke-width:1;" x1="0" x2="700.9204" y1="504.5195" y2="504.5195"/><line style="stroke:#000000;stroke-width:1;" x1="0" x2="700.9204" y1="507.5195" y2="507.5195"/><rect fill="#EEEEEE" height="23.1328" style="stroke:#000000;stroke-width:2;" width="55.1138" x="322.9033" y="493.9531"/><text fill="#000000" font-family="sans-serif" font-size="13" font-weight="bold" lengthAdjust="spacing" textLength="36.5879" x="328.9033" y="510.02">ELSA</text><g class="message" data-participant-1="spec" data-participant-2="spec"><line style="stroke:#181818;stroke-width:1;" x1="156.2451" x2="198.2451" y1="548.2188" y2="548.2188"/><line style="stroke:#181818;stroke-width:1;" x1="198.2451" x2="198.2451" y1="548.2188" y2="561.2188"/><line style="stroke:#181818;stroke-width:1;" x1="157.2451" x2="198.2451" y1="561.2188" y2="561.2188"/><polygon fill="#181818" points="167.2451,557.2188,157.2451,561.2188,167.2451,565.2188,163.2451,561.2188" style="stroke:#181818;stroke-width:1;"/><text fill="#000000" font-family="sans-serif" font-size="13" lengthAdjust="spacing" textLength="32.1699" x="163.2451" y="543.1528">takai</text></g><g class="message" data-participant-1="probrem" data-participant-2="probrem"><line style="stroke:#181818;stroke-width:1;" x1="578.7754" x2="620.7754" y1="590.3516" y2="590.3516"/><line style="stroke:#181818;stroke-width:1;" x1="620.7754" x2="620.7754" y1="590.3516" y2="603.3516"/><line style="stroke:#181818;stroke-width:1;" x1="579.7754" x2="620.7754" y1="603.3516" y2="603.3516"/><polygon fill="#181818" points="589.7754,599.3516,579.7754,603.3516,589.7754,607.3516,585.7754,603.3516" style="stroke:#181818;stroke-width:1;"/><text fill="#000000" font-family="sans-serif" font-size="13" lengthAdjust="spacing" textLength="100.9976" x="585.7754" y="585.2856">batteri motanai</text></g><g class="message" data-participant-1="probrem" data-participant-2="probrem"><line style="stroke:#181818;stroke-width:1;" x1="578.7754" x2="620.7754" y1="632.4844" y2="632.4844"/><line style="stroke:#181818;stroke-width:1;" x1="620.7754" x2="620.7754" y1="632.4844" y2="645.4844"/><line style="stroke:#181818;stroke-width:1;" x1="579.7754" x2="620.7754" y1="645.4844" y2="645.4844"/><polygon fill="#181818" points="589.7754,641.4844,579.7754,645.4844,589.7754,649.4844,585.7754,645.4844" style="stroke:#181818;stroke-width:1;"/><text fill="#000000" font-family="sans-serif" font-size="13" lengthAdjust="spacing" textLength="108.145" x="585.7754" y="627.4185">adaputa kosyou,</text></g><rect fill="#EEEEEE" height="3" style="stroke:#EEEEEE;stroke-width:1;" width="700.9204" x="0" y="674.0508"/><line style="stroke:#000000;stroke-width:1;" x1="0" x2="700.9204" y1="674.0508" y2="674.0508"/><line style="stroke:#000000;stroke-width:1;" x1="0" x2="700.9204" y1="677.0508" y2="677.0508"/><rect fill="#EEEEEE" height="23.1328" style="stroke:#000000;stroke-width:2;" width="114.5278" x="293.1963" y="663.4844"/><text fill="#000000" font-family="sans-serif" font-size="13" font-weight="bold" lengthAdjust="spacing" textLength="96.002" x="299.1963" y="679.5513">thikpad x270</text><g class="message" data-participant-1="spec" data-participant-2="spec"><line style="stroke:#181818;stroke-width:1;" x1="156.2451" x2="198.2451" y1="717.75" y2="717.75"/><line style="stroke:#181818;stroke-width:1;" x1="198.2451" x2="198.2451" y1="717.75" y2="730.75"/><line style="stroke:#181818;stroke-width:1;" x1="157.2451" x2="198.2451" y1="730.75" y2="730.75"/><polygon fill="#181818" points="167.2451,726.75,157.2451,730.75,167.2451,734.75,163.2451,730.75" style="stroke:#181818;stroke-width:1;"/><text fill="#000000" font-family="sans-serif" font-size="13" lengthAdjust="spacing" textLength="31.2305" x="163.2451" y="712.6841">hikui</text></g><rect fill="#EEEEEE" height="3" style="stroke:#EEEEEE;stroke-width:1;" width="700.9204" x="0" y="759.3164"/><line style="stroke:#000000;stroke-width:1;" x1="0" x2="700.9204" y1="759.3164" y2="759.3164"/><line style="stroke:#000000;stroke-width:1;" x1="0" x2="700.9204" y1="762.3164" y2="762.3164"/><rect fill="#EEEEEE" height="23.1328" style="stroke:#000000;stroke-width:2;" width="136.5986" x="282.1609" y="748.75"/><text fill="#000000" font-family="sans-serif" font-size="13" font-weight="bold" lengthAdjust="spacing" textLength="118.0728" x="288.1609" y="764.8169">Yoga Book 2016</text><g class="message" data-participant-1="spec" data-participant-2="spec"><line style="stroke:#181818;stroke-width:1;" x1="156.2451" x2="198.2451" y1="803.0156" y2="803.0156"/><line style="stroke:#181818;stroke-width:1;" x1="198.2451" x2="198.2451" y1="803.0156" y2="816.0156"/><line style="stroke:#181818;stroke-width:1;" x1="157.2451" x2="198.2451" y1="816.0156" y2="816.0156"/><polygon fill="#181818" points="167.2451,812.0156,157.2451,816.0156,167.2451,820.0156,163.2451,816.0156" style="stroke:#181818;stroke-width:1;"/><text fill="#000000" font-family="sans-serif" font-size="13" lengthAdjust="spacing" textLength="31.2305" x="163.2451" y="797.9497">hikui</text></g><rect fill="#EEEEEE" height="3" style="stroke:#EEEEEE;stroke-width:1;" width="700.9204" x="0" y="844.582"/><line style="stroke:#000000;stroke-width:1;" x1="0" x2="700.9204" y1="844.582" y2="844.582"/><line style="stroke:#000000;stroke-width:1;" x1="0" x2="700.9204" y1="847.582" y2="847.582"/><rect fill="#EEEEEE" height="23.1328" style="stroke:#000000;stroke-width:2;" width="118.6602" x="291.1301" y="834.0156"/><text fill="#000000" font-family="sans-serif" font-size="13" font-weight="bold" lengthAdjust="spacing" textLength="100.1343" x="297.1301" y="850.0825">ASUS A100CP</text><g class="message" data-participant-1="spec" data-participant-2="spec"><line style="stroke:#181818;stroke-width:1;" x1="156.2451" x2="198.2451" y1="888.2813" y2="888.2813"/><line style="stroke:#181818;stroke-width:1;" x1="198.2451" x2="198.2451" y1="888.2813" y2="901.2813"/><line style="stroke:#181818;stroke-width:1;" x1="157.2451" x2="198.2451" y1="901.2813" y2="901.2813"/><polygon fill="#181818" points="167.2451,897.2813,157.2451,901.2813,167.2451,905.2813,163.2451,901.2813" style="stroke:#181818;stroke-width:1;"/><text fill="#000000" font-family="sans-serif" font-size="13" lengthAdjust="spacing" textLength="31.2305" x="163.2451" y="883.2153">hikui</text></g><rect fill="#EEEEEE" height="3" style="stroke:#EEEEEE;stroke-width:1;" width="700.9204" x="0" y="929.8477"/><line style="stroke:#000000;stroke-width:1;" x1="0" x2="700.9204" y1="929.8477" y2="929.8477"/><line style="stroke:#000000;stroke-width:1;" x1="0" x2="700.9204" y1="932.8477" y2="932.8477"/><rect fill="#EEEEEE" height="23.1328" style="stroke:#000000;stroke-width:2;" width="105.0318" x="297.9443" y="919.2813"/><text fill="#000000" font-family="sans-serif" font-size="13" font-weight="bold" lengthAdjust="spacing" textLength="86.5059" x="303.9443" y="935.3481">Surface &#21021;&#20195;</text><g class="message" data-participant-1="spec" data-participant-2="spec"><line style="stroke:#181818;stroke-width:1;" x1="156.2451" x2="198.2451" y1="973.5469" y2="973.5469"/><line style="stroke:#181818;stroke-width:1;" x1="198.2451" x2="198.2451" y1="973.5469" y2="986.5469"/><line style="stroke:#181818;stroke-width:1;" x1="157.2451" x2="198.2451" y1="986.5469" y2="986.5469"/><polygon fill="#181818" points="167.2451,982.5469,157.2451,986.5469,167.2451,990.5469,163.2451,986.5469" style="stroke:#181818;stroke-width:1;"/><text fill="#000000" font-family="sans-serif" font-size="13" lengthAdjust="spacing" textLength="31.2305" x="163.2451" y="968.481">hikui</text></g><rect fill="#EEEEEE" height="3" style="stroke:#EEEEEE;stroke-width:1;" width="700.9204" x="0" y="1015.1133"/><line style="stroke:#000000;stroke-width:1;" x1="0" x2="700.9204" y1="1015.1133" y2="1015.1133"/><line style="stroke:#000000;stroke-width:1;" x1="0" x2="700.9204" y1="1018.1133" y2="1018.1133"/><rect fill="#EEEEEE" height="23.1328" style="stroke:#000000;stroke-width:2;" width="169.9493" x="265.4856" y="1004.5469"/><text fill="#000000" font-family="sans-serif" font-size="13" font-weight="bold" lengthAdjust="spacing" textLength="151.4234" x="271.4856" y="1020.6138">Fire HD 10&#65288;&#31532;7&#19990;&#20195;&#65289;</text><g class="message" data-participant-1="spec" data-participant-2="spec"><line style="stroke:#181818;stroke-width:1;" x1="156.2451" x2="198.2451" y1="1058.8125" y2="1058.8125"/><line style="stroke:#181818;stroke-width:1;" x1="198.2451" x2="198.2451" y1="1058.8125" y2="1071.8125"/><line style="stroke:#181818;stroke-width:1;" x1="157.2451" x2="198.2451" y1="1071.8125" y2="1071.8125"/><polygon fill="#181818" points="167.2451,1067.8125,157.2451,1071.8125,167.2451,1075.8125,163.2451,1071.8125" style="stroke:#181818;stroke-width:1;"/><text fill="#000000" font-family="sans-serif" font-size="13" lengthAdjust="spacing" textLength="31.2305" x="163.2451" y="1053.7466">hikui</text></g><rect fill="#EEEEEE" height="3" style="stroke:#EEEEEE;stroke-width:1;" width="700.9204" x="0" y="1100.3789"/><line style="stroke:#000000;stroke-width:1;" x1="0" x2="700.9204" y1="1100.3789" y2="1100.3789"/><line style="stroke:#000000;stroke-width:1;" x1="0" x2="700.9204" y1="1103.3789" y2="1103.3789"/><rect fill="#EEEEEE" height="23.1328" style="stroke:#000000;stroke-width:2;" width="146.4756" x="277.2224" y="1089.8125"/><text fill="#000000" font-family="sans-serif" font-size="13" font-weight="bold" lengthAdjust="spacing" textLength="127.9497" x="283.2224" y="1105.8794">Rakuten Hand 5G</text><g class="message" data-participant-1="spec" data-participant-2="spec"><line style="stroke:#181818;stroke-width:1;" x1="156.2451" x2="198.2451" y1="1144.0781" y2="1144.0781"/><line style="stroke:#181818;stroke-width:1;" x1="198.2451" x2="198.2451" y1="1144.0781" y2="1157.0781"/><line style="stroke:#181818;stroke-width:1;" x1="157.2451" x2="198.2451" y1="1157.0781" y2="1157.0781"/><polygon fill="#181818" points="167.2451,1153.0781,157.2451,1157.0781,167.2451,1161.0781,163.2451,1157.0781" style="stroke:#181818;stroke-width:1;"/><text fill="#000000" font-family="sans-serif" font-size="13" lengthAdjust="spacing" textLength="31.2305" x="163.2451" y="1139.0122">hikui</text></g><!--SRC=[fPDFI-j05CNt-HINhXLIGOL27rJhFv2dlE03mSrjEzKXDHDc9g9lPHjuj4iH5AN-0R4gYkv4iNwQqLHNVWKda-UYOelmDiCXltFkd4iIIMM5GDJOZ9gDpkLDrBnyQzTLTLU5RLNTKhLjLTrJrVstTWC68ReuwfnVFzTFLVWGRPwzX8-lntyj2ukISKYfi1MdQhVwNF9wZKa12bWGX5i-SacBr4TFGahuf6XGB3uXGZqM9D38Rio4GKnyIh6oJ39QTADLLg0LOc0Ykt4WI3ce69p8RknpLk1arV1_shAoML3XeQgrLEqUyhcPtv3DMl4gCFZ3h0GPaEWYjPY87-ap0tyOr-k80O-kn-sJMJ7za1aee9I4KzrJegVJNvgmX7uW4LmcDbWmODfCp3jpFs72An5Sqo-dLvjlNMhcpJgv_vloxUfoXRe-bc1zQDJ-uafDWwJJ8bj666FCXI4xFTBNcdCM7CYbRNjylg_F2NWPYmIUwmTF3oTzhPEK4vZEGzhMdthdwchqwMv7P-8_fMSiplr2Dv34WsdqIZ0yrTly3W00]--></g></svg>