<svg xmlns="http://www.w3.org/2000/svg" xmlns:xlink="http://www.w3.org/1999/xlink" contentStyleType="text/css" data-diagram-type="CLASS" height="662px" preserveAspectRatio="none" style="width:1182px;height:662px;background:#FFFFFF;" version="1.1" viewBox="0 0 1182 662" width="1182px" zoomAndPan="magnify"><title>&#26368;&#36817;&#12398;PC&#12395;&#12362;&#12369;&#12427;OS&#12452;&#12531;&#12473;&#12488;&#12540;&#12523;&#21487;&#21542;&#12392;BIOS&#35373;&#23450;&#12398;&#38306;&#20418;</title><defs/><g><text fill="#000000" font-family="sans-serif" font-size="14" font-weight="bold" lengthAdjust="spacing" textLength="374.3825" x="396.8087" y="22.9951">&#26368;&#36817;&#12398;PC&#12395;&#12362;&#12369;&#12427;OS&#12452;&#12531;&#12473;&#12488;&#12540;&#12523;&#21487;&#21542;&#12392;BIOS&#35373;&#23450;&#12398;&#38306;&#20418;</text><!--cluster PC?????--><g class="cluster" data-entity="PC&#35373;&#23450;&#12392;&#35201;&#22240;" data-source-line="5" data-uid="ent0002" id="cluster_PC&#35373;&#23450;&#12392;&#35201;&#22240;"><path d="M8.5,43.2969 L100.0349,43.2969 A3.75,3.75 0 0 1 102.5349,45.7969 L109.5349,65.5938 L647.5,65.5938 A2.5,2.5 0 0 1 650,68.0938 L650,653.2769 A2.5,2.5 0 0 1 647.5,655.7769 L8.5,655.7769 A2.5,2.5 0 0 1 6,653.2769 L6,45.7969 A2.5,2.5 0 0 1 8.5,43.2969" fill="none" style="stroke:#000000;stroke-width:1.5;"/><line style="stroke:#000000;stroke-width:1.5;" x1="6" x2="109.5349" y1="65.5938" y2="65.5938"/><text fill="#000000" font-family="sans-serif" font-size="14" font-weight="bold" lengthAdjust="spacing" textLength="90.5349" x="10" y="58.292">PC&#35373;&#23450;&#12392;&#35201;&#22240;</text></g><!--cluster OS?????--><g class="cluster" data-entity="OS&#12372;&#12392;&#12398;&#35201;&#20214;" data-source-line="49" data-uid="ent0028" id="cluster_OS&#12372;&#12392;&#12398;&#35201;&#20214;"><path d="M676.5,367.2969 L769.4841,367.2969 A3.75,3.75 0 0 1 771.9841,369.7969 L778.9841,389.5938 L1172.5,389.5938 A2.5,2.5 0 0 1 1175,392.0938 L1175,512.6869 A2.5,2.5 0 0 1 1172.5,515.1869 L676.5,515.1869 A2.5,2.5 0 0 1 674,512.6869 L674,369.7969 A2.5,2.5 0 0 1 676.5,367.2969" fill="none" style="stroke:#000000;stroke-width:1.5;"/><line style="stroke:#000000;stroke-width:1.5;" x1="674" x2="778.9841" y1="389.5938" y2="389.5938"/><text fill="#000000" font-family="sans-serif" font-size="14" font-weight="bold" lengthAdjust="spacing" textLength="91.9841" x="678" y="382.292">OS&#12372;&#12392;&#12398;&#35201;&#20214;</text></g><!--class BIOS??? (UEFI)--><g class="entity" data-entity="BIOS&#12514;&#12540;&#12489; (UEFI)" data-source-line="7" data-uid="ent0003" id="entity_BIOS&#12514;&#12540;&#12489; (UEFI)"><rect fill="#F1F1F1" height="48" rx="2.5" ry="2.5" style="stroke:#181818;stroke-width:0.5;" width="154.2879" x="150.86" y="78.2969"/><ellipse cx="165.86" cy="94.2969" fill="#ADD1B2" rx="11" ry="11" style="stroke:#181818;stroke-width:1;"/><path d="M168.8288,99.9375 Q168.2506,100.2344 167.61,100.375 Q166.9694,100.5313 166.2663,100.5313 Q163.7663,100.5313 162.4381,98.8906 Q161.1256,97.2344 161.1256,94.1094 Q161.1256,90.9844 162.4381,89.3281 Q163.7663,87.6719 166.2663,87.6719 Q166.9694,87.6719 167.61,87.8281 Q168.2663,87.9844 168.8288,88.2813 L168.8288,91 Q168.2038,90.4219 167.61,90.1563 Q167.0163,89.875 166.3913,89.875 Q165.0475,89.875 164.36,90.9531 Q163.6725,92.0156 163.6725,94.1094 Q163.6725,96.2031 164.36,97.2813 Q165.0475,98.3438 166.3913,98.3438 Q167.0163,98.3438 167.61,98.0781 Q168.2038,97.7969 168.8288,97.2188 L168.8288,99.9375 Z " fill="#000000"/><text fill="#000000" font-family="sans-serif" font-size="14" lengthAdjust="spacing" textLength="122.2879" x="179.86" y="99.1436">BIOS&#12514;&#12540;&#12489; (UEFI)</text><line style="stroke:#181818;stroke-width:0.5;" x1="151.86" x2="304.1479" y1="110.2969" y2="110.2969"/><line style="stroke:#181818;stroke-width:0.5;" x1="151.86" x2="304.1479" y1="118.2969" y2="118.2969"/></g><g class="entity" data-entity="GMN4" data-source-line="9" data-uid="ent0005" id="entity_GMN4"><path d="M340,82.1569 L340,98.2969 L305.4,102.2969 L340,106.2969 L340,122.4225 A0,0 0 0 0 340,122.4225 L634.0003,122.4225 A0,0 0 0 0 634.0003,122.4225 L634.0003,92.1569 L624.0003,82.1569 L340,82.1569 A0,0 0 0 0 340,82.1569" fill="#FEFFDD" style="stroke:#181818;stroke-width:0.5;"/><path d="M624.0003,82.1569 L624.0003,92.1569 L634.0003,92.1569 L624.0003,82.1569" fill="#FEFFDD" style="stroke:#181818;stroke-width:0.5;"/><text fill="#000000" font-family="sans-serif" font-size="13" lengthAdjust="spacing" textLength="273.0003" x="346" y="99.2238">&#29694;&#20195;&#30340;&#12394;&#12501;&#12449;&#12540;&#12512;&#12454;&#12455;&#12450;&#26041;&#24335;&#12290;&#39640;&#36895;&#36215;&#21205;&#23550;&#24540;&#12290;</text><text fill="#000000" font-family="sans-serif" font-size="13" lengthAdjust="spacing" textLength="246.8543" x="346" y="114.3566">GPT&#12497;&#12540;&#12486;&#12451;&#12471;&#12519;&#12531;&#12392;&#12475;&#12483;&#12488;&#12391;&#20351;&#12431;&#12428;&#12427;&#12290;</text></g><!--class BIOS??? (Legacy)--><g class="entity" data-entity="BIOS&#12514;&#12540;&#12489; (Legacy)" data-source-line="13" data-uid="ent0007" id="entity_BIOS&#12514;&#12540;&#12489; (Legacy)"><rect fill="#F1F1F1" height="48" rx="2.5" ry="2.5" style="stroke:#181818;stroke-width:0.5;" width="172.8748" x="141.56" y="186.2969"/><ellipse cx="156.56" cy="202.2969" fill="#ADD1B2" rx="11" ry="11" style="stroke:#181818;stroke-width:1;"/><path d="M159.5288,207.9375 Q158.9506,208.2344 158.31,208.375 Q157.6694,208.5313 156.9663,208.5313 Q154.4663,208.5313 153.1381,206.8906 Q151.8256,205.2344 151.8256,202.1094 Q151.8256,198.9844 153.1381,197.3281 Q154.4663,195.6719 156.9663,195.6719 Q157.6694,195.6719 158.31,195.8281 Q158.9663,195.9844 159.5288,196.2813 L159.5288,199 Q158.9038,198.4219 158.31,198.1563 Q157.7163,197.875 157.0913,197.875 Q155.7475,197.875 155.06,198.9531 Q154.3725,200.0156 154.3725,202.1094 Q154.3725,204.2031 155.06,205.2813 Q155.7475,206.3438 157.0913,206.3438 Q157.7163,206.3438 158.31,206.0781 Q158.9038,205.7969 159.5288,205.2188 L159.5288,207.9375 Z " fill="#000000"/><text fill="#000000" font-family="sans-serif" font-size="14" lengthAdjust="spacing" textLength="140.8748" x="170.56" y="207.1436">BIOS&#12514;&#12540;&#12489; (Legacy)</text><line style="stroke:#181818;stroke-width:0.5;" x1="142.56" x2="313.4348" y1="218.2969" y2="218.2969"/><line style="stroke:#181818;stroke-width:0.5;" x1="142.56" x2="313.4348" y1="226.2969" y2="226.2969"/></g><g class="entity" data-entity="GMN8" data-source-line="15" data-uid="ent0009" id="entity_GMN8"><path d="M349.76,190.1569 L349.76,206.2969 L314.52,210.2969 L349.76,214.2969 L349.76,230.4225 A0,0 0 0 0 349.76,230.4225 L558.2446,230.4225 A0,0 0 0 0 558.2446,230.4225 L558.2446,200.1569 L548.2446,190.1569 L349.76,190.1569 A0,0 0 0 0 349.76,190.1569" fill="#FEFFDD" style="stroke:#181818;stroke-width:0.5;"/><path d="M548.2446,190.1569 L548.2446,200.1569 L558.2446,200.1569 L548.2446,190.1569" fill="#FEFFDD" style="stroke:#181818;stroke-width:0.5;"/><text fill="#000000" font-family="sans-serif" font-size="13" lengthAdjust="spacing" textLength="148.237" x="355.76" y="207.2238">&#26087;&#26469;&#12398;BIOS&#20114;&#25563;&#12514;&#12540;&#12489;&#12290;</text><text fill="#000000" font-family="sans-serif" font-size="13" lengthAdjust="spacing" textLength="187.4846" x="355.76" y="222.3566">&#19968;&#37096;&#12398;&#21476;&#12356;OS&#12420;&#12484;&#12540;&#12523;&#12391;&#20351;&#29992;&#12290;</text></g><!--class ??????? (??)--><g class="entity" data-entity="&#12475;&#12461;&#12517;&#12450;&#12502;&#12540;&#12488; (&#26377;&#21177;)" data-source-line="19" data-uid="ent0011" id="entity_&#12475;&#12461;&#12517;&#12450;&#12502;&#12540;&#12488; (&#26377;&#21177;)"><rect fill="#F1F1F1" height="48" rx="2.5" ry="2.5" style="stroke:#181818;stroke-width:0.5;" width="173.3735" x="22.31" y="294.2969"/><ellipse cx="37.31" cy="310.2969" fill="#ADD1B2" rx="11" ry="11" style="stroke:#181818;stroke-width:1;"/><path d="M40.2788,315.9375 Q39.7006,316.2344 39.06,316.375 Q38.4194,316.5313 37.7163,316.5313 Q35.2163,316.5313 33.8881,314.8906 Q32.5756,313.2344 32.5756,310.1094 Q32.5756,306.9844 33.8881,305.3281 Q35.2163,303.6719 37.7163,303.6719 Q38.4194,303.6719 39.06,303.8281 Q39.7163,303.9844 40.2788,304.2813 L40.2788,307 Q39.6538,306.4219 39.06,306.1563 Q38.4663,305.875 37.8413,305.875 Q36.4975,305.875 35.81,306.9531 Q35.1225,308.0156 35.1225,310.1094 Q35.1225,312.2031 35.81,313.2813 Q36.4975,314.3438 37.8413,314.3438 Q38.4663,314.3438 39.06,314.0781 Q39.6538,313.7969 40.2788,313.2188 L40.2788,315.9375 Z " fill="#000000"/><text fill="#000000" font-family="sans-serif" font-size="14" lengthAdjust="spacing" textLength="141.3735" x="51.31" y="315.1436">&#12475;&#12461;&#12517;&#12450;&#12502;&#12540;&#12488; (&#26377;&#21177;)</text><line style="stroke:#181818;stroke-width:0.5;" x1="23.31" x2="194.6835" y1="326.2969" y2="326.2969"/><line style="stroke:#181818;stroke-width:0.5;" x1="23.31" x2="194.6835" y1="334.2969" y2="334.2969"/></g><g class="entity" data-entity="GMN12" data-source-line="21" data-uid="ent0013" id="entity_GMN12"><path d="M230.49,298.1569 L230.49,314.2969 L196.14,318.2969 L230.49,322.2969 L230.49,338.4225 A0,0 0 0 0 230.49,338.4225 L559.5166,338.4225 A0,0 0 0 0 559.5166,338.4225 L559.5166,308.1569 L549.5166,298.1569 L230.49,298.1569 A0,0 0 0 0 230.49,298.1569" fill="#FEFFDD" style="stroke:#181818;stroke-width:0.5;"/><path d="M549.5166,298.1569 L549.5166,308.1569 L559.5166,308.1569 L549.5166,298.1569" fill="#FEFFDD" style="stroke:#181818;stroke-width:0.5;"/><text fill="#000000" font-family="sans-serif" font-size="13" lengthAdjust="spacing" textLength="260.1589" x="236.49" y="315.2238">Microsoft&#12394;&#12393;&#12398;&#32626;&#21517;&#20184;&#12365;OS&#12375;&#12363;&#36215;&#21205;&#19981;&#21487;&#12290;</text><text fill="#000000" font-family="sans-serif" font-size="13" lengthAdjust="spacing" textLength="308.0266" x="236.49" y="330.3566">&#12475;&#12461;&#12517;&#12522;&#12486;&#12451;&#12399;&#39640;&#12356;&#12364;Linux&#12391;&#12399;&#38556;&#23475;&#12395;&#12394;&#12427;&#12371;&#12392;&#12418;&#12290;</text></g><!--class TPM (??)--><g class="entity" data-entity="TPM (&#26377;&#21177;)" data-source-line="25" data-uid="ent0015" id="entity_TPM (&#26377;&#21177;)"><rect fill="#F1F1F1" height="48" rx="2.5" ry="2.5" style="stroke:#181818;stroke-width:0.5;" width="104.4471" x="146.78" y="426.7369"/><ellipse cx="161.78" cy="442.7369" fill="#ADD1B2" rx="11" ry="11" style="stroke:#181818;stroke-width:1;"/><path d="M164.7488,448.3775 Q164.1706,448.6744 163.53,448.815 Q162.8894,448.9713 162.1863,448.9713 Q159.6863,448.9713 158.3581,447.3306 Q157.0456,445.6744 157.0456,442.5494 Q157.0456,439.4244 158.3581,437.7681 Q159.6863,436.1119 162.1863,436.1119 Q162.8894,436.1119 163.53,436.2681 Q164.1863,436.4244 164.7488,436.7213 L164.7488,439.44 Q164.1238,438.8619 163.53,438.5963 Q162.9363,438.315 162.3113,438.315 Q160.9675,438.315 160.28,439.3931 Q159.5925,440.4556 159.5925,442.5494 Q159.5925,444.6431 160.28,445.7213 Q160.9675,446.7838 162.3113,446.7838 Q162.9363,446.7838 163.53,446.5181 Q164.1238,446.2369 164.7488,445.6588 L164.7488,448.3775 Z " fill="#000000"/><text fill="#000000" font-family="sans-serif" font-size="14" lengthAdjust="spacing" textLength="72.4471" x="175.78" y="447.5836">TPM (&#26377;&#21177;)</text><line style="stroke:#181818;stroke-width:0.5;" x1="147.78" x2="250.2271" y1="458.7369" y2="458.7369"/><line style="stroke:#181818;stroke-width:0.5;" x1="147.78" x2="250.2271" y1="466.7369" y2="466.7369"/></g><g class="entity" data-entity="GMN16" data-source-line="27" data-uid="ent0017" id="entity_GMN16"><path d="M286.5,423.0369 L286.5,446.7369 L251.47,450.7369 L286.5,454.7369 L286.5,478.4353 A0,0 0 0 0 286.5,478.4353 L515.5002,478.4353 A0,0 0 0 0 515.5002,478.4353 L515.5002,433.0369 L505.5002,423.0369 L286.5,423.0369 A0,0 0 0 0 286.5,423.0369" fill="#FEFFDD" style="stroke:#181818;stroke-width:0.5;"/><path d="M505.5002,423.0369 L505.5002,433.0369 L515.5002,433.0369 L505.5002,423.0369" fill="#FEFFDD" style="stroke:#181818;stroke-width:0.5;"/><text fill="#000000" font-family="sans-serif" font-size="13" lengthAdjust="spacing" textLength="173.2339" x="292.5" y="440.1038">Trusted Platform Module&#12290;</text><text fill="#000000" font-family="sans-serif" font-size="13" lengthAdjust="spacing" textLength="130.9903" x="292.5" y="455.2366">Windows 11&#12391;&#24517;&#38920;&#12290;</text><text fill="#000000" font-family="sans-serif" font-size="13" lengthAdjust="spacing" textLength="208.0002" x="292.5" y="470.3694">&#12475;&#12461;&#12517;&#12522;&#12486;&#12451;&#27231;&#33021;&#12420;&#26263;&#21495;&#21270;&#12395;&#20351;&#29992;&#12290;</text></g><!--class OS????????--><g class="entity" data-entity="OS&#12452;&#12531;&#12473;&#12488;&#12540;&#12523;&#21487;&#21542;" data-source-line="32" data-uid="ent0019" id="entity_OS&#12452;&#12531;&#12473;&#12488;&#12540;&#12523;&#21487;&#21542;"><rect fill="#F1F1F1" height="80.5938" rx="2.5" ry="2.5" style="stroke:#181818;stroke-width:0.5;" width="163.9058" x="470.05" y="559.1869"/><ellipse cx="485.05" cy="575.1869" fill="#ADD1B2" rx="11" ry="11" style="stroke:#181818;stroke-width:1;"/><path d="M488.0188,580.8275 Q487.4406,581.1244 486.8,581.265 Q486.1594,581.4213 485.4563,581.4213 Q482.9563,581.4213 481.6281,579.7806 Q480.3156,578.1244 480.3156,574.9994 Q480.3156,571.8744 481.6281,570.2181 Q482.9563,568.5619 485.4563,568.5619 Q486.1594,568.5619 486.8,568.7181 Q487.4563,568.8744 488.0188,569.1713 L488.0188,571.89 Q487.3938,571.3119 486.8,571.0463 Q486.2063,570.765 485.5813,570.765 Q484.2375,570.765 483.55,571.8431 Q482.8625,572.9056 482.8625,574.9994 Q482.8625,577.0931 483.55,578.1713 Q484.2375,579.2338 485.5813,579.2338 Q486.2063,579.2338 486.8,578.9681 Q487.3938,578.6869 488.0188,578.1088 L488.0188,580.8275 Z " fill="#000000"/><text fill="#000000" font-family="sans-serif" font-size="14" lengthAdjust="spacing" textLength="131.9058" x="499.05" y="580.0336">OS&#12452;&#12531;&#12473;&#12488;&#12540;&#12523;&#21487;&#21542;</text><line style="stroke:#181818;stroke-width:0.5;" x1="471.05" x2="632.9558" y1="591.1869" y2="591.1869"/><ellipse cx="481.05" cy="604.8353" fill="none" rx="3" ry="3" style="stroke:#038048;stroke-width:1;"/><text fill="#000000" font-family="sans-serif" font-size="14" lengthAdjust="spacing" textLength="107.5977" x="490.05" y="608.182">Windows 10/11</text><line style="stroke:#181818;stroke-width:0.5;" x1="471.05" x2="632.9558" y1="615.4838" y2="615.4838"/><ellipse cx="481.05" cy="629.1322" fill="#84BE84" rx="3" ry="3" style="stroke:#038048;stroke-width:1;"/><text fill="#000000" font-family="sans-serif" font-size="14" lengthAdjust="spacing" textLength="132.3368" x="490.05" y="632.4789">Linux (Ubuntu&#12394;&#12393;)</text></g><!--class Windows??--><g class="entity" data-entity="Windows&#35201;&#20214;" data-source-line="50" data-uid="ent0029" id="entity_Windows&#35201;&#20214;"><rect fill="#F1F1F1" height="96.8906" rx="2.5" ry="2.5" style="stroke:#181818;stroke-width:0.5;" width="169.5819" x="690.21" y="402.2969"/><ellipse cx="726.2611" cy="418.2969" fill="#ADD1B2" rx="11" ry="11" style="stroke:#181818;stroke-width:1;"/><path d="M729.2299,423.9375 Q728.6517,424.2344 728.0111,424.375 Q727.3705,424.5313 726.6674,424.5313 Q724.1674,424.5313 722.8392,422.8906 Q721.5267,421.2344 721.5267,418.1094 Q721.5267,414.9844 722.8392,413.3281 Q724.1674,411.6719 726.6674,411.6719 Q727.3705,411.6719 728.0111,411.8281 Q728.6674,411.9844 729.2299,412.2813 L729.2299,415 Q728.6049,414.4219 728.0111,414.1563 Q727.4174,413.875 726.7924,413.875 Q725.4486,413.875 724.7611,414.9531 Q724.0736,416.0156 724.0736,418.1094 Q724.0736,420.2031 724.7611,421.2813 Q725.4486,422.3438 726.7924,422.3438 Q727.4174,422.3438 728.0111,422.0781 Q728.6049,421.7969 729.2299,421.2188 L729.2299,423.9375 Z " fill="#000000"/><text fill="#000000" font-family="sans-serif" font-size="14" lengthAdjust="spacing" textLength="90.8016" x="744.9392" y="423.1436">Windows&#35201;&#20214;</text><line style="stroke:#181818;stroke-width:0.5;" x1="691.21" x2="858.7919" y1="434.2969" y2="434.2969"/><ellipse cx="701.21" cy="447.9453" fill="none" rx="3" ry="3" style="stroke:#038048;stroke-width:1;"/><text fill="#000000" font-family="sans-serif" font-size="14" lengthAdjust="spacing" textLength="59.2743" x="710.21" y="451.292">UEFI&#24517;&#38920;</text><ellipse cx="701.21" cy="464.2422" fill="none" rx="3" ry="3" style="stroke:#038048;stroke-width:1;"/><text fill="#000000" font-family="sans-serif" font-size="14" lengthAdjust="spacing" textLength="125.9995" x="710.21" y="467.5889">&#12475;&#12461;&#12517;&#12450;&#12502;&#12540;&#12488;&#25512;&#22888;</text><line style="stroke:#181818;stroke-width:0.5;" x1="691.21" x2="858.7919" y1="474.8906" y2="474.8906"/><ellipse cx="701.21" cy="488.5391" fill="#84BE84" rx="3" ry="3" style="stroke:#038048;stroke-width:1;"/><text fill="#000000" font-family="sans-serif" font-size="14" lengthAdjust="spacing" textLength="143.5819" x="710.21" y="491.8857">TPM 2.0&#24517;&#38920; (Win11)</text></g><!--class Linux??--><g class="entity" data-entity="Linux&#35201;&#20214;" data-source-line="56" data-uid="ent0030" id="entity_Linux&#35201;&#20214;"><rect fill="#F1F1F1" height="96.8906" rx="2.5" ry="2.5" style="stroke:#181818;stroke-width:0.5;" width="263.999" x="895" y="402.2969"/><ellipse cx="989.8892" cy="418.2969" fill="#ADD1B2" rx="11" ry="11" style="stroke:#181818;stroke-width:1;"/><path d="M992.8579,423.9375 Q992.2798,424.2344 991.6392,424.375 Q990.9986,424.5313 990.2954,424.5313 Q987.7954,424.5313 986.4673,422.8906 Q985.1548,421.2344 985.1548,418.1094 Q985.1548,414.9844 986.4673,413.3281 Q987.7954,411.6719 990.2954,411.6719 Q990.9986,411.6719 991.6392,411.8281 Q992.2954,411.9844 992.8579,412.2813 L992.8579,415 Q992.2329,414.4219 991.6392,414.1563 Q991.0454,413.875 990.4204,413.875 Q989.0767,413.875 988.3892,414.9531 Q987.7017,416.0156 987.7017,418.1094 Q987.7017,420.2031 988.3892,421.2813 Q989.0767,422.3438 990.4204,422.3438 Q991.0454,422.3438 991.6392,422.0781 Q992.2329,421.7969 992.8579,421.2188 L992.8579,423.9375 Z " fill="#000000"/><text fill="#000000" font-family="sans-serif" font-size="14" lengthAdjust="spacing" textLength="65.7206" x="1010.3892" y="423.1436">Linux&#35201;&#20214;</text><line style="stroke:#181818;stroke-width:0.5;" x1="896" x2="1157.999" y1="434.2969" y2="434.2969"/><ellipse cx="906" cy="447.9453" fill="none" rx="3" ry="3" style="stroke:#038048;stroke-width:1;"/><text fill="#000000" font-family="sans-serif" font-size="14" lengthAdjust="spacing" textLength="151.1354" x="915" y="451.292">UEFI&#12414;&#12383;&#12399;Legacy&#23550;&#24540;</text><ellipse cx="906" cy="464.2422" fill="none" rx="3" ry="3" style="stroke:#038048;stroke-width:1;"/><text fill="#000000" font-family="sans-serif" font-size="14" lengthAdjust="spacing" textLength="237.999" x="915" y="467.5889">&#12475;&#12461;&#12517;&#12450;&#12502;&#12540;&#12488;&#28961;&#21177;&#12364;&#25512;&#22888;&#12398;&#22580;&#21512;&#12354;&#12426;</text><ellipse cx="906" cy="480.5391" fill="none" rx="3" ry="3" style="stroke:#038048;stroke-width:1;"/><text fill="#000000" font-family="sans-serif" font-size="14" lengthAdjust="spacing" textLength="57.0731" x="915" y="483.8857">TPM&#19981;&#35201;</text><line style="stroke:#181818;stroke-width:0.5;" x1="896" x2="1157.999" y1="491.1875" y2="491.1875"/></g><!--link BIOS??? (UEFI) to BIOS??? (Legacy)--><g class="link" data-entity-1="BIOS&#12514;&#12540;&#12489; (UEFI)" data-entity-2="BIOS&#12514;&#12540;&#12489; (Legacy)" data-source-line="38" data-uid="lnk20" id="link_BIOS&#12514;&#12540;&#12489; (UEFI)_BIOS&#12514;&#12540;&#12489; (Legacy)"><path codeLine="38" d="M228,126.5569 C228,144.2269 228,162.4269 228,180.0869" fill="none" id="BIOS&#12514;&#12540;&#12489; (UEFI)-to-BIOS&#12514;&#12540;&#12489; (Legacy)" style="stroke:#FFFFFF;stroke-width:1;"/><polygon fill="#FFFFFF" points="228,186.0869,232,177.0869,228,181.0869,224,177.0869,228,186.0869" style="stroke:#FFFFFF;stroke-width:1;"/></g><!--link BIOS??? (Legacy) to ??????? (??)--><g class="link" data-entity-1="BIOS&#12514;&#12540;&#12489; (Legacy)" data-entity-2="&#12475;&#12461;&#12517;&#12450;&#12502;&#12540;&#12488; (&#26377;&#21177;)" data-source-line="39" data-uid="lnk21" id="link_BIOS&#12514;&#12540;&#12489; (Legacy)_&#12475;&#12461;&#12517;&#12450;&#12502;&#12540;&#12488; (&#26377;&#21177;)"><path codeLine="39" d="M201.88,234.5569 C182.04,252.2269 159.3607,272.4365 139.5307,290.0965" fill="none" id="BIOS&#12514;&#12540;&#12489; (Legacy)-to-&#12475;&#12461;&#12517;&#12450;&#12502;&#12540;&#12488; (&#26377;&#21177;)" style="stroke:#FFFFFF;stroke-width:1;"/><polygon fill="#FFFFFF" points="135.05,294.0869,144.4313,291.0884,138.7839,290.7616,139.1108,285.1141,135.05,294.0869" style="stroke:#FFFFFF;stroke-width:1;"/></g><!--link ??????? (??) to TPM (??)--><g class="link" data-entity-1="&#12475;&#12461;&#12517;&#12450;&#12502;&#12540;&#12488; (&#26377;&#21177;)" data-entity-2="TPM (&#26377;&#21177;)" data-source-line="40" data-uid="lnk22" id="link_&#12475;&#12461;&#12517;&#12450;&#12502;&#12540;&#12488; (&#26377;&#21177;)_TPM (&#26377;&#21177;)"><path codeLine="40" d="M125.09,342.6169 C141.47,366.3569 163.3128,398.0082 179.6428,421.6782" fill="none" id="&#12475;&#12461;&#12517;&#12450;&#12502;&#12540;&#12488; (&#26377;&#21177;)-to-TPM (&#26377;&#21177;)" style="stroke:#FFFFFF;stroke-width:1;"/><polygon fill="#FFFFFF" points="183.05,426.6169,181.2316,416.9373,180.2106,422.5013,174.6467,421.4803,183.05,426.6169" style="stroke:#FFFFFF;stroke-width:1;"/></g><!--link TPM (??) to OS????????--><g class="link" data-entity-1="TPM (&#26377;&#21177;)" data-entity-2="OS&#12452;&#12531;&#12473;&#12488;&#12540;&#12523;&#21487;&#21542;" data-source-line="41" data-uid="lnk23" id="link_TPM (&#26377;&#21177;)_OS&#12452;&#12531;&#12473;&#12488;&#12540;&#12523;&#21487;&#21542;"><path codeLine="41" d="M201.52,474.9069 C211.53,490.7169 230.5,510.9369 251.5,523.1869 C318.48,562.2369 400.1516,580.6195 463.7316,589.7995" fill="none" id="TPM (&#26377;&#21177;)-to-OS&#12452;&#12531;&#12473;&#12488;&#12540;&#12523;&#21487;&#21542;" style="stroke:#FFFFFF;stroke-width:1;"/><polygon fill="#FFFFFF" points="469.67,590.6569,461.334,585.4118,464.7213,589.9424,460.1908,593.3297,469.67,590.6569" style="stroke:#FFFFFF;stroke-width:1;"/></g><!--link TPM (??) to OS????????--><g class="link" data-entity-1="TPM (&#26377;&#21177;)" data-entity-2="OS&#12452;&#12531;&#12473;&#12488;&#12540;&#12523;&#21487;&#21542;" data-source-line="46" data-uid="lnk27" id="link_TPM (&#26377;&#21177;)_OS&#12452;&#12531;&#12473;&#12488;&#12540;&#12523;&#21487;&#21542;"><path codeLine="46" d="M230.79,474.9069 C246.53,490.7169 265.5,510.9369 286.5,523.1869 C343.27,556.2769 408.9591,574.0079 463.6791,584.5879" fill="none" id="TPM (&#26377;&#21177;)-to-OS&#12452;&#12531;&#12473;&#12488;&#12540;&#12523;&#21487;&#21542;-1" style="stroke:#181818;stroke-width:1;"/><polygon fill="#181818" points="469.57,585.7269,461.493,580.0911,464.6609,584.7777,459.9743,587.9457,469.57,585.7269" style="stroke:#181818;stroke-width:1;"/></g><!--link BIOS??? (UEFI) to OS????????--><g class="link" data-entity-1="BIOS&#12514;&#12540;&#12489; (UEFI)" data-entity-2="OS&#12452;&#12531;&#12473;&#12488;&#12540;&#12523;&#21487;&#21542;" data-source-line="43" data-uid="lnk24" id="link_BIOS&#12514;&#12540;&#12489; (UEFI)_OS&#12452;&#12531;&#12473;&#12488;&#12540;&#12523;&#21487;&#21542;"><path codeLine="43" d="M305.45,122.2969 C311.05,123.6569 316.61,124.9969 322,126.2969 C434.78,153.4069 495.26,103.0069 576,186.2969 C680.63,294.2169 652.01,380.0769 606,523.1869 C601.96,535.7369 598.4265,543.0726 590.7865,553.9126" fill="none" id="BIOS&#12514;&#12540;&#12489; (UEFI)-to-OS&#12452;&#12531;&#12473;&#12488;&#12540;&#12523;&#21487;&#21542;" style="stroke:#181818;stroke-width:1;"/><polygon fill="#181818" points="587.33,558.8169,595.7844,553.7648,590.2105,554.7299,589.2453,549.156,587.33,558.8169" style="stroke:#181818;stroke-width:1;"/></g><!--link BIOS??? (Legacy) to OS????????--><g class="link" data-entity-1="BIOS&#12514;&#12540;&#12489; (Legacy)" data-entity-2="OS&#12452;&#12531;&#12473;&#12488;&#12540;&#12523;&#21487;&#21542;" data-source-line="44" data-uid="lnk25" id="link_BIOS&#12514;&#12540;&#12489; (Legacy)_OS&#12452;&#12531;&#12473;&#12488;&#12540;&#12523;&#21487;&#21542;"><path codeLine="44" d="M314.73,230.5369 C416.73,253.3769 572.85,289.0369 577,294.2969 C637.69,371.1069 600.1095,489.956 573.1795,553.236" fill="none" id="BIOS&#12514;&#12540;&#12489; (Legacy)-to-OS&#12452;&#12531;&#12473;&#12488;&#12540;&#12523;&#21487;&#21542;" style="stroke:#181818;stroke-width:1;"/><polygon fill="#181818" points="570.83,558.7569,578.0348,552.0419,572.7879,554.1562,570.6737,548.9093,570.83,558.7569" style="stroke:#181818;stroke-width:1;"/></g><!--link ??????? (??) to OS????????--><g class="link" data-entity-1="&#12475;&#12461;&#12517;&#12450;&#12502;&#12540;&#12488; (&#26377;&#21177;)" data-entity-2="OS&#12452;&#12531;&#12473;&#12488;&#12540;&#12523;&#21487;&#21542;" data-source-line="45" data-uid="lnk26" id="link_&#12475;&#12461;&#12517;&#12450;&#12502;&#12540;&#12488; (&#26377;&#21177;)_OS&#12452;&#12531;&#12473;&#12488;&#12540;&#12523;&#21487;&#21542;"><path codeLine="45" d="M195.91,339.6169 C201.68,340.6269 207.41,341.5269 213,342.2969 C248.28,347.0969 507.5,334.4469 533,359.2969 C585.81,410.7369 575.9823,499.5299 564.0823,553.0499" fill="none" id="&#12475;&#12461;&#12517;&#12450;&#12502;&#12540;&#12488; (&#26377;&#21177;)-to-OS&#12452;&#12531;&#12473;&#12488;&#12540;&#12523;&#21487;&#21542;" style="stroke:#181818;stroke-width:1;"/><polygon fill="#181818" points="562.78,558.9069,568.6381,550.9896,563.8652,554.0261,560.8288,549.2532,562.78,558.9069" style="stroke:#181818;stroke-width:1;"/></g><!--link Windows?? to OS????????--><g class="link" data-entity-1="Windows&#35201;&#20214;" data-entity-2="OS&#12452;&#12531;&#12473;&#12488;&#12540;&#12523;&#21487;&#21542;" data-source-line="62" data-uid="lnk31" id="link_Windows&#35201;&#20214;_OS&#12452;&#12531;&#12473;&#12488;&#12540;&#12523;&#21487;&#21542;"><path codeLine="62" d="M702.29,499.5869 C673.18,518.7369 645.0617,537.2379 617.3217,555.4979" fill="none" id="Windows&#35201;&#20214;-to-OS&#12452;&#12531;&#12473;&#12488;&#12540;&#12523;&#21487;&#21542;" style="stroke:#181818;stroke-width:1;"/><polygon fill="#181818" points="612.31,558.7969,622.0268,557.1896,616.4864,556.0477,617.6282,550.5073,612.31,558.7969" style="stroke:#181818;stroke-width:1;"/></g><!--link Linux?? to OS????????--><g class="link" data-entity-1="Linux&#35201;&#20214;" data-entity-2="OS&#12452;&#12531;&#12473;&#12488;&#12540;&#12523;&#21487;&#21542;" data-source-line="63" data-uid="lnk32" id="link_Linux&#35201;&#20214;_OS&#12452;&#12531;&#12473;&#12488;&#12540;&#12523;&#21487;&#21542;"><path codeLine="63" d="M934.7,499.5369 C915.91,508.1669 896.06,516.5269 877,523.1869 C796.35,551.3569 706.6471,570.9503 640.0871,583.4403" fill="none" id="Linux&#35201;&#20214;-to-OS&#12452;&#12531;&#12473;&#12488;&#12540;&#12523;&#21487;&#21542;" style="stroke:#181818;stroke-width:1;"/><polygon fill="#181818" points="634.19,584.5469,643.7733,586.8184,639.1042,583.6247,642.2979,578.9556,634.19,584.5469" style="stroke:#181818;stroke-width:1;"/></g><!--SRC=[ZLNRJXf16BxdAIRqefh6Lle0lQXf6nED9Dhq6c5LKcGDBB5DOyBCq0QFQAjeaGOyWbeXqLQqW3pClxF0bNs4pkmYk1ONzdBsFto7_vzHl8fFGbeoNAki0Suv1m2V05u0l0PaSMGKo3xGSo1NGAD0Iq1FM2pFLWy1PryEZepMigSib-1vzVYkMY4scoBF84L6uxAYoDF8umr8RiKh-sss6PVxlMjIGdRdm6rIjdQ8sNRQZZxPR8X_Rfyh64HsKHVehjvj7lMyVVLwiDUk1_XbHK81x-IKWkG9gq24gh5hjRXNJKG07mFT0BAZXwM170B90DdLubUi58CmgPzirSEfsky2MznW-MjMIVB3HfKtpZ6WQthc5o1xG0f0Cq8Fd0LI14g5AZYZbYj0Oa2Mk6ItoPBVe-EreZOaJRhS7xiYPmf5IDlCQ3yEkEuYJFtpLOjjDuDRyDNBS9rcUHIBxGEE23SZG2E6ZmRkwdhM4h6WIKw17d39WCRrr2ZgqPBpRE6gFV9kKX0Qzhe3Sb2UK8H1-8Y3h9RFsEgoMjm2lCoXuat0YuOjwkKodxeMhrO7Ujnm1kUvZvmZuAKXhp_qWRCJPuaaovth4tqilC7VTEU89UKnvx0rmVy341eBX8AAv45EdqkPa0FJQ5ZsX7nI2_CxhzyZpmQHmy6XiShdUZfgHKWxIjLecVkb9JPPhC2Mufn55tuzlB5YpL3ZUz94q__CuMWTwzBnJHeF-PMGOKol_dVEQF8O_Ksjbn7Gdw8BjvTl4usoKe55BmGoVW-4OzhMYaw3OyZVbABLx-NQ_DbDQLwlq7vfKHz7u-zxyU3OeqUpKrvEjLs9PaopI8S9D1Nh5DiiQdBTLCByfvbWPKKZtLAI3ZKwQD5LTaVoNLMvnxzJpjoTnq3i-RhOIPpZZu5QlBYTqiOuD-RK_4yVLQ6IiKQjixPqj9KiEyYsWWJQvq_xZLpKmpiu7AOXRxJMT-61ne2l0QVu1MFeRJmR7N1K8pjS87u_6O34hPp-nLRv-q60B9ZmyVkEDxwBwRuGtHbZej3Pbty0]--></g></svg>