<svg xmlns="http://www.w3.org/2000/svg" xmlns:xlink="http://www.w3.org/1999/xlink" contentStyleType="text/css" data-diagram-type="SEQUENCE" height="1034px" preserveAspectRatio="none" style="width:1347px;height:1034px;background:#FFFFFF;" version="1.1" viewBox="0 0 1347 1034" width="1347px" zoomAndPan="magnify"><title>Bicycle Blue Ticket System - Info Flow Problem</title><defs/><g><text fill="#000000" font-family="sans-serif" font-size="14" font-weight="bold" lengthAdjust="spacing" textLength="370.2959" x="484.4397" y="27.9951">Bicycle Blue Ticket System - Info Flow Problem</text><g><title>Citizen</title><rect fill="#000000" fill-opacity="0.00000" height="835.5859" width="8" x="173.9395" y="118.5938"/><line style="stroke:#181818;stroke-width:0.5;stroke-dasharray:5,5;" x1="177" x2="177" y1="118.5938" y2="954.1797"/></g><g><title>Media</title><rect fill="#000000" fill-opacity="0.00000" height="835.5859" width="8" x="481.5273" y="118.5938"/><line style="stroke:#181818;stroke-width:0.5;stroke-dasharray:5,5;" x1="485.5034" x2="485.5034" y1="118.5938" y2="954.1797"/></g><g><title>Parliament</title><rect fill="#000000" fill-opacity="0.00000" height="835.5859" width="8" x="564.4258" y="118.5938"/><line style="stroke:#181818;stroke-width:0.5;stroke-dasharray:5,5;" x1="567.5513" x2="567.5513" y1="118.5938" y2="954.1797"/></g><g><title>PoliceAgency</title><rect fill="#000000" fill-opacity="0.00000" height="835.5859" width="8" x="755.2866" y="118.5938"/><line style="stroke:#181818;stroke-width:0.5;stroke-dasharray:5,5;" x1="758.7715" x2="758.7715" y1="118.5938" y2="954.1797"/></g><g><title>Experts</title><rect fill="#000000" fill-opacity="0.00000" height="835.5859" width="8" x="982.7354" y="118.5938"/><line style="stroke:#181818;stroke-width:0.5;stroke-dasharray:5,5;" x1="986.1504" x2="986.1504" y1="118.5938" y2="954.1797"/></g><g><title>Gov</title><rect fill="#000000" fill-opacity="0.00000" height="835.5859" width="8" x="1047.1699" y="118.5938"/><line style="stroke:#181818;stroke-width:0.5;stroke-dasharray:5,5;" x1="1050.3203" x2="1050.3203" y1="118.5938" y2="954.1797"/></g><g class="participant participant-head" data-participant="Citizen"><text fill="#000000" font-family="sans-serif" font-size="14" lengthAdjust="spacing" textLength="47.8789" x="151" y="115.292">Citizen</text><ellipse cx="177.9395" cy="50.7969" fill="#E2E2F0" rx="8" ry="8" style="stroke:#181818;stroke-width:0.5;"/><path d="M177.9395,58.7969 L177.9395,85.7969 M164.9395,66.7969 L190.9395,66.7969 M177.9395,85.7969 L164.9395,100.7969 M177.9395,85.7969 L190.9395,100.7969" fill="none" style="stroke:#181818;stroke-width:0.5;"/></g><g class="participant participant-tail" data-participant="Citizen"><text fill="#000000" font-family="sans-serif" font-size="14" lengthAdjust="spacing" textLength="47.8789" x="151" y="966.1748">Citizen</text><ellipse cx="177.9395" cy="977.9766" fill="#E2E2F0" rx="8" ry="8" style="stroke:#181818;stroke-width:0.5;"/><path d="M177.9395,985.9766 L177.9395,1012.9766 M164.9395,993.9766 L190.9395,993.9766 M177.9395,1012.9766 L164.9395,1027.9766 M177.9395,1012.9766 L190.9395,1027.9766" fill="none" style="stroke:#181818;stroke-width:0.5;"/></g><g class="participant participant-head" data-participant="Media"><rect fill="#E2E2F0" height="30.2969" rx="2.5" ry="2.5" style="stroke:#181818;stroke-width:0.5;" width="56.0479" x="457.5034" y="87.2969"/><text fill="#000000" font-family="sans-serif" font-size="14" lengthAdjust="spacing" textLength="42.0479" x="464.5034" y="107.292">Media</text></g><g class="participant participant-tail" data-participant="Media"><rect fill="#E2E2F0" height="30.2969" rx="2.5" ry="2.5" style="stroke:#181818;stroke-width:0.5;" width="56.0479" x="457.5034" y="953.1797"/><text fill="#000000" font-family="sans-serif" font-size="14" lengthAdjust="spacing" textLength="42.0479" x="464.5034" y="973.1748">Media</text></g><g class="participant participant-head" data-participant="Parliament"><rect fill="#E2E2F0" height="30.2969" rx="2.5" ry="2.5" style="stroke:#181818;stroke-width:0.5;" width="89.749" x="523.5513" y="87.2969"/><text fill="#000000" font-family="sans-serif" font-size="14" lengthAdjust="spacing" textLength="75.749" x="530.5513" y="107.292">Parliament</text></g><g class="participant participant-tail" data-participant="Parliament"><rect fill="#E2E2F0" height="30.2969" rx="2.5" ry="2.5" style="stroke:#181818;stroke-width:0.5;" width="89.749" x="523.5513" y="953.1797"/><text fill="#000000" font-family="sans-serif" font-size="14" lengthAdjust="spacing" textLength="75.749" x="530.5513" y="973.1748">Parliament</text></g><g class="participant participant-head" data-participant="PoliceAgency"><rect fill="#E2E2F0" height="30.2969" rx="2.5" ry="2.5" style="stroke:#181818;stroke-width:0.5;" width="107.0303" x="705.7715" y="87.2969"/><text fill="#000000" font-family="sans-serif" font-size="14" lengthAdjust="spacing" textLength="93.0303" x="712.7715" y="107.292">PoliceAgency</text></g><g class="participant participant-tail" data-participant="PoliceAgency"><rect fill="#E2E2F0" height="30.2969" rx="2.5" ry="2.5" style="stroke:#181818;stroke-width:0.5;" width="107.0303" x="705.7715" y="953.1797"/><text fill="#000000" font-family="sans-serif" font-size="14" lengthAdjust="spacing" textLength="93.0303" x="712.7715" y="973.1748">PoliceAgency</text></g><g class="participant participant-head" data-participant="Experts"><rect fill="#E2E2F0" height="30.2969" rx="2.5" ry="2.5" style="stroke:#181818;stroke-width:0.5;" width="67.1699" x="953.1504" y="87.2969"/><text fill="#000000" font-family="sans-serif" font-size="14" lengthAdjust="spacing" textLength="53.1699" x="960.1504" y="107.292">Experts</text></g><g class="participant participant-tail" data-participant="Experts"><rect fill="#E2E2F0" height="30.2969" rx="2.5" ry="2.5" style="stroke:#181818;stroke-width:0.5;" width="67.1699" x="953.1504" y="953.1797"/><text fill="#000000" font-family="sans-serif" font-size="14" lengthAdjust="spacing" textLength="53.1699" x="960.1504" y="973.1748">Experts</text></g><g class="participant participant-head" data-participant="Government"><rect fill="#E2E2F0" height="30.2969" rx="2.5" ry="2.5" style="stroke:#181818;stroke-width:0.5;" width="41.6992" x="1030.3203" y="87.2969"/><text fill="#000000" font-family="sans-serif" font-size="14" lengthAdjust="spacing" textLength="27.6992" x="1037.3203" y="107.292">Gov</text></g><g class="participant participant-tail" data-participant="Government"><rect fill="#E2E2F0" height="30.2969" rx="2.5" ry="2.5" style="stroke:#181818;stroke-width:0.5;" width="41.6992" x="1030.3203" y="953.1797"/><text fill="#000000" font-family="sans-serif" font-size="14" lengthAdjust="spacing" textLength="27.6992" x="1037.3203" y="973.1748">Gov</text></g><rect fill="#EEEEEE" height="3" style="stroke:#EEEEEE;stroke-width:1;" width="1340.1753" x="0" y="149.1602"/><line style="stroke:#000000;stroke-width:1;" x1="0" x2="1340.1753" y1="149.1602" y2="149.1602"/><line style="stroke:#000000;stroke-width:1;" x1="0" x2="1340.1753" y1="152.1602" y2="152.1602"/><rect fill="#EEEEEE" height="23.1328" style="stroke:#000000;stroke-width:2;" width="202.3477" x="568.9138" y="138.5938"/><text fill="#000000" font-family="sans-serif" font-size="13" font-weight="bold" lengthAdjust="spacing" textLength="183.8218" x="574.9138" y="154.6606">Step 1: Internal Planning</text><g class="message" data-participant-1="PoliceAgency" data-participant-2="Experts"><polygon fill="#181818" points="974.7354,188.8594,984.7354,192.8594,974.7354,196.8594,978.7354,192.8594" style="stroke:#181818;stroke-width:1;"/><line style="stroke:#181818;stroke-width:1;" x1="759.2866" x2="980.7354" y1="192.8594" y2="192.8594"/><text fill="#000000" font-family="sans-serif" font-size="13" lengthAdjust="spacing" textLength="203.4487" x="766.2866" y="187.7935">Discuss enforcement efficiency</text></g><g class="message" data-participant-1="Experts" data-participant-2="PoliceAgency"><polygon fill="#181818" points="770.2866,220.9922,760.2866,224.9922,770.2866,228.9922,766.2866,224.9922" style="stroke:#181818;stroke-width:1;"/><line style="stroke:#181818;stroke-width:1;" x1="764.2866" x2="985.7354" y1="224.9922" y2="224.9922"/><text fill="#000000" font-family="sans-serif" font-size="13" lengthAdjust="spacing" textLength="176.8394" x="776.2866" y="219.9263">Suggest blue ticket system</text></g><path d="M991,205.8594 L991,230.8594 L1329,230.8594 L1329,215.8594 L1319,205.8594 L991,205.8594" fill="#FEFFDD" style="stroke:#181818;stroke-width:0.5;"/><path d="M1319,205.8594 L1319,215.8594 L1329,215.8594 L1319,205.8594" fill="#FEFFDD" style="stroke:#181818;stroke-width:0.5;"/><text fill="#000000" font-family="sans-serif" font-size="13" lengthAdjust="spacing" textLength="317.4399" x="997" y="222.9263">Direction decided internally without citizen input</text><rect fill="#EEEEEE" height="3" style="stroke:#EEEEEE;stroke-width:1;" width="1340.1753" x="0" y="256.5586"/><line style="stroke:#000000;stroke-width:1;" x1="0" x2="1340.1753" y1="256.5586" y2="256.5586"/><line style="stroke:#000000;stroke-width:1;" x1="0" x2="1340.1753" y1="259.5586" y2="259.5586"/><rect fill="#EEEEEE" height="23.1328" style="stroke:#000000;stroke-width:2;" width="250.1265" x="545.0244" y="245.9922"/><text fill="#000000" font-family="sans-serif" font-size="13" font-weight="bold" lengthAdjust="spacing" textLength="231.6006" x="551.0244" y="262.0591">Step 2: Formal Public Comment</text><g class="message" data-participant-1="PoliceAgency" data-participant-2="Citizen"><polygon fill="#181818" points="188.9395,296.2578,178.9395,300.2578,188.9395,304.2578,184.9395,300.2578" style="stroke:#181818;stroke-width:1;"/><line style="stroke:#181818;stroke-width:1;" x1="182.9395" x2="758.2866" y1="300.2578" y2="300.2578"/><text fill="#000000" font-family="sans-serif" font-size="13" lengthAdjust="spacing" textLength="312.0508" x="194.9395" y="295.1919">Announce public comment online (low visibility)</text></g><g class="message" data-participant-1="Citizen" data-participant-2="PoliceAgency"><polygon fill="#181818" points="747.2866,325.3906,757.2866,329.3906,747.2866,333.3906,751.2866,329.3906" style="stroke:#181818;stroke-width:1;"/><line style="stroke:#181818;stroke-width:1;" x1="177.9395" x2="753.2866" y1="329.3906" y2="329.3906"/><text fill="#000000" font-family="sans-serif" font-size="13" lengthAdjust="spacing" textLength="154.9907" x="184.9395" y="324.3247">Few opinions submitted</text></g><path d="M637,342.3906 L637,367.3906 L880,367.3906 L880,352.3906 L870,342.3906 L637,342.3906" fill="#FEFFDD" style="stroke:#181818;stroke-width:0.5;"/><path d="M870,342.3906 L870,352.3906 L880,352.3906 L870,342.3906" fill="#FEFFDD" style="stroke:#181818;stroke-width:0.5;"/><text fill="#000000" font-family="sans-serif" font-size="13" lengthAdjust="spacing" textLength="222.1299" x="643" y="359.4575">Little reflection of public feedback</text><rect fill="#EEEEEE" height="3" style="stroke:#EEEEEE;stroke-width:1;" width="1340.1753" x="0" y="393.0898"/><line style="stroke:#000000;stroke-width:1;" x1="0" x2="1340.1753" y1="393.0898" y2="393.0898"/><line style="stroke:#000000;stroke-width:1;" x1="0" x2="1340.1753" y1="396.0898" y2="396.0898"/><rect fill="#EEEEEE" height="23.1328" style="stroke:#000000;stroke-width:2;" width="332.5" x="503.8376" y="382.5234"/><text fill="#000000" font-family="sans-serif" font-size="13" font-weight="bold" lengthAdjust="spacing" textLength="313.9741" x="509.8376" y="398.5903">Step 3: Policy Decision and Announcement</text><g class="message" data-participant-1="PoliceAgency" data-participant-2="Parliament"><polygon fill="#181818" points="579.4258,432.7891,569.4258,436.7891,579.4258,440.7891,575.4258,436.7891" style="stroke:#181818;stroke-width:1;"/><line style="stroke:#181818;stroke-width:1;" x1="573.4258" x2="758.2866" y1="436.7891" y2="436.7891"/><text fill="#000000" font-family="sans-serif" font-size="13" lengthAdjust="spacing" textLength="166.8608" x="585.4258" y="431.7231">Report plan and schedule</text></g><g class="message" data-participant-1="Parliament" data-participant-2="Government"><polygon fill="#181818" points="1039.1699,461.9219,1049.1699,465.9219,1039.1699,469.9219,1043.1699,465.9219" style="stroke:#181818;stroke-width:1;"/><line style="stroke:#181818;stroke-width:1;" x1="568.4258" x2="1045.1699" y1="465.9219" y2="465.9219"/><text fill="#000000" font-family="sans-serif" font-size="13" lengthAdjust="spacing" textLength="246.0923" x="575.4258" y="460.856">Approve and instruct for public notice</text></g><g class="message" data-participant-1="Government" data-participant-2="Media"><polygon fill="#181818" points="496.5273,491.0547,486.5273,495.0547,496.5273,499.0547,492.5273,495.0547" style="stroke:#181818;stroke-width:1;"/><line style="stroke:#181818;stroke-width:1;" x1="490.5273" x2="1050.1699" y1="495.0547" y2="495.0547"/><text fill="#000000" font-family="sans-serif" font-size="13" lengthAdjust="spacing" textLength="244.8735" x="502.5273" y="489.9888">Provide documents and press release</text></g><g class="message" data-participant-1="Media" data-participant-2="Citizen"><polygon fill="#181818" points="188.9395,520.1875,178.9395,524.1875,188.9395,528.1875,184.9395,524.1875" style="stroke:#181818;stroke-width:1;"/><line style="stroke:#181818;stroke-width:1;" x1="182.9395" x2="484.5273" y1="524.1875" y2="524.1875"/><text fill="#000000" font-family="sans-serif" font-size="13" lengthAdjust="spacing" textLength="283.5879" x="194.9395" y="519.1216">News: "Blue ticket system starts next year"</text></g><path d="M463,537.1875 L463,607.1875 L1072,607.1875 L1072,547.1875 L1062,537.1875 L463,537.1875" fill="#FEFFDD" style="stroke:#181818;stroke-width:0.5;"/><path d="M1062,537.1875 L1062,547.1875 L1072,547.1875 L1062,537.1875" fill="#FEFFDD" style="stroke:#181818;stroke-width:0.5;"/><text fill="#000000" font-family="sans-serif" font-size="13" lengthAdjust="spacing" textLength="158.6787" x="586.8726" y="554.2544">[Information bottleneck]</text><text fill="#000000" font-family="sans-serif" font-size="13" lengthAdjust="spacing" textLength="344.5063" x="586.8726" y="569.3872">- Government and legacy media control the info flow</text><text fill="#000000" font-family="sans-serif" font-size="13" lengthAdjust="spacing" textLength="238.0117" x="586.8726" y="584.52">- Only post-decision announcements</text><text fill="#000000" font-family="sans-serif" font-size="13" lengthAdjust="spacing" textLength="220.0034" x="586.8726" y="599.6528">- No structure for open discussion</text><rect fill="#EEEEEE" height="3" style="stroke:#EEEEEE;stroke-width:1;" width="1340.1753" x="0" y="633.2852"/><line style="stroke:#000000;stroke-width:1;" x1="0" x2="1340.1753" y1="633.2852" y2="633.2852"/><line style="stroke:#000000;stroke-width:1;" x1="0" x2="1340.1753" y1="636.2852" y2="636.2852"/><rect fill="#EEEEEE" height="23.1328" style="stroke:#000000;stroke-width:2;" width="194.5146" x="572.8303" y="622.7188"/><text fill="#000000" font-family="sans-serif" font-size="13" font-weight="bold" lengthAdjust="spacing" textLength="175.9888" x="578.8303" y="638.7856">Step 4: Citizen Reaction</text><g class="message" data-participant-1="Citizen" data-participant-2="Citizen"><line style="stroke:#181818;stroke-width:1;" x1="177.9395" x2="219.9395" y1="676.9844" y2="676.9844"/><line style="stroke:#181818;stroke-width:1;" x1="219.9395" x2="219.9395" y1="676.9844" y2="689.9844"/><line style="stroke:#181818;stroke-width:1;" x1="178.9395" x2="219.9395" y1="689.9844" y2="689.9844"/><polygon fill="#181818" points="188.9395,685.9844,178.9395,689.9844,188.9395,693.9844,184.9395,689.9844" style="stroke:#181818;stroke-width:1;"/><text fill="#000000" font-family="sans-serif" font-size="13" lengthAdjust="spacing" textLength="204.7627" x="184.9395" y="671.9185">"Wait, when was this decided?"</text></g><path d="M5,702.9844 L5,727.9844 L351,727.9844 L351,712.9844 L341,702.9844 L5,702.9844" fill="#FEFFDD" style="stroke:#181818;stroke-width:0.5;"/><path d="M341,702.9844 L341,712.9844 L351,712.9844 L341,702.9844" fill="#FEFFDD" style="stroke:#181818;stroke-width:0.5;"/><text fill="#000000" font-family="sans-serif" font-size="13" lengthAdjust="spacing" textLength="325.0698" x="11" y="720.0513">Citizens receive notice, not participate in decision</text><rect fill="#EEEEEE" height="3" style="stroke:#EEEEEE;stroke-width:1;" width="1340.1753" x="0" y="753.6836"/><line style="stroke:#000000;stroke-width:1;" x1="0" x2="1340.1753" y1="753.6836" y2="753.6836"/><line style="stroke:#000000;stroke-width:1;" x1="0" x2="1340.1753" y1="756.6836" y2="756.6836"/><rect fill="#EEEEEE" height="23.1328" style="stroke:#000000;stroke-width:2;" width="165.0679" x="587.5537" y="743.1172"/><text fill="#000000" font-family="sans-serif" font-size="13" font-weight="bold" lengthAdjust="spacing" textLength="146.542" x="593.5537" y="759.1841">Step 5: Ideal Future</text><g class="message" data-participant-1="Citizen" data-participant-2="Government"><polygon fill="#181818" points="1039.1699,793.3828,1049.1699,797.3828,1039.1699,801.3828,1043.1699,797.3828" style="stroke:#181818;stroke-width:1;"/><line style="stroke:#181818;stroke-width:1;" x1="177.9395" x2="1045.1699" y1="797.3828" y2="797.3828"/><text fill="#000000" font-family="sans-serif" font-size="13" lengthAdjust="spacing" textLength="218.0103" x="184.9395" y="792.3169">"Dialogue before announcement"</text></g><g class="message" data-participant-1="Media" data-participant-2="Citizen"><polygon fill="#181818" points="188.9395,822.5156,178.9395,826.5156,188.9395,830.5156,184.9395,826.5156" style="stroke:#181818;stroke-width:1;"/><line style="stroke:#181818;stroke-width:1;" x1="182.9395" x2="484.5273" y1="826.5156" y2="826.5156"/><text fill="#000000" font-family="sans-serif" font-size="13" lengthAdjust="spacing" textLength="200.5923" x="194.9395" y="821.4497">Report pros, cons, and context</text></g><g class="message" data-participant-1="PoliceAgency" data-participant-2="Citizen"><polygon fill="#181818" points="188.9395,851.6484,178.9395,855.6484,188.9395,859.6484,184.9395,855.6484" style="stroke:#181818;stroke-width:1;"/><line style="stroke:#181818;stroke-width:1;" x1="182.9395" x2="758.2866" y1="855.6484" y2="855.6484"/><text fill="#000000" font-family="sans-serif" font-size="13" lengthAdjust="spacing" textLength="130.5142" x="194.9395" y="850.5825">Explain safety goals</text></g><path d="M152,868.6484 L152,938.6484 L509,938.6484 L509,878.6484 L499,868.6484 L152,868.6484" fill="#FEFFDD" style="stroke:#181818;stroke-width:0.5;"/><path d="M499,868.6484 L499,878.6484 L509,878.6484 L499,868.6484" fill="#FEFFDD" style="stroke:#181818;stroke-width:0.5;"/><text fill="#000000" font-family="sans-serif" font-size="13" lengthAdjust="spacing" textLength="41.8057" x="161.8491" y="885.7153">[Ideal]</text><text fill="#000000" font-family="sans-serif" font-size="13" lengthAdjust="spacing" textLength="179.1118" x="161.8491" y="900.8481">- Share info before decision</text><text fill="#000000" font-family="sans-serif" font-size="13" lengthAdjust="spacing" textLength="262.1899" x="161.8491" y="915.981">- Media acts as discussion space, not PR</text><text fill="#000000" font-family="sans-serif" font-size="13" lengthAdjust="spacing" textLength="328.853" x="161.8491" y="931.1138">- Citizens become co-thinkers, not mere recipients</text><!--SRC=[fLJDQnD15B_lN_78fGhDmQzBe4e_h0YsXbRm81vcPr-IePEPPUPjqtXIH5eK3tfLeNYeHKJq8cBnhwcfxN_XczriDajh3vf3bfsPz_RtzMO6vlxz5yt0Wf93gH4MT8PmJyaD95WVUi8-D655UQzC5zfPh9M49ULbnYlMSE7_V9RBZxS_7X-yFpvuVlBkzMXd-_UdlT7Ejz6FlSCd-wCtFu- -lFhr_UNexVxXayz7Jv-DThyUVNXnydWt8aK1x7cWRvkEXMLj1z1sDjROZo8XoJfOLAGUeObIuKX9bGf3i8A94hMLjd1QYJuQgYzRLW3dksZaiBPnSoj5HxwsTijkWl3XWSxahQAvELWdJE5IYm4IBmiDRIsC2Vgo9DFzeNczR0kjKdL0vkKaXdQ0dGv_AyTI7kIQMeyMh6VTBdg2EAX4XKe-LoaobX2SwlOeMb8E9R6daA1K2IQWnlZq40QAUZOZa8Lql9Lc5A5987IeM5rkmR9r_S2fYCgYxUT0ps0sje41pXjZCoCHqg98ZekiqSeWN0WURYglOgKL3Iz6PULfgiiu09igmpGy-2pkAo9C2fh1XBfzTtYNq-EmeyVKRQV4q45COY4tpY1vfLMq6S8IAnN600GVAbdyZMyLA0QwXgbr12axdnTxsSCaqnXDdUAQAZb1fZHr_9wVLyQJooG1Pw64p2ZvWz5K3NV8Wyt5F0ERx2eaLcPXp-TjKeUSA8SQXSUeE5kpPXK7lWMDXLFH0KyYnCtW5i4GXMjCgLn1c1rFreCmZHoCNENO1jqDoes7KNEQOu2aiIjOi7wEHLf3pcgW7Z9bdkTEo09mrLt3iKojfsPIcL0PuFD3gnOAcJA7kL8sPLP9TNsTDlTgQy9-3KMH2ZPpAdALE8txGZ73GO_V1Zpdr5E-d9uRqtgKDyxu6HINgDZAmhBPy8J9nK61AvIqpi1uZU-E17d8bhESMHrVBJED9IMqxR9xCR80M1EfSPRZPJATzRD1V_uFjWGdsEfpffWl82qOk1STf25qhT3-j0PL80A3uFzwJxYnksEC4qU3XmL4TiA7gxJo3dmgIkdQQ_dHYRmnyXM2ZBd9bfWDTBuurqSNnfr5LY4Z4sd_0000]--></g></svg>