<svg xmlns="http://www.w3.org/2000/svg" xmlns:xlink="http://www.w3.org/1999/xlink" contentStyleType="text/css" data-diagram-type="SEQUENCE" height="1019px" preserveAspectRatio="none" style="width:1204px;height:1019px;background:#FFFFFF;" version="1.1" viewBox="0 0 1204 1019" width="1204px" zoomAndPan="magnify"><title>&#12300;&#26087;&#12513;&#12487;&#12451;&#12450;&#12398;&#21360;&#35937;&#25805;&#20316;&#12392;&#22269;&#27665;&#12408;&#12398;&#24433;&#38911;&#12301;</title><defs/><g><text fill="#000000" font-family="'Arial'" font-size="14" font-weight="bold" lengthAdjust="spacing" textLength="265.9988" x="465.4502" y="27.9951">&#12300;&#26087;&#12513;&#12487;&#12451;&#12450;&#12398;&#21360;&#35937;&#25805;&#20316;&#12392;&#22269;&#27665;&#12408;&#12398;&#24433;&#38911;&#12301;</text><g><title>...</title><rect fill="#000000" fill-opacity="0.00000" height="819.8281" width="8" x="24.9999" y="118.5938"/><line style="stroke:#181818;stroke-width:0.5;stroke-dasharray:5,5;" x1="28" x2="28" y1="118.5938" y2="938.4219"/></g><g><title>...............</title><rect fill="#000000" fill-opacity="0.00000" height="819.8281" width="8" x="205.9994" y="118.5938"/><line style="stroke:#181818;stroke-width:0.5;stroke-dasharray:5,5;" x1="208.9998" x2="208.9998" y1="118.5938" y2="938.4219"/></g><g><title>.............</title><rect fill="#000000" fill-opacity="0.00000" height="819.8281" width="8" x="487.4605" y="118.5938"/><line style="stroke:#181818;stroke-width:0.5;stroke-dasharray:5,5;" x1="490.9989" x2="490.9989" y1="118.5938" y2="938.4219"/></g><g><title>SNS........</title><rect fill="#000000" fill-opacity="0.00000" height="819.8281" width="8" x="729.4033" y="118.5938"/><line style="stroke:#181818;stroke-width:0.5;stroke-dasharray:5,5;" x1="732.9221" x2="732.9221" y1="118.5938" y2="938.4219"/></g><g><title>..</title><rect fill="#000000" fill-opacity="0.00000" height="819.8281" width="8" x="902.8845" y="118.5938"/><line style="stroke:#181818;stroke-width:0.5;stroke-dasharray:5,5;" x1="905.8845" x2="905.8845" y1="118.5938" y2="938.4219"/></g><g class="participant participant-head" data-participant="Politician"><text fill="#000000" font-family="'Arial'" font-size="14" lengthAdjust="spacing" textLength="41.9998" x="5" y="115.292">&#25919;&#27835;&#23478;</text><ellipse cx="28.9999" cy="50.7969" fill="#E2E2F0" rx="8" ry="8" style="stroke:#181818;stroke-width:0.5;"/><path d="M28.9999,58.7969 L28.9999,85.7969 M15.9999,66.7969 L41.9999,66.7969 M28.9999,85.7969 L15.9999,100.7969 M28.9999,85.7969 L41.9999,100.7969" fill="none" style="stroke:#181818;stroke-width:0.5;"/></g><g class="participant participant-tail" data-participant="Politician"><text fill="#000000" font-family="'Arial'" font-size="14" lengthAdjust="spacing" textLength="41.9998" x="5" y="950.417">&#25919;&#27835;&#23478;</text><ellipse cx="28.9999" cy="962.2188" fill="#E2E2F0" rx="8" ry="8" style="stroke:#181818;stroke-width:0.5;"/><path d="M28.9999,970.2188 L28.9999,997.2188 M15.9999,978.2188 L41.9999,978.2188 M28.9999,997.2188 L15.9999,1012.2188 M28.9999,997.2188 L41.9999,1012.2188" fill="none" style="stroke:#181818;stroke-width:0.5;"/></g><g class="participant participant-head" data-participant="KishaClub"><rect fill="#E2E2F0" height="30.2969" rx="2.5" ry="2.5" style="stroke:#181818;stroke-width:0.5;" width="223.9991" x="97.9998" y="87.2969"/><text fill="#000000" font-family="'Arial'" font-size="14" lengthAdjust="spacing" textLength="209.9991" x="104.9998" y="107.292">&#35352;&#32773;&#12463;&#12521;&#12502;&#65288;&#35352;&#32773;&#65291;&#12459;&#12513;&#12521;&#12510;&#12531;&#65289;</text></g><g class="participant participant-tail" data-participant="KishaClub"><rect fill="#E2E2F0" height="30.2969" rx="2.5" ry="2.5" style="stroke:#181818;stroke-width:0.5;" width="223.9991" x="97.9998" y="937.4219"/><text fill="#000000" font-family="'Arial'" font-size="14" lengthAdjust="spacing" textLength="209.9991" x="104.9998" y="957.417">&#35352;&#32773;&#12463;&#12521;&#12502;&#65288;&#35352;&#32773;&#65291;&#12459;&#12513;&#12521;&#12510;&#12531;&#65289;</text></g><g class="participant participant-head" data-participant="OldMedia"><rect fill="#E2E2F0" height="30.2969" rx="2.5" ry="2.5" style="stroke:#181818;stroke-width:0.5;" width="178.9232" x="401.9989" y="87.2969"/><text fill="#000000" font-family="'Arial'" font-size="14" lengthAdjust="spacing" textLength="164.9232" x="408.9989" y="107.292">&#26087;&#12513;&#12487;&#12451;&#12450;(&#26032;&#32862;&#12539;&#12486;&#12524;&#12499;)</text></g><g class="participant participant-tail" data-participant="OldMedia"><rect fill="#E2E2F0" height="30.2969" rx="2.5" ry="2.5" style="stroke:#181818;stroke-width:0.5;" width="178.9232" x="401.9989" y="937.4219"/><text fill="#000000" font-family="'Arial'" font-size="14" lengthAdjust="spacing" textLength="164.9232" x="408.9989" y="957.417">&#26087;&#12513;&#12487;&#12451;&#12450;(&#26032;&#32862;&#12539;&#12486;&#12524;&#12499;)</text></g><g class="participant participant-head" data-participant="NetUser"><rect fill="#E2E2F0" height="30.2969" rx="2.5" ry="2.5" style="stroke:#181818;stroke-width:0.5;" width="144.9625" x="660.9221" y="87.2969"/><text fill="#000000" font-family="'Arial'" font-size="14" lengthAdjust="spacing" textLength="130.9625" x="667.9221" y="107.292">SNS/&#12493;&#12483;&#12488;&#12518;&#12540;&#12470;&#12540;</text></g><g class="participant participant-tail" data-participant="NetUser"><rect fill="#E2E2F0" height="30.2969" rx="2.5" ry="2.5" style="stroke:#181818;stroke-width:0.5;" width="144.9625" x="660.9221" y="937.4219"/><text fill="#000000" font-family="'Arial'" font-size="14" lengthAdjust="spacing" textLength="130.9625" x="667.9221" y="957.417">SNS/&#12493;&#12483;&#12488;&#12518;&#12540;&#12470;&#12540;</text></g><g class="participant participant-head" data-participant="Citizens"><rect fill="#E2E2F0" height="30.2969" rx="2.5" ry="2.5" style="stroke:#181818;stroke-width:0.5;" width="41.9999" x="885.8845" y="87.2969"/><text fill="#000000" font-family="'Arial'" font-size="14" lengthAdjust="spacing" textLength="27.9999" x="892.8845" y="107.292">&#22269;&#27665;</text></g><g class="participant participant-tail" data-participant="Citizens"><rect fill="#E2E2F0" height="30.2969" rx="2.5" ry="2.5" style="stroke:#181818;stroke-width:0.5;" width="41.9999" x="885.8845" y="937.4219"/><text fill="#000000" font-family="'Arial'" font-size="14" lengthAdjust="spacing" textLength="27.9999" x="892.8845" y="957.417">&#22269;&#27665;</text></g><rect fill="#EEEEEE" height="3" style="stroke:#EEEEEE;stroke-width:1;" width="1197.8993" x="0" y="149.7422"/><line style="stroke:#000000;stroke-width:1;" x1="0" x2="1197.8993" y1="149.7422" y2="149.7422"/><line style="stroke:#000000;stroke-width:1;" x1="0" x2="1197.8993" y1="152.7422" y2="152.7422"/><rect fill="#EEEEEE" height="24.2969" style="stroke:#000000;stroke-width:2;" width="102.8737" x="547.5128" y="138.5938"/><text fill="#000000" font-family="'Arial'" font-size="14" font-weight="bold" lengthAdjust="spacing" textLength="83.9996" x="553.5128" y="155.5889">&#35023;&#20596;&#12391;&#12398;&#30330;&#35328;</text><g class="message" data-participant-1="KishaClub" data-participant-2="KishaClub"><line style="stroke:#181818;stroke-width:1;" x1="209.9994" x2="251.9994" y1="195.1875" y2="195.1875"/><line style="stroke:#181818;stroke-width:1;" x1="251.9994" x2="251.9994" y1="195.1875" y2="208.1875"/><line style="stroke:#181818;stroke-width:1;" x1="210.9994" x2="251.9994" y1="208.1875" y2="208.1875"/><polygon fill="#181818" points="220.9994,204.1875,210.9994,208.1875,220.9994,212.1875,216.9994,208.1875" style="stroke:#181818;stroke-width:1;"/><text fill="#000000" font-family="'Arial'" font-size="14" lengthAdjust="spacing" textLength="237.999" x="216.9994" y="189.8857">&#12300;&#25919;&#27835;&#23478;&#12434;&#24746;&#12367;&#35211;&#12379;&#12427;&#20889;&#30495;&#12434;&#25774;&#12429;&#12358;&#12301;</text></g><g class="message" data-participant-1="KishaClub" data-participant-2="KishaClub"><line style="stroke:#181818;stroke-width:1;" x1="209.9994" x2="251.9994" y1="238.4844" y2="238.4844"/><line style="stroke:#181818;stroke-width:1;" x1="251.9994" x2="251.9994" y1="238.4844" y2="251.4844"/><line style="stroke:#181818;stroke-width:1;" x1="210.9994" x2="251.9994" y1="251.4844" y2="251.4844"/><polygon fill="#181818" points="220.9994,247.4844,210.9994,251.4844,220.9994,255.4844,216.9994,251.4844" style="stroke:#181818;stroke-width:1;"/><text fill="#000000" font-family="'Arial'" font-size="14" lengthAdjust="spacing" textLength="237.999" x="216.9994" y="233.1826">&#12300;&#21360;&#35937;&#12434;&#24746;&#12367;&#12377;&#12427;&#35352;&#20107;&#12434;&#26360;&#12356;&#12390;&#12420;&#12427;&#12301;</text></g><rect fill="#EEEEEE" height="3" style="stroke:#EEEEEE;stroke-width:1;" width="1197.8993" x="0" y="280.6328"/><line style="stroke:#000000;stroke-width:1;" x1="0" x2="1197.8993" y1="280.6328" y2="280.6328"/><line style="stroke:#000000;stroke-width:1;" x1="0" x2="1197.8993" y1="283.6328" y2="283.6328"/><rect fill="#EEEEEE" height="24.2969" style="stroke:#000000;stroke-width:2;" width="74.8738" x="561.5128" y="269.4844"/><text fill="#000000" font-family="'Arial'" font-size="14" font-weight="bold" lengthAdjust="spacing" textLength="55.9998" x="567.5128" y="286.4795">&#38899;&#22768;&#27969;&#20986;</text><g class="message" data-participant-1="KishaClub" data-participant-2="NetUser"><polygon fill="#181818" points="721.4033,322.0781,731.4033,326.0781,721.4033,330.0781,725.4033,326.0781" style="stroke:#181818;stroke-width:1;"/><line style="stroke:#181818;stroke-width:1;" x1="209.9994" x2="727.4033" y1="326.0781" y2="326.0781"/><text fill="#000000" font-family="'Arial'" font-size="14" lengthAdjust="spacing" textLength="97.9996" x="216.9994" y="320.7764">&#20869;&#37096;&#38899;&#22768;&#12364;&#27969;&#20986;</text></g><path d="M214,339.0781 L214,365.0781 L458,365.0781 L458,349.0781 L448,339.0781 L214,339.0781" fill="#FEFFDD" style="stroke:#181818;stroke-width:0.5;"/><path d="M448,339.0781 L448,349.0781 L458,349.0781 L448,339.0781" fill="#FEFFDD" style="stroke:#181818;stroke-width:0.5;"/><text fill="#000000" font-family="'Arial'" font-size="14" lengthAdjust="spacing" textLength="223.999" x="220" y="357.0732">&#12458;&#12501;&#12524;&#12467;&#12398;&#12420;&#12426;&#21462;&#12426;&#12364;&#12493;&#12483;&#12488;&#12395;&#27969;&#20986;</text><rect fill="#EEEEEE" height="3" style="stroke:#EEEEEE;stroke-width:1;" width="1197.8993" x="0" y="391.5234"/><line style="stroke:#000000;stroke-width:1;" x1="0" x2="1197.8993" y1="391.5234" y2="391.5234"/><line style="stroke:#000000;stroke-width:1;" x1="0" x2="1197.8993" y1="394.5234" y2="394.5234"/><rect fill="#EEEEEE" height="24.2969" style="stroke:#000000;stroke-width:2;" width="46.8739" x="575.5127" y="380.375"/><text fill="#000000" font-family="'Arial'" font-size="14" font-weight="bold" lengthAdjust="spacing" textLength="27.9999" x="581.5127" y="397.3701">&#28814;&#19978;</text><g class="message" data-participant-1="NetUser" data-participant-2="NetUser"><line style="stroke:#181818;stroke-width:1;" x1="733.4033" x2="775.4033" y1="436.9688" y2="436.9688"/><line style="stroke:#181818;stroke-width:1;" x1="775.4033" x2="775.4033" y1="436.9688" y2="449.9688"/><line style="stroke:#181818;stroke-width:1;" x1="734.4033" x2="775.4033" y1="449.9688" y2="449.9688"/><polygon fill="#181818" points="744.4033,445.9688,734.4033,449.9688,744.4033,453.9688,740.4033,449.9688" style="stroke:#181818;stroke-width:1;"/><text fill="#000000" font-family="'Arial'" font-size="14" lengthAdjust="spacing" textLength="69.9997" x="740.4033" y="431.667">&#24594;&#12426;&#12539;&#25313;&#25955;</text></g><path d="M738,462.9688 L738,504.9688 L1005,504.9688 L1005,472.9688 L995,462.9688 L738,462.9688" fill="#FEFFDD" style="stroke:#181818;stroke-width:0.5;"/><path d="M995,462.9688 L995,472.9688 L1005,472.9688 L995,462.9688" fill="#FEFFDD" style="stroke:#181818;stroke-width:0.5;"/><text fill="#000000" font-family="'Arial'" font-size="14" lengthAdjust="spacing" textLength="237.999" x="744" y="480.9639">&#12300;&#26087;&#12513;&#12487;&#12451;&#12450;&#12399;&#21360;&#35937;&#25805;&#20316;&#12375;&#12390;&#12356;&#12427;&#65281;&#12301;</text><text fill="#000000" font-family="'Arial'" font-size="14" lengthAdjust="spacing" textLength="167.9993" x="744" y="497.2607">&#12300;&#20844;&#27491;&#12394;&#22577;&#36947;&#12376;&#12419;&#12394;&#12356;&#65281;&#12301;</text><rect fill="#EEEEEE" height="3" style="stroke:#EEEEEE;stroke-width:1;" width="1197.8993" x="0" y="531.7109"/><line style="stroke:#000000;stroke-width:1;" x1="0" x2="1197.8993" y1="531.7109" y2="531.7109"/><line style="stroke:#000000;stroke-width:1;" x1="0" x2="1197.8993" y1="534.7109" y2="534.7109"/><rect fill="#EEEEEE" height="24.2969" style="stroke:#000000;stroke-width:2;" width="130.8735" x="533.5129" y="520.5625"/><text fill="#000000" font-family="'Arial'" font-size="14" font-weight="bold" lengthAdjust="spacing" textLength="111.9995" x="539.5129" y="537.5576">&#27498;&#12435;&#12384;&#24773;&#22577;&#12398;&#20253;&#36948;</text><g class="message" data-participant-1="OldMedia" data-participant-2="Citizens"><polygon fill="#181818" points="894.8845,573.1563,904.8845,577.1563,894.8845,581.1563,898.8845,577.1563" style="stroke:#181818;stroke-width:1;"/><line style="stroke:#181818;stroke-width:1;" x1="491.4605" x2="900.8845" y1="577.1563" y2="577.1563"/><text fill="#000000" font-family="'Arial'" font-size="14" lengthAdjust="spacing" textLength="139.9994" x="498.4605" y="571.8545">&#27498;&#12417;&#12425;&#12428;&#12383;&#24773;&#22577;&#12434;&#22577;&#36947;</text></g><path d="M911,590.1563 L911,632.1563 L1192,632.1563 L1192,600.1563 L1182,590.1563 L911,590.1563" fill="#FEFFDD" style="stroke:#181818;stroke-width:0.5;"/><path d="M1182,590.1563 L1182,600.1563 L1192,600.1563 L1182,590.1563" fill="#FEFFDD" style="stroke:#181818;stroke-width:0.5;"/><text fill="#000000" font-family="'Arial'" font-size="14" lengthAdjust="spacing" textLength="251.9989" x="917" y="608.1514">&#12539;&#21360;&#35937;&#25805;&#20316;&#12373;&#12428;&#12383;&#35352;&#20107;&#12420;&#26144;&#20687;&#12434;&#21463;&#12369;&#21462;&#12427;</text><text fill="#000000" font-family="'Arial'" font-size="14" lengthAdjust="spacing" textLength="125.9995" x="917" y="624.4482">&#12539;&#19990;&#35542;&#12364;&#35480;&#23566;&#12373;&#12428;&#12427;</text><rect fill="#EEEEEE" height="3" style="stroke:#EEEEEE;stroke-width:1;" width="1197.8993" x="0" y="658.8984"/><line style="stroke:#000000;stroke-width:1;" x1="0" x2="1197.8993" y1="658.8984" y2="658.8984"/><line style="stroke:#000000;stroke-width:1;" x1="0" x2="1197.8993" y1="661.8984" y2="661.8984"/><rect fill="#EEEEEE" height="24.2969" style="stroke:#000000;stroke-width:2;" width="74.8738" x="561.5128" y="647.75"/><text fill="#000000" font-family="'Arial'" font-size="14" font-weight="bold" lengthAdjust="spacing" textLength="55.9998" x="567.5128" y="664.7451">&#20449;&#38972;&#20302;&#19979;</text><g class="message" data-participant-1="NetUser" data-participant-2="OldMedia"><polygon fill="#181818" points="502.4605,700.3438,492.4605,704.3438,502.4605,708.3438,498.4605,704.3438" style="stroke:#181818;stroke-width:1;"/><line style="stroke:#181818;stroke-width:1;" x1="496.4605" x2="732.4033" y1="704.3438" y2="704.3438"/><text fill="#000000" font-family="'Arial'" font-size="14" lengthAdjust="spacing" textLength="69.9997" x="508.4605" y="699.042">&#20449;&#38972;&#12434;&#22833;&#12358;</text></g><g class="message" data-participant-1="OldMedia" data-participant-2="OldMedia"><line style="stroke:#181818;stroke-width:1;" x1="491.4605" x2="533.4605" y1="734.6406" y2="734.6406"/><line style="stroke:#181818;stroke-width:1;" x1="533.4605" x2="533.4605" y1="734.6406" y2="747.6406"/><line style="stroke:#181818;stroke-width:1;" x1="492.4605" x2="533.4605" y1="747.6406" y2="747.6406"/><polygon fill="#181818" points="502.4605,743.6406,492.4605,747.6406,502.4605,751.6406,498.4605,747.6406" style="stroke:#181818;stroke-width:1;"/><text fill="#000000" font-family="'Arial'" font-size="14" lengthAdjust="spacing" textLength="167.9993" x="498.4605" y="729.3389">&#12502;&#12521;&#12531;&#12489;&#22833;&#22684;&#12539;&#19981;&#20449;&#24863;&#25313;&#22823;</text></g><g class="message" data-participant-1="Politician" data-participant-2="Politician"><line style="stroke:#181818;stroke-width:1;" x1="28.9999" x2="70.9999" y1="777.9375" y2="777.9375"/><line style="stroke:#181818;stroke-width:1;" x1="70.9999" x2="70.9999" y1="777.9375" y2="790.9375"/><line style="stroke:#181818;stroke-width:1;" x1="29.9999" x2="70.9999" y1="790.9375" y2="790.9375"/><polygon fill="#181818" points="39.9999,786.9375,29.9999,790.9375,39.9999,794.9375,35.9999,790.9375" style="stroke:#181818;stroke-width:1;"/><text fill="#000000" font-family="'Arial'" font-size="14" lengthAdjust="spacing" textLength="139.9994" x="35.9999" y="772.6357">&#19968;&#26178;&#30340;&#12395;&#12452;&#12513;&#12540;&#12472;&#24746;&#21270;</text></g><rect fill="#EEEEEE" height="3" style="stroke:#EEEEEE;stroke-width:1;" width="1197.8993" x="0" y="820.0859"/><line style="stroke:#000000;stroke-width:1;" x1="0" x2="1197.8993" y1="820.0859" y2="820.0859"/><line style="stroke:#000000;stroke-width:1;" x1="0" x2="1197.8993" y1="823.0859" y2="823.0859"/><rect fill="#EEEEEE" height="24.2969" style="stroke:#000000;stroke-width:2;" width="116.8736" x="540.5128" y="808.9375"/><text fill="#000000" font-family="'Arial'" font-size="14" font-weight="bold" lengthAdjust="spacing" textLength="97.9996" x="546.5128" y="825.9326">&#26681;&#26412;&#21407;&#22240;&#12398;&#35696;&#35542;</text><path d="M654,848.2344 L654,923.2344 L985,923.2344 L985,858.2344 L975,848.2344 L654,848.2344" fill="#FEFFDD" style="stroke:#181818;stroke-width:0.5;"/><path d="M975,848.2344 L975,858.2344 L985,858.2344 L975,848.2344" fill="#FEFFDD" style="stroke:#181818;stroke-width:0.5;"/><text fill="#000000" font-family="'Arial'" font-size="14" lengthAdjust="spacing" textLength="237.999" x="678.0316" y="866.2295">&#12493;&#12483;&#12488;&#19978;&#12391;&#12399;&#28814;&#19978;&#12434;&#36229;&#12360;&#12390;&#35696;&#35542;&#12395;&#30330;&#23637;</text><text fill="#000000" font-family="'Arial'" font-size="14" lengthAdjust="spacing" textLength="265.9988" x="678.0316" y="882.5264">&#12539;&#35352;&#32773;&#12463;&#12521;&#12502;&#12392;&#12356;&#12358;&#38281;&#37782;&#30340;&#12471;&#12473;&#12486;&#12512;&#12364;&#21839;&#38988;</text><text fill="#000000" font-family="'Arial'" font-size="14" lengthAdjust="spacing" textLength="209.9991" x="678.0316" y="898.8232">&#12539;&#20844;&#24179;&#12539;&#20844;&#27491;&#12394;&#22577;&#36947;&#12434;&#22952;&#12370;&#12390;&#12356;&#12427;</text><text fill="#000000" font-family="'Arial'" font-size="14" lengthAdjust="spacing" textLength="195.9991" x="678.0316" y="915.1201">&#12539;&#26087;&#12513;&#12487;&#12451;&#12450;&#19981;&#20449;&#12398;&#26412;&#24403;&#12398;&#28304;&#27849;</text><!--SRC=[VLHTRnf757tVNp7YgPLQHVt8IoHNgYBbfOfZoUeFs9gDimfPN5Zd8K_CZ24XW6bm87Rj1WWMTls9I-jY0_AFkSnuzyb_eNTcMSmIgo-htTbxxfnpxfbnRJTX4SWKvOSzu4tWhu6rW7q2UY9A7U-iAJTAe-4Eq7snFPITTq1xwjVmpAzVGQPa6EddjhDYfimN96uzDLSJxgEauywRBomI-p5bcudOtHMBzYkBVFFzrC-qzUkgvInP2sRAjPVi5TDn5ynut7QMoNVtxwXxRANJvhArk68kgPflxnk6kUGcKoGctr_9l_hYv3n6p3HPI2PirT1qZ9NRrYJcxMzwcIomK-1_0g_T3Du4ApU30h13xGMkVmJUlHdaTQUVxFGpys5YzPTeenddlf2rZaSHrmUU0tu4VEDB3N-IY3-suhOPHI_EBzu3NWBEWRy1tWO-07QEJusPjzoVqrOg2WaceVy_H6clB2Tj67Dpn6kL1VqRw1vEw7hhqjlFaBavOyAQVFt3hGJoG0yzT0fOHR83e6MlNG2w3QmWSblNEtMrNZa1LWAQmt4Jyh_jWiHCUW7TmaRewkYoe1QtCJfhGDl0rd1TfmTP-_MkQ7NaFrIylloCxrW_jXUvhC_tWsAWnQ3US9AkHLBsyZEN99zE3OWGG0gyglndNVH3x_bMb6luHFYju_HmtCfouaIrqwIksVgezrRH2Hb4oCXCHVNXVLbeocfhXaOuD7BdkJgDdgiFoX2g3BaPqC1YZHFP8tdS0deW6cS-tG2w2OpZ9zPE2YEKvV41CAnhI9v536eU3VxmwNib8eoUKX56HibG40ei3wm8j3u6iagmvOogITIG7kz7HLI31k6er-HcG_2owbH6VU-qxOL06U-FUZNli8P3y0usHMTzZDR_8u96Lqs_CHWDSHA5cKbCz3mOLwcjTb5pBY9rgWnFk3xFNU1vh1IVTZIJ4iBbMXt7A7RtZDkhGg6dld2RNaPkiUlVCR-7m7RrI77N7YPT56l101eNSkT8hDV5TWFTzuuxA5CHrpucNoBriOIlecQEeuY1qsVtD0WVIlBEiq0neksW5swDnrgSLKCdPwumlAJr0SlvjRo_NbDasR_0BlGzX9IAebhscyKGZGaJ5ztW9H8rzBADdIgJP8Q8cIm7zg5K9NkueLukVvFT_DGW_mC0]--></g></svg>