<svg xmlns="http://www.w3.org/2000/svg" xmlns:xlink="http://www.w3.org/1999/xlink" contentStyleType="text/css" data-diagram-type="SEQUENCE" height="767px" preserveAspectRatio="none" style="width:906px;height:767px;background:#FFFFFF;" version="1.1" viewBox="0 0 906 767" width="906px" zoomAndPan="magnify"><title>Flatpak&#29256; VS Code &#12395;&#12362;&#12369;&#12427; PlantUML &#35373;&#23450;&#12398;&#21453;&#26144;</title><defs/><g><text fill="#000000" font-family="sans-serif" font-size="14" font-weight="bold" lengthAdjust="spacing" textLength="359.3646" x="269.4543" y="27.9951">Flatpak&#29256; VS Code &#12395;&#12362;&#12369;&#12427; PlantUML &#35373;&#23450;&#12398;&#21453;&#26144;</text><rect fill="none" height="75.3984" style="stroke:#000000;stroke-width:1.5;" width="574.1703" x="10" y="258.125"/><g><title>&#12518;&#12540;&#12470;&#12540;</title><rect fill="#000000" fill-opacity="0.00000" height="567.7891" width="8" x="46.9999" y="118.5938"/><line style="stroke:#181818;stroke-width:0.5;stroke-dasharray:5.0,5.0;" x1="50" x2="50" y1="118.5938" y2="686.3828"/></g><g><title>System</title><rect fill="#000000" fill-opacity="0.00000" height="567.7891" width="8" x="250.8544" y="118.5938"/><line style="stroke:#181818;stroke-width:0.5;stroke-dasharray:5.0,5.0;" x1="254.7514" x2="254.7514" y1="118.5938" y2="686.3828"/></g><g><title>FileSystem</title><rect fill="#000000" fill-opacity="0.00000" height="567.7891" width="8" x="524.8446" y="118.5938"/><line style="stroke:#181818;stroke-width:0.5;stroke-dasharray:5.0,5.0;" x1="528.5189" x2="528.5189" y1="118.5938" y2="686.3828"/></g><g><title>settings.json</title><rect fill="#000000" fill-opacity="0.00000" height="567.7891" width="8" x="631.621" y="118.5938"/><line style="stroke:#181818;stroke-width:0.5;stroke-dasharray:5.0,5.0;" x1="635.1703" x2="635.1703" y1="118.5938" y2="686.3828"/></g><g><title>VSCode</title><rect fill="#000000" fill-opacity="0.00000" height="567.7891" width="8" x="727.224" y="118.5938"/><line style="stroke:#181818;stroke-width:0.5;stroke-dasharray:5.0,5.0;" x1="731.0717" x2="731.0717" y1="118.5938" y2="686.3828"/></g><g><title>PlantUML</title><rect fill="#000000" fill-opacity="0.00000" height="567.7891" width="8" x="842.2241" y="118.5938"/><line style="stroke:#181818;stroke-width:0.5;stroke-dasharray:5.0,5.0;" x1="845.5244" x2="845.5244" y1="118.5938" y2="686.3828"/></g><g class="participant participant-head" data-participant="User"><text fill="#000000" font-family="sans-serif" font-size="14" lengthAdjust="spacing" textLength="55.9998" x="20" y="115.292">&#12518;&#12540;&#12470;&#12540;</text><ellipse cx="50.9999" cy="50.7969" fill="#E2E2F0" rx="8" ry="8" style="stroke:#181818;stroke-width:0.5;"/><path d="M50.9999,58.7969 L50.9999,85.7969 M37.9999,66.7969 L63.9999,66.7969 M50.9999,85.7969 L37.9999,100.7969 M50.9999,85.7969 L63.9999,100.7969" fill="none" style="stroke:#181818;stroke-width:0.5;"/></g><g class="participant participant-tail" data-participant="User"><text fill="#000000" font-family="sans-serif" font-size="14" lengthAdjust="spacing" textLength="55.9998" x="20" y="698.3779">&#12518;&#12540;&#12470;&#12540;</text><ellipse cx="50.9999" cy="710.1797" fill="#E2E2F0" rx="8" ry="8" style="stroke:#181818;stroke-width:0.5;"/><path d="M50.9999,718.1797 L50.9999,745.1797 M37.9999,726.1797 L63.9999,726.1797 M50.9999,745.1797 L37.9999,760.1797 M50.9999,745.1797 L63.9999,760.1797" fill="none" style="stroke:#181818;stroke-width:0.5;"/></g><g class="participant participant-head" data-participant="System"><rect fill="#E2E2F0" height="30.2969" rx="2.5" ry="2.5" style="stroke:#181818;stroke-width:0.5;" width="66.2061" x="221.7514" y="87.2969"/><text fill="#000000" font-family="sans-serif" font-size="14" lengthAdjust="spacing" textLength="52.2061" x="228.7514" y="107.292">System</text></g><g class="participant participant-tail" data-participant="System"><rect fill="#E2E2F0" height="30.2969" rx="2.5" ry="2.5" style="stroke:#181818;stroke-width:0.5;" width="66.2061" x="221.7514" y="685.3828"/><text fill="#000000" font-family="sans-serif" font-size="14" lengthAdjust="spacing" textLength="52.2061" x="228.7514" y="705.3779">System</text></g><g class="participant participant-head" data-participant="FileSystem"><rect fill="#E2E2F0" height="30.2969" rx="2.5" ry="2.5" style="stroke:#181818;stroke-width:0.5;" width="90.6514" x="483.5189" y="87.2969"/><text fill="#000000" font-family="sans-serif" font-size="14" lengthAdjust="spacing" textLength="76.6514" x="490.5189" y="107.292">FileSystem</text></g><g class="participant participant-tail" data-participant="FileSystem"><rect fill="#E2E2F0" height="30.2969" rx="2.5" ry="2.5" style="stroke:#181818;stroke-width:0.5;" width="90.6514" x="483.5189" y="685.3828"/><text fill="#000000" font-family="sans-serif" font-size="14" lengthAdjust="spacing" textLength="76.6514" x="490.5189" y="705.3779">FileSystem</text></g><g class="participant participant-head" data-participant="settings.json"><rect fill="#E2E2F0" height="30.2969" rx="2.5" ry="2.5" style="stroke:#181818;stroke-width:0.5;" width="102.9014" x="584.1703" y="87.2969"/><text fill="#000000" font-family="sans-serif" font-size="14" lengthAdjust="spacing" textLength="88.9014" x="591.1703" y="107.292">settings.json</text></g><g class="participant participant-tail" data-participant="settings.json"><rect fill="#E2E2F0" height="30.2969" rx="2.5" ry="2.5" style="stroke:#181818;stroke-width:0.5;" width="102.9014" x="584.1703" y="685.3828"/><text fill="#000000" font-family="sans-serif" font-size="14" lengthAdjust="spacing" textLength="88.9014" x="591.1703" y="705.3779">settings.json</text></g><g class="participant participant-head" data-participant="VSCode"><rect fill="#E2E2F0" height="30.2969" rx="2.5" ry="2.5" style="stroke:#181818;stroke-width:0.5;" width="68.3047" x="697.0717" y="87.2969"/><text fill="#000000" font-family="sans-serif" font-size="14" lengthAdjust="spacing" textLength="54.3047" x="704.0717" y="107.292">VSCode</text></g><g class="participant participant-tail" data-participant="VSCode"><rect fill="#E2E2F0" height="30.2969" rx="2.5" ry="2.5" style="stroke:#181818;stroke-width:0.5;" width="68.3047" x="697.0717" y="685.3828"/><text fill="#000000" font-family="sans-serif" font-size="14" lengthAdjust="spacing" textLength="54.3047" x="704.0717" y="705.3779">VSCode</text></g><g class="participant participant-head" data-participant="PlantUML"><rect fill="#E2E2F0" height="30.2969" rx="2.5" ry="2.5" style="stroke:#181818;stroke-width:0.5;" width="79.3994" x="806.5244" y="87.2969"/><text fill="#000000" font-family="sans-serif" font-size="14" lengthAdjust="spacing" textLength="65.3994" x="813.5244" y="107.292">PlantUML</text></g><g class="participant participant-tail" data-participant="PlantUML"><rect fill="#E2E2F0" height="30.2969" rx="2.5" ry="2.5" style="stroke:#181818;stroke-width:0.5;" width="79.3994" x="806.5244" y="685.3828"/><text fill="#000000" font-family="sans-serif" font-size="14" lengthAdjust="spacing" textLength="65.3994" x="813.5244" y="705.3779">PlantUML</text></g><rect fill="#EEEEEE" height="3" style="stroke:#EEEEEE;stroke-width:1;" width="899.2733" x="0" y="149.1602"/><line style="stroke:#000000;stroke-width:1;" x1="0" x2="899.2733" y1="149.1602" y2="149.1602"/><line style="stroke:#000000;stroke-width:1;" x1="0" x2="899.2733" y1="152.1602" y2="152.1602"/><rect fill="#EEEEEE" height="23.1328" style="stroke:#000000;stroke-width:2;" width="161.526" x="368.8736" y="138.5938"/><text fill="#000000" font-family="sans-serif" font-size="13" font-weight="bold" lengthAdjust="spacing" textLength="143.0002" x="374.8736" y="154.6606">&#35373;&#23450;&#12501;&#12449;&#12452;&#12523;&#12398;&#12497;&#12473;&#30906;&#35469;</text><g class="message" data-participant-1="User" data-participant-2="System"><polygon fill="#181818" points="242.8544,199.4258,252.8544,203.4258,242.8544,207.4258,246.8544,203.4258" style="stroke:#181818;stroke-width:1;"/><line style="stroke:#181818;stroke-width:1;" x1="50.9999" x2="248.8544" y1="203.4258" y2="203.4258"/><text fill="#000000" font-family="sans-serif" font-size="13" lengthAdjust="spacing" textLength="179.8546" x="57.9999" y="198.3599">VS Code &#12364; Flatpak &#29256;&#12363;&#30906;&#35469;</text></g><path d="M259,176.7266 L259,216.7266 L449,216.7266 L449,186.7266 L439,176.7266 L259,176.7266" fill="#FEFFDD" style="stroke:#181818;stroke-width:0.5;"/><path d="M439,176.7266 L439,186.7266 L449,186.7266 L439,176.7266" fill="#FEFFDD" style="stroke:#181818;stroke-width:0.5;"/><text fill="#000000" font-family="sans-serif" font-size="13" lengthAdjust="spacing" textLength="117.0318" x="265" y="193.7935">Flatpak &#29256;&#12391;&#12354;&#12428;&#12400;</text><text fill="#000000" font-family="sans-serif" font-size="13" lengthAdjust="spacing" textLength="169.0002" x="265" y="208.9263">&#35373;&#23450;&#12501;&#12449;&#12452;&#12523;&#12399;&#36890;&#24120;&#12392;&#30064;&#12394;&#12427;</text><g class="message" data-participant-1="User" data-participant-2="FileSystem"><polygon fill="#181818" points="516.8446,239.125,526.8446,243.125,516.8446,247.125,520.8446,243.125" style="stroke:#181818;stroke-width:1;"/><line style="stroke:#181818;stroke-width:1;" x1="50.9999" x2="522.8446" y1="243.125" y2="243.125"/><text fill="#000000" font-family="sans-serif" font-size="13" lengthAdjust="spacing" textLength="453.8447" x="57.9999" y="238.0591">/.var/app/com.visualstudio.code/config/Code/User/settings.json &#12434;&#30906;&#35469;</text></g><path d="M10,258.125 L74.4429,258.125 L74.4429,265.2578 L64.4429,275.2578 L10,275.2578 L10,258.125" fill="#EEEEEE" style="stroke:#000000;stroke-width:1.5;"/><rect fill="none" height="75.3984" style="stroke:#000000;stroke-width:1.5;" width="574.1703" x="10" y="258.125"/><text fill="#000000" font-family="sans-serif" font-size="13" font-weight="bold" lengthAdjust="spacing" textLength="19.4429" x="25" y="271.1919">alt</text><text fill="#000000" font-family="sans-serif" font-size="11" font-weight="bold" lengthAdjust="spacing" textLength="149.316" x="89.4429" y="270.3354">[settings.json &#12364;&#12394;&#12356;&#22580;&#21512;]</text><g class="message" data-participant-1="User" data-participant-2="FileSystem"><polygon fill="#181818" points="516.8446,292.3906,526.8446,296.3906,516.8446,300.3906,520.8446,296.3906" style="stroke:#181818;stroke-width:1;"/><line style="stroke:#181818;stroke-width:1;" x1="50.9999" x2="522.8446" y1="296.3906" y2="296.3906"/><text fill="#000000" font-family="sans-serif" font-size="13" lengthAdjust="spacing" textLength="117.0001" x="57.9999" y="291.3247">&#12487;&#12451;&#12524;&#12463;&#12488;&#12522;&#12434;&#20316;&#25104;</text></g><g class="message" data-participant-1="User" data-participant-2="FileSystem"><polygon fill="#181818" points="516.8446,321.5234,526.8446,325.5234,516.8446,329.5234,520.8446,325.5234" style="stroke:#181818;stroke-width:1;"/><line style="stroke:#181818;stroke-width:1;" x1="50.9999" x2="522.8446" y1="325.5234" y2="325.5234"/><text fill="#000000" font-family="sans-serif" font-size="13" lengthAdjust="spacing" textLength="155.816" x="57.9999" y="320.4575">&#31354;&#12398; settings.json &#12434;&#20316;&#25104;</text></g><rect fill="#EEEEEE" height="3" style="stroke:#EEEEEE;stroke-width:1;" width="899.2733" x="0" y="361.0898"/><line style="stroke:#000000;stroke-width:1;" x1="0" x2="899.2733" y1="361.0898" y2="361.0898"/><line style="stroke:#000000;stroke-width:1;" x1="0" x2="899.2733" y1="364.0898" y2="364.0898"/><rect fill="#EEEEEE" height="23.1328" style="stroke:#000000;stroke-width:2;" width="83.526" x="407.8737" y="350.5234"/><text fill="#000000" font-family="sans-serif" font-size="13" font-weight="bold" lengthAdjust="spacing" textLength="65.0001" x="413.8737" y="366.5903">&#35373;&#23450;&#12398;&#36861;&#21152;</text><g class="message" data-participant-1="User" data-participant-2="settings.json"><polygon fill="#181818" points="623.621,426.4883,633.621,430.4883,623.621,434.4883,627.621,430.4883" style="stroke:#181818;stroke-width:1;"/><line style="stroke:#181818;stroke-width:1;" x1="50.9999" x2="629.621" y1="430.4883" y2="430.4883"/><text fill="#000000" font-family="sans-serif" font-size="13" lengthAdjust="spacing" textLength="104.0001" x="57.9999" y="425.4224">&#20197;&#19979;&#12398;&#20869;&#23481;&#12434;&#36861;&#21152;</text></g><path d="M640,388.6563 L640,458.6563 L888,458.6563 L888,398.6563 L878,388.6563 L640,388.6563" fill="#FEFFDD" style="stroke:#181818;stroke-width:0.5;"/><path d="M878,388.6563 L878,398.6563 L888,398.6563 L878,388.6563" fill="#FEFFDD" style="stroke:#181818;stroke-width:0.5;"/><text fill="#000000" font-family="sans-serif" font-size="13" lengthAdjust="spacing" textLength="8.271" x="646" y="405.7231">{</text><text fill="#000000" font-family="sans-serif" font-size="13" lengthAdjust="spacing" textLength="219.3877" x="654.2646" y="420.856">"plantuml.exportOverwrite": true,</text><text fill="#000000" font-family="sans-serif" font-size="13" lengthAdjust="spacing" textLength="202.8521" x="654.2646" y="435.9888">"plantuml.exportOutDir": "dist"</text><text fill="#000000" font-family="sans-serif" font-size="13" lengthAdjust="spacing" textLength="8.271" x="646" y="451.1216">}</text><rect fill="#EEEEEE" height="3" style="stroke:#EEEEEE;stroke-width:1;" width="899.2733" x="0" y="484.7539"/><line style="stroke:#000000;stroke-width:1;" x1="0" x2="899.2733" y1="484.7539" y2="484.7539"/><line style="stroke:#000000;stroke-width:1;" x1="0" x2="899.2733" y1="487.7539" y2="487.7539"/><rect fill="#EEEEEE" height="23.1328" style="stroke:#000000;stroke-width:2;" width="44.5259" x="427.3737" y="474.1875"/><text fill="#000000" font-family="sans-serif" font-size="13" font-weight="bold" lengthAdjust="spacing" textLength="26" x="433.3737" y="490.2544">&#32080;&#26524;</text><path d="M453,512.3203 L453,612.3203 L818,612.3203 L818,522.3203 L808,512.3203 L453,512.3203" fill="#FEFFDD" style="stroke:#181818;stroke-width:0.5;"/><path d="M808,512.3203 L808,522.3203 L818,522.3203 L808,512.3203" fill="#FEFFDD" style="stroke:#181818;stroke-width:0.5;"/><text fill="#000000" font-family="sans-serif" font-size="13" lengthAdjust="spacing" textLength="104.0001" x="459" y="529.3872">&#12371;&#12398;&#35373;&#23450;&#12395;&#12424;&#12426;&#65306;</text><text fill="#000000" font-family="sans-serif" font-size="13" lengthAdjust="spacing" textLength="4.1323" x="459" y="544.52">&#160;</text><text fill="#000000" font-family="sans-serif" font-size="13" lengthAdjust="spacing" textLength="262.9201" x="459" y="559.6528">- PlantUML &#12391;&#12456;&#12463;&#12473;&#12509;&#12540;&#12488;&#12375;&#12383;SVG/PNG&#12364;</text><text fill="#000000" font-family="sans-serif" font-size="13" lengthAdjust="spacing" textLength="208.5968" x="467.2646" y="574.7856">&#36899;&#30058; (`-1`, `-2`) &#12391;&#22679;&#12360;&#12427;&#12398;&#12434;&#38450;&#27490;</text><text fill="#000000" font-family="sans-serif" font-size="13" lengthAdjust="spacing" textLength="4.1323" x="459" y="589.9185">&#160;</text><text fill="#000000" font-family="sans-serif" font-size="13" lengthAdjust="spacing" textLength="344.2019" x="459" y="605.0513">- &#20986;&#21147;&#20808;&#12364; `dist/` &#12501;&#12457;&#12523;&#12480;&#12395;&#22266;&#23450;&#12373;&#12428;&#12289;&#25972;&#29702;&#12375;&#12420;&#12377;&#12367;&#12394;&#12427;</text><g class="message" data-participant-1="User" data-participant-2="VSCode"><polygon fill="#181818" points="719.224,635.25,729.224,639.25,719.224,643.25,723.224,639.25" style="stroke:#181818;stroke-width:1;"/><line style="stroke:#181818;stroke-width:1;" x1="50.9999" x2="725.224" y1="639.25" y2="639.25"/><text fill="#000000" font-family="sans-serif" font-size="13" lengthAdjust="spacing" textLength="110.6905" x="57.9999" y="634.1841">VS Code &#12434;&#20877;&#36215;&#21205;</text></g><g class="message" data-participant-1="VSCode" data-participant-2="PlantUML"><polygon fill="#181818" points="834.2241,664.3828,844.2241,668.3828,834.2241,672.3828,838.2241,668.3828" style="stroke:#181818;stroke-width:1;"/><line style="stroke:#181818;stroke-width:1;" x1="731.224" x2="840.2241" y1="668.3828" y2="668.3828"/><text fill="#000000" font-family="sans-serif" font-size="13" lengthAdjust="spacing" textLength="91.0001" x="738.224" y="663.3169">&#35373;&#23450;&#12434;&#35501;&#12415;&#36796;&#12415;</text></g><!--SRC=[TPDTJnD158RlvrTCUgK9xKOlczGR3TpuGTB0TJTqnTMbs-nEKMCqdLa-rhQ4MjE8W8hW1nHRY04j5UJ77APRhlmBdbaAj0fxCHSxvxpdEUUymqnc6NJGqbbMVnIyzEbeajwqqmO5lWcy0FmLY28TjlGC6xbpctRMwxAn2BmXv-VQ2ok4w6FCTkY8QpXKTsa4l2_WxOFuWMU4a4JYDCEhWlW8uXDuADi03sNtWjLMfpP74mb2Ge7e3PfywZ9ZWiPxC4gdT1JnW1TFiaZ6PWPrpF47ZFG7V0KkG9I0RvCBYsyTvnTbimbyFQXk0wzXVyJ8fAaIF0SPD2tZ3EQ55flK7KtFPhKnUo8sQRevtN9PBctQiJ6anB-P- -QufeWrfQ2v1cDcPjoDFNJj30LHwL8JtMBqdqjUKXHyIgxioB9FA7uNKe0t2s8Dl6yWji3pmKFqoj71SjilNvuKRBHmtlG_dcwUQXoHUZV56vt30rbOwTjBVtwS7ltwVDGiAX_CJCl67WgU9FMkvHbIHRBAERa9AsOyoTeEkpTfE8yTancHE6LEpXYuA2R7RfaE1aJIfiiYv7dFUX0ps2stto-7T64n6oNx-GZmrwgDRZ-R87mGXJ_xYuH4pwsid2BMrIp57dZlb6rngFmDy0_9qI5j-EuGRWRnZlDhGRL6hwIYrr83D1MzdhggSkKgHgAk6WAsVxpmlLrVLGNaR4iMbkIqhwoRKYreAHfQS4FvpyiZaLngXMXLPTGyRrTtWlACgYscWBy5Fd-fBqUJuRFeUI2Y8cVcEhi_PR5AkhSOTzPc_7IlkA9Q7VXXv_S-ddy1]--></g></svg>