<svg xmlns="http://www.w3.org/2000/svg" xmlns:xlink="http://www.w3.org/1999/xlink" contentStyleType="text/css" data-diagram-type="SEQUENCE" height="747px" preserveAspectRatio="none" style="width:944px;height:747px;background:#FFFFFF;" version="1.1" viewBox="0 0 944 747" width="944px" zoomAndPan="magnify"><defs/><g><g><title>User</title><rect fill="#000000" fill-opacity="0.00000" height="585.5234" width="8" x="19.9551" y="81.2969"/><line style="stroke:#181818;stroke-width:0.5;stroke-dasharray:5.0,5.0;" x1="23" x2="23" y1="81.2969" y2="666.8203"/></g><g><title>Package Manager</title><rect fill="#000000" fill-opacity="0.00000" height="585.5234" width="8" x="153.2617" y="81.2969"/><line style="stroke:#181818;stroke-width:0.5;stroke-dasharray:5.0,5.0;" x1="156.9009" x2="156.9009" y1="81.2969" y2="666.8203"/></g><g><title>xbindkeys</title><rect fill="#000000" fill-opacity="0.00000" height="585.5234" width="8" x="275.1831" y="81.2969"/><line style="stroke:#181818;stroke-width:0.5;stroke-dasharray:5.0,5.0;" x1="278.6226" x2="278.6226" y1="81.2969" y2="666.8203"/></g><g><title>Config File (~/.xbindkeysrc)</title><rect fill="#000000" fill-opacity="0.00000" height="585.5234" width="8" x="426.2085" y="81.2969"/><line style="stroke:#181818;stroke-width:0.5;stroke-dasharray:5.0,5.0;" x1="429.7437" x2="429.7437" y1="81.2969" y2="666.8203"/></g><g><title>Shell</title><rect fill="#000000" fill-opacity="0.00000" height="585.5234" width="8" x="558.7495" y="81.2969"/><line style="stroke:#181818;stroke-width:0.5;stroke-dasharray:5.0,5.0;" x1="562.6733" x2="562.6733" y1="81.2969" y2="666.8203"/></g><g><title>xkbset</title><rect fill="#000000" fill-opacity="0.00000" height="585.5234" width="8" x="763.7847" y="81.2969"/><line style="stroke:#181818;stroke-width:0.5;stroke-dasharray:5.0,5.0;" x1="767.4468" x2="767.4468" y1="81.2969" y2="666.8203"/></g><g class="participant participant-head" data-participant="User"><text fill="#000000" font-family="sans-serif" font-size="14" lengthAdjust="spacing" textLength="31.9102" x="5" y="77.9951">User</text><ellipse cx="23.9551" cy="13.5" fill="#E2E2F0" rx="8" ry="8" style="stroke:#181818;stroke-width:0.5;"/><path d="M23.9551,21.5 L23.9551,48.5 M10.9551,29.5 L36.9551,29.5 M23.9551,48.5 L10.9551,63.5 M23.9551,48.5 L36.9551,63.5" fill="none" style="stroke:#181818;stroke-width:0.5;"/></g><g class="participant participant-tail" data-participant="User"><text fill="#000000" font-family="sans-serif" font-size="14" lengthAdjust="spacing" textLength="31.9102" x="5" y="678.8154">User</text><ellipse cx="23.9551" cy="690.6172" fill="#E2E2F0" rx="8" ry="8" style="stroke:#181818;stroke-width:0.5;"/><path d="M23.9551,698.6172 L23.9551,725.6172 M10.9551,706.6172 L36.9551,706.6172 M23.9551,725.6172 L10.9551,740.6172 M23.9551,725.6172 L36.9551,740.6172" fill="none" style="stroke:#181818;stroke-width:0.5;"/></g><g class="participant participant-head" data-participant="PM"><rect fill="#E2E2F0" height="30.2969" rx="2.5" ry="2.5" style="stroke:#181818;stroke-width:0.5;" width="138.7217" x="87.9009" y="50"/><text fill="#000000" font-family="sans-serif" font-size="14" lengthAdjust="spacing" textLength="124.7217" x="94.9009" y="69.9951">Package Manager</text></g><g class="participant participant-tail" data-participant="PM"><rect fill="#E2E2F0" height="30.2969" rx="2.5" ry="2.5" style="stroke:#181818;stroke-width:0.5;" width="138.7217" x="87.9009" y="665.8203"/><text fill="#000000" font-family="sans-serif" font-size="14" lengthAdjust="spacing" textLength="124.7217" x="94.9009" y="685.8154">Package Manager</text></g><g class="participant participant-head" data-participant="xbindkeys"><rect fill="#E2E2F0" height="30.2969" rx="2.5" ry="2.5" style="stroke:#181818;stroke-width:0.5;" width="85.1211" x="236.6226" y="50"/><text fill="#000000" font-family="sans-serif" font-size="14" lengthAdjust="spacing" textLength="71.1211" x="243.6226" y="69.9951">xbindkeys</text></g><g class="participant participant-tail" data-participant="xbindkeys"><rect fill="#E2E2F0" height="30.2969" rx="2.5" ry="2.5" style="stroke:#181818;stroke-width:0.5;" width="85.1211" x="236.6226" y="665.8203"/><text fill="#000000" font-family="sans-serif" font-size="14" lengthAdjust="spacing" textLength="71.1211" x="243.6226" y="685.8154">xbindkeys</text></g><g class="participant participant-head" data-participant="CFG"><rect fill="#E2E2F0" height="30.2969" rx="2.5" ry="2.5" style="stroke:#181818;stroke-width:0.5;" width="196.9297" x="331.7437" y="50"/><text fill="#000000" font-family="sans-serif" font-size="14" lengthAdjust="spacing" textLength="182.9297" x="338.7437" y="69.9951">Config File (/.xbindkeysrc)</text></g><g class="participant participant-tail" data-participant="CFG"><rect fill="#E2E2F0" height="30.2969" rx="2.5" ry="2.5" style="stroke:#181818;stroke-width:0.5;" width="196.9297" x="331.7437" y="665.8203"/><text fill="#000000" font-family="sans-serif" font-size="14" lengthAdjust="spacing" textLength="182.9297" x="338.7437" y="685.8154">Config File (/.xbindkeysrc)</text></g><g class="participant participant-head" data-participant="Shell"><rect fill="#E2E2F0" height="30.2969" rx="2.5" ry="2.5" style="stroke:#181818;stroke-width:0.5;" width="48.1523" x="538.6733" y="50"/><text fill="#000000" font-family="sans-serif" font-size="14" lengthAdjust="spacing" textLength="34.1523" x="545.6733" y="69.9951">Shell</text></g><g class="participant participant-tail" data-participant="Shell"><rect fill="#E2E2F0" height="30.2969" rx="2.5" ry="2.5" style="stroke:#181818;stroke-width:0.5;" width="48.1523" x="538.6733" y="665.8203"/><text fill="#000000" font-family="sans-serif" font-size="14" lengthAdjust="spacing" textLength="34.1523" x="545.6733" y="685.8154">Shell</text></g><g class="participant participant-head" data-participant="xkbset"><rect fill="#E2E2F0" height="30.2969" rx="2.5" ry="2.5" style="stroke:#181818;stroke-width:0.5;" width="60.6758" x="737.4468" y="50"/><text fill="#000000" font-family="sans-serif" font-size="14" lengthAdjust="spacing" textLength="46.6758" x="744.4468" y="69.9951">xkbset</text></g><g class="participant participant-tail" data-participant="xkbset"><rect fill="#E2E2F0" height="30.2969" rx="2.5" ry="2.5" style="stroke:#181818;stroke-width:0.5;" width="60.6758" x="737.4468" y="665.8203"/><text fill="#000000" font-family="sans-serif" font-size="14" lengthAdjust="spacing" textLength="46.6758" x="744.4468" y="685.8154">xkbset</text></g><rect fill="#EEEEEE" height="3" style="stroke:#EEEEEE;stroke-width:1;" width="937.4453" x="0" y="111.8633"/><line style="stroke:#000000;stroke-width:1;" x1="0" x2="937.4453" y1="111.8633" y2="111.8633"/><line style="stroke:#000000;stroke-width:1;" x1="0" x2="937.4453" y1="114.8633" y2="114.8633"/><rect fill="#EEEEEE" height="23.1328" style="stroke:#000000;stroke-width:2;" width="101.8833" x="417.781" y="101.2969"/><text fill="#000000" font-family="sans-serif" font-size="13" font-weight="bold" lengthAdjust="spacing" textLength="83.3574" x="423.781" y="117.3638">Installation</text><g class="message" data-participant-1="User" data-participant-2="PM"><polygon fill="#181818" points="145.2617,151.5625,155.2617,155.5625,145.2617,159.5625,149.2617,155.5625" style="stroke:#181818;stroke-width:1;"/><line style="stroke:#181818;stroke-width:1;" x1="23.9551" x2="151.2617" y1="155.5625" y2="155.5625"/><text fill="#000000" font-family="sans-serif" font-size="13" lengthAdjust="spacing" textLength="109.3066" x="30.9551" y="150.4966">Install xbindkeys</text></g><g class="message" data-participant-1="PM" data-participant-2="xbindkeys"><polygon fill="#181818" points="267.1831,180.6953,277.1831,184.6953,267.1831,188.6953,271.1831,184.6953" style="stroke:#181818;stroke-width:1;"/><line style="stroke:#181818;stroke-width:1;" x1="157.2617" x2="273.1831" y1="184.6953" y2="184.6953"/><text fill="#000000" font-family="sans-serif" font-size="13" lengthAdjust="spacing" textLength="84.373" x="164.2617" y="179.6294">Install binary</text></g><rect fill="#EEEEEE" height="3" style="stroke:#EEEEEE;stroke-width:1;" width="937.4453" x="0" y="213.2617"/><line style="stroke:#000000;stroke-width:1;" x1="0" x2="937.4453" y1="213.2617" y2="213.2617"/><line style="stroke:#000000;stroke-width:1;" x1="0" x2="937.4453" y1="216.2617" y2="216.2617"/><rect fill="#EEEEEE" height="23.1328" style="stroke:#000000;stroke-width:2;" width="118.9648" x="409.2402" y="202.6953"/><text fill="#000000" font-family="sans-serif" font-size="13" font-weight="bold" lengthAdjust="spacing" textLength="100.439" x="415.2402" y="218.7622">Configuration</text><g class="message" data-participant-1="User" data-participant-2="CFG"><polygon fill="#181818" points="418.2085,252.9609,428.2085,256.9609,418.2085,260.9609,422.2085,256.9609" style="stroke:#181818;stroke-width:1;"/><line style="stroke:#181818;stroke-width:1;" x1="23.9551" x2="424.2085" y1="256.9609" y2="256.9609"/><text fill="#000000" font-family="sans-serif" font-size="13" lengthAdjust="spacing" textLength="163.998" x="30.9551" y="251.895">Create/edit /.xbindkeysrc</text></g><path d="M435,269.9609 L435,339.9609 L601,339.9609 L601,279.9609 L591,269.9609 L435,269.9609" fill="#FEFFDD" style="stroke:#181818;stroke-width:0.5;"/><path d="M591,269.9609 L591,279.9609 L601,279.9609 L591,269.9609" fill="#FEFFDD" style="stroke:#181818;stroke-width:0.5;"/><text fill="#000000" font-family="sans-serif" font-size="13" lengthAdjust="spacing" textLength="40.1743" x="441" y="287.0278">Binds:</text><text fill="#000000" font-family="sans-serif" font-size="13" lengthAdjust="spacing" textLength="145.0122" x="441" y="302.1606">"Alt+Tab" -&gt; execute:</text><text fill="#000000" font-family="sans-serif" font-size="13" lengthAdjust="spacing" textLength="60.1377" x="441" y="317.2935">xkbset m</text><text fill="#000000" font-family="sans-serif" font-size="13" lengthAdjust="spacing" textLength="138.3916" x="441" y="332.4263">xkbset ma 70 7 7 5 5</text><rect fill="#EEEEEE" height="3" style="stroke:#EEEEEE;stroke-width:1;" width="937.4453" x="0" y="366.0586"/><line style="stroke:#000000;stroke-width:1;" x1="0" x2="937.4453" y1="366.0586" y2="366.0586"/><line style="stroke:#000000;stroke-width:1;" x1="0" x2="937.4453" y1="369.0586" y2="369.0586"/><rect fill="#EEEEEE" height="23.1328" style="stroke:#000000;stroke-width:2;" width="134.4087" x="401.5183" y="355.4922"/><text fill="#000000" font-family="sans-serif" font-size="13" font-weight="bold" lengthAdjust="spacing" textLength="115.8828" x="407.5183" y="371.5591">Start xbindkeys</text><g class="message" data-participant-1="User" data-participant-2="xbindkeys"><polygon fill="#181818" points="267.1831,405.7578,277.1831,409.7578,267.1831,413.7578,271.1831,409.7578" style="stroke:#181818;stroke-width:1;"/><line style="stroke:#181818;stroke-width:1;" x1="23.9551" x2="273.1831" y1="409.7578" y2="409.7578"/><text fill="#000000" font-family="sans-serif" font-size="13" lengthAdjust="spacing" textLength="150.0586" x="30.9551" y="404.6919">Run xbindkeys process</text></g><rect fill="#EEEEEE" height="3" style="stroke:#EEEEEE;stroke-width:1;" width="937.4453" x="0" y="438.3242"/><line style="stroke:#000000;stroke-width:1;" x1="0" x2="937.4453" y1="438.3242" y2="438.3242"/><line style="stroke:#000000;stroke-width:1;" x1="0" x2="937.4453" y1="441.3242" y2="441.3242"/><rect fill="#EEEEEE" height="23.1328" style="stroke:#000000;stroke-width:2;" width="149.6304" x="393.9075" y="427.7578"/><text fill="#000000" font-family="sans-serif" font-size="13" font-weight="bold" lengthAdjust="spacing" textLength="131.1045" x="399.9075" y="443.8247">Runtime Behavior</text><g class="message" data-participant-1="User" data-participant-2="xbindkeys"><polygon fill="#181818" points="267.1831,478.0234,277.1831,482.0234,267.1831,486.0234,271.1831,482.0234" style="stroke:#181818;stroke-width:1;"/><line style="stroke:#181818;stroke-width:1;" x1="23.9551" x2="273.1831" y1="482.0234" y2="482.0234"/><text fill="#000000" font-family="sans-serif" font-size="13" lengthAdjust="spacing" textLength="91.5142" x="30.9551" y="476.9575">Press Alt+Tab</text></g><g class="message" data-participant-1="xbindkeys" data-participant-2="CFG"><polygon fill="#181818" points="418.2085,507.1563,428.2085,511.1563,418.2085,515.1563,422.2085,511.1563" style="stroke:#181818;stroke-width:1;"/><line style="stroke:#181818;stroke-width:1;" x1="279.1831" x2="424.2085" y1="511.1563" y2="511.1563"/><text fill="#000000" font-family="sans-serif" font-size="13" lengthAdjust="spacing" textLength="115.4766" x="286.1831" y="506.0903">Match keybinding</text></g><g class="message" data-participant-1="xbindkeys" data-participant-2="Shell"><polygon fill="#181818" points="550.7495,536.2891,560.7495,540.2891,550.7495,544.2891,554.7495,540.2891" style="stroke:#181818;stroke-width:1;"/><line style="stroke:#181818;stroke-width:1;" x1="279.1831" x2="556.7495" y1="540.2891" y2="540.2891"/><text fill="#000000" font-family="sans-serif" font-size="13" lengthAdjust="spacing" textLength="166.4736" x="286.1831" y="535.2231">Execute bound command</text></g><g class="message" data-participant-1="Shell" data-participant-2="xkbset"><polygon fill="#181818" points="755.7847,565.4219,765.7847,569.4219,755.7847,573.4219,759.7847,569.4219" style="stroke:#181818;stroke-width:1;"/><line style="stroke:#181818;stroke-width:1;" x1="562.7495" x2="761.7847" y1="569.4219" y2="569.4219"/><text fill="#000000" font-family="sans-serif" font-size="13" lengthAdjust="spacing" textLength="102.7813" x="569.7495" y="564.356">Run `xkbset m`</text></g><g class="message" data-participant-1="Shell" data-participant-2="xkbset"><polygon fill="#181818" points="755.7847,594.5547,765.7847,598.5547,755.7847,602.5547,759.7847,598.5547" style="stroke:#181818;stroke-width:1;"/><line style="stroke:#181818;stroke-width:1;" x1="562.7495" x2="761.7847" y1="598.5547" y2="598.5547"/><text fill="#000000" font-family="sans-serif" font-size="13" lengthAdjust="spacing" textLength="181.0352" x="569.7495" y="593.4888">Run `xkbset ma 70 7 7 5 5`</text></g><path d="M772,611.5547 L772,651.5547 L932,651.5547 L932,621.5547 L922,611.5547 L772,611.5547" fill="#FEFFDD" style="stroke:#181818;stroke-width:0.5;"/><path d="M922,611.5547 L922,621.5547 L932,621.5547 L922,611.5547" fill="#FEFFDD" style="stroke:#181818;stroke-width:0.5;"/><text fill="#000000" font-family="sans-serif" font-size="13" lengthAdjust="spacing" textLength="132.939" x="778" y="628.6216">Enables mouse keys</text><text fill="#000000" font-family="sans-serif" font-size="13" lengthAdjust="spacing" textLength="139.4453" x="778" y="643.7544">and sets acceleration</text><!--SRC=[XL71IiD04BtlLpnoKaJhfHGA4MnfnKEXMBrtifssIvFTihkHzkAtEqaq9XMH7B8xxytRzsP8H-Vn5jYh8_bej3cIZKYMf0-qOop8oiyde83beiyvPSPk3dmEIRy-TNPhTfYRd77rCRXhULvVrqBJ-LE_OxNdFBzGEHsom35HAatnR4EaFATed4MQgielRX_44SRV8Dfdb9G5REyTZfJ8dslDncNfVucAE-cOUgR80zwOY7u6PLraUBFRHxXj7GQO21p6SaWUytZpIbbIIV69THcvgZTnK7IEXD4zHl8DCLHiDwY4Qs-hA9Fe1EYuwwPwAMtdVlHESmYrW23H58m9x-dTo8R_K5XwwS2NPVM3j6DOKDHxIAs2ZDtrEVNUX3LhSY9pfSJGhYZ8RbI3LYysWHl3w-_uw_y8tVciBwRUS6IOCqjPpW65AmEZNZyWhqFW0DAQSsvst8xu4m00]--></g></svg>