<svg xmlns="http://www.w3.org/2000/svg" xmlns:xlink="http://www.w3.org/1999/xlink" contentStyleType="text/css" data-diagram-type="DESCRIPTION" height="703.125px" preserveAspectRatio="none" style="width:809px;height:703px;" version="1.1" viewBox="0 0 809 703" width="809.375px" zoomAndPan="magnify"><defs><linearGradient id="g9ziny9o6aqjc0" x1="50%" x2="50%" y1="0%" y2="100%"><stop offset="0%" stop-color="#B8B8B8"/><stop offset="100%" stop-color="#6B6B6B"/></linearGradient><linearGradient id="g9ziny9o6aqjc1" x1="50%" x2="50%" y1="0%" y2="100%"><stop offset="0%" stop-color="#7C9AB9"/><stop offset="100%" stop-color="#304D6D"/></linearGradient><linearGradient id="g9ziny9o6aqjc2" x1="50%" x2="50%" y1="0%" y2="100%"><stop offset="0%" stop-color="#70B8F7"/><stop offset="100%" stop-color="#246BAA"/></linearGradient></defs><g><!--cluster ?????? ?????--><g class="cluster" data-entity="&#12487;&#12451;&#12473;&#12503;&#12524;&#12452; &#12469;&#12540;&#12496;&#12540;&#23652;" data-source-line="3" data-uid="ent0002" id="cluster_&#12487;&#12451;&#12473;&#12503;&#12524;&#12452; &#12469;&#12540;&#12496;&#12540;&#23652;"><path d="M20.8333,299.9375 L171.0195,299.9375 A6.25,6.25 0 0 1 175.1862,304.1042 L182.4779,331.1549 L462.5,331.1549 A4.1667,4.1667 0 0 1 466.6667,335.3216 L466.6667,687.4063 A4.1667,4.1667 0 0 1 462.5,691.5729 L20.8333,691.5729 A4.1667,4.1667 0 0 1 16.6667,687.4063 L16.6667,304.1042 A4.1667,4.1667 0 0 1 20.8333,299.9375" fill="url(#g9ziny9o6aqjc0)" style="stroke:#446E9B;stroke-width:2.0833;"/><line style="stroke:#446E9B;stroke-width:2.0833;" x1="16.6667" x2="182.4779" y1="331.1549" y2="331.1549"/><text fill="#446E9B" font-family="Verdana" font-size="12.5" font-weight="bold" lengthAdjust="spacing" textLength="141.8529" x="26.0417" y="318.8319">&#12487;&#12451;&#12473;&#12503;&#12524;&#12452; &#12469;&#12540;&#12496;&#12540;&#23652;</text></g><!--cluster ?????????????????--><g class="cluster" data-entity="&#12454;&#12451;&#12531;&#12489;&#12454;&#12510;&#12493;&#12540;&#12472;&#12515;&#65295;&#12467;&#12531;&#12509;&#12472;&#12479;&#23652;" data-source-line="10" data-uid="ent0012" id="cluster_&#12454;&#12451;&#12531;&#12489;&#12454;&#12510;&#12493;&#12540;&#12472;&#12515;&#65295;&#12467;&#12531;&#12509;&#12472;&#12479;&#23652;"><path d="M193.75,158.3021 L414.585,158.3021 A6.25,6.25 0 0 1 418.7516,162.4687 L426.0433,189.5195 L425,189.5195 A4.1667,4.1667 0 0 1 429.1667,193.6862 L429.1667,270.7708 A4.1667,4.1667 0 0 1 425,274.9375 L193.75,274.9375 A4.1667,4.1667 0 0 1 189.5833,270.7708 L189.5833,162.4687 A4.1667,4.1667 0 0 1 193.75,158.3021" fill="url(#g9ziny9o6aqjc0)" style="stroke:#446E9B;stroke-width:2.0833;"/><line style="stroke:#446E9B;stroke-width:2.0833;" x1="189.5833" x2="426.0433" y1="189.5195" y2="189.5195"/><text fill="#446E9B" font-family="Verdana" font-size="12.5" font-weight="bold" lengthAdjust="spacing" textLength="212.5016" x="198.9583" y="177.1965">&#12454;&#12451;&#12531;&#12489;&#12454;&#12510;&#12493;&#12540;&#12472;&#12515;&#65295;&#12467;&#12531;&#12509;&#12472;&#12479;&#23652;</text></g><!--cluster ??????--><g class="cluster" data-entity="&#12518;&#12540;&#12470;&#12540;&#25805;&#20316;" data-source-line="15" data-uid="ent0017" id="cluster_&#12518;&#12540;&#12470;&#12540;&#25805;&#20316;"><path d="M253.125,16.6667 L336.4589,16.6667 A6.25,6.25 0 0 1 340.6256,20.8333 L347.9172,47.8841 L394.7917,47.8841 A4.1667,4.1667 0 0 1 398.9583,52.0508 L398.9583,129.1354 A4.1667,4.1667 0 0 1 394.7917,133.3021 L253.125,133.3021 A4.1667,4.1667 0 0 1 248.9583,129.1354 L248.9583,20.8333 A4.1667,4.1667 0 0 1 253.125,16.6667" fill="url(#g9ziny9o6aqjc0)" style="stroke:#446E9B;stroke-width:2.0833;"/><line style="stroke:#446E9B;stroke-width:2.0833;" x1="248.9583" x2="347.9172" y1="47.8841" y2="47.8841"/><text fill="#446E9B" font-family="Verdana" font-size="12.5" font-weight="bold" lengthAdjust="spacing" textLength="75.0006" x="258.3333" y="35.5611">&#12518;&#12540;&#12470;&#12540;&#25805;&#20316;</text></g><!--entity Xorg--><g class="entity" data-entity="Xorg" data-source-line="4" data-uid="ent0003" id="entity_Xorg"><rect fill="url(#g9ziny9o6aqjc1)" height="56.2174" rx="4.1667" ry="4.1667" style="stroke:#304D6D;stroke-width:1.0417;" width="81.368" x="368.6875" y="471.8021"/><rect fill="url(#g9ziny9o6aqjc1)" height="10.4167" style="stroke:#304D6D;stroke-width:1.0417;" width="15.625" x="429.2222" y="477.0104"/><rect fill="url(#g9ziny9o6aqjc1)" height="2.0833" style="stroke:#304D6D;stroke-width:1.0417;" width="4.1667" x="427.1388" y="479.0938"/><rect fill="url(#g9ziny9o6aqjc1)" height="2.0833" style="stroke:#304D6D;stroke-width:1.0417;" width="4.1667" x="427.1388" y="483.2604"/><text fill="#FFFFFF" font-family="Verdana" font-size="12.5" lengthAdjust="spacing" textLength="29.2847" x="389.5208" y="509.4465">Xorg</text></g><!--entity ??? GUI ???--><g class="entity" data-entity="&#24467;&#26469;&#12398; GUI &#12450;&#12503;&#12522;" data-source-line="4" data-uid="ent0004" id="entity_&#24467;&#26469;&#12398; GUI &#12450;&#12503;&#12522;"><ellipse cx="241.6667" cy="637.4063" fill="#900100" rx="8.3333" ry="8.3333" style="stroke:#CD0200;stroke-width:1.0417;"/><text fill="#333333" font-family="Verdana" font-size="12.5" lengthAdjust="spacing" textLength="105.4693" x="188.932" y="671.9257">&#24467;&#26469;&#12398; GUI &#12450;&#12503;&#12522;</text></g><!--entity Wayland--><g class="entity" data-entity="Wayland" data-source-line="5" data-uid="ent0006" id="entity_Wayland"><rect fill="url(#g9ziny9o6aqjc1)" height="56.2174" rx="4.1667" ry="4.1667" style="stroke:#304D6D;stroke-width:1.0417;" width="106.4901" x="205.0833" y="343.6875"/><rect fill="url(#g9ziny9o6aqjc1)" height="10.4167" style="stroke:#304D6D;stroke-width:1.0417;" width="15.625" x="290.7401" y="348.8958"/><rect fill="url(#g9ziny9o6aqjc1)" height="2.0833" style="stroke:#304D6D;stroke-width:1.0417;" width="4.1667" x="288.6567" y="350.9792"/><rect fill="url(#g9ziny9o6aqjc1)" height="2.0833" style="stroke:#304D6D;stroke-width:1.0417;" width="4.1667" x="288.6567" y="355.1458"/><text fill="#FFFFFF" font-family="Verdana" font-size="12.5" lengthAdjust="spacing" textLength="54.4067" x="225.9167" y="381.3319">Wayland</text></g><!--entity Wayland ?????--><g class="entity" data-entity="Wayland &#23550;&#24540;&#12450;&#12503;&#12522;" data-source-line="5" data-uid="ent0007" id="entity_Wayland &#23550;&#24540;&#12450;&#12503;&#12522;"><ellipse cx="258.3333" cy="499.9063" fill="#900100" rx="8.3333" ry="8.3333" style="stroke:#CD0200;stroke-width:1.0417;"/><text fill="#333333" font-family="Verdana" font-size="12.5" lengthAdjust="spacing" textLength="120.8806" x="197.893" y="534.4257">Wayland &#23550;&#24540;&#12450;&#12503;&#12522;</text></g><!--entity XWayland--><g class="entity" data-entity="XWayland" data-source-line="6" data-uid="ent0009" id="entity_XWayland"><rect fill="url(#g9ziny9o6aqjc1)" height="56.2174" rx="4.1667" ry="4.1667" style="stroke:#304D6D;stroke-width:1.0417;" width="115.0533" x="33.0938" y="471.8021"/><rect fill="url(#g9ziny9o6aqjc1)" height="10.4167" style="stroke:#304D6D;stroke-width:1.0417;" width="15.625" x="127.3137" y="477.0104"/><rect fill="url(#g9ziny9o6aqjc1)" height="2.0833" style="stroke:#304D6D;stroke-width:1.0417;" width="4.1667" x="125.2304" y="479.0938"/><rect fill="url(#g9ziny9o6aqjc1)" height="2.0833" style="stroke:#304D6D;stroke-width:1.0417;" width="4.1667" x="125.2304" y="483.2604"/><text fill="#FFFFFF" font-family="Verdana" font-size="12.5" lengthAdjust="spacing" textLength="62.97" x="53.9271" y="509.4465">XWayland</text></g><!--entity i3--><g class="entity" data-entity="i3" data-source-line="11" data-uid="ent0013" id="entity_i3"><rect fill="url(#g9ziny9o6aqjc1)" height="56.2174" rx="4.1667" ry="4.1667" style="stroke:#304D6D;stroke-width:1.0417;" width="63.5091" x="347.4167" y="202.0521"/><rect fill="url(#g9ziny9o6aqjc1)" height="10.4167" style="stroke:#304D6D;stroke-width:1.0417;" width="15.625" x="390.0924" y="207.2604"/><rect fill="url(#g9ziny9o6aqjc1)" height="2.0833" style="stroke:#304D6D;stroke-width:1.0417;" width="4.1667" x="388.0091" y="209.3437"/><rect fill="url(#g9ziny9o6aqjc1)" height="2.0833" style="stroke:#304D6D;stroke-width:1.0417;" width="4.1667" x="388.0091" y="213.5104"/><text fill="#FFFFFF" font-family="Verdana" font-size="12.5" lengthAdjust="spacing" textLength="11.4258" x="368.25" y="239.6965">i3</text></g><!--entity Sway--><g class="entity" data-entity="Sway" data-source-line="12" data-uid="ent0015" id="entity_Sway"><rect fill="url(#g9ziny9o6aqjc1)" height="56.2174" rx="4.1667" ry="4.1667" style="stroke:#304D6D;stroke-width:1.0417;" width="85.2987" x="226.1042" y="202.0521"/><rect fill="url(#g9ziny9o6aqjc1)" height="10.4167" style="stroke:#304D6D;stroke-width:1.0417;" width="15.625" x="290.5695" y="207.2604"/><rect fill="url(#g9ziny9o6aqjc1)" height="2.0833" style="stroke:#304D6D;stroke-width:1.0417;" width="4.1667" x="288.4862" y="209.3437"/><rect fill="url(#g9ziny9o6aqjc1)" height="2.0833" style="stroke:#304D6D;stroke-width:1.0417;" width="4.1667" x="288.4862" y="213.5104"/><text fill="#FFFFFF" font-family="Verdana" font-size="12.5" lengthAdjust="spacing" textLength="33.2153" x="246.9375" y="239.6965">Sway</text></g><!--entity GUI ???--><g class="entity" data-entity="GUI &#12450;&#12503;&#12522;" data-source-line="16" data-uid="ent0018" id="entity_GUI &#12450;&#12503;&#12522;"><rect fill="url(#g9ziny9o6aqjc1)" height="56.2174" rx="4.1667" ry="4.1667" style="stroke:#304D6D;stroke-width:1.0417;" width="116.079" x="265.9167" y="60.4167"/><rect fill="url(#g9ziny9o6aqjc1)" height="10.4167" style="stroke:#304D6D;stroke-width:1.0417;" width="15.625" x="361.1623" y="65.625"/><rect fill="url(#g9ziny9o6aqjc1)" height="2.0833" style="stroke:#304D6D;stroke-width:1.0417;" width="4.1667" x="359.079" y="67.7083"/><rect fill="url(#g9ziny9o6aqjc1)" height="2.0833" style="stroke:#304D6D;stroke-width:1.0417;" width="4.1667" x="359.079" y="71.875"/><text fill="#FFFFFF" font-family="Verdana" font-size="12.5" lengthAdjust="spacing" textLength="63.9956" x="286.75" y="98.0611">GUI &#12450;&#12503;&#12522;</text></g><g class="entity" data-entity="GMN21" data-source-line="22" data-uid="ent0022" id="entity_GMN21"><path d="M486.375,486.3854 L486.375,513.4362 A4.1667,4.1667 0 0 0 490.5417,517.6029 L792.7973,517.6029 A4.1667,4.1667 0 0 0 796.964,513.4362 L796.964,492.6354 L786.5473,482.2188 L490.5417,482.2188 A4.1667,4.1667 0 0 0 486.375,486.3854" fill="url(#g9ziny9o6aqjc2)" style="stroke:#246BAA;stroke-width:1.0417;"/><path d="M786.5473,482.2188 L786.5473,490.5521 A2.0833,2.0833 0 0 0 788.6307,492.6354 L796.964,492.6354 L786.5473,482.2188" fill="url(#g9ziny9o6aqjc2)" style="stroke:#246BAA;stroke-width:1.0417;"/><text fill="#FFFFFF" font-family="Verdana" font-size="12.5" lengthAdjust="spacing" textLength="278.2973" x="497.8333" y="504.2382">X11 &#12450;&#12503;&#12522;&#12434; Wayland &#19978;&#12391;&#21205;&#12363;&#12377;&#20114;&#25563;&#12524;&#12452;&#12516;&#12540;</text></g><g class="entity" data-entity="GMN24" data-source-line="26" data-uid="ent0025" id="entity_GMN24"><path d="M447.0625,216.6354 L447.0625,243.6862 A4.1667,4.1667 0 0 0 451.2292,247.8529 L752.9417,247.8529 A4.1667,4.1667 0 0 0 757.1084,243.6862 L757.1084,222.8854 L746.6917,212.4687 L451.2292,212.4687 A4.1667,4.1667 0 0 0 447.0625,216.6354" fill="url(#g9ziny9o6aqjc2)" style="stroke:#246BAA;stroke-width:1.0417;"/><path d="M746.6917,212.4687 L746.6917,220.8021 A2.0833,2.0833 0 0 0 748.775,222.8854 L757.1084,222.8854 L746.6917,212.4687" fill="url(#g9ziny9o6aqjc2)" style="stroke:#246BAA;stroke-width:1.0417;"/><text fill="#FFFFFF" font-family="Verdana" font-size="12.5" lengthAdjust="spacing" textLength="277.7542" x="458.5208" y="234.4882">i3 &#12392;&#35373;&#23450;&#20114;&#25563;&#12398; Wayland &#12454;&#12451;&#12531;&#12489;&#12454;&#12510;&#12493;&#12540;&#12472;&#12515;</text></g><!--link Xorg to ??? GUI ???--><g class="link" data-entity-1="Xorg" data-entity-2="&#24467;&#26469;&#12398; GUI &#12450;&#12503;&#12522;" data-source-line="4" data-uid="lnk5" id="link_Xorg_&#24467;&#26469;&#12398; GUI &#12450;&#12503;&#12522;"><path d="M375.4375,528.3542 C336.1979,560.0417 278.8833,606.3129 255.6646,625.0629" fill="none" id="Xorg-to-&#24467;&#26469;&#12398; GUI &#12450;&#12503;&#12522;" style="stroke:#446E9B;stroke-width:3.125;"/><polygon fill="#446E9B" points="250.8021,628.9896,260.7136,626.3413,254.8542,625.7174,255.4781,619.8579,250.8021,628.9896" style="stroke:#446E9B;stroke-width:3.125;"/></g><!--link Wayland to Wayland ?????--><g class="link" data-entity-1="Wayland" data-entity-2="Wayland &#23550;&#24540;&#12450;&#12503;&#12522;" data-source-line="5" data-uid="lnk8" id="link_Wayland_Wayland &#23550;&#24540;&#12450;&#12503;&#12522;"><path d="M258.3333,400.1875 C258.3333,429 258.3333,466.3958 258.3333,484.4063" fill="none" id="Wayland-to-Wayland &#23550;&#24540;&#12450;&#12503;&#12522;" style="stroke:#446E9B;stroke-width:3.125;"/><polygon fill="#446E9B" points="258.3333,490.6563,262.5,481.2813,258.3333,485.4479,254.1667,481.2813,258.3333,490.6563" style="stroke:#446E9B;stroke-width:3.125;"/></g><!--link Wayland to XWayland--><g class="link" data-entity-1="Wayland" data-entity-2="XWayland" data-source-line="6" data-uid="lnk10" id="link_Wayland_XWayland"><path d="M221.9479,400.1875 C193.9063,421.25 160.32,446.4961 132.2263,467.6003" fill="none" id="Wayland-to-XWayland" style="stroke:#446E9B;stroke-width:3.125;"/><polygon fill="#446E9B" points="127.2292,471.3542,137.2274,469.0548,131.3934,468.226,132.2223,462.392,127.2292,471.3542" style="stroke:#446E9B;stroke-width:3.125;"/></g><!--link XWayland to ??? GUI ???--><g class="link" data-entity-1="XWayland" data-entity-2="&#24467;&#26469;&#12398; GUI &#12450;&#12503;&#12522;" data-source-line="7" data-uid="lnk11" id="link_XWayland_&#24467;&#26469;&#12398; GUI &#12450;&#12503;&#12522;"><path d="M121.1875,528.3542 C156.0208,559.5729 206.2429,604.598 227.8471,623.973" fill="none" id="XWayland-to-&#24467;&#26469;&#12398; GUI &#12450;&#12503;&#12522;" style="stroke:#446E9B;stroke-width:3.125;"/><polygon fill="#446E9B" points="232.5,628.1458,228.3025,618.7846,228.6225,624.6685,222.7387,624.9885,232.5,628.1458" style="stroke:#446E9B;stroke-width:3.125;"/></g><!--link i3 to Xorg--><g class="link" data-entity-1="i3" data-entity-2="Xorg" data-source-line="11" data-uid="lnk14" id="link_i3_Xorg"><path d="M382.2292,258.3438 C388.0208,309.6458 399.81,414.0915 405.6017,465.4456" fill="none" id="i3-to-Xorg" style="stroke:#446E9B;stroke-width:3.125;"/><polygon fill="#446E9B" points="406.3021,471.6563,409.3919,461.8734,405.7184,466.4807,401.111,462.8073,406.3021,471.6563" style="stroke:#446E9B;stroke-width:3.125;"/></g><!--link Sway to Wayland--><g class="link" data-entity-1="Sway" data-entity-2="Wayland" data-source-line="12" data-uid="lnk16" id="link_Sway_Wayland"><path d="M266.6875,258.7708 C264.8646,283.2396 262.6731,312.559 260.8501,337.0069" fill="none" id="Sway-to-Wayland" style="stroke:#446E9B;stroke-width:3.125;"/><polygon fill="#446E9B" points="260.3854,343.2396,265.2376,334.2004,260.7727,338.0457,256.9274,333.5807,260.3854,343.2396" style="stroke:#446E9B;stroke-width:3.125;"/></g><!--link GUI ??? to i3--><g class="link" data-entity-1="GUI &#12450;&#12503;&#12522;" data-entity-2="i3" data-source-line="17" data-uid="lnk19" id="link_GUI &#12450;&#12503;&#12522;_i3"><path d="M334.8646,117.1458 C344.5417,141.6042 356.3165,171.3441 365.9831,195.792" fill="none" id="GUI &#12450;&#12503;&#12522;-to-i3" style="stroke:#446E9B;stroke-width:3.125;"/><polygon fill="#446E9B" points="368.2813,201.6042,368.7088,191.3539,366.3662,196.7607,360.9593,194.418,368.2813,201.6042" style="stroke:#446E9B;stroke-width:3.125;"/></g><!--link GUI ??? to Sway--><g class="link" data-entity-1="GUI &#12450;&#12503;&#12522;" data-entity-2="Sway" data-source-line="18" data-uid="lnk20" id="link_GUI &#12450;&#12503;&#12522;_Sway"><path d="M313.0521,117.1458 C303.375,141.6042 291.6002,171.3441 281.9335,195.792" fill="none" id="GUI &#12450;&#12503;&#12522;-to-Sway" style="stroke:#446E9B;stroke-width:3.125;"/><polygon fill="#446E9B" points="279.6354,201.6042,286.9574,194.418,281.5505,196.7607,279.2078,191.3539,279.6354,201.6042" style="stroke:#446E9B;stroke-width:3.125;"/></g><!--link XWayland to GMN21--><g class="link" data-entity-1="XWayland" data-entity-2="GMN21" data-source-line="22" data-uid="lnk23" id="link_XWayland_GMN21"><path d="M118.8958,471.5625 C136.0938,456.3854 159.3958,439.1979 183.8542,431.1563 C295.5625,394.4271 332.5625,411.1563 448.4375,431.1563 C504.0521,440.75 564.875,464.8229 603.1354,481.7604" fill="none" id="XWayland-GMN21" style="stroke:#446E9B;stroke-width:3.125;stroke-dasharray:7.0,7.0;"/></g><!--link Sway to GMN24--><g class="link" data-entity-1="Sway" data-entity-2="GMN24" data-source-line="26" data-uid="lnk26" id="link_Sway_GMN24"><path d="M283.4792,201.5417 C293.9271,184.0521 309.5625,162.6771 329.1667,149.9687 C347.9479,137.8021 393.4479,144.0625 408.8542,145.8021 C472.3229,152.9688 539.0521,189.5625 575.1042,212.1354" fill="none" id="Sway-GMN24" style="stroke:#446E9B;stroke-width:3.125;stroke-dasharray:7.0,7.0;"/></g><!--SRC=[Kop9ICrDLIWkI4nEpKbCuk82Ch8JqrCLb1utjpzkMlouQUVZvkcFczSyRbgYyBXfw-FcFO-R9m39fnkNA2bKSoa0GNH4Vb5wh8Akhfs2qjDzav_DNVguSPs2UwWdKCCYiEvLIX25uOcLEObvAL2rK9x2q_NxdkwVWrTjT0IC2xKHrIISjjOYUwXf6SX3pPiVDtU2sCtp7ZVtWlpJjEDny-BtU_eVDsq6oyu5YJJjH_PXfZ7C7I2lGiI2onCheQ9mnw7OrxmCRFes8FbiSk-JlNFWng6uCXQR6CHSeBMu9S7sWspCooz9LIZAJCyeKSXFGmwg24D3XAx7JPCKO27-P4VNuyRbJxkdFcxiVjmuyyckIS_wPqCY-N4p4EtXIWMg0fcBOJh4ranZXSUDArwiMFjqtIoeRc3Wmup77z9mim40]--></g></svg>