<svg xmlns="http://www.w3.org/2000/svg" xmlns:xlink="http://www.w3.org/1999/xlink" contentStyleType="text/css" data-diagram-type="ACTIVITY" height="392px" preserveAspectRatio="none" style="width:385px;height:392px;background:#FFFFFF;" version="1.1" viewBox="0 0 385 392" width="385px" zoomAndPan="magnify"><defs/><g><ellipse cx="201.0012" cy="20" fill="#222222" rx="10" ry="10" style="stroke:#222222;stroke-width:1;"/><line style="stroke:#181818;stroke-width:1.5;" x1="111.0007" x2="298.0017" y1="50" y2="50"/><rect fill="#F1F1F1" height="33.9688" rx="12.5" ry="12.5" style="stroke:#181818;stroke-width:0.5;" width="200.0014" x="11" y="70"/><text fill="#000000" font-family="sans-serif" font-size="12" lengthAdjust="spacing" textLength="180.0014" x="21" y="91.1387">&#12304;&#37325;&#12356;&#24773;&#22577;&#12539;&#12473;&#12488;&#12524;&#12473;&#12364;&#12383;&#12414;&#12427;&#12305;</text><rect fill="#F1F1F1" height="33.9688" rx="12.5" ry="12.5" style="stroke:#181818;stroke-width:0.5;" width="68.0004" x="77.0005" y="123.9688"/><text fill="#000000" font-family="sans-serif" font-size="12" lengthAdjust="spacing" textLength="48.0004" x="87.0005" y="145.1074">&#31038;&#20250;&#21839;&#38988;</text><rect fill="#F1F1F1" height="33.9688" rx="12.5" ry="12.5" style="stroke:#181818;stroke-width:0.5;" width="92.0005" x="65.0004" y="177.9375"/><text fill="#000000" font-family="sans-serif" font-size="12" lengthAdjust="spacing" textLength="72.0005" x="75.0004" y="199.0762">&#26178;&#20107;&#12491;&#12517;&#12540;&#12473;</text><rect fill="#F1F1F1" height="33.9688" rx="12.5" ry="12.5" style="stroke:#181818;stroke-width:0.5;" width="80.0005" x="71.0005" y="231.9063"/><text fill="#000000" font-family="sans-serif" font-size="12" lengthAdjust="spacing" textLength="60.0005" x="81.0005" y="253.0449">&#25919;&#27835;&#12539;&#32076;&#28168;</text><rect fill="#F1F1F1" height="33.9688" rx="12.5" ry="12.5" style="stroke:#181818;stroke-width:0.5;" width="104.2114" x="58.895" y="285.875"/><text fill="#000000" font-family="sans-serif" font-size="12" lengthAdjust="spacing" textLength="84.2114" x="68.895" y="307.0137">&#28814;&#19978;&#12539;SNS&#35696;&#35542;</text><rect fill="#F1F1F1" height="33.9688" rx="12.5" ry="12.5" style="stroke:#181818;stroke-width:0.5;" width="152.001" x="222.0012" y="70"/><text fill="#000000" font-family="sans-serif" font-size="12" lengthAdjust="spacing" textLength="132.001" x="232.0012" y="91.1387">&#12304;&#12522;&#12521;&#12483;&#12463;&#12473;&#12539;&#36259;&#21619;&#31995;&#12305;</text><rect fill="#F1F1F1" height="33.9688" rx="12.5" ry="12.5" style="stroke:#181818;stroke-width:0.5;" width="92.0005" x="252.0014" y="123.9688"/><text fill="#000000" font-family="sans-serif" font-size="12" lengthAdjust="spacing" textLength="72.0005" x="262.0014" y="145.1074">&#33258;&#28982;&#12539;&#26053;&#12398;&#35441;</text><rect fill="#F1F1F1" height="33.9688" rx="12.5" ry="12.5" style="stroke:#181818;stroke-width:0.5;" width="128.0008" x="234.0013" y="177.9375"/><text fill="#000000" font-family="sans-serif" font-size="12" lengthAdjust="spacing" textLength="108.0008" x="244.0013" y="199.0762">&#36259;&#21619;&#65288;&#26009;&#29702;&#12539;&#38899;&#27005;&#65289;</text><rect fill="#F1F1F1" height="33.9688" rx="12.5" ry="12.5" style="stroke:#181818;stroke-width:0.5;" width="116.0007" x="240.0013" y="231.9063"/><text fill="#000000" font-family="sans-serif" font-size="12" lengthAdjust="spacing" textLength="96.0007" x="250.0013" y="253.0449">&#36605;&#12356;&#38609;&#35527;&#12539;&#12502;&#12525;&#12464;</text><rect fill="#F1F1F1" height="33.9688" rx="12.5" ry="12.5" style="stroke:#181818;stroke-width:0.5;" width="128.0008" x="234.0013" y="285.875"/><text fill="#000000" font-family="sans-serif" font-size="12" lengthAdjust="spacing" textLength="108.0008" x="244.0013" y="307.0137">&#12501;&#12451;&#12463;&#12471;&#12519;&#12531;&#12420;&#21109;&#20316;</text><line style="stroke:#181818;stroke-width:1.5;" x1="111.0007" x2="298.0017" y1="339.8438" y2="339.8438"/><ellipse cx="201.0012" cy="370.8438" fill="none" rx="11" ry="11" style="stroke:#222222;stroke-width:1;"/><ellipse cx="201.0012" cy="370.8438" fill="#222222" rx="6" ry="6" style="stroke:#222222;stroke-width:1;"/><line style="stroke:#181818;stroke-width:1;" x1="111.0007" x2="111.0007" y1="103.9688" y2="123.9688"/><polygon fill="#181818" points="107.0007,113.9688,115.0007,113.9688,111.0007,123.9688" style="stroke:#181818;stroke-width:1;"/><line style="stroke:#181818;stroke-width:1;" x1="111.0007" x2="111.0007" y1="157.9375" y2="177.9375"/><polygon fill="#181818" points="107.0007,167.9375,115.0007,167.9375,111.0007,177.9375" style="stroke:#181818;stroke-width:1;"/><line style="stroke:#181818;stroke-width:1;" x1="111.0007" x2="111.0007" y1="211.9063" y2="231.9063"/><polygon fill="#181818" points="107.0007,221.9063,115.0007,221.9063,111.0007,231.9063" style="stroke:#181818;stroke-width:1;"/><line style="stroke:#181818;stroke-width:1;" x1="111.0007" x2="111.0007" y1="265.875" y2="285.875"/><polygon fill="#181818" points="107.0007,275.875,115.0007,275.875,111.0007,285.875" style="stroke:#181818;stroke-width:1;"/><line style="stroke:#181818;stroke-width:1;" x1="298.0017" x2="298.0017" y1="103.9688" y2="123.9688"/><polygon fill="#181818" points="294.0017,113.9688,302.0017,113.9688,298.0017,123.9688" style="stroke:#181818;stroke-width:1;"/><line style="stroke:#181818;stroke-width:1;" x1="298.0017" x2="298.0017" y1="157.9375" y2="177.9375"/><polygon fill="#181818" points="294.0017,167.9375,302.0017,167.9375,298.0017,177.9375" style="stroke:#181818;stroke-width:1;"/><line style="stroke:#181818;stroke-width:1;" x1="298.0017" x2="298.0017" y1="211.9063" y2="231.9063"/><polygon fill="#181818" points="294.0017,221.9063,302.0017,221.9063,298.0017,231.9063" style="stroke:#181818;stroke-width:1;"/><line style="stroke:#181818;stroke-width:1;" x1="298.0017" x2="298.0017" y1="265.875" y2="285.875"/><polygon fill="#181818" points="294.0017,275.875,302.0017,275.875,298.0017,285.875" style="stroke:#181818;stroke-width:1;"/><line style="stroke:#181818;stroke-width:1;" x1="111.0007" x2="111.0007" y1="51.5" y2="70"/><polygon fill="#181818" points="107.0007,60,115.0007,60,111.0007,70" style="stroke:#181818;stroke-width:1;"/><line style="stroke:#181818;stroke-width:1;" x1="298.0017" x2="298.0017" y1="51.5" y2="70"/><polygon fill="#181818" points="294.0017,60,302.0017,60,298.0017,70" style="stroke:#181818;stroke-width:1;"/><line style="stroke:#181818;stroke-width:1;" x1="111.0007" x2="111.0007" y1="319.8438" y2="339.8438"/><polygon fill="#181818" points="107.0007,329.8438,115.0007,329.8438,111.0007,339.8438" style="stroke:#181818;stroke-width:1;"/><line style="stroke:#181818;stroke-width:1;" x1="298.0017" x2="298.0017" y1="319.8438" y2="339.8438"/><polygon fill="#181818" points="294.0017,329.8438,302.0017,329.8438,298.0017,339.8438" style="stroke:#181818;stroke-width:1;"/><line style="stroke:#181818;stroke-width:1;" x1="201.0012" x2="201.0012" y1="30" y2="50"/><polygon fill="#181818" points="197.0012,40,205.0012,40,201.0012,50" style="stroke:#181818;stroke-width:1;"/><line style="stroke:#181818;stroke-width:1;" x1="201.0012" x2="201.0012" y1="341.3438" y2="359.8438"/><polygon fill="#181818" points="197.0012,349.8438,205.0012,349.8438,201.0012,359.8438" style="stroke:#181818;stroke-width:1;"/><!--SRC=[HL5BJW914DtFASQLTv0xkE447IM424YOSU6Exa8-WYXHyOC9AlW1_80JVmpeOTvCpx3o2dQBQAVJNUdtgkhLwqKJuXBY4LI0Q8FsPu7VTC1lmO_0h-LnBUYCZ4KJV1_ymNzeXxSvy3v42M8REMvbaWbReJtmhYB8cufi5C6htkGJN74gciaBEaLnHCLOo6HPFCNC9DjStx1DAnMpMPePrbeYdM5PbZ8jUpCPKsSsiM9lf9A6OTaiQwjBTp9CjPQGsviMTy3pahRyyo78XNW7bK1tEk1Ly1RuX-wUgqTcEK7dmnkV-eUxqulgxvCy4Twe0bBx2ZHMgNFWu5C-kQfiy5oLRwLv1L7pthRLQtGv6juFmduZCXDbiZXBfF-aWNgWBeYqjLgN6xwq_ReJEEw_dB3O2_8l2fD7Mygti3kS0p_Sht59Daw2lO9YJ5kEl9fyZSjpXZjHeq-RzR1VrADJ0tGFCVY5GOVwDtNlLz0Do878- -LdRt8MCMBfrPcFojNrp3S0]--></g></svg>