<svg xmlns="http://www.w3.org/2000/svg" xmlns:xlink="http://www.w3.org/1999/xlink" contentStyleType="text/css" data-diagram-type="ACTIVITY" height="593px" preserveAspectRatio="none" style="width:670px;height:593px;background:#FFFFFF;" version="1.1" viewBox="0 0 670 593" width="670px" zoomAndPan="magnify"><defs/><g><ellipse cx="335.1397" cy="20" fill="#222222" rx="10" ry="10" style="stroke:#222222;stroke-width:1;"/><rect fill="#F1F1F1" height="33.9688" rx="12.5" ry="12.5" style="stroke:#181818;stroke-width:0.5;" width="116.0007" x="277.1393" y="50"/><text fill="#000000" font-family="sans-serif" font-size="12" lengthAdjust="spacing" textLength="96.0007" x="287.1393" y="71.1387">&#20316;&#26989;&#20869;&#23481;&#12434;&#27770;&#12417;&#12427;</text><polygon fill="#F1F1F1" points="68.7192,103.9688,129.5572,103.9688,141.5572,115.9688,129.5572,127.9688,68.7192,127.9688,56.7192,115.9688,68.7192,103.9688" style="stroke:#181818;stroke-width:0.5;"/><text fill="#000000" font-family="sans-serif" font-size="11" lengthAdjust="spacing" textLength="19.2178" x="103.1382" y="138.1792">Yes</text><text fill="#000000" font-family="sans-serif" font-size="11" lengthAdjust="spacing" textLength="60.838" x="68.7192" y="119.7769">&#12458;&#12452;&#12523;&#20132;&#25563;?</text><rect fill="#F1F1F1" height="33.9688" rx="12.5" ry="12.5" style="stroke:#181818;stroke-width:0.5;" width="128.0008" x="35.1378" y="159.6792"/><text fill="#000000" font-family="sans-serif" font-size="12" lengthAdjust="spacing" textLength="108.0008" x="45.1378" y="180.8179">&#12456;&#12531;&#12472;&#12531;&#12458;&#12452;&#12523;&#28310;&#20633;</text><rect fill="#F1F1F1" height="33.9688" rx="12.5" ry="12.5" style="stroke:#181818;stroke-width:0.5;" width="176.2765" x="11" y="213.6479"/><text fill="#000000" font-family="sans-serif" font-size="12" lengthAdjust="spacing" textLength="156.2765" x="21" y="234.7866">&#36554;or&#12496;&#12452;&#12463;&#12434;&#12472;&#12515;&#12483;&#12461;&#12450;&#12483;&#12503;</text><rect fill="#F1F1F1" height="33.9688" rx="12.5" ry="12.5" style="stroke:#181818;stroke-width:0.5;" width="128.0008" x="35.1378" y="271.019"/><text fill="#000000" font-family="sans-serif" font-size="12" lengthAdjust="spacing" textLength="108.0008" x="45.1378" y="292.1577">&#12489;&#12524;&#12531;&#12508;&#12523;&#12488;&#12434;&#22806;&#12377;</text><rect fill="#F1F1F1" height="33.9688" rx="12.5" ry="12.5" style="stroke:#181818;stroke-width:0.5;" width="92.0005" x="53.138" y="324.9878"/><text fill="#000000" font-family="sans-serif" font-size="12" lengthAdjust="spacing" textLength="72.0005" x="63.138" y="346.1265">&#12458;&#12452;&#12523;&#12434;&#25244;&#12367;</text><rect fill="#F1F1F1" height="33.9688" rx="12.5" ry="12.5" style="stroke:#181818;stroke-width:0.5;" width="140.0009" x="29.1378" y="378.9565"/><text fill="#000000" font-family="sans-serif" font-size="12" lengthAdjust="spacing" textLength="120.0009" x="39.1378" y="400.0952">&#26032;&#12375;&#12356;&#12458;&#12452;&#12523;&#12434;&#20837;&#12428;&#12427;</text><polygon fill="#F1F1F1" points="249.3581,103.9688,321.196,103.9688,333.196,115.9688,321.196,127.9688,249.3581,127.9688,237.3581,115.9688,249.3581,103.9688" style="stroke:#181818;stroke-width:0.5;"/><text fill="#000000" font-family="sans-serif" font-size="11" lengthAdjust="spacing" textLength="19.2178" x="289.2771" y="138.1792">Yes</text><text fill="#000000" font-family="sans-serif" font-size="11" lengthAdjust="spacing" textLength="71.8379" x="249.3581" y="119.7769">&#12502;&#12524;&#12540;&#12461;&#35519;&#25972;?</text><rect fill="#F1F1F1" height="33.9688" rx="12.5" ry="12.5" style="stroke:#181818;stroke-width:0.5;" width="176.0012" x="197.2765" y="159.6792"/><text fill="#000000" font-family="sans-serif" font-size="12" lengthAdjust="spacing" textLength="156.0012" x="207.2765" y="180.8179">&#12502;&#12524;&#12540;&#12461;&#12524;&#12496;&#12540;&#12398;&#36938;&#12403;&#12434;&#30906;&#35469;</text><rect fill="#F1F1F1" height="33.9688" rx="12.5" ry="12.5" style="stroke:#181818;stroke-width:0.5;" width="116.0007" x="227.2767" y="213.6479"/><text fill="#000000" font-family="sans-serif" font-size="12" lengthAdjust="spacing" textLength="96.0007" x="237.2767" y="234.7866">&#35519;&#25972;&#12508;&#12523;&#12488;&#12434;&#22238;&#12377;</text><rect fill="#F1F1F1" height="33.9688" rx="12.5" ry="12.5" style="stroke:#181818;stroke-width:0.5;" width="116.0007" x="227.2767" y="271.019"/><text fill="#000000" font-family="sans-serif" font-size="12" lengthAdjust="spacing" textLength="96.0007" x="237.2767" y="292.1577">&#36969;&#27491;&#12394;&#36938;&#12403;&#12395;&#35519;&#25972;</text><polygon fill="#F1F1F1" points="427.8593,103.9688,510.6971,103.9688,522.6971,115.9688,510.6971,127.9688,427.8593,127.9688,415.8593,115.9688,427.8593,103.9688" style="stroke:#181818;stroke-width:0.5;"/><text fill="#000000" font-family="sans-serif" font-size="11" lengthAdjust="spacing" textLength="19.2178" x="473.2782" y="138.1792">Yes</text><text fill="#000000" font-family="sans-serif" font-size="11" lengthAdjust="spacing" textLength="82.8378" x="427.8593" y="119.7769">&#12468;&#12512;&#12497;&#12540;&#12484;&#20132;&#25563;?</text><rect fill="#F1F1F1" height="33.9688" rx="12.5" ry="12.5" style="stroke:#181818;stroke-width:0.5;" width="116.0007" x="411.2778" y="159.6792"/><text fill="#000000" font-family="sans-serif" font-size="12" lengthAdjust="spacing" textLength="96.0007" x="421.2778" y="180.8179">&#21476;&#12356;&#12497;&#12540;&#12484;&#12434;&#22806;&#12377;</text><rect fill="#F1F1F1" height="33.9688" rx="12.5" ry="12.5" style="stroke:#181818;stroke-width:0.5;" width="152.001" x="393.2777" y="213.6479"/><text fill="#000000" font-family="sans-serif" font-size="12" lengthAdjust="spacing" textLength="132.001" x="403.2777" y="234.7866">&#26032;&#12375;&#12356;&#12497;&#12540;&#12484;&#12434;&#21462;&#12426;&#20184;&#12369;</text><rect fill="#F1F1F1" height="33.9688" rx="12.5" ry="12.5" style="stroke:#181818;stroke-width:0.5;" width="104.0006" x="555.2787" y="267.6167"/><text fill="#000000" font-family="sans-serif" font-size="12" lengthAdjust="spacing" textLength="84.0006" x="565.2787" y="288.7554">&#12381;&#12398;&#20182;&#12398;&#20316;&#26989;&#12408;</text><rect fill="#F1F1F1" height="33.9688" rx="12.5" ry="12.5" style="stroke:#181818;stroke-width:0.5;" width="140.0009" x="265.1392" y="452.9253"/><text fill="#000000" font-family="sans-serif" font-size="12" lengthAdjust="spacing" textLength="120.0009" x="275.1392" y="474.064">&#24037;&#20855;&#12392;&#12497;&#12540;&#12484;&#12434;&#29255;&#20184;&#12369;</text><rect fill="#F1F1F1" height="33.9688" rx="12.5" ry="12.5" style="stroke:#181818;stroke-width:0.5;" width="104.0006" x="283.1393" y="506.894"/><text fill="#000000" font-family="sans-serif" font-size="12" lengthAdjust="spacing" textLength="84.0006" x="293.1393" y="528.0327">&#35430;&#36208;&#12539;&#21205;&#20316;&#30906;&#35469;</text><ellipse cx="335.1397" cy="571.8628" fill="none" rx="11" ry="11" style="stroke:#222222;stroke-width:1;"/><ellipse cx="335.1397" cy="571.8628" fill="#222222" rx="6" ry="6" style="stroke:#222222;stroke-width:1;"/><line style="stroke:#181818;stroke-width:1;" x1="335.1397" x2="335.1397" y1="30" y2="50"/><polygon fill="#181818" points="331.1397,40,335.1397,50,339.1397,40,335.1397,44" style="stroke:#181818;stroke-width:1;"/><line style="stroke:#181818;stroke-width:1;" x1="99.1382" x2="99.1382" y1="193.6479" y2="213.6479"/><polygon fill="#181818" points="95.1382,203.6479,99.1382,213.6479,103.1382,203.6479,99.1382,207.6479" style="stroke:#181818;stroke-width:1;"/><line style="stroke:#181818;stroke-width:1;" x1="99.1382" x2="99.1382" y1="247.6167" y2="271.019"/><polygon fill="#181818" points="95.1382,261.019,99.1382,271.019,103.1382,261.019,99.1382,265.019" style="stroke:#181818;stroke-width:1;"/><line style="stroke:#181818;stroke-width:1;" x1="99.1382" x2="99.1382" y1="304.9878" y2="324.9878"/><polygon fill="#181818" points="95.1382,314.9878,99.1382,324.9878,103.1382,314.9878,99.1382,318.9878" style="stroke:#181818;stroke-width:1;"/><line style="stroke:#181818;stroke-width:1;" x1="99.1382" x2="99.1382" y1="358.9565" y2="378.9565"/><polygon fill="#181818" points="95.1382,368.9565,99.1382,378.9565,103.1382,368.9565,99.1382,372.9565" style="stroke:#181818;stroke-width:1;"/><line style="stroke:#181818;stroke-width:1;" x1="285.2771" x2="285.2771" y1="193.6479" y2="213.6479"/><polygon fill="#181818" points="281.2771,203.6479,285.2771,213.6479,289.2771,203.6479,285.2771,207.6479" style="stroke:#181818;stroke-width:1;"/><line style="stroke:#181818;stroke-width:1;" x1="285.2771" x2="285.2771" y1="247.6167" y2="271.019"/><polygon fill="#181818" points="281.2771,261.019,285.2771,271.019,289.2771,261.019,285.2771,265.019" style="stroke:#181818;stroke-width:1;"/><line style="stroke:#181818;stroke-width:1;" x1="469.2782" x2="469.2782" y1="193.6479" y2="213.6479"/><polygon fill="#181818" points="465.2782,203.6479,469.2782,213.6479,473.2782,203.6479,469.2782,207.6479" style="stroke:#181818;stroke-width:1;"/><line style="stroke:#181818;stroke-width:1;" x1="99.1382" x2="99.1382" y1="127.9688" y2="159.6792"/><polygon fill="#181818" points="95.1382,149.6792,99.1382,159.6792,103.1382,149.6792,99.1382,153.6792" style="stroke:#181818;stroke-width:1;"/><line style="stroke:#181818;stroke-width:1;" x1="99.1382" x2="99.1382" y1="412.9253" y2="432.9253"/><polygon fill="#181818" points="95.1382,422.9253,99.1382,432.9253,103.1382,422.9253,99.1382,426.9253" style="stroke:#181818;stroke-width:1;"/><line style="stroke:#181818;stroke-width:1;" x1="285.2771" x2="285.2771" y1="127.9688" y2="159.6792"/><polygon fill="#181818" points="281.2771,149.6792,285.2771,159.6792,289.2771,149.6792,285.2771,153.6792" style="stroke:#181818;stroke-width:1;"/><line style="stroke:#181818;stroke-width:1;" x1="285.2771" x2="285.2771" y1="304.9878" y2="432.9253"/><polygon fill="#181818" points="281.2771,422.9253,285.2771,432.9253,289.2771,422.9253,285.2771,426.9253" style="stroke:#181818;stroke-width:1;"/><line style="stroke:#181818;stroke-width:1;" x1="469.2782" x2="469.2782" y1="127.9688" y2="159.6792"/><polygon fill="#181818" points="465.2782,149.6792,469.2782,159.6792,473.2782,149.6792,469.2782,153.6792" style="stroke:#181818;stroke-width:1;"/><line style="stroke:#181818;stroke-width:1;" x1="469.2782" x2="469.2782" y1="247.6167" y2="432.9253"/><polygon fill="#181818" points="465.2782,422.9253,469.2782,432.9253,473.2782,422.9253,469.2782,426.9253" style="stroke:#181818;stroke-width:1;"/><line style="stroke:#181818;stroke-width:1;" x1="141.5572" x2="237.3581" y1="115.9688" y2="115.9688"/><polygon fill="#181818" points="227.3581,111.9688,237.3581,115.9688,227.3581,119.9688,231.3581,115.9688" style="stroke:#181818;stroke-width:1;"/><line style="stroke:#181818;stroke-width:1;" x1="333.196" x2="415.8593" y1="115.9688" y2="115.9688"/><polygon fill="#181818" points="405.8593,111.9688,415.8593,115.9688,405.8593,119.9688,409.8593,115.9688" style="stroke:#181818;stroke-width:1;"/><line style="stroke:#181818;stroke-width:1;" x1="335.1397" x2="335.1397" y1="83.9688" y2="88.9688"/><line style="stroke:#181818;stroke-width:1;" x1="335.1397" x2="99.1382" y1="88.9688" y2="88.9688"/><line style="stroke:#181818;stroke-width:1;" x1="99.1382" x2="99.1382" y1="88.9688" y2="103.9688"/><polygon fill="#181818" points="95.1382,93.9688,99.1382,103.9688,103.1382,93.9688,99.1382,97.9688" style="stroke:#181818;stroke-width:1;"/><line style="stroke:#181818;stroke-width:1;" x1="522.6971" x2="607.279" y1="115.9688" y2="115.9688"/><line style="stroke:#181818;stroke-width:1;" x1="607.279" x2="607.279" y1="115.9688" y2="267.6167"/><polygon fill="#181818" points="603.279,257.6167,607.279,267.6167,611.279,257.6167,607.279,261.6167" style="stroke:#181818;stroke-width:1;"/><line style="stroke:#181818;stroke-width:1;" x1="607.279" x2="607.279" y1="301.5854" y2="432.9253"/><polygon fill="#181818" points="603.279,422.9253,607.279,432.9253,611.279,422.9253,607.279,426.9253" style="stroke:#181818;stroke-width:1;"/><line style="stroke:#181818;stroke-width:1;" x1="99.1382" x2="607.279" y1="432.9253" y2="432.9253"/><line style="stroke:#181818;stroke-width:1;" x1="335.1397" x2="335.1397" y1="432.9253" y2="452.9253"/><polygon fill="#181818" points="331.1397,442.9253,335.1397,452.9253,339.1397,442.9253,335.1397,446.9253" style="stroke:#181818;stroke-width:1;"/><line style="stroke:#181818;stroke-width:1;" x1="335.1397" x2="335.1397" y1="486.894" y2="506.894"/><polygon fill="#181818" points="331.1397,496.894,335.1397,506.894,339.1397,496.894,335.1397,500.894" style="stroke:#181818;stroke-width:1;"/><line style="stroke:#181818;stroke-width:1;" x1="335.1397" x2="335.1397" y1="540.8628" y2="560.8628"/><polygon fill="#181818" points="331.1397,550.8628,335.1397,560.8628,339.1397,550.8628,335.1397,554.8628" style="stroke:#181818;stroke-width:1;"/><!--SRC=[TL9HJi904FtlAVe9Lu0Fp-6dYIMI632q5vXTK2cQ0Wb50ne3nK0HnA01Mus7cMufjt1tIxN4-BEPx7lpvhtPrOsZYg4ekU2p7uvcxBp6vkz8sk6BXmIGDF9AiQ1caBX87AJJm7D2gtUGLOqJhQHc3ZKzgwXg3iaOwHB9MfuxRkZPZDpc1HxvPhc2j2a0yipr9NM8b2AP8Hc8WdOb5MaTwPFGeNqkWlIIqvbZ8yHIF_B2fTb7iEHrQ2yGkWZLDCvg8oHNCeLsgcio2RMb_0SV7BbVOUVrRvWKHHPDKSDy2oO2ZzVU3Bp8lOw3IOazgxtxnEeM9k5iYE3kEc4QqrDk2EzzGDeI4sZrd-qoon714jR-Fdw3ft7BHc86_Wr2AvucWy4TZn7ujZZbUoEiELmwBXRu5s2h4Qkj4CPffKtz8f79HPF7w6s1r6UD3kzFrg0RvRDl]--></g></svg>