<svg xmlns="http://www.w3.org/2000/svg" xmlns:xlink="http://www.w3.org/1999/xlink" contentStyleType="text/css" data-diagram-type="ACTIVITY" height="752px" preserveAspectRatio="none" style="width:520px;height:752px;background:#FFFFFF;" version="1.1" viewBox="0 0 520 752" width="520px" zoomAndPan="magnify"><defs/><g><ellipse cx="265.0016" cy="20" fill="#222222" rx="10" ry="10" style="stroke:#222222;stroke-width:1;"/><rect fill="#F1F1F1" height="33.9688" rx="12.5" ry="12.5" style="stroke:#181818;stroke-width:0.5;" width="200.0014" x="165.0009" y="50"/><text fill="#000000" font-family="sans-serif" font-size="12" lengthAdjust="spacing" textLength="180.0014" x="175.0009" y="71.1387">&#36554;&#20307;&#12434;&#12475;&#12531;&#12479;&#12540;&#12473;&#12479;&#12531;&#12489;&#12391;&#31435;&#12390;&#12427;</text><rect fill="#F1F1F1" height="33.9688" rx="12.5" ry="12.5" style="stroke:#181818;stroke-width:0.5;" width="140.0009" x="195.0011" y="103.9688"/><text fill="#000000" font-family="sans-serif" font-size="12" lengthAdjust="spacing" textLength="120.0009" x="205.0011" y="125.1074">&#24460;&#36650;&#12364;&#22238;&#12427;&#29366;&#24907;&#12395;&#12377;&#12427;</text><rect fill="#F1F1F1" height="33.9688" rx="12.5" ry="12.5" style="stroke:#181818;stroke-width:0.5;" width="176.0012" x="177.001" y="157.9375"/><text fill="#000000" font-family="sans-serif" font-size="12" lengthAdjust="spacing" textLength="156.0012" x="187.001" y="179.0762">&#12502;&#12524;&#12540;&#12461;&#12524;&#12496;&#12540;&#12398;&#36938;&#12403;&#12434;&#30906;&#35469;</text><polygon fill="#F1F1F1" points="49.5009,211.9063,148.5003,211.9063,160.5003,223.9063,148.5003,235.9063,49.5009,235.9063,37.5009,223.9063,49.5009,211.9063" style="stroke:#181818;stroke-width:0.5;"/><text fill="#000000" font-family="sans-serif" font-size="11" lengthAdjust="spacing" textLength="19.2178" x="103.0006" y="246.1167">Yes</text><text fill="#000000" font-family="sans-serif" font-size="11" lengthAdjust="spacing" textLength="98.9993" x="49.5009" y="227.7144">&#36938;&#12403;&#12364;&#22823;&#12365;&#12377;&#12366;&#12427;&#65311;</text><rect fill="#F1F1F1" height="33.9688" rx="12.5" ry="12.5" style="stroke:#181818;stroke-width:0.5;" width="176.0012" x="11" y="268.7109"/><text fill="#000000" font-family="sans-serif" font-size="12" lengthAdjust="spacing" textLength="156.0012" x="21" y="289.8496">&#35519;&#25972;&#12490;&#12483;&#12488;&#12434;&#26178;&#35336;&#22238;&#12426;&#12395;&#22238;&#12377;</text><polygon fill="#F1F1F1" points="251.5022,211.9063,350.5015,211.9063,362.5015,223.9063,350.5015,235.9063,251.5022,235.9063,239.5022,223.9063,251.5022,211.9063" style="stroke:#181818;stroke-width:0.5;"/><text fill="#000000" font-family="sans-serif" font-size="11" lengthAdjust="spacing" textLength="19.2178" x="305.0018" y="246.1167">Yes</text><text fill="#000000" font-family="sans-serif" font-size="11" lengthAdjust="spacing" textLength="98.9993" x="251.5022" y="227.7144">&#36938;&#12403;&#12364;&#23567;&#12373;&#12377;&#12366;&#12427;&#65311;</text><rect fill="#F1F1F1" height="33.9688" rx="12.5" ry="12.5" style="stroke:#181818;stroke-width:0.5;" width="188.0013" x="207.0012" y="268.7109"/><text fill="#000000" font-family="sans-serif" font-size="12" lengthAdjust="spacing" textLength="168.0013" x="217.0012" y="289.8496">&#35519;&#25972;&#12490;&#12483;&#12488;&#12434;&#21453;&#26178;&#35336;&#22238;&#12426;&#12395;&#22238;&#12377;</text><rect fill="#F1F1F1" height="33.9688" rx="12.5" ry="12.5" style="stroke:#181818;stroke-width:0.5;" width="104.0006" x="405.0025" y="265.3086"/><text fill="#000000" font-family="sans-serif" font-size="12" lengthAdjust="spacing" textLength="84.0006" x="415.0025" y="286.4473">&#35519;&#25972;&#12398;&#24517;&#35201;&#12394;&#12375;</text><rect fill="#F1F1F1" height="33.9688" rx="12.5" ry="12.5" style="stroke:#181818;stroke-width:0.5;" width="152.001" x="189.0011" y="342.6797"/><text fill="#000000" font-family="sans-serif" font-size="12" lengthAdjust="spacing" textLength="132.001" x="199.0011" y="363.8184">&#12524;&#12496;&#12540;&#12434;&#25968;&#22238;&#25569;&#12387;&#12390;&#30906;&#35469;</text><rect fill="#F1F1F1" height="33.9688" rx="12.5" ry="12.5" style="stroke:#181818;stroke-width:0.5;" width="212.0015" x="159.0008" y="396.6484"/><text fill="#000000" font-family="sans-serif" font-size="12" lengthAdjust="spacing" textLength="192.0015" x="169.0008" y="417.7871">&#24460;&#36650;&#12398;&#24341;&#12365;&#12378;&#12426;&#12364;&#12394;&#12356;&#12363;&#22238;&#12375;&#12390;&#30906;&#35469;</text><rect fill="#F1F1F1" height="33.9688" rx="12.5" ry="12.5" style="stroke:#181818;stroke-width:0.5;" width="116.0007" x="207.0012" y="499.0195"/><text fill="#000000" font-family="sans-serif" font-size="12" lengthAdjust="spacing" textLength="96.0007" x="217.0012" y="520.1582">&#12490;&#12483;&#12488;&#12434;&#23569;&#12375;&#25147;&#12377;</text><rect fill="#F1F1F1" height="33.9688" rx="12.5" ry="12.5" style="stroke:#181818;stroke-width:0.5;" width="56.0003" x="237.0014" y="567.9883"/><text fill="#000000" font-family="sans-serif" font-size="12" lengthAdjust="spacing" textLength="36.0003" x="247.0014" y="589.127">&#20877;&#30906;&#35469;</text><polygon fill="#F1F1F1" points="221.0019,450.6172,309.0013,450.6172,321.0013,462.6172,309.0013,474.6172,221.0019,474.6172,209.0019,462.6172,221.0019,450.6172" style="stroke:#181818;stroke-width:0.5;"/><text fill="#000000" font-family="sans-serif" font-size="11" lengthAdjust="spacing" textLength="19.2178" x="269.0016" y="484.8276">Yes</text><text fill="#000000" font-family="sans-serif" font-size="11" lengthAdjust="spacing" textLength="87.9994" x="221.0019" y="466.4253">&#24341;&#12365;&#12378;&#12426;&#12364;&#12354;&#12427;&#65311;</text><polygon fill="#F1F1F1" points="265.0016,621.957,277.0016,633.957,265.0016,645.957,253.0016,633.957,265.0016,621.957" style="stroke:#181818;stroke-width:0.5;"/><rect fill="#F1F1F1" height="33.9688" rx="12.5" ry="12.5" style="stroke:#181818;stroke-width:0.5;" width="253.9193" x="138.0419" y="665.957"/><text fill="#000000" font-family="sans-serif" font-size="12" lengthAdjust="spacing" textLength="233.9193" x="148.0419" y="687.0957">&#36969;&#27491;&#12394;&#36938;&#12403;&#65288;10&#12316;20mm&#65289;&#12395;&#12394;&#12387;&#12383;&#12363;&#30906;&#35469;</text><ellipse cx="265.0016" cy="730.9258" fill="none" rx="11" ry="11" style="stroke:#222222;stroke-width:1;"/><ellipse cx="265.0016" cy="730.9258" fill="#222222" rx="6" ry="6" style="stroke:#222222;stroke-width:1;"/><line style="stroke:#181818;stroke-width:1;" x1="265.0016" x2="265.0016" y1="30" y2="50"/><polygon fill="#181818" points="261.0016,40,265.0016,50,269.0016,40,265.0016,44" style="stroke:#181818;stroke-width:1;"/><line style="stroke:#181818;stroke-width:1;" x1="265.0016" x2="265.0016" y1="83.9688" y2="103.9688"/><polygon fill="#181818" points="261.0016,93.9688,265.0016,103.9688,269.0016,93.9688,265.0016,97.9688" style="stroke:#181818;stroke-width:1;"/><line style="stroke:#181818;stroke-width:1;" x1="265.0016" x2="265.0016" y1="137.9375" y2="157.9375"/><polygon fill="#181818" points="261.0016,147.9375,265.0016,157.9375,269.0016,147.9375,265.0016,151.9375" style="stroke:#181818;stroke-width:1;"/><line style="stroke:#181818;stroke-width:1;" x1="99.0006" x2="99.0006" y1="235.9063" y2="268.7109"/><polygon fill="#181818" points="95.0006,258.7109,99.0006,268.7109,103.0006,258.7109,99.0006,262.7109" style="stroke:#181818;stroke-width:1;"/><line style="stroke:#181818;stroke-width:1;" x1="99.0006" x2="99.0006" y1="302.6797" y2="322.6797"/><polygon fill="#181818" points="95.0006,312.6797,99.0006,322.6797,103.0006,312.6797,99.0006,316.6797" style="stroke:#181818;stroke-width:1;"/><line style="stroke:#181818;stroke-width:1;" x1="301.0018" x2="301.0018" y1="235.9063" y2="268.7109"/><polygon fill="#181818" points="297.0018,258.7109,301.0018,268.7109,305.0018,258.7109,301.0018,262.7109" style="stroke:#181818;stroke-width:1;"/><line style="stroke:#181818;stroke-width:1;" x1="301.0018" x2="301.0018" y1="302.6797" y2="322.6797"/><polygon fill="#181818" points="297.0018,312.6797,301.0018,322.6797,305.0018,312.6797,301.0018,316.6797" style="stroke:#181818;stroke-width:1;"/><line style="stroke:#181818;stroke-width:1;" x1="160.5003" x2="239.5022" y1="223.9063" y2="223.9063"/><polygon fill="#181818" points="229.5022,219.9063,239.5022,223.9063,229.5022,227.9063,233.5022,223.9063" style="stroke:#181818;stroke-width:1;"/><line style="stroke:#181818;stroke-width:1;" x1="265.0016" x2="265.0016" y1="191.9063" y2="196.9063"/><line style="stroke:#181818;stroke-width:1;" x1="265.0016" x2="99.0006" y1="196.9063" y2="196.9063"/><line style="stroke:#181818;stroke-width:1;" x1="99.0006" x2="99.0006" y1="196.9063" y2="211.9063"/><polygon fill="#181818" points="95.0006,201.9063,99.0006,211.9063,103.0006,201.9063,99.0006,205.9063" style="stroke:#181818;stroke-width:1;"/><line style="stroke:#181818;stroke-width:1;" x1="362.5015" x2="457.0028" y1="223.9063" y2="223.9063"/><line style="stroke:#181818;stroke-width:1;" x1="457.0028" x2="457.0028" y1="223.9063" y2="265.3086"/><polygon fill="#181818" points="453.0028,255.3086,457.0028,265.3086,461.0028,255.3086,457.0028,259.3086" style="stroke:#181818;stroke-width:1;"/><line style="stroke:#181818;stroke-width:1;" x1="457.0028" x2="457.0028" y1="299.2773" y2="322.6797"/><polygon fill="#181818" points="453.0028,312.6797,457.0028,322.6797,461.0028,312.6797,457.0028,316.6797" style="stroke:#181818;stroke-width:1;"/><line style="stroke:#181818;stroke-width:1;" x1="99.0006" x2="457.0028" y1="322.6797" y2="322.6797"/><line style="stroke:#181818;stroke-width:1;" x1="265.0016" x2="265.0016" y1="322.6797" y2="342.6797"/><polygon fill="#181818" points="261.0016,332.6797,265.0016,342.6797,269.0016,332.6797,265.0016,336.6797" style="stroke:#181818;stroke-width:1;"/><line style="stroke:#181818;stroke-width:1;" x1="265.0016" x2="265.0016" y1="376.6484" y2="396.6484"/><polygon fill="#181818" points="261.0016,386.6484,265.0016,396.6484,269.0016,386.6484,265.0016,390.6484" style="stroke:#181818;stroke-width:1;"/><line style="stroke:#181818;stroke-width:1;" x1="265.0016" x2="265.0016" y1="532.9883" y2="567.9883"/><polygon fill="#181818" points="261.0016,557.9883,265.0016,567.9883,269.0016,557.9883,265.0016,561.9883" style="stroke:#181818;stroke-width:1;"/><line style="stroke:#181818;stroke-width:1;" x1="265.0016" x2="265.0016" y1="474.6172" y2="499.0195"/><polygon fill="#181818" points="261.0016,489.0195,265.0016,499.0195,269.0016,489.0195,265.0016,493.0195" style="stroke:#181818;stroke-width:1;"/><line style="stroke:#181818;stroke-width:1;" x1="321.0013" x2="333.0019" y1="462.6172" y2="462.6172"/><polygon fill="#181818" points="329.0019,540.4883,333.0019,550.4883,337.0019,540.4883,333.0019,544.4883" style="stroke:#181818;stroke-width:1;"/><line style="stroke:#181818;stroke-width:1;" x1="333.0019" x2="333.0019" y1="462.6172" y2="633.957"/><line style="stroke:#181818;stroke-width:1;" x1="333.0019" x2="277.0016" y1="633.957" y2="633.957"/><polygon fill="#181818" points="287.0016,629.957,277.0016,633.957,287.0016,637.957,283.0016,633.957" style="stroke:#181818;stroke-width:1;"/><line style="stroke:#181818;stroke-width:1;" x1="265.0016" x2="265.0016" y1="601.957" y2="621.957"/><polygon fill="#181818" points="261.0016,611.957,265.0016,621.957,269.0016,611.957,265.0016,615.957" style="stroke:#181818;stroke-width:1;"/><line style="stroke:#181818;stroke-width:1;" x1="265.0016" x2="265.0016" y1="430.6172" y2="450.6172"/><polygon fill="#181818" points="261.0016,440.6172,265.0016,450.6172,269.0016,440.6172,265.0016,444.6172" style="stroke:#181818;stroke-width:1;"/><line style="stroke:#181818;stroke-width:1;" x1="265.0016" x2="265.0016" y1="645.957" y2="665.957"/><polygon fill="#181818" points="261.0016,655.957,265.0016,665.957,269.0016,655.957,265.0016,659.957" style="stroke:#181818;stroke-width:1;"/><line style="stroke:#181818;stroke-width:1;" x1="265.0016" x2="265.0016" y1="699.9258" y2="719.9258"/><polygon fill="#181818" points="261.0016,709.9258,265.0016,719.9258,269.0016,709.9258,265.0016,713.9258" style="stroke:#181818;stroke-width:1;"/><!--SRC=[bP7DJi9G48NtzocwX1swB4_YqiGIIGIDxGCuzuefXOfYAa6Dn9-05Y4a61EboiECBMN5ApYCra0q9kucTsQ-EUTSqrhVjOJGuv7p_dg2ievoX6g8SemgGFdCnH1L6Q4pwLOGsYWhMQ67RzKuy16guVablKoSfwX4tIv2amU4ZkeKrGDJUbmSpMleJy51e0FroVLBxBjPaSzfgQz7mjrs4Dmv1Gu9D0jQQStQD8fQQiqmqqBJzDWVHzuZAWULGcKJA6hA-Cvc8KJfpWjePeMnPHhBx44DmViVEwovV-0NTg0VZajn6n0ebGQrYnlv7CUGM2UXte2sezeLmWqbcGJm7MO_33nsVyQdgipQHwZmpSR22eVsOrh-xch9p-2OI94zOW_K30_S19f8di9zr2E1_cToiy1UoU3UnMgcK9W5PVvadnsqI5goR5hREny0]--></g></svg>