<svg xmlns="http://www.w3.org/2000/svg" xmlns:xlink="http://www.w3.org/1999/xlink" contentStyleType="text/css" data-diagram-type="SEQUENCE" height="709px" preserveAspectRatio="none" style="width:646px;height:709px;background:#FFFFFF;" version="1.1" viewBox="0 0 646 709" width="646px" zoomAndPan="magnify"><title>&#12450;&#12452;&#12489;&#12523;&#21561;&#12365;&#26367;&#12360;&#36215;&#29992;&#12395;&#12424;&#12427;&#22833;&#26395;&#12398;&#27969;&#12428;</title><defs/><g><text fill="#000000" font-family="sans-serif" font-size="14" font-weight="bold" lengthAdjust="spacing" textLength="251.9989" x="193.1236" y="27.9951">&#12450;&#12452;&#12489;&#12523;&#21561;&#12365;&#26367;&#12360;&#36215;&#29992;&#12395;&#12424;&#12427;&#22833;&#26395;&#12398;&#27969;&#12428;</text><g><title>&#35251;&#23458;</title><rect fill="#000000" fill-opacity="0.00000" height="509.8594" width="8" x="17.9999" y="118.5938"/><line style="stroke:#181818;stroke-width:0.5;stroke-dasharray:5.0,5.0;" x1="21" x2="21" y1="118.5938" y2="628.4531"/></g><g><title>&#21046;&#20316;&#20596;</title><rect fill="#000000" fill-opacity="0.00000" height="509.8594" width="8" x="136" y="118.5938"/><line style="stroke:#181818;stroke-width:0.5;stroke-dasharray:5.0,5.0;" x1="139.0001" x2="139.0001" y1="118.5938" y2="628.4531"/></g><g><title>&#24195;&#22577;&#12481;&#12540;&#12512;</title><rect fill="#000000" fill-opacity="0.00000" height="509.8594" width="8" x="342.0003" y="118.5938"/><line style="stroke:#181818;stroke-width:0.5;stroke-dasharray:5.0,5.0;" x1="345.0004" x2="345.0004" y1="118.5938" y2="628.4531"/></g><g><title>&#12450;&#12452;&#12489;&#12523;</title><rect fill="#000000" fill-opacity="0.00000" height="509.8594" width="8" x="429" y="118.5938"/><line style="stroke:#181818;stroke-width:0.5;stroke-dasharray:5.0,5.0;" x1="432.0001" x2="432.0001" y1="118.5938" y2="628.4531"/></g><g><title>&#26144;&#30011;</title><rect fill="#000000" fill-opacity="0.00000" height="509.8594" width="8" x="557.0001" y="118.5938"/><line style="stroke:#181818;stroke-width:0.5;stroke-dasharray:5.0,5.0;" x1="560.0002" x2="560.0002" y1="118.5938" y2="628.4531"/></g><g><title>SNS</title><rect fill="#000000" fill-opacity="0.00000" height="509.8594" width="8" x="609.1231" y="118.5938"/><line style="stroke:#181818;stroke-width:0.5;stroke-dasharray:5.0,5.0;" x1="613" x2="613" y1="118.5938" y2="628.4531"/></g><g class="participant participant-head" data-participant="&#35251;&#23458;"><text fill="#000000" font-family="sans-serif" font-size="14" lengthAdjust="spacing" textLength="27.9999" x="5" y="115.292">&#35251;&#23458;</text><ellipse cx="21.9999" cy="50.7969" fill="#E2E2F0" rx="8" ry="8" style="stroke:#181818;stroke-width:0.5;"/><path d="M21.9999,58.7969 L21.9999,85.7969 M8.9999,66.7969 L34.9999,66.7969 M21.9999,85.7969 L8.9999,100.7969 M21.9999,85.7969 L34.9999,100.7969" fill="none" style="stroke:#181818;stroke-width:0.5;"/></g><g class="participant participant-tail" data-participant="&#35251;&#23458;"><text fill="#000000" font-family="sans-serif" font-size="14" lengthAdjust="spacing" textLength="27.9999" x="5" y="640.4482">&#35251;&#23458;</text><ellipse cx="21.9999" cy="652.25" fill="#E2E2F0" rx="8" ry="8" style="stroke:#181818;stroke-width:0.5;"/><path d="M21.9999,660.25 L21.9999,687.25 M8.9999,668.25 L34.9999,668.25 M21.9999,687.25 L8.9999,702.25 M21.9999,687.25 L34.9999,702.25" fill="none" style="stroke:#181818;stroke-width:0.5;"/></g><g class="participant participant-head" data-participant="&#21046;&#20316;&#20596;"><rect fill="#E2E2F0" height="30.2969" rx="2.5" ry="2.5" style="stroke:#181818;stroke-width:0.5;" width="55.9998" x="112.0001" y="87.2969"/><text fill="#000000" font-family="sans-serif" font-size="14" lengthAdjust="spacing" textLength="41.9998" x="119.0001" y="107.292">&#21046;&#20316;&#20596;</text></g><g class="participant participant-tail" data-participant="&#21046;&#20316;&#20596;"><rect fill="#E2E2F0" height="30.2969" rx="2.5" ry="2.5" style="stroke:#181818;stroke-width:0.5;" width="55.9998" x="112.0001" y="627.4531"/><text fill="#000000" font-family="sans-serif" font-size="14" lengthAdjust="spacing" textLength="41.9998" x="119.0001" y="647.4482">&#21046;&#20316;&#20596;</text></g><g class="participant participant-head" data-participant="&#24195;&#22577;&#12481;&#12540;&#12512;"><rect fill="#E2E2F0" height="30.2969" rx="2.5" ry="2.5" style="stroke:#181818;stroke-width:0.5;" width="83.9997" x="304.0004" y="87.2969"/><text fill="#000000" font-family="sans-serif" font-size="14" lengthAdjust="spacing" textLength="69.9997" x="311.0004" y="107.292">&#24195;&#22577;&#12481;&#12540;&#12512;</text></g><g class="participant participant-tail" data-participant="&#24195;&#22577;&#12481;&#12540;&#12512;"><rect fill="#E2E2F0" height="30.2969" rx="2.5" ry="2.5" style="stroke:#181818;stroke-width:0.5;" width="83.9997" x="304.0004" y="627.4531"/><text fill="#000000" font-family="sans-serif" font-size="14" lengthAdjust="spacing" textLength="69.9997" x="311.0004" y="647.4482">&#24195;&#22577;&#12481;&#12540;&#12512;</text></g><g class="participant participant-head" data-participant="&#12450;&#12452;&#12489;&#12523;"><rect fill="#E2E2F0" height="30.2969" rx="2.5" ry="2.5" style="stroke:#181818;stroke-width:0.5;" width="69.9998" x="398.0001" y="87.2969"/><text fill="#000000" font-family="sans-serif" font-size="14" lengthAdjust="spacing" textLength="55.9998" x="405.0001" y="107.292">&#12450;&#12452;&#12489;&#12523;</text></g><g class="participant participant-tail" data-participant="&#12450;&#12452;&#12489;&#12523;"><rect fill="#E2E2F0" height="30.2969" rx="2.5" ry="2.5" style="stroke:#181818;stroke-width:0.5;" width="69.9998" x="398.0001" y="627.4531"/><text fill="#000000" font-family="sans-serif" font-size="14" lengthAdjust="spacing" textLength="55.9998" x="405.0001" y="647.4482">&#12450;&#12452;&#12489;&#12523;</text></g><g class="participant participant-head" data-participant="&#26144;&#30011;"><rect fill="#E2E2F0" height="30.2969" rx="2.5" ry="2.5" style="stroke:#181818;stroke-width:0.5;" width="41.9999" x="540.0002" y="87.2969"/><text fill="#000000" font-family="sans-serif" font-size="14" lengthAdjust="spacing" textLength="27.9999" x="547.0002" y="107.292">&#26144;&#30011;</text></g><g class="participant participant-tail" data-participant="&#26144;&#30011;"><rect fill="#E2E2F0" height="30.2969" rx="2.5" ry="2.5" style="stroke:#181818;stroke-width:0.5;" width="41.9999" x="540.0002" y="627.4531"/><text fill="#000000" font-family="sans-serif" font-size="14" lengthAdjust="spacing" textLength="27.9999" x="547.0002" y="647.4482">&#26144;&#30011;</text></g><g class="participant participant-head" data-participant="SNS"><rect fill="#E2E2F0" height="30.2969" rx="2.5" ry="2.5" style="stroke:#181818;stroke-width:0.5;" width="42.2461" x="592" y="87.2969"/><text fill="#000000" font-family="sans-serif" font-size="14" lengthAdjust="spacing" textLength="28.2461" x="599" y="107.292">SNS</text></g><g class="participant participant-tail" data-participant="SNS"><rect fill="#E2E2F0" height="30.2969" rx="2.5" ry="2.5" style="stroke:#181818;stroke-width:0.5;" width="42.2461" x="592" y="627.4531"/><text fill="#000000" font-family="sans-serif" font-size="14" lengthAdjust="spacing" textLength="28.2461" x="599" y="647.4482">SNS</text></g><rect fill="#EEEEEE" height="3" style="stroke:#EEEEEE;stroke-width:1;" width="639.2461" x="0" y="149.1602"/><line style="stroke:#000000;stroke-width:1;" x1="0" x2="639.2461" y1="149.1602" y2="149.1602"/><line style="stroke:#000000;stroke-width:1;" x1="0" x2="639.2461" y1="152.1602" y2="152.1602"/><rect fill="#EEEEEE" height="23.1328" style="stroke:#000000;stroke-width:2;" width="70.5259" x="284.3601" y="138.5938"/><text fill="#000000" font-family="sans-serif" font-size="13" font-weight="bold" lengthAdjust="spacing" textLength="52.0001" x="290.3601" y="154.6606">&#36215;&#29992;&#21028;&#26029;</text><g class="message" data-participant-1="&#21046;&#20316;&#20596;" data-participant-2="&#24195;&#22577;&#12481;&#12540;&#12512;"><polygon fill="#181818" points="334.0003,188.8594,344.0003,192.8594,334.0003,196.8594,338.0003,192.8594" style="stroke:#181818;stroke-width:1;"/><line style="stroke:#181818;stroke-width:1;" x1="140" x2="340.0003" y1="192.8594" y2="192.8594"/><text fill="#000000" font-family="sans-serif" font-size="13" lengthAdjust="spacing" textLength="91.0001" x="147" y="187.7935">&#35441;&#38988;&#24615;&#12364;&#27442;&#12375;&#12356;</text></g><g class="message" data-participant-1="&#24195;&#22577;&#12481;&#12540;&#12512;" data-participant-2="&#21046;&#20316;&#20596;"><polygon fill="#181818" points="151,217.9922,141,221.9922,151,225.9922,147,221.9922" style="stroke:#181818;stroke-width:1;"/><line style="stroke:#181818;stroke-width:1;" x1="145" x2="345.0003" y1="221.9922" y2="221.9922"/><text fill="#000000" font-family="sans-serif" font-size="13" lengthAdjust="spacing" textLength="182.0002" x="157" y="216.9263">&#26377;&#21517;&#12450;&#12452;&#12489;&#12523;&#12434;&#36215;&#29992;&#12375;&#12414;&#12375;&#12423;&#12358;</text></g><g class="message" data-participant-1="&#21046;&#20316;&#20596;" data-participant-2="&#12450;&#12452;&#12489;&#12523;"><polygon fill="#181818" points="421,247.125,431,251.125,421,255.125,425,251.125" style="stroke:#181818;stroke-width:1;"/><line style="stroke:#181818;stroke-width:1;" x1="140" x2="427" y1="251.125" y2="251.125"/><text fill="#000000" font-family="sans-serif" font-size="13" lengthAdjust="spacing" textLength="78.0001" x="147" y="246.0591">&#21561;&#12365;&#26367;&#12360;&#20381;&#38972;</text></g><rect fill="#EEEEEE" height="3" style="stroke:#EEEEEE;stroke-width:1;" width="639.2461" x="0" y="279.6914"/><line style="stroke:#000000;stroke-width:1;" x1="0" x2="639.2461" y1="279.6914" y2="279.6914"/><line style="stroke:#000000;stroke-width:1;" x1="0" x2="639.2461" y1="282.6914" y2="282.6914"/><rect fill="#EEEEEE" height="23.1328" style="stroke:#000000;stroke-width:2;" width="70.5259" x="284.3601" y="269.125"/><text fill="#000000" font-family="sans-serif" font-size="13" font-weight="bold" lengthAdjust="spacing" textLength="52.0001" x="290.3601" y="285.1919">&#26144;&#30011;&#20844;&#38283;</text><g class="message" data-participant-1="&#12450;&#12452;&#12489;&#12523;" data-participant-2="&#26144;&#30011;"><polygon fill="#181818" points="549.0001,319.3906,559.0001,323.3906,549.0001,327.3906,553.0001,323.3906" style="stroke:#181818;stroke-width:1;"/><line style="stroke:#181818;stroke-width:1;" x1="433" x2="555.0001" y1="323.3906" y2="323.3906"/><text fill="#000000" font-family="sans-serif" font-size="13" lengthAdjust="spacing" textLength="104.0001" x="440" y="318.3247">&#21561;&#12365;&#26367;&#12360;&#38899;&#22768;&#25552;&#20379;</text></g><g class="message" data-participant-1="&#26144;&#30011;" data-participant-2="&#35251;&#23458;"><polygon fill="#181818" points="32.9999,348.5234,22.9999,352.5234,32.9999,356.5234,28.9999,352.5234" style="stroke:#181818;stroke-width:1;"/><line style="stroke:#181818;stroke-width:1;" x1="26.9999" x2="560.0001" y1="352.5234" y2="352.5234"/><text fill="#000000" font-family="sans-serif" font-size="13" lengthAdjust="spacing" textLength="52.0001" x="38.9999" y="347.4575">&#19978;&#26144;&#38283;&#22987;</text></g><rect fill="#EEEEEE" height="3" style="stroke:#EEEEEE;stroke-width:1;" width="639.2461" x="0" y="381.0898"/><line style="stroke:#000000;stroke-width:1;" x1="0" x2="639.2461" y1="381.0898" y2="381.0898"/><line style="stroke:#000000;stroke-width:1;" x1="0" x2="639.2461" y1="384.0898" y2="384.0898"/><rect fill="#EEEEEE" height="23.1328" style="stroke:#000000;stroke-width:2;" width="83.526" x="277.8601" y="370.5234"/><text fill="#000000" font-family="sans-serif" font-size="13" font-weight="bold" lengthAdjust="spacing" textLength="65.0001" x="283.8601" y="386.5903">&#35251;&#23458;&#12398;&#21453;&#24540;</text><g class="message" data-participant-1="&#35251;&#23458;" data-participant-2="&#26144;&#30011;"><polygon fill="#181818" points="549.0001,420.7891,559.0001,424.7891,549.0001,428.7891,553.0001,424.7891" style="stroke:#181818;stroke-width:1;"/><line style="stroke:#181818;stroke-width:1;" x1="21.9999" x2="555.0001" y1="424.7891" y2="424.7891"/><text fill="#000000" font-family="sans-serif" font-size="13" lengthAdjust="spacing" textLength="26" x="28.9999" y="419.7231">&#35251;&#36062;</text></g><g class="message" data-participant-1="&#35251;&#23458;" data-participant-2="&#35251;&#23458;"><line style="stroke:#181818;stroke-width:1;" x1="21.9999" x2="63.9999" y1="453.9219" y2="453.9219"/><line style="stroke:#181818;stroke-width:1;" x1="63.9999" x2="63.9999" y1="453.9219" y2="466.9219"/><line style="stroke:#181818;stroke-width:1;" x1="22.9999" x2="63.9999" y1="466.9219" y2="466.9219"/><polygon fill="#181818" points="32.9999,462.9219,22.9999,466.9219,32.9999,470.9219,28.9999,466.9219" style="stroke:#181818;stroke-width:1;"/><text fill="#000000" font-family="sans-serif" font-size="13" lengthAdjust="spacing" textLength="104.0001" x="28.9999" y="448.856">&#12300;&#28436;&#25216;&#12364;&#37239;&#12356;&#8230;&#12301;</text></g><g class="message" data-participant-1="&#35251;&#23458;" data-participant-2="SNS"><polygon fill="#181818" points="601.1231,492.0547,611.1231,496.0547,601.1231,500.0547,605.1231,496.0547" style="stroke:#181818;stroke-width:1;"/><line style="stroke:#181818;stroke-width:1;" x1="21.9999" x2="607.1231" y1="496.0547" y2="496.0547"/><text fill="#000000" font-family="sans-serif" font-size="13" lengthAdjust="spacing" textLength="65.0001" x="28.9999" y="490.9888">&#25209;&#21028;&#12398;&#25237;&#31295;</text></g><g class="message" data-participant-1="&#35251;&#23458;" data-participant-2="&#21046;&#20316;&#20596;"><polygon fill="#181818" points="128,521.1875,138,525.1875,128,529.1875,132,525.1875" style="stroke:#181818;stroke-width:1;"/><line style="stroke:#181818;stroke-width:1;" x1="21.9999" x2="134" y1="525.1875" y2="525.1875"/><text fill="#000000" font-family="sans-serif" font-size="13" lengthAdjust="spacing" textLength="65.0001" x="28.9999" y="520.1216">&#33510;&#24773;&#12539;&#22833;&#26395;</text></g><rect fill="#EEEEEE" height="3" style="stroke:#EEEEEE;stroke-width:1;" width="639.2461" x="0" y="553.7539"/><line style="stroke:#000000;stroke-width:1;" x1="0" x2="639.2461" y1="553.7539" y2="553.7539"/><line style="stroke:#000000;stroke-width:1;" x1="0" x2="639.2461" y1="556.7539" y2="556.7539"/><rect fill="#EEEEEE" height="23.1328" style="stroke:#000000;stroke-width:2;" width="44.5259" x="297.3601" y="543.1875"/><text fill="#000000" font-family="sans-serif" font-size="13" font-weight="bold" lengthAdjust="spacing" textLength="26" x="303.3601" y="559.2544">&#32080;&#26524;</text><g class="message" data-participant-1="&#21046;&#20316;&#20596;" data-participant-2="&#21046;&#20316;&#20596;"><line style="stroke:#181818;stroke-width:1;" x1="140" x2="182" y1="597.4531" y2="597.4531"/><line style="stroke:#181818;stroke-width:1;" x1="182" x2="182" y1="597.4531" y2="610.4531"/><line style="stroke:#181818;stroke-width:1;" x1="141" x2="182" y1="610.4531" y2="610.4531"/><polygon fill="#181818" points="151,606.4531,141,610.4531,151,614.4531,147,610.4531" style="stroke:#181818;stroke-width:1;"/><text fill="#000000" font-family="sans-serif" font-size="13" lengthAdjust="spacing" textLength="143.0002" x="147" y="592.3872">&#12300;&#12391;&#12418;&#35441;&#38988;&#12395;&#12399;&#12394;&#12387;&#12383;&#12301;</text></g><!--SRC=[PL9RJi905FsVLSm6t019NO8_h80GFqYC4j85TAQYXTBG64GJAbGWW88FH4G4OI_UphJTXLEAP8e_yt7FkUUUU-weEVNa60Dj0-s2NW9zoEmv48itra2CO3hpQmCWGw06K9Drnznf07dcKmAqWb0cgvuLSD2RiESsocSAQYwRosTELSoC3-_ROUGzMVtIcJi6dO2-1DrDOBA51C1lNR-sG4XHS6o76LrUVyAAWdPJyC7XlZXEuU1X7DvNkDO7Kk6ZDo0tGCxHFYzgtUcaC7TApBPaDq2l_d8G0glefPT0BfBZvGuX8wVehUv2TxdP85w65KTXtOmsI7G9bHZVwmzR4zPvvLNRMpNGbY6uSUo2wtsMHLKeihuPvxH1n9rOrM9h9ngq9SiZH2cOD2La9mXQXIzhlAo9uCBYJAJse_L0ioHk-YWTXLMQYsj47w9yxG_M4Yv76fWzhXT1NyJ_PsFHdzgywVm_ejGcN03f0wNn7QDVI5w0F0Bf06a9Exy0]--></g></svg>