<svg xmlns="http://www.w3.org/2000/svg" xmlns:xlink="http://www.w3.org/1999/xlink" contentStyleType="text/css" data-diagram-type="SEQUENCE" height="806px" preserveAspectRatio="none" style="width:792px;height:806px;background:#FFFFFF;" version="1.1" viewBox="0 0 792 806" width="792px" zoomAndPan="magnify"><defs/><g><rect fill="none" height="190.6016" style="stroke:#000000;stroke-width:1.5;" width="765.6037" x="10" y="416.4922"/><g><title>Viewer</title><rect fill="#000000" fill-opacity="0.00000" height="644.1953" width="8" x="42.9497" y="81.2969"/><line style="stroke:#181818;stroke-width:0.5;stroke-dasharray:5.0,5.0;" x1="46" x2="46" y1="81.2969" y2="725.4922"/></g><g><title>YouTube</title><rect fill="#000000" fill-opacity="0.00000" height="644.1953" width="8" x="183.9498" y="81.2969"/><line style="stroke:#181818;stroke-width:0.5;stroke-dasharray:5.0,5.0;" x1="187.4923" x2="187.4923" y1="81.2969" y2="725.4922"/></g><g><title>Comment Section</title><rect fill="#000000" fill-opacity="0.00000" height="644.1953" width="8" x="383.1073" y="81.2969"/><line style="stroke:#181818;stroke-width:0.5;stroke-dasharray:5.0,5.0;" x1="386.5789" x2="386.5789" y1="81.2969" y2="725.4922"/></g><g><title>Other Viewer</title><rect fill="#000000" fill-opacity="0.00000" height="644.1953" width="8" x="537.1074" y="81.2969"/><line style="stroke:#181818;stroke-width:0.5;stroke-dasharray:5.0,5.0;" x1="541.0571" x2="541.0571" y1="81.2969" y2="725.4922"/></g><g><title>Emotion</title><rect fill="#000000" fill-opacity="0.00000" height="644.1953" width="8" x="725.6706" y="81.2969"/><line style="stroke:#181818;stroke-width:0.5;stroke-dasharray:5.0,5.0;" x1="728.7375" x2="728.7375" y1="81.2969" y2="725.4922"/></g><g class="participant participant-head" data-participant="Viewer"><text fill="#000000" font-family="sans-serif" font-size="14" lengthAdjust="spacing" textLength="47.8994" x="20" y="77.9951">Viewer</text><ellipse cx="46.9497" cy="13.5" fill="#E2E2F0" rx="8" ry="8" style="stroke:#181818;stroke-width:0.5;"/><path d="M46.9497,21.5 L46.9497,48.5 M33.9497,29.5 L59.9497,29.5 M46.9497,48.5 L33.9497,63.5 M46.9497,48.5 L59.9497,63.5" fill="none" style="stroke:#181818;stroke-width:0.5;"/></g><g class="participant participant-tail" data-participant="Viewer"><text fill="#000000" font-family="sans-serif" font-size="14" lengthAdjust="spacing" textLength="47.8994" x="20" y="737.4873">Viewer</text><ellipse cx="46.9497" cy="749.2891" fill="#E2E2F0" rx="8" ry="8" style="stroke:#181818;stroke-width:0.5;"/><path d="M46.9497,757.2891 L46.9497,784.2891 M33.9497,765.2891 L59.9497,765.2891 M46.9497,784.2891 L33.9497,799.2891 M46.9497,784.2891 L59.9497,799.2891" fill="none" style="stroke:#181818;stroke-width:0.5;"/></g><g class="participant participant-head" data-participant="YouTube"><rect fill="#E2E2F0" height="30.2969" rx="2.5" ry="2.5" style="stroke:#181818;stroke-width:0.5;" width="74.915" x="150.4923" y="50"/><text fill="#000000" font-family="sans-serif" font-size="14" lengthAdjust="spacing" textLength="60.915" x="157.4923" y="69.9951">YouTube</text></g><g class="participant participant-tail" data-participant="YouTube"><rect fill="#E2E2F0" height="30.2969" rx="2.5" ry="2.5" style="stroke:#181818;stroke-width:0.5;" width="74.915" x="150.4923" y="724.4922"/><text fill="#000000" font-family="sans-serif" font-size="14" lengthAdjust="spacing" textLength="60.915" x="157.4923" y="744.4873">YouTube</text></g><g class="participant participant-head" data-participant="CS"><rect fill="#E2E2F0" height="30.2969" rx="2.5" ry="2.5" style="stroke:#181818;stroke-width:0.5;" width="139.0566" x="317.5789" y="50"/><text fill="#000000" font-family="sans-serif" font-size="14" lengthAdjust="spacing" textLength="125.0566" x="324.5789" y="69.9951">Comment Section</text></g><g class="participant participant-tail" data-participant="CS"><rect fill="#E2E2F0" height="30.2969" rx="2.5" ry="2.5" style="stroke:#181818;stroke-width:0.5;" width="139.0566" x="317.5789" y="724.4922"/><text fill="#000000" font-family="sans-serif" font-size="14" lengthAdjust="spacing" textLength="125.0566" x="324.5789" y="744.4873">Comment Section</text></g><g class="participant participant-head" data-participant="OV"><rect fill="#E2E2F0" height="30.2969" rx="2.5" ry="2.5" style="stroke:#181818;stroke-width:0.5;" width="106.1006" x="488.0571" y="50"/><text fill="#000000" font-family="sans-serif" font-size="14" lengthAdjust="spacing" textLength="92.1006" x="495.0571" y="69.9951">Other Viewer</text></g><g class="participant participant-tail" data-participant="OV"><rect fill="#E2E2F0" height="30.2969" rx="2.5" ry="2.5" style="stroke:#181818;stroke-width:0.5;" width="106.1006" x="488.0571" y="724.4922"/><text fill="#000000" font-family="sans-serif" font-size="14" lengthAdjust="spacing" textLength="92.1006" x="495.0571" y="744.4873">Other Viewer</text></g><g class="participant participant-head" data-participant="EM"><rect fill="#E2E2F0" height="30.2969" rx="2.5" ry="2.5" style="stroke:#181818;stroke-width:0.5;" width="71.8662" x="693.7375" y="50"/><text fill="#000000" font-family="sans-serif" font-size="14" lengthAdjust="spacing" textLength="57.8662" x="700.7375" y="69.9951">Emotion</text></g><g class="participant participant-tail" data-participant="EM"><rect fill="#E2E2F0" height="30.2969" rx="2.5" ry="2.5" style="stroke:#181818;stroke-width:0.5;" width="71.8662" x="693.7375" y="724.4922"/><text fill="#000000" font-family="sans-serif" font-size="14" lengthAdjust="spacing" textLength="57.8662" x="700.7375" y="744.4873">Emotion</text></g><rect fill="#EEEEEE" height="3" style="stroke:#EEEEEE;stroke-width:1;" width="785.6037" x="0" y="111.8633"/><line style="stroke:#000000;stroke-width:1;" x1="0" x2="785.6037" y1="111.8633" y2="111.8633"/><line style="stroke:#000000;stroke-width:1;" x1="0" x2="785.6037" y1="114.8633" y2="114.8633"/><rect fill="#EEEEEE" height="23.1328" style="stroke:#000000;stroke-width:2;" width="135.526" x="325.0388" y="101.2969"/><text fill="#000000" font-family="sans-serif" font-size="13" font-weight="bold" lengthAdjust="spacing" textLength="117.0001" x="331.0388" y="117.3638">&#35222;&#32884;&#32773;&#12364;&#21205;&#30011;&#12434;&#35211;&#12427;</text><g class="message" data-participant-1="Viewer" data-participant-2="YouTube"><polygon fill="#181818" points="175.9498,151.5625,185.9498,155.5625,175.9498,159.5625,179.9498,155.5625" style="stroke:#181818;stroke-width:1;"/><line style="stroke:#181818;stroke-width:1;" x1="46.9497" x2="181.9498" y1="155.5625" y2="155.5625"/><text fill="#000000" font-family="sans-serif" font-size="13" lengthAdjust="spacing" textLength="65.0001" x="53.9497" y="150.4966">&#21205;&#30011;&#12434;&#35211;&#12427;</text></g><rect fill="#EEEEEE" height="3" style="stroke:#EEEEEE;stroke-width:1;" width="785.6037" x="0" y="184.1289"/><line style="stroke:#000000;stroke-width:1;" x1="0" x2="785.6037" y1="184.1289" y2="184.1289"/><line style="stroke:#000000;stroke-width:1;" x1="0" x2="785.6037" y1="187.1289" y2="187.1289"/><rect fill="#EEEEEE" height="23.1328" style="stroke:#000000;stroke-width:2;" width="109.526" x="338.0388" y="173.5625"/><text fill="#000000" font-family="sans-serif" font-size="13" font-weight="bold" lengthAdjust="spacing" textLength="91.0001" x="344.0388" y="189.6294">&#12467;&#12513;&#12531;&#12488;&#12434;&#35501;&#12416;</text><g class="message" data-participant-1="Viewer" data-participant-2="CS"><polygon fill="#181818" points="375.1073,223.8281,385.1073,227.8281,375.1073,231.8281,379.1073,227.8281" style="stroke:#181818;stroke-width:1;"/><line style="stroke:#181818;stroke-width:1;" x1="46.9497" x2="381.1073" y1="227.8281" y2="227.8281"/><text fill="#000000" font-family="sans-serif" font-size="13" lengthAdjust="spacing" textLength="91.0001" x="53.9497" y="222.7622">&#12467;&#12513;&#12531;&#12488;&#12434;&#35501;&#12416;</text></g><g class="message" data-participant-1="CS" data-participant-2="EM"><polygon fill="#181818" points="717.6706,252.9609,727.6706,256.9609,717.6706,260.9609,721.6706,256.9609" style="stroke:#181818;stroke-width:1;"/><line style="stroke:#181818;stroke-width:1;" x1="387.1073" x2="723.6706" y1="256.9609" y2="256.9609"/><text fill="#000000" font-family="sans-serif" font-size="13" lengthAdjust="spacing" textLength="143.0002" x="394.1073" y="251.895">&#24863;&#24773;&#21453;&#24540;&#65288;&#24594;&#12426;&#12289;&#19981;&#24555;&#65289;</text></g><rect fill="#EEEEEE" height="3" style="stroke:#EEEEEE;stroke-width:1;" width="785.6037" x="0" y="285.5273"/><line style="stroke:#000000;stroke-width:1;" x1="0" x2="785.6037" y1="285.5273" y2="285.5273"/><line style="stroke:#000000;stroke-width:1;" x1="0" x2="785.6037" y1="288.5273" y2="288.5273"/><rect fill="#EEEEEE" height="23.1328" style="stroke:#000000;stroke-width:2;" width="109.526" x="338.0388" y="274.9609"/><text fill="#000000" font-family="sans-serif" font-size="13" font-weight="bold" lengthAdjust="spacing" textLength="91.0001" x="344.0388" y="291.0278">&#12473;&#12488;&#12524;&#12473;&#12364;&#22679;&#12377;</text><g class="message" data-participant-1="EM" data-participant-2="Viewer"><polygon fill="#181818" points="57.9497,325.2266,47.9497,329.2266,57.9497,333.2266,53.9497,329.2266" style="stroke:#181818;stroke-width:1;"/><line style="stroke:#181818;stroke-width:1;" x1="51.9497" x2="728.6706" y1="329.2266" y2="329.2266"/><text fill="#000000" font-family="sans-serif" font-size="13" lengthAdjust="spacing" textLength="117.0001" x="63.9497" y="324.1606">&#12452;&#12521;&#12452;&#12521;&#12539;&#12473;&#12488;&#12524;&#12473;</text></g><rect fill="#EEEEEE" height="3" style="stroke:#EEEEEE;stroke-width:1;" width="785.6037" x="0" y="357.793"/><line style="stroke:#000000;stroke-width:1;" x1="0" x2="785.6037" y1="357.793" y2="357.793"/><line style="stroke:#000000;stroke-width:1;" x1="0" x2="785.6037" y1="360.793" y2="360.793"/><rect fill="#EEEEEE" height="23.1328" style="stroke:#000000;stroke-width:2;" width="148.526" x="318.5388" y="347.2266"/><text fill="#000000" font-family="sans-serif" font-size="13" font-weight="bold" lengthAdjust="spacing" textLength="130.0002" x="324.5388" y="363.2935">&#12467;&#12513;&#12531;&#12488;&#12434;&#26360;&#12367;&#12363;&#24745;&#12416;</text><g class="message" data-participant-1="Viewer" data-participant-2="EM"><polygon fill="#181818" points="717.6706,397.4922,727.6706,401.4922,717.6706,405.4922,721.6706,401.4922" style="stroke:#181818;stroke-width:1;"/><line style="stroke:#181818;stroke-width:1;" x1="46.9497" x2="723.6706" y1="401.4922" y2="401.4922"/><text fill="#000000" font-family="sans-serif" font-size="13" lengthAdjust="spacing" textLength="86.5631" x="53.9497" y="396.4263">&#33258;&#21046; or &#34909;&#21205;&#65311;</text></g><path d="M10,416.4922 L74.4429,416.4922 L74.4429,423.625 L64.4429,433.625 L10,433.625 L10,416.4922" fill="#EEEEEE" style="stroke:#000000;stroke-width:1.5;"/><rect fill="none" height="190.6016" style="stroke:#000000;stroke-width:1.5;" width="765.6037" x="10" y="416.4922"/><text fill="#000000" font-family="sans-serif" font-size="13" font-weight="bold" lengthAdjust="spacing" textLength="19.4429" x="25" y="429.5591">alt</text><text fill="#000000" font-family="sans-serif" font-size="11" font-weight="bold" lengthAdjust="spacing" textLength="76.0542" x="89.4429" y="428.7026">[&#34909;&#21205;&#30340;&#12395;&#12394;&#12427;]</text><g class="message" data-participant-1="Viewer" data-participant-2="CS"><polygon fill="#181818" points="375.1073,450.7578,385.1073,454.7578,375.1073,458.7578,379.1073,454.7578" style="stroke:#181818;stroke-width:1;"/><line style="stroke:#181818;stroke-width:1;" x1="46.9497" x2="381.1073" y1="454.7578" y2="454.7578"/><text fill="#000000" font-family="sans-serif" font-size="13" lengthAdjust="spacing" textLength="143.0002" x="53.9497" y="449.6919">&#25915;&#25731;&#30340;&#12394;&#12467;&#12513;&#12531;&#12488;&#12434;&#26360;&#12367;</text></g><g class="message" data-participant-1="CS" data-participant-2="OV"><polygon fill="#181818" points="529.1074,479.8906,539.1074,483.8906,529.1074,487.8906,533.1074,483.8906" style="stroke:#181818;stroke-width:1;"/><line style="stroke:#181818;stroke-width:1;" x1="387.1073" x2="535.1074" y1="483.8906" y2="483.8906"/><text fill="#000000" font-family="sans-serif" font-size="13" lengthAdjust="spacing" textLength="130.0002" x="394.1073" y="478.8247">&#12467;&#12513;&#12531;&#12488;&#12364;&#34920;&#31034;&#12373;&#12428;&#12427;</text></g><g class="message" data-participant-1="OV" data-participant-2="EM"><polygon fill="#181818" points="717.6706,509.0234,727.6706,513.0234,717.6706,517.0234,721.6706,513.0234" style="stroke:#181818;stroke-width:1;"/><line style="stroke:#181818;stroke-width:1;" x1="541.1074" x2="723.6706" y1="513.0234" y2="513.0234"/><text fill="#000000" font-family="sans-serif" font-size="13" lengthAdjust="spacing" textLength="91.0001" x="548.1074" y="507.9575">&#26032;&#12383;&#12394;&#24863;&#24773;&#21453;&#24540;</text></g><g class="message" data-participant-1="EM" data-participant-2="OV"><polygon fill="#181818" points="552.1074,538.1563,542.1074,542.1563,552.1074,546.1563,548.1074,542.1563" style="stroke:#181818;stroke-width:1;"/><line style="stroke:#181818;stroke-width:1;" x1="546.1074" x2="728.6706" y1="542.1563" y2="542.1563"/><text fill="#000000" font-family="sans-serif" font-size="13" lengthAdjust="spacing" textLength="164.5632" x="558.1074" y="537.0903">&#25915;&#25731;&#30340;&#12394;&#36820;&#20449; or &#12373;&#12425;&#12395;&#28814;&#19978;</text></g><line style="stroke:#000000;stroke-width:1;stroke-dasharray:2.0,2.0;" x1="10" x2="775.6037" y1="551.1563" y2="551.1563"/><text fill="#000000" font-family="sans-serif" font-size="11" font-weight="bold" lengthAdjust="spacing" textLength="54.0544" x="15" y="561.3667">[&#33258;&#21046;&#12377;&#12427;]</text><g class="message" data-participant-1="Viewer" data-participant-2="Viewer"><line style="stroke:#181818;stroke-width:1;" x1="46.9497" x2="88.9497" y1="586.0938" y2="586.0938"/><line style="stroke:#181818;stroke-width:1;" x1="88.9497" x2="88.9497" y1="586.0938" y2="599.0938"/><line style="stroke:#181818;stroke-width:1;" x1="47.9497" x2="88.9497" y1="599.0938" y2="599.0938"/><polygon fill="#181818" points="57.9497,595.0938,47.9497,599.0938,57.9497,603.0938,53.9497,599.0938" style="stroke:#181818;stroke-width:1;"/><text fill="#000000" font-family="sans-serif" font-size="13" lengthAdjust="spacing" textLength="117.0001" x="53.9497" y="581.0278">&#12467;&#12513;&#12531;&#12488;&#12434;&#26360;&#12363;&#12394;&#12356;</text></g><rect fill="#EEEEEE" height="3" style="stroke:#EEEEEE;stroke-width:1;" width="785.6037" x="0" y="634.6602"/><line style="stroke:#000000;stroke-width:1;" x1="0" x2="785.6037" y1="634.6602" y2="634.6602"/><line style="stroke:#000000;stroke-width:1;" x1="0" x2="785.6037" y1="637.6602" y2="637.6602"/><rect fill="#EEEEEE" height="23.1328" style="stroke:#000000;stroke-width:2;" width="135.526" x="325.0388" y="624.0938"/><text fill="#000000" font-family="sans-serif" font-size="13" font-weight="bold" lengthAdjust="spacing" textLength="117.0001" x="331.0388" y="640.1606">&#12450;&#12523;&#12468;&#12522;&#12474;&#12512;&#12364;&#21453;&#24540;</text><g class="message" data-participant-1="CS" data-participant-2="YouTube"><polygon fill="#181818" points="198.9498,674.3594,188.9498,678.3594,198.9498,682.3594,194.9498,678.3594" style="stroke:#181818;stroke-width:1;"/><line style="stroke:#181818;stroke-width:1;" x1="192.9498" x2="386.1073" y1="678.3594" y2="678.3594"/><text fill="#000000" font-family="sans-serif" font-size="13" lengthAdjust="spacing" textLength="175.1574" x="204.9498" y="673.2935">&#12467;&#12513;&#12531;&#12488;&#27963;&#30330; &#8594; &#12362;&#12377;&#12377;&#12417;&#24375;&#21270;</text></g><g class="message" data-participant-1="YouTube" data-participant-2="Viewer"><polygon fill="#181818" points="57.9497,703.4922,47.9497,707.4922,57.9497,711.4922,53.9497,707.4922" style="stroke:#181818;stroke-width:1;"/><line style="stroke:#181818;stroke-width:1;" x1="51.9497" x2="186.9498" y1="707.4922" y2="707.4922"/><text fill="#000000" font-family="sans-serif" font-size="13" lengthAdjust="spacing" textLength="117.0001" x="63.9497" y="702.4263">&#39006;&#20284;&#21205;&#30011;&#12434;&#12362;&#12377;&#12377;&#12417;</text></g><!--SRC=[RLBBRXen5DtxAwpi-mEHo0QnZ5WG8MKvePQA59Y8J9GjjabB6Df8Y13bIIP2KGAj5AcefJ0I_zBBFBhY5tfj1Z8ylB3yEFVSSuvjv2opHBDvTifAvCWeMVbS_iWeMdJVFDaxEM1BPrj9ir1WkCYmd9KtYrlKEAR9p38cRNrYSqODI6UN0Qc2kIXExHAIID3mkHNoVbW-0rxtxCkWEGBH29zj43PD9CYCZ7xOcQkYstG5fcb0_0JfWCIvgcwwFq2KbmcI6QpTY2DuXO3KBWByIjkNPzx5LszyDtMhVha1eWPbFXdWIM_gdaVj_YW2-LqjKFZJ5V1hrGuva2bggjfrGBv6inp5opR9zcy7m2-0sxvuNTElvOLVkbxr5yM72vrx36BgjWan3gre6znKWFU0TrKk5CUAVRyvyXjIexeRU-kYMHpfx6fUl1uwBq5d2FmIH7tU0d6By5flmDl87KzHWsQvQCguXd3Sd8mTPKTpdgFuG7oR36g47Hwpo2r6ksud5l6w3LlPunN2YX-Zc9z0za3qGQBj8SX7zMXQdSfuvlVzWyKf_Vuek1xIlvyRAB6cf2Wrt7D_U_KMcTV41Vrp7YQkk_YayQh_]--></g></svg>