<svg xmlns="http://www.w3.org/2000/svg" xmlns:xlink="http://www.w3.org/1999/xlink" contentStyleType="text/css" data-diagram-type="CLASS" height="777px" preserveAspectRatio="none" style="width:1409px;height:777px;background:#FFFFFF;" version="1.1" viewBox="0 0 1409 777" width="1409px" zoomAndPan="magnify"><defs/><g><!--cluster ??PC??--><g class="cluster" data-entity="&#20013;&#21476;PC&#36009;&#22770;" data-source-line="1" data-uid="ent0002" id="cluster_&#20013;&#21476;PC&#36009;&#22770;"><path d="M440.5,6 L518.0349,6 A3.75,3.75 0 0 1 520.5349,8.5 L527.5349,28.2969 L681.5,28.2969 A2.5,2.5 0 0 1 684,30.7969 L684,476.17 A2.5,2.5 0 0 1 681.5,478.67 L440.5,478.67 A2.5,2.5 0 0 1 438,476.17 L438,8.5 A2.5,2.5 0 0 1 440.5,6" fill="none" style="stroke:#000000;stroke-width:1.5;"/><line style="stroke:#000000;stroke-width:1.5;" x1="438" x2="527.5349" y1="28.2969" y2="28.2969"/><text fill="#000000" font-family="sans-serif" font-size="14" font-weight="bold" lengthAdjust="spacing" textLength="76.5349" x="442" y="20.9951">&#20013;&#21476;PC&#36009;&#22770;</text></g><!--cluster ???????--><g class="cluster" data-entity="&#12522;&#12473;&#12463;&#12539;&#21839;&#38988;&#28857;" data-source-line="18" data-uid="ent0006" id="cluster_&#12522;&#12473;&#12463;&#12539;&#21839;&#38988;&#28857;"><path d="M8.5,511.67 L107.4996,511.67 A3.75,3.75 0 0 1 109.9996,514.17 L116.9996,533.9669 L1090.5,533.9669 A2.5,2.5 0 0 1 1093,536.4669 L1093,657.06 A2.5,2.5 0 0 1 1090.5,659.56 L8.5,659.56 A2.5,2.5 0 0 1 6,657.06 L6,514.17 A2.5,2.5 0 0 1 8.5,511.67" fill="none" style="stroke:#000000;stroke-width:1.5;"/><line style="stroke:#000000;stroke-width:1.5;" x1="6" x2="116.9996" y1="533.9669" y2="533.9669"/><text fill="#000000" font-family="sans-serif" font-size="14" font-weight="bold" lengthAdjust="spacing" textLength="97.9996" x="10" y="526.6651">&#12522;&#12473;&#12463;&#12539;&#21839;&#38988;&#28857;</text></g><!--cluster Microsoft???--><g class="cluster" data-entity="Microsoft&#12398;&#23550;&#24540;" data-source-line="31" data-uid="ent0013" id="cluster_Microsoft&#12398;&#23550;&#24540;"><path d="M1119.5,363.37 L1236.7859,363.37 A3.75,3.75 0 0 1 1239.2859,365.87 L1246.2859,385.6669 L1399.5,385.6669 A2.5,2.5 0 0 1 1402,388.1669 L1402,768.06 A2.5,2.5 0 0 1 1399.5,770.56 L1119.5,770.56 A2.5,2.5 0 0 1 1117,768.06 L1117,365.87 A2.5,2.5 0 0 1 1119.5,363.37" fill="none" style="stroke:#000000;stroke-width:1.5;"/><line style="stroke:#000000;stroke-width:1.5;" x1="1117" x2="1246.2859" y1="385.6669" y2="385.6669"/><text fill="#000000" font-family="sans-serif" font-size="14" font-weight="bold" lengthAdjust="spacing" textLength="116.2859" x="1121" y="378.3651">Microsoft&#12398;&#23550;&#24540;</text></g><!--class ???CPU\n??PC--><g class="entity" data-entity="&#38750;&#23550;&#24540;CPU\n&#25645;&#36617;PC" data-source-line="2" data-uid="ent0003" id="entity_&#38750;&#23550;&#24540;CPU\n&#25645;&#36617;PC"><rect fill="#F1F1F1" height="91.1875" rx="2.5" ry="2.5" style="stroke:#181818;stroke-width:0.5;" width="184.5386" x="479.73" y="41"/><ellipse cx="532.517" cy="62.2969" fill="#ADD1B2" rx="11" ry="11" style="stroke:#181818;stroke-width:1;"/><path d="M535.4857,67.9375 Q534.9076,68.2344 534.267,68.375 Q533.6263,68.5313 532.9232,68.5313 Q530.4232,68.5313 529.0951,66.8906 Q527.7826,65.2344 527.7826,62.1094 Q527.7826,58.9844 529.0951,57.3281 Q530.4232,55.6719 532.9232,55.6719 Q533.6263,55.6719 534.267,55.8281 Q534.9232,55.9844 535.4857,56.2813 L535.4857,59 Q534.8607,58.4219 534.267,58.1563 Q533.6732,57.875 533.0482,57.875 Q531.7045,57.875 531.017,58.9531 Q530.3295,60.0156 530.3295,62.1094 Q530.3295,64.2031 531.017,65.2813 Q531.7045,66.3438 533.0482,66.3438 Q533.6732,66.3438 534.267,66.0781 Q534.8607,65.7969 535.4857,65.2188 L535.4857,67.9375 Z " fill="#000000"/><text fill="#000000" font-family="sans-serif" font-size="14" lengthAdjust="spacing" textLength="70.4647" x="553.017" y="58.9951">&#38750;&#23550;&#24540;CPU</text><text fill="#000000" font-family="sans-serif" font-size="14" lengthAdjust="spacing" textLength="46.2177" x="565.1405" y="75.292">&#25645;&#36617;PC</text><line style="stroke:#181818;stroke-width:0.5;" x1="480.73" x2="663.2686" y1="83.5938" y2="83.5938"/><rect fill="none" height="6" style="stroke:#C82930;stroke-width:1;" width="6" x="487.73" y="94.2422"/><text fill="#000000" font-family="sans-serif" font-size="14" lengthAdjust="spacing" textLength="88.2382" x="499.73" y="100.5889">TPM 2.0 &#28961;&#12375;</text><rect fill="none" height="6" style="stroke:#C82930;stroke-width:1;" width="6" x="487.73" y="110.5391"/><text fill="#000000" font-family="sans-serif" font-size="14" lengthAdjust="spacing" textLength="158.5386" x="499.73" y="116.8857">&#21476;&#12356;CPU&#65288;&#20363;: &#31532;6&#19990;&#20195;&#65289;</text><line style="stroke:#181818;stroke-width:0.5;" x1="480.73" x2="663.2686" y1="124.1875" y2="124.1875"/></g><!--class Windows 11\n???????--><g class="entity" data-entity="Windows 11\n&#12452;&#12531;&#12473;&#12488;&#12540;&#12523;&#28168;" data-source-line="7" data-uid="ent0004" id="entity_Windows 11\n&#12452;&#12531;&#12473;&#12488;&#12540;&#12523;&#28168;"><rect fill="#F1F1F1" height="91.1875" rx="2.5" ry="2.5" style="stroke:#181818;stroke-width:0.5;" width="151.9995" x="496" y="209.18"/><ellipse cx="520.8999" cy="230.4769" fill="#ADD1B2" rx="11" ry="11" style="stroke:#181818;stroke-width:1;"/><path d="M523.8687,236.1175 Q523.2906,236.4144 522.6499,236.555 Q522.0093,236.7112 521.3062,236.7112 Q518.8062,236.7112 517.4781,235.0706 Q516.1656,233.4144 516.1656,230.2894 Q516.1656,227.1644 517.4781,225.5081 Q518.8062,223.8519 521.3062,223.8519 Q522.0093,223.8519 522.6499,224.0081 Q523.3062,224.1644 523.8687,224.4612 L523.8687,227.18 Q523.2437,226.6019 522.6499,226.3362 Q522.0562,226.055 521.4312,226.055 Q520.0874,226.055 519.3999,227.1331 Q518.7124,228.1956 518.7124,230.2894 Q518.7124,232.3831 519.3999,233.4612 Q520.0874,234.5237 521.4312,234.5237 Q522.0562,234.5237 522.6499,234.2581 Q523.2437,233.9769 523.8687,233.3987 L523.8687,236.1175 Z " fill="#000000"/><text fill="#000000" font-family="sans-serif" font-size="14" lengthAdjust="spacing" textLength="85.0664" x="543.5665" y="227.1751">Windows 11</text><text fill="#000000" font-family="sans-serif" font-size="14" lengthAdjust="spacing" textLength="97.9996" x="537.0999" y="243.472">&#12452;&#12531;&#12473;&#12488;&#12540;&#12523;&#28168;</text><line style="stroke:#181818;stroke-width:0.5;" x1="497" x2="646.9995" y1="251.7737" y2="251.7737"/><ellipse cx="507" cy="265.4222" fill="none" rx="3" ry="3" style="stroke:#038048;stroke-width:1;"/><text fill="#000000" font-family="sans-serif" font-size="14" lengthAdjust="spacing" textLength="125.9995" x="516" y="268.7689">&#38750;&#20844;&#24335;&#12452;&#12531;&#12473;&#12488;&#12540;&#12523;</text><ellipse cx="507" cy="281.7191" fill="none" rx="3" ry="3" style="stroke:#038048;stroke-width:1;"/><text fill="#000000" font-family="sans-serif" font-size="14" lengthAdjust="spacing" textLength="97.9996" x="516" y="285.0657">&#12524;&#12472;&#12473;&#12488;&#12522;&#25913;&#22793;</text><line style="stroke:#181818;stroke-width:0.5;" x1="497" x2="646.9995" y1="292.3675" y2="292.3675"/></g><!--class ??????--><g class="entity" data-entity="&#36009;&#22770;&#24215;&#12398;&#34920;&#31034;" data-source-line="12" data-uid="ent0005" id="entity_&#36009;&#22770;&#24215;&#12398;&#34920;&#31034;"><rect fill="#F1F1F1" height="80.5938" rx="2.5" ry="2.5" style="stroke:#181818;stroke-width:0.5;" width="213.5162" x="454.24" y="382.08"/><ellipse cx="514.7483" cy="398.08" fill="#ADD1B2" rx="11" ry="11" style="stroke:#181818;stroke-width:1;"/><path d="M517.717,403.7206 Q517.1389,404.0175 516.4983,404.1581 Q515.8576,404.3144 515.1545,404.3144 Q512.6545,404.3144 511.3264,402.6737 Q510.0139,401.0175 510.0139,397.8925 Q510.0139,394.7675 511.3264,393.1112 Q512.6545,391.455 515.1545,391.455 Q515.8576,391.455 516.4983,391.6112 Q517.1545,391.7675 517.717,392.0644 L517.717,394.7831 Q517.092,394.205 516.4983,393.9394 Q515.9045,393.6581 515.2795,393.6581 Q513.9358,393.6581 513.2483,394.7362 Q512.5608,395.7987 512.5608,397.8925 Q512.5608,399.9862 513.2483,401.0644 Q513.9358,402.1269 515.2795,402.1269 Q515.9045,402.1269 516.4983,401.8612 Q517.092,401.58 517.717,401.0019 L517.717,403.7206 Z " fill="#000000"/><text fill="#000000" font-family="sans-serif" font-size="14" lengthAdjust="spacing" textLength="83.9996" x="535.2483" y="402.9267">&#36009;&#22770;&#24215;&#12398;&#34920;&#31034;</text><line style="stroke:#181818;stroke-width:0.5;" x1="455.24" x2="666.7562" y1="414.08" y2="414.08"/><ellipse cx="465.24" cy="427.7284" fill="none" rx="3" ry="3" style="stroke:#038048;stroke-width:1;"/><text fill="#000000" font-family="sans-serif" font-size="14" lengthAdjust="spacing" textLength="187.5162" x="474.24" y="431.0751">&#12300;Windows 11 &#25645;&#36617;&#12301;&#12392;&#34920;&#35352;</text><ellipse cx="465.24" cy="444.0253" fill="none" rx="3" ry="3" style="stroke:#038048;stroke-width:1;"/><text fill="#000000" font-family="sans-serif" font-size="14" lengthAdjust="spacing" textLength="97.9996" x="474.24" y="447.372">&#21205;&#20316;&#20445;&#35388;&#12394;&#12375;&#65311;</text><line style="stroke:#181818;stroke-width:0.5;" x1="455.24" x2="666.7562" y1="454.6737" y2="454.6737"/></g><!--class ???????--><g class="entity" data-entity="&#12469;&#12509;&#12540;&#12488;&#23550;&#35937;&#22806;" data-source-line="19" data-uid="ent0007" id="entity_&#12469;&#12509;&#12540;&#12488;&#23550;&#35937;&#22806;"><rect fill="#F1F1F1" height="48" rx="2.5" ry="2.5" style="stroke:#181818;stroke-width:0.5;" width="129.9996" x="22" y="571.11"/><ellipse cx="37" cy="587.11" fill="#ADD1B2" rx="11" ry="11" style="stroke:#181818;stroke-width:1;"/><path d="M39.9688,592.7506 Q39.3906,593.0475 38.75,593.1881 Q38.1094,593.3444 37.4063,593.3444 Q34.9063,593.3444 33.5781,591.7037 Q32.2656,590.0475 32.2656,586.9225 Q32.2656,583.7975 33.5781,582.1412 Q34.9063,580.485 37.4063,580.485 Q38.1094,580.485 38.75,580.6412 Q39.4063,580.7975 39.9688,581.0944 L39.9688,583.8131 Q39.3438,583.235 38.75,582.9694 Q38.1563,582.6881 37.5313,582.6881 Q36.1875,582.6881 35.5,583.7662 Q34.8125,584.8287 34.8125,586.9225 Q34.8125,589.0162 35.5,590.0944 Q36.1875,591.1569 37.5313,591.1569 Q38.1563,591.1569 38.75,590.8912 Q39.3438,590.61 39.9688,590.0319 L39.9688,592.7506 Z " fill="#000000"/><text fill="#000000" font-family="sans-serif" font-size="14" lengthAdjust="spacing" textLength="97.9996" x="51" y="591.9567">&#12469;&#12509;&#12540;&#12488;&#23550;&#35937;&#22806;</text><line style="stroke:#181818;stroke-width:0.5;" x1="23" x2="150.9996" y1="603.11" y2="603.11"/><line style="stroke:#181818;stroke-width:0.5;" x1="23" x2="150.9996" y1="611.11" y2="611.11"/></g><!--class ?????--><g class="entity" data-entity="&#21205;&#20316;&#19981;&#23433;&#23450;" data-source-line="20" data-uid="ent0008" id="entity_&#21205;&#20316;&#19981;&#23433;&#23450;"><rect fill="#F1F1F1" height="48" rx="2.5" ry="2.5" style="stroke:#181818;stroke-width:0.5;" width="101.9997" x="187" y="571.11"/><ellipse cx="202" cy="587.11" fill="#ADD1B2" rx="11" ry="11" style="stroke:#181818;stroke-width:1;"/><path d="M204.9688,592.7506 Q204.3906,593.0475 203.75,593.1881 Q203.1094,593.3444 202.4063,593.3444 Q199.9063,593.3444 198.5781,591.7037 Q197.2656,590.0475 197.2656,586.9225 Q197.2656,583.7975 198.5781,582.1412 Q199.9063,580.485 202.4063,580.485 Q203.1094,580.485 203.75,580.6412 Q204.4063,580.7975 204.9688,581.0944 L204.9688,583.8131 Q204.3438,583.235 203.75,582.9694 Q203.1563,582.6881 202.5313,582.6881 Q201.1875,582.6881 200.5,583.7662 Q199.8125,584.8287 199.8125,586.9225 Q199.8125,589.0162 200.5,590.0944 Q201.1875,591.1569 202.5313,591.1569 Q203.1563,591.1569 203.75,590.8912 Q204.3438,590.61 204.9688,590.0319 L204.9688,592.7506 Z " fill="#000000"/><text fill="#000000" font-family="sans-serif" font-size="14" lengthAdjust="spacing" textLength="69.9997" x="216" y="591.9567">&#21205;&#20316;&#19981;&#23433;&#23450;</text><line style="stroke:#181818;stroke-width:0.5;" x1="188" x2="287.9997" y1="603.11" y2="603.11"/><line style="stroke:#181818;stroke-width:0.5;" x1="188" x2="287.9997" y1="611.11" y2="611.11"/></g><!--class ?????????--><g class="entity" data-entity="&#27861;&#30340;&#12539;&#34920;&#31034;&#19978;&#12398;&#21839;&#38988;" data-source-line="21" data-uid="ent0009" id="entity_&#27861;&#30340;&#12539;&#34920;&#31034;&#19978;&#12398;&#21839;&#38988;"><rect fill="#F1F1F1" height="48" rx="2.5" ry="2.5" style="stroke:#181818;stroke-width:0.5;" width="157.9995" x="324" y="571.11"/><ellipse cx="339" cy="587.11" fill="#ADD1B2" rx="11" ry="11" style="stroke:#181818;stroke-width:1;"/><path d="M341.9688,592.7506 Q341.3906,593.0475 340.75,593.1881 Q340.1094,593.3444 339.4063,593.3444 Q336.9063,593.3444 335.5781,591.7037 Q334.2656,590.0475 334.2656,586.9225 Q334.2656,583.7975 335.5781,582.1412 Q336.9063,580.485 339.4063,580.485 Q340.1094,580.485 340.75,580.6412 Q341.4063,580.7975 341.9688,581.0944 L341.9688,583.8131 Q341.3438,583.235 340.75,582.9694 Q340.1563,582.6881 339.5313,582.6881 Q338.1875,582.6881 337.5,583.7662 Q336.8125,584.8287 336.8125,586.9225 Q336.8125,589.0162 337.5,590.0944 Q338.1875,591.1569 339.5313,591.1569 Q340.1563,591.1569 340.75,590.8912 Q341.3438,590.61 341.9688,590.0319 L341.9688,592.7506 Z " fill="#000000"/><text fill="#000000" font-family="sans-serif" font-size="14" lengthAdjust="spacing" textLength="125.9995" x="353" y="591.9567">&#27861;&#30340;&#12539;&#34920;&#31034;&#19978;&#12398;&#21839;&#38988;</text><line style="stroke:#181818;stroke-width:0.5;" x1="325" x2="480.9995" y1="603.11" y2="603.11"/><line style="stroke:#181818;stroke-width:0.5;" x1="325" x2="480.9995" y1="611.11" y2="611.11"/></g><!--class ????--><g class="entity" data-entity="&#27231;&#33021;&#21046;&#38480;" data-source-line="22" data-uid="ent0010" id="entity_&#27231;&#33021;&#21046;&#38480;"><rect fill="#F1F1F1" height="48" rx="2.5" ry="2.5" style="stroke:#181818;stroke-width:0.5;" width="87.9998" x="517" y="571.11"/><ellipse cx="532" cy="587.11" fill="#ADD1B2" rx="11" ry="11" style="stroke:#181818;stroke-width:1;"/><path d="M534.9688,592.7506 Q534.3906,593.0475 533.75,593.1881 Q533.1094,593.3444 532.4063,593.3444 Q529.9063,593.3444 528.5781,591.7037 Q527.2656,590.0475 527.2656,586.9225 Q527.2656,583.7975 528.5781,582.1412 Q529.9063,580.485 532.4063,580.485 Q533.1094,580.485 533.75,580.6412 Q534.4063,580.7975 534.9688,581.0944 L534.9688,583.8131 Q534.3438,583.235 533.75,582.9694 Q533.1563,582.6881 532.5313,582.6881 Q531.1875,582.6881 530.5,583.7662 Q529.8125,584.8287 529.8125,586.9225 Q529.8125,589.0162 530.5,590.0944 Q531.1875,591.1569 532.5313,591.1569 Q533.1563,591.1569 533.75,590.8912 Q534.3438,590.61 534.9688,590.0319 L534.9688,592.7506 Z " fill="#000000"/><text fill="#000000" font-family="sans-serif" font-size="14" lengthAdjust="spacing" textLength="55.9998" x="546" y="591.9567">&#27231;&#33021;&#21046;&#38480;</text><line style="stroke:#181818;stroke-width:0.5;" x1="518" x2="603.9998" y1="603.11" y2="603.11"/><line style="stroke:#181818;stroke-width:0.5;" x1="518" x2="603.9998" y1="611.11" y2="611.11"/></g><!--class Microsoft???????--><g class="entity" data-entity="Microsoft&#12450;&#12459;&#12454;&#12531;&#12488;&#24517;&#38920;" data-source-line="23" data-uid="ent0011" id="entity_Microsoft&#12450;&#12459;&#12454;&#12531;&#12488;&#24517;&#38920;"><rect fill="#F1F1F1" height="48" rx="2.5" ry="2.5" style="stroke:#181818;stroke-width:0.5;" width="194.2642" x="639.87" y="571.11"/><ellipse cx="654.87" cy="587.11" fill="#ADD1B2" rx="11" ry="11" style="stroke:#181818;stroke-width:1;"/><path d="M657.8388,592.7506 Q657.2606,593.0475 656.62,593.1881 Q655.9794,593.3444 655.2763,593.3444 Q652.7763,593.3444 651.4481,591.7037 Q650.1356,590.0475 650.1356,586.9225 Q650.1356,583.7975 651.4481,582.1412 Q652.7763,580.485 655.2763,580.485 Q655.9794,580.485 656.62,580.6412 Q657.2763,580.7975 657.8388,581.0944 L657.8388,583.8131 Q657.2138,583.235 656.62,582.9694 Q656.0263,582.6881 655.4013,582.6881 Q654.0575,582.6881 653.37,583.7662 Q652.6825,584.8287 652.6825,586.9225 Q652.6825,589.0162 653.37,590.0944 Q654.0575,591.1569 655.4013,591.1569 Q656.0263,591.1569 656.62,590.8912 Q657.2138,590.61 657.8388,590.0319 L657.8388,592.7506 Z " fill="#000000"/><text fill="#000000" font-family="sans-serif" font-size="14" lengthAdjust="spacing" textLength="162.2642" x="668.87" y="591.9567">Microsoft&#12450;&#12459;&#12454;&#12531;&#12488;&#24517;&#38920;</text><line style="stroke:#181818;stroke-width:0.5;" x1="640.87" x2="833.1342" y1="603.11" y2="603.11"/><line style="stroke:#181818;stroke-width:0.5;" x1="640.87" x2="833.1342" y1="611.11" y2="611.11"/></g><!--class Linux???--><g class="entity" data-entity="Linux&#12408;&#31227;&#34892;" data-source-line="24" data-uid="ent0012" id="entity_Linux&#12408;&#31227;&#34892;"><rect fill="#F1F1F1" height="96.8906" rx="2.5" ry="2.5" style="stroke:#181818;stroke-width:0.5;" width="207.9992" x="869" y="546.67"/><ellipse cx="928.8893" cy="562.67" fill="#ADD1B2" rx="11" ry="11" style="stroke:#181818;stroke-width:1;"/><path d="M931.8581,568.3106 Q931.28,568.6075 930.6393,568.7481 Q929.9987,568.9044 929.2956,568.9044 Q926.7956,568.9044 925.4675,567.2638 Q924.155,565.6075 924.155,562.4825 Q924.155,559.3575 925.4675,557.7013 Q926.7956,556.045 929.2956,556.045 Q929.9987,556.045 930.6393,556.2013 Q931.2956,556.3575 931.8581,556.6544 L931.8581,559.3731 Q931.2331,558.795 930.6393,558.5294 Q930.0456,558.2481 929.4206,558.2481 Q928.0768,558.2481 927.3893,559.3263 Q926.7018,560.3888 926.7018,562.4825 Q926.7018,564.5763 927.3893,565.6544 Q928.0768,566.7169 929.4206,566.7169 Q930.0456,566.7169 930.6393,566.4513 Q931.2331,566.17 931.8581,565.5919 L931.8581,568.3106 Z " fill="#000000"/><text fill="#000000" font-family="sans-serif" font-size="14" lengthAdjust="spacing" textLength="79.7205" x="949.3893" y="567.5167">Linux&#12408;&#31227;&#34892;</text><line style="stroke:#181818;stroke-width:0.5;" x1="870" x2="1075.9992" y1="578.67" y2="578.67"/><rect fill="none" height="6" style="stroke:#C82930;stroke-width:1;" width="6" x="877" y="589.3184"/><text fill="#000000" font-family="sans-serif" font-size="14" lengthAdjust="spacing" textLength="181.9992" x="889" y="595.6651">&#36605;&#37327;&#12487;&#12451;&#12473;&#12488;&#12522;&#12499;&#12517;&#12540;&#12471;&#12519;&#12531;</text><rect fill="none" height="6" style="stroke:#C82930;stroke-width:1;" width="6" x="877" y="605.6153"/><text fill="#000000" font-family="sans-serif" font-size="14" lengthAdjust="spacing" textLength="97.9996" x="889" y="611.962">&#12458;&#12501;&#12521;&#12452;&#12531;&#23550;&#24540;</text><rect fill="none" height="6" style="stroke:#C82930;stroke-width:1;" width="6" x="877" y="621.9122"/><text fill="#000000" font-family="sans-serif" font-size="14" lengthAdjust="spacing" textLength="102.2174" x="889" y="628.2589">&#20877;&#21033;&#29992;&#21487;&#33021;&#12394;PC</text><line style="stroke:#181818;stroke-width:0.5;" x1="870" x2="1075.9992" y1="635.5606" y2="635.5606"/></g><!--class ???????--><g class="entity" data-entity="&#33258;&#24049;&#36012;&#20219;&#12391;&#35377;&#23481;" data-source-line="32" data-uid="ent0014" id="entity_&#33258;&#24049;&#36012;&#20219;&#12391;&#35377;&#23481;"><rect fill="#F1F1F1" height="48" rx="2.5" ry="2.5" style="stroke:#181818;stroke-width:0.5;" width="129.9996" x="1133" y="398.37"/><ellipse cx="1148" cy="414.37" fill="#ADD1B2" rx="11" ry="11" style="stroke:#181818;stroke-width:1;"/><path d="M1150.9688,420.0106 Q1150.3906,420.3075 1149.75,420.4481 Q1149.1094,420.6044 1148.4063,420.6044 Q1145.9063,420.6044 1144.5781,418.9637 Q1143.2656,417.3075 1143.2656,414.1825 Q1143.2656,411.0575 1144.5781,409.4012 Q1145.9063,407.745 1148.4063,407.745 Q1149.1094,407.745 1149.75,407.9012 Q1150.4063,408.0575 1150.9688,408.3544 L1150.9688,411.0731 Q1150.3438,410.495 1149.75,410.2294 Q1149.1563,409.9481 1148.5313,409.9481 Q1147.1875,409.9481 1146.5,411.0262 Q1145.8125,412.0887 1145.8125,414.1825 Q1145.8125,416.2762 1146.5,417.3544 Q1147.1875,418.4169 1148.5313,418.4169 Q1149.1563,418.4169 1149.75,418.1512 Q1150.3438,417.87 1150.9688,417.2919 L1150.9688,420.0106 Z " fill="#000000"/><text fill="#000000" font-family="sans-serif" font-size="14" lengthAdjust="spacing" textLength="97.9996" x="1162" y="419.2167">&#33258;&#24049;&#36012;&#20219;&#12391;&#35377;&#23481;</text><line style="stroke:#181818;stroke-width:0.5;" x1="1134" x2="1261.9996" y1="430.37" y2="430.37"/><line style="stroke:#181818;stroke-width:0.5;" x1="1134" x2="1261.9996" y1="438.37" y2="438.37"/></g><!--class ??????--><g class="entity" data-entity="&#26356;&#26032;&#20445;&#35388;&#12394;&#12375;" data-source-line="33" data-uid="ent0015" id="entity_&#26356;&#26032;&#20445;&#35388;&#12394;&#12375;"><rect fill="#F1F1F1" height="48" rx="2.5" ry="2.5" style="stroke:#181818;stroke-width:0.5;" width="115.9996" x="1133" y="571.11"/><ellipse cx="1148" cy="587.11" fill="#ADD1B2" rx="11" ry="11" style="stroke:#181818;stroke-width:1;"/><path d="M1150.9688,592.7506 Q1150.3906,593.0475 1149.75,593.1881 Q1149.1094,593.3444 1148.4063,593.3444 Q1145.9063,593.3444 1144.5781,591.7037 Q1143.2656,590.0475 1143.2656,586.9225 Q1143.2656,583.7975 1144.5781,582.1412 Q1145.9063,580.485 1148.4063,580.485 Q1149.1094,580.485 1149.75,580.6412 Q1150.4063,580.7975 1150.9688,581.0944 L1150.9688,583.8131 Q1150.3438,583.235 1149.75,582.9694 Q1149.1563,582.6881 1148.5313,582.6881 Q1147.1875,582.6881 1146.5,583.7662 Q1145.8125,584.8287 1145.8125,586.9225 Q1145.8125,589.0162 1146.5,590.0944 Q1147.1875,591.1569 1148.5313,591.1569 Q1149.1563,591.1569 1149.75,590.8912 Q1150.3438,590.61 1150.9688,590.0319 L1150.9688,592.7506 Z " fill="#000000"/><text fill="#000000" font-family="sans-serif" font-size="14" lengthAdjust="spacing" textLength="83.9996" x="1162" y="591.9567">&#26356;&#26032;&#20445;&#35388;&#12394;&#12375;</text><line style="stroke:#181818;stroke-width:0.5;" x1="1134" x2="1247.9996" y1="603.11" y2="603.11"/><line style="stroke:#181818;stroke-width:0.5;" x1="1134" x2="1247.9996" y1="611.11" y2="611.11"/></g><!--class ?????--><g class="entity" data-entity="&#26032;&#27231;&#33021;&#21046;&#38480;" data-source-line="34" data-uid="ent0016" id="entity_&#26032;&#27231;&#33021;&#21046;&#38480;"><rect fill="#F1F1F1" height="48" rx="2.5" ry="2.5" style="stroke:#181818;stroke-width:0.5;" width="101.9997" x="1284" y="571.11"/><ellipse cx="1299" cy="587.11" fill="#ADD1B2" rx="11" ry="11" style="stroke:#181818;stroke-width:1;"/><path d="M1301.9688,592.7506 Q1301.3906,593.0475 1300.75,593.1881 Q1300.1094,593.3444 1299.4063,593.3444 Q1296.9063,593.3444 1295.5781,591.7037 Q1294.2656,590.0475 1294.2656,586.9225 Q1294.2656,583.7975 1295.5781,582.1412 Q1296.9063,580.485 1299.4063,580.485 Q1300.1094,580.485 1300.75,580.6412 Q1301.4063,580.7975 1301.9688,581.0944 L1301.9688,583.8131 Q1301.3438,583.235 1300.75,582.9694 Q1300.1563,582.6881 1299.5313,582.6881 Q1298.1875,582.6881 1297.5,583.7662 Q1296.8125,584.8287 1296.8125,586.9225 Q1296.8125,589.0162 1297.5,590.0944 Q1298.1875,591.1569 1299.5313,591.1569 Q1300.1563,591.1569 1300.75,590.8912 Q1301.3438,590.61 1301.9688,590.0319 L1301.9688,592.7506 Z " fill="#000000"/><text fill="#000000" font-family="sans-serif" font-size="14" lengthAdjust="spacing" textLength="69.9997" x="1313" y="591.9567">&#26032;&#27231;&#33021;&#21046;&#38480;</text><line style="stroke:#181818;stroke-width:0.5;" x1="1285" x2="1384.9997" y1="603.11" y2="603.11"/><line style="stroke:#181818;stroke-width:0.5;" x1="1285" x2="1384.9997" y1="611.11" y2="611.11"/></g><!--class ????????--><g class="entity" data-entity="&#27573;&#38542;&#30340;&#12394;&#20999;&#12426;&#25448;&#12390;" data-source-line="35" data-uid="ent0017" id="entity_&#27573;&#38542;&#30340;&#12394;&#20999;&#12426;&#25448;&#12390;"><rect fill="#F1F1F1" height="48" rx="2.5" ry="2.5" style="stroke:#181818;stroke-width:0.5;" width="143.9995" x="1242" y="706.56"/><ellipse cx="1257" cy="722.56" fill="#ADD1B2" rx="11" ry="11" style="stroke:#181818;stroke-width:1;"/><path d="M1259.9688,728.2006 Q1259.3906,728.4975 1258.75,728.6381 Q1258.1094,728.7944 1257.4063,728.7944 Q1254.9063,728.7944 1253.5781,727.1538 Q1252.2656,725.4975 1252.2656,722.3725 Q1252.2656,719.2475 1253.5781,717.5913 Q1254.9063,715.935 1257.4063,715.935 Q1258.1094,715.935 1258.75,716.0913 Q1259.4063,716.2475 1259.9688,716.5444 L1259.9688,719.2631 Q1259.3438,718.685 1258.75,718.4194 Q1258.1563,718.1381 1257.5313,718.1381 Q1256.1875,718.1381 1255.5,719.2163 Q1254.8125,720.2788 1254.8125,722.3725 Q1254.8125,724.4663 1255.5,725.5444 Q1256.1875,726.6069 1257.5313,726.6069 Q1258.1563,726.6069 1258.75,726.3413 Q1259.3438,726.06 1259.9688,725.4819 L1259.9688,728.2006 Z " fill="#000000"/><text fill="#000000" font-family="sans-serif" font-size="14" lengthAdjust="spacing" textLength="111.9995" x="1271" y="727.4067">&#27573;&#38542;&#30340;&#12394;&#20999;&#12426;&#25448;&#12390;</text><line style="stroke:#181818;stroke-width:0.5;" x1="1243" x2="1384.9995" y1="738.56" y2="738.56"/><line style="stroke:#181818;stroke-width:0.5;" x1="1243" x2="1384.9995" y1="746.56" y2="746.56"/></g><!--link ???CPU\n??PC to Windows 11\n???????--><g class="link" data-entity-1="&#38750;&#23550;&#24540;CPU\n&#25645;&#36617;PC" data-entity-2="Windows 11\n&#12452;&#12531;&#12473;&#12488;&#12540;&#12523;&#28168;" data-source-line="38" data-uid="lnk18" id="link_&#38750;&#23550;&#24540;CPU\n&#25645;&#36617;PC_Windows 11\n&#12452;&#12531;&#12473;&#12488;&#12540;&#12523;&#28168;"><path codeLine="38" d="M572,132.56 C572,156.21 572,179.12 572,202.77" fill="none" id="&#38750;&#23550;&#24540;CPU\n&#25645;&#36617;PC-to-Windows 11\n&#12452;&#12531;&#12473;&#12488;&#12540;&#12523;&#28168;" style="stroke:#181818;stroke-width:1;"/><polygon fill="#181818" points="572,208.77,576,199.77,572,203.77,568,199.77,572,208.77" style="stroke:#181818;stroke-width:1;"/><text fill="#000000" font-family="sans-serif" font-size="13" lengthAdjust="spacing" textLength="78.0001" x="573" y="175.2469">&#38750;&#20844;&#24335;&#26041;&#27861;&#12391;</text></g><!--link Windows 11\n??????? to ??????--><g class="link" data-entity-1="Windows 11\n&#12452;&#12531;&#12473;&#12488;&#12540;&#12523;&#28168;" data-entity-2="&#36009;&#22770;&#24215;&#12398;&#34920;&#31034;" data-source-line="39" data-uid="lnk19" id="link_Windows 11\n&#12452;&#12531;&#12473;&#12488;&#12540;&#12523;&#28168;_&#36009;&#22770;&#24215;&#12398;&#34920;&#31034;"><path codeLine="39" d="M569.02,300.59 C567.34,325.88 565.6573,351.2132 564.0373,375.6232" fill="none" id="Windows 11\n&#12452;&#12531;&#12473;&#12488;&#12540;&#12523;&#28168;-to-&#36009;&#22770;&#24215;&#12398;&#34920;&#31034;" style="stroke:#181818;stroke-width:1;"/><polygon fill="#181818" points="563.64,381.61,568.2272,372.8946,563.9711,376.621,560.2448,372.3649,563.64,381.61" style="stroke:#181818;stroke-width:1;"/><text fill="#000000" font-family="sans-serif" font-size="13" lengthAdjust="spacing" textLength="65.0001" x="567" y="343.4369">&#25645;&#36617;&#12392;&#34920;&#35352;</text></g><!--link ?????? to ???????--><g class="link" data-entity-1="&#36009;&#22770;&#24215;&#12398;&#34920;&#31034;" data-entity-2="&#12469;&#12509;&#12540;&#12488;&#23550;&#35937;&#22806;" data-source-line="40" data-uid="lnk20" id="link_&#36009;&#22770;&#24215;&#12398;&#34920;&#31034;_&#12469;&#12509;&#12540;&#12488;&#23550;&#35937;&#22806;"><path codeLine="40" d="M453.95,427.6 C371.65,434.89 257.58,454.06 170,503.67 C141.07,520.06 120.0305,545.1514 105.3105,566.0914" fill="none" id="&#36009;&#22770;&#24215;&#12398;&#34920;&#31034;-to-&#12469;&#12509;&#12540;&#12488;&#23550;&#35937;&#22806;" style="stroke:#181818;stroke-width:1;"/><polygon fill="#181818" points="101.86,571,110.3082,565.9375,104.7354,566.9095,103.7634,561.3368,101.86,571" style="stroke:#181818;stroke-width:1;"/></g><!--link ?????? to ?????--><g class="link" data-entity-1="&#36009;&#22770;&#24215;&#12398;&#34920;&#31034;" data-entity-2="&#21205;&#20316;&#19981;&#23433;&#23450;" data-source-line="41" data-uid="lnk21" id="link_&#36009;&#22770;&#24215;&#12398;&#34920;&#31034;_&#21205;&#20316;&#19981;&#23433;&#23450;"><path codeLine="41" d="M454,441.86 C405.95,453.86 350.42,473.15 307,503.67 C282.12,521.16 265.2193,545.155 253.2993,565.625" fill="none" id="&#36009;&#22770;&#24215;&#12398;&#34920;&#31034;-to-&#21205;&#20316;&#19981;&#23433;&#23450;" style="stroke:#181818;stroke-width:1;"/><polygon fill="#181818" points="250.28,570.81,258.2656,565.0454,252.7961,566.4892,251.3523,561.0197,250.28,570.81" style="stroke:#181818;stroke-width:1;"/></g><!--link ?????? to ?????????--><g class="link" data-entity-1="&#36009;&#22770;&#24215;&#12398;&#34920;&#31034;" data-entity-2="&#27861;&#30340;&#12539;&#34920;&#31034;&#19978;&#12398;&#21839;&#38988;" data-source-line="42" data-uid="lnk22" id="link_&#36009;&#22770;&#24215;&#12398;&#34920;&#31034;_&#27861;&#30340;&#12539;&#34920;&#31034;&#19978;&#12398;&#21839;&#38988;"><path codeLine="42" d="M524.35,462.97 C493.36,496.47 454.0848,538.9059 428.4648,566.5959" fill="none" id="&#36009;&#22770;&#24215;&#12398;&#34920;&#31034;-to-&#27861;&#30340;&#12539;&#34920;&#31034;&#19978;&#12398;&#21839;&#38988;" style="stroke:#181818;stroke-width:1;"/><polygon fill="#181818" points="424.39,571,433.4383,567.1105,427.7857,567.3299,427.5662,561.6774,424.39,571" style="stroke:#181818;stroke-width:1;"/></g><!--link ?????? to ????--><g class="link" data-entity-1="&#36009;&#22770;&#24215;&#12398;&#34920;&#31034;" data-entity-2="&#27231;&#33021;&#21046;&#38480;" data-source-line="43" data-uid="lnk23" id="link_&#36009;&#22770;&#24215;&#12398;&#34920;&#31034;_&#27231;&#33021;&#21046;&#38480;"><path codeLine="43" d="M561,462.97 C561,496.47 561,537.31 561,565" fill="none" id="&#36009;&#22770;&#24215;&#12398;&#34920;&#31034;-to-&#27231;&#33021;&#21046;&#38480;" style="stroke:#181818;stroke-width:1;"/><polygon fill="#181818" points="561,571,565,562,561,566,557,562,561,571" style="stroke:#181818;stroke-width:1;"/></g><!--link ?????? to Microsoft???????--><g class="link" data-entity-1="&#36009;&#22770;&#24215;&#12398;&#34920;&#31034;" data-entity-2="Microsoft&#12450;&#12459;&#12454;&#12531;&#12488;&#24517;&#38920;" data-source-line="44" data-uid="lnk24" id="link_&#36009;&#22770;&#24215;&#12398;&#34920;&#31034;_Microsoft&#12450;&#12459;&#12454;&#12531;&#12488;&#24517;&#38920;"><path codeLine="44" d="M601.82,462.97 C636.24,496.37 680.0438,538.8519 708.6138,566.5719" fill="none" id="&#36009;&#22770;&#24215;&#12398;&#34920;&#31034;-to-Microsoft&#12450;&#12459;&#12454;&#12531;&#12488;&#24517;&#38920;" style="stroke:#181818;stroke-width:1;"/><polygon fill="#181818" points="712.92,570.75,709.2461,561.612,709.3315,567.2683,703.6753,567.3537,712.92,570.75" style="stroke:#181818;stroke-width:1;"/></g><!--link Windows 11\n??????? to ???????--><g class="link" data-entity-1="Windows 11\n&#12452;&#12531;&#12473;&#12488;&#12540;&#12523;&#28168;" data-entity-2="&#33258;&#24049;&#36012;&#20219;&#12391;&#35377;&#23481;" data-source-line="46" data-uid="lnk25" id="link_Windows 11\n&#12452;&#12531;&#12473;&#12488;&#12540;&#12523;&#28168;_&#33258;&#24049;&#36012;&#20219;&#12391;&#35377;&#23481;"><path codeLine="46" d="M648.45,276 C772.71,308.87 1010.5495,371.7855 1127.0895,402.6155" fill="none" id="Windows 11\n&#12452;&#12531;&#12473;&#12488;&#12540;&#12523;&#28168;-to-&#33258;&#24049;&#36012;&#20219;&#12391;&#35377;&#23481;" style="stroke:#181818;stroke-width:1;"/><polygon fill="#181818" points="1132.89,404.15,1125.2123,397.9813,1128.0563,402.8713,1123.1663,405.7153,1132.89,404.15" style="stroke:#181818;stroke-width:1;"/></g><!--link ??????? to ??????--><g class="link" data-entity-1="&#33258;&#24049;&#36012;&#20219;&#12391;&#35377;&#23481;" data-entity-2="&#26356;&#26032;&#20445;&#35388;&#12394;&#12375;" data-source-line="47" data-uid="lnk26" id="link_&#33258;&#24049;&#36012;&#20219;&#12391;&#35377;&#23481;_&#26356;&#26032;&#20445;&#35388;&#12394;&#12375;"><path codeLine="47" d="M1197.04,446.76 C1195.7,479.36 1193.5346,532.145 1192.2046,564.745" fill="none" id="&#33258;&#24049;&#36012;&#20219;&#12391;&#35377;&#23481;-to-&#26356;&#26032;&#20445;&#35388;&#12394;&#12375;" style="stroke:#181818;stroke-width:1;"/><polygon fill="#181818" points="1191.96,570.74,1196.3235,561.9105,1192.1638,565.7442,1188.3302,561.5844,1191.96,570.74" style="stroke:#181818;stroke-width:1;"/></g><!--link ??????? to ?????--><g class="link" data-entity-1="&#33258;&#24049;&#36012;&#20219;&#12391;&#35377;&#23481;" data-entity-2="&#26032;&#27231;&#33021;&#21046;&#38480;" data-source-line="48" data-uid="lnk27" id="link_&#33258;&#24049;&#36012;&#20219;&#12391;&#35377;&#23481;_&#26032;&#27231;&#33021;&#21046;&#38480;"><path codeLine="48" d="M1218.25,446.65 C1231.95,462.54 1250.32,484.17 1266,503.67 C1284.07,526.14 1300.3775,547.5944 1314.1475,566.0144" fill="none" id="&#33258;&#24049;&#36012;&#20219;&#12391;&#35377;&#23481;-to-&#26032;&#27231;&#33021;&#21046;&#38480;" style="stroke:#181818;stroke-width:1;"/><polygon fill="#181818" points="1317.74,570.82,1315.555,561.2166,1314.7463,566.8153,1309.1475,566.0065,1317.74,570.82" style="stroke:#181818;stroke-width:1;"/></g><!--link ????? to ????????--><g class="link" data-entity-1="&#26032;&#27231;&#33021;&#21046;&#38480;" data-entity-2="&#27573;&#38542;&#30340;&#12394;&#20999;&#12426;&#25448;&#12390;" data-source-line="49" data-uid="lnk28" id="link_&#26032;&#27231;&#33021;&#21046;&#38480;_&#27573;&#38542;&#30340;&#12394;&#20999;&#12426;&#25448;&#12390;"><path codeLine="49" d="M1331.34,619.36 C1327.51,643.7 1322.4624,675.7929 1318.6224,700.2029" fill="none" id="&#26032;&#27231;&#33021;&#21046;&#38480;-to-&#27573;&#38542;&#30340;&#12394;&#20999;&#12426;&#25448;&#12390;" style="stroke:#181818;stroke-width:1;"/><polygon fill="#181818" points="1317.69,706.13,1323.04,697.8609,1318.467,701.1907,1315.1372,696.6177,1317.69,706.13" style="stroke:#181818;stroke-width:1;"/></g><!--link ?????? to Linux???--><g class="link" data-entity-1="&#36009;&#22770;&#24215;&#12398;&#34920;&#31034;" data-entity-2="Linux&#12408;&#31227;&#34892;" data-source-line="50" data-uid="lnk29" id="link_&#36009;&#22770;&#24215;&#12398;&#34920;&#31034;_Linux&#12408;&#31227;&#34892;"><path codeLine="50" d="M668.15,442.91 C724.67,455.66 794.11,475.31 852,503.67 C875.08,514.98 893.4776,527.2045 913.2576,542.5345" fill="none" id="&#36009;&#22770;&#24215;&#12398;&#34920;&#31034;-to-Linux&#12408;&#31227;&#34892;" style="stroke:#181818;stroke-width:1;"/><polygon fill="#181818" points="918,546.21,913.3367,537.5351,914.048,543.1471,908.436,543.8584,918,546.21" style="stroke:#181818;stroke-width:1;"/></g><!--SRC=[bLDDRn9H5DtpArxO6enruOA56xOsOQ5nqmt1Zn0DRKIZYJ7fl4TbQ46QMAXYiI9O1agXK6k7CfGVS-VDl5dn5tp339tXOx1kxpttdNFFFMyZ4dqHUVuK-LNvXEQguH3hrccbwqVlVGX5NqOI2UGtIjzf-ueE3qBXHsjnRVU4AUbmo88W540FmwlexkqxI4-MGTYtY_mn499yOgI8wjLE4EdDvZrLBgZzoaX9Sz07dyFmE1P_ilusWLPMrkA0gq3E0FU0Y40K8CUQB4x8RY5Jp5QJAhbvd8q0qWGiJneDRQz7gxE4rfRqSX-45YjBUlNIOO3DZAC7MUl2PXO4YIEPzCM6qPsyEZXGXoKcAI0q-EOZvN1Cmuas9hPo0QOIt0RIf_cSKSxek3VbBk1p8ANn1YAtcNNAj5hmEtsRHyxILfgsYgwETfRNYqd-iBM1Ac_pRImIDwf-oCY0Yd-Chxkkycei-ceziVxiDU2VW8y17vbkSWd3BUE7w08-YCNVl0D1rckS9-DSdVK7HYe790MuScqsaCz0VfdBu0iWDVwaZGRCUtaWTUjiLfucKVcOfM9TtvDehisbSZF3eJaZ7Rryn_7qb8iirQ0N7TPjglq-23KcTMYhvtRXss-jSEg-bhjPEFLmIMkT6yLFfij2WufyrMqjAu5mv3UrUNwCGE3-ZJ8TTDAi5Nhyd5ovxoQ3Ou956GvEydeTreMmyRn7yBm7vfBe3LqQpILZKrVmnlqhlFzXukBSUDHjbGkoj7nWDbzp5HldcJPlAsQ-vry0]--></g></svg>