<svg xmlns="http://www.w3.org/2000/svg" xmlns:xlink="http://www.w3.org/1999/xlink" contentStyleType="text/css" data-diagram-type="SEQUENCE" height="591px" preserveAspectRatio="none" style="width:684px;height:591px;background:#FFFFFF;" version="1.1" viewBox="0 0 684 591" width="684px" zoomAndPan="magnify"><title>Deepin OS &#12395;&#12362;&#12369;&#12427;&#36890;&#20449;&#12398;&#21487;&#35222;&#21270;&#12392;&#26908;&#35388;&#25163;&#38918;</title><defs/><g><text fill="#000000" font-family="sans-serif" font-size="14" font-weight="bold" lengthAdjust="spacing" textLength="297.1299" x="195.3338" y="27.9951">Deepin OS &#12395;&#12362;&#12369;&#12427;&#36890;&#20449;&#12398;&#21487;&#35222;&#21270;&#12392;&#26908;&#35388;&#25163;&#38918;</text><g><title>User</title><rect fill="#000000" fill-opacity="0.00000" height="391.8594" width="8" x="19.9551" y="118.5938"/><line style="stroke:#181818;stroke-width:0.5;stroke-dasharray:5.0,5.0;" x1="23" x2="23" y1="118.5938" y2="510.4531"/></g><g><title>Deepin OS</title><rect fill="#000000" fill-opacity="0.00000" height="391.8594" width="8" x="225.9553" y="118.5938"/><line style="stroke:#181818;stroke-width:0.5;stroke-dasharray:5.0,5.0;" x1="228.9555" x2="228.9555" y1="118.5938" y2="510.4531"/></g><g><title>Wireshark / tcpdump</title><rect fill="#000000" fill-opacity="0.00000" height="391.8594" width="8" x="366.9554" y="118.5938"/><line style="stroke:#181818;stroke-width:0.5;stroke-dasharray:5.0,5.0;" x1="370.6127" x2="370.6127" y1="118.5938" y2="510.4531"/></g><g><title>&#12452;&#12531;&#12479;&#12540;&#12493;&#12483;&#12488;</title><rect fill="#000000" fill-opacity="0.00000" height="391.8594" width="8" x="513.298" y="118.5938"/><line style="stroke:#181818;stroke-width:0.5;stroke-dasharray:5.0,5.0;" x1="516.2982" x2="516.2982" y1="118.5938" y2="510.4531"/></g><g><title>&#36890;&#20449;&#12525;&#12464;.pcap</title><rect fill="#000000" fill-opacity="0.00000" height="391.8594" width="8" x="629.5477" y="118.5938"/><line style="stroke:#181818;stroke-width:0.5;stroke-dasharray:5.0,5.0;" x1="633.2978" x2="633.2978" y1="118.5938" y2="510.4531"/></g><g class="participant participant-head" data-participant="U"><text fill="#000000" font-family="sans-serif" font-size="14" lengthAdjust="spacing" textLength="31.9102" x="5" y="115.292">User</text><ellipse cx="23.9551" cy="50.7969" fill="#E2E2F0" rx="8" ry="8" style="stroke:#181818;stroke-width:0.5;"/><path d="M23.9551,58.7969 L23.9551,85.7969 M10.9551,66.7969 L36.9551,66.7969 M23.9551,85.7969 L10.9551,100.7969 M23.9551,85.7969 L36.9551,100.7969" fill="none" style="stroke:#181818;stroke-width:0.5;"/></g><g class="participant participant-tail" data-participant="U"><text fill="#000000" font-family="sans-serif" font-size="14" lengthAdjust="spacing" textLength="31.9102" x="5" y="522.4482">User</text><ellipse cx="23.9551" cy="534.25" fill="#E2E2F0" rx="8" ry="8" style="stroke:#181818;stroke-width:0.5;"/><path d="M23.9551,542.25 L23.9551,569.25 M10.9551,550.25 L36.9551,550.25 M23.9551,569.25 L10.9551,584.25 M23.9551,569.25 L36.9551,584.25" fill="none" style="stroke:#181818;stroke-width:0.5;"/></g><g class="participant participant-head" data-participant="D"><rect fill="#E2E2F0" height="46.5938" rx="2.5" ry="2.5" style="stroke:#181818;stroke-width:0.5;" width="97.9996" x="180.9555" y="71"/><text fill="#000000" font-family="sans-serif" font-size="14" lengthAdjust="spacing" textLength="74.0127" x="192.9489" y="90.9951">Deepin OS</text><text fill="#000000" font-family="sans-serif" font-size="14" lengthAdjust="spacing" textLength="83.9996" x="187.9555" y="107.292">&#65288;&#20206;&#24819;&#29872;&#22659;&#65289;</text></g><g class="participant participant-tail" data-participant="D"><rect fill="#E2E2F0" height="46.5938" rx="2.5" ry="2.5" style="stroke:#181818;stroke-width:0.5;" width="97.9996" x="180.9555" y="509.4531"/><text fill="#000000" font-family="sans-serif" font-size="14" lengthAdjust="spacing" textLength="74.0127" x="192.9489" y="529.4482">Deepin OS</text><text fill="#000000" font-family="sans-serif" font-size="14" lengthAdjust="spacing" textLength="83.9996" x="187.9555" y="545.7451">&#65288;&#20206;&#24819;&#29872;&#22659;&#65289;</text></g><g class="participant participant-head" data-participant="T"><rect fill="#E2E2F0" height="46.5938" rx="2.5" ry="2.5" style="stroke:#181818;stroke-width:0.5;" width="160.6855" x="290.6127" y="71"/><text fill="#000000" font-family="sans-serif" font-size="14" lengthAdjust="spacing" textLength="146.6855" x="297.6127" y="90.9951">Wireshark / tcpdump</text><text fill="#000000" font-family="sans-serif" font-size="14" lengthAdjust="spacing" textLength="83.9996" x="328.9556" y="107.292">&#65288;&#12507;&#12473;&#12488;&#20596;&#65289;</text></g><g class="participant participant-tail" data-participant="T"><rect fill="#E2E2F0" height="46.5938" rx="2.5" ry="2.5" style="stroke:#181818;stroke-width:0.5;" width="160.6855" x="290.6127" y="509.4531"/><text fill="#000000" font-family="sans-serif" font-size="14" lengthAdjust="spacing" textLength="146.6855" x="297.6127" y="529.4482">Wireshark / tcpdump</text><text fill="#000000" font-family="sans-serif" font-size="14" lengthAdjust="spacing" textLength="83.9996" x="328.9556" y="545.7451">&#65288;&#12507;&#12473;&#12488;&#20596;&#65289;</text></g><g class="participant participant-head" data-participant="Net"><rect fill="#E2E2F0" height="46.5938" rx="2.5" ry="2.5" style="stroke:#181818;stroke-width:0.5;" width="111.9996" x="461.2982" y="71"/><text fill="#000000" font-family="sans-serif" font-size="14" lengthAdjust="spacing" textLength="97.9996" x="468.2982" y="90.9951">&#12452;&#12531;&#12479;&#12540;&#12493;&#12483;&#12488;</text><text fill="#000000" font-family="sans-serif" font-size="14" lengthAdjust="spacing" textLength="97.9996" x="468.2982" y="107.292">&#65288;&#22806;&#37096;&#36890;&#20449;&#20808;&#65289;</text></g><g class="participant participant-tail" data-participant="Net"><rect fill="#E2E2F0" height="46.5938" rx="2.5" ry="2.5" style="stroke:#181818;stroke-width:0.5;" width="111.9996" x="461.2982" y="509.4531"/><text fill="#000000" font-family="sans-serif" font-size="14" lengthAdjust="spacing" textLength="97.9996" x="468.2982" y="529.4482">&#12452;&#12531;&#12479;&#12540;&#12493;&#12483;&#12488;</text><text fill="#000000" font-family="sans-serif" font-size="14" lengthAdjust="spacing" textLength="97.9996" x="468.2982" y="545.7451">&#65288;&#22806;&#37096;&#36890;&#20449;&#20808;&#65289;</text></g><g class="participant participant-head" data-participant="Log"><text fill="#000000" font-family="sans-serif" font-size="14" lengthAdjust="spacing" textLength="94.4998" x="583.2978" y="115.292">&#36890;&#20449;&#12525;&#12464;.pcap</text><path d="M615.5477,66.2969 C615.5477,56.2969 633.5477,56.2969 633.5477,56.2969 C633.5477,56.2969 651.5477,56.2969 651.5477,66.2969 L651.5477,92.2969 C651.5477,102.2969 633.5477,102.2969 633.5477,102.2969 C633.5477,102.2969 615.5477,102.2969 615.5477,92.2969 L615.5477,66.2969" fill="#E2E2F0" style="stroke:#181818;stroke-width:1.5;"/><path d="M615.5477,66.2969 C615.5477,76.2969 633.5477,76.2969 633.5477,76.2969 C633.5477,76.2969 651.5477,76.2969 651.5477,66.2969" fill="none" style="stroke:#181818;stroke-width:1.5;"/></g><g class="participant participant-tail" data-participant="Log"><text fill="#000000" font-family="sans-serif" font-size="14" lengthAdjust="spacing" textLength="94.4998" x="583.2978" y="522.4482">&#36890;&#20449;&#12525;&#12464;.pcap</text><path d="M615.5477,535.75 C615.5477,525.75 633.5477,525.75 633.5477,525.75 C633.5477,525.75 651.5477,525.75 651.5477,535.75 L651.5477,561.75 C651.5477,571.75 633.5477,571.75 633.5477,571.75 C633.5477,571.75 615.5477,571.75 615.5477,561.75 L615.5477,535.75" fill="#E2E2F0" style="stroke:#181818;stroke-width:1.5;"/><path d="M615.5477,535.75 C615.5477,545.75 633.5477,545.75 633.5477,545.75 C633.5477,545.75 651.5477,545.75 651.5477,535.75" fill="none" style="stroke:#181818;stroke-width:1.5;"/></g><g class="message" data-participant-1="U" data-participant-2="D"><polygon fill="#181818" points="217.9553,145.7266,227.9553,149.7266,217.9553,153.7266,221.9553,149.7266" style="stroke:#181818;stroke-width:1;"/><line style="stroke:#181818;stroke-width:1;" x1="23.9551" x2="223.9553" y1="149.7266" y2="149.7266"/><text fill="#000000" font-family="sans-serif" font-size="13" lengthAdjust="spacing" textLength="85.1094" x="30.9551" y="144.6606">Deepin&#12434;&#36215;&#21205;</text></g><g class="message" data-participant-1="D" data-participant-2="Net"><polygon fill="#181818" points="505.298,174.8594,515.298,178.8594,505.298,182.8594,509.298,178.8594" style="stroke:#181818;stroke-width:1;"/><line style="stroke:#181818;stroke-width:1;" x1="229.9553" x2="511.298" y1="178.8594" y2="178.8594"/><text fill="#000000" font-family="sans-serif" font-size="13" lengthAdjust="spacing" textLength="225.7482" x="236.9553" y="173.7935">&#21021;&#26399;&#36890;&#20449;&#65288;DNS, HTTP&#31561;&#65289;&#12434;&#33258;&#21205;&#36865;&#20449;</text></g><g class="message" data-participant-1="D" data-participant-2="T"><polygon fill="#181818" points="358.9554,219.125,368.9554,223.125,358.9554,227.125,362.9554,223.125" style="stroke:#181818;stroke-width:1;"/><line style="stroke:#181818;stroke-width:1;" x1="229.9553" x2="364.9554" y1="223.125" y2="223.125"/><text fill="#000000" font-family="sans-serif" font-size="13" lengthAdjust="spacing" textLength="117.0001" x="236.9553" y="202.9263">&#12493;&#12483;&#12488;&#12527;&#12540;&#12463;&#36890;&#20449;&#12434;</text><text fill="#000000" font-family="sans-serif" font-size="13" lengthAdjust="spacing" textLength="78.0001" x="236.9553" y="218.0591">&#12511;&#12521;&#12540;&#12522;&#12531;&#12464;</text></g><g class="message" data-participant-1="T" data-participant-2="Log"><polygon fill="#181818" points="621.5477,263.3906,631.5477,267.3906,621.5477,271.3906,625.5477,267.3906" style="stroke:#181818;stroke-width:1;"/><line style="stroke:#181818;stroke-width:1;" x1="370.9554" x2="627.5477" y1="267.3906" y2="267.3906"/><text fill="#000000" font-family="sans-serif" font-size="13" lengthAdjust="spacing" textLength="91.0001" x="377.9554" y="247.1919">&#36890;&#20449;&#20869;&#23481;&#12434;&#35352;&#37682;</text><text fill="#000000" font-family="sans-serif" font-size="13" lengthAdjust="spacing" textLength="83.6177" x="377.9554" y="262.3247">&#65288;pcap&#24418;&#24335;&#65289;</text></g><g class="message" data-participant-1="U" data-participant-2="T"><polygon fill="#181818" points="358.9554,292.5234,368.9554,296.5234,358.9554,300.5234,362.9554,296.5234" style="stroke:#181818;stroke-width:1;"/><line style="stroke:#181818;stroke-width:1;" x1="23.9551" x2="364.9554" y1="296.5234" y2="296.5234"/><text fill="#000000" font-family="sans-serif" font-size="13" lengthAdjust="spacing" textLength="208.6603" x="30.9551" y="291.4575">&#36890;&#20449;&#12525;&#12464;&#12434;&#35299;&#26512;&#65288;Wireshark&#20351;&#29992;&#65289;</text></g><g class="message" data-participant-1="T" data-participant-2="U"><polygon fill="#181818" points="34.9551,321.6563,24.9551,325.6563,34.9551,329.6563,30.9551,325.6563" style="stroke:#181818;stroke-width:1;"/><line style="stroke:#181818;stroke-width:1;" x1="28.9551" x2="369.9554" y1="325.6563" y2="325.6563"/><text fill="#000000" font-family="sans-serif" font-size="13" lengthAdjust="spacing" textLength="180.6735" x="40.9551" y="320.5903">&#36865;&#20449;&#20808;&#12398;IP&#12420;&#12487;&#12540;&#12479;&#20869;&#23481;&#12434;&#34920;&#31034;</text></g><g class="message" data-participant-1="U" data-participant-2="Net"><polygon fill="#181818" points="505.298,350.7891,515.298,354.7891,505.298,358.7891,509.298,354.7891" style="stroke:#181818;stroke-width:1;"/><line style="stroke:#181818;stroke-width:1;" x1="23.9551" x2="511.298" y1="354.7891" y2="354.7891"/><text fill="#000000" font-family="sans-serif" font-size="13" lengthAdjust="spacing" textLength="179.3722" x="30.9551" y="349.7231">&#36865;&#20449;&#20808;&#12398;IP&#12434;GeoIP&#12394;&#12393;&#12391;&#30906;&#35469;</text></g><g class="message" data-participant-1="Net" data-participant-2="U"><polygon fill="#181818" points="34.9551,379.9219,24.9551,383.9219,34.9551,387.9219,30.9551,383.9219" style="stroke:#181818;stroke-width:1;"/><line style="stroke:#181818;stroke-width:1;" x1="28.9551" x2="516.298" y1="383.9219" y2="383.9219"/><text fill="#000000" font-family="sans-serif" font-size="13" lengthAdjust="spacing" textLength="182.0002" x="40.9551" y="378.856">&#25152;&#22312;&#22320;&#24773;&#22577;&#65288;&#20363;&#65306;&#20013;&#22269;&#65289;&#12434;&#36820;&#12377;</text></g><g class="message" data-participant-1="U" data-participant-2="D"><polygon fill="#181818" points="217.9553,409.0547,227.9553,413.0547,217.9553,417.0547,221.9553,413.0547" style="stroke:#181818;stroke-width:1;"/><line style="stroke:#181818;stroke-width:1;" x1="23.9551" x2="223.9553" y1="413.0547" y2="413.0547"/><text fill="#000000" font-family="sans-serif" font-size="13" lengthAdjust="spacing" textLength="182.0002" x="30.9551" y="407.9888">&#12501;&#12449;&#12452;&#12450;&#12454;&#12457;&#12540;&#12523;&#12391;&#36890;&#20449;&#12434;&#36974;&#26029;</text></g><g class="message" data-participant-1="U" data-participant-2="D"><polygon fill="#181818" points="217.9553,438.1875,227.9553,442.1875,217.9553,446.1875,221.9553,442.1875" style="stroke:#181818;stroke-width:1;"/><line style="stroke:#181818;stroke-width:1;" x1="23.9551" x2="223.9553" y1="442.1875" y2="442.1875"/><text fill="#000000" font-family="sans-serif" font-size="13" lengthAdjust="spacing" textLength="155.1749" x="30.9551" y="437.1216">&#21205;&#20316;&#30906;&#35469;&#65288;App Store&#31561;&#65289;</text></g><path d="M234,455.1875 L234,495.1875 L496,495.1875 L496,465.1875 L486,455.1875 L234,455.1875" fill="#FEFFDD" style="stroke:#181818;stroke-width:0.5;"/><path d="M486,455.1875 L486,465.1875 L496,465.1875 L486,455.1875" fill="#FEFFDD" style="stroke:#181818;stroke-width:0.5;"/><text fill="#000000" font-family="sans-serif" font-size="13" lengthAdjust="spacing" textLength="182.0002" x="240" y="472.2544">&#36890;&#20449;&#20808;&#12364;&#36974;&#26029;&#12373;&#12428;&#12390;&#12356;&#12427;&#22580;&#21512;&#12395;</text><text fill="#000000" font-family="sans-serif" font-size="13" lengthAdjust="spacing" textLength="241.1096" x="240" y="487.3872">Deepin&#12398;&#12450;&#12503;&#12522;&#12364;&#12393;&#12358;&#25369;&#21205;&#12377;&#12427;&#12363;&#12434;&#35251;&#23519;</text><!--SRC=[NPDDRn9H58RtyojkklPZxyB4X4HDJ6q2n4qt8upjH1qcCEwvznOAGjDAMhGjoeS4fZHyA3NQEiYFETm1Llm5pvsPJgshMTppdFTzppbZwTORZKGqpTGDyZnAW9u3VG_q0x3ICdiocpQ13iJ-SD6fYd8LgEssQmlRSOkbPIElA6h2IgL9FAEbYPeXSSLKqvQUq4tLiCXQs7NJM3c5sU-1oyVpoaYq-CefhaaWSXjueQUrpBQQVatk4ojX9j-zDJqK-2cmI-05GI-kqTXj55WR-1ZO5BW3V0yunt8F5ktgajj-5f4hNFFhcgKaLKjzgMOqiXP4vNrWetjcGZMzccUfBKM9axiFIOGy28O4hBBuyLEKZfI8VC0s-2GAdzrQtM-2af7rw1to91RRcFUBg2UHtHuYoop50X-C8HOQ1JwKljamyC4gcmRmEl0pBqxFYpPIOX94KuW6UV8vCRYK_UrFo_9tBwzqBoOjuUoZT60_5X9-H4bqlxfV3h0-7FfiCfqVsXBoTE8UG_sfuH4ytG2s0tpNCpgzKMxQy_PLeEDFut-gybXBuPVsW9u1xSvRLulUdY9h0nctc1KrMzH6Bi-9nZTvB7zAA-TazgilJYV11AU7G8__MGVm8s1DkNVM0jO1viyApxSRJd591swrVyFW3cQJccy0LHwP9edY0Ml-dXJ5I5aQIUjRsnP9lSBh92Iy6w1blnjGr2q3xG3TmPz4D2x40RwU4uBbmOtGWJJ5FyhLqR8NE- -MZr4UCo04j2GZTSPYM5Sq8qcay5y0]--></g></svg>