<svg xmlns="http://www.w3.org/2000/svg" xmlns:xlink="http://www.w3.org/1999/xlink" contentStyleType="text/css" data-diagram-type="SEQUENCE" height="802px" preserveAspectRatio="none" style="width:526px;height:802px;background:#FFFFFF;" version="1.1" viewBox="0 0 526 802" width="526px" zoomAndPan="magnify"><title>Windows vs Linux: &#12450;&#12483;&#12503;&#12487;&#12540;&#12488;&#20307;&#39443;&#12398;&#27969;&#12428;</title><defs/><g><text fill="#000000" font-family="sans-serif" font-size="14" font-weight="bold" lengthAdjust="spacing" textLength="305.4769" x="106.2616" y="27.9951">Windows vs Linux: &#12450;&#12483;&#12503;&#12487;&#12540;&#12488;&#20307;&#39443;&#12398;&#27969;&#12428;</text><g><title>User</title><rect fill="#000000" fill-opacity="0.00000" height="603.5234" width="8" x="19.9551" y="118.5938"/><line style="stroke:#181818;stroke-width:0.5;stroke-dasharray:5.0,5.0;" x1="23" x2="23" y1="118.5938" y2="722.1172"/></g><g><title>User</title><rect fill="#000000" fill-opacity="0.00000" height="603.5234" width="8" x="124.9552" y="118.5938"/><line style="stroke:#181818;stroke-width:0.5;stroke-dasharray:5.0,5.0;" x1="128.0001" x2="128.0001" y1="118.5938" y2="722.1172"/></g><g><title>Windows OS</title><rect fill="#000000" fill-opacity="0.00000" height="603.5234" width="8" x="268.9553" y="118.5938"/><line style="stroke:#181818;stroke-width:0.5;stroke-dasharray:5.0,5.0;" x1="272.3762" x2="272.3762" y1="118.5938" y2="722.1172"/></g><g><title>Linux OS</title><rect fill="#000000" fill-opacity="0.00000" height="603.5234" width="8" x="367.573" y="118.5938"/><line style="stroke:#181818;stroke-width:0.5;stroke-dasharray:5.0,5.0;" x1="371.5344" x2="371.5344" y1="118.5938" y2="722.1172"/></g><g class="participant participant-head" data-participant="WinUser"><text fill="#000000" font-family="sans-serif" font-size="14" lengthAdjust="spacing" textLength="31.9102" x="5" y="115.292">User</text><ellipse cx="23.9551" cy="50.7969" fill="#E2E2F0" rx="8" ry="8" style="stroke:#181818;stroke-width:0.5;"/><path d="M23.9551,58.7969 L23.9551,85.7969 M10.9551,66.7969 L36.9551,66.7969 M23.9551,85.7969 L10.9551,100.7969 M23.9551,85.7969 L36.9551,100.7969" fill="none" style="stroke:#181818;stroke-width:0.5;"/></g><g class="participant participant-tail" data-participant="WinUser"><text fill="#000000" font-family="sans-serif" font-size="14" lengthAdjust="spacing" textLength="31.9102" x="5" y="734.1123">User</text><ellipse cx="23.9551" cy="745.9141" fill="#E2E2F0" rx="8" ry="8" style="stroke:#181818;stroke-width:0.5;"/><path d="M23.9551,753.9141 L23.9551,780.9141 M10.9551,761.9141 L36.9551,761.9141 M23.9551,780.9141 L10.9551,795.9141 M23.9551,780.9141 L36.9551,795.9141" fill="none" style="stroke:#181818;stroke-width:0.5;"/></g><g class="participant participant-head" data-participant="LinuxUser"><text fill="#000000" font-family="sans-serif" font-size="14" lengthAdjust="spacing" textLength="31.9102" x="110.0001" y="115.292">User</text><ellipse cx="128.9552" cy="50.7969" fill="#E2E2F0" rx="8" ry="8" style="stroke:#181818;stroke-width:0.5;"/><path d="M128.9552,58.7969 L128.9552,85.7969 M115.9552,66.7969 L141.9552,66.7969 M128.9552,85.7969 L115.9552,100.7969 M128.9552,85.7969 L141.9552,100.7969" fill="none" style="stroke:#181818;stroke-width:0.5;"/></g><g class="participant participant-tail" data-participant="LinuxUser"><text fill="#000000" font-family="sans-serif" font-size="14" lengthAdjust="spacing" textLength="31.9102" x="110.0001" y="734.1123">User</text><ellipse cx="128.9552" cy="745.9141" fill="#E2E2F0" rx="8" ry="8" style="stroke:#181818;stroke-width:0.5;"/><path d="M128.9552,753.9141 L128.9552,780.9141 M115.9552,761.9141 L141.9552,761.9141 M128.9552,780.9141 L115.9552,795.9141 M128.9552,780.9141 L141.9552,795.9141" fill="none" style="stroke:#181818;stroke-width:0.5;"/></g><g class="participant participant-head" data-participant="WinOS"><rect fill="#E2E2F0" height="30.2969" rx="2.5" ry="2.5" style="stroke:#181818;stroke-width:0.5;" width="101.1582" x="222.3762" y="87.2969"/><text fill="#000000" font-family="sans-serif" font-size="14" lengthAdjust="spacing" textLength="87.1582" x="229.3762" y="107.292">Windows OS</text></g><g class="participant participant-tail" data-participant="WinOS"><rect fill="#E2E2F0" height="30.2969" rx="2.5" ry="2.5" style="stroke:#181818;stroke-width:0.5;" width="101.1582" x="222.3762" y="721.1172"/><text fill="#000000" font-family="sans-serif" font-size="14" lengthAdjust="spacing" textLength="87.1582" x="229.3762" y="741.1123">Windows OS</text></g><g class="participant participant-head" data-participant="LinuxOS"><rect fill="#E2E2F0" height="30.2969" rx="2.5" ry="2.5" style="stroke:#181818;stroke-width:0.5;" width="76.0771" x="333.5344" y="87.2969"/><text fill="#000000" font-family="sans-serif" font-size="14" lengthAdjust="spacing" textLength="62.0771" x="340.5344" y="107.292">Linux OS</text></g><g class="participant participant-tail" data-participant="LinuxOS"><rect fill="#E2E2F0" height="30.2969" rx="2.5" ry="2.5" style="stroke:#181818;stroke-width:0.5;" width="76.0771" x="333.5344" y="721.1172"/><text fill="#000000" font-family="sans-serif" font-size="14" lengthAdjust="spacing" textLength="62.0771" x="340.5344" y="741.1123">Linux OS</text></g><rect fill="#EEEEEE" height="3" style="stroke:#EEEEEE;stroke-width:1;" width="519.0001" x="0" y="149.1602"/><line style="stroke:#000000;stroke-width:1;" x1="0" x2="519.0001" y1="149.1602" y2="149.1602"/><line style="stroke:#000000;stroke-width:1;" x1="0" x2="519.0001" y1="152.1602" y2="152.1602"/><rect fill="#EEEEEE" height="23.1328" style="stroke:#000000;stroke-width:2;" width="201.5607" x="158.7197" y="138.5938"/><text fill="#000000" font-family="sans-serif" font-size="13" font-weight="bold" lengthAdjust="spacing" textLength="183.0348" x="164.7197" y="154.6606">Windows&#12398;&#12450;&#12483;&#12503;&#12487;&#12540;&#12488;&#20307;&#39443;</text><g class="message" data-participant-1="WinUser" data-participant-2="WinOS"><polygon fill="#181818" points="260.9553,188.8594,270.9553,192.8594,260.9553,196.8594,264.9553,192.8594" style="stroke:#181818;stroke-width:1;"/><line style="stroke:#181818;stroke-width:1;" x1="23.9551" x2="266.9553" y1="192.8594" y2="192.8594"/><text fill="#000000" font-family="sans-serif" font-size="13" lengthAdjust="spacing" textLength="42.9165" x="30.9551" y="187.7935">PC&#36215;&#21205;</text></g><g class="message" data-participant-1="WinOS" data-participant-2="WinUser"><polygon fill="#181818" points="34.9551,217.9922,24.9551,221.9922,34.9551,225.9922,30.9551,221.9922" style="stroke:#181818;stroke-width:1;"/><line style="stroke:#181818;stroke-width:1;" x1="28.9551" x2="271.9553" y1="221.9922" y2="221.9922"/><text fill="#000000" font-family="sans-serif" font-size="13" lengthAdjust="spacing" textLength="104.0001" x="40.9551" y="216.9263">&#12450;&#12483;&#12503;&#12487;&#12540;&#12488;&#36890;&#30693;</text></g><g class="message" data-participant-1="WinOS" data-participant-2="WinUser"><polygon fill="#181818" points="34.9551,247.125,24.9551,251.125,34.9551,255.125,30.9551,251.125" style="stroke:#181818;stroke-width:1;"/><line style="stroke:#181818;stroke-width:1;" x1="28.9551" x2="271.9553" y1="251.125" y2="251.125"/><text fill="#000000" font-family="sans-serif" font-size="13" lengthAdjust="spacing" textLength="130.0002" x="40.9551" y="246.0591">&#24375;&#21046;&#12450;&#12483;&#12503;&#12487;&#12540;&#12488;&#38283;&#22987;</text></g><path d="M28,264.125 L28,289.125 L140,289.125 L140,274.125 L130,264.125 L28,264.125" fill="#FEFFDD" style="stroke:#181818;stroke-width:0.5;"/><path d="M130,264.125 L130,274.125 L140,274.125 L130,264.125" fill="#FEFFDD" style="stroke:#181818;stroke-width:0.5;"/><text fill="#000000" font-family="sans-serif" font-size="13" lengthAdjust="spacing" textLength="91.0001" x="34" y="281.1919">&#20316;&#26989;&#20013;&#12394;&#12398;&#12395;&#65281;</text><g class="message" data-participant-1="WinOS" data-participant-2="WinUser"><polygon fill="#181818" points="34.9551,311.3906,24.9551,315.3906,34.9551,319.3906,30.9551,315.3906" style="stroke:#181818;stroke-width:1;"/><line style="stroke:#181818;stroke-width:1;" x1="28.9551" x2="271.9553" y1="315.3906" y2="315.3906"/><text fill="#000000" font-family="sans-serif" font-size="13" lengthAdjust="spacing" textLength="78.0001" x="40.9551" y="310.3247">&#33258;&#21205;&#12391;&#20877;&#36215;&#21205;</text></g><g class="message" data-participant-1="WinUser" data-participant-2="WinUser"><line style="stroke:#181818;stroke-width:1;" x1="23.9551" x2="65.9551" y1="344.5234" y2="344.5234"/><line style="stroke:#181818;stroke-width:1;" x1="65.9551" x2="65.9551" y1="344.5234" y2="357.5234"/><line style="stroke:#181818;stroke-width:1;" x1="24.9551" x2="65.9551" y1="357.5234" y2="357.5234"/><polygon fill="#181818" points="34.9551,353.5234,24.9551,357.5234,34.9551,361.5234,30.9551,357.5234" style="stroke:#181818;stroke-width:1;"/><text fill="#000000" font-family="sans-serif" font-size="13" lengthAdjust="spacing" textLength="91.0001" x="30.9551" y="339.4575">&#19981;&#28288;&#12539;&#12473;&#12488;&#12524;&#12473;</text></g><rect fill="#EEEEEE" height="3" style="stroke:#EEEEEE;stroke-width:1;" width="519.0001" x="0" y="386.0898"/><line style="stroke:#000000;stroke-width:1;" x1="0" x2="519.0001" y1="386.0898" y2="386.0898"/><line style="stroke:#000000;stroke-width:1;" x1="0" x2="519.0001" y1="389.0898" y2="389.0898"/><rect fill="#EEEEEE" height="23.1328" style="stroke:#000000;stroke-width:2;" width="175.1608" x="171.9197" y="375.5234"/><text fill="#000000" font-family="sans-serif" font-size="13" font-weight="bold" lengthAdjust="spacing" textLength="156.6349" x="177.9197" y="391.5903">Linux&#12398;&#12450;&#12483;&#12503;&#12487;&#12540;&#12488;&#20307;&#39443;</text><g class="message" data-participant-1="LinuxUser" data-participant-2="LinuxOS"><polygon fill="#181818" points="359.573,425.7891,369.573,429.7891,359.573,433.7891,363.573,429.7891" style="stroke:#181818;stroke-width:1;"/><line style="stroke:#181818;stroke-width:1;" x1="128.9552" x2="365.573" y1="429.7891" y2="429.7891"/><text fill="#000000" font-family="sans-serif" font-size="13" lengthAdjust="spacing" textLength="42.9165" x="135.9552" y="424.7231">PC&#36215;&#21205;</text></g><g class="message" data-participant-1="LinuxOS" data-participant-2="LinuxUser"><polygon fill="#181818" points="139.9552,454.9219,129.9552,458.9219,139.9552,462.9219,135.9552,458.9219" style="stroke:#181818;stroke-width:1;"/><line style="stroke:#181818;stroke-width:1;" x1="133.9552" x2="370.573" y1="458.9219" y2="458.9219"/><text fill="#000000" font-family="sans-serif" font-size="13" lengthAdjust="spacing" textLength="192.5435" x="145.9552" y="453.856">`apt update &amp;&amp; apt upgrade`</text></g><g class="message" data-participant-1="LinuxOS" data-participant-2="LinuxUser"><polygon fill="#181818" points="139.9552,484.0547,129.9552,488.0547,139.9552,492.0547,135.9552,488.0547" style="stroke:#181818;stroke-width:1;"/><line style="stroke:#181818;stroke-width:1;" x1="133.9552" x2="370.573" y1="488.0547" y2="488.0547"/><text fill="#000000" font-family="sans-serif" font-size="13" lengthAdjust="spacing" textLength="78.0001" x="145.9552" y="482.9888">&#26356;&#26032;&#20869;&#23481;&#34920;&#31034;</text></g><g class="message" data-participant-1="LinuxUser" data-participant-2="LinuxUser"><line style="stroke:#181818;stroke-width:1;" x1="128.9552" x2="170.9552" y1="517.1875" y2="517.1875"/><line style="stroke:#181818;stroke-width:1;" x1="170.9552" x2="170.9552" y1="517.1875" y2="530.1875"/><line style="stroke:#181818;stroke-width:1;" x1="129.9552" x2="170.9552" y1="530.1875" y2="530.1875"/><polygon fill="#181818" points="139.9552,526.1875,129.9552,530.1875,139.9552,534.1875,135.9552,530.1875" style="stroke:#181818;stroke-width:1;"/><text fill="#000000" font-family="sans-serif" font-size="13" lengthAdjust="spacing" textLength="130.0002" x="135.9552" y="512.1216">&#32013;&#24471;&#12375;&#12390;&#12450;&#12483;&#12503;&#12487;&#12540;&#12488;</text></g><rect fill="#EEEEEE" height="3" style="stroke:#EEEEEE;stroke-width:1;" width="519.0001" x="0" y="558.7539"/><line style="stroke:#000000;stroke-width:1;" x1="0" x2="519.0001" y1="558.7539" y2="558.7539"/><line style="stroke:#000000;stroke-width:1;" x1="0" x2="519.0001" y1="561.7539" y2="561.7539"/><rect fill="#EEEEEE" height="23.1328" style="stroke:#000000;stroke-width:2;" width="252.5262" x="133.237" y="548.1875"/><text fill="#000000" font-family="sans-serif" font-size="13" font-weight="bold" lengthAdjust="spacing" textLength="234.0003" x="139.237" y="564.2544">&#27083;&#36896;&#30340;&#12394;&#36949;&#12356;&#65288;&#12471;&#12540;&#12465;&#12531;&#12473;&#22259;&#20869;&#12391;&#27604;&#36611;&#65289;</text><path d="M277,586.3203 L277,641.3203 L402,641.3203 L402,596.3203 L392,586.3203 L277,586.3203" fill="#FEFFDD" style="stroke:#181818;stroke-width:0.5;"/><path d="M392,586.3203 L392,596.3203 L402,596.3203 L392,586.3203" fill="#FEFFDD" style="stroke:#181818;stroke-width:0.5;"/><text fill="#000000" font-family="sans-serif" font-size="13" lengthAdjust="spacing" textLength="78.0001" x="283" y="603.3872">&#24375;&#21046;&#30340;&#12394;&#26356;&#26032;</text><text fill="#000000" font-family="sans-serif" font-size="13" lengthAdjust="spacing" textLength="104.0001" x="283" y="618.52">&#19981;&#36879;&#26126;&#12394;&#22793;&#26356;&#20869;&#23481;</text><text fill="#000000" font-family="sans-serif" font-size="13" lengthAdjust="spacing" textLength="104.0001" x="283" y="633.6528">&#20877;&#36215;&#21205;&#12394;&#12393;&#12398;&#19981;&#23433;</text><path d="M376,651.7188 L376,706.7188 L514,706.7188 L514,661.7188 L504,651.7188 L376,651.7188" fill="#FEFFDD" style="stroke:#181818;stroke-width:0.5;"/><path d="M504,651.7188 L504,661.7188 L514,661.7188 L504,651.7188" fill="#FEFFDD" style="stroke:#181818;stroke-width:0.5;"/><text fill="#000000" font-family="sans-serif" font-size="13" lengthAdjust="spacing" textLength="117.0001" x="382" y="668.7856">&#25163;&#21205;&#12363;&#33258;&#21205;&#21270;&#12391;&#12365;&#12427;</text><text fill="#000000" font-family="sans-serif" font-size="13" lengthAdjust="spacing" textLength="91.0001" x="382" y="683.9185">&#36879;&#26126;&#12394;&#26356;&#26032;&#20869;&#23481;</text><text fill="#000000" font-family="sans-serif" font-size="13" lengthAdjust="spacing" textLength="65.0001" x="382" y="699.0513">&#33258;&#30001;&#12394;&#35373;&#23450;</text><!--SRC=[XL7BJjj05DtxAqOisFK7aCAcsqfKGeXD5bWafPOg9t9CopBZuP7811P0g08I3uKc1H90GCF3z6TkPcolyWkzdh530ADAivWvS-wvvvvh6_QtF9arp5pXHubyBv5FXhcuD470EGR6WEq2MmFc0QlqdxR2zXRGhhYbuAnhcZvl5omoKyfRH2z54j7r5IhL95xKBTkODugwQPEnfD_Kz5XSEpNzaY4Bat_vG8QMoIHMqSTx5aaceyLko8T99KucoEUFmMsFkpkQ0jIF9ALD6vOR_i596fTxFLxvar9HTtdBrSo2dIUMiV3L9eKl8sNzftrnqkdVTO2UHkRfsS2ZQVh1sYcw1DhYgxLdnoFJ989tDV5G1lO8pZss1tQE5ncHZEi_0GqN4ud6-Ow6b439RznqJY_QPB6Oqt78yN6YNWkMdilFlLSYzcv4_PAlhl3kVN3KzfiFASrZhdzJutztWUBvzTQz74wqtB1yw3UMCSUGOaxB0wy2JY-YE5V0hZ45ldUD_J12SR4TU6pWLQEHtsn6JgpMgVIKrQo9qORbJV5p0p7Uh2Aix6VDuKxa5dzZoCZbtUehyUT0HTMLR5UjbQ_NqHRG6ZXkrXms6SqeQoBLtxv2E6XtUBVn3m00]--></g></svg>