<svg xmlns="http://www.w3.org/2000/svg" xmlns:xlink="http://www.w3.org/1999/xlink" contentStyleType="text/css" data-diagram-type="SEQUENCE" height="664px" preserveAspectRatio="none" style="width:705px;height:664px;background:#FFFFFF;" version="1.1" viewBox="0 0 705 664" width="705px" zoomAndPan="magnify"><defs/><g><rect fill="none" height="236.6719" style="stroke:#000000;stroke-width:1.5;" width="688.513" x="10" y="171.6953"/><g><title>User</title><rect fill="#000000" fill-opacity="0.00000" height="502.7344" width="8" x="34.9551" y="81.2969"/><line style="stroke:#181818;stroke-width:0.5;stroke-dasharray:5.0,5.0;" x1="38" x2="38" y1="81.2969" y2="584.0313"/></g><g><title>Windows10</title><rect fill="#000000" fill-opacity="0.00000" height="502.7344" width="8" x="256.9553" y="81.2969"/><line style="stroke:#181818;stroke-width:0.5;stroke-dasharray:5.0,5.0;" x1="260.6472" x2="260.6472" y1="81.2969" y2="584.0313"/></g><g><title>NixOS</title><rect fill="#000000" fill-opacity="0.00000" height="502.7344" width="8" x="355.4055" y="81.2969"/><line style="stroke:#181818;stroke-width:0.5;stroke-dasharray:5.0,5.0;" x1="359.2634" x2="359.2634" y1="81.2969" y2="584.0313"/></g><g><title>NixOS</title><rect fill="#000000" fill-opacity="0.00000" height="502.7344" width="8" x="443.7624" y="81.2969"/><line style="stroke:#181818;stroke-width:0.5;stroke-dasharray:5.0,5.0;" x1="447.5476" x2="447.5476" y1="81.2969" y2="584.0313"/></g><g><title>NixOS</title><rect fill="#000000" fill-opacity="0.00000" height="502.7344" width="8" x="530.3181" y="81.2969"/><line style="stroke:#181818;stroke-width:0.5;stroke-dasharray:5.0,5.0;" x1="533.9773" x2="533.9773" y1="81.2969" y2="584.0313"/></g><g><title>NixOS</title><rect fill="#000000" fill-opacity="0.00000" height="502.7344" width="8" x="656.2361" y="81.2969"/><line style="stroke:#181818;stroke-width:0.5;stroke-dasharray:5.0,5.0;" x1="659.9593" x2="659.9593" y1="81.2969" y2="584.0313"/></g><g class="participant participant-head" data-participant="User"><text fill="#000000" font-family="sans-serif" font-size="14" lengthAdjust="spacing" textLength="31.9102" x="20" y="77.9951">User</text><ellipse cx="38.9551" cy="13.5" fill="#E2E2F0" rx="8" ry="8" style="stroke:#181818;stroke-width:0.5;"/><path d="M38.9551,21.5 L38.9551,48.5 M25.9551,29.5 L51.9551,29.5 M38.9551,48.5 L25.9551,63.5 M38.9551,48.5 L51.9551,63.5" fill="none" style="stroke:#181818;stroke-width:0.5;"/></g><g class="participant participant-tail" data-participant="User"><text fill="#000000" font-family="sans-serif" font-size="14" lengthAdjust="spacing" textLength="31.9102" x="20" y="596.0264">User</text><ellipse cx="38.9551" cy="607.8281" fill="#E2E2F0" rx="8" ry="8" style="stroke:#181818;stroke-width:0.5;"/><path d="M38.9551,615.8281 L38.9551,642.8281 M25.9551,623.8281 L51.9551,623.8281 M38.9551,642.8281 L25.9551,657.8281 M38.9551,642.8281 L51.9551,657.8281" fill="none" style="stroke:#181818;stroke-width:0.5;"/></g><g class="participant participant-head" data-participant="Win"><rect fill="#E2E2F0" height="46.5938" rx="2.5" ry="2.5" style="stroke:#181818;stroke-width:0.5;" width="94.6162" x="213.6472" y="33.7031"/><text fill="#000000" font-family="sans-serif" font-size="14" lengthAdjust="spacing" textLength="80.6162" x="220.6472" y="53.6982">Windows10</text><text fill="#000000" font-family="sans-serif" font-size="14" lengthAdjust="spacing" textLength="69.5215" x="226.1946" y="69.9951">(Explorer)</text></g><g class="participant participant-tail" data-participant="Win"><rect fill="#E2E2F0" height="46.5938" rx="2.5" ry="2.5" style="stroke:#181818;stroke-width:0.5;" width="94.6162" x="213.6472" y="583.0313"/><text fill="#000000" font-family="sans-serif" font-size="14" lengthAdjust="spacing" textLength="80.6162" x="220.6472" y="603.0264">Windows10</text><text fill="#000000" font-family="sans-serif" font-size="14" lengthAdjust="spacing" textLength="69.5215" x="226.1946" y="619.3232">(Explorer)</text></g><g class="participant participant-head" data-participant="Naut"><rect fill="#E2E2F0" height="46.5938" rx="2.5" ry="2.5" style="stroke:#181818;stroke-width:0.5;" width="82.2842" x="318.2634" y="33.7031"/><text fill="#000000" font-family="sans-serif" font-size="14" lengthAdjust="spacing" textLength="42.5537" x="338.1286" y="53.6982">NixOS</text><text fill="#000000" font-family="sans-serif" font-size="14" lengthAdjust="spacing" textLength="68.2842" x="325.2634" y="69.9951">(Nautilus)</text></g><g class="participant participant-tail" data-participant="Naut"><rect fill="#E2E2F0" height="46.5938" rx="2.5" ry="2.5" style="stroke:#181818;stroke-width:0.5;" width="82.2842" x="318.2634" y="583.0313"/><text fill="#000000" font-family="sans-serif" font-size="14" lengthAdjust="spacing" textLength="42.5537" x="338.1286" y="603.0264">NixOS</text><text fill="#000000" font-family="sans-serif" font-size="14" lengthAdjust="spacing" textLength="68.2842" x="325.2634" y="619.3232">(Nautilus)</text></g><g class="participant participant-head" data-participant="Thun"><rect fill="#E2E2F0" height="46.5938" rx="2.5" ry="2.5" style="stroke:#181818;stroke-width:0.5;" width="74.4297" x="410.5476" y="33.7031"/><text fill="#000000" font-family="sans-serif" font-size="14" lengthAdjust="spacing" textLength="42.5537" x="426.4856" y="53.6982">NixOS</text><text fill="#000000" font-family="sans-serif" font-size="14" lengthAdjust="spacing" textLength="60.4297" x="417.5476" y="69.9951">(Thunar)</text></g><g class="participant participant-tail" data-participant="Thun"><rect fill="#E2E2F0" height="46.5938" rx="2.5" ry="2.5" style="stroke:#181818;stroke-width:0.5;" width="74.4297" x="410.5476" y="583.0313"/><text fill="#000000" font-family="sans-serif" font-size="14" lengthAdjust="spacing" textLength="42.5537" x="426.4856" y="603.0264">NixOS</text><text fill="#000000" font-family="sans-serif" font-size="14" lengthAdjust="spacing" textLength="60.4297" x="417.5476" y="619.3232">(Thunar)</text></g><g class="participant participant-head" data-participant="Dol"><rect fill="#E2E2F0" height="46.5938" rx="2.5" ry="2.5" style="stroke:#181818;stroke-width:0.5;" width="78.6816" x="494.9773" y="33.7031"/><text fill="#000000" font-family="sans-serif" font-size="14" lengthAdjust="spacing" textLength="42.5537" x="513.0412" y="53.6982">NixOS</text><text fill="#000000" font-family="sans-serif" font-size="14" lengthAdjust="spacing" textLength="64.6816" x="501.9773" y="69.9951">(Dolphin)</text></g><g class="participant participant-tail" data-participant="Dol"><rect fill="#E2E2F0" height="46.5938" rx="2.5" ry="2.5" style="stroke:#181818;stroke-width:0.5;" width="78.6816" x="494.9773" y="583.0313"/><text fill="#000000" font-family="sans-serif" font-size="14" lengthAdjust="spacing" textLength="42.5537" x="513.0412" y="603.0264">NixOS</text><text fill="#000000" font-family="sans-serif" font-size="14" lengthAdjust="spacing" textLength="64.6816" x="501.9773" y="619.3232">(Dolphin)</text></g><g class="participant participant-head" data-participant="NixOS"><rect fill="#E2E2F0" height="30.2969" rx="2.5" ry="2.5" style="stroke:#181818;stroke-width:0.5;" width="56.5537" x="631.9593" y="50"/><text fill="#000000" font-family="sans-serif" font-size="14" lengthAdjust="spacing" textLength="42.5537" x="638.9593" y="69.9951">NixOS</text></g><g class="participant participant-tail" data-participant="NixOS"><rect fill="#E2E2F0" height="30.2969" rx="2.5" ry="2.5" style="stroke:#181818;stroke-width:0.5;" width="56.5537" x="631.9593" y="583.0313"/><text fill="#000000" font-family="sans-serif" font-size="14" lengthAdjust="spacing" textLength="42.5537" x="638.9593" y="603.0264">NixOS</text></g><g class="message" data-participant-1="User" data-participant-2="Win"><polygon fill="#181818" points="248.9553,123.5625,258.9553,127.5625,248.9553,131.5625,252.9553,127.5625" style="stroke:#181818;stroke-width:1;"/><line style="stroke:#181818;stroke-width:1;" x1="38.9551" x2="254.9553" y1="127.5625" y2="127.5625"/><text fill="#000000" font-family="sans-serif" font-size="13" lengthAdjust="spacing" textLength="78.0001" x="45.9551" y="107.3638">&#12501;&#12449;&#12452;&#12523;&#25805;&#20316;</text><text fill="#000000" font-family="sans-serif" font-size="13" lengthAdjust="spacing" textLength="75.1436" x="45.9551" y="122.4966">(&#24931;&#12428;&#12390;&#12356;&#12427;)</text></g><g class="message" data-participant-1="User" data-participant-2="NixOS"><polygon fill="#181818" points="648.2361,152.6953,658.2361,156.6953,648.2361,160.6953,652.2361,156.6953" style="stroke:#181818;stroke-width:1;"/><line style="stroke:#181818;stroke-width:1;" x1="38.9551" x2="654.2361" y1="156.6953" y2="156.6953"/><text fill="#000000" font-family="sans-serif" font-size="13" lengthAdjust="spacing" textLength="52.0001" x="45.9551" y="151.6294">&#31227;&#34892;&#38283;&#22987;</text></g><path d="M10,171.6953 L74.4429,171.6953 L74.4429,178.8281 L64.4429,188.8281 L10,188.8281 L10,171.6953" fill="#EEEEEE" style="stroke:#000000;stroke-width:1.5;"/><rect fill="none" height="236.6719" style="stroke:#000000;stroke-width:1.5;" width="688.513" x="10" y="171.6953"/><text fill="#000000" font-family="sans-serif" font-size="13" font-weight="bold" lengthAdjust="spacing" textLength="19.4429" x="25" y="184.7622">alt</text><text fill="#000000" font-family="sans-serif" font-size="11" font-weight="bold" lengthAdjust="spacing" textLength="89.1008" x="89.4429" y="183.9058">[GNOME&#12434;&#36984;&#25246;]</text><g class="message" data-participant-1="NixOS" data-participant-2="Naut"><polygon fill="#181818" points="370.4055,205.9609,360.4055,209.9609,370.4055,213.9609,366.4055,209.9609" style="stroke:#181818;stroke-width:1;"/><line style="stroke:#181818;stroke-width:1;" x1="364.4055" x2="659.2361" y1="209.9609" y2="209.9609"/><text fill="#000000" font-family="sans-serif" font-size="13" lengthAdjust="spacing" textLength="92.2632" x="376.4055" y="204.895">Nautilus&#12434;&#36215;&#21205;</text></g><g class="message" data-participant-1="User" data-participant-2="Naut"><polygon fill="#181818" points="347.4055,235.0938,357.4055,239.0938,347.4055,243.0938,351.4055,239.0938" style="stroke:#181818;stroke-width:1;"/><line style="stroke:#181818;stroke-width:1;" x1="38.9551" x2="353.4055" y1="239.0938" y2="239.0938"/><text fill="#000000" font-family="sans-serif" font-size="13" lengthAdjust="spacing" textLength="208.0002" x="45.9551" y="234.0278">&#12300;&#35211;&#12383;&#30446;&#36949;&#12358;&#8230;&#65311;&#12391;&#12418;&#25805;&#20316;&#12391;&#12365;&#12427;&#12301;</text></g><line style="stroke:#000000;stroke-width:1;stroke-dasharray:2.0,2.0;" x1="10" x2="698.513" y1="248.0938" y2="248.0938"/><text fill="#000000" font-family="sans-serif" font-size="11" font-weight="bold" lengthAdjust="spacing" textLength="70.302" x="15" y="258.3042">[Xfce&#12434;&#36984;&#25246;]</text><g class="message" data-participant-1="NixOS" data-participant-2="Thun"><polygon fill="#181818" points="458.7624,279.0313,448.7624,283.0313,458.7624,287.0313,454.7624,283.0313" style="stroke:#181818;stroke-width:1;"/><line style="stroke:#181818;stroke-width:1;" x1="452.7624" x2="659.2361" y1="283.0313" y2="283.0313"/><text fill="#000000" font-family="sans-serif" font-size="13" lengthAdjust="spacing" textLength="84.9698" x="464.7624" y="277.9653">Thunar&#12434;&#36215;&#21205;</text></g><g class="message" data-participant-1="User" data-participant-2="Thun"><polygon fill="#181818" points="435.7624,323.2969,445.7624,327.2969,435.7624,331.2969,439.7624,327.2969" style="stroke:#181818;stroke-width:1;"/><line style="stroke:#181818;stroke-width:1;" x1="38.9551" x2="441.7624" y1="327.2969" y2="327.2969"/><text fill="#000000" font-family="sans-serif" font-size="13" lengthAdjust="spacing" textLength="65.0001" x="45.9551" y="307.0981">&#12300;&#36605;&#12356;&#12369;&#12393;</text><text fill="#000000" font-family="sans-serif" font-size="13" lengthAdjust="spacing" textLength="91.0001" x="45.9551" y="322.231">&#27231;&#33021;&#23569;&#12394;&#12356;&#65311;&#12301;</text></g><line style="stroke:#000000;stroke-width:1;stroke-dasharray:2.0,2.0;" x1="10" x2="698.513" y1="336.2969" y2="336.2969"/><text fill="#000000" font-family="sans-serif" font-size="11" font-weight="bold" lengthAdjust="spacing" textLength="68.2234" x="15" y="346.5073">[KDE&#12434;&#36984;&#25246;]</text><g class="message" data-participant-1="NixOS" data-participant-2="Dol"><polygon fill="#181818" points="545.3181,367.2344,535.3181,371.2344,545.3181,375.2344,541.3181,371.2344" style="stroke:#181818;stroke-width:1;"/><line style="stroke:#181818;stroke-width:1;" x1="539.3181" x2="659.2361" y1="371.2344" y2="371.2344"/><text fill="#000000" font-family="sans-serif" font-size="13" lengthAdjust="spacing" textLength="88.918" x="551.3181" y="366.1685">Dolphin&#12434;&#36215;&#21205;</text></g><g class="message" data-participant-1="User" data-participant-2="Dol"><polygon fill="#181818" points="522.3181,396.3672,532.3181,400.3672,522.3181,404.3672,526.3181,400.3672" style="stroke:#181818;stroke-width:1;"/><line style="stroke:#181818;stroke-width:1;" x1="38.9551" x2="528.3181" y1="400.3672" y2="400.3672"/><text fill="#000000" font-family="sans-serif" font-size="13" lengthAdjust="spacing" textLength="208.0002" x="45.9551" y="395.3013">&#12300;&#27231;&#33021;&#22810;&#12356;&#65281;&#12391;&#12418;&#12385;&#12423;&#12387;&#12392;&#37325;&#12356;&#65311;&#12301;</text></g><g class="message" data-participant-1="User" data-participant-2="NixOS"><polygon fill="#181818" points="648.2361,432.5,658.2361,436.5,648.2361,440.5,652.2361,436.5" style="stroke:#181818;stroke-width:1;"/><line style="stroke:#181818;stroke-width:1;" x1="38.9551" x2="654.2361" y1="436.5" y2="436.5"/><text fill="#000000" font-family="sans-serif" font-size="13" lengthAdjust="spacing" textLength="148.2243" x="45.9551" y="431.4341">&#35079;&#25968;&#12398;DE&#12434;&#20837;&#12428;&#12390;&#12375;&#12414;&#12358;</text></g><g class="message" data-participant-1="NixOS" data-participant-2="Naut"><polygon fill="#181818" points="370.4055,461.6328,360.4055,465.6328,370.4055,469.6328,366.4055,465.6328" style="stroke:#181818;stroke-width:1;"/><line style="stroke:#181818;stroke-width:1;" x1="364.4055" x2="659.2361" y1="465.6328" y2="465.6328"/><text fill="#000000" font-family="sans-serif" font-size="13" lengthAdjust="spacing" textLength="105.2632" x="376.4055" y="460.5669">Nautilus&#12418;&#36215;&#21205;&#21487;</text></g><g class="message" data-participant-1="NixOS" data-participant-2="Thun"><polygon fill="#181818" points="458.7624,490.7656,448.7624,494.7656,458.7624,498.7656,454.7624,494.7656" style="stroke:#181818;stroke-width:1;"/><line style="stroke:#181818;stroke-width:1;" x1="452.7624" x2="659.2361" y1="494.7656" y2="494.7656"/><text fill="#000000" font-family="sans-serif" font-size="13" lengthAdjust="spacing" textLength="97.9698" x="464.7624" y="489.6997">Thunar&#12418;&#36215;&#21205;&#21487;</text></g><g class="message" data-participant-1="NixOS" data-participant-2="Dol"><polygon fill="#181818" points="545.3181,519.8984,535.3181,523.8984,545.3181,527.8984,541.3181,523.8984" style="stroke:#181818;stroke-width:1;"/><line style="stroke:#181818;stroke-width:1;" x1="539.3181" x2="659.2361" y1="523.8984" y2="523.8984"/><text fill="#000000" font-family="sans-serif" font-size="13" lengthAdjust="spacing" textLength="101.918" x="551.3181" y="518.8325">Dolphin&#12418;&#36215;&#21205;&#21487;</text></g><g class="message" data-participant-1="User" data-participant-2="User"><line style="stroke:#181818;stroke-width:1;" x1="38.9551" x2="80.9551" y1="553.0313" y2="553.0313"/><line style="stroke:#181818;stroke-width:1;" x1="80.9551" x2="80.9551" y1="553.0313" y2="566.0313"/><line style="stroke:#181818;stroke-width:1;" x1="39.9551" x2="80.9551" y1="566.0313" y2="566.0313"/><polygon fill="#181818" points="49.9551,562.0313,39.9551,566.0313,49.9551,570.0313,45.9551,566.0313" style="stroke:#181818;stroke-width:1;"/><text fill="#000000" font-family="sans-serif" font-size="13" lengthAdjust="spacing" textLength="208.0002" x="45.9551" y="547.9653">&#12300;&#12393;&#12428;&#12364;&#27161;&#28310;&#12394;&#12398;&#12363;&#12431;&#12363;&#12425;&#12394;&#12356;&#8230;&#12301;</text></g><!--SRC=[TL4_Jzj05D_lKvoOcW6fNJimWHXGmz2YCh1OYH6MB2Uo7JLZtWM8MYUA02K8g1f5f0cqKfe5WGZfX-5Xuqny1TxT9IWjZeVpFVlttk_FCp9-pkKRdkcolE7wLiRA6uxF5pvRJZRtnNltTijvirBCspdNT5CBtF0u_VaNchQAwny9bZOAlcKNF0sJLJBkqqx1CIR3v3qPjPopypkMes5KC2P5yiKbAO2_vrXke6YZw63vTtHKUnXzfwPexnn55Q6Bi8iYIBtqgAdKzTWRnktgk1c4lO0nm_RvQdhzmmgAmp7SHDz-C4wF1iikya1DKsE4Yg-kmw2XK2-ZDGXBrRWR8BGUp_fZQ23itvUwJtSjX1uAeHNAEzH869PgpBGzaszkPymvv38QcglJIgQUG2JrS2Gjmm72vPOJNRRYyYWSKFMBFaiLKyArvNbcAMEQDOazcKz3Y6v2q3bLqq5xHA1rL13E4Ix6bTeCiPDbhpOHTofHOu3GLuB2lP_JnHqZ_ANqsFmj22qjhFzXyz9AWlndS0OorQRUoY35gFHKeukJwBQfSkmZ12ZgwlogawKLay5d]--></g></svg>