<svg xmlns="http://www.w3.org/2000/svg" xmlns:xlink="http://www.w3.org/1999/xlink" contentStyleType="text/css" data-diagram-type="ACTIVITY" height="686px" preserveAspectRatio="none" style="width:417px;height:686px;background:#FFFFFF;" version="1.1" viewBox="0 0 417 686" width="417px" zoomAndPan="magnify"><defs/><g><ellipse cx="195.5854" cy="20" fill="#222222" rx="10" ry="10" style="stroke:#222222;stroke-width:1;"/><rect fill="#F1F1F1" height="33.9688" rx="12.5" ry="12.5" style="stroke:#181818;stroke-width:0.5;" width="128.0008" x="131.585" y="50"/><text fill="#000000" font-family="sans-serif" font-size="12" lengthAdjust="spacing" textLength="108.0008" x="141.585" y="71.1387">&#12452;&#12513;&#12540;&#12472;&#12434;&#21462;&#24471;&#12377;&#12427;</text><rect fill="#F1F1F1" height="33.9688" rx="12.5" ry="12.5" style="stroke:#181818;stroke-width:0.5;" width="158.7446" x="116.2131" y="103.9688"/><text fill="#000000" font-family="sans-serif" font-size="12" lengthAdjust="spacing" textLength="138.7446" x="126.2131" y="125.1074">podman pull &#12452;&#12513;&#12540;&#12472;&#21517;</text><rect fill="#F1F1F1" height="33.9688" rx="12.5" ry="12.5" style="stroke:#181818;stroke-width:0.5;" width="140.0009" x="125.585" y="157.9375"/><text fill="#000000" font-family="sans-serif" font-size="12" lengthAdjust="spacing" textLength="120.0009" x="135.585" y="179.0762">&#12467;&#12531;&#12486;&#12490;&#12434;&#20316;&#25104;&#65286;&#23455;&#34892;</text><rect fill="#F1F1F1" height="33.9688" rx="12.5" ry="12.5" style="stroke:#181818;stroke-width:0.5;" width="214.3735" x="88.3987" y="211.9063"/><text fill="#000000" font-family="sans-serif" font-size="12" lengthAdjust="spacing" textLength="194.3735" x="98.3987" y="233.0449">podman run [options] &#12452;&#12513;&#12540;&#12472;&#21517;</text><polygon fill="#F1F1F1" points="168.0856,265.875,223.0852,265.875,235.0852,277.875,223.0852,289.875,168.0856,289.875,156.0856,277.875,168.0856,265.875" style="stroke:#181818;stroke-width:0.5;"/><text fill="#000000" font-family="sans-serif" font-size="11" lengthAdjust="spacing" textLength="54.9996" x="168.0856" y="281.6831">&#32066;&#20102;&#12375;&#12383;&#65311;</text><text fill="#000000" font-family="sans-serif" font-size="11" lengthAdjust="spacing" textLength="19.2178" x="136.8678" y="275.2808">Yes</text><text fill="#000000" font-family="sans-serif" font-size="11" lengthAdjust="spacing" textLength="14.9585" x="235.0852" y="275.2808">No</text><rect fill="#F1F1F1" height="33.9688" rx="12.5" ry="12.5" style="stroke:#181818;stroke-width:0.5;" width="80.0005" x="51.6992" y="299.875"/><text fill="#000000" font-family="sans-serif" font-size="12" lengthAdjust="spacing" textLength="60.0005" x="61.6992" y="321.0137">&#12525;&#12464;&#12434;&#30906;&#35469;</text><rect fill="#F1F1F1" height="33.9688" rx="12.5" ry="12.5" style="stroke:#181818;stroke-width:0.5;" width="161.3989" x="11" y="353.8438"/><text fill="#000000" font-family="sans-serif" font-size="12" lengthAdjust="spacing" textLength="141.3989" x="21" y="374.9824">podman logs &#12467;&#12531;&#12486;&#12490;&#21517;</text><rect fill="#F1F1F1" height="33.9688" rx="12.5" ry="12.5" style="stroke:#181818;stroke-width:0.5;" width="92.0005" x="45.6992" y="407.8125"/><text fill="#000000" font-family="sans-serif" font-size="12" lengthAdjust="spacing" textLength="72.0005" x="55.6992" y="428.9512">&#19981;&#35201;&#12394;&#12425;&#21066;&#38500;</text><rect fill="#F1F1F1" height="33.9688" rx="12.5" ry="12.5" style="stroke:#181818;stroke-width:0.5;" width="153.477" x="14.9609" y="461.7813"/><text fill="#000000" font-family="sans-serif" font-size="12" lengthAdjust="spacing" textLength="133.477" x="24.9609" y="482.9199">podman rm &#12467;&#12531;&#12486;&#12490;&#21517;</text><rect fill="#F1F1F1" height="33.9688" rx="12.5" ry="12.5" style="stroke:#181818;stroke-width:0.5;" width="104.0006" x="247.4711" y="299.875"/><text fill="#000000" font-family="sans-serif" font-size="12" lengthAdjust="spacing" textLength="84.0006" x="257.4711" y="321.0137">&#12467;&#12531;&#12486;&#12490;&#12434;&#25805;&#20316;</text><rect fill="#F1F1F1" height="33.9688" rx="12.5" ry="12.5" style="stroke:#181818;stroke-width:0.5;" width="214.145" x="192.3989" y="353.8438"/><text fill="#000000" font-family="sans-serif" font-size="12" lengthAdjust="spacing" textLength="194.145" x="202.3989" y="374.9824">podman exec -it &#12467;&#12531;&#12486;&#12490;&#21517; bash</text><polygon fill="#F1F1F1" points="195.5854,501.75,207.5854,513.75,195.5854,525.75,183.5854,513.75,195.5854,501.75" style="stroke:#181818;stroke-width:0.5;"/><rect fill="#F1F1F1" height="33.9688" rx="12.5" ry="12.5" style="stroke:#181818;stroke-width:0.5;" width="200.0014" x="95.5847" y="545.75"/><text fill="#000000" font-family="sans-serif" font-size="12" lengthAdjust="spacing" textLength="180.0014" x="105.5847" y="566.8887">&#19981;&#35201;&#12394;&#12452;&#12513;&#12540;&#12472;&#12420;&#12467;&#12531;&#12486;&#12490;&#12398;&#25475;&#38500;</text><rect fill="#F1F1F1" height="33.9688" rx="12.5" ry="12.5" style="stroke:#181818;stroke-width:0.5;" width="155.3809" x="117.895" y="599.7188"/><text fill="#000000" font-family="sans-serif" font-size="12" lengthAdjust="spacing" textLength="135.3809" x="127.895" y="620.8574">podman system prune</text><ellipse cx="195.5854" cy="664.6875" fill="none" rx="11" ry="11" style="stroke:#222222;stroke-width:1;"/><ellipse cx="195.5854" cy="664.6875" fill="#222222" rx="6" ry="6" style="stroke:#222222;stroke-width:1;"/><line style="stroke:#181818;stroke-width:1;" x1="195.5854" x2="195.5854" y1="30" y2="50"/><polygon fill="#181818" points="191.5854,40,195.5854,50,199.5854,40,195.5854,44" style="stroke:#181818;stroke-width:1;"/><line style="stroke:#181818;stroke-width:1;" x1="195.5854" x2="195.5854" y1="83.9688" y2="103.9688"/><polygon fill="#181818" points="191.5854,93.9688,195.5854,103.9688,199.5854,93.9688,195.5854,97.9688" style="stroke:#181818;stroke-width:1;"/><line style="stroke:#181818;stroke-width:1;" x1="195.5854" x2="195.5854" y1="137.9375" y2="157.9375"/><polygon fill="#181818" points="191.5854,147.9375,195.5854,157.9375,199.5854,147.9375,195.5854,151.9375" style="stroke:#181818;stroke-width:1;"/><line style="stroke:#181818;stroke-width:1;" x1="195.5854" x2="195.5854" y1="191.9063" y2="211.9063"/><polygon fill="#181818" points="191.5854,201.9063,195.5854,211.9063,199.5854,201.9063,195.5854,205.9063" style="stroke:#181818;stroke-width:1;"/><line style="stroke:#181818;stroke-width:1;" x1="91.6994" x2="91.6994" y1="333.8438" y2="353.8438"/><polygon fill="#181818" points="87.6994,343.8438,91.6994,353.8438,95.6994,343.8438,91.6994,347.8438" style="stroke:#181818;stroke-width:1;"/><line style="stroke:#181818;stroke-width:1;" x1="91.6994" x2="91.6994" y1="387.8125" y2="407.8125"/><polygon fill="#181818" points="87.6994,397.8125,91.6994,407.8125,95.6994,397.8125,91.6994,401.8125" style="stroke:#181818;stroke-width:1;"/><line style="stroke:#181818;stroke-width:1;" x1="91.6994" x2="91.6994" y1="441.7813" y2="461.7813"/><polygon fill="#181818" points="87.6994,451.7813,91.6994,461.7813,95.6994,451.7813,91.6994,455.7813" style="stroke:#181818;stroke-width:1;"/><line style="stroke:#181818;stroke-width:1;" x1="299.4714" x2="299.4714" y1="333.8438" y2="353.8438"/><polygon fill="#181818" points="295.4714,343.8438,299.4714,353.8438,303.4714,343.8438,299.4714,347.8438" style="stroke:#181818;stroke-width:1;"/><line style="stroke:#181818;stroke-width:1;" x1="156.0856" x2="91.6994" y1="277.875" y2="277.875"/><line style="stroke:#181818;stroke-width:1;" x1="91.6994" x2="91.6994" y1="277.875" y2="299.875"/><polygon fill="#181818" points="87.6994,289.875,91.6994,299.875,95.6994,289.875,91.6994,293.875" style="stroke:#181818;stroke-width:1;"/><line style="stroke:#181818;stroke-width:1;" x1="235.0852" x2="299.4714" y1="277.875" y2="277.875"/><line style="stroke:#181818;stroke-width:1;" x1="299.4714" x2="299.4714" y1="277.875" y2="299.875"/><polygon fill="#181818" points="295.4714,289.875,299.4714,299.875,303.4714,289.875,299.4714,293.875" style="stroke:#181818;stroke-width:1;"/><line style="stroke:#181818;stroke-width:1;" x1="91.6994" x2="91.6994" y1="495.75" y2="513.75"/><line style="stroke:#181818;stroke-width:1;" x1="91.6994" x2="183.5854" y1="513.75" y2="513.75"/><polygon fill="#181818" points="173.5854,509.75,183.5854,513.75,173.5854,517.75,177.5854,513.75" style="stroke:#181818;stroke-width:1;"/><line style="stroke:#181818;stroke-width:1;" x1="299.4714" x2="299.4714" y1="387.8125" y2="513.75"/><line style="stroke:#181818;stroke-width:1;" x1="299.4714" x2="207.5854" y1="513.75" y2="513.75"/><polygon fill="#181818" points="217.5854,509.75,207.5854,513.75,217.5854,517.75,213.5854,513.75" style="stroke:#181818;stroke-width:1;"/><line style="stroke:#181818;stroke-width:1;" x1="195.5854" x2="195.5854" y1="245.875" y2="265.875"/><polygon fill="#181818" points="191.5854,255.875,195.5854,265.875,199.5854,255.875,195.5854,259.875" style="stroke:#181818;stroke-width:1;"/><line style="stroke:#181818;stroke-width:1;" x1="195.5854" x2="195.5854" y1="525.75" y2="545.75"/><polygon fill="#181818" points="191.5854,535.75,195.5854,545.75,199.5854,535.75,195.5854,539.75" style="stroke:#181818;stroke-width:1;"/><line style="stroke:#181818;stroke-width:1;" x1="195.5854" x2="195.5854" y1="579.7188" y2="599.7188"/><polygon fill="#181818" points="191.5854,589.7188,195.5854,599.7188,199.5854,589.7188,195.5854,593.7188" style="stroke:#181818;stroke-width:1;"/><line style="stroke:#181818;stroke-width:1;" x1="195.5854" x2="195.5854" y1="633.6875" y2="653.6875"/><polygon fill="#181818" points="191.5854,643.6875,195.5854,653.6875,199.5854,643.6875,195.5854,647.6875" style="stroke:#181818;stroke-width:1;"/><!--SRC=[RP3BIiD058RtUOgpJ1U-GFeExaLSH3krWTp8J46NcP5Wgz6Ye1I4K2ak2XP1X59IN-OaQLpr5JoqYbCLPZMS__ilNDYHC0mBvHZL25MESeRofho-Az_lCHwYl6WQLXYqFDk7iEkwe5-MWxIv5h-YefUWwfEuM3nKvuDLdfJJh1vT_kYZhW_xGIYSmES7_u2SDfZBDrdC4up9F5lbMGD4X_bWxZ7UC00iLCyeNyXa-JYl9oIYlo-w6nnpqADie7HGpDBwASPuWh9NzleVmx6kYxo_AkPo1kPkiF7ShbVTfjHG9x0JTWGxZlZDWKERTmZcjvmspQJ5qCS-s-B7q-fAhHD-q_af5yo3aDPZr8UB8Fm4]--></g></svg>