<svg xmlns="http://www.w3.org/2000/svg" xmlns:xlink="http://www.w3.org/1999/xlink" contentStyleType="text/css" data-diagram-type="DESCRIPTION" height="519px" preserveAspectRatio="none" style="width:726px;height:519px;background:#FFFFFF;" version="1.1" viewBox="0 0 726 519" width="726px" zoomAndPan="magnify"><defs/><g><!--cluster Local PC--><g class="cluster" data-entity="Local PC" data-source-line="1" data-uid="ent0002" id="cluster_Local PC"><path d="M232.07,6 L299.5632,6 A3.75,3.75 0 0 1 302.0632,8.5 L309.0632,28.2969 L435.07,28.2969 A2.5,2.5 0 0 1 437.57,30.7969 L437.57,361.04 A2.5,2.5 0 0 1 435.07,363.54 L232.07,363.54 A2.5,2.5 0 0 1 229.57,361.04 L229.57,8.5 A2.5,2.5 0 0 1 232.07,6" fill="none" style="stroke:#000000;stroke-width:1.5;"/><line style="stroke:#000000;stroke-width:1.5;" x1="229.57" x2="309.0632" y1="28.2969" y2="28.2969"/><text fill="#000000" font-family="sans-serif" font-size="14" font-weight="bold" lengthAdjust="spacing" textLength="66.4932" x="233.57" y="20.9951">Local PC</text></g><!--cluster .git ??????--><g class="cluster" data-entity=".git &#12501;&#12457;&#12523;&#12480;&#20869;&#37096;" data-source-line="7" data-uid="ent0006" id="cluster_.git &#12501;&#12457;&#12523;&#12480;&#20869;&#37096;"><path d="M161.07,415.09 L277.7747,415.09 A3.75,3.75 0 0 1 280.2747,417.59 L287.2747,437.3869 L717.07,437.3869 A2.5,2.5 0 0 1 719.57,439.8869 L719.57,509.89 A2.5,2.5 0 0 1 717.07,512.39 L161.07,512.39 A2.5,2.5 0 0 1 158.57,509.89 L158.57,417.59 A2.5,2.5 0 0 1 161.07,415.09" fill="none" style="stroke:#000000;stroke-width:1.5;"/><line style="stroke:#000000;stroke-width:1.5;" x1="158.57" x2="287.2747" y1="437.3869" y2="437.3869"/><text fill="#000000" font-family="sans-serif" font-size="14" font-weight="bold" lengthAdjust="spacing" textLength="115.7047" x="162.57" y="430.0851">.git &#12501;&#12457;&#12523;&#12480;&#20869;&#37096;</text></g><!--entity Working Directory--><g class="entity" data-entity="Working Directory" data-source-line="2" data-uid="ent0003" id="entity_Working Directory"><rect fill="#F1F1F1" height="46.2969" rx="2.5" ry="2.5" style="stroke:#181818;stroke-width:0.5;" width="167.2031" x="252.97" y="41"/><rect fill="#F1F1F1" height="10" style="stroke:#181818;stroke-width:0.5;" width="15" x="400.1731" y="46"/><rect fill="#F1F1F1" height="2" style="stroke:#181818;stroke-width:0.5;" width="4" x="398.1731" y="48"/><rect fill="#F1F1F1" height="2" style="stroke:#181818;stroke-width:0.5;" width="4" x="398.1731" y="52"/><text fill="#000000" font-family="sans-serif" font-size="14" lengthAdjust="spacing" textLength="127.2031" x="267.97" y="73.9951">Working Directory</text></g><!--entity Staging Area_Index--><g class="entity" data-entity="Staging Area_Index" data-source-line="3" data-uid="ent0004" id="entity_Staging Area_Index"><rect fill="#F1F1F1" height="46.2969" rx="2.5" ry="2.5" style="stroke:#181818;stroke-width:0.5;" width="176.2539" x="245.45" y="168.85"/><rect fill="#F1F1F1" height="10" style="stroke:#181818;stroke-width:0.5;" width="15" x="401.7039" y="173.85"/><rect fill="#F1F1F1" height="2" style="stroke:#181818;stroke-width:0.5;" width="4" x="399.7039" y="175.85"/><rect fill="#F1F1F1" height="2" style="stroke:#181818;stroke-width:0.5;" width="4" x="399.7039" y="179.85"/><text fill="#000000" font-family="sans-serif" font-size="14" lengthAdjust="spacing" textLength="136.2539" x="260.45" y="201.8451">Staging Area_Index</text></g><!--entity Local Repository--><g class="entity" data-entity="Local Repository" data-source-line="4" data-uid="ent0005" id="entity_Local Repository"><rect fill="#F1F1F1" height="46.2969" rx="2.5" ry="2.5" style="stroke:#181818;stroke-width:0.5;" width="156.0537" x="255.55" y="301.25"/><rect fill="#F1F1F1" height="10" style="stroke:#181818;stroke-width:0.5;" width="15" x="391.6037" y="306.25"/><rect fill="#F1F1F1" height="2" style="stroke:#181818;stroke-width:0.5;" width="4" x="389.6037" y="308.25"/><rect fill="#F1F1F1" height="2" style="stroke:#181818;stroke-width:0.5;" width="4" x="389.6037" y="312.25"/><text fill="#000000" font-family="sans-serif" font-size="14" lengthAdjust="spacing" textLength="116.0537" x="270.55" y="334.2451">Local Repository</text></g><!--entity index????--><g class="entity" data-entity="index&#12501;&#12449;&#12452;&#12523;" data-source-line="8" data-uid="ent0007" id="entity_index&#12501;&#12449;&#12452;&#12523;"><rect fill="#F1F1F1" height="46.2969" rx="2.5" ry="2.5" style="stroke:#181818;stroke-width:0.5;" width="134.5476" x="174.3" y="450.09"/><rect fill="#F1F1F1" height="10" style="stroke:#181818;stroke-width:0.5;" width="15" x="288.8476" y="455.09"/><rect fill="#F1F1F1" height="2" style="stroke:#181818;stroke-width:0.5;" width="4" x="286.8476" y="457.09"/><rect fill="#F1F1F1" height="2" style="stroke:#181818;stroke-width:0.5;" width="4" x="286.8476" y="461.09"/><text fill="#000000" font-family="sans-serif" font-size="14" lengthAdjust="spacing" textLength="94.5476" x="189.3" y="483.0851">index&#12501;&#12449;&#12452;&#12523;</text></g><!--entity objects??????--><g class="entity" data-entity="objects&#12487;&#12451;&#12524;&#12463;&#12488;&#12522;" data-source-line="9" data-uid="ent0008" id="entity_objects&#12487;&#12451;&#12524;&#12463;&#12488;&#12522;"><rect fill="#F1F1F1" height="46.2969" rx="2.5" ry="2.5" style="stroke:#181818;stroke-width:0.5;" width="174.4352" x="343.35" y="450.09"/><rect fill="#F1F1F1" height="10" style="stroke:#181818;stroke-width:0.5;" width="15" x="497.7852" y="455.09"/><rect fill="#F1F1F1" height="2" style="stroke:#181818;stroke-width:0.5;" width="4" x="495.7852" y="457.09"/><rect fill="#F1F1F1" height="2" style="stroke:#181818;stroke-width:0.5;" width="4" x="495.7852" y="461.09"/><text fill="#000000" font-family="sans-serif" font-size="14" lengthAdjust="spacing" textLength="134.4352" x="358.35" y="483.0851">objects&#12487;&#12451;&#12524;&#12463;&#12488;&#12522;</text></g><!--entity refs??????--><g class="entity" data-entity="refs&#12487;&#12451;&#12524;&#12463;&#12488;&#12522;" data-source-line="10" data-uid="ent0009" id="entity_refs&#12487;&#12451;&#12524;&#12463;&#12488;&#12522;"><rect fill="#F1F1F1" height="46.2969" rx="2.5" ry="2.5" style="stroke:#181818;stroke-width:0.5;" width="150.5914" x="553.28" y="450.09"/><rect fill="#F1F1F1" height="10" style="stroke:#181818;stroke-width:0.5;" width="15" x="683.8714" y="455.09"/><rect fill="#F1F1F1" height="2" style="stroke:#181818;stroke-width:0.5;" width="4" x="681.8714" y="457.09"/><rect fill="#F1F1F1" height="2" style="stroke:#181818;stroke-width:0.5;" width="4" x="681.8714" y="461.09"/><text fill="#000000" font-family="sans-serif" font-size="14" lengthAdjust="spacing" textLength="110.5914" x="568.28" y="483.0851">refs&#12487;&#12451;&#12524;&#12463;&#12488;&#12522;</text></g><g class="entity" data-entity="N1" data-source-line="21" data-uid="ent0015" id="entity_N1"><path d="M457.07,164.3 L457.07,219.6984 A0,0 0 0 0 457.07,219.6984 L608.0702,219.6984 A0,0 0 0 0 608.0702,219.6984 L608.0702,174.3 L598.0702,164.3 L494.33,164.3 L371.61,87.65 L486.33,164.3 L457.07,164.3 A0,0 0 0 0 457.07,164.3" fill="#FEFFDD" style="stroke:#181818;stroke-width:0.5;"/><path d="M598.0702,164.3 L598.0702,174.3 L608.0702,174.3 L598.0702,164.3" fill="#FEFFDD" style="stroke:#181818;stroke-width:0.5;"/><text fill="#000000" font-family="sans-serif" font-size="13" lengthAdjust="spacing" textLength="122.4971" x="463.07" y="181.3669">Working Directory:</text><text fill="#000000" font-family="sans-serif" font-size="13" lengthAdjust="spacing" textLength="130.0002" x="463.07" y="196.4997">&#26222;&#36890;&#12395;&#35211;&#12360;&#12427;&#12501;&#12457;&#12523;&#12480;</text><text fill="#000000" font-family="sans-serif" font-size="13" lengthAdjust="spacing" textLength="78.0001" x="463.07" y="211.6325">&#12501;&#12449;&#12452;&#12523;&#26412;&#20307;</text></g><g class="entity" data-entity="N2" data-source-line="27" data-uid="ent0016" id="entity_N2"><path d="M453.73,296.69 L453.73,352.0884 A0,0 0 0 0 453.73,352.0884 L613.4072,352.0884 A0,0 0 0 0 613.4072,352.0884 L613.4072,306.69 L603.4072,296.69 L496.03,296.69 L367.95,215.41 L488.03,296.69 L453.73,296.69 A0,0 0 0 0 453.73,296.69" fill="#FEFFDD" style="stroke:#181818;stroke-width:0.5;"/><path d="M603.4072,296.69 L603.4072,306.69 L613.4072,306.69 L603.4072,296.69" fill="#FEFFDD" style="stroke:#181818;stroke-width:0.5;"/><text fill="#000000" font-family="sans-serif" font-size="13" lengthAdjust="spacing" textLength="138.6772" x="459.73" y="313.7569">Staging Area (Index):</text><text fill="#000000" font-family="sans-serif" font-size="13" lengthAdjust="spacing" textLength="100.2676" x="459.73" y="328.8897">.git/index&#12395;&#23384;&#22312;</text><text fill="#000000" font-family="sans-serif" font-size="13" lengthAdjust="spacing" textLength="84.5635" x="459.73" y="344.0225">git add&#12391;&#30331;&#37682;</text></g><g class="entity" data-entity="N3" data-source-line="33" data-uid="ent0017" id="entity_N3"><path d="M6,445.54 L6,500.9384 L139.144,500.9384 L139.144,455.54 L129.144,445.54 L6,445.54" fill="#FEFFDD" style="stroke:#181818;stroke-width:0.5;"/><path d="M129.144,445.54 L129.144,455.54 L139.144,455.54 L129.144,445.54" fill="#FEFFDD" style="stroke:#181818;stroke-width:1;"/><text fill="#000000" font-family="sans-serif" font-size="13" lengthAdjust="spacing" textLength="112.144" x="12" y="462.6069">Local Repository:</text><text fill="#000000" font-family="sans-serif" font-size="13" lengthAdjust="spacing" textLength="111.3062" x="12" y="477.7397">.git/objects&#12395;&#20445;&#23384;</text><text fill="#000000" font-family="sans-serif" font-size="13" lengthAdjust="spacing" textLength="109.2305" x="12" y="492.8725">git commit&#12391;&#36861;&#21152;</text></g><!--link Working Directory to Staging Area_Index--><g class="link" data-entity-1="Working Directory" data-entity-2="Staging Area_Index" data-source-line="13" data-uid="lnk10" id="link_Working Directory_Staging Area_Index"><path d="M336.04,87.65 C335.49,110.55 334.7945,139.8617 334.2445,162.6917" fill="none" id="Working Directory-to-Staging Area_Index" style="stroke:#0000FF;stroke-width:1;stroke-dasharray:7.0,7.0;"/><polygon fill="#0000FF" points="334.1,168.69,338.3156,159.7889,334.2204,163.6915,330.3179,159.5963,334.1,168.69" style="stroke:#0000FF;stroke-width:1;"/><text fill="#000000" font-family="sans-serif" font-size="13" lengthAdjust="spacing" textLength="45.5635" x="335.57" y="130.3669">git add</text></g><!--link Staging Area_Index to Local Repository--><g class="link" data-entity-1="Staging Area_Index" data-entity-2="Local Repository" data-source-line="14" data-uid="lnk11" id="link_Staging Area_Index_Local Repository"><path d="M333.57,215.41 C333.57,239.3 333.57,270.89 333.57,294.83" fill="none" id="Staging Area_Index-to-Local Repository" style="stroke:#00AA00;stroke-width:1;stroke-dasharray:7.0,7.0;"/><polygon fill="#00AA00" points="333.57,300.83,337.57,291.83,333.57,295.83,329.57,291.83,333.57,300.83" style="stroke:#00AA00;stroke-width:1;"/><text fill="#000000" font-family="sans-serif" font-size="13" lengthAdjust="spacing" textLength="70.2305" x="334.57" y="262.7569">git commit</text></g><!--link Local Repository to index????--><g class="link" data-entity-1="Local Repository" data-entity-2="index&#12501;&#12449;&#12452;&#12523;" data-source-line="15" data-uid="lnk12" id="link_Local Repository_index&#12501;&#12449;&#12452;&#12523;"><path d="M319.4,348.02 C302.06,375.69 276.0765,417.1761 258.7965,444.7461" fill="none" id="Local Repository-to-index&#12501;&#12449;&#12452;&#12523;" style="stroke:#181818;stroke-width:1;"/><polygon fill="#181818" points="255.61,449.83,263.779,444.3284,258.2654,445.5934,257.0004,440.0798,255.61,449.83" style="stroke:#181818;stroke-width:1;"/><text fill="#000000" font-family="sans-serif" font-size="13" lengthAdjust="spacing" textLength="26" x="296.57" y="395.1569">&#26356;&#26032;</text></g><!--link Local Repository to objects??????--><g class="link" data-entity-1="Local Repository" data-entity-2="objects&#12487;&#12451;&#12524;&#12463;&#12488;&#12522;" data-source-line="16" data-uid="lnk13" id="link_Local Repository_objects&#12487;&#12451;&#12524;&#12463;&#12488;&#12522;"><path d="M348.52,348.02 C366.8,375.69 394.2419,417.2543 412.4619,444.8243" fill="none" id="Local Repository-to-objects&#12487;&#12451;&#12524;&#12463;&#12488;&#12522;" style="stroke:#181818;stroke-width:1;"/><polygon fill="#181818" points="415.77,449.83,414.145,440.1161,413.0133,445.6586,407.4708,444.5269,415.77,449.83" style="stroke:#181818;stroke-width:1;"/><text fill="#000000" font-family="sans-serif" font-size="13" lengthAdjust="spacing" textLength="104.0001" x="382.57" y="395.1569">&#12458;&#12502;&#12472;&#12455;&#12463;&#12488;&#20316;&#25104;</text></g><!--link Local Repository to refs??????--><g class="link" data-entity-1="Local Repository" data-entity-2="refs&#12487;&#12451;&#12524;&#12463;&#12488;&#12522;" data-source-line="17" data-uid="lnk14" id="link_Local Repository_refs&#12487;&#12451;&#12524;&#12463;&#12488;&#12522;"><path d="M377.52,347.94 C395.45,356.37 416.63,365.39 436.57,371.54 C462.03,379.39 470.72,372.52 495.57,382.09 C515.13,389.63 518.09,395.52 535.57,407.09 C556.45,420.91 574.6102,433.5829 592.5402,446.3329" fill="none" id="Local Repository-to-refs&#12487;&#12451;&#12524;&#12463;&#12488;&#12522;" style="stroke:#181818;stroke-width:1;"/><polygon fill="#181818" points="597.43,449.81,592.4134,441.3345,593.3552,446.9124,587.7773,447.8542,597.43,449.81" style="stroke:#181818;stroke-width:1;"/><text fill="#000000" font-family="sans-serif" font-size="13" lengthAdjust="spacing" textLength="78.0001" x="524.57" y="395.1569">&#21442;&#29031;&#24773;&#22577;&#26356;&#26032;</text></g><!--link Local Repository to N3--><g class="link" data-entity-1="Local Repository" data-entity-2="N3" data-source-line="40" data-uid="lnk20" id="link_Local Repository_N3"><path d="M277.65,347.91 C242.51,362.92 196.76,384.07 158.57,407.09 C139.96,418.31 120.56,432.74 104.91,445.17" fill="none" id="Local Repository-N3" style="stroke:#181818;stroke-width:1;stroke-dasharray:7.0,7.0;"/></g><!--SRC=[TPBFInj15CVlxwyOzA054wFUSYW4Yr0GAVNWGQICsMbSVsJ3xXvQYf2P8JRKGaMfrZQ2jcAiqTfA3mK9-MDUTZN_HMSs6rpCP8xlE-ypRxxVLwBvDLfWP6ZMoTDryc9wYBm3GXON77VDBXR8CzjbUTzntoxfwhnF2xgQSnbzzRneiJTHkTlxafKSp-xUtGGezSZfWkqJb9zH_4JPG5aEjYeTUHu_P6jAf9wWE5KN8gAplAgUzL2-H_43vIMAQvHLb1UHwhBNHaczQXYSf1Q7C-hCp8nPr5jXrbBggV4h94lqgDIom2X7d5mkaqbo-luUK_BEneRjWq5FwRR-Rwk-yDlVSF_tm9x1fgXU51Sezr7yGr7l2krcBQpk3AGDC56XWa_Yhb8FPIKu_XEF12CgmHEKtv5V4u-Lg4jzXho1_03v6PPvqV4PePuQOxVTR27VWbvbRWBwCib2UFYhK_wg2FTdsyYhABQJ6m99PyBQPRkv1wne4Ss41_8a96CYer5EJxAWDswywp1l15TVWjevnCaYhzyTtdO-tfXuK_3OgvZLSvutsgqZ1OI7X1NmljKCFXmdWAObJAUr4yQzqjAaAISjJFq7]--></g></svg>